<?xml version="1.0" encoding="UTF-8" standalone="no"?>
<!DOCTYPE svg PUBLIC "-//W3C//DTD SVG 1.1//EN" "http://www.w3.org/Graphics/SVG/1.1/DTD/svg11.dtd">
<svg xmlns="http://www.w3.org/2000/svg" xmlns:xlink="http://www.w3.org/1999/xlink" version="1.1" width="259.375pt" height="120.433pt" viewBox="0 0 259.375 120.433">
<g enable-background="new">
<path transform="matrix(1,0,0,-1,12.823,105.583)" d="M 2.83466 0 C 2.83466 1.56555 1.56555 2.83466 0 2.83466 C -1.56555 2.83466 -2.83466 1.56555 -2.83466 0 C -2.83466 -1.56555 -1.56555 -2.83466 0 -2.83466 C 1.56555 -2.83466 2.83466 -1.56555 2.83466 0 Z M 0 0 " fill="#f58000"/>
<path transform="matrix(1,0,0,-1,12.823,105.583)" d="M 63.32425 0 C 63.32425 1.56555 62.05513 2.83466 60.48958 2.83466 C 58.92401 2.83466 57.6549 1.56555 57.6549 0 C 57.6549 -1.56555 58.92401 -2.83466 60.48958 -2.83466 C 62.05513 -2.83466 63.32425 -1.56555 63.32425 0 Z M 60.48958 0 " fill="#f58000"/>
<path transform="matrix(1,0,0,-1,12.823,105.583)" d="M 55.09866 30.24478 C 55.09866 31.81035 53.82956 33.07945 52.26399 33.07945 C 50.69844 33.07945 49.42934 31.81035 49.42934 30.24478 C 49.42934 28.67923 50.69844 27.41011 52.26399 27.41011 C 53.82956 27.41011 55.09866 28.67923 55.09866 30.24478 Z M 52.26399 30.24478 " fill="#f58000"/>
<path transform="matrix(1,0,0,-1,12.823,105.583)" d="M 2.83466 60.48958 C 2.83466 62.05513 1.56555 63.32425 0 63.32425 C -1.56555 63.32425 -2.83466 62.05513 -2.83466 60.48958 C -2.83466 58.92401 -1.56555 57.6549 0 57.6549 C 1.56555 57.6549 2.83466 58.92401 2.83466 60.48958 Z M 0 60.48958 " fill="#f58000"/>
<path transform="matrix(1,0,0,-1,12.823,105.583)" stroke-width=".99628" stroke-linecap="butt" stroke-miterlimit="10" stroke-linejoin="miter" fill="none" stroke="#1f6e96" d="M 3.0339 0 L 57.45566 0 M 58.34427 2.1453 L 2.1453 58.34427 M 0 57.45566 L 0 3.0339 "/>
<path transform="matrix(1,0,0,-1,12.823,105.583)" stroke-width=".99628" stroke-linecap="butt" stroke-miterlimit="10" stroke-linejoin="miter" fill="none" stroke="#1f6e96" d="M 59.69347 2.92747 L 53.0601 27.31735 M 49.63812 31.76433 L 2.62587 58.97003 "/>
<path transform="matrix(1,0,0,-1,12.823,105.583)" stroke-width=".99628" stroke-linecap="butt" stroke-dasharray="2.98883,2.98883" stroke-miterlimit="10" stroke-linejoin="miter" fill="none" stroke="#1f6e96" d="M 2.62587 1.51953 L 49.63812 28.72523 "/>
<symbol id="font_0_7">
<path d="M .244 .74700006 C .16800002 .74700006 .103 .71500006 .060000004 .656 C .019 .601 0 .51 0 .37300004 C 0 .24800001 .017000003 .15900001 .050000006 .105000007 C .09200001 .038000004 .16100002 0 .244 0 C .321 0 .384 .031000004 .428 .091000009 C .468 .14500001 .488 .23700002 .488 .36900003 C .488 .499 .47200004 .587 .438 .642 C .396 .71000006 .327 .74700006 .244 .74700006 M .244 .634 C .28 .634 .30900003 .614 .326 .577 C .34 .54700008 .348 .469 .348 .372 C .348 .293 .34 .21300002 .33 .185 C .314 .143 .284 .120000008 .244 .120000008 C .20700002 .120000008 .179 .139 .16200002 .17500001 C .148 .20500002 .14000002 .28 .14000002 .374 C .14000002 .45700003 .148 .53800007 .158 .56700006 C .17400001 .61 .20400001 .634 .244 .634 Z "/>
</symbol>
<use xlink:href="#font_0_7" transform="matrix(11.3574,0,0,-11.3574,3.4833649,117.33022)"/>
<symbol id="font_0_8">
<path d="M .17 .48900003 L .17 0 L .31 0 L .31 .70900008 L .21700002 .70900008 C .19500001 .625 .12200001 .582 0 .582 L 0 .48900003 L .17 .48900003 Z "/>
</symbol>
<use xlink:href="#font_0_8" transform="matrix(11.3574,0,0,-11.3574,77.4373,117.069)"/>
<symbol id="font_0_1">
<path d="M .48200003 .125 L .18200001 .125 C .2 .163 .222 .18300002 .326 .259 C .44900004 .349 .48500005 .40300004 .48500005 .499 C .48500005 .63600006 .39100004 .72400006 .24200002 .72400006 C .095 .72400006 .009 .637 .009 .48700003 C .009 .48100005 .009 .47300003 .010000002 .462 L .14400001 .462 L .14400001 .485 C .14400001 .564 .18100001 .61 .245 .61 C .307 .61 .34500004 .56700006 .34500004 .49600003 C .34500004 .418 .32000003 .38700003 .164 .27600003 C .044 .194 .0069999995 .13100001 0 0 L .48200003 0 L .48200003 .125 Z "/>
</symbol>
<use xlink:href="#font_0_1" transform="matrix(11.3574,0,0,-11.3574,68.78072,71.985)"/>
<symbol id="font_0_2">
<path d="M .18800001 .34 C .237 .34 .246 .33900003 .27 .333 C .317 .32000003 .347 .279 .347 .22700002 C .347 .165 .303 .120000008 .24200003 .120000008 C .17600002 .120000008 .14000002 .158 .136 .231 L 0 .231 C .0010000002 .089 .094000007 0 .23900001 0 C .39000003 0 .48700003 .089 .48700003 .22700002 C .48700003 .31 .451 .36400003 .371 .40300004 C .437 .44400005 .46400003 .48900003 .46400003 .554 C .46400003 .67200008 .37600003 .74700006 .23900001 .74700006 C .158 .74700006 .09 .71900007 .050000006 .66700008 C .022000002 .632 .0090000019 .58400008 .0090000019 .521 L .0090000019 .50900009 L .13900002 .50900009 C .14000002 .54700008 .143 .56600007 .15 .58400008 C .163 .615 .19500001 .634 .23600002 .634 C .292 .634 .324 .6 .324 .541 C .324 .47000004 .283 .43400003 .20000002 .43400003 L .18800001 .43400003 L .18800001 .34 Z "/>
</symbol>
<use xlink:href="#font_0_2" transform="matrix(11.3574,0,0,-11.3574,3.4833649,41.791219)"/>
<path transform="matrix(1,0,0,-1,12.823,105.583)" d="M 123.81384 0 C 123.81384 1.56555 122.54474 2.83466 120.97917 2.83466 C 119.41362 2.83466 118.14452 1.56555 118.14452 0 C 118.14452 -1.56555 119.41362 -2.83466 120.97917 -2.83466 C 122.54474 -2.83466 123.81384 -1.56555 123.81384 0 Z M 120.97917 0 " fill="#f58000"/>
<path transform="matrix(1,0,0,-1,12.823,105.583)" d="M 184.30342 0 C 184.30342 1.56555 183.03432 2.83466 181.46877 2.83466 C 179.9032 2.83466 178.6341 1.56555 178.6341 0 C 178.6341 -1.56555 179.9032 -2.83466 181.46877 -2.83466 C 183.03432 -2.83466 184.30342 -1.56555 184.30342 0 Z M 181.46877 0 " fill="#f58000"/>
<path transform="matrix(1,0,0,-1,12.823,105.583)" d="M 236.56743 30.24478 C 236.56743 31.81035 235.29833 33.07945 233.73278 33.07945 C 232.1672 33.07945 230.8981 31.81035 230.8981 30.24478 C 230.8981 28.67923 232.1672 27.41011 233.73278 27.41011 C 235.29833 27.41011 236.56743 28.67923 236.56743 30.24478 Z M 233.73278 30.24478 " fill="#f58000"/>
<path transform="matrix(1,0,0,-1,12.823,105.583)" d="M 176.07785 30.24478 C 176.07785 31.81035 174.80875 33.07945 173.24318 33.07945 C 171.67763 33.07945 170.40851 31.81035 170.40851 30.24478 C 170.40851 28.67923 171.67763 27.41011 173.24318 27.41011 C 174.80875 27.41011 176.07785 28.67923 176.07785 30.24478 Z M 173.24318 30.24478 " fill="#f58000"/>
<path transform="matrix(1,0,0,-1,12.823,105.583)" d="M 123.81384 60.48958 C 123.81384 62.05513 122.54474 63.32425 120.97917 63.32425 C 119.41362 63.32425 118.14452 62.05513 118.14452 60.48958 C 118.14452 58.92401 119.41362 57.6549 120.97917 57.6549 C 122.54474 57.6549 123.81384 58.92401 123.81384 60.48958 Z M 120.97917 60.48958 " fill="#f58000"/>
<path transform="matrix(1,0,0,-1,12.823,105.583)" d="M 184.30342 60.48958 C 184.30342 62.05513 183.03432 63.32425 181.46877 63.32425 C 179.9032 63.32425 178.6341 62.05513 178.6341 60.48958 C 178.6341 58.92401 179.9032 57.6549 181.46877 57.6549 C 183.03432 57.6549 184.30342 58.92401 184.30342 60.48958 Z M 181.46877 60.48958 " fill="#f58000"/>
<path transform="matrix(1,0,0,-1,12.823,105.583)" d="M 236.56743 90.73438 C 236.56743 92.29993 235.29833 93.56903 233.73278 93.56903 C 232.1672 93.56903 230.8981 92.29993 230.8981 90.73438 C 230.8981 89.16881 232.1672 87.8997 233.73278 87.8997 C 235.29833 87.8997 236.56743 89.16881 236.56743 90.73438 Z M 233.73278 90.73438 " fill="#f58000"/>
<path transform="matrix(1,0,0,-1,12.823,105.583)" d="M 176.07785 90.73438 C 176.07785 92.29993 174.80875 93.56903 173.24318 93.56903 C 171.67763 93.56903 170.40851 92.29993 170.40851 90.73438 C 170.40851 89.16881 171.67763 87.8997 173.24318 87.8997 C 174.80875 87.8997 176.07785 89.16881 176.07785 90.73438 Z M 173.24318 90.73438 " fill="#f58000"/>
<path transform="matrix(1,0,0,-1,12.823,105.583)" stroke-width=".99628" stroke-linecap="butt" stroke-miterlimit="10" stroke-linejoin="miter" fill="none" stroke="#1f6e96" d="M 124.01309 0 L 178.43485 0 M 181.46877 3.0339 L 181.46877 57.45566 M 178.43485 60.48958 L 124.01309 60.48958 M 120.97917 57.45566 L 120.97917 3.0339 "/>
<path transform="matrix(1,0,0,-1,12.823,105.583)" stroke-width=".99628" stroke-linecap="butt" stroke-miterlimit="10" stroke-linejoin="miter" fill="none" stroke="#1f6e96" d="M 184.09465 1.51953 L 231.10689 28.72523 M 233.73278 33.2787 L 233.73278 87.70045 M 230.69886 90.73438 L 176.2771 90.73438 M 170.6173 89.21483 L 123.60506 62.00912 "/>
<path transform="matrix(1,0,0,-1,12.823,105.583)" stroke-width=".99628" stroke-linecap="butt" stroke-miterlimit="10" stroke-linejoin="miter" fill="none" stroke="#1f6e96" d="M 184.09465 62.00912 L 231.10689 89.21483 "/>
<path transform="matrix(1,0,0,-1,12.823,105.583)" stroke-width=".99628" stroke-linecap="butt" stroke-dasharray="2.98883,2.98883" stroke-miterlimit="10" stroke-linejoin="miter" fill="none" stroke="#1f6e96" d="M 123.60506 1.51953 L 170.6173 28.72523 M 176.2771 30.24478 L 230.69886 30.24478 "/>
<path transform="matrix(1,0,0,-1,12.823,105.583)" stroke-width=".99628" stroke-linecap="butt" stroke-dasharray="2.98883,2.98883" stroke-miterlimit="10" stroke-linejoin="miter" fill="none" stroke="#1f6e96" d="M 173.24318 33.2787 L 173.24318 87.70045 "/>
<use xlink:href="#font_0_7" transform="matrix(11.3574,0,0,-11.3574,124.46136,117.33022)"/>
<use xlink:href="#font_0_8" transform="matrix(11.3574,0,0,-11.3574,198.41532,117.069)"/>
<use xlink:href="#font_0_1" transform="matrix(11.3574,0,0,-11.3574,250.24672,71.985)"/>
<use xlink:href="#font_0_2" transform="matrix(11.3574,0,0,-11.3574,176.72437,72.03622)"/>
<symbol id="font_0_3">
<path d="M .49800004 .273 L .42400003 .273 L .42400003 .70900008 L .25900004 .70900008 L 0 .275 L 0 .157 L .28400005 .157 L .28400005 0 L .42400003 0 L .42400003 .157 L .49800004 .157 L .49800004 .273 M .28400005 .273 L .09900001 .273 L .28400005 .57600006 L .28400005 .273 Z "/>
</symbol>
<use xlink:href="#font_0_3" transform="matrix(11.3574,0,0,-11.3574,124.40457,56.579999)"/>
<symbol id="font_0_4">
<path d="M .462 .73200008 L .083000008 .73200008 L .020000002 .337 L .14600002 .337 C .16100002 .372 .19300002 .39100004 .23600002 .39100004 C .307 .39100004 .35 .34 .35 .254 C .35 .171 .306 .120000008 .23600002 .120000008 C .17500001 .120000008 .14100002 .15100001 .13800001 .208 L 0 .208 C .0020000004 .08400001 .096 0 .23400001 0 C .386 0 .49 .104 .49 .25700004 C .49 .402 .4 .50200006 .269 .50200006 C .22200002 .50200006 .18700002 .49 .14600002 .45900003 L .16900002 .60700008 L .462 .60700008 L .462 .73200008 Z "/>
</symbol>
<use xlink:href="#font_0_4" transform="matrix(11.3574,0,0,-11.3574,197.94966,56.63622)"/>
<symbol id="font_0_5">
<path d="M .47500003 .57100006 C .468 .61700007 .45900003 .64000007 .441 .666 C .404 .717 .33900003 .74700006 .262 .74700006 C .17400001 .74700006 .102 .70800009 .059000005 .637 C .017 .568 0 .48900003 0 .36 C 0 .238 .015000001 .16200002 .051000004 .105000007 C .09200001 .039000006 .16600001 0 .25 0 C .391 0 .48700006 .106000009 .48700006 .26000003 C .48700006 .39600004 .40300004 .49 .28100003 .49 C .22300002 .49 .184 .47300003 .14 .42700003 C .143 .50200006 .143 .50200006 .149 .532 C .162 .596 .202 .634 .25800003 .634 C .303 .634 .32700003 .61600008 .345 .57100006 L .47500003 .57100006 M .24700001 .38000003 C .312 .38000003 .354 .32900004 .354 .25100003 C .354 .17500001 .308 .120000008 .24600002 .120000008 C .18200001 .120000008 .138 .17300001 .138 .24800001 C .138 .326 .18200001 .38000003 .24700001 .38000003 Z "/>
</symbol>
<use xlink:href="#font_0_5" transform="matrix(11.3574,0,0,-11.3574,250.26943,11.547223)"/>
<symbol id="font_0_6">
<path d="M .49899999 .70900008 L 0 .70900008 L 0 .58400008 L .35300002 .58400008 C .31 .53800007 .22500001 .409 .19700001 .347 C .148 .24400002 .12300001 .15100001 .104 0 L .24500002 0 C .258 .224 .331 .39600004 .49899999 .59900006 L .49899999 .70900008 Z "/>
</symbol>
<use xlink:href="#font_0_6" transform="matrix(11.3574,0,0,-11.3574,176.72437,11.496002)"/>
</g>
</svg>
