<?xml version="1.0" encoding="UTF-8" standalone="no"?>
<!DOCTYPE svg PUBLIC "-//W3C//DTD SVG 1.1//EN" "http://www.w3.org/Graphics/SVG/1.1/DTD/svg11.dtd">
<svg xmlns="http://www.w3.org/2000/svg" xmlns:xlink="http://www.w3.org/1999/xlink" version="1.1" width="508.37pt" height="257.62pt" viewBox="0 0 508.37 257.62">
<g enable-background="new">
<path transform="matrix(.1,0,0,-.1,0,257.62)" d="M 1126.98 579.746 L 3962.01 579.746 L 3962.01 1997.266 L 1126.98 1997.266 Z " fill="#cceeff"/>
<path transform="matrix(.1,0,0,-.1,0,257.62)" stroke-width="9.9628" stroke-linecap="butt" stroke-miterlimit="10" stroke-linejoin="miter" fill="none" stroke="#1f6e96" d="M 1126.98 579.746 L 3962.01 579.746 L 3962.01 1997.266 L 1126.98 1997.266 Z "/>
<path transform="matrix(.1,0,0,-.1,0,257.62)" stroke-width="9.9628" stroke-linecap="butt" stroke-miterlimit="10" stroke-linejoin="miter" fill="none" stroke="#1f6e96" d="M 1126.98 966.23 L 2176.21 1572.01 "/>
<path transform="matrix(.1,0,0,-.1,0,257.62)" stroke-width="19.9255" stroke-linecap="butt" stroke-miterlimit="10" stroke-linejoin="miter" fill="none" stroke="#6100ad" d="M 2176.21 1572.01 L 2912.77 1997.26 "/>
<path transform="matrix(.1,0,0,-.1,0,257.62)" stroke-width="19.9255" stroke-linecap="butt" stroke-miterlimit="10" stroke-linejoin="miter" fill="none" stroke="#6100ad" d="M 2409.68 1706.81 L 2700.15 1997.26 "/>
<path transform="matrix(.1,0,0,-.1,0,257.62)" stroke-width="9.9628" stroke-linecap="butt" stroke-miterlimit="10" stroke-linejoin="miter" fill="none" stroke="#808080" d="M 1126.98 296.242 L 4160.82 296.242 "/>
<path transform="matrix(.1,0,0,-.1,0,257.62)" d="M 4222.54 296.242 C 4214.96 297.934 4181.65 307.516 4160.82 317.938 L 4160.82 274.551 C 4181.65 284.973 4214.96 294.555 4222.54 296.242 " fill="#808080"/>
<path transform="matrix(.1,0,0,-.1,0,257.62)" stroke-width="9.9628" stroke-linecap="butt" stroke-miterlimit="10" stroke-linejoin="miter" fill="none" stroke="#808080" d="M 4222.54 296.242 C 4214.96 297.934 4181.65 307.516 4160.82 317.938 L 4160.82 274.551 C 4181.65 284.973 4214.96 294.555 4222.54 296.242 Z "/>
<symbol id="font_0_1">
<path d="M .33900003 .272 L .51500007 .54 L .347 .54 L .26000003 .377 L .172 .54 L .0040000008 .54 L .18 .272 L 0 0 L .16800002 0 L .26000003 .16800002 L .351 0 L .51900008 0 L .33900003 .272 Z "/>
</symbol>
<use xlink:href="#font_0_1" transform="matrix(9.4645,0,0,-9.4645,428.05445,230.511)" fill="#808080"/>
<path transform="matrix(.1,0,0,-.1,0,257.62)" stroke-width="9.9628" stroke-linecap="butt" stroke-miterlimit="10" stroke-linejoin="miter" fill="none" stroke="#808080" d="M 1126.98 296.242 L 1126.98 225.391 "/>
<symbol id="font_1_1">
<path d="M .57600006 0 C .59300008 0 .611 0 .611 .019999996 C .611 .040000008 .59300008 .040000008 .57600006 .040000008 L .035000005 .040000008 C .018 .040000008 0 .040000008 0 .019999996 C 0 0 .018 0 .035000005 0 L .57600006 0 Z "/>
</symbol>
<use xlink:href="#font_1_1" transform="matrix(9.9626,0,0,-9.9626,95.0839,243.2774)" fill="#808080"/>
<symbol id="font_2_2">
<path d="M .205 .64000007 C .205 .66400006 .205 .666 .18200003 .666 C .120000008 .60200008 .032000007 .60200008 0 .60200008 L 0 .57100006 C .020000004 .57100006 .07900001 .57100006 .13100001 .597 L .13100001 .079 C .13100001 .043 .128 .031000002 .038000004 .031000002 L .0060000049 .031000002 L .0060000049 0 C .04100001 .003 .128 .003 .168 .003 C .20800002 .003 .29500003 .003 .33000005 0 L .33000005 .031000002 L .29800005 .031000002 C .20800002 .031000002 .205 .042000005 .205 .079 L .205 .64000007 Z "/>
</symbol>
<symbol id="font_2_1">
<path d="M .421 .34200005 C .421 .42200003 .416 .50200006 .381 .57600006 C .335 .67200008 .25300003 .688 .211 .688 C .15100001 .688 .07800001 .66200008 .037000006 .56900009 C .0050000029 .5 0 .42200003 0 .34200005 C 0 .26700003 .0040000008 .177 .045000007 .101 C .088 .020000002 .161 0 .21000001 0 C .264 0 .34 .021000002 .384 .116000007 C .416 .185 .421 .263 .421 .34200005 M .21000001 .022000002 C .171 .022000002 .112 .047000003 .094 .143 C .083000008 .20300001 .083000008 .29500003 .083000008 .35400004 C .083000008 .41800005 .083000008 .48400004 .091000009 .53800007 C .11 .65700009 .185 .66600009 .21000001 .66600009 C .243 .66600009 .30900003 .64800009 .328 .549 C .338 .49300004 .338 .41700004 .338 .35400004 C .338 .279 .338 .21100001 .32700003 .147 C .312 .052 .255 .022000002 .21000001 .022000002 Z "/>
</symbol>
<use xlink:href="#font_2_2" transform="matrix(9.9626,0,0,-9.9626,102.89251,245.5688)" fill="#808080"/>
<use xlink:href="#font_2_1" transform="matrix(9.9626,0,0,-9.9626,107.37568,245.78798)" fill="#808080"/>
<use xlink:href="#font_2_1" transform="matrix(9.9626,0,0,-9.9626,112.35698,245.78798)" fill="#808080"/>
<symbol id="font_3_12">
<path d="M .083000008 .72900006 L 0 .72900006 L 0 0 L .083000008 0 L .083000008 .20400001 L .16400002 .284 L .34100003 0 L .44400005 0 L .23000002 .34300003 L .41200004 .52400007 L .305 .52400007 L .083000008 .30200003 L .083000008 .72900006 Z "/>
</symbol>
<symbol id="font_3_14">
<path d="M 0 .52400007 L 0 0 L .084000017 0 L .084000017 .32900004 C .084000017 .40500004 .139 .46600003 .20700002 .46600003 C .26900003 .46600003 .30400003 .42800004 .30400003 .36100004 L .30400003 0 L .38800005 0 L .38800005 .32900004 C .38800005 .40500004 .44300003 .46600003 .51100006 .46600003 C .572 .46600003 .60800006 .42700003 .60800006 .36100004 L .60800006 0 L .69200006 0 L .69200006 .393 C .69200006 .48700003 .638 .53900006 .54 .53900006 C .47000004 .53900006 .42800004 .518 .37900005 .45900003 C .34800003 .51500007 .30600003 .53900006 .23800004 .53900006 C .16800002 .53900006 .122 .513 .077 .45000003 L .077 .52400007 L 0 .52400007 Z "/>
</symbol>
<use xlink:href="#font_3_12" transform="matrix(9.4645,0,0,-9.4645,119.075878,245.5688)" fill="#808080"/>
<use xlink:href="#font_3_14" transform="matrix(9.4645,0,0,-9.4645,123.9217,245.5688)" fill="#808080"/>
<path transform="matrix(.1,0,0,-.1,0,257.62)" stroke-width="9.9628" stroke-linecap="butt" stroke-miterlimit="10" stroke-linejoin="miter" fill="none" stroke="#808080" d="M 3961.83 296.242 L 3961.83 225.391 "/>
<use xlink:href="#font_2_2" transform="matrix(9.9626,0,0,-9.9626,382.49967,245.5688)" fill="#808080"/>
<use xlink:href="#font_2_1" transform="matrix(9.9626,0,0,-9.9626,386.98286,245.78798)" fill="#808080"/>
<use xlink:href="#font_2_1" transform="matrix(9.9626,0,0,-9.9626,391.96415,245.78798)" fill="#808080"/>
<use xlink:href="#font_3_12" transform="matrix(9.4645,0,0,-9.4645,398.68305,245.5688)" fill="#808080"/>
<use xlink:href="#font_3_14" transform="matrix(9.4645,0,0,-9.4645,403.52885,245.5688)" fill="#808080"/>
<path transform="matrix(.1,0,0,-.1,0,257.62)" stroke-width="9.9628" stroke-linecap="butt" stroke-miterlimit="10" stroke-linejoin="miter" fill="none" stroke="#808080" d="M 843.473 579.746 L 843.473 2196.08 "/>
<path transform="matrix(.1,0,0,-.1,0,257.62)" d="M 843.473 2257.8 C 841.785 2250.22 832.203 2216.9 821.781 2196.08 L 865.168 2196.08 C 854.742 2216.9 845.164 2250.22 843.473 2257.8 " fill="#808080"/>
<path transform="matrix(.1,0,0,-.1,0,257.62)" stroke-width="9.9628" stroke-linecap="butt" stroke-miterlimit="10" stroke-linejoin="miter" fill="none" stroke="#808080" d="M 843.473 2257.8 C 841.785 2250.22 832.203 2216.9 821.781 2196.08 L 865.168 2196.08 C 854.742 2216.9 845.164 2250.22 843.473 2257.8 Z "/>
<symbol id="font_0_2">
<path d="M .38500003 .75900009 L .273 .366 L .154 .75900009 L 0 .75900009 L .201 .19700001 L .201 .19600001 L .201 .19300002 C .201 .142 .163 .10300001 .114 .10300001 C .103 .10300001 .095 .10400001 .077 .109000008 L .077 .004000008 C .098000008 .001000002 .11 0 .127 0 C .162 0 .20400001 .0069999995 .22800002 .017000005 C .26700003 .033000009 .284 .05600001 .307 .120000008 L .52900007 .75900009 L .38500003 .75900009 Z "/>
</symbol>
<use xlink:href="#font_0_2" transform="matrix(9.4645,0,0,-9.4645,81.80428,26.270724)" fill="#808080"/>
<path transform="matrix(.1,0,0,-.1,0,257.62)" stroke-width="9.9628" stroke-linecap="butt" stroke-miterlimit="10" stroke-linejoin="miter" fill="none" stroke="#808080" d="M 843.473 579.746 L 772.621 579.746 "/>
<use xlink:href="#font_1_1" transform="matrix(9.9626,0,0,-9.9626,37.553098,200.3556)" fill="#808080"/>
<use xlink:href="#font_2_2" transform="matrix(9.9626,0,0,-9.9626,45.361703,202.647)" fill="#808080"/>
<use xlink:href="#font_2_1" transform="matrix(9.9626,0,0,-9.9626,49.84487,202.86618)" fill="#808080"/>
<use xlink:href="#font_2_1" transform="matrix(9.9626,0,0,-9.9626,54.82617,202.86618)" fill="#808080"/>
<use xlink:href="#font_3_12" transform="matrix(9.4645,0,0,-9.4645,61.54507,202.647)" fill="#808080"/>
<use xlink:href="#font_3_14" transform="matrix(9.4645,0,0,-9.4645,66.39089,202.647)" fill="#808080"/>
<path transform="matrix(.1,0,0,-.1,0,257.62)" stroke-width="9.9628" stroke-linecap="butt" stroke-miterlimit="10" stroke-linejoin="miter" fill="none" stroke="#808080" d="M 843.473 1997.17 L 772.621 1997.17 "/>
<use xlink:href="#font_2_1" transform="matrix(9.9626,0,0,-9.9626,54.82564,61.540178)" fill="#808080"/>
<use xlink:href="#font_3_12" transform="matrix(9.4645,0,0,-9.4645,61.54502,61.321)" fill="#808080"/>
<use xlink:href="#font_3_14" transform="matrix(9.4645,0,0,-9.4645,66.39085,61.321)" fill="#808080"/>
<symbol id="font_3_d">
<path d="M .44000004 .37100003 C .43600003 .42200003 .42500005 .455 .40500004 .48400004 C .36900003 .53300008 .30600003 .56200006 .233 .56200006 C .092 .56200006 0 .45000003 0 .27600003 C 0 .10700001 .09 0 .23200001 0 C .35700003 0 .43600003 .075 .44600005 .20300001 L .36200003 .20300001 C .34800003 .119 .30500005 .07700001 .23400001 .07700001 C .142 .07700001 .087000008 .15200001 .087000008 .27600003 C .087000008 .407 .141 .485 .23200001 .485 C .30200003 .485 .34600003 .44400005 .35600005 .37100003 L .44000004 .37100003 Z "/>
</symbol>
<symbol id="font_3_4">
<path d="M 0 .52400007 L 0 0 L .08400001 0 L .08400001 .272 C .08400001 .347 .103 .39600004 .143 .425 C .169 .44400005 .194 .45000003 .252 .45100004 L .252 .536 C .238 .53800007 .231 .53900006 .22 .53900006 C .16600001 .53900006 .125 .507 .07700001 .42900003 L .07700001 .52400007 L 0 .52400007 Z "/>
</symbol>
<symbol id="font_3_7">
<path d="M .41700004 .023000002 L .41700004 .54700008 L .33400003 .54700008 L .33400003 .25 C .33400003 .143 .27800004 .073 .19100002 .073 C .125 .073 .083 .113000009 .083 .17600002 L .083 .54700008 L 0 .54700008 L 0 .143 C 0 .056 .065000008 0 .167 0 C .24400002 0 .293 .027000003 .342 .09600001 L .342 .023000002 L .41700004 .023000002 Z "/>
</symbol>
<symbol id="font_3_5">
<path d="M .404 .40100003 C .403 .50400009 .335 .56200006 .21400002 .56200006 C .092 .56200006 .013 .499 .013 .402 C .013 .32000003 .055 .28100003 .17900002 .25100003 L .257 .23200001 C .315 .21800001 .338 .19700001 .338 .15900001 C .338 .11000001 .289 .07700001 .21599999 .07700001 C .171 .07700001 .13300002 .09 .11200001 .112 C .099 .127 .093 .142 .08800001 .179 L 0 .179 C .0040000008 .058000003 .072000008 0 .20900002 0 C .34100003 0 .425 .065000008 .425 .16600001 C .425 .24400002 .381 .287 .277 .312 L .197 .33100004 C .12900001 .347 .1 .36900003 .1 .40600003 C .1 .45400004 .143 .485 .211 .485 C .278 .485 .314 .45600004 .316 .40100003 L .404 .40100003 Z "/>
</symbol>
<symbol id="font_3_6">
<path d="M .24000001 .54700008 L .15400002 .54700008 L .15400002 .69100007 L .071 .69100007 L .071 .54700008 L 0 .54700008 L 0 .47900004 L .071 .47900004 L .071 .083000008 C .071 .030000002 .10700001 0 .172 0 C .19200002 0 .21200001 .0020000004 .24000001 .007000001 L .24000001 .07700001 C .22900002 .074 .216 .073 .20000002 .073 C .164 .073 .15400002 .083000008 .15400002 .120000008 L .15400002 .47900004 L .24000001 .47900004 L .24000001 .54700008 Z "/>
</symbol>
<symbol id="font_3_13">
<path d="M .08400001 .72900006 L 0 .72900006 L 0 0 L .08400001 0 L .08400001 .72900006 Z "/>
</symbol>
<symbol id="font_3_9">
<path d="M .49300004 .072000008 C .48400004 .07000001 .48000003 .07000001 .47500003 .07000001 C .44600005 .07000001 .43000005 .08500001 .43000005 .11100001 L .43000005 .41900004 C .43000005 .512 .36200003 .56200006 .23300001 .56200006 C .157 .56200006 .094000007 .54 .059 .50100007 C .035000005 .47400005 .024999999 .44400005 .023000002 .39200003 L .107 .39200003 C .114 .45600004 .15200001 .485 .23000002 .485 C .305 .485 .34700004 .45700003 .34700004 .407 L .34700004 .38500003 C .34700004 .35000003 .32600004 .335 .26000003 .32700003 C .14200002 .312 .124000009 .30800004 .092 .29500003 C .031000004 .27 0 .223 0 .155 C 0 .060000004 .066 0 .17200002 0 C .238 0 .291 .023000002 .35000003 .07700001 C .35600005 .024000003 .38200004 0 .43600003 0 C .45300005 0 .46600003 .0020000004 .49300004 .0090000019 L .49300004 .072000008 M .34700004 .18800001 C .34700004 .16000001 .33900003 .143 .314 .120000008 C .28000004 .089 .23900002 .073 .19 .073 C .125 .073 .087000008 .104 .087000008 .157 C .087000008 .21200001 .124000009 .24000001 .21300003 .25300003 C .30100004 .26500003 .31900005 .269 .34700004 .282 L .34700004 .18800001 Z "/>
</symbol>
<symbol id="font_3_b">
<path d="M 0 .75200006 L 0 .023000002 L .075 .023000002 L .075 .09 C .11500001 .029000003 .16800002 0 .24100001 0 C .37900005 0 .469 .113000009 .469 .287 C .469 .45700003 .38300003 .56200006 .24500002 .56200006 C .17300001 .56200006 .12200001 .535 .083000008 .476 L .083000008 .75200006 L 0 .75200006 M .22900002 .48400004 C .32200004 .48400004 .38200004 .40300004 .38200004 .27800004 C .38200004 .15900001 .32000003 .07800001 .22900002 .07800001 C .141 .07800001 .083000008 .158 .083000008 .28100003 C .083000008 .404 .141 .48400004 .22900002 .48400004 Z "/>
</symbol>
<symbol id="font_3_8">
<path d="M .54800006 0 L .702 .52400007 L .60800006 .52400007 L .50400009 .116000007 L .401 .52400007 L .299 .52400007 L .19900002 .116000007 L .09200001 .52400007 L 0 .52400007 L .15200001 0 L .246 0 L .347 .411 L .453 0 L .54800006 0 Z "/>
</symbol>
<symbol id="font_3_f">
<path d="M .47300003 .25700004 C .47300003 .337 .46700005 .38500003 .45200003 .42400003 C .41800005 .51 .33800004 .56200006 .24 .56200006 C .094 .56200006 0 .45000003 0 .27800004 C 0 .106000009 .091000009 0 .23800002 0 C .35800005 0 .44100005 .068 .46200005 .18200001 L .37800003 .18200001 C .35500003 .113000009 .30800004 .07700001 .24100001 .07700001 C .18800001 .07700001 .143 .101 .114999998 .14500001 C .095 .17500001 .088 .20500002 .087 .25700004 L .47300003 .25700004 M .089 .32500003 C .096 .42200003 .155 .485 .23900001 .485 C .32100005 .485 .38400004 .41700004 .38400004 .33100004 C .38400004 .32900004 .38400004 .32700003 .38300003 .32500003 L .089 .32500003 Z "/>
</symbol>
<symbol id="font_3_e">
<path d="M .46900005 .75200006 L .38600005 .75200006 L .38600005 .48100005 C .351 .53400006 .29500003 .56200006 .22500003 .56200006 C .089 .56200006 0 .453 0 .286 C 0 .109000008 .087000008 0 .22800002 0 C .3 0 .35000003 .027000003 .39500005 .09200001 L .39500005 .023000002 L .46900005 .023000002 L .46900005 .75200006 M .23900002 .48400004 C .32900004 .48400004 .38600005 .404 .38600005 .279 C .38600005 .158 .328 .07800001 .24000001 .07800001 C .148 .07800001 .087000008 .15900001 .087000008 .28100003 C .087000008 .40300004 .148 .48400004 .23900002 .48400004 Z "/>
</symbol>
<symbol id="font_3_11">
<path d="M .38300003 .74200007 L .38300003 .666 C .341 .72800007 .29 .757 .223 .757 C .09 .757 0 .64100006 0 .47100003 C 0 .38500003 .023 .315 .06600001 .26500003 C .105000007 .22100002 .16100002 .19500001 .216 .19500001 C .282 .19500001 .328 .223 .375 .289 L .375 .26200003 C .375 .19100002 .366 .148 .345 .119 C .323 .088 .28 .07000001 .22900002 .07000001 C .19100002 .07000001 .157 .08 .134 .098000008 C .11500001 .113000009 .10700001 .127 .10200001 .158 L .017000003 .158 C .026000003 .059 .103 0 .22600003 0 C .304 0 .371 .025000006 .405 .067 C .44500003 .115 .46 .18100001 .46 .30400003 L .46 .74200007 L .38300003 .74200007 M .23200001 .68 C .322 .68 .375 .60400006 .375 .47300006 C .375 .34800003 .321 .272 .23300003 .272 C .142 .272 .087000008 .34900005 .087000008 .476 C .087000008 .602 .143 .68 .23200001 .68 Z "/>
</symbol>
<use xlink:href="#font_3_d" transform="matrix(9.4645,0,0,-9.4645,159.3634,96.64267)" fill="#6100ad"/>
<use xlink:href="#font_3_4" transform="matrix(9.4645,0,0,-9.4645,164.4553,96.42499)" fill="#6100ad"/>
<use xlink:href="#font_3_7" transform="matrix(9.4645,0,0,-9.4645,167.71099,96.64267)" fill="#6100ad"/>
<use xlink:href="#font_3_5" transform="matrix(9.4645,0,0,-9.4645,172.67986,96.64267)" fill="#6100ad"/>
<use xlink:href="#font_3_6" transform="matrix(9.4645,0,0,-9.4645,177.22283,96.64267)" fill="#6100ad"/>
<use xlink:href="#font_3_5" transform="matrix(9.4645,0,0,-9.4645,246.084,160.67856)" fill="#6100ad"/>
<use xlink:href="#font_3_13" transform="matrix(9.4645,0,0,-9.4645,251.13805,160.46088)" fill="#6100ad"/>
<use xlink:href="#font_3_9" transform="matrix(9.4645,0,0,-9.4645,252.99309,160.67856)" fill="#6100ad"/>
<use xlink:href="#font_3_b" transform="matrix(9.4645,0,0,-9.4645,258.36894,160.67856)" fill="#6100ad"/>
<use xlink:href="#font_3_8" transform="matrix(9.4645,0,0,-9.4645,270.353,46.084886)" fill="#6100ad"/>
<use xlink:href="#font_3_f" transform="matrix(9.4645,0,0,-9.4645,277.41346,46.302568)" fill="#6100ad"/>
<use xlink:href="#font_3_e" transform="matrix(9.4645,0,0,-9.4645,282.5432,46.302568)" fill="#6100ad"/>
<use xlink:href="#font_3_11" transform="matrix(9.4645,0,0,-9.4645,287.8339,48.148149)" fill="#6100ad"/>
<use xlink:href="#font_3_f" transform="matrix(9.4645,0,0,-9.4645,293.20027,46.302568)" fill="#6100ad"/>
<path transform="matrix(.1,0,0,-.1,0,257.62)" stroke-width="19.9255" stroke-linecap="butt" stroke-miterlimit="10" stroke-linejoin="miter" fill="none" stroke="#6100ad" d="M 2793.01 2060.76 L 2742.94 1980.66 "/>
<path transform="matrix(.1,0,0,-.1,0,257.62)" d="M 2722.07 1947.28 C 2725.64 1950.75 2742.57 1965.23 2755.77 1972.63 L 2730.1 1988.68 C 2729.23 1973.56 2723.63 1952 2722.07 1947.28 " fill="#6100ad"/>
<path transform="matrix(.1,0,0,-.1,0,257.62)" stroke-width="17.9324" stroke-linecap="butt" stroke-miterlimit="10" stroke-linejoin="miter" fill="none" stroke="#6100ad" d="M 2722.07 1947.28 C 2725.64 1950.75 2742.57 1965.23 2755.77 1972.63 L 2730.1 1988.68 C 2729.23 1973.56 2723.63 1952 2722.07 1947.28 Z "/>
<symbol id="font_3_2">
<path d="M .23600002 .56200006 C .089 .56200006 0 .45700003 0 .28100003 C 0 .105000007 .088 0 .237 0 C .384 0 .47400005 .105000007 .47400005 .277 C .47400005 .45800004 .387 .56200006 .23600002 .56200006 M .237 .485 C .331 .485 .387 .40800003 .387 .27800004 C .387 .155 .329 .07700001 .237 .07700001 C .14400001 .07700001 .087 .15400002 .087 .28100003 C .087 .407 .14400001 .485 .237 .485 Z "/>
</symbol>
<symbol id="font_3_1">
<path d="M 0 .52400007 L 0 0 L .084000017 0 L .084000017 .289 C .084000017 .39600004 .14000002 .46600003 .22600001 .46600003 C .29200004 .46600003 .33400003 .42600004 .33400003 .363 L .33400003 0 L .41700004 0 L .41700004 .39600004 C .41700004 .483 .35200004 .53900006 .25100003 .53900006 C .17300001 .53900006 .123 .509 .077 .43600003 L .077 .52400007 L 0 .52400007 Z "/>
</symbol>
<symbol id="font_3_c">
<path d="M .368 .74200007 L .22300002 .33400003 L .089 .74200007 L 0 .74200007 L .17700002 .216 L .14500001 .13300002 C .13200002 .096 .113 .082 .078 .082 C .066 .082 .052 .08400001 .034 .088 L .034 .012999997 C .051 .003999993 .068 0 .09 0 C .117000009 0 .14600002 .009000003 .16800002 .025000006 C .19400002 .044 .20900002 .066 .22500001 .108 L .458 .74200007 L .368 .74200007 Z "/>
</symbol>
<use xlink:href="#font_3_b" transform="matrix(9.4645,0,0,-9.4645,3.6649929,131.35668)" fill="#6100ad"/>
<use xlink:href="#font_3_2" transform="matrix(9.4645,0,0,-9.4645,8.756895,131.35668)" fill="#6100ad"/>
<use xlink:href="#font_3_7" transform="matrix(9.4645,0,0,-9.4645,14.293629,131.35668)" fill="#6100ad"/>
<use xlink:href="#font_3_1" transform="matrix(9.4645,0,0,-9.4645,19.603215,131.13899)" fill="#6100ad"/>
<use xlink:href="#font_3_e" transform="matrix(9.4645,0,0,-9.4645,24.449038,131.35668)" fill="#6100ad"/>
<use xlink:href="#font_3_9" transform="matrix(9.4645,0,0,-9.4645,29.862732,131.35668)" fill="#6100ad"/>
<use xlink:href="#font_3_4" transform="matrix(9.4645,0,0,-9.4645,35.380537,131.13899)" fill="#6100ad"/>
<use xlink:href="#font_3_c" transform="matrix(9.4645,0,0,-9.4645,38.35258,133.20226)" fill="#6100ad"/>
<path transform="matrix(.1,0,0,-.1,0,257.62)" stroke-width="3.98" stroke-linecap="butt" stroke-miterlimit="10" stroke-linejoin="miter" fill="none" stroke="#6100ad" d="M 434.629 1266.8 L 463.02 1266.8 "/>
<symbol id="font_3_a">
<path d="M .27500005 .27100004 L .45100004 .52400007 L .35700003 .52400007 L .231 .33400003 L .105000007 .52400007 L .01 .52400007 L .185 .26700003 L 0 0 L .095 0 L .228 .201 L .35900004 0 L .45600004 0 L .27500005 .27100004 Z "/>
</symbol>
<use xlink:href="#font_3_a" transform="matrix(9.4645,0,0,-9.4645,46.463998,131.13899)" fill="#6100ad"/>
<use xlink:href="#font_3_1" transform="matrix(9.4645,0,0,-9.4645,51.697866,131.13899)" fill="#6100ad"/>
<use xlink:href="#font_3_f" transform="matrix(9.4645,0,0,-9.4645,56.676195,131.35668)" fill="#6100ad"/>
<use xlink:href="#font_3_11" transform="matrix(9.4645,0,0,-9.4645,61.83435,133.20226)" fill="#6100ad"/>
<path transform="matrix(.1,0,0,-.1,0,257.62)" stroke-width="19.9255" stroke-linecap="butt" stroke-miterlimit="10" stroke-linejoin="miter" fill="none" stroke="#6100ad" d="M 701.609 1350.4 C 1032.2 1408.76 796.395 1230.17 1047.5 1274.45 "/>
<path transform="matrix(.1,0,0,-.1,0,257.62)" d="M 1086.27 1281.29 C 1081.3 1281.61 1059.22 1284.5 1044.88 1289.36 L 1050.13 1259.54 C 1061.95 1269.01 1081.71 1279.28 1086.27 1281.29 " fill="#6100ad"/>
<path transform="matrix(.1,0,0,-.1,0,257.62)" stroke-width="17.9324" stroke-linecap="butt" stroke-miterlimit="10" stroke-linejoin="miter" fill="none" stroke="#6100ad" d="M 1086.27 1281.29 C 1081.3 1281.61 1059.22 1284.5 1044.88 1289.36 L 1050.13 1259.54 C 1061.95 1269.01 1081.71 1279.28 1086.27 1281.29 Z "/>
<use xlink:href="#font_3_b" transform="matrix(9.4645,0,0,-9.4645,442.58909,131.39667)" fill="#6100ad"/>
<use xlink:href="#font_3_2" transform="matrix(9.4645,0,0,-9.4645,447.681,131.39667)" fill="#6100ad"/>
<use xlink:href="#font_3_7" transform="matrix(9.4645,0,0,-9.4645,453.21775,131.39667)" fill="#6100ad"/>
<use xlink:href="#font_3_1" transform="matrix(9.4645,0,0,-9.4645,458.5273,131.17899)" fill="#6100ad"/>
<use xlink:href="#font_3_e" transform="matrix(9.4645,0,0,-9.4645,463.37315,131.39667)" fill="#6100ad"/>
<use xlink:href="#font_3_9" transform="matrix(9.4645,0,0,-9.4645,468.78688,131.39667)" fill="#6100ad"/>
<use xlink:href="#font_3_4" transform="matrix(9.4645,0,0,-9.4645,474.30467,131.17899)" fill="#6100ad"/>
<use xlink:href="#font_3_c" transform="matrix(9.4645,0,0,-9.4645,477.2767,133.24225)" fill="#6100ad"/>
<path transform="matrix(.1,0,0,-.1,0,257.62)" stroke-width="3.98" stroke-linecap="butt" stroke-miterlimit="10" stroke-linejoin="miter" fill="none" stroke="#6100ad" d="M 4823.86 1266.4 L 4852.25 1266.4 "/>
<symbol id="font_3_3">
<path d="M 0 0 L .08400001 0 L .08400001 .273 C .128 .21900001 .177 .19500001 .24500002 .19500001 C .38000003 .19500001 .469 .30400003 .469 .47100003 C .469 .647 .38300003 .757 .244 .757 C .17300001 .757 .116 .725 .07700001 .66300007 L .07700001 .74200007 L 0 .74200007 L 0 0 M .23 .679 C .32200004 .679 .38200004 .59800007 .38200004 .47300006 C .38200004 .35400004 .32100005 .273 .23 .273 C .142 .273 .08400001 .35300002 .08400001 .476 C .08400001 .59900006 .142 .679 .23 .679 Z "/>
</symbol>
<use xlink:href="#font_3_a" transform="matrix(9.4645,0,0,-9.4645,485.3869,131.17899)" fill="#6100ad"/>
<use xlink:href="#font_3_3" transform="matrix(9.4645,0,0,-9.4645,490.46934,133.24225)" fill="#6100ad"/>
<use xlink:href="#font_3_2" transform="matrix(9.4645,0,0,-9.4645,495.56126,131.39667)" fill="#6100ad"/>
<use xlink:href="#font_3_5" transform="matrix(9.4645,0,0,-9.4645,500.8046,131.39667)" fill="#6100ad"/>
<path transform="matrix(.1,0,0,-.1,0,257.62)" stroke-width="19.9255" stroke-linecap="butt" stroke-miterlimit="10" stroke-linejoin="miter" fill="none" stroke="#6100ad" d="M 4387.37 1226.84 C 4056.79 1168.55 4292.59 1346.75 4041.48 1302.47 "/>
<path transform="matrix(.1,0,0,-.1,0,257.62)" d="M 4002.71 1295.64 C 4007.68 1295.32 4029.76 1292.42 4044.11 1287.56 L 4038.85 1317.38 C 4027.03 1307.91 4007.27 1297.64 4002.71 1295.64 " fill="#6100ad"/>
<path transform="matrix(.1,0,0,-.1,0,257.62)" stroke-width="17.9324" stroke-linecap="butt" stroke-miterlimit="10" stroke-linejoin="miter" fill="none" stroke="#6100ad" d="M 4002.71 1295.64 C 4007.68 1295.32 4029.76 1292.42 4044.11 1287.56 L 4038.85 1317.38 C 4027.03 1307.91 4007.27 1297.64 4002.71 1295.64 Z "/>
<use xlink:href="#font_3_b" transform="matrix(9.4645,0,0,-9.4645,223.11808,252.57752)" fill="#6100ad"/>
<use xlink:href="#font_3_2" transform="matrix(9.4645,0,0,-9.4645,228.20999,252.57752)" fill="#6100ad"/>
<use xlink:href="#font_3_7" transform="matrix(9.4645,0,0,-9.4645,233.74672,252.57752)" fill="#6100ad"/>
<use xlink:href="#font_3_1" transform="matrix(9.4645,0,0,-9.4645,239.05632,252.35984)" fill="#6100ad"/>
<use xlink:href="#font_3_e" transform="matrix(9.4645,0,0,-9.4645,243.90215,252.57752)" fill="#6100ad"/>
<use xlink:href="#font_3_9" transform="matrix(9.4645,0,0,-9.4645,249.31584,252.57752)" fill="#6100ad"/>
<use xlink:href="#font_3_4" transform="matrix(9.4645,0,0,-9.4645,254.83365,252.35984)" fill="#6100ad"/>
<use xlink:href="#font_3_c" transform="matrix(9.4645,0,0,-9.4645,257.8057,254.4231)" fill="#6100ad"/>
<path transform="matrix(.1,0,0,-.1,0,257.62)" stroke-width="3.98" stroke-linecap="butt" stroke-miterlimit="10" stroke-linejoin="miter" fill="none" stroke="#6100ad" d="M 2629.16 54.6016 L 2657.55 54.6016 "/>
<use xlink:href="#font_3_c" transform="matrix(9.4645,0,0,-9.4645,265.9443,254.4231)" fill="#6100ad"/>
<use xlink:href="#font_3_1" transform="matrix(9.4645,0,0,-9.4645,271.14976,252.35984)" fill="#6100ad"/>
<use xlink:href="#font_3_f" transform="matrix(9.4645,0,0,-9.4645,276.12809,252.57752)" fill="#6100ad"/>
<use xlink:href="#font_3_11" transform="matrix(9.4645,0,0,-9.4645,281.28627,254.4231)" fill="#6100ad"/>
<path transform="matrix(.1,0,0,-.1,0,257.62)" stroke-width="19.9255" stroke-linecap="butt" stroke-miterlimit="10" stroke-linejoin="miter" fill="none" stroke="#6100ad" d="M 2530.61 154.379 C 2472.77 482.383 2602.24 251.746 2558.41 500.273 "/>
<path transform="matrix(.1,0,0,-.1,0,257.62)" d="M 2551.58 539.043 C 2551.26 534.074 2548.36 511.988 2543.5 497.645 L 2573.32 502.902 C 2563.86 514.719 2553.58 534.484 2551.58 539.043 " fill="#6100ad"/>
<path transform="matrix(.1,0,0,-.1,0,257.62)" stroke-width="17.9324" stroke-linecap="butt" stroke-miterlimit="10" stroke-linejoin="miter" fill="none" stroke="#6100ad" d="M 2551.58 539.043 C 2551.26 534.074 2548.36 511.988 2543.5 497.645 L 2573.32 502.902 C 2563.86 514.719 2553.58 534.484 2551.58 539.043 Z "/>
<use xlink:href="#font_3_b" transform="matrix(9.4645,0,0,-9.4645,152.51308,10.207674)" fill="#6100ad"/>
<use xlink:href="#font_3_2" transform="matrix(9.4645,0,0,-9.4645,157.605,10.207674)" fill="#6100ad"/>
<use xlink:href="#font_3_7" transform="matrix(9.4645,0,0,-9.4645,163.14173,10.207674)" fill="#6100ad"/>
<use xlink:href="#font_3_1" transform="matrix(9.4645,0,0,-9.4645,168.45133,9.98999)" fill="#6100ad"/>
<use xlink:href="#font_3_e" transform="matrix(9.4645,0,0,-9.4645,173.29715,10.207674)" fill="#6100ad"/>
<use xlink:href="#font_3_9" transform="matrix(9.4645,0,0,-9.4645,178.71085,10.207674)" fill="#6100ad"/>
<use xlink:href="#font_3_4" transform="matrix(9.4645,0,0,-9.4645,184.22866,9.98999)" fill="#6100ad"/>
<use xlink:href="#font_3_c" transform="matrix(9.4645,0,0,-9.4645,187.2007,12.053251)" fill="#6100ad"/>
<path transform="matrix(.1,0,0,-.1,0,257.62)" stroke-width="3.98" stroke-linecap="butt" stroke-miterlimit="10" stroke-linejoin="miter" fill="none" stroke="#6100ad" d="M 1923.11 2478.29 L 1951.5 2478.29 "/>
<use xlink:href="#font_3_c" transform="matrix(9.4645,0,0,-9.4645,195.33928,12.053251)" fill="#6100ad"/>
<use xlink:href="#font_3_3" transform="matrix(9.4645,0,0,-9.4645,200.39333,12.053251)" fill="#6100ad"/>
<use xlink:href="#font_3_2" transform="matrix(9.4645,0,0,-9.4645,205.48525,10.207674)" fill="#6100ad"/>
<use xlink:href="#font_3_5" transform="matrix(9.4645,0,0,-9.4645,210.72858,10.207674)" fill="#6100ad"/>
<path transform="matrix(.1,0,0,-.1,0,257.62)" stroke-width="19.9255" stroke-linecap="butt" stroke-miterlimit="10" stroke-linejoin="miter" fill="none" stroke="#6100ad" d="M 1849.37 2422.54 C 1907.2 2094.61 1777.87 2325.2 1821.68 2076.73 "/>
<path transform="matrix(.1,0,0,-.1,0,257.62)" d="M 1828.51 2037.96 C 1828.84 2042.93 1831.73 2065.02 1836.59 2079.36 L 1806.77 2074.11 C 1816.24 2062.29 1826.51 2042.52 1828.51 2037.96 " fill="#6100ad"/>
<path transform="matrix(.1,0,0,-.1,0,257.62)" stroke-width="17.9324" stroke-linecap="butt" stroke-miterlimit="10" stroke-linejoin="miter" fill="none" stroke="#6100ad" d="M 1828.51 2037.96 C 1828.84 2042.93 1831.73 2065.02 1836.59 2079.36 L 1806.77 2074.11 C 1816.24 2062.29 1826.51 2042.52 1828.51 2037.96 Z "/>
<symbol id="font_3_10">
<path d="M .24000001 .52400007 L .153 .52400007 L .153 .606 C .153 .64100006 .17300001 .65900006 .21100001 .65900006 C .21800001 .65900006 .221 .65900006 .24000001 .65800008 L .24000001 .72700008 C .221 .731 .21000001 .73200008 .193 .73200008 C .116000007 .73200008 .07000001 .688 .07000001 .61300006 L .07000001 .52400007 L 0 .52400007 L 0 .45600004 L .07000001 .45600004 L .07000001 0 L .153 0 L .153 .45600004 L .24000001 .45600004 L .24000001 .52400007 Z "/>
</symbol>
<use xlink:href="#font_3_10" transform="matrix(8.196547,-4.7322509,-4.7322509,-8.196547,252.10854,92.36381)" fill="#6100ad"/>
<use xlink:href="#font_3_9" transform="matrix(8.196547,-4.7322509,-4.7322509,-8.196547,254.44683,91.265178)" fill="#6100ad"/>
<use xlink:href="#font_3_7" transform="matrix(8.196547,-4.7322509,-4.7322509,-8.196547,259.19264,88.5252)" fill="#6100ad"/>
<use xlink:href="#font_3_13" transform="matrix(8.196547,-4.7322509,-4.7322509,-8.196547,263.66566,85.691349)" fill="#6100ad"/>
<use xlink:href="#font_3_6" transform="matrix(8.196547,-4.7322509,-4.7322509,-8.196547,265.15153,85.084857)" fill="#6100ad"/>
<use xlink:href="#font_3_5" transform="matrix(6.6923506,-6.6923506,-6.6923506,-6.6923506,244.36048,76.248378)" fill="#6100ad"/>
<use xlink:href="#font_3_3" transform="matrix(6.6923506,-6.6923506,-6.6923506,-6.6923506,249.1455,74.07336)" fill="#6100ad"/>
<use xlink:href="#font_3_13" transform="matrix(6.6923506,-6.6923506,-6.6923506,-6.6923506,251.5012,68.79979)" fill="#6100ad"/>
<use xlink:href="#font_3_9" transform="matrix(6.6923506,-6.6923506,-6.6923506,-6.6923506,252.96683,67.64201)" fill="#6100ad"/>
<use xlink:href="#font_3_c" transform="matrix(6.6923506,-6.6923506,-6.6923506,-6.6923506,257.64485,65.57402)" fill="#6100ad"/>
</g>
</svg>
