<?xml version="1.0" encoding="UTF-8" standalone="no"?>
<!DOCTYPE svg PUBLIC "-//W3C//DTD SVG 1.1//EN" "http://www.w3.org/Graphics/SVG/1.1/DTD/svg11.dtd">
<svg xmlns="http://www.w3.org/2000/svg" xmlns:xlink="http://www.w3.org/1999/xlink" version="1.1" width="402.75pt" height="233.54pt" viewBox="0 0 402.75 233.54">
<g enable-background="new">
<path transform="matrix(.1,0,0,-.1,0,233.54)" d="M 791.266 499.086 L 3626.296 499.086 L 3626.296 1916.606 L 791.266 1916.606 Z " fill="#cceeff"/>
<path transform="matrix(.1,0,0,-.1,0,233.54)" stroke-width="9.9628" stroke-linecap="butt" stroke-miterlimit="10" stroke-linejoin="miter" fill="none" stroke="#1f6e96" d="M 791.266 499.086 L 3626.296 499.086 L 3626.296 1916.606 L 791.266 1916.606 Z "/>
<path transform="matrix(.1,0,0,-.1,0,233.54)" stroke-width="9.9628" stroke-linecap="butt" stroke-miterlimit="10" stroke-linejoin="miter" fill="none" stroke="#1f6e96" d="M 791.266 885.57 L 1840.5 1491.35 "/>
<path transform="matrix(.1,0,0,-.1,0,233.54)" stroke-width="19.9255" stroke-linecap="butt" stroke-miterlimit="10" stroke-linejoin="miter" fill="none" stroke="#6100ad" d="M 1840.5 1491.35 L 2577.06 1916.6 "/>
<path transform="matrix(.1,0,0,-.1,0,233.54)" stroke-width="19.9255" stroke-linecap="butt" stroke-miterlimit="10" stroke-linejoin="miter" fill="none" stroke="#6100ad" d="M 2073.98 1626.15 L 2364.44 1916.6 "/>
<path transform="matrix(.1,0,0,-.1,0,233.54)" d="M 819.613 499.086 C 819.613 514.742 806.922 527.434 791.266 527.434 C 775.609 527.434 762.922 514.742 762.922 499.086 C 762.922 483.43 775.609 470.738 791.266 470.738 C 806.922 470.738 819.613 483.43 819.613 499.086 Z M 791.266 499.086 " fill="#f58000"/>
<symbol id="font_0_3">
<path d="M 0 0 L .08400001 0 L .08400001 .273 C .128 .21900001 .177 .19500001 .24500002 .19500001 C .38000003 .19500001 .469 .30400003 .469 .47100003 C .469 .647 .38300003 .757 .244 .757 C .17300001 .757 .116 .725 .07700001 .66300007 L .07700001 .74200007 L 0 .74200007 L 0 0 M .23 .679 C .32200004 .679 .38200004 .59800007 .38200004 .47300006 C .38200004 .35400004 .32100005 .273 .23 .273 C .142 .273 .08400001 .35300002 .08400001 .476 C .08400001 .59900006 .142 .679 .23 .679 Z "/>
</symbol>
<symbol id="font_0_13">
<path d="M .157 .505 L .157 0 L .245 0 L .245 .70900008 L .187 .70900008 C .15600002 .6 .136 .58500006 0 .568 L 0 .505 L .157 .505 Z "/>
</symbol>
<use xlink:href="#font_0_3" transform="matrix(9.4645,0,0,-9.4645,65.75329,195.72316)" fill="#f58000"/>
<use xlink:href="#font_0_13" transform="matrix(9.4645,0,0,-9.4645,71.46984,193.6599)" fill="#f58000"/>
<path transform="matrix(.1,0,0,-.1,0,233.54)" d="M 3654.64 499.086 C 3654.64 514.742 3641.95 527.434 3626.29 527.434 C 3610.64 527.434 3597.95 514.742 3597.95 499.086 C 3597.95 483.43 3610.64 470.738 3626.29 470.738 C 3641.95 470.738 3654.64 483.43 3654.64 499.086 Z M 3626.29 499.086 " fill="#f58000"/>
<symbol id="font_0_14">
<path d="M .47200004 .087000008 L .099 .087000008 C .108 .14500001 .14000002 .18200001 .227 .23300001 L .32700003 .287 C .426 .34100003 .47700004 .41400004 .47700004 .50100007 C .47700004 .56 .453 .615 .411 .65300008 C .36900003 .69100007 .317 .70900008 .25 .70900008 C .16 .70900008 .093 .67700007 .054000006 .61700007 C .029 .57900008 .018 .535 .015999999 .46300004 L .10400001 .46300004 C .107 .51100006 .113 .54 .125 .563 C .148 .606 .194 .632 .24700001 .632 C .32700003 .632 .38700003 .57500007 .38700003 .499 C .38700003 .44300003 .354 .395 .291 .35900004 L .199 .307 C .051 .223 .008000001 .156 0 0 L .47200004 0 L .47200004 .087000008 Z "/>
</symbol>
<use xlink:href="#font_0_3" transform="matrix(9.4645,0,0,-9.4645,366.50108,195.72316)" fill="#f58000"/>
<use xlink:href="#font_0_14" transform="matrix(9.4645,0,0,-9.4645,371.57408,193.6599)" fill="#f58000"/>
<path transform="matrix(.1,0,0,-.1,0,233.54)" d="M 3654.64 1916.6 C 3654.64 1932.25 3641.95 1944.95 3626.29 1944.95 C 3610.64 1944.95 3597.95 1932.25 3597.95 1916.6 C 3597.95 1900.95 3610.64 1888.25 3626.29 1888.25 C 3641.95 1888.25 3654.64 1900.95 3654.64 1916.6 Z M 3626.29 1916.6 " fill="#f58000"/>
<symbol id="font_0_15">
<path d="M .18900001 .34800003 L .2 .34800003 L .23700002 .349 C .33400003 .349 .384 .305 .384 .22000002 C .384 .13100001 .32900004 .07800001 .23700002 .07800001 C .141 .07800001 .094 .12600002 .088 .22900002 L 0 .22900002 C .0040000008 .172 .014000002 .135 .031 .10300001 C .067 .035000005 .13700001 0 .234 0 C .38000003 0 .47400005 .087000008 .47400005 .22100002 C .47400005 .31100003 .439 .36100004 .354 .39000003 C .42000003 .416 .453 .46600003 .453 .537 C .453 .65900006 .372 .73200008 .23700002 .73200008 C .094 .73200008 .018 .65400007 .015000001 .503 L .103 .503 C .104 .546 .107999999 .57000008 .119 .592 C .139 .63100007 .183 .65500006 .238 .65500006 C .316 .65500006 .363 .609 .363 .53400006 C .363 .48400004 .345 .45400004 .30600003 .43800003 C .282 .42800004 .25100003 .42400003 .18900001 .423 L .18900001 .34800003 Z "/>
</symbol>
<use xlink:href="#font_0_3" transform="matrix(9.4645,0,0,-9.4645,366.50108,38.616258)" fill="#f58000"/>
<use xlink:href="#font_0_15" transform="matrix(9.4645,0,0,-9.4645,371.5551,36.770677)" fill="#f58000"/>
<path transform="matrix(.1,0,0,-.1,0,233.54)" d="M 819.613 1916.6 C 819.613 1932.25 806.922 1944.95 791.266 1944.95 C 775.609 1944.95 762.922 1932.25 762.922 1916.6 C 762.922 1900.95 775.609 1888.25 791.266 1888.25 C 806.922 1888.25 819.613 1900.95 819.613 1916.6 Z M 791.266 1916.6 " fill="#f58000"/>
<symbol id="font_0_16">
<path d="M .29900003 .17 L .29900003 0 L .38700003 0 L .38700003 .17 L .49200005 .17 L .49200005 .24900002 L .38700003 .24900002 L .38700003 .70900008 L .32200004 .70900008 L 0 .263 L 0 .17 L .29900003 .17 M .29900003 .24900002 L .07700001 .24900002 L .29900003 .559 L .29900003 .24900002 Z "/>
</symbol>
<use xlink:href="#font_0_3" transform="matrix(9.4645,0,0,-9.4645,65.75329,38.616258)" fill="#f58000"/>
<use xlink:href="#font_0_16" transform="matrix(9.4645,0,0,-9.4645,70.76947,36.552995)" fill="#f58000"/>
<path transform="matrix(.1,0,0,-.1,0,233.54)" d="M 819.613 885.57 C 819.613 901.227 806.922 913.918 791.266 913.918 C 775.609 913.918 762.922 901.227 762.922 885.57 C 762.922 869.918 775.609 857.227 791.266 857.227 C 806.922 857.227 819.613 869.918 819.613 885.57 Z M 791.266 885.57 " fill="#f58000"/>
<symbol id="font_0_17">
<path d="M .441 .73200008 L .075 .73200008 L .022000004 .34600003 L .103000018 .34600003 C .14400001 .395 .17800002 .41200004 .23300001 .41200004 C .328 .41200004 .388 .347 .388 .24200002 C .388 .14000002 .32900004 .07800001 .23300001 .07800001 C .15600002 .07800001 .10900001 .117000009 .088 .19700001 L 0 .19700001 C .012000002 .139 .022000004 .11100001 .043 .08500001 C .083000008 .031000004 .15500002 0 .23500002 0 C .37800003 0 .47800002 .104 .47800002 .254 C .47800002 .39400003 .38500003 .49 .24900002 .49 C .19900002 .49 .15900001 .47700004 .118000019 .44700004 L .14600002 .64500007 L .441 .64500007 L .441 .73200008 Z "/>
</symbol>
<use xlink:href="#font_0_3" transform="matrix(9.4645,0,0,-9.4645,65.75329,141.72437)" fill="#f58000"/>
<use xlink:href="#font_0_17" transform="matrix(9.4645,0,0,-9.4645,70.835727,139.87879)" fill="#f58000"/>
<path transform="matrix(.1,0,0,-.1,0,233.54)" d="M 1868.84 1491.35 C 1868.84 1507 1856.15 1519.69 1840.5 1519.69 C 1824.84 1519.69 1812.15 1507 1812.15 1491.35 C 1812.15 1475.69 1824.84 1463 1840.5 1463 C 1856.15 1463 1868.84 1475.69 1868.84 1491.35 Z M 1840.5 1491.35 " fill="#f58000"/>
<symbol id="font_0_18">
<path d="M .455 .54700008 C .43800003 .66300007 .36200003 .73200008 .254 .73200008 C .17600002 .73200008 .106000009 .694 .06400001 .63100007 C .02 .56200006 0 .47500003 0 .34600003 C 0 .22700002 .018000003 .15100001 .060000007 .08800001 C .098000008 .031000004 .16000001 0 .23800002 0 C .373 0 .47 .10000001 .47 .23900001 C .47 .37100003 .38 .46400003 .253 .46400003 C .18300002 .46400003 .128 .43700005 .09 .38500003 C .091000009 .558 .14700002 .65400007 .24800001 .65400007 C .31 .65400007 .35300002 .615 .367 .54700008 L .455 .54700008 M .24200003 .386 C .327 .386 .38 .32700003 .38 .23200001 C .38 .143 .32 .07800001 .23900001 .07800001 C .157 .07800001 .09500001 .146 .09500001 .23700002 C .09500001 .32500003 .15500002 .386 .24200003 .386 Z "/>
</symbol>
<use xlink:href="#font_0_3" transform="matrix(9.4645,0,0,-9.4645,179.29708,96.49226)" fill="#f58000"/>
<use xlink:href="#font_0_18" transform="matrix(9.4645,0,0,-9.4645,184.45523,94.64668)" fill="#f58000"/>
<path transform="matrix(.1,0,0,-.1,0,233.54)" d="M 2605.41 1916.6 C 2605.41 1932.25 2592.72 1944.95 2577.06 1944.95 C 2561.41 1944.95 2548.72 1932.25 2548.72 1916.6 C 2548.72 1900.95 2561.41 1888.25 2577.06 1888.25 C 2592.72 1888.25 2605.41 1900.95 2605.41 1916.6 Z M 2577.06 1916.6 " fill="#f58000"/>
<symbol id="font_0_19">
<path d="M .47400005 .70900008 L 0 .70900008 L 0 .62200006 L .38300003 .62200006 C .21400002 .381 .14500001 .23300001 .09200001 0 L .186 0 C .22500003 .22700002 .314 .42200003 .47400005 .63500007 L .47400005 .70900008 Z "/>
</symbol>
<use xlink:href="#font_0_3" transform="matrix(9.4645,0,0,-9.4645,261.5731,38.616258)" fill="#f58000"/>
<use xlink:href="#font_0_19" transform="matrix(9.4645,0,0,-9.4645,266.75965,36.552995)" fill="#f58000"/>
<path transform="matrix(.1,0,0,-.1,0,233.54)" d="M 2102.32 1626.15 C 2102.32 1641.81 2089.63 1654.5 2073.98 1654.5 C 2058.32 1654.5 2045.63 1641.81 2045.63 1626.15 C 2045.63 1610.5 2058.32 1597.8 2073.98 1597.8 C 2089.63 1597.8 2102.32 1610.5 2102.32 1626.15 Z M 2073.98 1626.15 " fill="#f58000"/>
<symbol id="font_0_1a">
<path d="M .35400004 .39600004 C .42700003 .44000004 .45100004 .476 .45100004 .54300007 C .45100004 .65400007 .36400003 .73200008 .238 .73200008 C .113000009 .73200008 .025000003 .65400007 .025000003 .54300007 C .025000003 .47700004 .049000004 .441 .12100001 .39600004 C .040000008 .35700003 0 .298 0 .22000002 C 0 .09 .098000008 0 .238 0 C .37800003 0 .476 .09 .476 .21900001 C .476 .298 .43600003 .35700003 .35400004 .39600004 M .238 .65400007 C .31300003 .65400007 .36100004 .61 .36100004 .541 C .36100004 .47500003 .312 .43100003 .238 .43100003 C .164 .43100003 .11500001 .47500003 .11500001 .54200008 C .11500001 .61 .164 .65400007 .238 .65400007 M .238 .35700003 C .326 .35700003 .386 .30100004 .386 .21800001 C .386 .134 .326 .07800001 .236 .07800001 C .15 .07800001 .09 .135 .09 .21800001 C .09 .30100004 .15 .35700003 .238 .35700003 Z "/>
</symbol>
<use xlink:href="#font_0_3" transform="matrix(9.4645,0,0,-9.4645,202.64608,83.01126)" fill="#f58000"/>
<use xlink:href="#font_0_1a" transform="matrix(9.4645,0,0,-9.4645,207.74745,81.16568)" fill="#f58000"/>
<path transform="matrix(.1,0,0,-.1,0,233.54)" d="M 2392.79 1916.6 C 2392.79 1932.25 2380.09 1944.95 2364.44 1944.95 C 2348.78 1944.95 2336.09 1932.25 2336.09 1916.6 C 2336.09 1900.95 2348.78 1888.25 2364.44 1888.25 C 2380.09 1888.25 2392.79 1900.95 2392.79 1916.6 Z M 2364.44 1916.6 " fill="#f58000"/>
<symbol id="font_0_1b">
<path d="M .015000001 .185 C .031999999 .069000009 .10800001 0 .216 0 C .29400004 0 .365 .038000004 .40600003 .101 C .45100004 .17 .47100003 .25700004 .47100003 .386 C .47100003 .505 .453 .58100005 .411 .64400008 C .37200005 .70100006 .31 .73200008 .23200001 .73200008 C .097 .73200008 0 .632 0 .49300004 C 0 .36100004 .09 .268 .21800001 .268 C .28500004 .268 .334 .29200004 .38 .347 C .379 .17400001 .323 .07800001 .22200002 .07800001 C .16000001 .07800001 .117 .117000009 .103 .185 L .015000001 .185 M .23100002 .65500006 C .31300003 .65500006 .375 .587 .375 .49500004 C .375 .40800003 .314 .34600003 .228 .34600003 C .143 .34600003 .09 .40500004 .09 .5 C .09 .59000006 .15 .65500006 .23100002 .65500006 Z "/>
</symbol>
<use xlink:href="#font_0_3" transform="matrix(9.4645,0,0,-9.4645,223.07707,38.616258)" fill="#f58000"/>
<use xlink:href="#font_0_1b" transform="matrix(9.4645,0,0,-9.4645,228.18791,36.770677)" fill="#f58000"/>
<symbol id="font_0_b">
<path d="M .44000004 .37100003 C .43600003 .42200003 .42500005 .455 .40500004 .48400004 C .36900003 .53300008 .30600003 .56200006 .233 .56200006 C .092 .56200006 0 .45000003 0 .27600003 C 0 .10700001 .09 0 .23200001 0 C .35700003 0 .43600003 .075 .44600005 .20300001 L .36200003 .20300001 C .34800003 .119 .30500005 .07700001 .23400001 .07700001 C .142 .07700001 .087000008 .15200001 .087000008 .27600003 C .087000008 .407 .141 .485 .23200001 .485 C .30200003 .485 .34600003 .44400005 .35600005 .37100003 L .44000004 .37100003 Z "/>
</symbol>
<use xlink:href="#font_0_b" transform="matrix(9.4645,0,0,-9.4645,206.83339,192.33467)" fill="#1f6e96"/>
<path transform="matrix(.1,0,0,-.1,0,233.54)" stroke-width="3.98" stroke-linecap="butt" stroke-miterlimit="10" stroke-linejoin="miter" fill="none" stroke="#1f6e96" d="M 2118.4 416.219 L 2146.79 416.219 "/>
<symbol id="font_0_a">
<path d="M .368 .74200007 L .22300002 .33400003 L .089 .74200007 L 0 .74200007 L .17700002 .216 L .14500001 .13300002 C .13200002 .096 .113 .082 .078 .082 C .066 .082 .052 .08400001 .034 .088 L .034 .012999997 C .051 .003999993 .068 0 .09 0 C .117000009 0 .14600002 .009000003 .16800002 .025000006 C .19400002 .044 .20900002 .066 .22500001 .108 L .458 .74200007 L .368 .74200007 Z "/>
</symbol>
<symbol id="font_0_1">
<path d="M 0 .52400007 L 0 0 L .084000017 0 L .084000017 .289 C .084000017 .39600004 .14000002 .46600003 .22600001 .46600003 C .29200004 .46600003 .33400003 .42600004 .33400003 .363 L .33400003 0 L .41700004 0 L .41700004 .39600004 C .41700004 .483 .35200004 .53900006 .25100003 .53900006 C .17300001 .53900006 .123 .509 .077 .43600003 L .077 .52400007 L 0 .52400007 Z "/>
</symbol>
<symbol id="font_0_c">
<path d="M .47300003 .25700004 C .47300003 .337 .46700005 .38500003 .45200003 .42400003 C .41800005 .51 .33800004 .56200006 .24 .56200006 C .094 .56200006 0 .45000003 0 .27800004 C 0 .106000009 .091000009 0 .23800002 0 C .35800005 0 .44100005 .068 .46200005 .18200001 L .37800003 .18200001 C .35500003 .113000009 .30800004 .07700001 .24100001 .07700001 C .18800001 .07700001 .143 .101 .114999998 .14500001 C .095 .17500001 .088 .20500002 .087 .25700004 L .47300003 .25700004 M .089 .32500003 C .096 .42200003 .155 .485 .23900001 .485 C .32100005 .485 .38400004 .41700004 .38400004 .33100004 C .38400004 .32900004 .38400004 .32700003 .38300003 .32500003 L .089 .32500003 Z "/>
</symbol>
<symbol id="font_0_e">
<path d="M .38300003 .74200007 L .38300003 .666 C .341 .72800007 .29 .757 .223 .757 C .09 .757 0 .64100006 0 .47100003 C 0 .38500003 .023 .315 .06600001 .26500003 C .105000007 .22100002 .16100002 .19500001 .216 .19500001 C .282 .19500001 .328 .223 .375 .289 L .375 .26200003 C .375 .19100002 .366 .148 .345 .119 C .323 .088 .28 .07000001 .22900002 .07000001 C .19100002 .07000001 .157 .08 .134 .098000008 C .11500001 .113000009 .10700001 .127 .10200001 .158 L .017000003 .158 C .026000003 .059 .103 0 .22600003 0 C .304 0 .371 .025000006 .405 .067 C .44500003 .115 .46 .18100001 .46 .30400003 L .46 .74200007 L .38300003 .74200007 M .23200001 .68 C .322 .68 .375 .60400006 .375 .47300006 C .375 .34800003 .321 .272 .23300003 .272 C .142 .272 .087000008 .34900005 .087000008 .476 C .087000008 .602 .143 .68 .23200001 .68 Z "/>
</symbol>
<use xlink:href="#font_0_a" transform="matrix(9.4645,0,0,-9.4645,214.86928,194.18025)" fill="#1f6e96"/>
<use xlink:href="#font_0_1" transform="matrix(9.4645,0,0,-9.4645,220.07477,192.11699)" fill="#1f6e96"/>
<use xlink:href="#font_0_c" transform="matrix(9.4645,0,0,-9.4645,225.0531,192.33467)" fill="#1f6e96"/>
<use xlink:href="#font_0_e" transform="matrix(9.4645,0,0,-9.4645,230.21126,194.18025)" fill="#1f6e96"/>
<path transform="matrix(.1,0,0,-.1,0,233.54)" stroke-width="9.9628" stroke-linecap="butt" stroke-miterlimit="10" stroke-linejoin="miter" fill="none" stroke="#1f6e96" d="M 2095.32 555.699 L 2237.43 555.699 "/>
<path transform="matrix(.1,0,0,-.1,0,233.54)" d="M 2299.15 555.699 C 2291.57 557.387 2258.25 566.969 2237.43 577.391 L 2237.43 534.004 C 2258.25 544.426 2291.57 554.008 2299.15 555.699 " fill="#1f6e96"/>
<path transform="matrix(.1,0,0,-.1,0,233.54)" stroke-width="9.9628" stroke-linecap="butt" stroke-miterlimit="10" stroke-linejoin="miter" fill="none" stroke="#1f6e96" d="M 2299.15 555.699 C 2291.57 557.387 2258.25 566.969 2237.43 577.391 L 2237.43 534.004 C 2258.25 544.426 2291.57 554.008 2299.15 555.699 Z "/>
<use xlink:href="#font_0_b" transform="matrix(0,-9.4645,-9.4645,-0,371.33268,126.5346)" fill="#1f6e96"/>
<path transform="matrix(.1,0,0,-.1,0,233.54)" stroke-width="3.98" stroke-linecap="butt" stroke-miterlimit="10" stroke-linejoin="miter" fill="none" stroke="#1f6e96" d="M 3709.15 1120.12 L 3709.15 1148.51 "/>
<symbol id="font_0_9">
<path d="M .27500005 .27100004 L .45100004 .52400007 L .35700003 .52400007 L .231 .33400003 L .105000007 .52400007 L .01 .52400007 L .185 .26700003 L 0 0 L .095 0 L .228 .201 L .35900004 0 L .45600004 0 L .27500005 .27100004 Z "/>
</symbol>
<symbol id="font_0_2">
<path d="M .23600002 .56200006 C .089 .56200006 0 .45700003 0 .28100003 C 0 .105000007 .088 0 .237 0 C .384 0 .47400005 .105000007 .47400005 .277 C .47400005 .45800004 .387 .56200006 .23600002 .56200006 M .237 .485 C .331 .485 .387 .40800003 .387 .27800004 C .387 .155 .329 .07700001 .237 .07700001 C .14400001 .07700001 .087 .15400002 .087 .28100003 C .087 .407 .14400001 .485 .237 .485 Z "/>
</symbol>
<symbol id="font_0_4">
<path d="M .404 .40100003 C .403 .50400009 .335 .56200006 .21400002 .56200006 C .092 .56200006 .013 .499 .013 .402 C .013 .32000003 .055 .28100003 .17900002 .25100003 L .257 .23200001 C .315 .21800001 .338 .19700001 .338 .15900001 C .338 .11000001 .289 .07700001 .21599999 .07700001 C .171 .07700001 .13300002 .09 .11200001 .112 C .099 .127 .093 .142 .08800001 .179 L 0 .179 C .0040000008 .058000003 .072000008 0 .20900002 0 C .34100003 0 .425 .065000008 .425 .16600001 C .425 .24400002 .381 .287 .277 .312 L .197 .33100004 C .12900001 .347 .1 .36900003 .1 .40600003 C .1 .45400004 .143 .485 .211 .485 C .278 .485 .314 .45600004 .316 .40100003 L .404 .40100003 Z "/>
</symbol>
<use xlink:href="#font_0_9" transform="matrix(0,-9.4645,-9.4645,-0,371.115,118.5281)" fill="#1f6e96"/>
<use xlink:href="#font_0_3" transform="matrix(0,-9.4645,-9.4645,-0,373.17826,113.445659)" fill="#1f6e96"/>
<use xlink:href="#font_0_2" transform="matrix(0,-9.4645,-9.4645,-0,371.33268,108.35376)" fill="#1f6e96"/>
<use xlink:href="#font_0_4" transform="matrix(0,-9.4645,-9.4645,-0,371.33268,103.11043)" fill="#1f6e96"/>
<path transform="matrix(.1,0,0,-.1,0,233.54)" stroke-width="9.9628" stroke-linecap="butt" stroke-miterlimit="10" stroke-linejoin="miter" fill="none" stroke="#1f6e96" d="M 3569.68 1094.38 L 3569.68 1236.49 "/>
<path transform="matrix(.1,0,0,-.1,0,233.54)" d="M 3569.68 1298.21 C 3567.99 1290.63 3558.41 1257.32 3547.99 1236.49 L 3591.38 1236.49 C 3580.95 1257.32 3571.37 1290.63 3569.68 1298.21 " fill="#1f6e96"/>
<path transform="matrix(.1,0,0,-.1,0,233.54)" stroke-width="9.9628" stroke-linecap="butt" stroke-miterlimit="10" stroke-linejoin="miter" fill="none" stroke="#1f6e96" d="M 3569.68 1298.21 C 3567.99 1290.63 3558.41 1257.32 3547.99 1236.49 L 3591.38 1236.49 C 3580.95 1257.32 3571.37 1290.63 3569.68 1298.21 Z "/>
<use xlink:href="#font_0_b" transform="matrix(9.4645,0,0,-9.4645,289.9654,36.718675)" fill="#1f6e96"/>
<path transform="matrix(.1,0,0,-.1,0,233.54)" stroke-width="3.98" stroke-linecap="butt" stroke-miterlimit="10" stroke-linejoin="miter" fill="none" stroke="#1f6e96" d="M 2949.72 1972.38 L 2978.11 1972.38 "/>
<use xlink:href="#font_0_a" transform="matrix(9.4645,0,0,-9.4645,298.0013,38.564256)" fill="#1f6e96"/>
<use xlink:href="#font_0_3" transform="matrix(9.4645,0,0,-9.4645,303.05534,38.564256)" fill="#1f6e96"/>
<use xlink:href="#font_0_2" transform="matrix(9.4645,0,0,-9.4645,308.14726,36.718675)" fill="#1f6e96"/>
<use xlink:href="#font_0_4" transform="matrix(9.4645,0,0,-9.4645,313.3906,36.718675)" fill="#1f6e96"/>
<path transform="matrix(.1,0,0,-.1,0,233.54)" stroke-width="3.98" stroke-linecap="butt" stroke-miterlimit="10" stroke-linejoin="miter" fill="none" stroke="#1f6e96" d="M 3183.68 1972.38 L 3212.07 1972.38 "/>
<symbol id="font_0_d">
<path d="M .24000001 .52400007 L .153 .52400007 L .153 .606 C .153 .64100006 .17300001 .65900006 .21100001 .65900006 C .21800001 .65900006 .221 .65900006 .24000001 .65800008 L .24000001 .72700008 C .221 .731 .21000001 .73200008 .193 .73200008 C .116000007 .73200008 .07000001 .688 .07000001 .61300006 L .07000001 .52400007 L 0 .52400007 L 0 .45600004 L .07000001 .45600004 L .07000001 0 L .153 0 L .153 .45600004 L .24000001 .45600004 L .24000001 .52400007 Z "/>
</symbol>
<symbol id="font_0_7">
<path d="M .54800006 0 L .702 .52400007 L .60800006 .52400007 L .50400009 .116000007 L .401 .52400007 L .299 .52400007 L .19900002 .116000007 L .09200001 .52400007 L 0 .52400007 L .15200001 0 L .246 0 L .347 .411 L .453 0 L .54800006 0 Z "/>
</symbol>
<use xlink:href="#font_0_d" transform="matrix(9.4645,0,0,-9.4645,321.37837,36.50099)" fill="#1f6e96"/>
<use xlink:href="#font_0_7" transform="matrix(9.4645,0,0,-9.4645,323.89595,36.50099)" fill="#1f6e96"/>
<path transform="matrix(.1,0,0,-.1,0,233.54)" stroke-width="9.9628" stroke-linecap="butt" stroke-miterlimit="10" stroke-linejoin="miter" fill="none" stroke="#1f6e96" d="M 3215.11 1859.9 L 3073 1859.9 "/>
<path transform="matrix(.1,0,0,-.1,0,233.54)" d="M 3011.28 1859.9 C 3018.86 1858.21 3052.18 1848.63 3073 1838.21 L 3073 1881.6 C 3052.18 1871.17 3018.86 1861.59 3011.28 1859.9 " fill="#1f6e96"/>
<path transform="matrix(.1,0,0,-.1,0,233.54)" stroke-width="9.9628" stroke-linecap="butt" stroke-miterlimit="10" stroke-linejoin="miter" fill="none" stroke="#1f6e96" d="M 3011.28 1859.9 C 3018.86 1858.21 3052.18 1848.63 3073 1838.21 L 3073 1881.6 C 3052.18 1871.17 3018.86 1861.59 3011.28 1859.9 Z "/>
<use xlink:href="#font_0_b" transform="matrix(9.4645,0,0,-9.4645,228.1854,28.214678)" fill="#1f6e96"/>
<path transform="matrix(.1,0,0,-.1,0,233.54)" stroke-width="3.98" stroke-linecap="butt" stroke-miterlimit="10" stroke-linejoin="miter" fill="none" stroke="#1f6e96" d="M 2331.92 2057.42 L 2360.31 2057.42 "/>
<use xlink:href="#font_0_a" transform="matrix(9.4645,0,0,-9.4645,236.22029,30.060256)" fill="#1f6e96"/>
<use xlink:href="#font_0_3" transform="matrix(9.4645,0,0,-9.4645,241.27434,30.060256)" fill="#1f6e96"/>
<use xlink:href="#font_0_2" transform="matrix(9.4645,0,0,-9.4645,246.36626,28.214678)" fill="#1f6e96"/>
<use xlink:href="#font_0_4" transform="matrix(9.4645,0,0,-9.4645,251.60959,28.214678)" fill="#1f6e96"/>
<path transform="matrix(.1,0,0,-.1,0,233.54)" stroke-width="3.98" stroke-linecap="butt" stroke-miterlimit="10" stroke-linejoin="miter" fill="none" stroke="#1f6e96" d="M 2565.88 2057.42 L 2594.27 2057.42 "/>
<use xlink:href="#font_0_7" transform="matrix(9.4645,0,0,-9.4645,259.4838,27.996994)" fill="#1f6e96"/>
<path transform="matrix(.1,0,0,-.1,0,233.54)" stroke-width="9.9628" stroke-linecap="butt" stroke-miterlimit="10" stroke-linejoin="miter" fill="none" stroke="#1f6e96" d="M 2527.43 1973.3 L 2498.74 1973.3 "/>
<path transform="matrix(.1,0,0,-.1,0,233.54)" d="M 2437.02 1973.3 C 2444.6 1971.61 2477.92 1962.03 2498.74 1951.6 L 2498.74 1994.99 C 2477.92 1984.57 2444.6 1974.99 2437.02 1973.3 " fill="#1f6e96"/>
<path transform="matrix(.1,0,0,-.1,0,233.54)" stroke-width="9.9628" stroke-linecap="butt" stroke-miterlimit="10" stroke-linejoin="miter" fill="none" stroke="#1f6e96" d="M 2437.02 1973.3 C 2444.6 1971.61 2477.92 1962.03 2498.74 1951.6 L 2498.74 1994.99 C 2477.92 1984.57 2444.6 1974.99 2437.02 1973.3 Z "/>
<use xlink:href="#font_0_b" transform="matrix(9.4645,0,0,-9.4645,136.26039,36.718675)" fill="#1f6e96"/>
<path transform="matrix(.1,0,0,-.1,0,233.54)" stroke-width="3.98" stroke-linecap="butt" stroke-miterlimit="10" stroke-linejoin="miter" fill="none" stroke="#1f6e96" d="M 1412.67 1972.38 L 1441.06 1972.38 "/>
<use xlink:href="#font_0_a" transform="matrix(9.4645,0,0,-9.4645,144.29529,38.564256)" fill="#1f6e96"/>
<use xlink:href="#font_0_3" transform="matrix(9.4645,0,0,-9.4645,149.34934,38.564256)" fill="#1f6e96"/>
<use xlink:href="#font_0_2" transform="matrix(9.4645,0,0,-9.4645,154.44126,36.718675)" fill="#1f6e96"/>
<use xlink:href="#font_0_4" transform="matrix(9.4645,0,0,-9.4645,159.68459,36.718675)" fill="#1f6e96"/>
<path transform="matrix(.1,0,0,-.1,0,233.54)" stroke-width="3.98" stroke-linecap="butt" stroke-miterlimit="10" stroke-linejoin="miter" fill="none" stroke="#1f6e96" d="M 1646.63 1972.38 L 1675.02 1972.38 "/>
<symbol id="font_0_f">
<path d="M 0 .72900006 L 0 0 L .08300001 0 L .08300001 .289 C .08300001 .39600004 .139 .46600003 .22500003 .46600003 C .25200004 .46600003 .279 .45700003 .29900003 .44200004 C .323 .425 .33300004 .4 .33300004 .363 L .33300004 0 L .41600005 0 L .41600005 .39600004 C .41600005 .48400004 .35300002 .53900006 .25100003 .53900006 C .17700002 .53900006 .132 .51600006 .08300001 .45200003 L .08300001 .72900006 L 0 .72900006 Z "/>
</symbol>
<use xlink:href="#font_0_f" transform="matrix(9.4645,0,0,-9.4645,168.16452,36.50099)" fill="#1f6e96"/>
<use xlink:href="#font_0_7" transform="matrix(9.4645,0,0,-9.4645,172.82106,36.50099)" fill="#1f6e96"/>
<path transform="matrix(.1,0,0,-.1,0,233.54)" stroke-width="9.9628" stroke-linecap="butt" stroke-miterlimit="10" stroke-linejoin="miter" fill="none" stroke="#1f6e96" d="M 1691.19 1859.9 L 1549.08 1859.9 "/>
<path transform="matrix(.1,0,0,-.1,0,233.54)" d="M 1487.36 1859.9 C 1494.94 1858.21 1528.25 1848.63 1549.08 1838.21 L 1549.08 1881.6 C 1528.25 1871.17 1494.94 1861.59 1487.36 1859.9 " fill="#1f6e96"/>
<path transform="matrix(.1,0,0,-.1,0,233.54)" stroke-width="9.9628" stroke-linecap="butt" stroke-miterlimit="10" stroke-linejoin="miter" fill="none" stroke="#1f6e96" d="M 1487.36 1859.9 C 1494.94 1858.21 1528.25 1848.63 1549.08 1838.21 L 1549.08 1881.6 C 1528.25 1871.17 1494.94 1861.59 1487.36 1859.9 Z "/>
<use xlink:href="#font_0_b" transform="matrix(0,9.4645,9.4645,0,68.71042,71.64639)" fill="#1f6e96"/>
<path transform="matrix(.1,0,0,-.1,0,233.54)" stroke-width="3.98" stroke-linecap="butt" stroke-miterlimit="10" stroke-linejoin="miter" fill="none" stroke="#1f6e96" d="M 691.27 1568.87 L 691.27 1540.48 "/>
<use xlink:href="#font_0_9" transform="matrix(0,9.4645,9.4645,0,68.9281,79.65389)" fill="#1f6e96"/>
<use xlink:href="#font_0_1" transform="matrix(0,9.4645,9.4645,0,68.9281,84.887767)" fill="#1f6e96"/>
<use xlink:href="#font_0_c" transform="matrix(0,9.4645,9.4645,0,68.71042,89.8661)" fill="#1f6e96"/>
<use xlink:href="#font_0_e" transform="matrix(0,9.4645,9.4645,0,66.86484,95.024257)" fill="#1f6e96"/>
<path transform="matrix(.1,0,0,-.1,0,233.54)" stroke-width="3.98" stroke-linecap="butt" stroke-miterlimit="10" stroke-linejoin="miter" fill="none" stroke="#1f6e96" d="M 691.27 1329.61 L 691.27 1301.22 "/>
<use xlink:href="#font_0_f" transform="matrix(0,9.4645,9.4645,0,68.9281,104.081508)" fill="#1f6e96"/>
<use xlink:href="#font_0_7" transform="matrix(0,9.4645,9.4645,0,68.9281,108.73804)" fill="#1f6e96"/>
<path transform="matrix(.1,0,0,-.1,0,233.54)" stroke-width="9.9628" stroke-linecap="butt" stroke-miterlimit="10" stroke-linejoin="miter" fill="none" stroke="#1f6e96" d="M 847.879 1514.43 L 847.879 1372.32 "/>
<path transform="matrix(.1,0,0,-.1,0,233.54)" d="M 847.879 1310.6 C 849.566 1318.18 859.148 1351.5 869.57 1372.32 L 826.184 1372.32 C 836.609 1351.5 846.188 1318.18 847.879 1310.6 " fill="#1f6e96"/>
<path transform="matrix(.1,0,0,-.1,0,233.54)" stroke-width="9.9628" stroke-linecap="butt" stroke-miterlimit="10" stroke-linejoin="miter" fill="none" stroke="#1f6e96" d="M 847.879 1310.6 C 849.566 1318.18 859.148 1351.5 869.57 1372.32 L 826.184 1372.32 C 836.609 1351.5 846.188 1318.18 847.879 1310.6 Z "/>
<use xlink:href="#font_0_b" transform="matrix(0,9.4645,9.4645,0,68.634319,143.84119)" fill="#1f6e96"/>
<path transform="matrix(.1,0,0,-.1,0,233.54)" stroke-width="3.98" stroke-linecap="butt" stroke-miterlimit="10" stroke-linejoin="miter" fill="none" stroke="#1f6e96" d="M 690.512 846.91 L 690.512 818.52 "/>
<use xlink:href="#font_0_9" transform="matrix(0,9.4645,9.4645,0,68.852,151.84889)" fill="#1f6e96"/>
<use xlink:href="#font_0_1" transform="matrix(0,9.4645,9.4645,0,68.852,157.08277)" fill="#1f6e96"/>
<use xlink:href="#font_0_c" transform="matrix(0,9.4645,9.4645,0,68.634319,162.06108)" fill="#1f6e96"/>
<use xlink:href="#font_0_e" transform="matrix(0,9.4645,9.4645,0,66.788738,167.21924)" fill="#1f6e96"/>
<path transform="matrix(.1,0,0,-.1,0,233.54)" stroke-width="3.98" stroke-linecap="butt" stroke-miterlimit="10" stroke-linejoin="miter" fill="none" stroke="#1f6e96" d="M 690.512 607.648 L 690.512 579.262 "/>
<use xlink:href="#font_0_d" transform="matrix(0,9.4645,9.4645,0,68.852,175.78417)" fill="#1f6e96"/>
<use xlink:href="#font_0_7" transform="matrix(0,9.4645,9.4645,0,68.852,178.30171)" fill="#1f6e96"/>
<path transform="matrix(.1,0,0,-.1,0,233.54)" stroke-width="9.9628" stroke-linecap="butt" stroke-miterlimit="10" stroke-linejoin="miter" fill="none" stroke="#1f6e96" d="M 847.879 805.629 L 847.879 663.52 "/>
<path transform="matrix(.1,0,0,-.1,0,233.54)" d="M 847.879 601.801 C 849.566 609.379 859.148 642.695 869.57 663.52 L 826.184 663.52 C 836.609 642.695 846.188 609.379 847.879 601.801 " fill="#1f6e96"/>
<path transform="matrix(.1,0,0,-.1,0,233.54)" stroke-width="9.9628" stroke-linecap="butt" stroke-miterlimit="10" stroke-linejoin="miter" fill="none" stroke="#1f6e96" d="M 847.879 601.801 C 849.566 609.379 859.148 642.695 869.57 663.52 L 826.184 663.52 C 836.609 642.695 846.188 609.379 847.879 601.801 Z "/>
<use xlink:href="#font_0_b" transform="matrix(8.196547,-4.7322509,-4.7322509,-8.196547,119.11394,134.00371)" fill="#1f6e96"/>
<path transform="matrix(.1,0,0,-.1,0,233.54)" stroke-width="3.98002" stroke-linecap="butt" stroke-miterlimit="10" stroke-linejoin="miter" fill="none" stroke="#1f6e96" d="M 1232.41 1024 L 1257 1038.2 "/>
<symbol id="font_0_8">
<path d="M .49300004 .072000008 C .48400004 .07000001 .48000003 .07000001 .47500003 .07000001 C .44600005 .07000001 .43000005 .08500001 .43000005 .11100001 L .43000005 .41900004 C .43000005 .512 .36200003 .56200006 .23300001 .56200006 C .157 .56200006 .094000007 .54 .059 .50100007 C .035000005 .47400005 .024999999 .44400005 .023000002 .39200003 L .107 .39200003 C .114 .45600004 .15200001 .485 .23000002 .485 C .305 .485 .34700004 .45700003 .34700004 .407 L .34700004 .38500003 C .34700004 .35000003 .32600004 .335 .26000003 .32700003 C .14200002 .312 .124000009 .30800004 .092 .29500003 C .031000004 .27 0 .223 0 .155 C 0 .060000004 .066 0 .17200002 0 C .238 0 .291 .023000002 .35000003 .07700001 C .35600005 .024000003 .38200004 0 .43600003 0 C .45300005 0 .46600003 .0020000004 .49300004 .0090000019 L .49300004 .072000008 M .34700004 .18800001 C .34700004 .16000001 .33900003 .143 .314 .120000008 C .28000004 .089 .23900002 .073 .19 .073 C .125 .073 .087000008 .104 .087000008 .157 C .087000008 .21200001 .124000009 .24000001 .21300003 .25300003 C .30100004 .26500003 .31900005 .269 .34700004 .282 L .34700004 .18800001 Z "/>
</symbol>
<symbol id="font_0_6">
<path d="M .41700004 .023000002 L .41700004 .54700008 L .33400003 .54700008 L .33400003 .25 C .33400003 .143 .27800004 .073 .19100002 .073 C .125 .073 .083 .113000009 .083 .17600002 L .083 .54700008 L 0 .54700008 L 0 .143 C 0 .056 .065000008 0 .167 0 C .24400002 0 .293 .027000003 .342 .09600001 L .342 .023000002 L .41700004 .023000002 Z "/>
</symbol>
<symbol id="font_0_11">
<path d="M .08400001 .72900006 L 0 .72900006 L 0 0 L .08400001 0 L .08400001 .72900006 Z "/>
</symbol>
<symbol id="font_0_5">
<path d="M .24000001 .54700008 L .15400002 .54700008 L .15400002 .69100007 L .071 .69100007 L .071 .54700008 L 0 .54700008 L 0 .47900004 L .071 .47900004 L .071 .083000008 C .071 .030000002 .10700001 0 .172 0 C .19200002 0 .21200001 .0020000004 .24000001 .007000001 L .24000001 .07700001 C .22900002 .074 .216 .073 .20000002 .073 C .164 .073 .15400002 .083000008 .15400002 .120000008 L .15400002 .47900004 L .24000001 .47900004 L .24000001 .54700008 Z "/>
</symbol>
<use xlink:href="#font_0_d" transform="matrix(8.196547,-4.7322509,-4.7322509,-8.196547,125.94754,129.80683)" fill="#1f6e96"/>
<use xlink:href="#font_0_8" transform="matrix(8.196547,-4.7322509,-4.7322509,-8.196547,128.28583,128.70816)" fill="#1f6e96"/>
<use xlink:href="#font_0_6" transform="matrix(8.196547,-4.7322509,-4.7322509,-8.196547,133.03163,125.96819)" fill="#1f6e96"/>
<use xlink:href="#font_0_11" transform="matrix(8.196547,-4.7322509,-4.7322509,-8.196547,137.50466,123.13434)" fill="#1f6e96"/>
<use xlink:href="#font_0_5" transform="matrix(8.196547,-4.7322509,-4.7322509,-8.196547,138.99053,122.52784)" fill="#1f6e96"/>
<path transform="matrix(.1,0,0,-.1,0,233.54)" stroke-width="3.98002" stroke-linecap="butt" stroke-miterlimit="10" stroke-linejoin="miter" fill="none" stroke="#1f6e96" d="M 1414.38 1129.06 L 1438.96 1143.25 "/>
<use xlink:href="#font_0_c" transform="matrix(8.196547,-4.7322509,-4.7322509,-8.196547,144.43271,119.38622)" fill="#1f6e96"/>
<use xlink:href="#font_0_9" transform="matrix(8.196547,-4.7322509,-4.7322509,-8.196547,148.44666,116.81742)" fill="#1f6e96"/>
<use xlink:href="#font_0_5" transform="matrix(8.196547,-4.7322509,-4.7322509,-8.196547,152.62917,114.654018)" fill="#1f6e96"/>
<path transform="matrix(.1,0,0,-.1,0,233.54)" stroke-width="9.9628" stroke-linecap="butt" stroke-miterlimit="10" stroke-linejoin="miter" fill="none" stroke="#1f6e96" d="M 1189.29 1180.83 L 1312.36 1251.88 "/>
<path transform="matrix(.1,0,0,-.1,0,233.54)" d="M 1365.82 1282.74 C 1358.41 1280.42 1324.77 1272.05 1301.52 1270.67 L 1323.21 1233.1 C 1336.04 1252.54 1360.1 1277.49 1365.82 1282.74 " fill="#1f6e96"/>
<path transform="matrix(.1,0,0,-.1,0,233.54)" stroke-width="9.96257" stroke-linecap="butt" stroke-miterlimit="10" stroke-linejoin="miter" fill="none" stroke="#1f6e96" d="M 1365.82 1282.74 C 1358.41 1280.42 1324.77 1272.05 1301.52 1270.67 L 1323.21 1233.1 C 1336.04 1252.54 1360.1 1277.49 1365.82 1282.74 Z "/>
<use xlink:href="#font_0_b" transform="matrix(8.196547,-4.7322509,-4.7322509,-8.196547,160.37593,85.06882)" fill="#1f6e96"/>
<path transform="matrix(.1,0,0,-.1,0,233.54)" stroke-width="3.98002" stroke-linecap="butt" stroke-miterlimit="10" stroke-linejoin="miter" fill="none" stroke="#1f6e96" d="M 1645.04 1513.36 L 1669.63 1527.55 "/>
<use xlink:href="#font_0_d" transform="matrix(8.196547,-4.7322509,-4.7322509,-8.196547,167.21054,80.87182)" fill="#1f6e96"/>
<use xlink:href="#font_0_8" transform="matrix(8.196547,-4.7322509,-4.7322509,-8.196547,169.54883,79.773189)" fill="#1f6e96"/>
<use xlink:href="#font_0_6" transform="matrix(8.196547,-4.7322509,-4.7322509,-8.196547,174.29463,77.03321)" fill="#1f6e96"/>
<use xlink:href="#font_0_11" transform="matrix(8.196547,-4.7322509,-4.7322509,-8.196547,178.76766,74.199359)" fill="#1f6e96"/>
<use xlink:href="#font_0_5" transform="matrix(8.196547,-4.7322509,-4.7322509,-8.196547,180.25353,73.592868)" fill="#1f6e96"/>
<path transform="matrix(.1,0,0,-.1,0,233.54)" stroke-width="3.98002" stroke-linecap="butt" stroke-miterlimit="10" stroke-linejoin="miter" fill="none" stroke="#1f6e96" d="M 1827 1618.41 L 1851.58 1632.61 "/>
<use xlink:href="#font_0_11" transform="matrix(8.196547,-4.7322509,-4.7322509,-8.196547,185.81636,70.129199)" fill="#1f6e96"/>
<path transform="matrix(.1,0,0,-.1,0,233.54)" stroke-width="9.9628" stroke-linecap="butt" stroke-miterlimit="10" stroke-linejoin="miter" fill="none" stroke="#1f6e96" d="M 1830.69 1551.14 L 1953.76 1622.2 "/>
<path transform="matrix(.1,0,0,-.1,0,233.54)" d="M 2007.21 1653.05 C 1999.8 1650.73 1966.16 1642.37 1942.91 1640.98 L 1964.61 1603.41 C 1977.43 1622.85 2001.49 1647.8 2007.21 1653.05 " fill="#1f6e96"/>
<path transform="matrix(.1,0,0,-.1,0,233.54)" stroke-width="9.96257" stroke-linecap="butt" stroke-miterlimit="10" stroke-linejoin="miter" fill="none" stroke="#1f6e96" d="M 2007.21 1653.05 C 1999.8 1650.73 1966.16 1642.37 1942.91 1640.98 L 1964.61 1603.41 C 1977.43 1622.85 2001.49 1647.8 2007.21 1653.05 Z "/>
<use xlink:href="#font_0_b" transform="matrix(8.196547,-4.7322509,-4.7322509,-8.196547,227.13294,80.84181)" fill="#1f6e96"/>
<path transform="matrix(.1,0,0,-.1,0,233.54)" stroke-width="3.98002" stroke-linecap="butt" stroke-miterlimit="10" stroke-linejoin="miter" fill="none" stroke="#1f6e96" d="M 2312.61 1555.63 L 2337.19 1569.82 "/>
<use xlink:href="#font_0_d" transform="matrix(8.196547,-4.7322509,-4.7322509,-8.196547,233.96755,76.64481)" fill="#1f6e96"/>
<use xlink:href="#font_0_8" transform="matrix(8.196547,-4.7322509,-4.7322509,-8.196547,236.30583,75.54618)" fill="#1f6e96"/>
<use xlink:href="#font_0_6" transform="matrix(8.196547,-4.7322509,-4.7322509,-8.196547,241.05164,72.806209)" fill="#1f6e96"/>
<use xlink:href="#font_0_11" transform="matrix(8.196547,-4.7322509,-4.7322509,-8.196547,245.52466,69.97235)" fill="#1f6e96"/>
<use xlink:href="#font_0_5" transform="matrix(8.196547,-4.7322509,-4.7322509,-8.196547,247.01052,69.36586)" fill="#1f6e96"/>
<path transform="matrix(.1,0,0,-.1,0,233.54)" stroke-width="3.98002" stroke-linecap="butt" stroke-miterlimit="10" stroke-linejoin="miter" fill="none" stroke="#1f6e96" d="M 2494.57 1660.68 L 2519.15 1674.88 "/>
<use xlink:href="#font_0_6" transform="matrix(8.196547,-4.7322509,-4.7322509,-8.196547,252.65662,66.10592)" fill="#1f6e96"/>
<path transform="matrix(.1,0,0,-.1,0,233.54)" stroke-width="9.9628" stroke-linecap="butt" stroke-miterlimit="10" stroke-linejoin="miter" fill="none" stroke="#1f6e96" d="M 2255.69 1665.58 L 2378.76 1736.64 "/>
<path transform="matrix(.1,0,0,-.1,0,233.54)" d="M 2432.21 1767.49 C 2424.8 1765.17 2391.16 1756.8 2367.91 1755.42 L 2389.61 1717.85 C 2402.43 1737.29 2426.49 1762.24 2432.21 1767.49 " fill="#1f6e96"/>
<path transform="matrix(.1,0,0,-.1,0,233.54)" stroke-width="9.96257" stroke-linecap="butt" stroke-miterlimit="10" stroke-linejoin="miter" fill="none" stroke="#1f6e96" d="M 2432.21 1767.49 C 2424.8 1765.17 2391.16 1756.8 2367.91 1755.42 L 2389.61 1717.85 C 2402.43 1737.29 2426.49 1762.24 2432.21 1767.49 Z "/>
<use xlink:href="#font_0_b" transform="matrix(6.6923506,-6.6923506,-6.6923506,-6.6923506,202.25539,57.497457)" fill="#1f6e96"/>
<path transform="matrix(.1,0,0,-.1,0,233.54)" stroke-width="3.97996" stroke-linecap="butt" stroke-miterlimit="10" stroke-linejoin="miter" fill="none" stroke="#1f6e96" d="M 2055.01 1798.77 L 2075.08 1818.85 "/>
<use xlink:href="#font_0_4" transform="matrix(6.6923506,-6.6923506,-6.6923506,-6.6923506,208.03047,51.722375)" fill="#1f6e96"/>
<use xlink:href="#font_0_3" transform="matrix(6.6923506,-6.6923506,-6.6923506,-6.6923506,212.81549,49.54736)" fill="#1f6e96"/>
<use xlink:href="#font_0_11" transform="matrix(6.6923506,-6.6923506,-6.6923506,-6.6923506,215.1712,44.27379)" fill="#1f6e96"/>
<use xlink:href="#font_0_8" transform="matrix(6.6923506,-6.6923506,-6.6923506,-6.6923506,216.63683,43.11601)" fill="#1f6e96"/>
<use xlink:href="#font_0_a" transform="matrix(6.6923506,-6.6923506,-6.6923506,-6.6923506,221.31484,41.048017)" fill="#1f6e96"/>
<path transform="matrix(.1,0,0,-.1,0,233.54)" stroke-width="9.9628" stroke-linecap="butt" stroke-miterlimit="10" stroke-linejoin="miter" fill="none" stroke="#1f6e96" d="M 2098.95 1731.29 L 2199.43 1831.78 "/>
<path transform="matrix(.1,0,0,-.1,0,233.54)" d="M 2243.08 1875.42 C 2236.52 1871.25 2206.19 1854.47 2184.09 1847.12 L 2214.77 1816.44 C 2222.13 1838.53 2238.91 1868.86 2243.08 1875.42 " fill="#1f6e96"/>
<path transform="matrix(.1,0,0,-.1,0,233.54)" stroke-width="9.9627" stroke-linecap="butt" stroke-miterlimit="10" stroke-linejoin="miter" fill="none" stroke="#1f6e96" d="M 2243.08 1875.42 C 2236.52 1871.25 2206.19 1854.47 2184.09 1847.12 L 2214.77 1816.44 C 2222.13 1838.53 2238.91 1868.86 2243.08 1875.42 Z "/>
<path transform="matrix(.1,0,0,-.1,0,233.54)" stroke-width="9.9628" stroke-linecap="butt" stroke-miterlimit="10" stroke-linejoin="miter" fill="none" stroke="#808080" d="M 791.266 215.586 L 3825.11 215.586 "/>
<path transform="matrix(.1,0,0,-.1,0,233.54)" d="M 3886.83 215.586 C 3879.25 217.273 3845.94 226.855 3825.11 237.277 L 3825.11 193.891 C 3845.94 204.313 3879.25 213.895 3886.83 215.586 " fill="#808080"/>
<path transform="matrix(.1,0,0,-.1,0,233.54)" stroke-width="9.9628" stroke-linecap="butt" stroke-miterlimit="10" stroke-linejoin="miter" fill="none" stroke="#808080" d="M 3886.83 215.586 C 3879.25 217.273 3845.94 226.855 3825.11 237.277 L 3825.11 193.891 C 3845.94 204.313 3879.25 213.895 3886.83 215.586 Z "/>
<symbol id="font_1_1">
<path d="M .33900003 .272 L .51500007 .54 L .347 .54 L .26000003 .377 L .172 .54 L .0040000008 .54 L .18 .272 L 0 0 L .16800002 0 L .26000003 .16800002 L .351 0 L .51900008 0 L .33900003 .272 Z "/>
</symbol>
<use xlink:href="#font_1_1" transform="matrix(9.4645,0,0,-9.4645,394.48243,214.497)" fill="#808080"/>
<path transform="matrix(.1,0,0,-.1,0,233.54)" stroke-width="9.9628" stroke-linecap="butt" stroke-miterlimit="10" stroke-linejoin="miter" fill="none" stroke="#808080" d="M 791.266 215.586 L 791.266 144.73 "/>
<symbol id="font_2_1">
<path d="M .57600006 0 C .59300008 0 .611 0 .611 .019999996 C .611 .040000008 .59300008 .040000008 .57600006 .040000008 L .035000005 .040000008 C .018 .040000008 0 .040000008 0 .019999996 C 0 0 .018 0 .035000005 0 L .57600006 0 Z "/>
</symbol>
<use xlink:href="#font_2_1" transform="matrix(9.9626,0,0,-9.9626,61.512098,227.26345)" fill="#808080"/>
<symbol id="font_3_2">
<path d="M .205 .64000007 C .205 .66400006 .205 .666 .18200003 .666 C .120000008 .60200008 .032000007 .60200008 0 .60200008 L 0 .57100006 C .020000004 .57100006 .07900001 .57100006 .13100001 .597 L .13100001 .079 C .13100001 .043 .128 .031000002 .038000004 .031000002 L .0060000049 .031000002 L .0060000049 0 C .04100001 .003 .128 .003 .168 .003 C .20800002 .003 .29500003 .003 .33000005 0 L .33000005 .031000002 L .29800005 .031000002 C .20800002 .031000002 .205 .042000005 .205 .079 L .205 .64000007 Z "/>
</symbol>
<symbol id="font_3_1">
<path d="M .421 .34200005 C .421 .42200003 .416 .50200006 .381 .57600006 C .335 .67200008 .25300003 .688 .211 .688 C .15100001 .688 .07800001 .66200008 .037000006 .56900009 C .0050000029 .5 0 .42200003 0 .34200005 C 0 .26700003 .0040000008 .177 .045000007 .101 C .088 .020000002 .161 0 .21000001 0 C .264 0 .34 .021000002 .384 .116000007 C .416 .185 .421 .263 .421 .34200005 M .21000001 .022000002 C .171 .022000002 .112 .047000003 .094 .143 C .083000008 .20300001 .083000008 .29500003 .083000008 .35400004 C .083000008 .41800005 .083000008 .48400004 .091000009 .53800007 C .11 .65700009 .185 .66600009 .21000001 .66600009 C .243 .66600009 .30900003 .64800009 .328 .549 C .338 .49300004 .338 .41700004 .338 .35400004 C .338 .279 .338 .21100001 .32700003 .147 C .312 .052 .255 .022000002 .21000001 .022000002 Z "/>
</symbol>
<use xlink:href="#font_3_2" transform="matrix(9.9626,0,0,-9.9626,69.3207,229.55484)" fill="#808080"/>
<use xlink:href="#font_3_1" transform="matrix(9.9626,0,0,-9.9626,73.80387,229.77402)" fill="#808080"/>
<use xlink:href="#font_3_1" transform="matrix(9.9626,0,0,-9.9626,78.78517,229.77402)" fill="#808080"/>
<symbol id="font_0_10">
<path d="M .083000008 .72900006 L 0 .72900006 L 0 0 L .083000008 0 L .083000008 .20400001 L .16400002 .284 L .34100003 0 L .44400005 0 L .23000002 .34300003 L .41200004 .52400007 L .305 .52400007 L .083000008 .30200003 L .083000008 .72900006 Z "/>
</symbol>
<symbol id="font_0_12">
<path d="M 0 .52400007 L 0 0 L .084000017 0 L .084000017 .32900004 C .084000017 .40500004 .139 .46600003 .20700002 .46600003 C .26900003 .46600003 .30400003 .42800004 .30400003 .36100004 L .30400003 0 L .38800005 0 L .38800005 .32900004 C .38800005 .40500004 .44300003 .46600003 .51100006 .46600003 C .572 .46600003 .60800006 .42700003 .60800006 .36100004 L .60800006 0 L .69200006 0 L .69200006 .393 C .69200006 .48700003 .638 .53900006 .54 .53900006 C .47000004 .53900006 .42800004 .518 .37900005 .45900003 C .34800003 .51500007 .30600003 .53900006 .23800004 .53900006 C .16800002 .53900006 .122 .513 .077 .45000003 L .077 .52400007 L 0 .52400007 Z "/>
</symbol>
<use xlink:href="#font_0_10" transform="matrix(9.4645,0,0,-9.4645,85.504878,229.55484)" fill="#808080"/>
<use xlink:href="#font_0_12" transform="matrix(9.4645,0,0,-9.4645,90.3507,229.55484)" fill="#808080"/>
<path transform="matrix(.1,0,0,-.1,0,233.54)" stroke-width="9.9628" stroke-linecap="butt" stroke-miterlimit="10" stroke-linejoin="miter" fill="none" stroke="#808080" d="M 3626.12 215.586 L 3626.12 144.73 "/>
<use xlink:href="#font_3_2" transform="matrix(9.9626,0,0,-9.9626,348.92765,229.55484)" fill="#808080"/>
<use xlink:href="#font_3_1" transform="matrix(9.9626,0,0,-9.9626,353.41084,229.77402)" fill="#808080"/>
<use xlink:href="#font_3_1" transform="matrix(9.9626,0,0,-9.9626,358.39213,229.77402)" fill="#808080"/>
<use xlink:href="#font_0_10" transform="matrix(9.4645,0,0,-9.4645,365.11186,229.55484)" fill="#808080"/>
<use xlink:href="#font_0_12" transform="matrix(9.4645,0,0,-9.4645,369.95765,229.55484)" fill="#808080"/>
<path transform="matrix(.1,0,0,-.1,0,233.54)" stroke-width="9.9628" stroke-linecap="butt" stroke-miterlimit="10" stroke-linejoin="miter" fill="none" stroke="#808080" d="M 507.766 499.086 L 507.766 2115.42 "/>
<path transform="matrix(.1,0,0,-.1,0,233.54)" d="M 507.766 2177.14 C 506.074 2169.56 496.496 2136.24 486.07 2115.42 L 529.457 2115.42 C 519.035 2136.24 509.453 2169.56 507.766 2177.14 " fill="#808080"/>
<path transform="matrix(.1,0,0,-.1,0,233.54)" stroke-width="9.9628" stroke-linecap="butt" stroke-miterlimit="10" stroke-linejoin="miter" fill="none" stroke="#808080" d="M 507.766 2177.14 C 506.074 2169.56 496.496 2136.24 486.07 2115.42 L 529.457 2115.42 C 519.035 2136.24 509.453 2169.56 507.766 2177.14 Z "/>
<symbol id="font_1_2">
<path d="M .38500003 .75900009 L .273 .366 L .154 .75900009 L 0 .75900009 L .201 .19700001 L .201 .19600001 L .201 .19300002 C .201 .142 .163 .10300001 .114 .10300001 C .103 .10300001 .095 .10400001 .077 .109000008 L .077 .004000008 C .098000008 .001000002 .11 0 .127 0 C .162 0 .20400001 .0069999995 .22800002 .017000005 C .26700003 .033000009 .284 .05600001 .307 .120000008 L .52900007 .75900009 L .38500003 .75900009 Z "/>
</symbol>
<use xlink:href="#font_1_2" transform="matrix(9.4645,0,0,-9.4645,48.232084,10.256716)" fill="#808080"/>
<path transform="matrix(.1,0,0,-.1,0,233.54)" stroke-width="9.9628" stroke-linecap="butt" stroke-miterlimit="10" stroke-linejoin="miter" fill="none" stroke="#808080" d="M 507.766 499.086 L 436.91 499.086 "/>
<use xlink:href="#font_2_1" transform="matrix(9.9626,0,0,-9.9626,3.9808059,184.3416)" fill="#808080"/>
<use xlink:href="#font_3_2" transform="matrix(9.9626,0,0,-9.9626,11.789801,186.633)" fill="#808080"/>
<use xlink:href="#font_3_1" transform="matrix(9.9626,0,0,-9.9626,16.272973,186.85218)" fill="#808080"/>
<use xlink:href="#font_3_1" transform="matrix(9.9626,0,0,-9.9626,21.254273,186.85218)" fill="#808080"/>
<use xlink:href="#font_0_10" transform="matrix(9.4645,0,0,-9.4645,27.97397,186.633)" fill="#808080"/>
<use xlink:href="#font_0_12" transform="matrix(9.4645,0,0,-9.4645,32.819795,186.633)" fill="#808080"/>
<path transform="matrix(.1,0,0,-.1,0,233.54)" stroke-width="9.9628" stroke-linecap="butt" stroke-miterlimit="10" stroke-linejoin="miter" fill="none" stroke="#808080" d="M 507.766 1916.52 L 436.91 1916.52 "/>
<use xlink:href="#font_3_1" transform="matrix(9.9626,0,0,-9.9626,21.254542,45.527177)" fill="#808080"/>
<use xlink:href="#font_0_10" transform="matrix(9.4645,0,0,-9.4645,27.97392,45.308)" fill="#808080"/>
<use xlink:href="#font_0_12" transform="matrix(9.4645,0,0,-9.4645,32.819746,45.308)" fill="#808080"/>
</g>
</svg>
