<?xml version="1.0" encoding="UTF-8" standalone="no"?>
<!DOCTYPE svg PUBLIC "-//W3C//DTD SVG 1.1//EN" "http://www.w3.org/Graphics/SVG/1.1/DTD/svg11.dtd">
<svg xmlns="http://www.w3.org/2000/svg" xmlns:xlink="http://www.w3.org/1999/xlink" version="1.1" width="421.2pt" height="233.54pt" viewBox="0 0 421.2 233.54">
<g enable-background="new">
<path transform="matrix(.1,0,0,-.1,0,233.54)" d="M 791.266 499.086 L 3626.296 499.086 L 3626.296 1916.606 L 791.266 1916.606 Z " fill="#cceeff"/>
<path transform="matrix(.1,0,0,-.1,0,233.54)" stroke-width="9.9628" stroke-linecap="butt" stroke-miterlimit="10" stroke-linejoin="miter" fill="none" stroke="#1f6e96" d="M 791.266 499.086 L 3626.296 499.086 L 3626.296 1916.606 L 791.266 1916.606 Z "/>
<path transform="matrix(.1,0,0,-.1,0,233.54)" stroke-width="9.9628" stroke-linecap="butt" stroke-miterlimit="10" stroke-linejoin="miter" fill="none" stroke="#1f6e96" d="M 791.266 885.57 L 1840.5 1491.35 "/>
<path transform="matrix(.1,0,0,-.1,0,233.54)" stroke-width="19.9255" stroke-linecap="butt" stroke-miterlimit="10" stroke-linejoin="miter" fill="none" stroke="#6100ad" d="M 1840.5 1491.35 L 2577.06 1916.6 "/>
<path transform="matrix(.1,0,0,-.1,0,233.54)" stroke-width="19.9255" stroke-linecap="butt" stroke-miterlimit="10" stroke-linejoin="miter" fill="none" stroke="#6100ad" d="M 2073.98 1626.15 L 2364.44 1916.6 "/>
<path transform="matrix(.1,0,0,-.1,0,233.54)" d="M 819.613 499.086 C 819.613 514.742 806.922 527.434 791.266 527.434 C 775.609 527.434 762.922 514.742 762.922 499.086 C 762.922 483.43 775.609 470.738 791.266 470.738 C 806.922 470.738 819.613 483.43 819.613 499.086 Z M 791.266 499.086 " fill="#f58000"/>
<symbol id="font_0_7">
<path d="M .27500005 0 L .47600005 .52400007 L .38200004 .52400007 L .23400001 .09900001 L .094000007 .52400007 L 0 .52400007 L .184 0 L .27500005 0 Z "/>
</symbol>
<use xlink:href="#font_0_7" transform="matrix(9.4645,0,0,-9.4645,82.56844,192.11699)" fill="#f58000"/>
<path transform="matrix(.1,0,0,-.1,0,233.54)" stroke-width="3.98" stroke-linecap="butt" stroke-miterlimit="10" stroke-linejoin="miter" fill="none" stroke="#f58000" d="M 877.738 416.219 L 906.129 416.219 "/>
<symbol id="font_0_c">
<path d="M .368 .74200007 L .22300002 .33400003 L .089 .74200007 L 0 .74200007 L .17700002 .216 L .14500001 .13300002 C .13200002 .096 .113 .082 .078 .082 C .066 .082 .052 .08400001 .034 .088 L .034 .012999997 C .051 .003999993 .068 0 .09 0 C .117000009 0 .14600002 .009000003 .16800002 .025000006 C .19400002 .044 .20900002 .066 .22500001 .108 L .458 .74200007 L .368 .74200007 Z "/>
</symbol>
<symbol id="font_0_1">
<path d="M 0 .52400007 L 0 0 L .084000017 0 L .084000017 .289 C .084000017 .39600004 .14000002 .46600003 .22600001 .46600003 C .29200004 .46600003 .33400003 .42600004 .33400003 .363 L .33400003 0 L .41700004 0 L .41700004 .39600004 C .41700004 .483 .35200004 .53900006 .25100003 .53900006 C .17300001 .53900006 .123 .509 .077 .43600003 L .077 .52400007 L 0 .52400007 Z "/>
</symbol>
<symbol id="font_0_e">
<path d="M .47300003 .25700004 C .47300003 .337 .46700005 .38500003 .45200003 .42400003 C .41800005 .51 .33800004 .56200006 .24 .56200006 C .094 .56200006 0 .45000003 0 .27800004 C 0 .106000009 .091000009 0 .23800002 0 C .35800005 0 .44100005 .068 .46200005 .18200001 L .37800003 .18200001 C .35500003 .113000009 .30800004 .07700001 .24100001 .07700001 C .18800001 .07700001 .143 .101 .114999998 .14500001 C .095 .17500001 .088 .20500002 .087 .25700004 L .47300003 .25700004 M .089 .32500003 C .096 .42200003 .155 .485 .23900001 .485 C .32100005 .485 .38400004 .41700004 .38400004 .33100004 C .38400004 .32900004 .38400004 .32700003 .38300003 .32500003 L .089 .32500003 Z "/>
</symbol>
<symbol id="font_0_10">
<path d="M .38300003 .74200007 L .38300003 .666 C .341 .72800007 .29 .757 .223 .757 C .09 .757 0 .64100006 0 .47100003 C 0 .38500003 .023 .315 .06600001 .26500003 C .105000007 .22100002 .16100002 .19500001 .216 .19500001 C .282 .19500001 .328 .223 .375 .289 L .375 .26200003 C .375 .19100002 .366 .148 .345 .119 C .323 .088 .28 .07000001 .22900002 .07000001 C .19100002 .07000001 .157 .08 .134 .098000008 C .11500001 .113000009 .10700001 .127 .10200001 .158 L .017000003 .158 C .026000003 .059 .103 0 .22600003 0 C .304 0 .371 .025000006 .405 .067 C .44500003 .115 .46 .18100001 .46 .30400003 L .46 .74200007 L .38300003 .74200007 M .23200001 .68 C .322 .68 .375 .60400006 .375 .47300006 C .375 .34800003 .321 .272 .23300003 .272 C .142 .272 .087000008 .34900005 .087000008 .476 C .087000008 .602 .143 .68 .23200001 .68 Z "/>
</symbol>
<use xlink:href="#font_0_c" transform="matrix(9.4645,0,0,-9.4645,90.80219,194.18025)" fill="#f58000"/>
<use xlink:href="#font_0_1" transform="matrix(9.4645,0,0,-9.4645,96.00767,192.11699)" fill="#f58000"/>
<use xlink:href="#font_0_e" transform="matrix(9.4645,0,0,-9.4645,100.98599,192.33467)" fill="#f58000"/>
<use xlink:href="#font_0_10" transform="matrix(9.4645,0,0,-9.4645,106.14414,194.18025)" fill="#f58000"/>
<path transform="matrix(.1,0,0,-.1,0,233.54)" stroke-width="3.98" stroke-linecap="butt" stroke-miterlimit="10" stroke-linejoin="miter" fill="none" stroke="#f58000" d="M 1117 416.219 L 1145.39 416.219 "/>
<symbol id="font_0_a">
<path d="M .27500005 .27100004 L .45100004 .52400007 L .35700003 .52400007 L .231 .33400003 L .105000007 .52400007 L .01 .52400007 L .185 .26700003 L 0 0 L .095 0 L .228 .201 L .35900004 0 L .45600004 0 L .27500005 .27100004 Z "/>
</symbol>
<use xlink:href="#font_0_a" transform="matrix(9.4645,0,0,-9.4645,114.6999,192.11699)" fill="#f58000"/>
<use xlink:href="#font_0_1" transform="matrix(9.4645,0,0,-9.4645,119.93377,192.11699)" fill="#f58000"/>
<use xlink:href="#font_0_e" transform="matrix(9.4645,0,0,-9.4645,124.912097,192.33467)" fill="#f58000"/>
<use xlink:href="#font_0_10" transform="matrix(9.4645,0,0,-9.4645,130.07025,194.18025)" fill="#f58000"/>
<path transform="matrix(.1,0,0,-.1,0,233.54)" d="M 3654.64 499.086 C 3654.64 514.742 3641.95 527.434 3626.29 527.434 C 3610.64 527.434 3597.95 514.742 3597.95 499.086 C 3597.95 483.43 3610.64 470.738 3626.29 470.738 C 3641.95 470.738 3654.64 483.43 3654.64 499.086 Z M 3626.29 499.086 " fill="#f58000"/>
<use xlink:href="#font_0_7" transform="matrix(9.4645,0,0,-9.4645,366.08464,192.11699)" fill="#f58000"/>
<path transform="matrix(.1,0,0,-.1,0,233.54)" stroke-width="3.98" stroke-linecap="butt" stroke-miterlimit="10" stroke-linejoin="miter" fill="none" stroke="#f58000" d="M 3712.9 416.219 L 3741.29 416.219 "/>
<use xlink:href="#font_0_c" transform="matrix(9.4645,0,0,-9.4645,374.3183,194.18025)" fill="#f58000"/>
<use xlink:href="#font_0_1" transform="matrix(9.4645,0,0,-9.4645,379.52375,192.11699)" fill="#f58000"/>
<use xlink:href="#font_0_e" transform="matrix(9.4645,0,0,-9.4645,384.50209,192.33467)" fill="#f58000"/>
<use xlink:href="#font_0_10" transform="matrix(9.4645,0,0,-9.4645,389.66026,194.18025)" fill="#f58000"/>
<path transform="matrix(.1,0,0,-.1,0,233.54)" stroke-width="3.98" stroke-linecap="butt" stroke-miterlimit="10" stroke-linejoin="miter" fill="none" stroke="#f58000" d="M 3952.16 416.219 L 3980.55 416.219 "/>
<symbol id="font_0_3">
<path d="M 0 0 L .08400001 0 L .08400001 .273 C .128 .21900001 .177 .19500001 .24500002 .19500001 C .38000003 .19500001 .469 .30400003 .469 .47100003 C .469 .647 .38300003 .757 .244 .757 C .17300001 .757 .116 .725 .07700001 .66300007 L .07700001 .74200007 L 0 .74200007 L 0 0 M .23 .679 C .32200004 .679 .38200004 .59800007 .38200004 .47300006 C .38200004 .35400004 .32100005 .273 .23 .273 C .142 .273 .08400001 .35300002 .08400001 .476 C .08400001 .59900006 .142 .679 .23 .679 Z "/>
</symbol>
<symbol id="font_0_2">
<path d="M .23600002 .56200006 C .089 .56200006 0 .45700003 0 .28100003 C 0 .105000007 .088 0 .237 0 C .384 0 .47400005 .105000007 .47400005 .277 C .47400005 .45800004 .387 .56200006 .23600002 .56200006 M .237 .485 C .331 .485 .387 .40800003 .387 .27800004 C .387 .155 .329 .07700001 .237 .07700001 C .14400001 .07700001 .087 .15400002 .087 .28100003 C .087 .407 .14400001 .485 .237 .485 Z "/>
</symbol>
<symbol id="font_0_4">
<path d="M .404 .40100003 C .403 .50400009 .335 .56200006 .21400002 .56200006 C .092 .56200006 .013 .499 .013 .402 C .013 .32000003 .055 .28100003 .17900002 .25100003 L .257 .23200001 C .315 .21800001 .338 .19700001 .338 .15900001 C .338 .11000001 .289 .07700001 .21599999 .07700001 C .171 .07700001 .13300002 .09 .11200001 .112 C .099 .127 .093 .142 .08800001 .179 L 0 .179 C .0040000008 .058000003 .072000008 0 .20900002 0 C .34100003 0 .425 .065000008 .425 .16600001 C .425 .24400002 .381 .287 .277 .312 L .197 .33100004 C .12900001 .347 .1 .36900003 .1 .40600003 C .1 .45400004 .143 .485 .211 .485 C .278 .485 .314 .45600004 .316 .40100003 L .404 .40100003 Z "/>
</symbol>
<use xlink:href="#font_0_a" transform="matrix(9.4645,0,0,-9.4645,398.21589,192.11699)" fill="#f58000"/>
<use xlink:href="#font_0_3" transform="matrix(9.4645,0,0,-9.4645,403.2983,194.18025)" fill="#f58000"/>
<use xlink:href="#font_0_2" transform="matrix(9.4645,0,0,-9.4645,408.39024,192.33467)" fill="#f58000"/>
<use xlink:href="#font_0_4" transform="matrix(9.4645,0,0,-9.4645,413.63359,192.33467)" fill="#f58000"/>
<path transform="matrix(.1,0,0,-.1,0,233.54)" d="M 3654.64 1916.6 C 3654.64 1932.25 3641.95 1944.95 3626.29 1944.95 C 3610.64 1944.95 3597.95 1932.25 3597.95 1916.6 C 3597.95 1900.95 3610.64 1888.25 3626.29 1888.25 C 3641.95 1888.25 3654.64 1900.95 3654.64 1916.6 Z M 3626.29 1916.6 " fill="#f58000"/>
<use xlink:href="#font_0_7" transform="matrix(9.4645,0,0,-9.4645,366.08464,36.50099)" fill="#f58000"/>
<path transform="matrix(.1,0,0,-.1,0,233.54)" stroke-width="3.98" stroke-linecap="butt" stroke-miterlimit="10" stroke-linejoin="miter" fill="none" stroke="#f58000" d="M 3712.9 1972.38 L 3741.29 1972.38 "/>
<use xlink:href="#font_0_c" transform="matrix(9.4645,0,0,-9.4645,374.3183,38.564256)" fill="#f58000"/>
<use xlink:href="#font_0_3" transform="matrix(9.4645,0,0,-9.4645,379.3723,38.564256)" fill="#f58000"/>
<use xlink:href="#font_0_2" transform="matrix(9.4645,0,0,-9.4645,384.46424,36.718675)" fill="#f58000"/>
<use xlink:href="#font_0_4" transform="matrix(9.4645,0,0,-9.4645,389.70759,36.718675)" fill="#f58000"/>
<path transform="matrix(.1,0,0,-.1,0,233.54)" stroke-width="3.98" stroke-linecap="butt" stroke-miterlimit="10" stroke-linejoin="miter" fill="none" stroke="#f58000" d="M 3946.86 1972.38 L 3975.25 1972.38 "/>
<use xlink:href="#font_0_a" transform="matrix(9.4645,0,0,-9.4645,397.68589,36.50099)" fill="#f58000"/>
<use xlink:href="#font_0_3" transform="matrix(9.4645,0,0,-9.4645,402.7683,38.564256)" fill="#f58000"/>
<use xlink:href="#font_0_2" transform="matrix(9.4645,0,0,-9.4645,407.86024,36.718675)" fill="#f58000"/>
<use xlink:href="#font_0_4" transform="matrix(9.4645,0,0,-9.4645,413.10359,36.718675)" fill="#f58000"/>
<path transform="matrix(.1,0,0,-.1,0,233.54)" d="M 819.613 1916.6 C 819.613 1932.25 806.922 1944.95 791.266 1944.95 C 775.609 1944.95 762.922 1932.25 762.922 1916.6 C 762.922 1900.95 775.609 1888.25 791.266 1888.25 C 806.922 1888.25 819.613 1900.95 819.613 1916.6 Z M 791.266 1916.6 " fill="#f58000"/>
<use xlink:href="#font_0_7" transform="matrix(9.4645,0,0,-9.4645,53.187646,36.42)" fill="#f58000"/>
<path transform="matrix(.1,0,0,-.1,0,233.54)" stroke-width="3.98" stroke-linecap="butt" stroke-miterlimit="10" stroke-linejoin="miter" fill="none" stroke="#f58000" d="M 583.93 1973.19 L 612.32 1973.19 "/>
<use xlink:href="#font_0_c" transform="matrix(9.4645,0,0,-9.4645,61.421289,38.48326)" fill="#f58000"/>
<use xlink:href="#font_0_3" transform="matrix(9.4645,0,0,-9.4645,66.475337,38.48326)" fill="#f58000"/>
<use xlink:href="#font_0_2" transform="matrix(9.4645,0,0,-9.4645,71.56723,36.63768)" fill="#f58000"/>
<use xlink:href="#font_0_4" transform="matrix(9.4645,0,0,-9.4645,76.81056,36.63768)" fill="#f58000"/>
<path transform="matrix(.1,0,0,-.1,0,233.54)" stroke-width="3.98" stroke-linecap="butt" stroke-miterlimit="10" stroke-linejoin="miter" fill="none" stroke="#f58000" d="M 817.891 1973.19 L 846.281 1973.19 "/>
<use xlink:href="#font_0_a" transform="matrix(9.4645,0,0,-9.4645,84.788997,36.42)" fill="#f58000"/>
<use xlink:href="#font_0_1" transform="matrix(9.4645,0,0,-9.4645,90.022869,36.42)" fill="#f58000"/>
<use xlink:href="#font_0_e" transform="matrix(9.4645,0,0,-9.4645,95.00119,36.63768)" fill="#f58000"/>
<use xlink:href="#font_0_10" transform="matrix(9.4645,0,0,-9.4645,100.15934,38.48326)" fill="#f58000"/>
<path transform="matrix(.1,0,0,-.1,0,233.54)" d="M 819.613 885.57 C 819.613 901.227 806.922 913.918 791.266 913.918 C 775.609 913.918 762.922 901.227 762.922 885.57 C 762.922 869.918 775.609 857.227 791.266 857.227 C 806.922 857.227 819.613 869.918 819.613 885.57 Z M 791.266 885.57 " fill="#f58000"/>
<use xlink:href="#font_0_7" transform="matrix(9.4645,0,0,-9.4645,26.191546,139.5279)" fill="#f58000"/>
<path transform="matrix(.1,0,0,-.1,0,233.54)" stroke-width="3.98" stroke-linecap="butt" stroke-miterlimit="10" stroke-linejoin="miter" fill="none" stroke="#f58000" d="M 313.969 942.109 L 342.359 942.109 "/>
<symbol id="font_0_f">
<path d="M .24000001 .52400007 L .153 .52400007 L .153 .606 C .153 .64100006 .17300001 .65900006 .21100001 .65900006 C .21800001 .65900006 .221 .65900006 .24000001 .65800008 L .24000001 .72700008 C .221 .731 .21000001 .73200008 .193 .73200008 C .116000007 .73200008 .07000001 .688 .07000001 .61300006 L .07000001 .52400007 L 0 .52400007 L 0 .45600004 L .07000001 .45600004 L .07000001 0 L .153 0 L .153 .45600004 L .24000001 .45600004 L .24000001 .52400007 Z "/>
</symbol>
<symbol id="font_0_9">
<path d="M .49300004 .072000008 C .48400004 .07000001 .48000003 .07000001 .47500003 .07000001 C .44600005 .07000001 .43000005 .08500001 .43000005 .11100001 L .43000005 .41900004 C .43000005 .512 .36200003 .56200006 .23300001 .56200006 C .157 .56200006 .094000007 .54 .059 .50100007 C .035000005 .47400005 .024999999 .44400005 .023000002 .39200003 L .107 .39200003 C .114 .45600004 .15200001 .485 .23000002 .485 C .305 .485 .34700004 .45700003 .34700004 .407 L .34700004 .38500003 C .34700004 .35000003 .32600004 .335 .26000003 .32700003 C .14200002 .312 .124000009 .30800004 .092 .29500003 C .031000004 .27 0 .223 0 .155 C 0 .060000004 .066 0 .17200002 0 C .238 0 .291 .023000002 .35000003 .07700001 C .35600005 .024000003 .38200004 0 .43600003 0 C .45300005 0 .46600003 .0020000004 .49300004 .0090000019 L .49300004 .072000008 M .34700004 .18800001 C .34700004 .16000001 .33900003 .143 .314 .120000008 C .28000004 .089 .23900002 .073 .19 .073 C .125 .073 .087000008 .104 .087000008 .157 C .087000008 .21200001 .124000009 .24000001 .21300003 .25300003 C .30100004 .26500003 .31900005 .269 .34700004 .282 L .34700004 .18800001 Z "/>
</symbol>
<symbol id="font_0_6">
<path d="M .41700004 .023000002 L .41700004 .54700008 L .33400003 .54700008 L .33400003 .25 C .33400003 .143 .27800004 .073 .19100002 .073 C .125 .073 .083 .113000009 .083 .17600002 L .083 .54700008 L 0 .54700008 L 0 .143 C 0 .056 .065000008 0 .167 0 C .24400002 0 .293 .027000003 .342 .09600001 L .342 .023000002 L .41700004 .023000002 Z "/>
</symbol>
<symbol id="font_0_13">
<path d="M .08400001 .72900006 L 0 .72900006 L 0 0 L .08400001 0 L .08400001 .72900006 Z "/>
</symbol>
<symbol id="font_0_5">
<path d="M .24000001 .54700008 L .15400002 .54700008 L .15400002 .69100007 L .071 .69100007 L .071 .54700008 L 0 .54700008 L 0 .47900004 L .071 .47900004 L .071 .083000008 C .071 .030000002 .10700001 0 .172 0 C .19200002 0 .21200001 .0020000004 .24000001 .007000001 L .24000001 .07700001 C .22900002 .074 .216 .073 .20000002 .073 C .164 .073 .15400002 .083000008 .15400002 .120000008 L .15400002 .47900004 L .24000001 .47900004 L .24000001 .54700008 Z "/>
</symbol>
<use xlink:href="#font_0_f" transform="matrix(9.4645,0,0,-9.4645,34.40746,139.5279)" fill="#f58000"/>
<use xlink:href="#font_0_9" transform="matrix(9.4645,0,0,-9.4645,36.981878,139.74558)" fill="#f58000"/>
<use xlink:href="#font_0_6" transform="matrix(9.4645,0,0,-9.4645,42.461824,139.74558)" fill="#f58000"/>
<use xlink:href="#font_0_13" transform="matrix(9.4645,0,0,-9.4645,47.75248,139.5279)" fill="#f58000"/>
<use xlink:href="#font_0_5" transform="matrix(9.4645,0,0,-9.4645,49.342519,139.74558)" fill="#f58000"/>
<path transform="matrix(.1,0,0,-.1,0,233.54)" stroke-width="3.98" stroke-linecap="butt" stroke-miterlimit="10" stroke-linejoin="miter" fill="none" stroke="#f58000" d="M 524.078 942.109 L 552.469 942.109 "/>
<use xlink:href="#font_0_a" transform="matrix(9.4645,0,0,-9.4645,55.407796,139.5279)" fill="#f58000"/>
<use xlink:href="#font_0_1" transform="matrix(9.4645,0,0,-9.4645,60.641664,139.5279)" fill="#f58000"/>
<use xlink:href="#font_0_e" transform="matrix(9.4645,0,0,-9.4645,65.61999,139.74558)" fill="#f58000"/>
<use xlink:href="#font_0_10" transform="matrix(9.4645,0,0,-9.4645,70.77814,141.59116)" fill="#f58000"/>
<path transform="matrix(.1,0,0,-.1,0,233.54)" d="M 1868.84 1491.35 C 1868.84 1507 1856.15 1519.69 1840.5 1519.69 C 1824.84 1519.69 1812.15 1507 1812.15 1491.35 C 1812.15 1475.69 1824.84 1463 1840.5 1463 C 1856.15 1463 1868.84 1475.69 1868.84 1491.35 Z M 1840.5 1491.35 " fill="#f58000"/>
<use xlink:href="#font_0_7" transform="matrix(9.4645,0,0,-9.4645,138.48366,87.785999)" fill="#f58000"/>
<path transform="matrix(.1,0,0,-.1,0,233.54)" stroke-width="3.98" stroke-linecap="butt" stroke-miterlimit="10" stroke-linejoin="miter" fill="none" stroke="#f58000" d="M 1436.89 1459.53 L 1465.28 1459.53 "/>
<use xlink:href="#font_0_f" transform="matrix(9.4645,0,0,-9.4645,146.69837,87.785999)" fill="#f58000"/>
<use xlink:href="#font_0_9" transform="matrix(9.4645,0,0,-9.4645,149.27278,88.00368)" fill="#f58000"/>
<use xlink:href="#font_0_6" transform="matrix(9.4645,0,0,-9.4645,154.75273,88.00368)" fill="#f58000"/>
<use xlink:href="#font_0_13" transform="matrix(9.4645,0,0,-9.4645,160.0434,87.785999)" fill="#f58000"/>
<use xlink:href="#font_0_5" transform="matrix(9.4645,0,0,-9.4645,161.63344,88.00368)" fill="#f58000"/>
<path transform="matrix(.1,0,0,-.1,0,233.54)" stroke-width="3.98" stroke-linecap="butt" stroke-miterlimit="10" stroke-linejoin="miter" fill="none" stroke="#f58000" d="M 1646.99 1459.53 L 1675.38 1459.53 "/>
<symbol id="font_0_b">
<path d="M 0 .75200006 L 0 .023000002 L .075 .023000002 L .075 .09 C .11500001 .029000003 .16800002 0 .24100001 0 C .37900005 0 .469 .113000009 .469 .287 C .469 .45700003 .38300003 .56200006 .24500002 .56200006 C .17300001 .56200006 .12200001 .535 .083000008 .476 L .083000008 .75200006 L 0 .75200006 M .22900002 .48400004 C .32200004 .48400004 .38200004 .40300004 .38200004 .27800004 C .38200004 .15900001 .32000003 .07800001 .22900002 .07800001 C .141 .07800001 .083000008 .158 .083000008 .28100003 C .083000008 .404 .141 .48400004 .22900002 .48400004 Z "/>
</symbol>
<use xlink:href="#font_0_b" transform="matrix(9.4645,0,0,-9.4645,168.05008,88.00368)" fill="#f58000"/>
<use xlink:href="#font_0_2" transform="matrix(9.4645,0,0,-9.4645,173.142,88.00368)" fill="#f58000"/>
<use xlink:href="#font_0_5" transform="matrix(9.4645,0,0,-9.4645,178.19605,88.00368)" fill="#f58000"/>
<path transform="matrix(.1,0,0,-.1,0,233.54)" d="M 2605.41 1916.6 C 2605.41 1932.25 2592.72 1944.95 2577.06 1944.95 C 2561.41 1944.95 2548.72 1932.25 2548.72 1916.6 C 2548.72 1900.95 2561.41 1888.25 2577.06 1888.25 C 2592.72 1888.25 2605.41 1900.95 2605.41 1916.6 Z M 2577.06 1916.6 " fill="#f58000"/>
<use xlink:href="#font_0_7" transform="matrix(9.4645,0,0,-9.4645,261.15666,36.552995)" fill="#f58000"/>
<path transform="matrix(.1,0,0,-.1,0,233.54)" stroke-width="3.98" stroke-linecap="butt" stroke-miterlimit="10" stroke-linejoin="miter" fill="none" stroke="#f58000" d="M 2663.62 1971.86 L 2692.01 1971.86 "/>
<use xlink:href="#font_0_f" transform="matrix(9.4645,0,0,-9.4645,269.37135,36.552995)" fill="#f58000"/>
<use xlink:href="#font_0_9" transform="matrix(9.4645,0,0,-9.4645,271.94578,36.770677)" fill="#f58000"/>
<use xlink:href="#font_0_6" transform="matrix(9.4645,0,0,-9.4645,277.42573,36.770677)" fill="#f58000"/>
<use xlink:href="#font_0_13" transform="matrix(9.4645,0,0,-9.4645,282.71638,36.552995)" fill="#f58000"/>
<use xlink:href="#font_0_5" transform="matrix(9.4645,0,0,-9.4645,284.3064,36.770677)" fill="#f58000"/>
<path transform="matrix(.1,0,0,-.1,0,233.54)" stroke-width="3.98" stroke-linecap="butt" stroke-miterlimit="10" stroke-linejoin="miter" fill="none" stroke="#f58000" d="M 2873.73 1971.86 L 2902.12 1971.86 "/>
<use xlink:href="#font_0_5" transform="matrix(9.4645,0,0,-9.4645,290.3445,36.770677)" fill="#f58000"/>
<use xlink:href="#font_0_2" transform="matrix(9.4645,0,0,-9.4645,293.18388,36.770677)" fill="#f58000"/>
<use xlink:href="#font_0_3" transform="matrix(9.4645,0,0,-9.4645,298.6165,38.616258)" fill="#f58000"/>
<path transform="matrix(.1,0,0,-.1,0,233.54)" d="M 2102.32 1626.15 C 2102.32 1641.81 2089.63 1654.5 2073.98 1654.5 C 2058.32 1654.5 2045.63 1641.81 2045.63 1626.15 C 2045.63 1610.5 2058.32 1597.8 2073.98 1597.8 C 2089.63 1597.8 2102.32 1610.5 2102.32 1626.15 Z M 2073.98 1626.15 " fill="#f58000"/>
<use xlink:href="#font_0_7" transform="matrix(9.4645,0,0,-9.4645,157.62966,73.33299)" fill="#f58000"/>
<path transform="matrix(.1,0,0,-.1,0,233.54)" stroke-width="3.98" stroke-linecap="butt" stroke-miterlimit="10" stroke-linejoin="miter" fill="none" stroke="#f58000" d="M 1628.35 1604.07 L 1656.74 1604.07 "/>
<use xlink:href="#font_0_4" transform="matrix(9.4645,0,0,-9.4645,165.9968,73.550678)" fill="#f58000"/>
<use xlink:href="#font_0_3" transform="matrix(9.4645,0,0,-9.4645,170.91834,75.396259)" fill="#f58000"/>
<use xlink:href="#font_0_13" transform="matrix(9.4645,0,0,-9.4645,176.31311,73.33299)" fill="#f58000"/>
<use xlink:href="#font_0_9" transform="matrix(9.4645,0,0,-9.4645,178.16815,73.550678)" fill="#f58000"/>
<use xlink:href="#font_0_c" transform="matrix(9.4645,0,0,-9.4645,182.93813,75.396259)" fill="#f58000"/>
<path transform="matrix(.1,0,0,-.1,0,233.54)" stroke-width="3.98" stroke-linecap="butt" stroke-miterlimit="10" stroke-linejoin="miter" fill="none" stroke="#f58000" d="M 1880.48 1604.07 L 1908.87 1604.07 "/>
<use xlink:href="#font_0_b" transform="matrix(9.4645,0,0,-9.4645,191.39908,73.550678)" fill="#f58000"/>
<use xlink:href="#font_0_2" transform="matrix(9.4645,0,0,-9.4645,196.491,73.550678)" fill="#f58000"/>
<use xlink:href="#font_0_5" transform="matrix(9.4645,0,0,-9.4645,201.54505,73.550678)" fill="#f58000"/>
<path transform="matrix(.1,0,0,-.1,0,233.54)" d="M 2392.79 1916.6 C 2392.79 1932.25 2380.09 1944.95 2364.44 1944.95 C 2348.78 1944.95 2336.09 1932.25 2336.09 1916.6 C 2336.09 1900.95 2348.78 1888.25 2364.44 1888.25 C 2380.09 1888.25 2392.79 1900.95 2392.79 1916.6 Z M 2364.44 1916.6 " fill="#f58000"/>
<use xlink:href="#font_0_7" transform="matrix(9.4645,0,0,-9.4645,186.67765,36.50099)" fill="#f58000"/>
<path transform="matrix(.1,0,0,-.1,0,233.54)" stroke-width="3.98" stroke-linecap="butt" stroke-miterlimit="10" stroke-linejoin="miter" fill="none" stroke="#f58000" d="M 1918.83 1972.38 L 1947.22 1972.38 "/>
<use xlink:href="#font_0_4" transform="matrix(9.4645,0,0,-9.4645,195.0438,36.718675)" fill="#f58000"/>
<use xlink:href="#font_0_3" transform="matrix(9.4645,0,0,-9.4645,199.96533,38.564256)" fill="#f58000"/>
<use xlink:href="#font_0_13" transform="matrix(9.4645,0,0,-9.4645,205.3601,36.50099)" fill="#f58000"/>
<use xlink:href="#font_0_9" transform="matrix(9.4645,0,0,-9.4645,207.21515,36.718675)" fill="#f58000"/>
<use xlink:href="#font_0_c" transform="matrix(9.4645,0,0,-9.4645,211.98514,38.564256)" fill="#f58000"/>
<path transform="matrix(.1,0,0,-.1,0,233.54)" stroke-width="3.98" stroke-linecap="butt" stroke-miterlimit="10" stroke-linejoin="miter" fill="none" stroke="#f58000" d="M 2170.96 1972.38 L 2199.35 1972.38 "/>
<use xlink:href="#font_0_5" transform="matrix(9.4645,0,0,-9.4645,220.0675,36.718675)" fill="#f58000"/>
<use xlink:href="#font_0_2" transform="matrix(9.4645,0,0,-9.4645,222.90686,36.718675)" fill="#f58000"/>
<use xlink:href="#font_0_3" transform="matrix(9.4645,0,0,-9.4645,228.33948,38.564256)" fill="#f58000"/>
<symbol id="font_0_d">
<path d="M .44000004 .37100003 C .43600003 .42200003 .42500005 .455 .40500004 .48400004 C .36900003 .53300008 .30600003 .56200006 .233 .56200006 C .092 .56200006 0 .45000003 0 .27600003 C 0 .10700001 .09 0 .23200001 0 C .35700003 0 .43600003 .075 .44600005 .20300001 L .36200003 .20300001 C .34800003 .119 .30500005 .07700001 .23400001 .07700001 C .142 .07700001 .087000008 .15200001 .087000008 .27600003 C .087000008 .407 .141 .485 .23200001 .485 C .30200003 .485 .34600003 .44400005 .35600005 .37100003 L .44000004 .37100003 Z "/>
</symbol>
<use xlink:href="#font_0_d" transform="matrix(9.4645,0,0,-9.4645,206.83339,192.33467)" fill="#1f6e96"/>
<path transform="matrix(.1,0,0,-.1,0,233.54)" stroke-width="3.98" stroke-linecap="butt" stroke-miterlimit="10" stroke-linejoin="miter" fill="none" stroke="#1f6e96" d="M 2118.4 416.219 L 2146.79 416.219 "/>
<use xlink:href="#font_0_c" transform="matrix(9.4645,0,0,-9.4645,214.86928,194.18025)" fill="#1f6e96"/>
<use xlink:href="#font_0_1" transform="matrix(9.4645,0,0,-9.4645,220.07477,192.11699)" fill="#1f6e96"/>
<use xlink:href="#font_0_e" transform="matrix(9.4645,0,0,-9.4645,225.0531,192.33467)" fill="#1f6e96"/>
<use xlink:href="#font_0_10" transform="matrix(9.4645,0,0,-9.4645,230.21126,194.18025)" fill="#1f6e96"/>
<use xlink:href="#font_0_d" transform="matrix(0,-9.4645,-9.4645,-0,371.33268,126.5346)" fill="#1f6e96"/>
<path transform="matrix(.1,0,0,-.1,0,233.54)" stroke-width="3.98" stroke-linecap="butt" stroke-miterlimit="10" stroke-linejoin="miter" fill="none" stroke="#1f6e96" d="M 3709.15 1120.12 L 3709.15 1148.51 "/>
<use xlink:href="#font_0_a" transform="matrix(0,-9.4645,-9.4645,-0,371.115,118.5281)" fill="#1f6e96"/>
<use xlink:href="#font_0_3" transform="matrix(0,-9.4645,-9.4645,-0,373.17826,113.445659)" fill="#1f6e96"/>
<use xlink:href="#font_0_2" transform="matrix(0,-9.4645,-9.4645,-0,371.33268,108.35376)" fill="#1f6e96"/>
<use xlink:href="#font_0_4" transform="matrix(0,-9.4645,-9.4645,-0,371.33268,103.11043)" fill="#1f6e96"/>
<use xlink:href="#font_0_d" transform="matrix(9.4645,0,0,-9.4645,316.1974,36.718675)" fill="#1f6e96"/>
<path transform="matrix(.1,0,0,-.1,0,233.54)" stroke-width="3.98" stroke-linecap="butt" stroke-miterlimit="10" stroke-linejoin="miter" fill="none" stroke="#1f6e96" d="M 3212.04 1972.38 L 3240.43 1972.38 "/>
<use xlink:href="#font_0_c" transform="matrix(9.4645,0,0,-9.4645,324.2333,38.564256)" fill="#1f6e96"/>
<use xlink:href="#font_0_3" transform="matrix(9.4645,0,0,-9.4645,329.28733,38.564256)" fill="#1f6e96"/>
<use xlink:href="#font_0_2" transform="matrix(9.4645,0,0,-9.4645,334.37925,36.718675)" fill="#1f6e96"/>
<use xlink:href="#font_0_4" transform="matrix(9.4645,0,0,-9.4645,339.6226,36.718675)" fill="#1f6e96"/>
<path transform="matrix(.1,0,0,-.1,0,233.54)" stroke-width="3.98" stroke-linecap="butt" stroke-miterlimit="10" stroke-linejoin="miter" fill="none" stroke="#1f6e96" d="M 3446 1972.38 L 3474.39 1972.38 "/>
<symbol id="font_0_8">
<path d="M .54800006 0 L .702 .52400007 L .60800006 .52400007 L .50400009 .116000007 L .401 .52400007 L .299 .52400007 L .19900002 .116000007 L .09200001 .52400007 L 0 .52400007 L .15200001 0 L .246 0 L .347 .411 L .453 0 L .54800006 0 Z "/>
</symbol>
<use xlink:href="#font_0_f" transform="matrix(9.4645,0,0,-9.4645,347.61036,36.50099)" fill="#1f6e96"/>
<use xlink:href="#font_0_8" transform="matrix(9.4645,0,0,-9.4645,350.12794,36.50099)" fill="#1f6e96"/>
<use xlink:href="#font_0_d" transform="matrix(9.4645,0,0,-9.4645,228.1854,28.21477)" fill="#1f6e96"/>
<path transform="matrix(.1,0,0,-.1,0,233.54)" stroke-width="3.98" stroke-linecap="butt" stroke-miterlimit="10" stroke-linejoin="miter" fill="none" stroke="#1f6e96" d="M 2331.92 2057.42 L 2360.31 2057.42 "/>
<use xlink:href="#font_0_c" transform="matrix(9.4645,0,0,-9.4645,236.22029,30.060256)" fill="#1f6e96"/>
<use xlink:href="#font_0_3" transform="matrix(9.4645,0,0,-9.4645,241.27434,30.060256)" fill="#1f6e96"/>
<use xlink:href="#font_0_2" transform="matrix(9.4645,0,0,-9.4645,246.36626,28.214678)" fill="#1f6e96"/>
<use xlink:href="#font_0_4" transform="matrix(9.4645,0,0,-9.4645,251.60959,28.214678)" fill="#1f6e96"/>
<path transform="matrix(.1,0,0,-.1,0,233.54)" stroke-width="3.98" stroke-linecap="butt" stroke-miterlimit="10" stroke-linejoin="miter" fill="none" stroke="#1f6e96" d="M 2565.88 2057.42 L 2594.27 2057.42 "/>
<use xlink:href="#font_0_8" transform="matrix(9.4645,0,0,-9.4645,259.4838,27.996994)" fill="#1f6e96"/>
<use xlink:href="#font_0_d" transform="matrix(9.4645,0,0,-9.4645,120.5264,36.718584)" fill="#1f6e96"/>
<path transform="matrix(.1,0,0,-.1,0,233.54)" stroke-width="3.98" stroke-linecap="butt" stroke-miterlimit="10" stroke-linejoin="miter" fill="none" stroke="#1f6e96" d="M 1255.33 1972.38 L 1283.72 1972.38 "/>
<use xlink:href="#font_0_c" transform="matrix(9.4645,0,0,-9.4645,128.56229,38.564256)" fill="#1f6e96"/>
<use xlink:href="#font_0_3" transform="matrix(9.4645,0,0,-9.4645,133.61634,38.564256)" fill="#1f6e96"/>
<use xlink:href="#font_0_2" transform="matrix(9.4645,0,0,-9.4645,138.70825,36.718675)" fill="#1f6e96"/>
<use xlink:href="#font_0_4" transform="matrix(9.4645,0,0,-9.4645,143.95159,36.718675)" fill="#1f6e96"/>
<path transform="matrix(.1,0,0,-.1,0,233.54)" stroke-width="3.98" stroke-linecap="butt" stroke-miterlimit="10" stroke-linejoin="miter" fill="none" stroke="#1f6e96" d="M 1489.29 1972.38 L 1517.68 1972.38 "/>
<symbol id="font_0_11">
<path d="M 0 .72900006 L 0 0 L .08300001 0 L .08300001 .289 C .08300001 .39600004 .139 .46600003 .22500003 .46600003 C .25200004 .46600003 .279 .45700003 .29900003 .44200004 C .323 .425 .33300004 .4 .33300004 .363 L .33300004 0 L .41600005 0 L .41600005 .39600004 C .41600005 .48400004 .35300002 .53900006 .25100003 .53900006 C .17700002 .53900006 .132 .51600006 .08300001 .45200003 L .08300001 .72900006 L 0 .72900006 Z "/>
</symbol>
<use xlink:href="#font_0_11" transform="matrix(9.4645,0,0,-9.4645,152.43152,36.50099)" fill="#1f6e96"/>
<use xlink:href="#font_0_8" transform="matrix(9.4645,0,0,-9.4645,157.08806,36.50099)" fill="#1f6e96"/>
<use xlink:href="#font_0_d" transform="matrix(0,9.4645,9.4645,0,68.71042,71.64639)" fill="#1f6e96"/>
<path transform="matrix(.1,0,0,-.1,0,233.54)" stroke-width="3.98" stroke-linecap="butt" stroke-miterlimit="10" stroke-linejoin="miter" fill="none" stroke="#1f6e96" d="M 691.27 1568.87 L 691.27 1540.48 "/>
<use xlink:href="#font_0_a" transform="matrix(0,9.4645,9.4645,0,68.9281,79.65389)" fill="#1f6e96"/>
<use xlink:href="#font_0_1" transform="matrix(0,9.4645,9.4645,0,68.9281,84.887767)" fill="#1f6e96"/>
<use xlink:href="#font_0_e" transform="matrix(0,9.4645,9.4645,0,68.71042,89.8661)" fill="#1f6e96"/>
<use xlink:href="#font_0_10" transform="matrix(0,9.4645,9.4645,0,66.86484,95.024257)" fill="#1f6e96"/>
<path transform="matrix(.1,0,0,-.1,0,233.54)" stroke-width="3.98" stroke-linecap="butt" stroke-miterlimit="10" stroke-linejoin="miter" fill="none" stroke="#1f6e96" d="M 691.27 1329.61 L 691.27 1301.22 "/>
<use xlink:href="#font_0_11" transform="matrix(0,9.4645,9.4645,0,68.9281,104.081508)" fill="#1f6e96"/>
<use xlink:href="#font_0_8" transform="matrix(0,9.4645,9.4645,0,68.9281,108.73804)" fill="#1f6e96"/>
<use xlink:href="#font_0_d" transform="matrix(0,9.4645,9.4645,0,68.63425,143.84128)" fill="#1f6e96"/>
<path transform="matrix(.1,0,0,-.1,0,233.54)" stroke-width="3.98" stroke-linecap="butt" stroke-miterlimit="10" stroke-linejoin="miter" fill="none" stroke="#1f6e96" d="M 690.512 846.922 L 690.512 818.531 "/>
<use xlink:href="#font_0_a" transform="matrix(0,9.4645,9.4645,0,68.852,151.84889)" fill="#1f6e96"/>
<use xlink:href="#font_0_1" transform="matrix(0,9.4645,9.4645,0,68.852,157.08277)" fill="#1f6e96"/>
<use xlink:href="#font_0_e" transform="matrix(0,9.4645,9.4645,0,68.634319,162.06108)" fill="#1f6e96"/>
<use xlink:href="#font_0_10" transform="matrix(0,9.4645,9.4645,0,66.788738,167.21924)" fill="#1f6e96"/>
<path transform="matrix(.1,0,0,-.1,0,233.54)" stroke-width="3.98" stroke-linecap="butt" stroke-miterlimit="10" stroke-linejoin="miter" fill="none" stroke="#1f6e96" d="M 690.512 607.66 L 690.512 579.27 "/>
<use xlink:href="#font_0_f" transform="matrix(0,9.4645,9.4645,0,68.852,175.78417)" fill="#1f6e96"/>
<use xlink:href="#font_0_8" transform="matrix(0,9.4645,9.4645,0,68.852,178.30171)" fill="#1f6e96"/>
<use xlink:href="#font_0_d" transform="matrix(8.196547,-4.7322509,-4.7322509,-8.196547,119.11394,134.00371)" fill="#1f6e96"/>
<path transform="matrix(.1,0,0,-.1,0,233.54)" stroke-width="3.98002" stroke-linecap="butt" stroke-miterlimit="10" stroke-linejoin="miter" fill="none" stroke="#1f6e96" d="M 1232.41 1024 L 1257 1038.2 "/>
<use xlink:href="#font_0_f" transform="matrix(8.196547,-4.7322509,-4.7322509,-8.196547,125.94754,129.80683)" fill="#1f6e96"/>
<use xlink:href="#font_0_9" transform="matrix(8.196547,-4.7322509,-4.7322509,-8.196547,128.28583,128.70816)" fill="#1f6e96"/>
<use xlink:href="#font_0_6" transform="matrix(8.196547,-4.7322509,-4.7322509,-8.196547,133.03163,125.96819)" fill="#1f6e96"/>
<use xlink:href="#font_0_13" transform="matrix(8.196547,-4.7322509,-4.7322509,-8.196547,137.50466,123.13434)" fill="#1f6e96"/>
<use xlink:href="#font_0_5" transform="matrix(8.196547,-4.7322509,-4.7322509,-8.196547,138.99053,122.52784)" fill="#1f6e96"/>
<path transform="matrix(.1,0,0,-.1,0,233.54)" stroke-width="3.98002" stroke-linecap="butt" stroke-miterlimit="10" stroke-linejoin="miter" fill="none" stroke="#1f6e96" d="M 1414.38 1129.06 L 1438.96 1143.25 "/>
<use xlink:href="#font_0_e" transform="matrix(8.196547,-4.7322509,-4.7322509,-8.196547,144.43271,119.38622)" fill="#1f6e96"/>
<use xlink:href="#font_0_a" transform="matrix(8.196547,-4.7322509,-4.7322509,-8.196547,148.44666,116.81742)" fill="#1f6e96"/>
<use xlink:href="#font_0_5" transform="matrix(8.196547,-4.7322509,-4.7322509,-8.196547,152.62917,114.654018)" fill="#1f6e96"/>
<use xlink:href="#font_0_d" transform="matrix(8.196547,-4.7322509,-4.7322509,-8.196547,187.68688,94.41356)" fill="#1f6e96"/>
<path transform="matrix(.1,0,0,-.1,0,233.54)" stroke-width="3.98002" stroke-linecap="butt" stroke-miterlimit="10" stroke-linejoin="miter" fill="none" stroke="#1f6e96" d="M 1918.14 1419.91 L 1942.73 1434.11 "/>
<use xlink:href="#font_0_f" transform="matrix(8.196547,-4.7322509,-4.7322509,-8.196547,194.52054,90.216808)" fill="#1f6e96"/>
<use xlink:href="#font_0_9" transform="matrix(8.196547,-4.7322509,-4.7322509,-8.196547,196.85883,89.11817)" fill="#1f6e96"/>
<use xlink:href="#font_0_6" transform="matrix(8.196547,-4.7322509,-4.7322509,-8.196547,201.60463,86.3782)" fill="#1f6e96"/>
<use xlink:href="#font_0_13" transform="matrix(8.196547,-4.7322509,-4.7322509,-8.196547,206.07765,83.54434)" fill="#1f6e96"/>
<use xlink:href="#font_0_5" transform="matrix(8.196547,-4.7322509,-4.7322509,-8.196547,207.56352,82.93785)" fill="#1f6e96"/>
<path transform="matrix(.1,0,0,-.1,0,233.54)" stroke-width="3.98002" stroke-linecap="butt" stroke-miterlimit="10" stroke-linejoin="miter" fill="none" stroke="#1f6e96" d="M 2100.1 1524.97 L 2124.69 1539.16 "/>
<use xlink:href="#font_0_13" transform="matrix(8.196547,-4.7322509,-4.7322509,-8.196547,213.12636,79.475208)" fill="#1f6e96"/>
<use xlink:href="#font_0_d" transform="matrix(8.196547,-4.7322509,-4.7322509,-8.196547,223.14836,73.93959)" fill="#1f6e96"/>
<path transform="matrix(.1,0,0,-.1,0,233.54)" stroke-width="3.98002" stroke-linecap="butt" stroke-miterlimit="10" stroke-linejoin="miter" fill="none" stroke="#1f6e96" d="M 2272.75 1624.64 L 2297.34 1638.84 "/>
<use xlink:href="#font_0_f" transform="matrix(8.196547,-4.7322509,-4.7322509,-8.196547,229.98154,69.742809)" fill="#1f6e96"/>
<use xlink:href="#font_0_9" transform="matrix(8.196547,-4.7322509,-4.7322509,-8.196547,232.31983,68.64417)" fill="#1f6e96"/>
<use xlink:href="#font_0_6" transform="matrix(8.196547,-4.7322509,-4.7322509,-8.196547,237.06563,65.9042)" fill="#1f6e96"/>
<use xlink:href="#font_0_13" transform="matrix(8.196547,-4.7322509,-4.7322509,-8.196547,241.53865,63.070344)" fill="#1f6e96"/>
<use xlink:href="#font_0_5" transform="matrix(8.196547,-4.7322509,-4.7322509,-8.196547,243.02452,62.463853)" fill="#1f6e96"/>
<path transform="matrix(.1,0,0,-.1,0,233.54)" stroke-width="3.98002" stroke-linecap="butt" stroke-miterlimit="10" stroke-linejoin="miter" fill="none" stroke="#1f6e96" d="M 2454.71 1729.7 L 2479.3 1743.89 "/>
<use xlink:href="#font_0_6" transform="matrix(8.196547,-4.7322509,-4.7322509,-8.196547,248.67162,59.203924)" fill="#1f6e96"/>
<use xlink:href="#font_0_d" transform="matrix(6.6923506,-6.6923506,-6.6923506,-6.6923506,207.89139,63.133459)" fill="#1f6e96"/>
<path transform="matrix(.1,0,0,-.1,0,233.54)" stroke-width="3.97996" stroke-linecap="butt" stroke-miterlimit="10" stroke-linejoin="miter" fill="none" stroke="#1f6e96" d="M 2111.37 1742.41 L 2131.45 1762.49 "/>
<use xlink:href="#font_0_4" transform="matrix(6.6923506,-6.6923506,-6.6923506,-6.6923506,213.66648,57.358377)" fill="#1f6e96"/>
<use xlink:href="#font_0_3" transform="matrix(6.6923506,-6.6923506,-6.6923506,-6.6923506,218.45149,55.18336)" fill="#1f6e96"/>
<use xlink:href="#font_0_13" transform="matrix(6.6923506,-6.6923506,-6.6923506,-6.6923506,220.8072,49.90979)" fill="#1f6e96"/>
<use xlink:href="#font_0_9" transform="matrix(6.6923506,-6.6923506,-6.6923506,-6.6923506,222.27283,48.75201)" fill="#1f6e96"/>
<use xlink:href="#font_0_c" transform="matrix(6.6923506,-6.6923506,-6.6923506,-6.6923506,226.95084,46.684019)" fill="#1f6e96"/>
<path transform="matrix(.1,0,0,-.1,0,233.54)" stroke-width="9.9628" stroke-linecap="butt" stroke-miterlimit="10" stroke-linejoin="miter" fill="none" stroke="#808080" d="M 791.266 215.586 L 3825.11 215.586 "/>
<path transform="matrix(.1,0,0,-.1,0,233.54)" d="M 3886.83 215.586 C 3879.25 217.273 3845.94 226.855 3825.11 237.277 L 3825.11 193.891 C 3845.94 204.313 3879.25 213.895 3886.83 215.586 " fill="#808080"/>
<path transform="matrix(.1,0,0,-.1,0,233.54)" stroke-width="9.9628" stroke-linecap="butt" stroke-miterlimit="10" stroke-linejoin="miter" fill="none" stroke="#808080" d="M 3886.83 215.586 C 3879.25 217.273 3845.94 226.855 3825.11 237.277 L 3825.11 193.891 C 3845.94 204.313 3879.25 213.895 3886.83 215.586 Z "/>
<symbol id="font_1_1">
<path d="M .33900003 .272 L .51500007 .54 L .347 .54 L .26000003 .377 L .172 .54 L .0040000008 .54 L .18 .272 L 0 0 L .16800002 0 L .26000003 .16800002 L .351 0 L .51900008 0 L .33900003 .272 Z "/>
</symbol>
<use xlink:href="#font_1_1" transform="matrix(9.4645,0,0,-9.4645,394.48243,214.497)" fill="#808080"/>
<path transform="matrix(.1,0,0,-.1,0,233.54)" stroke-width="9.9628" stroke-linecap="butt" stroke-miterlimit="10" stroke-linejoin="miter" fill="none" stroke="#808080" d="M 791.266 215.586 L 791.266 144.73 "/>
<symbol id="font_2_1">
<path d="M .57600006 0 C .59300008 0 .611 0 .611 .019999996 C .611 .040000008 .59300008 .040000008 .57600006 .040000008 L .035000005 .040000008 C .018 .040000008 0 .040000008 0 .019999996 C 0 0 .018 0 .035000005 0 L .57600006 0 Z "/>
</symbol>
<use xlink:href="#font_2_1" transform="matrix(9.9626,0,0,-9.9626,61.512098,227.26345)" fill="#808080"/>
<symbol id="font_3_2">
<path d="M .205 .64000007 C .205 .66400006 .205 .666 .18200003 .666 C .120000008 .60200008 .032000007 .60200008 0 .60200008 L 0 .57100006 C .020000004 .57100006 .07900001 .57100006 .13100001 .597 L .13100001 .079 C .13100001 .043 .128 .031000002 .038000004 .031000002 L .0060000049 .031000002 L .0060000049 0 C .04100001 .003 .128 .003 .168 .003 C .20800002 .003 .29500003 .003 .33000005 0 L .33000005 .031000002 L .29800005 .031000002 C .20800002 .031000002 .205 .042000005 .205 .079 L .205 .64000007 Z "/>
</symbol>
<symbol id="font_3_1">
<path d="M .421 .34200005 C .421 .42200003 .416 .50200006 .381 .57600006 C .335 .67200008 .25300003 .688 .211 .688 C .15100001 .688 .07800001 .66200008 .037000006 .56900009 C .0050000029 .5 0 .42200003 0 .34200005 C 0 .26700003 .0040000008 .177 .045000007 .101 C .088 .020000002 .161 0 .21000001 0 C .264 0 .34 .021000002 .384 .116000007 C .416 .185 .421 .263 .421 .34200005 M .21000001 .022000002 C .171 .022000002 .112 .047000003 .094 .143 C .083000008 .20300001 .083000008 .29500003 .083000008 .35400004 C .083000008 .41800005 .083000008 .48400004 .091000009 .53800007 C .11 .65700009 .185 .66600009 .21000001 .66600009 C .243 .66600009 .30900003 .64800009 .328 .549 C .338 .49300004 .338 .41700004 .338 .35400004 C .338 .279 .338 .21100001 .32700003 .147 C .312 .052 .255 .022000002 .21000001 .022000002 Z "/>
</symbol>
<use xlink:href="#font_3_2" transform="matrix(9.9626,0,0,-9.9626,69.3207,229.55484)" fill="#808080"/>
<use xlink:href="#font_3_1" transform="matrix(9.9626,0,0,-9.9626,73.80387,229.77402)" fill="#808080"/>
<use xlink:href="#font_3_1" transform="matrix(9.9626,0,0,-9.9626,78.78517,229.77402)" fill="#808080"/>
<symbol id="font_0_12">
<path d="M .083000008 .72900006 L 0 .72900006 L 0 0 L .083000008 0 L .083000008 .20400001 L .16400002 .284 L .34100003 0 L .44400005 0 L .23000002 .34300003 L .41200004 .52400007 L .305 .52400007 L .083000008 .30200003 L .083000008 .72900006 Z "/>
</symbol>
<symbol id="font_0_14">
<path d="M 0 .52400007 L 0 0 L .084000017 0 L .084000017 .32900004 C .084000017 .40500004 .139 .46600003 .20700002 .46600003 C .26900003 .46600003 .30400003 .42800004 .30400003 .36100004 L .30400003 0 L .38800005 0 L .38800005 .32900004 C .38800005 .40500004 .44300003 .46600003 .51100006 .46600003 C .572 .46600003 .60800006 .42700003 .60800006 .36100004 L .60800006 0 L .69200006 0 L .69200006 .393 C .69200006 .48700003 .638 .53900006 .54 .53900006 C .47000004 .53900006 .42800004 .518 .37900005 .45900003 C .34800003 .51500007 .30600003 .53900006 .23800004 .53900006 C .16800002 .53900006 .122 .513 .077 .45000003 L .077 .52400007 L 0 .52400007 Z "/>
</symbol>
<use xlink:href="#font_0_12" transform="matrix(9.4645,0,0,-9.4645,85.504878,229.55484)" fill="#808080"/>
<use xlink:href="#font_0_14" transform="matrix(9.4645,0,0,-9.4645,90.3507,229.55484)" fill="#808080"/>
<path transform="matrix(.1,0,0,-.1,0,233.54)" stroke-width="9.9628" stroke-linecap="butt" stroke-miterlimit="10" stroke-linejoin="miter" fill="none" stroke="#808080" d="M 3626.12 215.586 L 3626.12 144.73 "/>
<use xlink:href="#font_3_2" transform="matrix(9.9626,0,0,-9.9626,348.92765,229.55484)" fill="#808080"/>
<use xlink:href="#font_3_1" transform="matrix(9.9626,0,0,-9.9626,353.41084,229.77402)" fill="#808080"/>
<use xlink:href="#font_3_1" transform="matrix(9.9626,0,0,-9.9626,358.39213,229.77402)" fill="#808080"/>
<use xlink:href="#font_0_12" transform="matrix(9.4645,0,0,-9.4645,365.11186,229.55484)" fill="#808080"/>
<use xlink:href="#font_0_14" transform="matrix(9.4645,0,0,-9.4645,369.95765,229.55484)" fill="#808080"/>
<path transform="matrix(.1,0,0,-.1,0,233.54)" stroke-width="9.9628" stroke-linecap="butt" stroke-miterlimit="10" stroke-linejoin="miter" fill="none" stroke="#808080" d="M 507.766 499.086 L 507.766 2115.42 "/>
<path transform="matrix(.1,0,0,-.1,0,233.54)" d="M 507.766 2177.14 C 506.074 2169.56 496.496 2136.24 486.07 2115.42 L 529.457 2115.42 C 519.035 2136.24 509.453 2169.56 507.766 2177.14 " fill="#808080"/>
<path transform="matrix(.1,0,0,-.1,0,233.54)" stroke-width="9.9628" stroke-linecap="butt" stroke-miterlimit="10" stroke-linejoin="miter" fill="none" stroke="#808080" d="M 507.766 2177.14 C 506.074 2169.56 496.496 2136.24 486.07 2115.42 L 529.457 2115.42 C 519.035 2136.24 509.453 2169.56 507.766 2177.14 Z "/>
<symbol id="font_1_2">
<path d="M .38500003 .75900009 L .273 .366 L .154 .75900009 L 0 .75900009 L .201 .19700001 L .201 .19600001 L .201 .19300002 C .201 .142 .163 .10300001 .114 .10300001 C .103 .10300001 .095 .10400001 .077 .109000008 L .077 .004000008 C .098000008 .001000002 .11 0 .127 0 C .162 0 .20400001 .0069999995 .22800002 .017000005 C .26700003 .033000009 .284 .05600001 .307 .120000008 L .52900007 .75900009 L .38500003 .75900009 Z "/>
</symbol>
<use xlink:href="#font_1_2" transform="matrix(9.4645,0,0,-9.4645,48.232084,10.256716)" fill="#808080"/>
<path transform="matrix(.1,0,0,-.1,0,233.54)" stroke-width="9.9628" stroke-linecap="butt" stroke-miterlimit="10" stroke-linejoin="miter" fill="none" stroke="#808080" d="M 507.766 499.086 L 436.91 499.086 "/>
<use xlink:href="#font_2_1" transform="matrix(9.9626,0,0,-9.9626,3.9808059,184.3416)" fill="#808080"/>
<use xlink:href="#font_3_2" transform="matrix(9.9626,0,0,-9.9626,11.789801,186.633)" fill="#808080"/>
<use xlink:href="#font_3_1" transform="matrix(9.9626,0,0,-9.9626,16.272973,186.85218)" fill="#808080"/>
<use xlink:href="#font_3_1" transform="matrix(9.9626,0,0,-9.9626,21.254273,186.85218)" fill="#808080"/>
<use xlink:href="#font_0_12" transform="matrix(9.4645,0,0,-9.4645,27.97397,186.633)" fill="#808080"/>
<use xlink:href="#font_0_14" transform="matrix(9.4645,0,0,-9.4645,32.819795,186.633)" fill="#808080"/>
<path transform="matrix(.1,0,0,-.1,0,233.54)" stroke-width="9.9628" stroke-linecap="butt" stroke-miterlimit="10" stroke-linejoin="miter" fill="none" stroke="#808080" d="M 507.766 1916.52 L 436.91 1916.52 "/>
<use xlink:href="#font_3_1" transform="matrix(9.9626,0,0,-9.9626,21.254542,45.527177)" fill="#808080"/>
<use xlink:href="#font_0_12" transform="matrix(9.4645,0,0,-9.4645,27.97392,45.308)" fill="#808080"/>
<use xlink:href="#font_0_14" transform="matrix(9.4645,0,0,-9.4645,32.819746,45.308)" fill="#808080"/>
</g>
</svg>
