<?xml version="1.0" encoding="UTF-8" standalone="no"?>
<!DOCTYPE svg PUBLIC "-//W3C//DTD SVG 1.1//EN" "http://www.w3.org/Graphics/SVG/1.1/DTD/svg11.dtd">
<svg xmlns="http://www.w3.org/2000/svg" xmlns:xlink="http://www.w3.org/1999/xlink" version="1.1" width="403.84pt" height="193.06pt" viewBox="0 0 403.84 193.06">
<g enable-background="new">
<path transform="matrix(.1,0,0,-.1,0,193.06)" d="M 601.695 503.125 L 3436.725 503.125 L 3436.725 1920.645 L 601.695 1920.645 Z " fill="#cceeff"/>
<path transform="matrix(.1,0,0,-.1,0,193.06)" stroke-width="9.9628" stroke-linecap="butt" stroke-miterlimit="10" stroke-linejoin="miter" fill="none" stroke="#1f6e96" d="M 601.695 503.125 L 3436.725 503.125 L 3436.725 1920.645 L 601.695 1920.645 Z "/>
<path transform="matrix(.1,0,0,-.1,0,193.06)" stroke-width="9.9628" stroke-linecap="butt" stroke-miterlimit="10" stroke-linejoin="miter" fill="none" stroke="#1f6e96" d="M 601.695 889.613 L 1650.93 1495.39 "/>
<path transform="matrix(.1,0,0,-.1,0,193.06)" stroke-width="19.9255" stroke-linecap="butt" stroke-miterlimit="10" stroke-linejoin="miter" fill="none" stroke="#6100ad" d="M 1650.93 1495.39 L 2387.5 1920.64 "/>
<path transform="matrix(.1,0,0,-.1,0,193.06)" stroke-width="9.9628" stroke-linecap="butt" stroke-miterlimit="10" stroke-linejoin="miter" fill="none" stroke="#1f6e96" d="M 1884.41 1630.19 L 2174.87 1920.64 "/>
<path transform="matrix(.1,0,0,-.1,0,193.06)" stroke-width="9.9628" stroke-linecap="butt" stroke-miterlimit="10" stroke-linejoin="miter" fill="none" stroke="#3b7d08" d="M 601.695 857.484 C 601.695 892.695 573.152 921.242 537.938 921.242 C 502.723 921.242 474.176 892.695 474.176 857.484 C 474.176 822.27 502.723 793.723 537.938 793.723 C 573.152 793.723 601.695 822.27 601.695 857.484 Z M 537.938 857.484 "/>
<clipPath id="cp0">
<path transform="matrix(.1,0,0,-.1,0,193.06)" d="M 387.102 744.094 L 472.14109 744.094 L 472.14109 970.871 L 387.102 970.871 Z "/>
</clipPath>
<g clip-path="url(#cp0)">
<symbol id="pac1">
<g clip-path="url(#cp2)">
<path transform="matrix(.1,0,0,-.1,-.00390625,193.0639)" stroke-width="3.985" stroke-linecap="butt" stroke-miterlimit="10" stroke-linejoin="miter" fill="none" stroke="#3b7d08" d="M 0 0 L 30.8828 30.8828 "/>
</g>
</symbol>
<pattern id="pa1" patternUnits="userSpaceOnUse" patternContentUnits="userSpaceOnUse" x="0" y="0" width="2.98883" height="2.98883">
<clipPath id="cp3">
<path d="M -.99628 -.99628 L 3.9851 -.99628 L 3.9851 3.9851 L -.99628 3.9851 Z"/>
</clipPath>
<g clip-path="url(#cp3)">
<g transform="matrix(1,0,0,-1,.00390625,193.0639)">
<use x="0" y="0" xlink:href="#pac1"/>
<use x="0" y="-2.98883" xlink:href="#pac1"/>
<use x="-2.98883" y="0" xlink:href="#pac1"/>
<use x="-2.98883" y="-2.98883" xlink:href="#pac1"/>
</g>
</g>
</pattern>
<clipPath id="cp2">
<path transform="matrix(.1,0,0,-.1,-.00390625,193.0639)" d="M -10 -10 L -10 40 L 40 40 L 40 -10 Z "/>
</clipPath>
<rect transform="matrix(1,0,0,-1,-.00390625,193.0639)" fill="url(#pa1)" x="38.714109" y="74.41331" width="8.503906" height="22.677697"/>
</g>
<path transform="matrix(.1,0,0,-.1,0,193.06)" stroke-width="9.9628" stroke-linecap="butt" stroke-miterlimit="10" stroke-linejoin="miter" fill="none" stroke="#3b7d08" d="M 601.695 1566.2 C 601.695 1601.41 573.152 1629.96 537.938 1629.96 C 502.723 1629.96 474.176 1601.41 474.176 1566.2 C 474.176 1530.98 502.723 1502.44 537.938 1502.44 C 573.152 1502.44 601.695 1530.98 601.695 1566.2 Z M 537.938 1566.2 "/>
<clipPath id="cp4">
<path transform="matrix(.1,0,0,-.1,0,193.06)" d="M 387.102 1452.81 L 472.14109 1452.81 L 472.14109 1679.587 L 387.102 1679.587 Z "/>
</clipPath>
<g clip-path="url(#cp4)">
<symbol id="pac5">
<g clip-path="url(#cp6)">
<path transform="matrix(.1,0,0,-.1,-.00390625,193.0639)" stroke-width="3.985" stroke-linecap="butt" stroke-miterlimit="10" stroke-linejoin="miter" fill="none" stroke="#3b7d08" d="M 0 0 L 30.8828 30.8828 "/>
</g>
</symbol>
<pattern id="pa5" patternUnits="userSpaceOnUse" patternContentUnits="userSpaceOnUse" x="0" y="0" width="2.98883" height="2.98883">
<clipPath id="cp7">
<path d="M -.99628 -.99628 L 3.9851 -.99628 L 3.9851 3.9851 L -.99628 3.9851 Z"/>
</clipPath>
<g clip-path="url(#cp7)">
<g transform="matrix(1,0,0,-1,.00390625,193.0639)">
<use x="0" y="0" xlink:href="#pac5"/>
<use x="0" y="-2.98883" xlink:href="#pac5"/>
<use x="-2.98883" y="0" xlink:href="#pac5"/>
<use x="-2.98883" y="-2.98883" xlink:href="#pac5"/>
</g>
</g>
</pattern>
<clipPath id="cp6">
<path transform="matrix(.1,0,0,-.1,-.00390625,193.0639)" d="M -10 -10 L -10 40 L 40 40 L 40 -10 Z "/>
</clipPath>
<rect transform="matrix(1,0,0,-1,-.00390625,193.0639)" fill="url(#pa5)" x="38.714109" y="145.28491" width="8.503906" height="22.677704"/>
</g>
<symbol id="font_8_1">
<path d="M .321 .067 C .33200003 .026 .367 0 .41 0 C .44500003 0 .468 .023000002 .484 .055000005 C .50100007 .091000009 .51400008 .15200001 .51400008 .15400002 C .51400008 .16400002 .50500008 .16400002 .50200006 .16400002 C .492 .16400002 .49100004 .16000001 .488 .14600002 C .474 .09 .455 .022000002 .41300003 .022000002 C .39200003 .022000002 .382 .035 .382 .068 C .382 .09 .394 .13700001 .402 .17200002 L .43 .28000004 C .433 .29500003 .44300003 .33300004 .447 .34800003 C .45200003 .37100003 .462 .40900005 .462 .41500003 C .462 .43300004 .448 .44200004 .433 .44200004 C .428 .44200004 .402 .441 .394 .40700004 C .375 .33400003 .331 .15900001 .319 .106000009 C .318 .102000009 .278 .022000002 .20500002 .022000002 C .15300001 .022000002 .143 .067 .143 .104 C .143 .16000001 .171 .23900002 .19700001 .30800004 C .209 .33800004 .21400002 .35200004 .21400002 .37100003 C .21400002 .41600005 .18200001 .45300005 .13200002 .45300005 C .037 .45300005 0 .30800004 0 .29900003 C 0 .28900004 .01 .28900004 .012 .28900004 C .022000002 .28900004 .023 .291 .028000003 .307 C .053000004 .39400003 .091000009 .43100003 .12900001 .43100003 C .13800001 .43100003 .15400002 .43000005 .15400002 .39800004 C .15400002 .374 .143 .34500004 .13700001 .33 C .10000001 .23100002 .079 .16900002 .079 .120000008 C .079 .025000003 .148 0 .202 0 C .268 0 .304 .045 .321 .067 Z "/>
</symbol>
<use xlink:href="#font_8_1" transform="matrix(9.9626,0,0,-9.9626,3.4439955,74.447589)" fill="#6100ad"/>
<symbol id="font_9_1">
<path d="M .201 .116000007 C .19100002 .082 .15800002 .028 .107 .028 C .10400001 .028 .07400001 .028 .053000004 .042000005 C .094000007 .055000005 .09700001 .091 .09700001 .097 C .09700001 .119 .080000009 .134 .057000005 .134 C .029000007 .134 0 .11 0 .073 C 0 .023000002 .056 0 .10500001 0 C .15100003 0 .192 .029000003 .21700001 .071 C .241 .018000002 .296 0 .336 0 C .451 0 .512 .125 .512 .15300001 C .512 .16600001 .49900005 .16600001 .49600003 .16600001 C .48200003 .16600001 .48100005 .16100002 .47700004 .14900002 C .456 .08 .39600004 .028 .34 .028 C .3 .028 .279 .055000005 .279 .093 C .279 .119 .303 .21000001 .331 .321 C .351 .398 .39600004 .423 .42900003 .423 C .43100003 .423 .46200005 .423 .483 .409 C .451 .4 .439 .372 .439 .354 C .439 .33200003 .456 .317 .479 .317 C .50200006 .317 .535 .336 .535 .37800003 C .535 .43400003 .47100006 .451 .43100003 .451 C .381 .451 .34100003 .418 .319 .38 C .301 .421 .255 .451 .199 .451 C .087000008 .451 .023000002 .328 .023000002 .298 C .023000002 .285 .037 .285 .040000008 .285 C .053000004 .285 .054000006 .289 .059000009 .30200003 C .084 .38 .14700002 .423 .19600001 .423 C .229 .423 .256 .405 .256 .357 C .256 .337 .24400002 .287 .23500002 .25300003 L .201 .116000007 Z "/>
</symbol>
<use xlink:href="#font_9_1" transform="matrix(6.9738,0,0,-6.9738,9.192553,75.90149)" fill="#6100ad"/>
<symbol id="font_a_4">
<path d="M .63100007 .19400002 C .646 .19400002 .665 .19400002 .665 .214 C .665 .23400001 .646 .23400001 .632 .23400001 L .033 .23400001 C .019000002 .23400001 0 .23400001 0 .214 C 0 .19400002 .019000002 .19400002 .034 .19400002 L .63100007 .19400002 M .632 0 C .646 0 .665 0 .665 .02000001 C .665 .040000008 .646 .040000008 .63100007 .040000008 L .034 .040000008 C .019000002 .040000008 0 .040000008 0 .02000001 C 0 0 .019000002 0 .033 0 L .632 0 Z "/>
</symbol>
<symbol id="font_a_2">
<path d="M .421 .34200005 C .421 .42200003 .416 .50200006 .381 .57600006 C .335 .67200008 .25300003 .688 .211 .688 C .15100001 .688 .07800001 .66200008 .037000006 .56900009 C .0050000029 .5 0 .42200003 0 .34200005 C 0 .26700003 .0040000008 .177 .045000007 .101 C .088 .020000002 .161 0 .21000001 0 C .264 0 .34 .021000002 .384 .116000007 C .416 .185 .421 .263 .421 .34200005 M .21000001 .022000002 C .171 .022000002 .112 .047000003 .094 .143 C .083000008 .20300001 .083000008 .29500003 .083000008 .35400004 C .083000008 .41800005 .083000008 .48400004 .091000009 .53800007 C .11 .65700009 .185 .66600009 .21000001 .66600009 C .243 .66600009 .30900003 .64800009 .328 .549 C .338 .49300004 .338 .41700004 .338 .35400004 C .338 .279 .338 .21100001 .32700003 .147 C .312 .052 .255 .022000002 .21000001 .022000002 Z "/>
</symbol>
<use xlink:href="#font_a_4" transform="matrix(9.9626,0,0,-9.9626,17.198916,73.01297)" fill="#6100ad"/>
<use xlink:href="#font_a_2" transform="matrix(9.9626,0,0,-9.9626,27.547917,74.557178)" fill="#6100ad"/>
<path transform="matrix(.1,0,0,-.1,0,193.06)" stroke-width="9.9628" stroke-linecap="butt" stroke-miterlimit="10" stroke-linejoin="miter" fill="none" stroke="#3b7d08" d="M 3564.24 857.484 C 3564.24 892.695 3535.7 921.242 3500.48 921.242 C 3465.27 921.242 3436.72 892.695 3436.72 857.484 C 3436.72 822.27 3465.27 793.723 3500.48 793.723 C 3535.7 793.723 3564.24 822.27 3564.24 857.484 Z M 3500.48 857.484 "/>
<clipPath id="cp11">
<path transform="matrix(.1,0,0,-.1,0,193.06)" d="M 3566.28 744.094 L 3651.319 744.094 L 3651.319 970.871 L 3566.28 970.871 Z "/>
</clipPath>
<g clip-path="url(#cp11)">
<symbol id="pac12">
<g clip-path="url(#cp13)">
<path transform="matrix(.1,0,0,-.1,-.00390625,193.0639)" stroke-width="3.985" stroke-linecap="butt" stroke-miterlimit="10" stroke-linejoin="miter" fill="none" stroke="#3b7d08" d="M 0 0 L 30.8828 30.8828 "/>
</g>
</symbol>
<pattern id="pa12" patternUnits="userSpaceOnUse" patternContentUnits="userSpaceOnUse" x="0" y="0" width="2.98883" height="2.98883">
<clipPath id="cp14">
<path d="M -.99628 -.99628 L 3.9851 -.99628 L 3.9851 3.9851 L -.99628 3.9851 Z"/>
</clipPath>
<g clip-path="url(#cp14)">
<g transform="matrix(1,0,0,-1,.00390625,193.0639)">
<use x="0" y="0" xlink:href="#pac12"/>
<use x="0" y="-2.98883" xlink:href="#pac12"/>
<use x="-2.98883" y="0" xlink:href="#pac12"/>
<use x="-2.98883" y="-2.98883" xlink:href="#pac12"/>
</g>
</g>
</pattern>
<clipPath id="cp13">
<path transform="matrix(.1,0,0,-.1,-.00390625,193.0639)" d="M -10 -10 L -10 40 L 40 40 L 40 -10 Z "/>
</clipPath>
<rect transform="matrix(1,0,0,-1,-.00390625,193.0639)" fill="url(#pa12)" x="356.63194" y="74.41331" width="8.503906" height="22.677697"/>
</g>
<path transform="matrix(.1,0,0,-.1,0,193.06)" stroke-width="9.9628" stroke-linecap="butt" stroke-miterlimit="10" stroke-linejoin="miter" fill="none" stroke="#3b7d08" d="M 3564.24 1566.2 C 3564.24 1601.41 3535.7 1629.96 3500.48 1629.96 C 3465.27 1629.96 3436.72 1601.41 3436.72 1566.2 C 3436.72 1530.98 3465.27 1502.44 3500.48 1502.44 C 3535.7 1502.44 3564.24 1530.98 3564.24 1566.2 Z M 3500.48 1566.2 "/>
<clipPath id="cp15">
<path transform="matrix(.1,0,0,-.1,0,193.06)" d="M 3566.28 1452.81 L 3651.319 1452.81 L 3651.319 1679.587 L 3566.28 1679.587 Z "/>
</clipPath>
<g clip-path="url(#cp15)">
<symbol id="pac16">
<g clip-path="url(#cp17)">
<path transform="matrix(.1,0,0,-.1,-.00390625,193.0639)" stroke-width="3.985" stroke-linecap="butt" stroke-miterlimit="10" stroke-linejoin="miter" fill="none" stroke="#3b7d08" d="M 0 0 L 30.8828 30.8828 "/>
</g>
</symbol>
<pattern id="pa16" patternUnits="userSpaceOnUse" patternContentUnits="userSpaceOnUse" x="0" y="0" width="2.98883" height="2.98883">
<clipPath id="cp18">
<path d="M -.99628 -.99628 L 3.9851 -.99628 L 3.9851 3.9851 L -.99628 3.9851 Z"/>
</clipPath>
<g clip-path="url(#cp18)">
<g transform="matrix(1,0,0,-1,.00390625,193.0639)">
<use x="0" y="0" xlink:href="#pac16"/>
<use x="0" y="-2.98883" xlink:href="#pac16"/>
<use x="-2.98883" y="0" xlink:href="#pac16"/>
<use x="-2.98883" y="-2.98883" xlink:href="#pac16"/>
</g>
</g>
</pattern>
<clipPath id="cp17">
<path transform="matrix(.1,0,0,-.1,-.00390625,193.0639)" d="M -10 -10 L -10 40 L 40 40 L 40 -10 Z "/>
</clipPath>
<rect transform="matrix(1,0,0,-1,-.00390625,193.0639)" fill="url(#pa16)" x="356.63194" y="145.28491" width="8.503906" height="22.677704"/>
</g>
<use xlink:href="#font_8_1" transform="matrix(9.9626,0,0,-9.9626,371.9919,74.447589)" fill="#6100ad"/>
<use xlink:href="#font_9_1" transform="matrix(6.9738,0,0,-6.9738,377.74049,75.90149)" fill="#6100ad"/>
<use xlink:href="#font_a_4" transform="matrix(9.9626,0,0,-9.9626,385.7476,73.01297)" fill="#6100ad"/>
<use xlink:href="#font_a_2" transform="matrix(9.9626,0,0,-9.9626,396.0966,74.557178)" fill="#6100ad"/>
<path transform="matrix(.1,0,0,-.1,0,193.06)" stroke-width="9.9628" stroke-linecap="butt" stroke-miterlimit="10" stroke-linejoin="miter" fill="none" stroke="#3b7d08" d="M 1019.81 439.367 C 1019.81 474.582 991.266 503.125 956.055 503.125 C 920.84 503.125 892.293 474.582 892.293 439.367 C 892.293 404.152 920.84 375.605 956.055 375.605 C 991.266 375.605 1019.81 404.152 1019.81 439.367 Z M 956.055 439.367 "/>
<clipPath id="cp19">
<path transform="matrix(.1,0,0,-.1,0,193.06)" d="M 842.664 288.531 L 1069.441 288.531 L 1069.441 373.5701 L 842.664 373.5701 Z "/>
</clipPath>
<g clip-path="url(#cp19)">
<symbol id="pac20">
<g clip-path="url(#cp21)">
<path transform="matrix(.1,0,0,-.1,-.00390625,193.0639)" stroke-width="3.985" stroke-linecap="butt" stroke-miterlimit="10" stroke-linejoin="miter" fill="none" stroke="#3b7d08" d="M 0 0 L 30.8828 30.8828 "/>
</g>
</symbol>
<pattern id="pa20" patternUnits="userSpaceOnUse" patternContentUnits="userSpaceOnUse" x="0" y="0" width="2.98883" height="2.98883">
<clipPath id="cp22">
<path d="M -.99628 -.99628 L 3.9851 -.99628 L 3.9851 3.9851 L -.99628 3.9851 Z"/>
</clipPath>
<g clip-path="url(#cp22)">
<g transform="matrix(1,0,0,-1,.00390625,193.0639)">
<use x="0" y="0" xlink:href="#pac20"/>
<use x="0" y="-2.98883" xlink:href="#pac20"/>
<use x="-2.98883" y="0" xlink:href="#pac20"/>
<use x="-2.98883" y="-2.98883" xlink:href="#pac20"/>
</g>
</g>
</pattern>
<clipPath id="cp21">
<path transform="matrix(.1,0,0,-.1,-.00390625,193.0639)" d="M -10 -10 L -10 40 L 40 40 L 40 -10 Z "/>
</clipPath>
<rect transform="matrix(1,0,0,-1,-.00390625,193.0639)" fill="url(#pa20)" x="84.27031" y="28.85701" width="22.677704" height="8.503906"/>
</g>
<path transform="matrix(.1,0,0,-.1,0,193.06)" stroke-width="9.9628" stroke-linecap="butt" stroke-miterlimit="10" stroke-linejoin="miter" fill="none" stroke="#3b7d08" d="M 1728.53 439.367 C 1728.53 474.582 1699.98 503.125 1664.77 503.125 C 1629.55 503.125 1601.01 474.582 1601.01 439.367 C 1601.01 404.152 1629.55 375.605 1664.77 375.605 C 1699.98 375.605 1728.53 404.152 1728.53 439.367 Z M 1664.77 439.367 "/>
<clipPath id="cp23">
<path transform="matrix(.1,0,0,-.1,0,193.06)" d="M 1551.38 288.531 L 1778.157 288.531 L 1778.157 373.5701 L 1551.38 373.5701 Z "/>
</clipPath>
<g clip-path="url(#cp23)">
<symbol id="pac24">
<g clip-path="url(#cp25)">
<path transform="matrix(.1,0,0,-.1,-.00390625,193.0639)" stroke-width="3.985" stroke-linecap="butt" stroke-miterlimit="10" stroke-linejoin="miter" fill="none" stroke="#3b7d08" d="M 0 0 L 30.8828 30.8828 "/>
</g>
</symbol>
<pattern id="pa24" patternUnits="userSpaceOnUse" patternContentUnits="userSpaceOnUse" x="0" y="0" width="2.98883" height="2.98883">
<clipPath id="cp26">
<path d="M -.99628 -.99628 L 3.9851 -.99628 L 3.9851 3.9851 L -.99628 3.9851 Z"/>
</clipPath>
<g clip-path="url(#cp26)">
<g transform="matrix(1,0,0,-1,.00390625,193.0639)">
<use x="0" y="0" xlink:href="#pac24"/>
<use x="0" y="-2.98883" xlink:href="#pac24"/>
<use x="-2.98883" y="0" xlink:href="#pac24"/>
<use x="-2.98883" y="-2.98883" xlink:href="#pac24"/>
</g>
</g>
</pattern>
<clipPath id="cp25">
<path transform="matrix(.1,0,0,-.1,-.00390625,193.0639)" d="M -10 -10 L -10 40 L 40 40 L 40 -10 Z "/>
</clipPath>
<rect transform="matrix(1,0,0,-1,-.00390625,193.0639)" fill="url(#pa24)" x="155.1419" y="28.85701" width="22.677704" height="8.503906"/>
</g>
<path transform="matrix(.1,0,0,-.1,0,193.06)" stroke-width="9.9628" stroke-linecap="butt" stroke-miterlimit="10" stroke-linejoin="miter" fill="none" stroke="#3b7d08" d="M 2437.24 439.367 C 2437.24 474.582 2408.7 503.125 2373.48 503.125 C 2338.27 503.125 2309.72 474.582 2309.72 439.367 C 2309.72 404.152 2338.27 375.605 2373.48 375.605 C 2408.7 375.605 2437.24 404.152 2437.24 439.367 Z M 2373.48 439.367 "/>
<clipPath id="cp27">
<path transform="matrix(.1,0,0,-.1,0,193.06)" d="M 2260.09 288.531 L 2486.863 288.531 L 2486.863 373.5701 L 2260.09 373.5701 Z "/>
</clipPath>
<g clip-path="url(#cp27)">
<symbol id="pac28">
<g clip-path="url(#cp29)">
<path transform="matrix(.1,0,0,-.1,-.00390625,193.0639)" stroke-width="3.985" stroke-linecap="butt" stroke-miterlimit="10" stroke-linejoin="miter" fill="none" stroke="#3b7d08" d="M 0 0 L 30.8828 30.8828 "/>
</g>
</symbol>
<pattern id="pa28" patternUnits="userSpaceOnUse" patternContentUnits="userSpaceOnUse" x="0" y="0" width="2.98883" height="2.98883">
<clipPath id="cp30">
<path d="M -.99628 -.99628 L 3.9851 -.99628 L 3.9851 3.9851 L -.99628 3.9851 Z"/>
</clipPath>
<g clip-path="url(#cp30)">
<g transform="matrix(1,0,0,-1,.00390625,193.0639)">
<use x="0" y="0" xlink:href="#pac28"/>
<use x="0" y="-2.98883" xlink:href="#pac28"/>
<use x="-2.98883" y="0" xlink:href="#pac28"/>
<use x="-2.98883" y="-2.98883" xlink:href="#pac28"/>
</g>
</g>
</pattern>
<clipPath id="cp29">
<path transform="matrix(.1,0,0,-.1,-.00390625,193.0639)" d="M -10 -10 L -10 40 L 40 40 L 40 -10 Z "/>
</clipPath>
<rect transform="matrix(1,0,0,-1,-.00390625,193.0639)" fill="url(#pa28)" x="226.01293" y="28.85701" width="22.677292" height="8.503906"/>
</g>
<path transform="matrix(.1,0,0,-.1,0,193.06)" stroke-width="9.9628" stroke-linecap="butt" stroke-miterlimit="10" stroke-linejoin="miter" fill="none" stroke="#3b7d08" d="M 3145.95 439.367 C 3145.95 474.582 3117.41 503.125 3082.2 503.125 C 3046.98 503.125 3018.43 474.582 3018.43 439.367 C 3018.43 404.152 3046.98 375.605 3082.2 375.605 C 3117.41 375.605 3145.95 404.152 3145.95 439.367 Z M 3082.2 439.367 "/>
<clipPath id="cp31">
<path transform="matrix(.1,0,0,-.1,0,193.06)" d="M 2968.8 288.531 L 3195.5772 288.531 L 3195.5772 373.5701 L 2968.8 373.5701 Z "/>
</clipPath>
<g clip-path="url(#cp31)">
<symbol id="pac32">
<g clip-path="url(#cp33)">
<path transform="matrix(.1,0,0,-.1,-.00390625,193.0639)" stroke-width="3.985" stroke-linecap="butt" stroke-miterlimit="10" stroke-linejoin="miter" fill="none" stroke="#3b7d08" d="M 0 0 L 30.8828 30.8828 "/>
</g>
</symbol>
<pattern id="pa32" patternUnits="userSpaceOnUse" patternContentUnits="userSpaceOnUse" x="0" y="0" width="2.98883" height="2.98883">
<clipPath id="cp34">
<path d="M -.99628 -.99628 L 3.9851 -.99628 L 3.9851 3.9851 L -.99628 3.9851 Z"/>
</clipPath>
<g clip-path="url(#cp34)">
<g transform="matrix(1,0,0,-1,.00390625,193.0639)">
<use x="0" y="0" xlink:href="#pac32"/>
<use x="0" y="-2.98883" xlink:href="#pac32"/>
<use x="-2.98883" y="0" xlink:href="#pac32"/>
<use x="-2.98883" y="-2.98883" xlink:href="#pac32"/>
</g>
</g>
</pattern>
<clipPath id="cp33">
<path transform="matrix(.1,0,0,-.1,-.00390625,193.0639)" d="M -10 -10 L -10 40 L 40 40 L 40 -10 Z "/>
</clipPath>
<rect transform="matrix(1,0,0,-1,-.00390625,193.0639)" fill="url(#pa32)" x="296.8839" y="28.85701" width="22.677704" height="8.503906"/>
</g>
<use xlink:href="#font_8_1" transform="matrix(9.9626,0,0,-9.9626,187.8229,187.1645)" fill="#6100ad"/>
<symbol id="font_9_2">
<path d="M .50900009 .58100005 C .513 .595 .513 .597 .513 .60300007 C .513 .623 .49700005 .63500007 .48000003 .63500007 C .46900005 .63500007 .45000003 .63000008 .43900005 .611 C .43600003 .605 .42800004 .573 .42300005 .55300006 L .40200005 .47000004 C .39600004 .44600005 .36500005 .32000003 .36200003 .30900003 C .36100004 .30900003 .31700004 .22200002 .23900001 .22200002 C .171 .22200002 .171 .287 .171 .305 C .171 .35900004 .194 .42200003 .22400002 .499 C .23600002 .531 .24100001 .54300007 .24100001 .56 C .24100001 .60800006 .2 .64500007 .146 .64500007 C .045000007 .64500007 0 .509 0 .49200005 C 0 .47900004 .014000002 .47900004 .017 .47900004 C .031 .47900004 .032 .48400004 .035 .495 C .060000007 .578 .103 .61700007 .143 .61700007 C .16000001 .61700007 .168 .606 .168 .582 C .168 .559 .15900001 .537 .154 .52400007 C .106000009 .402 .096 .365 .096 .321 C .096 .30400003 .096 .25700004 .135 .22500001 C .16600001 .19900002 .20800002 .194 .235 .194 C .27500005 .194 .31100003 .209 .34400005 .23900001 C .33100004 .18400002 .32000003 .142 .27800004 .09200001 C .25100003 .061000006 .21100001 .027999998 .158 .027999998 C .15100001 .027999998 .104 .027999998 .083000008 .061000006 C .13700001 .067 .13700001 .11500001 .13700001 .116000007 C .13700001 .148 .107999999 .15400002 .098000008 .15400002 C .073 .15400002 .040000004 .134 .040000004 .08800001 C .040000004 .037 .088 0 .15900001 0 C .26000003 0 .38300003 .07800001 .41400004 .20300001 L .50900009 .58100005 Z "/>
</symbol>
<use xlink:href="#font_9_2" transform="matrix(6.9738,0,0,-6.9738,193.5649,189.97249)" fill="#6100ad"/>
<use xlink:href="#font_a_4" transform="matrix(9.9626,0,0,-9.9626,201.35089,185.72989)" fill="#6100ad"/>
<use xlink:href="#font_a_2" transform="matrix(9.9626,0,0,-9.9626,211.69988,187.2741)" fill="#6100ad"/>
<path transform="matrix(.1,0,0,-.1,0,193.06)" stroke-width="19.9255" stroke-linecap="butt" stroke-miterlimit="10" stroke-linejoin="miter" fill="none" stroke="#6100ad" d="M 1892.68 1700.41 L 2019.2 1773.46 "/>
<path transform="matrix(.1,0,0,-.1,0,193.06)" d="M 2053.29 1793.14 C 2048.52 1791.75 2026.77 1786.91 2011.63 1786.57 L 2026.77 1760.35 C 2034.63 1773.29 2049.69 1789.71 2053.29 1793.14 " fill="#6100ad"/>
<path transform="matrix(.1,0,0,-.1,0,193.06)" stroke-width="17.9322" stroke-linecap="butt" stroke-miterlimit="10" stroke-linejoin="miter" fill="none" stroke="#6100ad" d="M 2053.29 1793.14 C 2048.52 1791.75 2026.77 1786.91 2011.63 1786.57 L 2026.77 1760.35 C 2034.63 1773.29 2049.69 1789.71 2053.29 1793.14 Z "/>
<path transform="matrix(.1,0,0,-.1,0,193.06)" stroke-width="19.9255" stroke-linecap="butt" stroke-miterlimit="10" stroke-linejoin="miter" fill="none" stroke="#6100ad" d="M 2145.75 1715.59 L 2019.22 1642.54 "/>
<path transform="matrix(.1,0,0,-.1,0,193.06)" d="M 1985.13 1622.86 C 1989.91 1624.25 2011.65 1629.09 2026.79 1629.43 L 2011.65 1655.65 C 2003.79 1642.71 1988.73 1626.29 1985.13 1622.86 " fill="#6100ad"/>
<path transform="matrix(.1,0,0,-.1,0,193.06)" stroke-width="17.9322" stroke-linecap="butt" stroke-miterlimit="10" stroke-linejoin="miter" fill="none" stroke="#6100ad" d="M 1985.13 1622.86 C 1989.91 1624.25 2011.65 1629.09 2026.79 1629.43 L 2011.65 1655.65 C 2003.79 1642.71 1988.73 1626.29 1985.13 1622.86 Z "/>
<symbol id="font_8_2">
<path d="M .47600005 .694 C .47600005 .695 .47600005 .705 .46300004 .705 C .44800005 .705 .35300002 .69600006 .33600004 .694 C .32800005 .693 .32200004 .688 .32200004 .675 C .32200004 .663 .33100004 .663 .34600003 .663 C .39400003 .663 .39600004 .656 .39600004 .646 L .39300005 .626 L .33300004 .38900004 C .31500004 .42600004 .286 .45300005 .24100001 .45300005 C .124 .45300005 0 .30600003 0 .16000001 C 0 .06600001 .055000005 0 .133 0 C .153 0 .20300001 .0040000008 .263 .075 C .27100004 .033000005 .30600003 0 .35400004 0 C .38900004 0 .41200004 .023000002 .42800004 .055000005 C .44500003 .091000009 .45800004 .15200001 .45800004 .15400002 C .45800004 .16400002 .44900004 .16400002 .44600005 .16400002 C .43600003 .16400002 .43500004 .16000001 .43200005 .14600002 C .41500003 .081 .397 .022000002 .35600005 .022000002 C .32900004 .022000002 .32600004 .048 .32600004 .068 C .32600004 .092 .32800005 .09900001 .33200003 .116000007 L .47600005 .694 M .26800005 .13000001 C .263 .112 .263 .11000001 .24800001 .093 C .20400001 .038000004 .163 .022000002 .135 .022000002 C .08499999 .022000002 .07100001 .077 .07100001 .116000007 C .07100001 .16600001 .103 .28900004 .126 .335 C .157 .39400003 .202 .43100003 .242 .43100003 C .307 .43100003 .32100005 .34900005 .32100005 .34300003 C .32100005 .337 .31900005 .33100004 .31800003 .32600004 L .26800005 .13000001 Z "/>
</symbol>
<use xlink:href="#font_8_2" transform="matrix(8.627915,-4.9813,-4.9813,-8.627915,189.48792,47.177656)" fill="#6100ad"/>
<use xlink:href="#font_a_4" transform="matrix(8.627915,-4.9813,-4.9813,-8.627915,195.79619,41.879034)" fill="#6100ad"/>
<symbol id="font_23_1">
<path d="M .57600006 0 C .59300008 0 .611 0 .611 .019999996 C .611 .040000008 .59300008 .040000008 .57600006 .040000008 L .035000005 .040000008 C .018 .040000008 0 .040000008 0 .019999996 C 0 0 .018 0 .035000005 0 L .57600006 0 Z "/>
</symbol>
<use xlink:href="#font_23_1" transform="matrix(8.627915,-4.9813,-4.9813,-8.627915,204.65328,35.649557)" fill="#6100ad"/>
<symbol id="font_a_3">
<path d="M .07700001 .07700001 L .18300002 .18 C .33900003 .31800003 .39900003 .372 .39900003 .47200004 C .39900003 .586 .30900003 .666 .18700002 .666 C .074 .666 0 .574 0 .485 C 0 .42900003 .05 .42900003 .053000008 .42900003 C .07000001 .42900003 .105000007 .441 .105000007 .48200003 C .105000007 .508 .08700001 .53400006 .052000006 .53400006 C .044000005 .53400006 .042000008 .53400006 .039 .53300008 C .062000004 .59800007 .11600001 .63500007 .17400001 .63500007 C .26500003 .63500007 .308 .554 .308 .47200004 C .308 .39200003 .25800003 .31300003 .20300003 .25100003 L .011000004 .037 C 0 .026 0 .024 0 0 L .37100003 0 L .39900003 .17400001 L .374 .17400001 C .36900003 .14400001 .36200003 .1 .352 .085 C .345 .07700001 .279 .07700001 .257 .07700001 L .07700001 .07700001 Z "/>
</symbol>
<use xlink:href="#font_a_3" transform="matrix(8.627915,-4.9813,-4.9813,-8.627915,212.224,33.924505)" fill="#6100ad"/>
<symbol id="font_8_3">
<path d="M .106 .053000004 C .106 .082 .08200001 .106000009 .05300001 .106000009 C .024000004 .106000009 0 .082 0 .053000004 C 0 .024 .024000004 0 .05300001 0 C .08200001 0 .106 .024 .106 .053000004 Z "/>
</symbol>
<use xlink:href="#font_8_3" transform="matrix(8.627915,-4.9813,-4.9813,-8.627915,216.84938,31.254057)" fill="#6100ad"/>
<symbol id="font_a_1">
<path d="M .07800001 .344 L .07800001 .076000008 C .07800001 .031000002 .067 .031000002 0 .031000002 L 0 0 C .035 .001 .08600001 .003 .113000009 .003 C .139 .003 .191 .001 .225 0 L .225 .031000002 C .158 .031000002 .147 .031000002 .147 .076000008 L .147 .26000003 C .147 .36400003 .218 .42000003 .282 .42000003 C .345 .42000003 .356 .36600004 .356 .30900003 L .356 .076000008 C .356 .031000002 .345 .031000002 .278 .031000002 L .278 0 C .31300003 .001 .36400003 .003 .391 .003 C .41700004 .003 .46900005 .001 .503 0 L .503 .031000002 C .43600003 .031000002 .425 .031000002 .425 .076000008 L .425 .26000003 C .425 .36400003 .496 .42000003 .56 .42000003 C .623 .42000003 .634 .36600004 .634 .30900003 L .634 .076000008 C .634 .031000002 .623 .031000002 .556 .031000002 L .556 0 C .591 .001 .642 .003 .669 .003 C .69500008 .003 .74700006 .001 .781 0 L .781 .031000002 C .72900006 .031000002 .70400008 .031000002 .703 .061000006 L .703 .252 C .703 .33800004 .703 .36900003 .67200008 .40500004 C .65800008 .42200003 .625 .44200004 .56700006 .44200004 C .48300005 .44200004 .439 .38200004 .42200003 .344 C .40800003 .43100003 .33400003 .44200004 .289 .44200004 C .216 .44200004 .169 .39900003 .141 .337 L .141 .44200004 L 0 .43100003 L 0 .4 C .07000001 .4 .07800001 .393 .07800001 .344 Z "/>
</symbol>
<use xlink:href="#font_a_2" transform="matrix(8.627915,-4.9813,-4.9813,-8.627915,218.94963,30.294569)" fill="#6100ad"/>
<use xlink:href="#font_a_1" transform="matrix(8.627915,-4.9813,-4.9813,-8.627915,223.09362,27.64898)" fill="#6100ad"/>
</g>
</svg>
