<?xml version="1.0" encoding="UTF-8" standalone="no"?>
<!DOCTYPE svg PUBLIC "-//W3C//DTD SVG 1.1//EN" "http://www.w3.org/Graphics/SVG/1.1/DTD/svg11.dtd">
<svg xmlns="http://www.w3.org/2000/svg" xmlns:xlink="http://www.w3.org/1999/xlink" version="1.1" width="341.2pt" height="171.65pt" viewBox="0 0 341.2 171.65">
<g enable-background="new">
<path transform="matrix(.1,0,0,-.1,0,171.65)" d="M 4.96484 1705.98 L 4.96484 1592.58 L 1466.42 1527.38 L 2175.46 1705.98 Z " fill="#5ecc0d"/>
<path transform="matrix(.1,0,0,-.1,0,171.65)" stroke-width="9.9628" stroke-linecap="butt" stroke-miterlimit="10" stroke-linejoin="miter" fill="none" stroke="#1f6e96" d="M 4.96484 1705.98 L 4.96484 1592.58 L 1466.42 1527.38 L 2175.46 1705.98 Z "/>
<path transform="matrix(.1,0,0,-.1,0,171.65)" d="M 4.96484 4.96484 L 3406.9949 4.96484 L 3406.9949 1592.5748 L 4.96484 1592.5748 Z " fill="#ffff73"/>
<path transform="matrix(.1,0,0,-.1,0,171.65)" stroke-width="9.9628" stroke-linecap="butt" stroke-miterlimit="10" stroke-linejoin="miter" fill="none" stroke="#1f6e96" d="M 4.96484 4.96484 L 3406.9949 4.96484 L 3406.9949 1592.5748 L 4.96484 1592.5748 Z "/>
<path transform="matrix(.1,0,0,-.1,0,171.65)" d="M 849.801 1025.57 C 849.801 1025.57 1210.39 1254.03 1304.57 1309.1 C 1398.73 1364.17 1455.32 1392.21 1528.52 1422.5 C 1601.72 1452.78 1728.84 1503.79 1832.13 1527.38 C 1935.42 1550.98 2054.44 1583.54 2272.95 1592.59 C 2491.46 1601.63 3407 1592.58 3407 1592.58 L 3407 1705.98 L 2175.46 1705.98 C 2175.46 1705.98 1781.96 1617.36 1683.58 1592.58 C 1585.21 1567.8 1535.14 1550.97 1466.42 1527.38 C 1397.71 1503.77 1257.99 1452.78 1188.34 1422.5 C 1118.68 1392.21 1058.55 1364.17 964.383 1309.1 C 870.207 1254.03 509.598 1025.57 509.598 1025.57 " fill="#33baff"/>
<path transform="matrix(.1,0,0,-.1,0,171.65)" stroke-width="9.9628" stroke-linecap="butt" stroke-miterlimit="10" stroke-linejoin="miter" fill="none" stroke="#1f6e96" d="M 849.801 1025.57 C 849.801 1025.57 1210.39 1254.03 1304.57 1309.1 C 1398.73 1364.17 1455.32 1392.21 1528.52 1422.5 C 1601.72 1452.78 1728.84 1503.79 1832.13 1527.38 C 1935.42 1550.98 2054.44 1583.54 2272.95 1592.59 C 2491.46 1601.63 3407 1592.58 3407 1592.58 L 3407 1705.98 L 2175.46 1705.98 C 2175.46 1705.98 1781.96 1617.36 1683.58 1592.58 C 1585.21 1567.8 1535.14 1550.97 1466.42 1527.38 C 1397.71 1503.77 1257.99 1452.78 1188.34 1422.5 C 1118.68 1392.21 1058.55 1364.17 964.383 1309.1 C 870.207 1254.03 509.598 1025.57 509.598 1025.57 Z "/>
<symbol id="font_0_3">
<path d="M .6140001 .526 C .58500006 .68600007 .493 .76400008 .333 .76400008 C .23500002 .76400008 .15600002 .73300006 .102000009 .67300006 C .036000007 .601 0 .49700005 0 .379 C 0 .259 .037 .156 .10600001 .08500001 C .162 .027000003 .234 0 .329 0 C .507 0 .60700008 .09600001 .62900009 .289 L .53300008 .289 C .52500006 .23900001 .51500007 .20500002 .50000008 .17600002 C .47 .116000007 .40800003 .082 .33 .082 C .185 .082 .093 .19800002 .093 .38000003 C .093 .56700006 .18100003 .68200007 .322 .68200007 C .381 .68200007 .43600003 .66400006 .466 .63600006 C .493 .611 .5080001 .58000007 .51900008 .526 L .6140001 .526 Z "/>
</symbol>
<symbol id="font_0_2">
<path d="M .23600002 .56200006 C .089 .56200006 0 .45700003 0 .28100003 C 0 .105000007 .088 0 .237 0 C .384 0 .47400005 .105000007 .47400005 .277 C .47400005 .45800004 .387 .56200006 .23600002 .56200006 M .237 .485 C .331 .485 .387 .40800003 .387 .27800004 C .387 .155 .329 .07700001 .237 .07700001 C .14400001 .07700001 .087 .15400002 .087 .28100003 C .087 .407 .14400001 .485 .237 .485 Z "/>
</symbol>
<symbol id="font_0_1">
<path d="M 0 .52400007 L 0 0 L .084000017 0 L .084000017 .289 C .084000017 .39600004 .14000002 .46600003 .22600001 .46600003 C .29200004 .46600003 .33400003 .42600004 .33400003 .363 L .33400003 0 L .41700004 0 L .41700004 .39600004 C .41700004 .483 .35200004 .53900006 .25100003 .53900006 C .17300001 .53900006 .123 .509 .077 .43600003 L .077 .52400007 L 0 .52400007 Z "/>
</symbol>
<symbol id="font_0_6">
<path d="M .24000001 .54700008 L .15400002 .54700008 L .15400002 .69100007 L .071 .69100007 L .071 .54700008 L 0 .54700008 L 0 .47900004 L .071 .47900004 L .071 .083000008 C .071 .030000002 .10700001 0 .172 0 C .19200002 0 .21200001 .0020000004 .24000001 .007000001 L .24000001 .07700001 C .22900002 .074 .216 .073 .20000002 .073 C .164 .073 .15400002 .083000008 .15400002 .120000008 L .15400002 .47900004 L .24000001 .47900004 L .24000001 .54700008 Z "/>
</symbol>
<symbol id="font_0_d">
<path d="M .08400001 .52400007 L .001000002 .52400007 L .001000002 0 L .08400001 0 L .08400001 .52400007 M .08400001 .72900006 L 0 .72900006 L 0 .624 L .08400001 .624 L .08400001 .72900006 Z "/>
</symbol>
<symbol id="font_0_b">
<path d="M .47300003 .25700004 C .47300003 .337 .46700005 .38500003 .45200003 .42400003 C .41800005 .51 .33800004 .56200006 .24 .56200006 C .094 .56200006 0 .45000003 0 .27800004 C 0 .106000009 .091000009 0 .23800002 0 C .35800005 0 .44100005 .068 .46200005 .18200001 L .37800003 .18200001 C .35500003 .113000009 .30800004 .07700001 .24100001 .07700001 C .18800001 .07700001 .143 .101 .114999998 .14500001 C .095 .17500001 .088 .20500002 .087 .25700004 L .47300003 .25700004 M .089 .32500003 C .096 .42200003 .155 .485 .23900001 .485 C .32100005 .485 .38400004 .41700004 .38400004 .33100004 C .38400004 .32900004 .38400004 .32700003 .38300003 .32500003 L .089 .32500003 Z "/>
</symbol>
<symbol id="font_0_8">
<path d="M .49300004 .072000008 C .48400004 .07000001 .48000003 .07000001 .47500003 .07000001 C .44600005 .07000001 .43000005 .08500001 .43000005 .11100001 L .43000005 .41900004 C .43000005 .512 .36200003 .56200006 .23300001 .56200006 C .157 .56200006 .094000007 .54 .059 .50100007 C .035000005 .47400005 .024999999 .44400005 .023000002 .39200003 L .107 .39200003 C .114 .45600004 .15200001 .485 .23000002 .485 C .305 .485 .34700004 .45700003 .34700004 .407 L .34700004 .38500003 C .34700004 .35000003 .32600004 .335 .26000003 .32700003 C .14200002 .312 .124000009 .30800004 .092 .29500003 C .031000004 .27 0 .223 0 .155 C 0 .060000004 .066 0 .17200002 0 C .238 0 .291 .023000002 .35000003 .07700001 C .35600005 .024000003 .38200004 0 .43600003 0 C .45300005 0 .46600003 .0020000004 .49300004 .0090000019 L .49300004 .072000008 M .34700004 .18800001 C .34700004 .16000001 .33900003 .143 .314 .120000008 C .28000004 .089 .23900002 .073 .19 .073 C .125 .073 .087000008 .104 .087000008 .157 C .087000008 .21200001 .124000009 .24000001 .21300003 .25300003 C .30100004 .26500003 .31900005 .269 .34700004 .282 L .34700004 .18800001 Z "/>
</symbol>
<symbol id="font_0_e">
<path d="M .08400001 .72900006 L 0 .72900006 L 0 0 L .08400001 0 L .08400001 .72900006 Z "/>
</symbol>
<symbol id="font_0_9">
<path d="M .44000004 .37100003 C .43600003 .42200003 .42500005 .455 .40500004 .48400004 C .36900003 .53300008 .30600003 .56200006 .233 .56200006 C .092 .56200006 0 .45000003 0 .27600003 C 0 .10700001 .09 0 .23200001 0 C .35700003 0 .43600003 .075 .44600005 .20300001 L .36200003 .20300001 C .34800003 .119 .30500005 .07700001 .23400001 .07700001 C .142 .07700001 .087000008 .15200001 .087000008 .27600003 C .087000008 .407 .141 .485 .23200001 .485 C .30200003 .485 .34600003 .44400005 .35600005 .37100003 L .44000004 .37100003 Z "/>
</symbol>
<symbol id="font_0_4">
<path d="M 0 .52400007 L 0 0 L .08400001 0 L .08400001 .272 C .08400001 .347 .103 .39600004 .143 .425 C .169 .44400005 .194 .45000003 .252 .45100004 L .252 .536 C .238 .53800007 .231 .53900006 .22 .53900006 C .16600001 .53900006 .125 .507 .07700001 .42900003 L .07700001 .52400007 L 0 .52400007 Z "/>
</symbol>
<symbol id="font_0_7">
<path d="M .41700004 .023000002 L .41700004 .54700008 L .33400003 .54700008 L .33400003 .25 C .33400003 .143 .27800004 .073 .19100002 .073 C .125 .073 .083 .113000009 .083 .17600002 L .083 .54700008 L 0 .54700008 L 0 .143 C 0 .056 .065000008 0 .167 0 C .24400002 0 .293 .027000003 .342 .09600001 L .342 .023000002 L .41700004 .023000002 Z "/>
</symbol>
<symbol id="font_0_5">
<path d="M .404 .40100003 C .403 .50400009 .335 .56200006 .21400002 .56200006 C .092 .56200006 .013 .499 .013 .402 C .013 .32000003 .055 .28100003 .17900002 .25100003 L .257 .23200001 C .315 .21800001 .338 .19700001 .338 .15900001 C .338 .11000001 .289 .07700001 .21599999 .07700001 C .171 .07700001 .13300002 .09 .11200001 .112 C .099 .127 .093 .142 .08800001 .179 L 0 .179 C .0040000008 .058000003 .072000008 0 .20900002 0 C .34100003 0 .425 .065000008 .425 .16600001 C .425 .24400002 .381 .287 .277 .312 L .197 .33100004 C .12900001 .347 .1 .36900003 .1 .40600003 C .1 .45400004 .143 .485 .211 .485 C .278 .485 .314 .45600004 .316 .40100003 L .404 .40100003 Z "/>
</symbol>
<symbol id="font_0_c">
<path d="M .351 .76400008 C .142 .76400008 0 .61 0 .38200004 C 0 .15400002 .142 0 .352 0 C .44 0 .51900008 .027000003 .57800009 .07700001 C .65700009 .14400001 .70400008 .25700004 .70400008 .37600003 C .70400008 .611 .56500008 .76400008 .351 .76400008 M .351 .68200007 C .50900009 .68200007 .61100009 .56200006 .61100009 .37800003 C .61100009 .202 .50600007 .082 .352 .082 C .19700001 .082 .09300001 .202 .09300001 .38200004 C .09300001 .56200006 .19700001 .68200007 .351 .68200007 Z "/>
</symbol>
<symbol id="font_0_a">
<path d="M .393 0 L .59800007 .611 L .59800007 0 L .68600007 0 L .68600007 .72900006 L .55700007 .72900006 L .34500004 .094000007 L .12900001 .72900006 L 0 .72900006 L 0 0 L .088 0 L .088 .611 L .29500003 0 L .393 0 Z "/>
</symbol>
<use xlink:href="#font_0_3" transform="matrix(9.4645,0,0,-9.4645,73.89919,10.349672)"/>
<use xlink:href="#font_0_2" transform="matrix(9.4645,0,0,-9.4645,80.61899,10.349672)"/>
<use xlink:href="#font_0_1" transform="matrix(9.4645,0,0,-9.4645,86.20304,10.131989)"/>
<use xlink:href="#font_0_6" transform="matrix(9.4645,0,0,-9.4645,90.93529,10.349672)"/>
<use xlink:href="#font_0_d" transform="matrix(9.4645,0,0,-9.4645,94.05858,10.131989)"/>
<use xlink:href="#font_0_1" transform="matrix(9.4645,0,0,-9.4645,96.197559,10.131989)"/>
<use xlink:href="#font_0_b" transform="matrix(9.4645,0,0,-9.4645,101.17588,10.349672)"/>
<use xlink:href="#font_0_1" transform="matrix(9.4645,0,0,-9.4645,106.72208,10.131989)"/>
<use xlink:href="#font_0_6" transform="matrix(9.4645,0,0,-9.4645,111.45432,10.349672)"/>
<use xlink:href="#font_0_8" transform="matrix(9.4645,0,0,-9.4645,114.350467,10.349672)"/>
<use xlink:href="#font_0_e" transform="matrix(9.4645,0,0,-9.4645,119.8588,10.131989)"/>
<use xlink:href="#font_0_9" transform="matrix(9.4645,0,0,-9.4645,124.241039,10.349672)"/>
<use xlink:href="#font_0_4" transform="matrix(9.4645,0,0,-9.4645,129.33293,10.131989)"/>
<use xlink:href="#font_0_7" transform="matrix(9.4645,0,0,-9.4645,132.58861,10.349672)"/>
<use xlink:href="#font_0_5" transform="matrix(9.4645,0,0,-9.4645,137.55748,10.349672)"/>
<use xlink:href="#font_0_6" transform="matrix(9.4645,0,0,-9.4645,142.10045,10.349672)"/>
<use xlink:href="#font_0_c" transform="matrix(9.4645,0,0,-9.4645,215.03055,10.775454)"/>
<use xlink:href="#font_0_9" transform="matrix(9.4645,0,0,-9.4645,222.32769,10.775454)"/>
<use xlink:href="#font_0_b" transform="matrix(9.4645,0,0,-9.4645,227.14513,10.775454)"/>
<use xlink:href="#font_0_8" transform="matrix(9.4645,0,0,-9.4645,232.42632,10.775454)"/>
<use xlink:href="#font_0_1" transform="matrix(9.4645,0,0,-9.4645,237.9536,10.55777)"/>
<use xlink:href="#font_0_d" transform="matrix(9.4645,0,0,-9.4645,243.17801,10.55777)"/>
<use xlink:href="#font_0_9" transform="matrix(9.4645,0,0,-9.4645,244.94786,10.775454)"/>
<use xlink:href="#font_0_9" transform="matrix(9.4645,0,0,-9.4645,252.3112,10.775454)"/>
<use xlink:href="#font_0_4" transform="matrix(9.4645,0,0,-9.4645,257.4031,10.55777)"/>
<use xlink:href="#font_0_7" transform="matrix(9.4645,0,0,-9.4645,260.65879,10.775454)"/>
<use xlink:href="#font_0_5" transform="matrix(9.4645,0,0,-9.4645,265.62767,10.775454)"/>
<use xlink:href="#font_0_6" transform="matrix(9.4645,0,0,-9.4645,270.1706,10.775454)"/>
<use xlink:href="#font_0_a" transform="matrix(9.4645,0,0,-9.4645,157.10575,95.11287)"/>
<use xlink:href="#font_0_8" transform="matrix(9.4645,0,0,-9.4645,164.67734,95.33055)"/>
<use xlink:href="#font_0_1" transform="matrix(9.4645,0,0,-9.4645,170.20462,95.11287)"/>
<use xlink:href="#font_0_6" transform="matrix(9.4645,0,0,-9.4645,174.93688,95.33055)"/>
<use xlink:href="#font_0_e" transform="matrix(9.4645,0,0,-9.4645,178.07909,95.11287)"/>
<use xlink:href="#font_0_b" transform="matrix(9.4645,0,0,-9.4645,179.9152,95.33055)"/>
<path transform="matrix(.1,0,0,-.1,0,171.65)" stroke-width="19.9255" stroke-linecap="butt" stroke-miterlimit="10" stroke-linejoin="miter" fill="none" stroke="#6100ad" d="M 1324.68 1413.98 L 1061.64 1263.99 "/>
<path transform="matrix(.1,0,0,-.1,0,171.65)" d="M 1027.45 1244.49 C 1032.23 1245.86 1054 1250.58 1069.14 1250.84 L 1054.14 1277.14 C 1046.21 1264.24 1031.06 1247.91 1027.45 1244.49 " fill="#6100ad"/>
<path transform="matrix(.1,0,0,-.1,0,171.65)" stroke-width="17.9319" stroke-linecap="butt" stroke-miterlimit="10" stroke-linejoin="miter" fill="none" stroke="#6100ad" d="M 1027.45 1244.49 C 1032.23 1245.86 1054 1250.58 1069.14 1250.84 L 1054.14 1277.14 C 1046.21 1264.24 1031.06 1247.91 1027.45 1244.49 Z "/>
</g>
</svg>
