<?xml version="1.0" encoding="UTF-8" standalone="no"?>
<!DOCTYPE svg PUBLIC "-//W3C//DTD SVG 1.1//EN" "http://www.w3.org/Graphics/SVG/1.1/DTD/svg11.dtd">
<svg xmlns="http://www.w3.org/2000/svg" xmlns:xlink="http://www.w3.org/1999/xlink" version="1.1" width="472.05pt" height="262.49pt" viewBox="0 0 472.05 262.49">
<g enable-background="new">
<path transform="matrix(.1,0,0,-.1,0,262.49)" d="M 649.523 2058.36 L 649.523 1944.96 L 2110.98 1879.75 L 2820.02 2058.36 Z " fill="#5ecc0d"/>
<path transform="matrix(.1,0,0,-.1,0,262.49)" stroke-width="9.9628" stroke-linecap="butt" stroke-miterlimit="10" stroke-linejoin="miter" fill="none" stroke="#1f6e96" d="M 649.523 2058.36 L 649.523 1944.96 L 2110.98 1879.75 L 2820.02 2058.36 Z "/>
<path transform="matrix(.1,0,0,-.1,0,262.49)" d="M 649.523 357.344 L 4051.553 357.344 L 4051.553 1944.964 L 649.523 1944.964 Z " fill="#ffff73"/>
<path transform="matrix(.1,0,0,-.1,0,262.49)" stroke-width="9.9628" stroke-linecap="butt" stroke-miterlimit="10" stroke-linejoin="miter" fill="none" stroke="#1f6e96" d="M 649.523 357.344 L 4051.553 357.344 L 4051.553 1944.964 L 649.523 1944.964 Z "/>
<path transform="matrix(.1,0,0,-.1,0,262.49)" d="M 1494.36 1377.95 C 1494.36 1377.95 1854.95 1606.41 1949.13 1661.48 C 2043.3 1716.55 2099.88 1744.59 2173.08 1774.88 C 2246.28 1805.16 2373.4 1856.16 2476.69 1879.77 C 2579.98 1903.36 2699 1935.92 2917.51 1944.96 C 3136.02 1954.01 4051.55 1944.96 4051.55 1944.96 L 4051.55 2058.36 L 2820.02 2058.36 C 2820.02 2058.36 2426.52 1969.74 2328.14 1944.96 C 2229.77 1920.18 2179.7 1903.35 2110.98 1879.75 C 2042.27 1856.16 1902.55 1805.16 1832.89 1774.88 C 1763.24 1744.59 1703.12 1716.55 1608.94 1661.48 C 1514.77 1606.41 1154.16 1377.95 1154.16 1377.95 " fill="#33baff"/>
<path transform="matrix(.1,0,0,-.1,0,262.49)" stroke-width="9.9628" stroke-linecap="butt" stroke-miterlimit="10" stroke-linejoin="miter" fill="none" stroke="#1f6e96" d="M 1494.36 1377.95 C 1494.36 1377.95 1854.95 1606.41 1949.13 1661.48 C 2043.3 1716.55 2099.88 1744.59 2173.08 1774.88 C 2246.28 1805.16 2373.4 1856.16 2476.69 1879.77 C 2579.98 1903.36 2699 1935.92 2917.51 1944.96 C 3136.02 1954.01 4051.55 1944.96 4051.55 1944.96 L 4051.55 2058.36 L 2820.02 2058.36 C 2820.02 2058.36 2426.52 1969.74 2328.14 1944.96 C 2229.77 1920.18 2179.7 1903.35 2110.98 1879.75 C 2042.27 1856.16 1902.55 1805.16 1832.89 1774.88 C 1763.24 1744.59 1703.12 1716.55 1608.94 1661.48 C 1514.77 1606.41 1154.16 1377.95 1154.16 1377.95 Z "/>
<path transform="matrix(.1,0,0,-.1,0,262.49)" stroke-width="9.9628" stroke-linecap="butt" stroke-miterlimit="10" stroke-linejoin="miter" fill="none" stroke="#1f6e96" d="M 1154.16 1377.95 C 1154.16 1377.95 1514.77 1606.41 1608.94 1661.48 C 1703.12 1716.55 1763.24 1744.59 1832.89 1774.88 C 1902.55 1805.16 2042.27 1856.16 2110.98 1879.75 C 2179.7 1903.35 2229.77 1920.18 2328.14 1944.96 C 2426.52 1969.74 2820.02 2058.36 2820.02 2058.36 "/>
<path transform="matrix(.1,0,0,-.1,0,262.49)" stroke-width="9.9628" stroke-linecap="butt" stroke-miterlimit="10" stroke-linejoin="miter" fill="none" stroke="#1f6e96" d="M 1494.36 1377.95 C 1494.36 1377.95 1854.95 1606.41 1949.13 1661.48 C 2043.3 1716.55 2099.88 1744.59 2173.08 1774.88 C 2246.28 1805.16 2373.4 1856.16 2476.69 1879.77 C 2579.98 1903.36 2699 1935.92 2917.51 1944.96 C 3136.02 1954.01 4051.55 1944.96 4051.55 1944.96 "/>
<path transform="matrix(.1,0,0,-.1,0,262.49)" d="M 677.871 357.344 C 677.871 373 665.18 385.691 649.523 385.691 C 633.867 385.691 621.176 373 621.176 357.344 C 621.176 341.688 633.867 328.996 649.523 328.996 C 665.18 328.996 677.871 341.688 677.871 357.344 Z M 649.523 357.344 " fill="#f58000"/>
<symbol id="font_0_3">
<path d="M 0 0 L .08400001 0 L .08400001 .273 C .128 .21900001 .177 .19500001 .24500002 .19500001 C .38000003 .19500001 .469 .30400003 .469 .47100003 C .469 .647 .38300003 .757 .244 .757 C .17300001 .757 .116 .725 .07700001 .66300007 L .07700001 .74200007 L 0 .74200007 L 0 0 M .23 .679 C .32200004 .679 .38200004 .59800007 .38200004 .47300006 C .38200004 .35400004 .32100005 .273 .23 .273 C .142 .273 .08400001 .35300002 .08400001 .476 C .08400001 .59900006 .142 .679 .23 .679 Z "/>
</symbol>
<use xlink:href="#font_0_3" transform="matrix(9.4645,0,0,-9.4645,17.505185,239.01926)" fill="#f58000"/>
<path transform="matrix(.1,0,0,-.1,0,262.49)" stroke-width="3.98" stroke-linecap="butt" stroke-miterlimit="10" stroke-linejoin="miter" fill="none" stroke="#f58000" d="M 228.238 257.34 L 256.629 257.34 "/>
<symbol id="font_0_a">
<path d="M 0 .75200006 L 0 .023000002 L .075 .023000002 L .075 .09 C .11500001 .029000003 .16800002 0 .24100001 0 C .37900005 0 .469 .113000009 .469 .287 C .469 .45700003 .38300003 .56200006 .24500002 .56200006 C .17300001 .56200006 .12200001 .535 .083000008 .476 L .083000008 .75200006 L 0 .75200006 M .22900002 .48400004 C .32200004 .48400004 .38200004 .40300004 .38200004 .27800004 C .38200004 .15900001 .32000003 .07800001 .22900002 .07800001 C .141 .07800001 .083000008 .158 .083000008 .28100003 C .083000008 .404 .141 .48400004 .22900002 .48400004 Z "/>
</symbol>
<symbol id="font_0_2">
<path d="M .23600002 .56200006 C .089 .56200006 0 .45700003 0 .28100003 C 0 .105000007 .088 0 .237 0 C .384 0 .47400005 .105000007 .47400005 .277 C .47400005 .45800004 .387 .56200006 .23600002 .56200006 M .237 .485 C .331 .485 .387 .40800003 .387 .27800004 C .387 .155 .329 .07700001 .237 .07700001 C .14400001 .07700001 .087 .15400002 .087 .28100003 C .087 .407 .14400001 .485 .237 .485 Z "/>
</symbol>
<symbol id="font_0_6">
<path d="M .24000001 .54700008 L .15400002 .54700008 L .15400002 .69100007 L .071 .69100007 L .071 .54700008 L 0 .54700008 L 0 .47900004 L .071 .47900004 L .071 .083000008 C .071 .030000002 .10700001 0 .172 0 C .19200002 0 .21200001 .0020000004 .24000001 .007000001 L .24000001 .07700001 C .22900002 .074 .216 .073 .20000002 .073 C .164 .073 .15400002 .083000008 .15400002 .120000008 L .15400002 .47900004 L .24000001 .47900004 L .24000001 .54700008 Z "/>
</symbol>
<use xlink:href="#font_0_a" transform="matrix(9.4645,0,0,-9.4645,26.175185,237.17368)" fill="#f58000"/>
<use xlink:href="#font_0_2" transform="matrix(9.4645,0,0,-9.4645,31.267085,237.17368)" fill="#f58000"/>
<use xlink:href="#font_0_6" transform="matrix(9.4645,0,0,-9.4645,36.32113,237.17368)" fill="#f58000"/>
<path transform="matrix(.1,0,0,-.1,0,262.49)" stroke-width="3.98" stroke-linecap="butt" stroke-miterlimit="10" stroke-linejoin="miter" fill="none" stroke="#f58000" d="M 393.871 257.34 L 422.262 257.34 "/>
<symbol id="font_0_8">
<path d="M .54800006 0 L .702 .52400007 L .60800006 .52400007 L .50400009 .116000007 L .401 .52400007 L .299 .52400007 L .19900002 .116000007 L .09200001 .52400007 L 0 .52400007 L .15200001 0 L .246 0 L .347 .411 L .453 0 L .54800006 0 Z "/>
</symbol>
<symbol id="font_0_d">
<path d="M .47300003 .25700004 C .47300003 .337 .46700005 .38500003 .45200003 .42400003 C .41800005 .51 .33800004 .56200006 .24 .56200006 C .094 .56200006 0 .45000003 0 .27800004 C 0 .106000009 .091000009 0 .23800002 0 C .35800005 0 .44100005 .068 .46200005 .18200001 L .37800003 .18200001 C .35500003 .113000009 .30800004 .07700001 .24100001 .07700001 C .18800001 .07700001 .143 .101 .114999998 .14500001 C .095 .17500001 .088 .20500002 .087 .25700004 L .47300003 .25700004 M .089 .32500003 C .096 .42200003 .155 .485 .23900001 .485 C .32100005 .485 .38400004 .41700004 .38400004 .33100004 C .38400004 .32900004 .38400004 .32700003 .38300003 .32500003 L .089 .32500003 Z "/>
</symbol>
<symbol id="font_0_5">
<path d="M .404 .40100003 C .403 .50400009 .335 .56200006 .21400002 .56200006 C .092 .56200006 .013 .499 .013 .402 C .013 .32000003 .055 .28100003 .17900002 .25100003 L .257 .23200001 C .315 .21800001 .338 .19700001 .338 .15900001 C .338 .11000001 .289 .07700001 .21599999 .07700001 C .171 .07700001 .13300002 .09 .11200001 .112 C .099 .127 .093 .142 .08800001 .179 L 0 .179 C .0040000008 .058000003 .072000008 0 .20900002 0 C .34100003 0 .425 .065000008 .425 .16600001 C .425 .24400002 .381 .287 .277 .312 L .197 .33100004 C .12900001 .347 .1 .36900003 .1 .40600003 C .1 .45400004 .143 .485 .211 .485 C .278 .485 .314 .45600004 .316 .40100003 L .404 .40100003 Z "/>
</symbol>
<use xlink:href="#font_0_8" transform="matrix(9.4645,0,0,-9.4645,42.282987,236.956)" fill="#f58000"/>
<use xlink:href="#font_0_d" transform="matrix(9.4645,0,0,-9.4645,49.343454,237.17368)" fill="#f58000"/>
<use xlink:href="#font_0_5" transform="matrix(9.4645,0,0,-9.4645,54.54893,237.17368)" fill="#f58000"/>
<use xlink:href="#font_0_6" transform="matrix(9.4645,0,0,-9.4645,59.091894,237.17368)" fill="#f58000"/>
<path transform="matrix(.1,0,0,-.1,0,262.49)" d="M 4079.9 357.344 C 4079.9 373 4067.21 385.691 4051.55 385.691 C 4035.9 385.691 4023.21 373 4023.21 357.344 C 4023.21 341.688 4035.9 328.996 4051.55 328.996 C 4067.21 328.996 4079.9 341.688 4079.9 357.344 Z M 4051.55 357.344 " fill="#f58000"/>
<use xlink:href="#font_0_3" transform="matrix(9.4645,0,0,-9.4645,409.02809,239.01926)" fill="#f58000"/>
<path transform="matrix(.1,0,0,-.1,0,262.49)" stroke-width="3.98" stroke-linecap="butt" stroke-miterlimit="10" stroke-linejoin="miter" fill="none" stroke="#f58000" d="M 4143.47 257.34 L 4171.86 257.34 "/>
<use xlink:href="#font_0_a" transform="matrix(9.4645,0,0,-9.4645,417.6981,237.17368)" fill="#f58000"/>
<use xlink:href="#font_0_2" transform="matrix(9.4645,0,0,-9.4645,422.79,237.17368)" fill="#f58000"/>
<use xlink:href="#font_0_6" transform="matrix(9.4645,0,0,-9.4645,427.84407,237.17368)" fill="#f58000"/>
<path transform="matrix(.1,0,0,-.1,0,262.49)" stroke-width="3.98" stroke-linecap="butt" stroke-miterlimit="10" stroke-linejoin="miter" fill="none" stroke="#f58000" d="M 4309.1 257.34 L 4337.49 257.34 "/>
<symbol id="font_0_9">
<path d="M .49300004 .072000008 C .48400004 .07000001 .48000003 .07000001 .47500003 .07000001 C .44600005 .07000001 .43000005 .08500001 .43000005 .11100001 L .43000005 .41900004 C .43000005 .512 .36200003 .56200006 .23300001 .56200006 C .157 .56200006 .094000007 .54 .059 .50100007 C .035000005 .47400005 .024999999 .44400005 .023000002 .39200003 L .107 .39200003 C .114 .45600004 .15200001 .485 .23000002 .485 C .305 .485 .34700004 .45700003 .34700004 .407 L .34700004 .38500003 C .34700004 .35000003 .32600004 .335 .26000003 .32700003 C .14200002 .312 .124000009 .30800004 .092 .29500003 C .031000004 .27 0 .223 0 .155 C 0 .060000004 .066 0 .17200002 0 C .238 0 .291 .023000002 .35000003 .07700001 C .35600005 .024000003 .38200004 0 .43600003 0 C .45300005 0 .46600003 .0020000004 .49300004 .0090000019 L .49300004 .072000008 M .34700004 .18800001 C .34700004 .16000001 .33900003 .143 .314 .120000008 C .28000004 .089 .23900002 .073 .19 .073 C .125 .073 .087000008 .104 .087000008 .157 C .087000008 .21200001 .124000009 .24000001 .21300003 .25300003 C .30100004 .26500003 .31900005 .269 .34700004 .282 L .34700004 .18800001 Z "/>
</symbol>
<use xlink:href="#font_0_d" transform="matrix(9.4645,0,0,-9.4645,434.12757,237.17368)" fill="#f58000"/>
<use xlink:href="#font_0_9" transform="matrix(9.4645,0,0,-9.4645,439.40879,237.17368)" fill="#f58000"/>
<use xlink:href="#font_0_5" transform="matrix(9.4645,0,0,-9.4645,444.59535,237.17368)" fill="#f58000"/>
<use xlink:href="#font_0_6" transform="matrix(9.4645,0,0,-9.4645,449.13829,237.17368)" fill="#f58000"/>
<path transform="matrix(.1,0,0,-.1,0,262.49)" d="M 4079.9 2058.36 C 4079.9 2074.02 4067.21 2086.71 4051.55 2086.71 C 4035.9 2086.71 4023.21 2074.02 4023.21 2058.36 C 4023.21 2042.7 4035.9 2030.01 4051.55 2030.01 C 4067.21 2030.01 4079.9 2042.7 4079.9 2058.36 Z M 4051.55 2058.36 " fill="#f58000"/>
<use xlink:href="#font_0_3" transform="matrix(9.4645,0,0,-9.4645,409.02809,53.39026)" fill="#f58000"/>
<path transform="matrix(.1,0,0,-.1,0,262.49)" stroke-width="3.98" stroke-linecap="butt" stroke-miterlimit="10" stroke-linejoin="miter" fill="none" stroke="#f58000" d="M 4143.47 2113.62 L 4171.86 2113.62 "/>
<use xlink:href="#font_0_6" transform="matrix(9.4645,0,0,-9.4645,417.31953,51.544679)" fill="#f58000"/>
<use xlink:href="#font_0_2" transform="matrix(9.4645,0,0,-9.4645,420.15888,51.544679)" fill="#f58000"/>
<use xlink:href="#font_0_3" transform="matrix(9.4645,0,0,-9.4645,425.5915,53.39026)" fill="#f58000"/>
<use xlink:href="#font_0_2" transform="matrix(9.4645,0,0,-9.4645,430.6834,51.544679)" fill="#f58000"/>
<path transform="matrix(.1,0,0,-.1,0,262.49)" stroke-width="3.98" stroke-linecap="butt" stroke-miterlimit="10" stroke-linejoin="miter" fill="none" stroke="#f58000" d="M 4361.72 2113.62 L 4390.11 2113.62 "/>
<use xlink:href="#font_0_d" transform="matrix(9.4645,0,0,-9.4645,439.39057,51.544679)" fill="#f58000"/>
<use xlink:href="#font_0_9" transform="matrix(9.4645,0,0,-9.4645,444.67179,51.544679)" fill="#f58000"/>
<use xlink:href="#font_0_5" transform="matrix(9.4645,0,0,-9.4645,449.85835,51.544679)" fill="#f58000"/>
<use xlink:href="#font_0_6" transform="matrix(9.4645,0,0,-9.4645,454.40129,51.544679)" fill="#f58000"/>
<path transform="matrix(.1,0,0,-.1,0,262.49)" d="M 677.871 2058.36 C 677.871 2074.02 665.18 2086.71 649.523 2086.71 C 633.867 2086.71 621.176 2074.02 621.176 2058.36 C 621.176 2042.7 633.867 2030.01 649.523 2030.01 C 665.18 2030.01 677.871 2042.7 677.871 2058.36 Z M 649.523 2058.36 " fill="#f58000"/>
<use xlink:href="#font_0_3" transform="matrix(9.4645,0,0,-9.4645,12.243083,53.39026)" fill="#f58000"/>
<path transform="matrix(.1,0,0,-.1,0,262.49)" stroke-width="3.98" stroke-linecap="butt" stroke-miterlimit="10" stroke-linejoin="miter" fill="none" stroke="#f58000" d="M 175.621 2113.62 L 204.012 2113.62 "/>
<use xlink:href="#font_0_6" transform="matrix(9.4645,0,0,-9.4645,20.533703,51.544679)" fill="#f58000"/>
<use xlink:href="#font_0_2" transform="matrix(9.4645,0,0,-9.4645,23.373053,51.544679)" fill="#f58000"/>
<use xlink:href="#font_0_3" transform="matrix(9.4645,0,0,-9.4645,28.805678,53.39026)" fill="#f58000"/>
<use xlink:href="#font_0_2" transform="matrix(9.4645,0,0,-9.4645,33.89758,51.544679)" fill="#f58000"/>
<path transform="matrix(.1,0,0,-.1,0,262.49)" stroke-width="3.98" stroke-linecap="butt" stroke-miterlimit="10" stroke-linejoin="miter" fill="none" stroke="#f58000" d="M 393.871 2113.62 L 422.262 2113.62 "/>
<use xlink:href="#font_0_8" transform="matrix(9.4645,0,0,-9.4645,42.282987,51.326997)" fill="#f58000"/>
<use xlink:href="#font_0_d" transform="matrix(9.4645,0,0,-9.4645,49.343454,51.544679)" fill="#f58000"/>
<use xlink:href="#font_0_5" transform="matrix(9.4645,0,0,-9.4645,54.54893,51.544679)" fill="#f58000"/>
<use xlink:href="#font_0_6" transform="matrix(9.4645,0,0,-9.4645,59.091894,51.544679)" fill="#f58000"/>
<path transform="matrix(.1,0,0,-.1,0,262.49)" d="M 1182.5 1377.95 C 1182.5 1393.61 1169.82 1406.3 1154.16 1406.3 C 1138.5 1406.3 1125.81 1393.61 1125.81 1377.95 C 1125.81 1362.3 1138.5 1349.61 1154.16 1349.61 C 1169.82 1349.61 1182.5 1362.3 1182.5 1377.95 Z M 1154.16 1377.95 " fill="#f58000"/>
<use xlink:href="#font_0_3" transform="matrix(9.4645,0,0,-9.4645,50.613084,136.95325)" fill="#f58000"/>
<path transform="matrix(.1,0,0,-.1,0,262.49)" stroke-width="3.98" stroke-linecap="butt" stroke-miterlimit="10" stroke-linejoin="miter" fill="none" stroke="#f58000" d="M 559.32 1277.99 L 587.711 1277.99 "/>
<symbol id="font_0_11">
<path d="M .08400001 .72900006 L 0 .72900006 L 0 0 L .08400001 0 L .08400001 .72900006 Z "/>
</symbol>
<use xlink:href="#font_0_5" transform="matrix(9.4645,0,0,-9.4645,59.093694,135.10767)" fill="#f58000"/>
<use xlink:href="#font_0_11" transform="matrix(9.4645,0,0,-9.4645,64.147739,134.88999)" fill="#f58000"/>
<use xlink:href="#font_0_9" transform="matrix(9.4645,0,0,-9.4645,66.00278,135.10767)" fill="#f58000"/>
<use xlink:href="#font_0_a" transform="matrix(9.4645,0,0,-9.4645,71.37862,135.10767)" fill="#f58000"/>
<use xlink:href="#font_0_6" transform="matrix(9.4645,0,0,-9.4645,76.26229,135.10767)" fill="#f58000"/>
<use xlink:href="#font_0_2" transform="matrix(9.4645,0,0,-9.4645,79.10165,135.10767)" fill="#f58000"/>
<use xlink:href="#font_0_3" transform="matrix(9.4645,0,0,-9.4645,84.53427,136.95325)" fill="#f58000"/>
<path transform="matrix(.1,0,0,-.1,0,262.49)" stroke-width="3.98" stroke-linecap="butt" stroke-miterlimit="10" stroke-linejoin="miter" fill="none" stroke="#f58000" d="M 898.531 1277.99 L 926.922 1277.99 "/>
<use xlink:href="#font_0_8" transform="matrix(9.4645,0,0,-9.4645,92.748989,134.88999)" fill="#f58000"/>
<use xlink:href="#font_0_d" transform="matrix(9.4645,0,0,-9.4645,99.80945,135.10767)" fill="#f58000"/>
<use xlink:href="#font_0_5" transform="matrix(9.4645,0,0,-9.4645,105.01492,135.10767)" fill="#f58000"/>
<use xlink:href="#font_0_6" transform="matrix(9.4645,0,0,-9.4645,109.557888,135.10767)" fill="#f58000"/>
<path transform="matrix(.1,0,0,-.1,0,262.49)" d="M 1522.71 1377.95 C 1522.71 1393.61 1510.02 1406.3 1494.36 1406.3 C 1478.71 1406.3 1466.02 1393.61 1466.02 1377.95 C 1466.02 1362.3 1478.71 1349.61 1494.36 1349.61 C 1510.02 1349.61 1522.71 1362.3 1522.71 1377.95 Z M 1494.36 1377.95 " fill="#f58000"/>
<use xlink:href="#font_0_3" transform="matrix(9.4645,0,0,-9.4645,153.29708,136.95325)" fill="#f58000"/>
<path transform="matrix(.1,0,0,-.1,0,262.49)" stroke-width="3.98" stroke-linecap="butt" stroke-miterlimit="10" stroke-linejoin="miter" fill="none" stroke="#f58000" d="M 1586.16 1277.99 L 1614.55 1277.99 "/>
<use xlink:href="#font_0_5" transform="matrix(9.4645,0,0,-9.4645,161.7768,135.10767)" fill="#f58000"/>
<use xlink:href="#font_0_11" transform="matrix(9.4645,0,0,-9.4645,166.83084,134.88999)" fill="#f58000"/>
<use xlink:href="#font_0_9" transform="matrix(9.4645,0,0,-9.4645,168.68589,135.10767)" fill="#f58000"/>
<use xlink:href="#font_0_a" transform="matrix(9.4645,0,0,-9.4645,174.06172,135.10767)" fill="#f58000"/>
<use xlink:href="#font_0_a" transform="matrix(9.4645,0,0,-9.4645,179.22937,135.10767)" fill="#f58000"/>
<use xlink:href="#font_0_2" transform="matrix(9.4645,0,0,-9.4645,184.32129,135.10767)" fill="#f58000"/>
<use xlink:href="#font_0_6" transform="matrix(9.4645,0,0,-9.4645,189.37534,135.10767)" fill="#f58000"/>
<path transform="matrix(.1,0,0,-.1,0,262.49)" stroke-width="3.98" stroke-linecap="butt" stroke-miterlimit="10" stroke-linejoin="miter" fill="none" stroke="#f58000" d="M 1924.41 1277.99 L 1952.8 1277.99 "/>
<use xlink:href="#font_0_8" transform="matrix(9.4645,0,0,-9.4645,195.3378,134.88999)" fill="#f58000"/>
<use xlink:href="#font_0_d" transform="matrix(9.4645,0,0,-9.4645,202.39827,135.10767)" fill="#f58000"/>
<use xlink:href="#font_0_5" transform="matrix(9.4645,0,0,-9.4645,207.60375,135.10767)" fill="#f58000"/>
<use xlink:href="#font_0_6" transform="matrix(9.4645,0,0,-9.4645,212.14672,135.10767)" fill="#f58000"/>
<path transform="matrix(.1,0,0,-.1,0,262.49)" d="M 4079.9 1944.96 C 4079.9 1960.61 4067.21 1973.3 4051.55 1973.3 C 4035.9 1973.3 4023.21 1960.61 4023.21 1944.96 C 4023.21 1929.3 4035.9 1916.61 4051.55 1916.61 C 4067.21 1916.61 4079.9 1929.3 4079.9 1944.96 Z M 4051.55 1944.96 " fill="#f58000"/>
<use xlink:href="#font_0_3" transform="matrix(9.4645,0,0,-9.4645,409.02809,80.24925)" fill="#f58000"/>
<path transform="matrix(.1,0,0,-.1,0,262.49)" stroke-width="3.98" stroke-linecap="butt" stroke-miterlimit="10" stroke-linejoin="miter" fill="none" stroke="#f58000" d="M 4143.47 1845.03 L 4171.86 1845.03 "/>
<use xlink:href="#font_0_5" transform="matrix(9.4645,0,0,-9.4645,417.50883,78.40367)" fill="#f58000"/>
<use xlink:href="#font_0_11" transform="matrix(9.4645,0,0,-9.4645,422.56285,78.18599)" fill="#f58000"/>
<use xlink:href="#font_0_9" transform="matrix(9.4645,0,0,-9.4645,424.41789,78.40367)" fill="#f58000"/>
<use xlink:href="#font_0_a" transform="matrix(9.4645,0,0,-9.4645,429.7937,78.40367)" fill="#f58000"/>
<use xlink:href="#font_0_a" transform="matrix(9.4645,0,0,-9.4645,434.96134,78.40367)" fill="#f58000"/>
<use xlink:href="#font_0_2" transform="matrix(9.4645,0,0,-9.4645,440.05326,78.40367)" fill="#f58000"/>
<use xlink:href="#font_0_6" transform="matrix(9.4645,0,0,-9.4645,445.1073,78.40367)" fill="#f58000"/>
<path transform="matrix(.1,0,0,-.1,0,262.49)" stroke-width="3.98" stroke-linecap="butt" stroke-miterlimit="10" stroke-linejoin="miter" fill="none" stroke="#f58000" d="M 4481.73 1845.03 L 4510.12 1845.03 "/>
<use xlink:href="#font_0_d" transform="matrix(9.4645,0,0,-9.4645,451.39057,78.40367)" fill="#f58000"/>
<use xlink:href="#font_0_9" transform="matrix(9.4645,0,0,-9.4645,456.67179,78.40367)" fill="#f58000"/>
<use xlink:href="#font_0_5" transform="matrix(9.4645,0,0,-9.4645,461.85835,78.40367)" fill="#f58000"/>
<use xlink:href="#font_0_6" transform="matrix(9.4645,0,0,-9.4645,466.40129,78.40367)" fill="#f58000"/>
<path transform="matrix(.1,0,0,-.1,0,262.49)" d="M 677.871 1944.96 C 677.871 1960.61 665.18 1973.3 649.523 1973.3 C 633.867 1973.3 621.176 1960.61 621.176 1944.96 C 621.176 1929.3 633.867 1916.61 649.523 1916.61 C 665.18 1916.61 677.871 1929.3 677.871 1944.96 Z M 649.523 1944.96 " fill="#f58000"/>
<use xlink:href="#font_0_3" transform="matrix(9.4645,0,0,-9.4645,6.989993,80.24925)" fill="#f58000"/>
<path transform="matrix(.1,0,0,-.1,0,262.49)" stroke-width="3.98" stroke-linecap="butt" stroke-miterlimit="10" stroke-linejoin="miter" fill="none" stroke="#f58000" d="M 123.09 1845.03 L 151.48 1845.03 "/>
<symbol id="font_0_12">
<path d="M 0 .52400007 L 0 0 L .084000017 0 L .084000017 .32900004 C .084000017 .40500004 .139 .46600003 .20700002 .46600003 C .26900003 .46600003 .30400003 .42800004 .30400003 .36100004 L .30400003 0 L .38800005 0 L .38800005 .32900004 C .38800005 .40500004 .44300003 .46600003 .51100006 .46600003 C .572 .46600003 .60800006 .42700003 .60800006 .36100004 L .60800006 0 L .69200006 0 L .69200006 .393 C .69200006 .48700003 .638 .53900006 .54 .53900006 C .47000004 .53900006 .42800004 .518 .37900005 .45900003 C .34800003 .51500007 .30600003 .53900006 .23800004 .53900006 C .16800002 .53900006 .122 .513 .077 .45000003 L .077 .52400007 L 0 .52400007 Z "/>
</symbol>
<symbol id="font_0_e">
<path d="M 0 .72900006 L 0 0 L .08300001 0 L .08300001 .289 C .08300001 .39600004 .139 .46600003 .22500003 .46600003 C .25200004 .46600003 .279 .45700003 .29900003 .44200004 C .323 .425 .33300004 .4 .33300004 .363 L .33300004 0 L .41600005 0 L .41600005 .39600004 C .41600005 .48400004 .35300002 .53900006 .25100003 .53900006 C .17700002 .53900006 .132 .51600006 .08300001 .45200003 L .08300001 .72900006 L 0 .72900006 Z "/>
</symbol>
<use xlink:href="#font_0_12" transform="matrix(9.4645,0,0,-9.4645,15.811315,78.18599)" fill="#f58000"/>
<use xlink:href="#font_0_2" transform="matrix(9.4645,0,0,-9.4645,23.373452,78.40367)" fill="#f58000"/>
<use xlink:href="#font_0_e" transform="matrix(9.4645,0,0,-9.4645,28.957509,78.18599)" fill="#f58000"/>
<use xlink:href="#font_0_2" transform="matrix(9.4645,0,0,-9.4645,33.897977,78.40367)" fill="#f58000"/>
<path transform="matrix(.1,0,0,-.1,0,262.49)" stroke-width="3.98" stroke-linecap="butt" stroke-miterlimit="10" stroke-linejoin="miter" fill="none" stroke="#f58000" d="M 393.871 1845.03 L 422.262 1845.03 "/>
<use xlink:href="#font_0_8" transform="matrix(9.4645,0,0,-9.4645,42.282987,78.18599)" fill="#f58000"/>
<use xlink:href="#font_0_d" transform="matrix(9.4645,0,0,-9.4645,49.343454,78.40367)" fill="#f58000"/>
<use xlink:href="#font_0_5" transform="matrix(9.4645,0,0,-9.4645,54.54893,78.40367)" fill="#f58000"/>
<use xlink:href="#font_0_6" transform="matrix(9.4645,0,0,-9.4645,59.091894,78.40367)" fill="#f58000"/>
<path transform="matrix(.1,0,0,-.1,0,262.49)" d="M 2356.49 1944.96 C 2356.49 1960.61 2343.8 1973.3 2328.14 1973.3 C 2312.49 1973.3 2299.8 1960.61 2299.8 1944.96 C 2299.8 1929.3 2312.49 1916.61 2328.14 1916.61 C 2343.8 1916.61 2356.49 1929.3 2356.49 1944.96 Z M 2328.14 1944.96 " fill="#f58000"/>
<use xlink:href="#font_0_3" transform="matrix(9.4645,0,0,-9.4645,163.71108,64.73125)" fill="#f58000"/>
<path transform="matrix(.1,0,0,-.1,0,262.49)" stroke-width="3.98" stroke-linecap="butt" stroke-miterlimit="10" stroke-linejoin="miter" fill="none" stroke="#f58000" d="M 1690.3 2000.22 L 1718.69 2000.22 "/>
<use xlink:href="#font_0_5" transform="matrix(9.4645,0,0,-9.4645,172.19179,62.885667)" fill="#f58000"/>
<use xlink:href="#font_0_11" transform="matrix(9.4645,0,0,-9.4645,177.24584,62.667985)" fill="#f58000"/>
<use xlink:href="#font_0_9" transform="matrix(9.4645,0,0,-9.4645,179.10088,62.885667)" fill="#f58000"/>
<use xlink:href="#font_0_a" transform="matrix(9.4645,0,0,-9.4645,184.47672,62.885667)" fill="#f58000"/>
<use xlink:href="#font_0_6" transform="matrix(9.4645,0,0,-9.4645,189.36042,62.885667)" fill="#f58000"/>
<use xlink:href="#font_0_2" transform="matrix(9.4645,0,0,-9.4645,192.19977,62.885667)" fill="#f58000"/>
<use xlink:href="#font_0_3" transform="matrix(9.4645,0,0,-9.4645,197.63239,64.73125)" fill="#f58000"/>
<path transform="matrix(.1,0,0,-.1,0,262.49)" stroke-width="3.98" stroke-linecap="butt" stroke-miterlimit="10" stroke-linejoin="miter" fill="none" stroke="#f58000" d="M 2029.51 2000.22 L 2057.9 2000.22 "/>
<use xlink:href="#font_0_12" transform="matrix(9.4645,0,0,-9.4645,206.45252,62.667985)" fill="#f58000"/>
<use xlink:href="#font_0_2" transform="matrix(9.4645,0,0,-9.4645,214.01465,62.885667)" fill="#f58000"/>
<use xlink:href="#font_0_e" transform="matrix(9.4645,0,0,-9.4645,219.59871,62.667985)" fill="#f58000"/>
<use xlink:href="#font_0_2" transform="matrix(9.4645,0,0,-9.4645,224.53919,62.885667)" fill="#f58000"/>
<path transform="matrix(.1,0,0,-.1,0,262.49)" d="M 2139.33 1879.75 C 2139.33 1895.41 2126.64 1908.1 2110.98 1908.1 C 2095.32 1908.1 2082.63 1895.41 2082.63 1879.75 C 2082.63 1864.1 2095.32 1851.41 2110.98 1851.41 C 2126.64 1851.41 2139.33 1864.1 2139.33 1879.75 Z M 2110.98 1879.75 " fill="#f58000"/>
<use xlink:href="#font_0_3" transform="matrix(9.4645,0,0,-9.4645,124.125087,79.011249)" fill="#f58000"/>
<path transform="matrix(.1,0,0,-.1,0,262.49)" stroke-width="3.98" stroke-linecap="butt" stroke-miterlimit="10" stroke-linejoin="miter" fill="none" stroke="#f58000" d="M 1294.44 1857.41 L 1322.83 1857.41 "/>
<use xlink:href="#font_0_5" transform="matrix(9.4645,0,0,-9.4645,132.6048,77.165668)" fill="#f58000"/>
<use xlink:href="#font_0_11" transform="matrix(9.4645,0,0,-9.4645,137.65885,76.94798)" fill="#f58000"/>
<use xlink:href="#font_0_9" transform="matrix(9.4645,0,0,-9.4645,139.51389,77.165668)" fill="#f58000"/>
<use xlink:href="#font_0_a" transform="matrix(9.4645,0,0,-9.4645,144.88973,77.165668)" fill="#f58000"/>
<use xlink:href="#font_0_6" transform="matrix(9.4645,0,0,-9.4645,149.77342,77.165668)" fill="#f58000"/>
<use xlink:href="#font_0_2" transform="matrix(9.4645,0,0,-9.4645,152.61278,77.165668)" fill="#f58000"/>
<use xlink:href="#font_0_3" transform="matrix(9.4645,0,0,-9.4645,158.0454,79.011249)" fill="#f58000"/>
<path transform="matrix(.1,0,0,-.1,0,262.49)" stroke-width="3.98" stroke-linecap="butt" stroke-miterlimit="10" stroke-linejoin="miter" fill="none" stroke="#f58000" d="M 1633.64 1857.41 L 1662.03 1857.41 "/>
<symbol id="font_0_b">
<path d="M .44000004 .37100003 C .43600003 .42200003 .42500005 .455 .40500004 .48400004 C .36900003 .53300008 .30600003 .56200006 .233 .56200006 C .092 .56200006 0 .45000003 0 .27600003 C 0 .10700001 .09 0 .23200001 0 C .35700003 0 .43600003 .075 .44600005 .20300001 L .36200003 .20300001 C .34800003 .119 .30500005 .07700001 .23400001 .07700001 C .142 .07700001 .087000008 .15200001 .087000008 .27600003 C .087000008 .407 .141 .485 .23200001 .485 C .30200003 .485 .34600003 .44400005 .35600005 .37100003 L .44000004 .37100003 Z "/>
</symbol>
<symbol id="font_0_f">
<path d="M .08400001 .52400007 L .001000002 .52400007 L .001000002 0 L .08400001 0 L .08400001 .52400007 M .08400001 .72900006 L 0 .72900006 L 0 .624 L .08400001 .624 L .08400001 .72900006 Z "/>
</symbol>
<use xlink:href="#font_0_b" transform="matrix(9.4645,0,0,-9.4645,166.49739,77.165668)" fill="#f58000"/>
<use xlink:href="#font_0_2" transform="matrix(9.4645,0,0,-9.4645,171.27698,77.165668)" fill="#f58000"/>
<use xlink:href="#font_0_5" transform="matrix(9.4645,0,0,-9.4645,176.52031,77.165668)" fill="#f58000"/>
<use xlink:href="#font_0_d" transform="matrix(9.4645,0,0,-9.4645,181.30936,77.165668)" fill="#f58000"/>
<use xlink:href="#font_0_f" transform="matrix(9.4645,0,0,-9.4645,186.8177,76.94798)" fill="#f58000"/>
<use xlink:href="#font_0_5" transform="matrix(9.4645,0,0,-9.4645,188.61595,77.165668)" fill="#f58000"/>
<use xlink:href="#font_0_12" transform="matrix(9.4645,0,0,-9.4645,193.68894,76.94798)" fill="#f58000"/>
<use xlink:href="#font_0_f" transform="matrix(9.4645,0,0,-9.4645,201.535,76.94798)" fill="#f58000"/>
<use xlink:href="#font_0_b" transform="matrix(9.4645,0,0,-9.4645,203.30486,77.165668)" fill="#f58000"/>
<path transform="matrix(.1,0,0,-.1,0,262.49)" d="M 2848.37 2058.36 C 2848.37 2074.02 2835.68 2086.71 2820.02 2086.71 C 2804.36 2086.71 2791.67 2074.02 2791.67 2058.36 C 2791.67 2042.7 2804.36 2030.01 2820.02 2030.01 C 2835.68 2030.01 2848.37 2042.7 2848.37 2058.36 Z M 2820.02 2058.36 " fill="#f58000"/>
<use xlink:href="#font_0_3" transform="matrix(9.4645,0,0,-9.4645,254.11708,53.39026)" fill="#f58000"/>
<path transform="matrix(.1,0,0,-.1,0,262.49)" stroke-width="3.98" stroke-linecap="butt" stroke-miterlimit="10" stroke-linejoin="miter" fill="none" stroke="#f58000" d="M 2594.36 2113.62 L 2622.75 2113.62 "/>
<use xlink:href="#font_0_6" transform="matrix(9.4645,0,0,-9.4645,262.4085,51.544679)" fill="#f58000"/>
<use xlink:href="#font_0_2" transform="matrix(9.4645,0,0,-9.4645,265.24787,51.544679)" fill="#f58000"/>
<use xlink:href="#font_0_3" transform="matrix(9.4645,0,0,-9.4645,270.68049,53.39026)" fill="#f58000"/>
<use xlink:href="#font_0_2" transform="matrix(9.4645,0,0,-9.4645,275.7724,51.544679)" fill="#f58000"/>
<path transform="matrix(.1,0,0,-.1,0,262.49)" stroke-width="3.98" stroke-linecap="butt" stroke-miterlimit="10" stroke-linejoin="miter" fill="none" stroke="#f58000" d="M 2812.61 2113.62 L 2841 2113.62 "/>
<symbol id="font_0_4">
<path d="M 0 .52400007 L 0 0 L .08400001 0 L .08400001 .272 C .08400001 .347 .103 .39600004 .143 .425 C .169 .44400005 .194 .45000003 .252 .45100004 L .252 .536 C .238 .53800007 .231 .53900006 .22 .53900006 C .16600001 .53900006 .125 .507 .07700001 .42900003 L .07700001 .52400007 L 0 .52400007 Z "/>
</symbol>
<symbol id="font_0_1">
<path d="M 0 .52400007 L 0 0 L .084000017 0 L .084000017 .289 C .084000017 .39600004 .14000002 .46600003 .22600001 .46600003 C .29200004 .46600003 .33400003 .42600004 .33400003 .363 L .33400003 0 L .41700004 0 L .41700004 .39600004 C .41700004 .483 .35200004 .53900006 .25100003 .53900006 C .17300001 .53900006 .123 .509 .077 .43600003 L .077 .52400007 L 0 .52400007 Z "/>
</symbol>
<use xlink:href="#font_0_6" transform="matrix(9.4645,0,0,-9.4645,284.23353,51.544679)" fill="#f58000"/>
<use xlink:href="#font_0_4" transform="matrix(9.4645,0,0,-9.4645,287.3852,51.326997)" fill="#f58000"/>
<use xlink:href="#font_0_d" transform="matrix(9.4645,0,0,-9.4645,290.2624,51.544679)" fill="#f58000"/>
<use xlink:href="#font_0_1" transform="matrix(9.4645,0,0,-9.4645,295.8086,51.326997)" fill="#f58000"/>
<use xlink:href="#font_0_b" transform="matrix(9.4645,0,0,-9.4645,300.70176,51.544679)" fill="#f58000"/>
<use xlink:href="#font_0_e" transform="matrix(9.4645,0,0,-9.4645,305.8031,51.326997)" fill="#f58000"/>
<use xlink:href="#font_0_b" transform="matrix(9.4645,0,0,-9.4645,224.6994,237.17368)" fill="#1f6e96"/>
<path transform="matrix(.1,0,0,-.1,0,262.49)" stroke-width="3.98" stroke-linecap="butt" stroke-miterlimit="10" stroke-linejoin="miter" fill="none" stroke="#1f6e96" d="M 2297.07 257.34 L 2325.46 257.34 "/>
<use xlink:href="#font_0_a" transform="matrix(9.4645,0,0,-9.4645,233.05709,237.17368)" fill="#1f6e96"/>
<use xlink:href="#font_0_2" transform="matrix(9.4645,0,0,-9.4645,238.149,237.17368)" fill="#1f6e96"/>
<use xlink:href="#font_0_6" transform="matrix(9.4645,0,0,-9.4645,243.20305,237.17368)" fill="#1f6e96"/>
<path transform="matrix(.1,0,0,-.1,0,262.49)" stroke-width="9.9628" stroke-linecap="butt" stroke-miterlimit="10" stroke-linejoin="miter" fill="none" stroke="#1f6e96" d="M 2214.49 399.762 L 2401.96 399.762 "/>
<path transform="matrix(.1,0,0,-.1,0,262.49)" d="M 2463.68 399.762 C 2456.1 401.453 2422.78 411.031 2401.96 421.457 L 2401.96 378.07 C 2422.78 388.492 2456.1 398.074 2463.68 399.762 " fill="#1f6e96"/>
<path transform="matrix(.1,0,0,-.1,0,262.49)" stroke-width="9.9628" stroke-linecap="butt" stroke-miterlimit="10" stroke-linejoin="miter" fill="none" stroke="#1f6e96" d="M 2463.68 399.762 C 2456.1 401.453 2422.78 411.031 2401.96 421.457 L 2401.96 378.07 C 2422.78 388.492 2456.1 398.074 2463.68 399.762 Z "/>
<use xlink:href="#font_0_b" transform="matrix(0,-9.4645,-9.4645,-0,415.5727,176.0044)" fill="#1f6e96"/>
<path transform="matrix(.1,0,0,-.1,0,262.49)" stroke-width="3.98" stroke-linecap="butt" stroke-miterlimit="10" stroke-linejoin="miter" fill="none" stroke="#1f6e96" d="M 4151.55 914.918 L 4151.55 943.309 "/>
<use xlink:href="#font_0_d" transform="matrix(0,-9.4645,-9.4645,-0,415.5727,167.7794)" fill="#1f6e96"/>
<use xlink:href="#font_0_9" transform="matrix(0,-9.4645,-9.4645,-0,415.5727,162.49822)" fill="#1f6e96"/>
<use xlink:href="#font_0_5" transform="matrix(0,-9.4645,-9.4645,-0,415.5727,157.31168)" fill="#1f6e96"/>
<use xlink:href="#font_0_6" transform="matrix(0,-9.4645,-9.4645,-0,415.5727,152.7687)" fill="#1f6e96"/>
<path transform="matrix(.1,0,0,-.1,0,262.49)" stroke-width="3.98" stroke-linecap="butt" stroke-miterlimit="10" stroke-linejoin="miter" fill="none" stroke="#1f6e96" d="M 4151.55 1127.87 L 4151.55 1156.26 "/>
<use xlink:href="#font_0_12" transform="matrix(0,-9.4645,-9.4645,-0,415.355,146.20047)" fill="#1f6e96"/>
<use xlink:href="#font_0_9" transform="matrix(0,-9.4645,-9.4645,-0,415.5727,138.58156)" fill="#1f6e96"/>
<use xlink:href="#font_0_1" transform="matrix(0,-9.4645,-9.4645,-0,415.355,133.05428)" fill="#1f6e96"/>
<use xlink:href="#font_0_6" transform="matrix(0,-9.4645,-9.4645,-0,415.5727,128.32202)" fill="#1f6e96"/>
<use xlink:href="#font_0_11" transform="matrix(0,-9.4645,-9.4645,-0,415.355,125.17981)" fill="#1f6e96"/>
<use xlink:href="#font_0_d" transform="matrix(0,-9.4645,-9.4645,-0,415.5727,123.3437)" fill="#1f6e96"/>
<path transform="matrix(.1,0,0,-.1,0,262.49)" stroke-width="9.9628" stroke-linecap="butt" stroke-miterlimit="10" stroke-linejoin="miter" fill="none" stroke="#1f6e96" d="M 4009.14 1015.05 L 4009.14 1202.52 "/>
<path transform="matrix(.1,0,0,-.1,0,262.49)" d="M 4009.14 1264.23 C 4007.45 1256.66 3997.87 1223.34 3987.44 1202.52 L 4030.83 1202.52 C 4020.41 1223.34 4010.83 1256.66 4009.14 1264.23 " fill="#1f6e96"/>
<path transform="matrix(.1,0,0,-.1,0,262.49)" stroke-width="9.9628" stroke-linecap="butt" stroke-miterlimit="10" stroke-linejoin="miter" fill="none" stroke="#1f6e96" d="M 4009.14 1264.23 C 4007.45 1256.66 3997.87 1223.34 3987.44 1202.52 L 4030.83 1202.52 C 4020.41 1223.34 4010.83 1256.66 4009.14 1264.23 Z "/>
<use xlink:href="#font_0_b" transform="matrix(0,-9.4645,-9.4645,-0,404.21669,54.424589)" fill="#1f6e96"/>
<path transform="matrix(.1,0,0,-.1,0,262.49)" stroke-width="3.98" stroke-linecap="butt" stroke-miterlimit="10" stroke-linejoin="miter" fill="none" stroke="#1f6e96" d="M 4038 2130.72 L 4038 2159.11 "/>
<use xlink:href="#font_0_d" transform="matrix(0,-9.4645,-9.4645,-0,404.21669,46.19941)" fill="#1f6e96"/>
<use xlink:href="#font_0_9" transform="matrix(0,-9.4645,-9.4645,-0,404.21669,40.91821)" fill="#1f6e96"/>
<use xlink:href="#font_0_5" transform="matrix(0,-9.4645,-9.4645,-0,404.21669,35.73166)" fill="#1f6e96"/>
<use xlink:href="#font_0_6" transform="matrix(0,-9.4645,-9.4645,-0,404.21669,31.188694)" fill="#1f6e96"/>
<path transform="matrix(.1,0,0,-.1,0,262.49)" stroke-width="3.98" stroke-linecap="butt" stroke-miterlimit="10" stroke-linejoin="miter" fill="none" stroke="#1f6e96" d="M 4038 2343.67 L 4038 2372.06 "/>
<symbol id="font_0_7">
<path d="M .41700004 .023000002 L .41700004 .54700008 L .33400003 .54700008 L .33400003 .25 C .33400003 .143 .27800004 .073 .19100002 .073 C .125 .073 .083 .113000009 .083 .17600002 L .083 .54700008 L 0 .54700008 L 0 .143 C 0 .056 .065000008 0 .167 0 C .24400002 0 .293 .027000003 .342 .09600001 L .342 .023000002 L .41700004 .023000002 Z "/>
</symbol>
<use xlink:href="#font_0_b" transform="matrix(0,-9.4645,-9.4645,-0,404.21669,24.98959)" fill="#1f6e96"/>
<use xlink:href="#font_0_4" transform="matrix(0,-9.4645,-9.4645,-0,403.999,19.897685)" fill="#1f6e96"/>
<use xlink:href="#font_0_7" transform="matrix(0,-9.4645,-9.4645,-0,404.21669,16.642025)" fill="#1f6e96"/>
<use xlink:href="#font_0_5" transform="matrix(0,-9.4645,-9.4645,-0,404.21669,11.673157)" fill="#1f6e96"/>
<use xlink:href="#font_0_6" transform="matrix(0,-9.4645,-9.4645,-0,404.21669,7.1301925)" fill="#1f6e96"/>
<path transform="matrix(.1,0,0,-.1,0,262.49)" stroke-width="9.9628" stroke-linecap="butt" stroke-miterlimit="10" stroke-linejoin="miter" fill="none" stroke="#1f6e96" d="M 4009.14 1933.66 L 4009.14 1985.02 "/>
<path transform="matrix(.1,0,0,-.1,0,262.49)" d="M 4009.14 2046.74 C 4007.45 2039.16 3997.87 2005.85 3987.44 1985.02 L 4030.83 1985.02 C 4020.41 2005.85 4010.83 2039.16 4009.14 2046.74 " fill="#1f6e96"/>
<path transform="matrix(.1,0,0,-.1,0,262.49)" stroke-width="9.9628" stroke-linecap="butt" stroke-miterlimit="10" stroke-linejoin="miter" fill="none" stroke="#1f6e96" d="M 4009.14 2046.74 C 4007.45 2039.16 3997.87 2005.85 3987.44 1985.02 L 4030.83 1985.02 C 4020.41 2005.85 4010.83 2039.16 4009.14 2046.74 Z "/>
<use xlink:href="#font_0_b" transform="matrix(9.4645,0,0,-9.4645,344.5834,51.544679)" fill="#1f6e96"/>
<path transform="matrix(.1,0,0,-.1,0,262.49)" stroke-width="3.98" stroke-linecap="butt" stroke-miterlimit="10" stroke-linejoin="miter" fill="none" stroke="#1f6e96" d="M 3495.9 2113.62 L 3524.29 2113.62 "/>
<use xlink:href="#font_0_6" transform="matrix(9.4645,0,0,-9.4645,352.5615,51.544679)" fill="#1f6e96"/>
<use xlink:href="#font_0_2" transform="matrix(9.4645,0,0,-9.4645,355.40086,51.544679)" fill="#1f6e96"/>
<use xlink:href="#font_0_3" transform="matrix(9.4645,0,0,-9.4645,360.83348,53.39026)" fill="#1f6e96"/>
<use xlink:href="#font_0_2" transform="matrix(9.4645,0,0,-9.4645,365.92539,51.544679)" fill="#1f6e96"/>
<path transform="matrix(.1,0,0,-.1,0,262.49)" stroke-width="3.98" stroke-linecap="butt" stroke-miterlimit="10" stroke-linejoin="miter" fill="none" stroke="#1f6e96" d="M 3714.14 2113.62 L 3742.53 2113.62 "/>
<use xlink:href="#font_0_d" transform="matrix(9.4645,0,0,-9.4645,374.63258,51.544679)" fill="#1f6e96"/>
<use xlink:href="#font_0_9" transform="matrix(9.4645,0,0,-9.4645,379.9138,51.544679)" fill="#1f6e96"/>
<use xlink:href="#font_0_5" transform="matrix(9.4645,0,0,-9.4645,385.10035,51.544679)" fill="#1f6e96"/>
<use xlink:href="#font_0_6" transform="matrix(9.4645,0,0,-9.4645,389.64329,51.544679)" fill="#1f6e96"/>
<path transform="matrix(.1,0,0,-.1,0,262.49)" stroke-width="9.9628" stroke-linecap="butt" stroke-miterlimit="10" stroke-linejoin="miter" fill="none" stroke="#1f6e96" d="M 3546.12 2015.84 L 3733.59 2015.84 "/>
<path transform="matrix(.1,0,0,-.1,0,262.49)" d="M 3795.31 2015.84 C 3787.73 2017.53 3754.41 2027.11 3733.59 2037.53 L 3733.59 1994.14 C 3754.41 2004.57 3787.73 2014.15 3795.31 2015.84 " fill="#1f6e96"/>
<path transform="matrix(.1,0,0,-.1,0,262.49)" stroke-width="9.9628" stroke-linecap="butt" stroke-miterlimit="10" stroke-linejoin="miter" fill="none" stroke="#1f6e96" d="M 3795.31 2015.84 C 3787.73 2017.53 3754.41 2027.11 3733.59 2037.53 L 3733.59 1994.14 C 3754.41 2004.57 3787.73 2014.15 3795.31 2015.84 Z "/>
<use xlink:href="#font_0_b" transform="matrix(9.4645,0,0,-9.4645,116.545398,51.544679)" fill="#1f6e96"/>
<path transform="matrix(.1,0,0,-.1,0,262.49)" stroke-width="3.98" stroke-linecap="butt" stroke-miterlimit="10" stroke-linejoin="miter" fill="none" stroke="#1f6e96" d="M 1215.52 2113.62 L 1243.91 2113.62 "/>
<use xlink:href="#font_0_6" transform="matrix(9.4645,0,0,-9.4645,124.5245,51.544679)" fill="#1f6e96"/>
<use xlink:href="#font_0_2" transform="matrix(9.4645,0,0,-9.4645,127.36385,51.544679)" fill="#1f6e96"/>
<use xlink:href="#font_0_3" transform="matrix(9.4645,0,0,-9.4645,132.79648,53.39026)" fill="#1f6e96"/>
<use xlink:href="#font_0_2" transform="matrix(9.4645,0,0,-9.4645,137.8884,51.544679)" fill="#1f6e96"/>
<path transform="matrix(.1,0,0,-.1,0,262.49)" stroke-width="3.98" stroke-linecap="butt" stroke-miterlimit="10" stroke-linejoin="miter" fill="none" stroke="#1f6e96" d="M 1433.77 2113.62 L 1462.16 2113.62 "/>
<use xlink:href="#font_0_8" transform="matrix(9.4645,0,0,-9.4645,146.27379,51.326997)" fill="#1f6e96"/>
<use xlink:href="#font_0_d" transform="matrix(9.4645,0,0,-9.4645,153.33426,51.544679)" fill="#1f6e96"/>
<use xlink:href="#font_0_5" transform="matrix(9.4645,0,0,-9.4645,158.53974,51.544679)" fill="#1f6e96"/>
<use xlink:href="#font_0_6" transform="matrix(9.4645,0,0,-9.4645,163.0827,51.544679)" fill="#1f6e96"/>
<path transform="matrix(.1,0,0,-.1,0,262.49)" stroke-width="9.9628" stroke-linecap="butt" stroke-miterlimit="10" stroke-linejoin="miter" fill="none" stroke="#1f6e96" d="M 1273.11 2015.84 L 1460.57 2015.84 "/>
<path transform="matrix(.1,0,0,-.1,0,262.49)" d="M 1522.29 2015.84 C 1514.71 2017.53 1481.39 2027.11 1460.57 2037.53 L 1460.57 1994.14 C 1481.39 2004.57 1514.71 2014.15 1522.29 2015.84 " fill="#1f6e96"/>
<path transform="matrix(.1,0,0,-.1,0,262.49)" stroke-width="9.9628" stroke-linecap="butt" stroke-miterlimit="10" stroke-linejoin="miter" fill="none" stroke="#1f6e96" d="M 1522.29 2015.84 C 1514.71 2017.53 1481.39 2027.11 1460.57 2037.53 L 1460.57 1994.14 C 1481.39 2004.57 1514.71 2014.15 1522.29 2015.84 Z "/>
<use xlink:href="#font_0_b" transform="matrix(0,9.4645,9.4645,0,65.89132,3.449375)" fill="#1f6e96"/>
<path transform="matrix(.1,0,0,-.1,0,262.49)" stroke-width="3.98" stroke-linecap="butt" stroke-miterlimit="10" stroke-linejoin="miter" fill="none" stroke="#1f6e96" d="M 663.078 2540.34 L 663.078 2511.95 "/>
<use xlink:href="#font_0_8" transform="matrix(0,9.4645,9.4645,0,66.109,11.351769)" fill="#1f6e96"/>
<use xlink:href="#font_0_d" transform="matrix(0,9.4645,9.4645,0,65.89132,18.412241)" fill="#1f6e96"/>
<use xlink:href="#font_0_5" transform="matrix(0,9.4645,9.4645,0,65.89132,23.617722)" fill="#1f6e96"/>
<use xlink:href="#font_0_6" transform="matrix(0,9.4645,9.4645,0,65.89132,28.160687)" fill="#1f6e96"/>
<path transform="matrix(.1,0,0,-.1,0,262.49)" stroke-width="3.98" stroke-linecap="butt" stroke-miterlimit="10" stroke-linejoin="miter" fill="none" stroke="#1f6e96" d="M 663.078 2312.63 L 663.078 2284.24 "/>
<use xlink:href="#font_0_b" transform="matrix(0,9.4645,9.4645,0,65.89132,34.359395)" fill="#1f6e96"/>
<use xlink:href="#font_0_4" transform="matrix(0,9.4645,9.4645,0,66.109,39.451299)" fill="#1f6e96"/>
<use xlink:href="#font_0_7" transform="matrix(0,9.4645,9.4645,0,65.89132,42.70696)" fill="#1f6e96"/>
<use xlink:href="#font_0_5" transform="matrix(0,9.4645,9.4645,0,65.89132,47.675828)" fill="#1f6e96"/>
<use xlink:href="#font_0_6" transform="matrix(0,9.4645,9.4645,0,65.89132,52.218793)" fill="#1f6e96"/>
<path transform="matrix(.1,0,0,-.1,0,262.49)" stroke-width="9.9628" stroke-linecap="butt" stroke-miterlimit="10" stroke-linejoin="miter" fill="none" stroke="#1f6e96" d="M 691.941 1933.66 L 691.941 1985.02 "/>
<path transform="matrix(.1,0,0,-.1,0,262.49)" d="M 691.941 2046.74 C 690.254 2039.16 680.672 2005.85 670.25 1985.02 L 713.637 1985.02 C 703.215 2005.85 693.633 2039.16 691.941 2046.74 " fill="#1f6e96"/>
<path transform="matrix(.1,0,0,-.1,0,262.49)" stroke-width="9.9628" stroke-linecap="butt" stroke-miterlimit="10" stroke-linejoin="miter" fill="none" stroke="#1f6e96" d="M 691.941 2046.74 C 690.254 2039.16 680.672 2005.85 670.25 1985.02 L 713.637 1985.02 C 703.215 2005.85 693.633 2039.16 691.941 2046.74 Z "/>
<use xlink:href="#font_0_b" transform="matrix(0,9.4645,9.4645,0,54.534318,149.76938)" fill="#1f6e96"/>
<path transform="matrix(.1,0,0,-.1,0,262.49)" stroke-width="3.98" stroke-linecap="butt" stroke-miterlimit="10" stroke-linejoin="miter" fill="none" stroke="#1f6e96" d="M 549.512 1077.13 L 549.512 1048.74 "/>
<use xlink:href="#font_0_8" transform="matrix(0,9.4645,9.4645,0,54.752,157.67279)" fill="#1f6e96"/>
<use xlink:href="#font_0_d" transform="matrix(0,9.4645,9.4645,0,54.534318,164.73325)" fill="#1f6e96"/>
<use xlink:href="#font_0_5" transform="matrix(0,9.4645,9.4645,0,54.534318,169.9387)" fill="#1f6e96"/>
<use xlink:href="#font_0_6" transform="matrix(0,9.4645,9.4645,0,54.534318,174.48168)" fill="#1f6e96"/>
<path transform="matrix(.1,0,0,-.1,0,262.49)" stroke-width="3.98" stroke-linecap="butt" stroke-miterlimit="10" stroke-linejoin="miter" fill="none" stroke="#1f6e96" d="M 549.512 849.422 L 549.512 821.031 "/>
<use xlink:href="#font_0_12" transform="matrix(0,9.4645,9.4645,0,54.752,181.04941)" fill="#1f6e96"/>
<use xlink:href="#font_0_9" transform="matrix(0,9.4645,9.4645,0,54.534318,188.66832)" fill="#1f6e96"/>
<use xlink:href="#font_0_1" transform="matrix(0,9.4645,9.4645,0,54.752,194.1956)" fill="#1f6e96"/>
<use xlink:href="#font_0_6" transform="matrix(0,9.4645,9.4645,0,54.534318,198.92784)" fill="#1f6e96"/>
<use xlink:href="#font_0_11" transform="matrix(0,9.4645,9.4645,0,54.752,202.07006)" fill="#1f6e96"/>
<use xlink:href="#font_0_d" transform="matrix(0,9.4645,9.4645,0,54.534318,203.90618)" fill="#1f6e96"/>
<path transform="matrix(.1,0,0,-.1,0,262.49)" stroke-width="9.9628" stroke-linecap="butt" stroke-miterlimit="10" stroke-linejoin="miter" fill="none" stroke="#1f6e96" d="M 691.941 697.508 L 691.941 884.977 "/>
<path transform="matrix(.1,0,0,-.1,0,262.49)" d="M 691.941 946.699 C 690.254 939.117 680.672 905.801 670.25 884.977 L 713.637 884.977 C 703.215 905.801 693.633 939.117 691.941 946.699 " fill="#1f6e96"/>
<path transform="matrix(.1,0,0,-.1,0,262.49)" stroke-width="9.9628" stroke-linecap="butt" stroke-miterlimit="10" stroke-linejoin="miter" fill="none" stroke="#1f6e96" d="M 691.941 946.699 C 690.254 939.117 680.672 905.801 670.25 884.977 L 713.637 884.977 C 703.215 905.801 693.633 939.117 691.941 946.699 Z "/>
<use xlink:href="#font_0_b" transform="matrix(9.4645,0,0,-9.4645,75.2774,78.40367)" fill="#1f6e96"/>
<path transform="matrix(.1,0,0,-.1,0,262.49)" stroke-width="3.98" stroke-linecap="butt" stroke-miterlimit="10" stroke-linejoin="miter" fill="none" stroke="#1f6e96" d="M 802.84 1845.03 L 831.23 1845.03 "/>
<use xlink:href="#font_0_b" transform="matrix(9.4645,0,0,-9.4645,83.4172,78.40367)" fill="#1f6e96"/>
<use xlink:href="#font_0_2" transform="matrix(9.4645,0,0,-9.4645,88.19677,78.40367)" fill="#1f6e96"/>
<use xlink:href="#font_0_1" transform="matrix(9.4645,0,0,-9.4645,93.78082,78.18599)" fill="#1f6e96"/>
<use xlink:href="#font_0_12" transform="matrix(9.4645,0,0,-9.4645,99.04308,78.18599)" fill="#1f6e96"/>
<use xlink:href="#font_0_2" transform="matrix(9.4645,0,0,-9.4645,106.60522,78.40367)" fill="#1f6e96"/>
<use xlink:href="#font_0_e" transform="matrix(9.4645,0,0,-9.4645,112.18927,78.18599)" fill="#1f6e96"/>
<use xlink:href="#font_0_2" transform="matrix(9.4645,0,0,-9.4645,117.12974,78.40367)" fill="#1f6e96"/>
<path transform="matrix(.1,0,0,-.1,0,262.49)" stroke-width="9.9628" stroke-linecap="butt" stroke-miterlimit="10" stroke-linejoin="miter" fill="none" stroke="#1f6e96" d="M 849.109 1987.48 L 1036.58 1987.48 "/>
<path transform="matrix(.1,0,0,-.1,0,262.49)" d="M 1098.3 1987.48 C 1090.72 1989.16 1057.4 1998.75 1036.58 2009.17 L 1036.58 1965.78 C 1057.4 1976.21 1090.72 1985.79 1098.3 1987.48 " fill="#1f6e96"/>
<path transform="matrix(.1,0,0,-.1,0,262.49)" stroke-width="9.9628" stroke-linecap="butt" stroke-miterlimit="10" stroke-linejoin="miter" fill="none" stroke="#1f6e96" d="M 1098.3 1987.48 C 1090.72 1989.16 1057.4 1998.75 1036.58 2009.17 L 1036.58 1965.78 C 1057.4 1976.21 1090.72 1985.79 1098.3 1987.48 Z "/>
<use xlink:href="#font_0_b" transform="matrix(8.196547,-4.7322509,-4.7322509,-8.196547,193.14093,109.18381)" fill="#1f6e96"/>
<path transform="matrix(.1,0,0,-.1,0,262.49)" stroke-width="3.98002" stroke-linecap="butt" stroke-miterlimit="10" stroke-linejoin="miter" fill="none" stroke="#1f6e96" d="M 1972.68 1561.71 L 1997.27 1575.91 "/>
<use xlink:href="#font_0_5" transform="matrix(8.196547,-4.7322509,-4.7322509,-8.196547,200.21453,105.09962)" fill="#1f6e96"/>
<use xlink:href="#font_0_11" transform="matrix(8.196547,-4.7322509,-4.7322509,-8.196547,204.48262,102.38408)" fill="#1f6e96"/>
<use xlink:href="#font_0_9" transform="matrix(8.196547,-4.7322509,-4.7322509,-8.196547,206.198,101.64509)" fill="#1f6e96"/>
<use xlink:href="#font_0_a" transform="matrix(8.196547,-4.7322509,-4.7322509,-8.196547,210.85364,98.95716)" fill="#1f6e96"/>
<use xlink:href="#font_0_a" transform="matrix(8.196547,-4.7322509,-4.7322509,-8.196547,215.32889,96.37339)" fill="#1f6e96"/>
<use xlink:href="#font_0_2" transform="matrix(8.196547,-4.7322509,-4.7322509,-8.196547,219.73863,93.82744)" fill="#1f6e96"/>
<use xlink:href="#font_0_6" transform="matrix(8.196547,-4.7322509,-4.7322509,-8.196547,224.11559,91.300418)" fill="#1f6e96"/>
<path transform="matrix(.1,0,0,-.1,0,262.49)" stroke-width="9.9628" stroke-linecap="butt" stroke-miterlimit="10" stroke-linejoin="miter" fill="none" stroke="#1f6e96" d="M 1904.7 1686.94 L 2067.05 1780.67 "/>
<path transform="matrix(.1,0,0,-.1,0,262.49)" d="M 2120.5 1811.53 C 2113.09 1809.21 2079.45 1800.84 2056.2 1799.46 L 2077.89 1761.89 C 2090.71 1781.32 2114.78 1806.28 2120.5 1811.53 " fill="#1f6e96"/>
<path transform="matrix(.1,0,0,-.1,0,262.49)" stroke-width="9.96257" stroke-linecap="butt" stroke-miterlimit="10" stroke-linejoin="miter" fill="none" stroke="#1f6e96" d="M 2120.5 1811.53 C 2113.09 1809.21 2079.45 1800.84 2056.2 1799.46 L 2077.89 1761.89 C 2090.71 1781.32 2114.78 1806.28 2120.5 1811.53 Z "/>
<use xlink:href="#font_0_b" transform="matrix(8.196547,-4.7322509,-4.7322509,-8.196547,137.31594,123.58081)" fill="#1f6e96"/>
<path transform="matrix(.1,0,0,-.1,0,262.49)" stroke-width="3.98002" stroke-linecap="butt" stroke-miterlimit="10" stroke-linejoin="miter" fill="none" stroke="#1f6e96" d="M 1414.43 1417.73 L 1439.02 1431.93 "/>
<use xlink:href="#font_0_5" transform="matrix(8.196547,-4.7322509,-4.7322509,-8.196547,144.38953,119.49761)" fill="#1f6e96"/>
<use xlink:href="#font_0_11" transform="matrix(8.196547,-4.7322509,-4.7322509,-8.196547,148.65763,116.782077)" fill="#1f6e96"/>
<use xlink:href="#font_0_9" transform="matrix(8.196547,-4.7322509,-4.7322509,-8.196547,150.37299,116.04308)" fill="#1f6e96"/>
<use xlink:href="#font_0_a" transform="matrix(8.196547,-4.7322509,-4.7322509,-8.196547,155.02863,113.355159)" fill="#1f6e96"/>
<use xlink:href="#font_0_6" transform="matrix(8.196547,-4.7322509,-4.7322509,-8.196547,159.25804,110.913318)" fill="#1f6e96"/>
<use xlink:href="#font_0_2" transform="matrix(8.196547,-4.7322509,-4.7322509,-8.196547,161.71701,109.49364)" fill="#1f6e96"/>
<use xlink:href="#font_0_3" transform="matrix(8.196547,-4.7322509,-4.7322509,-8.196547,167.34462,108.37565)" fill="#1f6e96"/>
<path transform="matrix(.1,0,0,-.1,0,262.49)" stroke-width="3.98002" stroke-linecap="butt" stroke-miterlimit="10" stroke-linejoin="miter" fill="none" stroke="#1f6e96" d="M 1708.19 1587.33 L 1732.78 1601.53 "/>
<use xlink:href="#font_0_12" transform="matrix(8.196547,-4.7322509,-4.7322509,-8.196547,173.95177,102.17773)" fill="#1f6e96"/>
<use xlink:href="#font_0_9" transform="matrix(8.196547,-4.7322509,-4.7322509,-8.196547,180.65883,98.556789)" fill="#1f6e96"/>
<use xlink:href="#font_0_1" transform="matrix(8.196547,-4.7322509,-4.7322509,-8.196547,185.33678,95.60462)" fill="#1f6e96"/>
<use xlink:href="#font_0_6" transform="matrix(8.196547,-4.7322509,-4.7322509,-8.196547,189.54389,93.42702)" fill="#1f6e96"/>
<use xlink:href="#font_0_11" transform="matrix(8.196547,-4.7322509,-4.7322509,-8.196547,192.1563,91.66739)" fill="#1f6e96"/>
<use xlink:href="#font_0_d" transform="matrix(8.196547,-4.7322509,-4.7322509,-8.196547,193.85529,90.93786)" fill="#1f6e96"/>
<path transform="matrix(.1,0,0,-.1,0,262.49)" stroke-width="9.9628" stroke-linecap="butt" stroke-miterlimit="10" stroke-linejoin="miter" fill="none" stroke="#1f6e96" d="M 1484.59 1622.72 L 1646.94 1716.46 "/>
<path transform="matrix(.1,0,0,-.1,0,262.49)" d="M 1700.39 1747.32 C 1692.98 1744.99 1659.34 1736.63 1636.09 1735.25 L 1657.79 1697.67 C 1670.61 1717.11 1694.67 1742.06 1700.39 1747.32 " fill="#1f6e96"/>
<path transform="matrix(.1,0,0,-.1,0,262.49)" stroke-width="9.96257" stroke-linecap="butt" stroke-miterlimit="10" stroke-linejoin="miter" fill="none" stroke="#1f6e96" d="M 1700.39 1747.32 C 1692.98 1744.99 1659.34 1736.63 1636.09 1735.25 L 1657.79 1697.67 C 1670.61 1717.11 1694.67 1742.06 1700.39 1747.32 Z "/>
<use xlink:href="#font_0_b" transform="matrix(9.142045,-2.4496029,-2.4496029,-9.142045,230.09973,80.41833)" fill="#1f6e96"/>
<path transform="matrix(.1,0,0,-.1,0,262.49)" stroke-width="3.98002" stroke-linecap="butt" stroke-miterlimit="10" stroke-linejoin="miter" fill="none" stroke="#1f6e96" d="M 2348.28 1837.7 L 2375.7 1845.05 "/>
<use xlink:href="#font_0_5" transform="matrix(9.142045,-2.4496029,-2.4496029,-9.142045,237.98917,78.30397)" fill="#1f6e96"/>
<use xlink:href="#font_0_11" transform="matrix(9.142045,-2.4496029,-2.4496029,-9.142045,242.81468,76.78561)" fill="#1f6e96"/>
<use xlink:href="#font_0_9" transform="matrix(9.142045,-2.4496029,-2.4496029,-9.142045,244.66287,76.515758)" fill="#1f6e96"/>
<use xlink:href="#font_0_a" transform="matrix(9.142045,-2.4496029,-2.4496029,-9.142045,249.85556,75.124378)" fill="#1f6e96"/>
<use xlink:href="#font_0_6" transform="matrix(9.142045,-2.4496029,-2.4496029,-9.142045,254.57285,73.860378)" fill="#1f6e96"/>
<use xlink:href="#font_0_2" transform="matrix(9.142045,-2.4496029,-2.4496029,-9.142045,257.31547,73.125499)" fill="#1f6e96"/>
<use xlink:href="#font_0_3" transform="matrix(9.142045,-2.4496029,-2.4496029,-9.142045,263.04066,73.50212)" fill="#1f6e96"/>
<path transform="matrix(.1,0,0,-.1,0,262.49)" stroke-width="3.98002" stroke-linecap="butt" stroke-miterlimit="10" stroke-linejoin="miter" fill="none" stroke="#1f6e96" d="M 2675.92 1925.49 L 2703.35 1932.84 "/>
<use xlink:href="#font_0_b" transform="matrix(9.142045,-2.4496029,-2.4496029,-9.142045,270.72676,69.532329)" fill="#1f6e96"/>
<use xlink:href="#font_0_4" transform="matrix(9.142045,-2.4496029,-2.4496029,-9.142045,275.5888,68.004169)" fill="#1f6e96"/>
<use xlink:href="#font_0_7" transform="matrix(9.142045,-2.4496029,-2.4496029,-9.142045,278.78996,67.371799)" fill="#1f6e96"/>
<use xlink:href="#font_0_5" transform="matrix(9.142045,-2.4496029,-2.4496029,-9.142045,283.5895,66.085758)" fill="#1f6e96"/>
<use xlink:href="#font_0_6" transform="matrix(9.142045,-2.4496029,-2.4496029,-9.142045,287.9777,64.909938)" fill="#1f6e96"/>
<path transform="matrix(.1,0,0,-.1,0,262.49)" stroke-width="9.9628" stroke-linecap="butt" stroke-miterlimit="10" stroke-linejoin="miter" fill="none" stroke="#1f6e96" d="M 2431.68 2007.52 L 2612.76 2056.04 "/>
<path transform="matrix(.1,0,0,-.1,0,262.49)" d="M 2672.38 2072.01 C 2664.61 2071.68 2629.95 2072.32 2607.14 2077 L 2618.37 2035.09 C 2635.79 2050.54 2665.49 2068.42 2672.38 2072.01 " fill="#1f6e96"/>
<path transform="matrix(.1,0,0,-.1,0,262.49)" stroke-width="9.96277" stroke-linecap="butt" stroke-miterlimit="10" stroke-linejoin="miter" fill="none" stroke="#1f6e96" d="M 2672.38 2072.01 C 2664.61 2071.68 2629.95 2072.32 2607.14 2077 L 2618.37 2035.09 C 2635.79 2050.54 2665.49 2068.42 2672.38 2072.01 Z "/>
<use xlink:href="#font_0_b" transform="matrix(9.4645,0,0,-9.4645,110.36939,140.77667)" fill="#1f6e96"/>
<path transform="matrix(.1,0,0,-.1,0,262.49)" stroke-width="3.98" stroke-linecap="butt" stroke-miterlimit="10" stroke-linejoin="miter" fill="none" stroke="#1f6e96" d="M 1153.76 1221.3 L 1182.15 1221.3 "/>
<use xlink:href="#font_0_5" transform="matrix(9.4645,0,0,-9.4645,118.53679,140.77667)" fill="#1f6e96"/>
<use xlink:href="#font_0_11" transform="matrix(9.4645,0,0,-9.4645,123.590839,140.55899)" fill="#1f6e96"/>
<use xlink:href="#font_0_9" transform="matrix(9.4645,0,0,-9.4645,125.44588,140.77667)" fill="#1f6e96"/>
<use xlink:href="#font_0_a" transform="matrix(9.4645,0,0,-9.4645,130.82172,140.77667)" fill="#1f6e96"/>
<path transform="matrix(.1,0,0,-.1,0,262.49)" stroke-width="3.98" stroke-linecap="butt" stroke-miterlimit="10" stroke-linejoin="miter" fill="none" stroke="#1f6e96" d="M 1361.41 1221.3 L 1389.8 1221.3 "/>
<symbol id="font_0_c">
<path d="M .46900005 .75200006 L .38600005 .75200006 L .38600005 .48100005 C .351 .53400006 .29500003 .56200006 .22500003 .56200006 C .089 .56200006 0 .453 0 .286 C 0 .109000008 .087000008 0 .22800002 0 C .3 0 .35000003 .027000003 .39500005 .09200001 L .39500005 .023000002 L .46900005 .023000002 L .46900005 .75200006 M .23900002 .48400004 C .32900004 .48400004 .38600005 .404 .38600005 .279 C .38600005 .158 .328 .07800001 .24000001 .07800001 C .148 .07800001 .087000008 .15900001 .087000008 .28100003 C .087000008 .40300004 .148 .48400004 .23900002 .48400004 Z "/>
</symbol>
<use xlink:href="#font_0_d" transform="matrix(9.4645,0,0,-9.4645,139.35858,140.77667)" fill="#1f6e96"/>
<use xlink:href="#font_0_1" transform="matrix(9.4645,0,0,-9.4645,144.90479,140.55899)" fill="#1f6e96"/>
<use xlink:href="#font_0_c" transform="matrix(9.4645,0,0,-9.4645,149.75061,140.77667)" fill="#1f6e96"/>
<path transform="matrix(.1,0,0,-.1,0,262.49)" stroke-width="9.9628" stroke-linecap="butt" stroke-miterlimit="10" stroke-linejoin="miter" fill="none" stroke="#1f6e96" d="M 1256.2 1335.39 L 1307.57 1335.39 "/>
<path transform="matrix(.1,0,0,-.1,0,262.49)" d="M 1369.29 1335.39 C 1361.71 1337.08 1328.39 1346.66 1307.57 1357.08 L 1307.57 1313.7 C 1328.39 1324.12 1361.71 1333.7 1369.29 1335.39 " fill="#1f6e96"/>
<path transform="matrix(.1,0,0,-.1,0,262.49)" stroke-width="9.9628" stroke-linecap="butt" stroke-miterlimit="10" stroke-linejoin="miter" fill="none" stroke="#1f6e96" d="M 1369.29 1335.39 C 1361.71 1337.08 1328.39 1346.66 1307.57 1357.08 L 1307.57 1313.7 C 1328.39 1324.12 1361.71 1333.7 1369.29 1335.39 Z "/>
<path transform="matrix(.1,0,0,-.1,0,262.49)" stroke-width="9.9628" stroke-linecap="butt" stroke-miterlimit="10" stroke-linejoin="miter" fill="none" stroke="#808080" d="M 649.523 187.242 L 4136.97 187.242 "/>
<path transform="matrix(.1,0,0,-.1,0,262.49)" d="M 4198.7 187.242 C 4191.12 188.934 4157.8 198.512 4136.97 208.938 L 4136.97 165.547 C 4157.8 175.973 4191.12 185.551 4198.7 187.242 " fill="#808080"/>
<path transform="matrix(.1,0,0,-.1,0,262.49)" stroke-width="9.9628" stroke-linecap="butt" stroke-miterlimit="10" stroke-linejoin="miter" fill="none" stroke="#808080" d="M 4198.7 187.242 C 4191.12 188.934 4157.8 198.512 4136.97 208.938 L 4136.97 165.547 C 4157.8 175.973 4191.12 185.551 4198.7 187.242 Z "/>
<symbol id="font_1_1">
<path d="M .33900003 .272 L .51500007 .54 L .347 .54 L .26000003 .377 L .172 .54 L .0040000008 .54 L .18 .272 L 0 0 L .16800002 0 L .26000003 .16800002 L .351 0 L .51900008 0 L .33900003 .272 Z "/>
</symbol>
<use xlink:href="#font_1_1" transform="matrix(9.4645,0,0,-9.4645,425.66844,246.28099)" fill="#808080"/>
<path transform="matrix(.1,0,0,-.1,0,262.49)" stroke-width="9.9628" stroke-linecap="butt" stroke-miterlimit="10" stroke-linejoin="miter" fill="none" stroke="#808080" d="M 649.523 187.242 L 649.523 144.73 "/>
<symbol id="font_2_1">
<path d="M .57600006 0 C .59300008 0 .611 0 .611 .019999996 C .611 .040000008 .59300008 .040000008 .57600006 .040000008 L .035000005 .040000008 C .018 .040000008 0 .040000008 0 .019999996 C 0 0 .018 0 .035000005 0 L .57600006 0 Z "/>
</symbol>
<use xlink:href="#font_2_1" transform="matrix(9.9626,0,0,-9.9626,47.337797,256.2134)" fill="#808080"/>
<symbol id="font_3_2">
<path d="M .089999999 .35000003 L .089999999 .37400005 C .089999999 .62700006 .21400002 .66300007 .26500003 .66300007 C .28900004 .66300007 .33100004 .65700009 .35300002 .623 C .33800004 .623 .298 .623 .298 .57800009 C .298 .54700008 .32200004 .53200009 .344 .53200009 C .36 .53200009 .39000003 .54100009 .39000003 .58000007 C .39000003 .64000007 .34600003 .688 .263 .688 C .13499999 .688 0 .559 0 .33800004 C 0 .071 .116000007 0 .20900002 0 C .32000003 0 .41500003 .094000007 .41500003 .22600001 C .41500003 .35300005 .32600004 .44900004 .215 .44900004 C .14700002 .44900004 .11000001 .39800004 .089999999 .35000003 M .20900002 .028 C .146 .028 .116000007 .088 .11000001 .103 C .092 .15 .092 .23 .092 .24800001 C .092 .32600004 .124000009 .42600004 .21400002 .42600004 C .23000002 .42600004 .27600003 .42600004 .307 .36400003 C .32500003 .32700003 .32500003 .27600003 .32500003 .22700002 C .32500003 .179 .32500003 .12900001 .30800004 .093 C .27800004 .033000005 .23200003 .028 .20900002 .028 Z "/>
</symbol>
<symbol id="font_3_1">
<path d="M .421 .34200005 C .421 .42200003 .416 .50200006 .381 .57600006 C .335 .67200008 .25300003 .688 .211 .688 C .15100001 .688 .07800001 .66200008 .037000006 .56900009 C .0050000029 .5 0 .42200003 0 .34200005 C 0 .26700003 .0040000008 .177 .045000007 .101 C .088 .020000002 .161 0 .21000001 0 C .264 0 .34 .021000002 .384 .116000007 C .416 .185 .421 .263 .421 .34200005 M .21000001 .022000002 C .171 .022000002 .112 .047000003 .094 .143 C .083000008 .20300001 .083000008 .29500003 .083000008 .35400004 C .083000008 .41800005 .083000008 .48400004 .091000009 .53800007 C .11 .65700009 .185 .66600009 .21000001 .66600009 C .243 .66600009 .30900003 .64800009 .328 .549 C .338 .49300004 .338 .41700004 .338 .35400004 C .338 .279 .338 .21100001 .32700003 .147 C .312 .052 .255 .022000002 .21000001 .022000002 Z "/>
</symbol>
<use xlink:href="#font_3_2" transform="matrix(9.9626,0,0,-9.9626,54.678548,258.724)" fill="#808080"/>
<use xlink:href="#font_3_1" transform="matrix(9.9626,0,0,-9.9626,59.62996,258.724)" fill="#808080"/>
<use xlink:href="#font_3_1" transform="matrix(9.9626,0,0,-9.9626,64.61126,258.724)" fill="#808080"/>
<symbol id="font_0_10">
<path d="M .083000008 .72900006 L 0 .72900006 L 0 0 L .083000008 0 L .083000008 .20400001 L .16400002 .284 L .34100003 0 L .44400005 0 L .23000002 .34300003 L .41200004 .52400007 L .305 .52400007 L .083000008 .30200003 L .083000008 .72900006 Z "/>
</symbol>
<use xlink:href="#font_0_10" transform="matrix(9.4645,0,0,-9.4645,71.330959,258.50483)" fill="#808080"/>
<use xlink:href="#font_0_12" transform="matrix(9.4645,0,0,-9.4645,76.17678,258.50483)" fill="#808080"/>
<path transform="matrix(.1,0,0,-.1,0,262.49)" stroke-width="9.9628" stroke-linecap="butt" stroke-miterlimit="10" stroke-linejoin="miter" fill="none" stroke="#808080" d="M 4051.35 187.242 L 4051.35 144.73 "/>
<use xlink:href="#font_3_2" transform="matrix(9.9626,0,0,-9.9626,390.98243,258.724)" fill="#808080"/>
<use xlink:href="#font_3_1" transform="matrix(9.9626,0,0,-9.9626,395.93385,258.724)" fill="#808080"/>
<use xlink:href="#font_3_1" transform="matrix(9.9626,0,0,-9.9626,400.91514,258.724)" fill="#808080"/>
<use xlink:href="#font_0_10" transform="matrix(9.4645,0,0,-9.4645,407.63404,258.50483)" fill="#808080"/>
<use xlink:href="#font_0_12" transform="matrix(9.4645,0,0,-9.4645,412.47984,258.50483)" fill="#808080"/>
<path transform="matrix(.1,0,0,-.1,0,262.49)" stroke-width="9.9628" stroke-linecap="butt" stroke-miterlimit="10" stroke-linejoin="miter" fill="none" stroke="#808080" d="M 479.422 357.344 L 479.422 2143.78 "/>
<path transform="matrix(.1,0,0,-.1,0,262.49)" d="M 479.422 2205.5 C 477.73 2197.92 468.152 2164.6 457.727 2143.78 L 501.117 2143.78 C 490.691 2164.6 481.113 2197.92 479.422 2205.5 " fill="#808080"/>
<path transform="matrix(.1,0,0,-.1,0,262.49)" stroke-width="9.9628" stroke-linecap="butt" stroke-miterlimit="10" stroke-linejoin="miter" fill="none" stroke="#808080" d="M 479.422 2205.5 C 477.73 2197.92 468.152 2164.6 457.727 2143.78 L 501.117 2143.78 C 490.691 2164.6 481.113 2197.92 479.422 2205.5 Z "/>
<symbol id="font_1_2">
<path d="M .38500003 .75900009 L .273 .366 L .154 .75900009 L 0 .75900009 L .201 .19700001 L .201 .19600001 L .201 .19300002 C .201 .142 .163 .10300001 .114 .10300001 C .103 .10300001 .095 .10400001 .077 .109000008 L .077 .004000008 C .098000008 .001000002 .11 0 .127 0 C .162 0 .20400001 .0069999995 .22800002 .017000005 C .26700003 .033000009 .284 .05600001 .307 .120000008 L .52900007 .75900009 L .38500003 .75900009 Z "/>
</symbol>
<use xlink:href="#font_1_2" transform="matrix(9.4645,0,0,-9.4645,45.39928,36.370718)" fill="#808080"/>
<path transform="matrix(.1,0,0,-.1,0,262.49)" stroke-width="9.9628" stroke-linecap="butt" stroke-miterlimit="10" stroke-linejoin="miter" fill="none" stroke="#808080" d="M 479.422 357.344 L 436.91 357.344 "/>
<use xlink:href="#font_2_1" transform="matrix(9.9626,0,0,-9.9626,3.981976,227.46579)" fill="#808080"/>
<use xlink:href="#font_3_2" transform="matrix(9.9626,0,0,-9.9626,11.32156,229.97637)" fill="#808080"/>
<use xlink:href="#font_3_1" transform="matrix(9.9626,0,0,-9.9626,16.272973,229.97637)" fill="#808080"/>
<use xlink:href="#font_3_1" transform="matrix(9.9626,0,0,-9.9626,21.254273,229.97637)" fill="#808080"/>
<use xlink:href="#font_0_10" transform="matrix(9.4645,0,0,-9.4645,27.97397,229.75719)" fill="#808080"/>
<use xlink:href="#font_0_12" transform="matrix(9.4645,0,0,-9.4645,32.819795,229.75719)" fill="#808080"/>
<path transform="matrix(.1,0,0,-.1,0,262.49)" stroke-width="9.9628" stroke-linecap="butt" stroke-miterlimit="10" stroke-linejoin="miter" fill="none" stroke="#808080" d="M 479.422 2058.26 L 436.91 2058.26 "/>
<use xlink:href="#font_3_1" transform="matrix(9.9626,0,0,-9.9626,21.254542,60.30217)" fill="#808080"/>
<use xlink:href="#font_0_10" transform="matrix(9.4645,0,0,-9.4645,27.97392,60.082994)" fill="#808080"/>
<use xlink:href="#font_0_12" transform="matrix(9.4645,0,0,-9.4645,32.819746,60.082994)" fill="#808080"/>
</g>
</svg>
