<?xml version="1.0" encoding="UTF-8" standalone="no"?>
<!DOCTYPE svg PUBLIC "-//W3C//DTD SVG 1.1//EN" "http://www.w3.org/Graphics/SVG/1.1/DTD/svg11.dtd">
<svg xmlns="http://www.w3.org/2000/svg" xmlns:xlink="http://www.w3.org/1999/xlink" version="1.1" width="527.79pt" height="252.02pt" viewBox="0 0 527.79 252.02">
<g enable-background="new">
<path transform="matrix(.1,0,0,-.1,0,252.02)" d="M 945.305 2109.83 L 945.305 1996.43 L 2406.76 1931.22 L 3115.8 2109.83 Z " fill="#5ecc0d"/>
<path transform="matrix(.1,0,0,-.1,0,252.02)" stroke-width="9.9628" stroke-linecap="butt" stroke-miterlimit="10" stroke-linejoin="miter" fill="none" stroke="#1f6e96" d="M 945.305 2109.83 L 945.305 1996.43 L 2406.76 1931.22 L 3115.8 2109.83 Z "/>
<path transform="matrix(.1,0,0,-.1,0,252.02)" d="M 945.305 408.813 L 4347.335 408.813 L 4347.335 1996.433 L 945.305 1996.433 Z " fill="#ffff73"/>
<path transform="matrix(.1,0,0,-.1,0,252.02)" stroke-width="9.9628" stroke-linecap="butt" stroke-miterlimit="10" stroke-linejoin="miter" fill="none" stroke="#1f6e96" d="M 945.305 408.813 L 4347.335 408.813 L 4347.335 1996.433 L 945.305 1996.433 Z "/>
<path transform="matrix(.1,0,0,-.1,0,252.02)" d="M 1790.14 1429.43 C 1790.14 1429.43 2150.73 1657.88 2244.91 1712.95 C 2339.07 1768.02 2395.66 1796.06 2468.86 1826.34 C 2542.06 1856.63 2669.18 1907.63 2772.47 1931.23 C 2875.76 1954.84 2994.78 1987.39 3213.29 1996.44 C 3431.8 2005.48 4347.34 1996.43 4347.34 1996.43 L 4347.34 2109.83 L 3115.8 2109.83 C 3115.8 2109.83 2722.3 2021.21 2623.92 1996.43 C 2525.55 1971.65 2475.48 1954.82 2406.76 1931.22 C 2338.05 1907.63 2198.33 1856.63 2128.68 1826.34 C 2059.02 1796.06 1998.89 1768.02 1904.72 1712.95 C 1810.55 1657.88 1449.94 1429.43 1449.94 1429.43 " fill="#33baff"/>
<path transform="matrix(.1,0,0,-.1,0,252.02)" stroke-width="9.9628" stroke-linecap="butt" stroke-miterlimit="10" stroke-linejoin="miter" fill="none" stroke="#1f6e96" d="M 1790.14 1429.43 C 1790.14 1429.43 2150.73 1657.88 2244.91 1712.95 C 2339.07 1768.02 2395.66 1796.06 2468.86 1826.34 C 2542.06 1856.63 2669.18 1907.63 2772.47 1931.23 C 2875.76 1954.84 2994.78 1987.39 3213.29 1996.44 C 3431.8 2005.48 4347.34 1996.43 4347.34 1996.43 L 4347.34 2109.83 L 3115.8 2109.83 C 3115.8 2109.83 2722.3 2021.21 2623.92 1996.43 C 2525.55 1971.65 2475.48 1954.82 2406.76 1931.22 C 2338.05 1907.63 2198.33 1856.63 2128.68 1826.34 C 2059.02 1796.06 1998.89 1768.02 1904.72 1712.95 C 1810.55 1657.88 1449.94 1429.43 1449.94 1429.43 Z "/>
<path transform="matrix(.1,0,0,-.1,0,252.02)" stroke-width="19.9255" stroke-linecap="butt" stroke-miterlimit="10" stroke-linejoin="miter" fill="none" stroke="#6100ad" d="M 1449.94 1429.43 C 1449.94 1429.43 1810.55 1657.88 1904.72 1712.95 C 1998.89 1768.02 2059.02 1796.06 2128.68 1826.34 C 2198.33 1856.63 2338.05 1907.63 2406.76 1931.22 C 2475.48 1954.82 2525.55 1971.65 2623.92 1996.43 C 2722.3 2021.21 3115.8 2109.83 3115.8 2109.83 "/>
<path transform="matrix(.1,0,0,-.1,0,252.02)" stroke-width="19.9255" stroke-linecap="butt" stroke-miterlimit="10" stroke-linejoin="miter" fill="none" stroke="#6100ad" d="M 1790.14 1429.43 C 1790.14 1429.43 2150.73 1657.88 2244.91 1712.95 C 2339.07 1768.02 2395.66 1796.06 2468.86 1826.34 C 2542.06 1856.63 2669.18 1907.63 2772.47 1931.23 C 2875.76 1954.84 2994.78 1987.39 3213.29 1996.44 C 3431.8 2005.48 4347.34 1996.43 4347.34 1996.43 "/>
<path transform="matrix(.1,0,0,-.1,0,252.02)" stroke-width="9.9628" stroke-linecap="butt" stroke-miterlimit="10" stroke-linejoin="miter" fill="none" stroke="#808080" d="M 945.305 238.711 L 4432.75 238.711 "/>
<path transform="matrix(.1,0,0,-.1,0,252.02)" d="M 4494.47 238.711 C 4486.89 240.402 4453.58 249.98 4432.75 260.406 L 4432.75 217.02 C 4453.58 227.441 4486.89 237.023 4494.47 238.711 " fill="#808080"/>
<path transform="matrix(.1,0,0,-.1,0,252.02)" stroke-width="9.9628" stroke-linecap="butt" stroke-miterlimit="10" stroke-linejoin="miter" fill="none" stroke="#808080" d="M 4494.47 238.711 C 4486.89 240.402 4453.58 249.98 4432.75 260.406 L 4432.75 217.02 C 4453.58 227.441 4486.89 237.023 4494.47 238.711 Z "/>
<symbol id="font_0_1">
<path d="M .33900003 .272 L .51500007 .54 L .347 .54 L .26000003 .377 L .172 .54 L .0040000008 .54 L .18 .272 L 0 0 L .16800002 0 L .26000003 .16800002 L .351 0 L .51900008 0 L .33900003 .272 Z "/>
</symbol>
<use xlink:href="#font_0_1" transform="matrix(9.4645,0,0,-9.4645,455.24644,230.66411)" fill="#808080"/>
<path transform="matrix(.1,0,0,-.1,0,252.02)" stroke-width="9.9628" stroke-linecap="butt" stroke-miterlimit="10" stroke-linejoin="miter" fill="none" stroke="#808080" d="M 945.305 238.711 L 945.305 196.199 "/>
<symbol id="font_1_1">
<path d="M .57600006 0 C .59300008 0 .611 0 .611 .019999996 C .611 .040000008 .59300008 .040000008 .57600006 .040000008 L .035000005 .040000008 C .018 .040000008 0 .040000008 0 .019999996 C 0 0 .018 0 .035000005 0 L .57600006 0 Z "/>
</symbol>
<use xlink:href="#font_1_1" transform="matrix(9.9626,0,0,-9.9626,76.916698,240.59658)" fill="#808080"/>
<symbol id="font_2_2">
<path d="M .089999999 .35000003 L .089999999 .37400005 C .089999999 .62700006 .21400002 .66300007 .26500003 .66300007 C .28900004 .66300007 .33100004 .65700009 .35300002 .623 C .33800004 .623 .298 .623 .298 .57800009 C .298 .54700008 .32200004 .53200009 .344 .53200009 C .36 .53200009 .39000003 .54100009 .39000003 .58000007 C .39000003 .64000007 .34600003 .688 .263 .688 C .13499999 .688 0 .559 0 .33800004 C 0 .071 .116000007 0 .20900002 0 C .32000003 0 .41500003 .094000007 .41500003 .22600001 C .41500003 .35300005 .32600004 .44900004 .215 .44900004 C .14700002 .44900004 .11000001 .39800004 .089999999 .35000003 M .20900002 .028 C .146 .028 .116000007 .088 .11000001 .103 C .092 .15 .092 .23 .092 .24800001 C .092 .32600004 .124000009 .42600004 .21400002 .42600004 C .23000002 .42600004 .27600003 .42600004 .307 .36400003 C .32500003 .32700003 .32500003 .27600003 .32500003 .22700002 C .32500003 .179 .32500003 .12900001 .30800004 .093 C .27800004 .033000005 .23200003 .028 .20900002 .028 Z "/>
</symbol>
<symbol id="font_2_1">
<path d="M .421 .34200005 C .421 .42200003 .416 .50200006 .381 .57600006 C .335 .67200008 .25300003 .688 .211 .688 C .15100001 .688 .07800001 .66200008 .037000006 .56900009 C .0050000029 .5 0 .42200003 0 .34200005 C 0 .26700003 .0040000008 .177 .045000007 .101 C .088 .020000002 .161 0 .21000001 0 C .264 0 .34 .021000002 .384 .116000007 C .416 .185 .421 .263 .421 .34200005 M .21000001 .022000002 C .171 .022000002 .112 .047000003 .094 .143 C .083000008 .20300001 .083000008 .29500003 .083000008 .35400004 C .083000008 .41800005 .083000008 .48400004 .091000009 .53800007 C .11 .65700009 .185 .66600009 .21000001 .66600009 C .243 .66600009 .30900003 .64800009 .328 .549 C .338 .49300004 .338 .41700004 .338 .35400004 C .338 .279 .338 .21100001 .32700003 .147 C .312 .052 .255 .022000002 .21000001 .022000002 Z "/>
</symbol>
<use xlink:href="#font_2_2" transform="matrix(9.9626,0,0,-9.9626,84.25627,243.10715)" fill="#808080"/>
<use xlink:href="#font_2_1" transform="matrix(9.9626,0,0,-9.9626,89.20769,243.10715)" fill="#808080"/>
<use xlink:href="#font_2_1" transform="matrix(9.9626,0,0,-9.9626,94.18899,243.10715)" fill="#808080"/>
<symbol id="font_3_11">
<path d="M .083000008 .72900006 L 0 .72900006 L 0 0 L .083000008 0 L .083000008 .20400001 L .16400002 .284 L .34100003 0 L .44400005 0 L .23000002 .34300003 L .41200004 .52400007 L .305 .52400007 L .083000008 .30200003 L .083000008 .72900006 Z "/>
</symbol>
<symbol id="font_3_13">
<path d="M 0 .52400007 L 0 0 L .084000017 0 L .084000017 .32900004 C .084000017 .40500004 .139 .46600003 .20700002 .46600003 C .26900003 .46600003 .30400003 .42800004 .30400003 .36100004 L .30400003 0 L .38800005 0 L .38800005 .32900004 C .38800005 .40500004 .44300003 .46600003 .51100006 .46600003 C .572 .46600003 .60800006 .42700003 .60800006 .36100004 L .60800006 0 L .69200006 0 L .69200006 .393 C .69200006 .48700003 .638 .53900006 .54 .53900006 C .47000004 .53900006 .42800004 .518 .37900005 .45900003 C .34800003 .51500007 .30600003 .53900006 .23800004 .53900006 C .16800002 .53900006 .122 .513 .077 .45000003 L .077 .52400007 L 0 .52400007 Z "/>
</symbol>
<use xlink:href="#font_3_11" transform="matrix(9.4645,0,0,-9.4645,100.90909,242.88797)" fill="#808080"/>
<use xlink:href="#font_3_13" transform="matrix(9.4645,0,0,-9.4645,105.754909,242.88797)" fill="#808080"/>
<path transform="matrix(.1,0,0,-.1,0,252.02)" stroke-width="9.9628" stroke-linecap="butt" stroke-miterlimit="10" stroke-linejoin="miter" fill="none" stroke="#808080" d="M 4347.13 238.711 L 4347.13 196.199 "/>
<use xlink:href="#font_2_2" transform="matrix(9.9626,0,0,-9.9626,420.56044,243.10715)" fill="#808080"/>
<use xlink:href="#font_2_1" transform="matrix(9.9626,0,0,-9.9626,425.51185,243.10715)" fill="#808080"/>
<use xlink:href="#font_2_1" transform="matrix(9.9626,0,0,-9.9626,430.49314,243.10715)" fill="#808080"/>
<use xlink:href="#font_3_11" transform="matrix(9.4645,0,0,-9.4645,437.21165,242.88797)" fill="#808080"/>
<use xlink:href="#font_3_13" transform="matrix(9.4645,0,0,-9.4645,442.05744,242.88797)" fill="#808080"/>
<path transform="matrix(.1,0,0,-.1,0,252.02)" stroke-width="9.9628" stroke-linecap="butt" stroke-miterlimit="10" stroke-linejoin="miter" fill="none" stroke="#808080" d="M 775.203 408.813 L 775.203 2195.25 "/>
<path transform="matrix(.1,0,0,-.1,0,252.02)" d="M 775.203 2256.97 C 773.512 2249.39 763.934 2216.07 753.508 2195.25 L 796.898 2195.25 C 786.473 2216.07 776.895 2249.39 775.203 2256.97 " fill="#808080"/>
<path transform="matrix(.1,0,0,-.1,0,252.02)" stroke-width="9.9628" stroke-linecap="butt" stroke-miterlimit="10" stroke-linejoin="miter" fill="none" stroke="#808080" d="M 775.203 2256.97 C 773.512 2249.39 763.934 2216.07 753.508 2195.25 L 796.898 2195.25 C 786.473 2216.07 776.895 2249.39 775.203 2256.97 Z "/>
<symbol id="font_0_2">
<path d="M .38500003 .75900009 L .273 .366 L .154 .75900009 L 0 .75900009 L .201 .19700001 L .201 .19600001 L .201 .19300002 C .201 .142 .163 .10300001 .114 .10300001 C .103 .10300001 .095 .10400001 .077 .109000008 L .077 .004000008 C .098000008 .001000002 .11 0 .127 0 C .162 0 .20400001 .0069999995 .22800002 .017000005 C .26700003 .033000009 .284 .05600001 .307 .120000008 L .52900007 .75900009 L .38500003 .75900009 Z "/>
</symbol>
<use xlink:href="#font_0_2" transform="matrix(9.4645,0,0,-9.4645,74.97698,20.753726)" fill="#808080"/>
<path transform="matrix(.1,0,0,-.1,0,252.02)" stroke-width="9.9628" stroke-linecap="butt" stroke-miterlimit="10" stroke-linejoin="miter" fill="none" stroke="#808080" d="M 775.203 408.813 L 732.691 408.813 "/>
<use xlink:href="#font_1_1" transform="matrix(9.9626,0,0,-9.9626,33.559698,211.84851)" fill="#808080"/>
<use xlink:href="#font_2_2" transform="matrix(9.9626,0,0,-9.9626,40.89928,214.35909)" fill="#808080"/>
<use xlink:href="#font_2_1" transform="matrix(9.9626,0,0,-9.9626,45.850694,214.35909)" fill="#808080"/>
<use xlink:href="#font_2_1" transform="matrix(9.9626,0,0,-9.9626,50.831995,214.35909)" fill="#808080"/>
<use xlink:href="#font_3_11" transform="matrix(9.4645,0,0,-9.4645,57.552095,214.13991)" fill="#808080"/>
<use xlink:href="#font_3_13" transform="matrix(9.4645,0,0,-9.4645,62.397916,214.13991)" fill="#808080"/>
<path transform="matrix(.1,0,0,-.1,0,252.02)" stroke-width="9.9628" stroke-linecap="butt" stroke-miterlimit="10" stroke-linejoin="miter" fill="none" stroke="#808080" d="M 775.203 2109.73 L 732.691 2109.73 "/>
<use xlink:href="#font_2_1" transform="matrix(9.9626,0,0,-9.9626,50.83264,44.68518)" fill="#808080"/>
<use xlink:href="#font_3_11" transform="matrix(9.4645,0,0,-9.4645,57.55202,44.466005)" fill="#808080"/>
<use xlink:href="#font_3_13" transform="matrix(9.4645,0,0,-9.4645,62.397844,44.466005)" fill="#808080"/>
<symbol id="font_3_c">
<path d="M .44000004 .37100003 C .43600003 .42200003 .42500005 .455 .40500004 .48400004 C .36900003 .53300008 .30600003 .56200006 .233 .56200006 C .092 .56200006 0 .45000003 0 .27600003 C 0 .10700001 .09 0 .23200001 0 C .35700003 0 .43600003 .075 .44600005 .20300001 L .36200003 .20300001 C .34800003 .119 .30500005 .07700001 .23400001 .07700001 C .142 .07700001 .087000008 .15200001 .087000008 .27600003 C .087000008 .407 .141 .485 .23200001 .485 C .30200003 .485 .34600003 .44400005 .35600005 .37100003 L .44000004 .37100003 Z "/>
</symbol>
<symbol id="font_3_2">
<path d="M .23600002 .56200006 C .089 .56200006 0 .45700003 0 .28100003 C 0 .105000007 .088 0 .237 0 C .384 0 .47400005 .105000007 .47400005 .277 C .47400005 .45800004 .387 .56200006 .23600002 .56200006 M .237 .485 C .331 .485 .387 .40800003 .387 .27800004 C .387 .155 .329 .07700001 .237 .07700001 C .14400001 .07700001 .087 .15400002 .087 .28100003 C .087 .407 .14400001 .485 .237 .485 Z "/>
</symbol>
<symbol id="font_3_1">
<path d="M 0 .52400007 L 0 0 L .084000017 0 L .084000017 .289 C .084000017 .39600004 .14000002 .46600003 .22600001 .46600003 C .29200004 .46600003 .33400003 .42600004 .33400003 .363 L .33400003 0 L .41700004 0 L .41700004 .39600004 C .41700004 .483 .35200004 .53900006 .25100003 .53900006 C .17300001 .53900006 .123 .509 .077 .43600003 L .077 .52400007 L 0 .52400007 Z "/>
</symbol>
<symbol id="font_3_4">
<path d="M 0 .52400007 L 0 0 L .08400001 0 L .08400001 .272 C .08400001 .347 .103 .39600004 .143 .425 C .169 .44400005 .194 .45000003 .252 .45100004 L .252 .536 C .238 .53800007 .231 .53900006 .22 .53900006 C .16600001 .53900006 .125 .507 .07700001 .42900003 L .07700001 .52400007 L 0 .52400007 Z "/>
</symbol>
<symbol id="font_3_7">
<path d="M .41700004 .023000002 L .41700004 .54700008 L .33400003 .54700008 L .33400003 .25 C .33400003 .143 .27800004 .073 .19100002 .073 C .125 .073 .083 .113000009 .083 .17600002 L .083 .54700008 L 0 .54700008 L 0 .143 C 0 .056 .065000008 0 .167 0 C .24400002 0 .293 .027000003 .342 .09600001 L .342 .023000002 L .41700004 .023000002 Z "/>
</symbol>
<symbol id="font_3_5">
<path d="M .404 .40100003 C .403 .50400009 .335 .56200006 .21400002 .56200006 C .092 .56200006 .013 .499 .013 .402 C .013 .32000003 .055 .28100003 .17900002 .25100003 L .257 .23200001 C .315 .21800001 .338 .19700001 .338 .15900001 C .338 .11000001 .289 .07700001 .21599999 .07700001 C .171 .07700001 .13300002 .09 .11200001 .112 C .099 .127 .093 .142 .08800001 .179 L 0 .179 C .0040000008 .058000003 .072000008 0 .20900002 0 C .34100003 0 .425 .065000008 .425 .16600001 C .425 .24400002 .381 .287 .277 .312 L .197 .33100004 C .12900001 .347 .1 .36900003 .1 .40600003 C .1 .45400004 .143 .485 .211 .485 C .278 .485 .314 .45600004 .316 .40100003 L .404 .40100003 Z "/>
</symbol>
<symbol id="font_3_6">
<path d="M .24000001 .54700008 L .15400002 .54700008 L .15400002 .69100007 L .071 .69100007 L .071 .54700008 L 0 .54700008 L 0 .47900004 L .071 .47900004 L .071 .083000008 C .071 .030000002 .10700001 0 .172 0 C .19200002 0 .21200001 .0020000004 .24000001 .007000001 L .24000001 .07700001 C .22900002 .074 .216 .073 .20000002 .073 C .164 .073 .15400002 .083000008 .15400002 .120000008 L .15400002 .47900004 L .24000001 .47900004 L .24000001 .54700008 Z "/>
</symbol>
<symbol id="font_3_e">
<path d="M .47300003 .25700004 C .47300003 .337 .46700005 .38500003 .45200003 .42400003 C .41800005 .51 .33800004 .56200006 .24 .56200006 C .094 .56200006 0 .45000003 0 .27800004 C 0 .106000009 .091000009 0 .23800002 0 C .35800005 0 .44100005 .068 .46200005 .18200001 L .37800003 .18200001 C .35500003 .113000009 .30800004 .07700001 .24100001 .07700001 C .18800001 .07700001 .143 .101 .114999998 .14500001 C .095 .17500001 .088 .20500002 .087 .25700004 L .47300003 .25700004 M .089 .32500003 C .096 .42200003 .155 .485 .23900001 .485 C .32100005 .485 .38400004 .41700004 .38400004 .33100004 C .38400004 .32900004 .38400004 .32700003 .38300003 .32500003 L .089 .32500003 Z "/>
</symbol>
<symbol id="font_3_9">
<path d="M .49300004 .072000008 C .48400004 .07000001 .48000003 .07000001 .47500003 .07000001 C .44600005 .07000001 .43000005 .08500001 .43000005 .11100001 L .43000005 .41900004 C .43000005 .512 .36200003 .56200006 .23300001 .56200006 C .157 .56200006 .094000007 .54 .059 .50100007 C .035000005 .47400005 .024999999 .44400005 .023000002 .39200003 L .107 .39200003 C .114 .45600004 .15200001 .485 .23000002 .485 C .305 .485 .34700004 .45700003 .34700004 .407 L .34700004 .38500003 C .34700004 .35000003 .32600004 .335 .26000003 .32700003 C .14200002 .312 .124000009 .30800004 .092 .29500003 C .031000004 .27 0 .223 0 .155 C 0 .060000004 .066 0 .17200002 0 C .238 0 .291 .023000002 .35000003 .07700001 C .35600005 .024000003 .38200004 0 .43600003 0 C .45300005 0 .46600003 .0020000004 .49300004 .0090000019 L .49300004 .072000008 M .34700004 .18800001 C .34700004 .16000001 .33900003 .143 .314 .120000008 C .28000004 .089 .23900002 .073 .19 .073 C .125 .073 .087000008 .104 .087000008 .157 C .087000008 .21200001 .124000009 .24000001 .21300003 .25300003 C .30100004 .26500003 .31900005 .269 .34700004 .282 L .34700004 .18800001 Z "/>
</symbol>
<symbol id="font_3_12">
<path d="M .08400001 .72900006 L 0 .72900006 L 0 0 L .08400001 0 L .08400001 .72900006 Z "/>
</symbol>
<use xlink:href="#font_3_c" transform="matrix(9.4645,0,0,-9.4645,185.3954,50.01268)"/>
<use xlink:href="#font_3_2" transform="matrix(9.4645,0,0,-9.4645,190.17499,50.01268)"/>
<use xlink:href="#font_3_1" transform="matrix(9.4645,0,0,-9.4645,195.75905,49.795)"/>
<use xlink:href="#font_3_c" transform="matrix(9.4645,0,0,-9.4645,200.65219,50.01268)"/>
<use xlink:href="#font_3_4" transform="matrix(9.4645,0,0,-9.4645,205.7441,49.795)"/>
<use xlink:href="#font_3_7" transform="matrix(9.4645,0,0,-9.4645,209.00003,50.01268)"/>
<use xlink:href="#font_3_5" transform="matrix(9.4645,0,0,-9.4645,213.9689,50.01268)"/>
<use xlink:href="#font_3_6" transform="matrix(9.4645,0,0,-9.4645,218.51187,50.01268)"/>
<use xlink:href="#font_3_2" transform="matrix(9.4645,0,0,-9.4645,314.82875,50.437685)"/>
<use xlink:href="#font_3_c" transform="matrix(9.4645,0,0,-9.4645,320.04368,50.437685)"/>
<use xlink:href="#font_3_e" transform="matrix(9.4645,0,0,-9.4645,324.86109,50.437685)"/>
<use xlink:href="#font_3_9" transform="matrix(9.4645,0,0,-9.4645,330.1423,50.437685)"/>
<use xlink:href="#font_3_1" transform="matrix(9.4645,0,0,-9.4645,335.66957,50.22)"/>
<use xlink:href="#font_3_c" transform="matrix(9.4645,0,0,-9.4645,340.5627,50.437685)"/>
<use xlink:href="#font_3_4" transform="matrix(9.4645,0,0,-9.4645,345.6546,50.22)"/>
<use xlink:href="#font_3_7" transform="matrix(9.4645,0,0,-9.4645,348.91023,50.437685)"/>
<use xlink:href="#font_3_5" transform="matrix(9.4645,0,0,-9.4645,353.8791,50.437685)"/>
<use xlink:href="#font_3_6" transform="matrix(9.4645,0,0,-9.4645,358.42204,50.437685)"/>
<use xlink:href="#font_3_13" transform="matrix(9.4645,0,0,-9.4645,251.09352,135.097)"/>
<use xlink:href="#font_3_9" transform="matrix(9.4645,0,0,-9.4645,258.71247,135.31468)"/>
<use xlink:href="#font_3_1" transform="matrix(9.4645,0,0,-9.4645,264.23973,135.097)"/>
<use xlink:href="#font_3_6" transform="matrix(9.4645,0,0,-9.4645,268.972,135.31468)"/>
<use xlink:href="#font_3_12" transform="matrix(9.4645,0,0,-9.4645,272.1142,135.097)"/>
<use xlink:href="#font_3_e" transform="matrix(9.4645,0,0,-9.4645,273.9503,135.31468)"/>
<symbol id="font_3_a">
<path d="M 0 .75200006 L 0 .023000002 L .075 .023000002 L .075 .09 C .11500001 .029000003 .16800002 0 .24100001 0 C .37900005 0 .469 .113000009 .469 .287 C .469 .45700003 .38300003 .56200006 .24500002 .56200006 C .17300001 .56200006 .12200001 .535 .083000008 .476 L .083000008 .75200006 L 0 .75200006 M .22900002 .48400004 C .32200004 .48400004 .38200004 .40300004 .38200004 .27800004 C .38200004 .15900001 .32000003 .07800001 .22900002 .07800001 C .141 .07800001 .083000008 .158 .083000008 .28100003 C .083000008 .404 .141 .48400004 .22900002 .48400004 Z "/>
</symbol>
<symbol id="font_3_d">
<path d="M .46900005 .75200006 L .38600005 .75200006 L .38600005 .48100005 C .351 .53400006 .29500003 .56200006 .22500003 .56200006 C .089 .56200006 0 .453 0 .286 C 0 .109000008 .087000008 0 .22800002 0 C .3 0 .35000003 .027000003 .39500005 .09200001 L .39500005 .023000002 L .46900005 .023000002 L .46900005 .75200006 M .23900002 .48400004 C .32900004 .48400004 .38600005 .404 .38600005 .279 C .38600005 .158 .328 .07800001 .24000001 .07800001 C .148 .07800001 .087000008 .15900001 .087000008 .28100003 C .087000008 .40300004 .148 .48400004 .23900002 .48400004 Z "/>
</symbol>
<symbol id="font_3_b">
<path d="M .368 .74200007 L .22300002 .33400003 L .089 .74200007 L 0 .74200007 L .17700002 .216 L .14500001 .13300002 C .13200002 .096 .113 .082 .078 .082 C .066 .082 .052 .08400001 .034 .088 L .034 .012999997 C .051 .003999993 .068 0 .09 0 C .117000009 0 .14600002 .009000003 .16800002 .025000006 C .19400002 .044 .20900002 .066 .22500001 .108 L .458 .74200007 L .368 .74200007 Z "/>
</symbol>
<use xlink:href="#font_3_a" transform="matrix(9.4645,0,0,-9.4645,3.6649929,128.71569)" fill="#6100ad"/>
<use xlink:href="#font_3_2" transform="matrix(9.4645,0,0,-9.4645,8.756895,128.71569)" fill="#6100ad"/>
<use xlink:href="#font_3_7" transform="matrix(9.4645,0,0,-9.4645,14.293629,128.71569)" fill="#6100ad"/>
<use xlink:href="#font_3_1" transform="matrix(9.4645,0,0,-9.4645,19.603215,128.498)" fill="#6100ad"/>
<use xlink:href="#font_3_d" transform="matrix(9.4645,0,0,-9.4645,24.449038,128.71569)" fill="#6100ad"/>
<use xlink:href="#font_3_9" transform="matrix(9.4645,0,0,-9.4645,29.862732,128.71569)" fill="#6100ad"/>
<use xlink:href="#font_3_4" transform="matrix(9.4645,0,0,-9.4645,35.380537,128.498)" fill="#6100ad"/>
<use xlink:href="#font_3_b" transform="matrix(9.4645,0,0,-9.4645,38.35258,130.56127)" fill="#6100ad"/>
<path transform="matrix(.1,0,0,-.1,0,252.02)" stroke-width="3.98" stroke-linecap="butt" stroke-miterlimit="10" stroke-linejoin="miter" fill="none" stroke="#6100ad" d="M 434.629 1237.21 L 463.02 1237.21 "/>
<symbol id="font_3_8">
<path d="M .54800006 0 L .702 .52400007 L .60800006 .52400007 L .50400009 .116000007 L .401 .52400007 L .299 .52400007 L .19900002 .116000007 L .09200001 .52400007 L 0 .52400007 L .15200001 0 L .246 0 L .347 .411 L .453 0 L .54800006 0 Z "/>
</symbol>
<use xlink:href="#font_3_8" transform="matrix(9.4645,0,0,-9.4645,46.359888,128.498)" fill="#6100ad"/>
<use xlink:href="#font_3_e" transform="matrix(9.4645,0,0,-9.4645,53.420354,128.71569)" fill="#6100ad"/>
<use xlink:href="#font_3_5" transform="matrix(9.4645,0,0,-9.4645,58.62583,128.71569)" fill="#6100ad"/>
<use xlink:href="#font_3_6" transform="matrix(9.4645,0,0,-9.4645,63.168794,128.71569)" fill="#6100ad"/>
<path transform="matrix(.1,0,0,-.1,0,252.02)" stroke-width="19.9255" stroke-linecap="butt" stroke-miterlimit="10" stroke-linejoin="miter" fill="none" stroke="#6100ad" d="M 690.059 1320.19 C 892.41 1355.93 742.949 1223.59 865.832 1245.26 "/>
<path transform="matrix(.1,0,0,-.1,0,252.02)" d="M 904.598 1252.09 C 899.633 1252.41 877.547 1255.31 863.203 1260.17 L 868.461 1230.35 C 880.277 1239.82 900.043 1250.09 904.598 1252.09 " fill="#6100ad"/>
<path transform="matrix(.1,0,0,-.1,0,252.02)" stroke-width="17.9324" stroke-linecap="butt" stroke-miterlimit="10" stroke-linejoin="miter" fill="none" stroke="#6100ad" d="M 904.598 1252.09 C 899.633 1252.41 877.547 1255.31 863.203 1260.17 L 868.461 1230.35 C 880.277 1239.82 900.043 1250.09 904.598 1252.09 Z "/>
<use xlink:href="#font_3_a" transform="matrix(9.4645,0,0,-9.4645,464.10908,128.71569)" fill="#6100ad"/>
<use xlink:href="#font_3_2" transform="matrix(9.4645,0,0,-9.4645,469.201,128.71569)" fill="#6100ad"/>
<use xlink:href="#font_3_7" transform="matrix(9.4645,0,0,-9.4645,474.73774,128.71569)" fill="#6100ad"/>
<use xlink:href="#font_3_1" transform="matrix(9.4645,0,0,-9.4645,480.0473,128.498)" fill="#6100ad"/>
<use xlink:href="#font_3_d" transform="matrix(9.4645,0,0,-9.4645,484.89314,128.71569)" fill="#6100ad"/>
<use xlink:href="#font_3_9" transform="matrix(9.4645,0,0,-9.4645,490.30686,128.71569)" fill="#6100ad"/>
<use xlink:href="#font_3_4" transform="matrix(9.4645,0,0,-9.4645,495.82466,128.498)" fill="#6100ad"/>
<use xlink:href="#font_3_b" transform="matrix(9.4645,0,0,-9.4645,498.7967,130.56127)" fill="#6100ad"/>
<path transform="matrix(.1,0,0,-.1,0,252.02)" stroke-width="3.98" stroke-linecap="butt" stroke-miterlimit="10" stroke-linejoin="miter" fill="none" stroke="#6100ad" d="M 5039.06 1237.21 L 5067.45 1237.21 "/>
<use xlink:href="#font_3_e" transform="matrix(9.4645,0,0,-9.4645,507.12458,128.71569)" fill="#6100ad"/>
<use xlink:href="#font_3_9" transform="matrix(9.4645,0,0,-9.4645,512.40579,128.71569)" fill="#6100ad"/>
<use xlink:href="#font_3_5" transform="matrix(9.4645,0,0,-9.4645,517.5923,128.71569)" fill="#6100ad"/>
<use xlink:href="#font_3_6" transform="matrix(9.4645,0,0,-9.4645,522.13528,128.71569)" fill="#6100ad"/>
<path transform="matrix(.1,0,0,-.1,0,252.02)" stroke-width="19.9255" stroke-linecap="butt" stroke-miterlimit="10" stroke-linejoin="miter" fill="none" stroke="#6100ad" d="M 4602.58 1199.48 C 4401.04 1163.95 4548.88 1294.81 4426.81 1273.28 "/>
<path transform="matrix(.1,0,0,-.1,0,252.02)" d="M 4388.04 1266.45 C 4393.01 1266.13 4415.09 1263.23 4429.44 1258.37 L 4424.18 1288.19 C 4412.36 1278.72 4392.6 1268.45 4388.04 1266.45 " fill="#6100ad"/>
<path transform="matrix(.1,0,0,-.1,0,252.02)" stroke-width="17.9324" stroke-linecap="butt" stroke-miterlimit="10" stroke-linejoin="miter" fill="none" stroke="#6100ad" d="M 4388.04 1266.45 C 4393.01 1266.13 4415.09 1263.23 4429.44 1258.37 L 4424.18 1288.19 C 4412.36 1278.72 4392.6 1268.45 4388.04 1266.45 Z "/>
<use xlink:href="#font_3_a" transform="matrix(9.4645,0,0,-9.4645,236.99108,247.0576)" fill="#6100ad"/>
<use xlink:href="#font_3_2" transform="matrix(9.4645,0,0,-9.4645,242.083,247.0576)" fill="#6100ad"/>
<use xlink:href="#font_3_7" transform="matrix(9.4645,0,0,-9.4645,247.61972,247.0576)" fill="#6100ad"/>
<use xlink:href="#font_3_1" transform="matrix(9.4645,0,0,-9.4645,252.92932,246.83992)" fill="#6100ad"/>
<use xlink:href="#font_3_d" transform="matrix(9.4645,0,0,-9.4645,257.77513,247.0576)" fill="#6100ad"/>
<use xlink:href="#font_3_9" transform="matrix(9.4645,0,0,-9.4645,263.18885,247.0576)" fill="#6100ad"/>
<use xlink:href="#font_3_4" transform="matrix(9.4645,0,0,-9.4645,268.70664,246.83992)" fill="#6100ad"/>
<use xlink:href="#font_3_b" transform="matrix(9.4645,0,0,-9.4645,271.67869,248.90319)" fill="#6100ad"/>
<path transform="matrix(.1,0,0,-.1,0,252.02)" stroke-width="3.98" stroke-linecap="butt" stroke-miterlimit="10" stroke-linejoin="miter" fill="none" stroke="#6100ad" d="M 2767.89 53.7891 L 2796.28 53.7891 "/>
<use xlink:href="#font_3_a" transform="matrix(9.4645,0,0,-9.4645,280.13908,247.0576)" fill="#6100ad"/>
<use xlink:href="#font_3_2" transform="matrix(9.4645,0,0,-9.4645,285.231,247.0576)" fill="#6100ad"/>
<use xlink:href="#font_3_6" transform="matrix(9.4645,0,0,-9.4645,290.28504,247.0576)" fill="#6100ad"/>
<path transform="matrix(.1,0,0,-.1,0,252.02)" stroke-width="19.9255" stroke-linecap="butt" stroke-miterlimit="10" stroke-linejoin="miter" fill="none" stroke="#6100ad" d="M 2632.59 153.57 C 2597.89 350.391 2681.02 211.992 2660.33 329.344 "/>
<path transform="matrix(.1,0,0,-.1,0,252.02)" d="M 2653.5 368.109 C 2653.18 363.145 2650.28 341.055 2645.42 326.715 L 2675.24 331.969 C 2665.77 343.785 2655.5 363.555 2653.5 368.109 " fill="#6100ad"/>
<path transform="matrix(.1,0,0,-.1,0,252.02)" stroke-width="17.9324" stroke-linecap="butt" stroke-miterlimit="10" stroke-linejoin="miter" fill="none" stroke="#6100ad" d="M 2653.5 368.109 C 2653.18 363.145 2650.28 341.055 2645.42 326.715 L 2675.24 331.969 C 2665.77 343.785 2655.5 363.555 2653.5 368.109 Z "/>
<symbol id="font_3_10">
<path d="M .38300003 .74200007 L .38300003 .666 C .341 .72800007 .29 .757 .223 .757 C .09 .757 0 .64100006 0 .47100003 C 0 .38500003 .023 .315 .06600001 .26500003 C .105000007 .22100002 .16100002 .19500001 .216 .19500001 C .282 .19500001 .328 .223 .375 .289 L .375 .26200003 C .375 .19100002 .366 .148 .345 .119 C .323 .088 .28 .07000001 .22900002 .07000001 C .19100002 .07000001 .157 .08 .134 .098000008 C .11500001 .113000009 .10700001 .127 .10200001 .158 L .017000003 .158 C .026000003 .059 .103 0 .22600003 0 C .304 0 .371 .025000006 .405 .067 C .44500003 .115 .46 .18100001 .46 .30400003 L .46 .74200007 L .38300003 .74200007 M .23200001 .68 C .322 .68 .375 .60400006 .375 .47300006 C .375 .34800003 .321 .272 .23300003 .272 C .142 .272 .087000008 .34900005 .087000008 .476 C .087000008 .602 .143 .68 .23200001 .68 Z "/>
</symbol>
<symbol id="font_3_f">
<path d="M .24000001 .52400007 L .153 .52400007 L .153 .606 C .153 .64100006 .17300001 .65900006 .21100001 .65900006 C .21800001 .65900006 .221 .65900006 .24000001 .65800008 L .24000001 .72700008 C .221 .731 .21000001 .73200008 .193 .73200008 C .116000007 .73200008 .07000001 .688 .07000001 .61300006 L .07000001 .52400007 L 0 .52400007 L 0 .45600004 L .07000001 .45600004 L .07000001 0 L .153 0 L .153 .45600004 L .24000001 .45600004 L .24000001 .52400007 Z "/>
</symbol>
<use xlink:href="#font_3_10" transform="matrix(9.4645,0,0,-9.4645,242.32347,12.128263)" fill="#6100ad"/>
<use xlink:href="#font_3_4" transform="matrix(9.4645,0,0,-9.4645,247.86963,10.065002)" fill="#6100ad"/>
<use xlink:href="#font_3_2" transform="matrix(9.4645,0,0,-9.4645,250.70899,10.282686)" fill="#6100ad"/>
<use xlink:href="#font_3_7" transform="matrix(9.4645,0,0,-9.4645,256.24574,10.282686)" fill="#6100ad"/>
<use xlink:href="#font_3_1" transform="matrix(9.4645,0,0,-9.4645,261.5553,10.065002)" fill="#6100ad"/>
<use xlink:href="#font_3_d" transform="matrix(9.4645,0,0,-9.4645,266.40113,10.282686)" fill="#6100ad"/>
<use xlink:href="#font_3_5" transform="matrix(9.4645,0,0,-9.4645,271.73915,10.282686)" fill="#6100ad"/>
<use xlink:href="#font_3_7" transform="matrix(9.4645,0,0,-9.4645,276.76478,10.282686)" fill="#6100ad"/>
<use xlink:href="#font_3_4" transform="matrix(9.4645,0,0,-9.4645,282.06489,10.065002)" fill="#6100ad"/>
<use xlink:href="#font_3_f" transform="matrix(9.4645,0,0,-9.4645,284.73387,10.065002)" fill="#6100ad"/>
<path transform="matrix(.1,0,0,-.1,0,252.02)" stroke-width="19.9255" stroke-linecap="butt" stroke-miterlimit="10" stroke-linejoin="miter" fill="none" stroke="#6100ad" d="M 2660.08 2364.97 C 2694.77 2168.23 2611.53 2306.57 2632.2 2189.3 "/>
<path transform="matrix(.1,0,0,-.1,0,252.02)" d="M 2639.04 2150.54 C 2639.36 2155.5 2642.25 2177.59 2647.11 2191.93 L 2617.29 2186.67 C 2626.77 2174.86 2637.04 2155.09 2639.04 2150.54 " fill="#6100ad"/>
<path transform="matrix(.1,0,0,-.1,0,252.02)" stroke-width="17.9324" stroke-linecap="butt" stroke-miterlimit="10" stroke-linejoin="miter" fill="none" stroke="#6100ad" d="M 2639.04 2150.54 C 2639.36 2155.5 2642.25 2177.59 2647.11 2191.93 L 2617.29 2186.67 C 2626.77 2174.86 2637.04 2155.09 2639.04 2150.54 Z "/>
<symbol id="font_3_3">
<path d="M 0 0 L .08400001 0 L .08400001 .273 C .128 .21900001 .177 .19500001 .24500002 .19500001 C .38000003 .19500001 .469 .30400003 .469 .47100003 C .469 .647 .38300003 .757 .244 .757 C .17300001 .757 .116 .725 .07700001 .66300007 L .07700001 .74200007 L 0 .74200007 L 0 0 M .23 .679 C .32200004 .679 .38200004 .59800007 .38200004 .47300006 C .38200004 .35400004 .32100005 .273 .23 .273 C .142 .273 .08400001 .35300002 .08400001 .476 C .08400001 .59900006 .142 .679 .23 .679 Z "/>
</symbol>
<use xlink:href="#font_3_5" transform="matrix(8.196547,-4.7322509,-4.7322509,-8.196547,164.72653,95.108638)" fill="#6100ad"/>
<use xlink:href="#font_3_12" transform="matrix(8.196547,-4.7322509,-4.7322509,-8.196547,168.99463,92.3931)" fill="#6100ad"/>
<use xlink:href="#font_3_9" transform="matrix(8.196547,-4.7322509,-4.7322509,-8.196547,170.70999,91.654109)" fill="#6100ad"/>
<use xlink:href="#font_3_a" transform="matrix(8.196547,-4.7322509,-4.7322509,-8.196547,175.36563,88.96618)" fill="#6100ad"/>
<use xlink:href="#font_3_6" transform="matrix(8.196547,-4.7322509,-4.7322509,-8.196547,179.59505,86.52434)" fill="#6100ad"/>
<use xlink:href="#font_3_2" transform="matrix(8.196547,-4.7322509,-4.7322509,-8.196547,182.05402,85.10466)" fill="#6100ad"/>
<use xlink:href="#font_3_3" transform="matrix(8.196547,-4.7322509,-4.7322509,-8.196547,187.68163,83.98667)" fill="#6100ad"/>
<use xlink:href="#font_3_5" transform="matrix(8.196547,-4.7322509,-4.7322509,-8.196547,189.82532,110.48052)" fill="#6100ad"/>
<use xlink:href="#font_3_12" transform="matrix(8.196547,-4.7322509,-4.7322509,-8.196547,194.09342,107.764987)" fill="#6100ad"/>
<use xlink:href="#font_3_9" transform="matrix(8.196547,-4.7322509,-4.7322509,-8.196547,195.80878,107.02599)" fill="#6100ad"/>
<use xlink:href="#font_3_a" transform="matrix(8.196547,-4.7322509,-4.7322509,-8.196547,200.46442,104.338069)" fill="#6100ad"/>
<use xlink:href="#font_3_a" transform="matrix(8.196547,-4.7322509,-4.7322509,-8.196547,204.93967,101.754299)" fill="#6100ad"/>
<use xlink:href="#font_3_2" transform="matrix(8.196547,-4.7322509,-4.7322509,-8.196547,209.34941,99.20834)" fill="#6100ad"/>
<use xlink:href="#font_3_6" transform="matrix(8.196547,-4.7322509,-4.7322509,-8.196547,213.72637,96.68132)" fill="#6100ad"/>
</g>
</svg>
