<?xml version="1.0" encoding="UTF-8" standalone="no"?>
<!DOCTYPE svg PUBLIC "-//W3C//DTD SVG 1.1//EN" "http://www.w3.org/Graphics/SVG/1.1/DTD/svg11.dtd">
<svg xmlns="http://www.w3.org/2000/svg" xmlns:xlink="http://www.w3.org/1999/xlink" version="1.1" width="472.05pt" height="238.43pt" viewBox="0 0 472.05 238.43">
<g enable-background="new">
<path transform="matrix(.1,0,0,-.1,0,238.43)" d="M 649.523 2058.36 L 649.523 1944.96 L 2110.98 1879.75 L 2820.02 2058.36 Z " fill="#5ecc0d"/>
<path transform="matrix(.1,0,0,-.1,0,238.43)" stroke-width="9.9628" stroke-linecap="butt" stroke-miterlimit="10" stroke-linejoin="miter" fill="none" stroke="#1f6e96" d="M 649.523 2058.36 L 649.523 1944.96 L 2110.98 1879.75 L 2820.02 2058.36 Z "/>
<path transform="matrix(.1,0,0,-.1,0,238.43)" d="M 649.523 357.344 L 4051.553 357.344 L 4051.553 1944.964 L 649.523 1944.964 Z " fill="#ffff73"/>
<path transform="matrix(.1,0,0,-.1,0,238.43)" stroke-width="9.9628" stroke-linecap="butt" stroke-miterlimit="10" stroke-linejoin="miter" fill="none" stroke="#1f6e96" d="M 649.523 357.344 L 4051.553 357.344 L 4051.553 1944.964 L 649.523 1944.964 Z "/>
<path transform="matrix(.1,0,0,-.1,0,238.43)" d="M 1494.36 1377.95 C 1494.36 1377.95 1854.95 1606.41 1949.13 1661.48 C 2043.3 1716.55 2099.88 1744.59 2173.08 1774.88 C 2246.28 1805.16 2373.4 1856.16 2476.69 1879.77 C 2579.98 1903.36 2699 1935.92 2917.51 1944.96 C 3136.02 1954.01 4051.55 1944.96 4051.55 1944.96 L 4051.55 2058.36 L 2820.02 2058.36 C 2820.02 2058.36 2426.52 1969.74 2328.14 1944.96 C 2229.77 1920.18 2179.7 1903.35 2110.98 1879.75 C 2042.27 1856.16 1902.55 1805.16 1832.89 1774.88 C 1763.24 1744.59 1703.12 1716.55 1608.94 1661.48 C 1514.77 1606.41 1154.16 1377.95 1154.16 1377.95 " fill="#33baff"/>
<path transform="matrix(.1,0,0,-.1,0,238.43)" stroke-width="9.9628" stroke-linecap="butt" stroke-miterlimit="10" stroke-linejoin="miter" fill="none" stroke="#1f6e96" d="M 1494.36 1377.95 C 1494.36 1377.95 1854.95 1606.41 1949.13 1661.48 C 2043.3 1716.55 2099.88 1744.59 2173.08 1774.88 C 2246.28 1805.16 2373.4 1856.16 2476.69 1879.77 C 2579.98 1903.36 2699 1935.92 2917.51 1944.96 C 3136.02 1954.01 4051.55 1944.96 4051.55 1944.96 L 4051.55 2058.36 L 2820.02 2058.36 C 2820.02 2058.36 2426.52 1969.74 2328.14 1944.96 C 2229.77 1920.18 2179.7 1903.35 2110.98 1879.75 C 2042.27 1856.16 1902.55 1805.16 1832.89 1774.88 C 1763.24 1744.59 1703.12 1716.55 1608.94 1661.48 C 1514.77 1606.41 1154.16 1377.95 1154.16 1377.95 Z "/>
<path transform="matrix(.1,0,0,-.1,0,238.43)" stroke-width="9.9628" stroke-linecap="butt" stroke-miterlimit="10" stroke-linejoin="miter" fill="none" stroke="#1f6e96" d="M 1154.16 1377.95 C 1154.16 1377.95 1514.77 1606.41 1608.94 1661.48 C 1703.12 1716.55 1763.24 1744.59 1832.89 1774.88 C 1902.55 1805.16 2042.27 1856.16 2110.98 1879.75 C 2179.7 1903.35 2229.77 1920.18 2328.14 1944.96 C 2426.52 1969.74 2820.02 2058.36 2820.02 2058.36 "/>
<path transform="matrix(.1,0,0,-.1,0,238.43)" stroke-width="9.9628" stroke-linecap="butt" stroke-miterlimit="10" stroke-linejoin="miter" fill="none" stroke="#1f6e96" d="M 1494.36 1377.95 C 1494.36 1377.95 1854.95 1606.41 1949.13 1661.48 C 2043.3 1716.55 2099.88 1744.59 2173.08 1774.88 C 2246.28 1805.16 2373.4 1856.16 2476.69 1879.77 C 2579.98 1903.36 2699 1935.92 2917.51 1944.96 C 3136.02 1954.01 4051.55 1944.96 4051.55 1944.96 "/>
<path transform="matrix(.1,0,0,-.1,0,238.43)" d="M 677.871 357.344 C 677.871 373 665.18 385.691 649.523 385.691 C 633.867 385.691 621.176 373 621.176 357.344 C 621.176 341.688 633.867 328.996 649.523 328.996 C 665.18 328.996 677.871 341.688 677.871 357.344 Z M 649.523 357.344 " fill="#f58000"/>
<symbol id="font_0_5">
<path d="M 0 0 L .08400001 0 L .08400001 .273 C .128 .21900001 .177 .19500001 .24500002 .19500001 C .38000003 .19500001 .469 .30400003 .469 .47100003 C .469 .647 .38300003 .757 .244 .757 C .17300001 .757 .116 .725 .07700001 .66300007 L .07700001 .74200007 L 0 .74200007 L 0 0 M .23 .679 C .32200004 .679 .38200004 .59800007 .38200004 .47300006 C .38200004 .35400004 .32100005 .273 .23 .273 C .142 .273 .08400001 .35300002 .08400001 .476 C .08400001 .59900006 .142 .679 .23 .679 Z "/>
</symbol>
<use xlink:href="#font_0_5" transform="matrix(9.4645,0,0,-9.4645,17.505185,214.95926)" fill="#f58000"/>
<path transform="matrix(.1,0,0,-.1,0,238.43)" stroke-width="3.98" stroke-linecap="butt" stroke-miterlimit="10" stroke-linejoin="miter" fill="none" stroke="#f58000" d="M 228.238 257.34 L 256.629 257.34 "/>
<symbol id="font_0_c">
<path d="M 0 .75200006 L 0 .023000002 L .075 .023000002 L .075 .09 C .11500001 .029000003 .16800002 0 .24100001 0 C .37900005 0 .469 .113000009 .469 .287 C .469 .45700003 .38300003 .56200006 .24500002 .56200006 C .17300001 .56200006 .12200001 .535 .083000008 .476 L .083000008 .75200006 L 0 .75200006 M .22900002 .48400004 C .32200004 .48400004 .38200004 .40300004 .38200004 .27800004 C .38200004 .15900001 .32000003 .07800001 .22900002 .07800001 C .141 .07800001 .083000008 .158 .083000008 .28100003 C .083000008 .404 .141 .48400004 .22900002 .48400004 Z "/>
</symbol>
<symbol id="font_0_4">
<path d="M .23600002 .56200006 C .089 .56200006 0 .45700003 0 .28100003 C 0 .105000007 .088 0 .237 0 C .384 0 .47400005 .105000007 .47400005 .277 C .47400005 .45800004 .387 .56200006 .23600002 .56200006 M .237 .485 C .331 .485 .387 .40800003 .387 .27800004 C .387 .155 .329 .07700001 .237 .07700001 C .14400001 .07700001 .087 .15400002 .087 .28100003 C .087 .407 .14400001 .485 .237 .485 Z "/>
</symbol>
<symbol id="font_0_9">
<path d="M .24000001 .54700008 L .15400002 .54700008 L .15400002 .69100007 L .071 .69100007 L .071 .54700008 L 0 .54700008 L 0 .47900004 L .071 .47900004 L .071 .083000008 C .071 .030000002 .10700001 0 .172 0 C .19200002 0 .21200001 .0020000004 .24000001 .007000001 L .24000001 .07700001 C .22900002 .074 .216 .073 .20000002 .073 C .164 .073 .15400002 .083000008 .15400002 .120000008 L .15400002 .47900004 L .24000001 .47900004 L .24000001 .54700008 Z "/>
</symbol>
<use xlink:href="#font_0_c" transform="matrix(9.4645,0,0,-9.4645,26.175185,213.11368)" fill="#f58000"/>
<use xlink:href="#font_0_4" transform="matrix(9.4645,0,0,-9.4645,31.267085,213.11368)" fill="#f58000"/>
<use xlink:href="#font_0_9" transform="matrix(9.4645,0,0,-9.4645,36.32113,213.11368)" fill="#f58000"/>
<path transform="matrix(.1,0,0,-.1,0,238.43)" stroke-width="3.98" stroke-linecap="butt" stroke-miterlimit="10" stroke-linejoin="miter" fill="none" stroke="#f58000" d="M 393.871 257.34 L 422.262 257.34 "/>
<symbol id="font_0_a">
<path d="M .54800006 0 L .702 .52400007 L .60800006 .52400007 L .50400009 .116000007 L .401 .52400007 L .299 .52400007 L .19900002 .116000007 L .09200001 .52400007 L 0 .52400007 L .15200001 0 L .246 0 L .347 .411 L .453 0 L .54800006 0 Z "/>
</symbol>
<symbol id="font_0_f">
<path d="M .47300003 .25700004 C .47300003 .337 .46700005 .38500003 .45200003 .42400003 C .41800005 .51 .33800004 .56200006 .24 .56200006 C .094 .56200006 0 .45000003 0 .27800004 C 0 .106000009 .091000009 0 .23800002 0 C .35800005 0 .44100005 .068 .46200005 .18200001 L .37800003 .18200001 C .35500003 .113000009 .30800004 .07700001 .24100001 .07700001 C .18800001 .07700001 .143 .101 .114999998 .14500001 C .095 .17500001 .088 .20500002 .087 .25700004 L .47300003 .25700004 M .089 .32500003 C .096 .42200003 .155 .485 .23900001 .485 C .32100005 .485 .38400004 .41700004 .38400004 .33100004 C .38400004 .32900004 .38400004 .32700003 .38300003 .32500003 L .089 .32500003 Z "/>
</symbol>
<symbol id="font_0_8">
<path d="M .404 .40100003 C .403 .50400009 .335 .56200006 .21400002 .56200006 C .092 .56200006 .013 .499 .013 .402 C .013 .32000003 .055 .28100003 .17900002 .25100003 L .257 .23200001 C .315 .21800001 .338 .19700001 .338 .15900001 C .338 .11000001 .289 .07700001 .21599999 .07700001 C .171 .07700001 .13300002 .09 .11200001 .112 C .099 .127 .093 .142 .08800001 .179 L 0 .179 C .0040000008 .058000003 .072000008 0 .20900002 0 C .34100003 0 .425 .065000008 .425 .16600001 C .425 .24400002 .381 .287 .277 .312 L .197 .33100004 C .12900001 .347 .1 .36900003 .1 .40600003 C .1 .45400004 .143 .485 .211 .485 C .278 .485 .314 .45600004 .316 .40100003 L .404 .40100003 Z "/>
</symbol>
<use xlink:href="#font_0_a" transform="matrix(9.4645,0,0,-9.4645,42.282987,212.896)" fill="#f58000"/>
<use xlink:href="#font_0_f" transform="matrix(9.4645,0,0,-9.4645,49.343454,213.11368)" fill="#f58000"/>
<use xlink:href="#font_0_8" transform="matrix(9.4645,0,0,-9.4645,54.54893,213.11368)" fill="#f58000"/>
<use xlink:href="#font_0_9" transform="matrix(9.4645,0,0,-9.4645,59.091894,213.11368)" fill="#f58000"/>
<path transform="matrix(.1,0,0,-.1,0,238.43)" d="M 4079.9 357.344 C 4079.9 373 4067.21 385.691 4051.55 385.691 C 4035.9 385.691 4023.21 373 4023.21 357.344 C 4023.21 341.688 4035.9 328.996 4051.55 328.996 C 4067.21 328.996 4079.9 341.688 4079.9 357.344 Z M 4051.55 357.344 " fill="#f58000"/>
<use xlink:href="#font_0_5" transform="matrix(9.4645,0,0,-9.4645,409.02809,214.95926)" fill="#f58000"/>
<path transform="matrix(.1,0,0,-.1,0,238.43)" stroke-width="3.98" stroke-linecap="butt" stroke-miterlimit="10" stroke-linejoin="miter" fill="none" stroke="#f58000" d="M 4143.47 257.34 L 4171.86 257.34 "/>
<use xlink:href="#font_0_c" transform="matrix(9.4645,0,0,-9.4645,417.6981,213.11368)" fill="#f58000"/>
<use xlink:href="#font_0_4" transform="matrix(9.4645,0,0,-9.4645,422.79,213.11368)" fill="#f58000"/>
<use xlink:href="#font_0_9" transform="matrix(9.4645,0,0,-9.4645,427.84407,213.11368)" fill="#f58000"/>
<path transform="matrix(.1,0,0,-.1,0,238.43)" stroke-width="3.98" stroke-linecap="butt" stroke-miterlimit="10" stroke-linejoin="miter" fill="none" stroke="#f58000" d="M 4309.1 257.34 L 4337.49 257.34 "/>
<symbol id="font_0_b">
<path d="M .49300004 .072000008 C .48400004 .07000001 .48000003 .07000001 .47500003 .07000001 C .44600005 .07000001 .43000005 .08500001 .43000005 .11100001 L .43000005 .41900004 C .43000005 .512 .36200003 .56200006 .23300001 .56200006 C .157 .56200006 .094000007 .54 .059 .50100007 C .035000005 .47400005 .024999999 .44400005 .023000002 .39200003 L .107 .39200003 C .114 .45600004 .15200001 .485 .23000002 .485 C .305 .485 .34700004 .45700003 .34700004 .407 L .34700004 .38500003 C .34700004 .35000003 .32600004 .335 .26000003 .32700003 C .14200002 .312 .124000009 .30800004 .092 .29500003 C .031000004 .27 0 .223 0 .155 C 0 .060000004 .066 0 .17200002 0 C .238 0 .291 .023000002 .35000003 .07700001 C .35600005 .024000003 .38200004 0 .43600003 0 C .45300005 0 .46600003 .0020000004 .49300004 .0090000019 L .49300004 .072000008 M .34700004 .18800001 C .34700004 .16000001 .33900003 .143 .314 .120000008 C .28000004 .089 .23900002 .073 .19 .073 C .125 .073 .087000008 .104 .087000008 .157 C .087000008 .21200001 .124000009 .24000001 .21300003 .25300003 C .30100004 .26500003 .31900005 .269 .34700004 .282 L .34700004 .18800001 Z "/>
</symbol>
<use xlink:href="#font_0_f" transform="matrix(9.4645,0,0,-9.4645,434.12757,213.11368)" fill="#f58000"/>
<use xlink:href="#font_0_b" transform="matrix(9.4645,0,0,-9.4645,439.40879,213.11368)" fill="#f58000"/>
<use xlink:href="#font_0_8" transform="matrix(9.4645,0,0,-9.4645,444.59535,213.11368)" fill="#f58000"/>
<use xlink:href="#font_0_9" transform="matrix(9.4645,0,0,-9.4645,449.13829,213.11368)" fill="#f58000"/>
<path transform="matrix(.1,0,0,-.1,0,238.43)" d="M 4079.9 2058.36 C 4079.9 2074.02 4067.21 2086.71 4051.55 2086.71 C 4035.9 2086.71 4023.21 2074.02 4023.21 2058.36 C 4023.21 2042.7 4035.9 2030.01 4051.55 2030.01 C 4067.21 2030.01 4079.9 2042.7 4079.9 2058.36 Z M 4051.55 2058.36 " fill="#f58000"/>
<use xlink:href="#font_0_5" transform="matrix(9.4645,0,0,-9.4645,409.02809,29.33026)" fill="#f58000"/>
<path transform="matrix(.1,0,0,-.1,0,238.43)" stroke-width="3.98" stroke-linecap="butt" stroke-miterlimit="10" stroke-linejoin="miter" fill="none" stroke="#f58000" d="M 4143.47 2113.62 L 4171.86 2113.62 "/>
<use xlink:href="#font_0_9" transform="matrix(9.4645,0,0,-9.4645,417.31953,27.484683)" fill="#f58000"/>
<use xlink:href="#font_0_4" transform="matrix(9.4645,0,0,-9.4645,420.15888,27.484683)" fill="#f58000"/>
<use xlink:href="#font_0_5" transform="matrix(9.4645,0,0,-9.4645,425.5915,29.33026)" fill="#f58000"/>
<use xlink:href="#font_0_4" transform="matrix(9.4645,0,0,-9.4645,430.6834,27.484683)" fill="#f58000"/>
<path transform="matrix(.1,0,0,-.1,0,238.43)" stroke-width="3.98" stroke-linecap="butt" stroke-miterlimit="10" stroke-linejoin="miter" fill="none" stroke="#f58000" d="M 4361.72 2113.62 L 4390.11 2113.62 "/>
<use xlink:href="#font_0_f" transform="matrix(9.4645,0,0,-9.4645,439.39057,27.484683)" fill="#f58000"/>
<use xlink:href="#font_0_b" transform="matrix(9.4645,0,0,-9.4645,444.67179,27.484683)" fill="#f58000"/>
<use xlink:href="#font_0_8" transform="matrix(9.4645,0,0,-9.4645,449.85835,27.484683)" fill="#f58000"/>
<use xlink:href="#font_0_9" transform="matrix(9.4645,0,0,-9.4645,454.40129,27.484683)" fill="#f58000"/>
<path transform="matrix(.1,0,0,-.1,0,238.43)" d="M 677.871 2058.36 C 677.871 2074.02 665.18 2086.71 649.523 2086.71 C 633.867 2086.71 621.176 2074.02 621.176 2058.36 C 621.176 2042.7 633.867 2030.01 649.523 2030.01 C 665.18 2030.01 677.871 2042.7 677.871 2058.36 Z M 649.523 2058.36 " fill="#f58000"/>
<use xlink:href="#font_0_5" transform="matrix(9.4645,0,0,-9.4645,12.243083,29.33026)" fill="#f58000"/>
<path transform="matrix(.1,0,0,-.1,0,238.43)" stroke-width="3.98" stroke-linecap="butt" stroke-miterlimit="10" stroke-linejoin="miter" fill="none" stroke="#f58000" d="M 175.621 2113.62 L 204.012 2113.62 "/>
<use xlink:href="#font_0_9" transform="matrix(9.4645,0,0,-9.4645,20.533703,27.484683)" fill="#f58000"/>
<use xlink:href="#font_0_4" transform="matrix(9.4645,0,0,-9.4645,23.373053,27.484683)" fill="#f58000"/>
<use xlink:href="#font_0_5" transform="matrix(9.4645,0,0,-9.4645,28.805678,29.33026)" fill="#f58000"/>
<use xlink:href="#font_0_4" transform="matrix(9.4645,0,0,-9.4645,33.89758,27.484683)" fill="#f58000"/>
<path transform="matrix(.1,0,0,-.1,0,238.43)" stroke-width="3.98" stroke-linecap="butt" stroke-miterlimit="10" stroke-linejoin="miter" fill="none" stroke="#f58000" d="M 393.871 2113.62 L 422.262 2113.62 "/>
<use xlink:href="#font_0_a" transform="matrix(9.4645,0,0,-9.4645,42.282987,27.266999)" fill="#f58000"/>
<use xlink:href="#font_0_f" transform="matrix(9.4645,0,0,-9.4645,49.343454,27.484683)" fill="#f58000"/>
<use xlink:href="#font_0_8" transform="matrix(9.4645,0,0,-9.4645,54.54893,27.484683)" fill="#f58000"/>
<use xlink:href="#font_0_9" transform="matrix(9.4645,0,0,-9.4645,59.091894,27.484683)" fill="#f58000"/>
<path transform="matrix(.1,0,0,-.1,0,238.43)" d="M 1182.5 1377.95 C 1182.5 1393.61 1169.82 1406.3 1154.16 1406.3 C 1138.5 1406.3 1125.81 1393.61 1125.81 1377.95 C 1125.81 1362.3 1138.5 1349.61 1154.16 1349.61 C 1169.82 1349.61 1182.5 1362.3 1182.5 1377.95 Z M 1154.16 1377.95 " fill="#f58000"/>
<use xlink:href="#font_0_5" transform="matrix(9.4645,0,0,-9.4645,50.613084,112.89326)" fill="#f58000"/>
<path transform="matrix(.1,0,0,-.1,0,238.43)" stroke-width="3.98" stroke-linecap="butt" stroke-miterlimit="10" stroke-linejoin="miter" fill="none" stroke="#f58000" d="M 559.32 1277.99 L 587.711 1277.99 "/>
<symbol id="font_0_13">
<path d="M .08400001 .72900006 L 0 .72900006 L 0 0 L .08400001 0 L .08400001 .72900006 Z "/>
</symbol>
<use xlink:href="#font_0_8" transform="matrix(9.4645,0,0,-9.4645,59.093694,111.047679)" fill="#f58000"/>
<use xlink:href="#font_0_13" transform="matrix(9.4645,0,0,-9.4645,64.147739,110.829998)" fill="#f58000"/>
<use xlink:href="#font_0_b" transform="matrix(9.4645,0,0,-9.4645,66.00278,111.047679)" fill="#f58000"/>
<use xlink:href="#font_0_c" transform="matrix(9.4645,0,0,-9.4645,71.37862,111.047679)" fill="#f58000"/>
<use xlink:href="#font_0_9" transform="matrix(9.4645,0,0,-9.4645,76.26229,111.047679)" fill="#f58000"/>
<use xlink:href="#font_0_4" transform="matrix(9.4645,0,0,-9.4645,79.10165,111.047679)" fill="#f58000"/>
<use xlink:href="#font_0_5" transform="matrix(9.4645,0,0,-9.4645,84.53427,112.89326)" fill="#f58000"/>
<path transform="matrix(.1,0,0,-.1,0,238.43)" stroke-width="3.98" stroke-linecap="butt" stroke-miterlimit="10" stroke-linejoin="miter" fill="none" stroke="#f58000" d="M 898.531 1277.99 L 926.922 1277.99 "/>
<use xlink:href="#font_0_a" transform="matrix(9.4645,0,0,-9.4645,92.748989,110.829998)" fill="#f58000"/>
<use xlink:href="#font_0_f" transform="matrix(9.4645,0,0,-9.4645,99.80945,111.047679)" fill="#f58000"/>
<use xlink:href="#font_0_8" transform="matrix(9.4645,0,0,-9.4645,105.01492,111.047679)" fill="#f58000"/>
<use xlink:href="#font_0_9" transform="matrix(9.4645,0,0,-9.4645,109.557888,111.047679)" fill="#f58000"/>
<path transform="matrix(.1,0,0,-.1,0,238.43)" d="M 1522.71 1377.95 C 1522.71 1393.61 1510.02 1406.3 1494.36 1406.3 C 1478.71 1406.3 1466.02 1393.61 1466.02 1377.95 C 1466.02 1362.3 1478.71 1349.61 1494.36 1349.61 C 1510.02 1349.61 1522.71 1362.3 1522.71 1377.95 Z M 1494.36 1377.95 " fill="#f58000"/>
<use xlink:href="#font_0_5" transform="matrix(9.4645,0,0,-9.4645,153.29708,112.89326)" fill="#f58000"/>
<path transform="matrix(.1,0,0,-.1,0,238.43)" stroke-width="3.98" stroke-linecap="butt" stroke-miterlimit="10" stroke-linejoin="miter" fill="none" stroke="#f58000" d="M 1586.16 1277.99 L 1614.55 1277.99 "/>
<use xlink:href="#font_0_8" transform="matrix(9.4645,0,0,-9.4645,161.7768,111.047679)" fill="#f58000"/>
<use xlink:href="#font_0_13" transform="matrix(9.4645,0,0,-9.4645,166.83084,110.829998)" fill="#f58000"/>
<use xlink:href="#font_0_b" transform="matrix(9.4645,0,0,-9.4645,168.68589,111.047679)" fill="#f58000"/>
<use xlink:href="#font_0_c" transform="matrix(9.4645,0,0,-9.4645,174.06172,111.047679)" fill="#f58000"/>
<use xlink:href="#font_0_c" transform="matrix(9.4645,0,0,-9.4645,179.22937,111.047679)" fill="#f58000"/>
<use xlink:href="#font_0_4" transform="matrix(9.4645,0,0,-9.4645,184.32129,111.047679)" fill="#f58000"/>
<use xlink:href="#font_0_9" transform="matrix(9.4645,0,0,-9.4645,189.37534,111.047679)" fill="#f58000"/>
<path transform="matrix(.1,0,0,-.1,0,238.43)" stroke-width="3.98" stroke-linecap="butt" stroke-miterlimit="10" stroke-linejoin="miter" fill="none" stroke="#f58000" d="M 1924.41 1277.99 L 1952.8 1277.99 "/>
<use xlink:href="#font_0_a" transform="matrix(9.4645,0,0,-9.4645,195.3378,110.829998)" fill="#f58000"/>
<use xlink:href="#font_0_f" transform="matrix(9.4645,0,0,-9.4645,202.39827,111.047679)" fill="#f58000"/>
<use xlink:href="#font_0_8" transform="matrix(9.4645,0,0,-9.4645,207.60375,111.047679)" fill="#f58000"/>
<use xlink:href="#font_0_9" transform="matrix(9.4645,0,0,-9.4645,212.14672,111.047679)" fill="#f58000"/>
<path transform="matrix(.1,0,0,-.1,0,238.43)" d="M 4079.9 1944.96 C 4079.9 1960.61 4067.21 1973.3 4051.55 1973.3 C 4035.9 1973.3 4023.21 1960.61 4023.21 1944.96 C 4023.21 1929.3 4035.9 1916.61 4051.55 1916.61 C 4067.21 1916.61 4079.9 1929.3 4079.9 1944.96 Z M 4051.55 1944.96 " fill="#f58000"/>
<use xlink:href="#font_0_5" transform="matrix(9.4645,0,0,-9.4645,409.02809,56.189256)" fill="#f58000"/>
<path transform="matrix(.1,0,0,-.1,0,238.43)" stroke-width="3.98" stroke-linecap="butt" stroke-miterlimit="10" stroke-linejoin="miter" fill="none" stroke="#f58000" d="M 4143.47 1845.03 L 4171.86 1845.03 "/>
<use xlink:href="#font_0_8" transform="matrix(9.4645,0,0,-9.4645,417.50883,54.343675)" fill="#f58000"/>
<use xlink:href="#font_0_13" transform="matrix(9.4645,0,0,-9.4645,422.56285,54.12599)" fill="#f58000"/>
<use xlink:href="#font_0_b" transform="matrix(9.4645,0,0,-9.4645,424.41789,54.343675)" fill="#f58000"/>
<use xlink:href="#font_0_c" transform="matrix(9.4645,0,0,-9.4645,429.7937,54.343675)" fill="#f58000"/>
<use xlink:href="#font_0_c" transform="matrix(9.4645,0,0,-9.4645,434.96134,54.343675)" fill="#f58000"/>
<use xlink:href="#font_0_4" transform="matrix(9.4645,0,0,-9.4645,440.05326,54.343675)" fill="#f58000"/>
<use xlink:href="#font_0_9" transform="matrix(9.4645,0,0,-9.4645,445.1073,54.343675)" fill="#f58000"/>
<path transform="matrix(.1,0,0,-.1,0,238.43)" stroke-width="3.98" stroke-linecap="butt" stroke-miterlimit="10" stroke-linejoin="miter" fill="none" stroke="#f58000" d="M 4481.73 1845.03 L 4510.12 1845.03 "/>
<use xlink:href="#font_0_f" transform="matrix(9.4645,0,0,-9.4645,451.39057,54.343675)" fill="#f58000"/>
<use xlink:href="#font_0_b" transform="matrix(9.4645,0,0,-9.4645,456.67179,54.343675)" fill="#f58000"/>
<use xlink:href="#font_0_8" transform="matrix(9.4645,0,0,-9.4645,461.85835,54.343675)" fill="#f58000"/>
<use xlink:href="#font_0_9" transform="matrix(9.4645,0,0,-9.4645,466.40129,54.343675)" fill="#f58000"/>
<path transform="matrix(.1,0,0,-.1,0,238.43)" d="M 677.871 1944.96 C 677.871 1960.61 665.18 1973.3 649.523 1973.3 C 633.867 1973.3 621.176 1960.61 621.176 1944.96 C 621.176 1929.3 633.867 1916.61 649.523 1916.61 C 665.18 1916.61 677.871 1929.3 677.871 1944.96 Z M 649.523 1944.96 " fill="#f58000"/>
<use xlink:href="#font_0_5" transform="matrix(9.4645,0,0,-9.4645,6.989993,56.189256)" fill="#f58000"/>
<path transform="matrix(.1,0,0,-.1,0,238.43)" stroke-width="3.98" stroke-linecap="butt" stroke-miterlimit="10" stroke-linejoin="miter" fill="none" stroke="#f58000" d="M 123.09 1845.03 L 151.48 1845.03 "/>
<symbol id="font_0_14">
<path d="M 0 .52400007 L 0 0 L .084000017 0 L .084000017 .32900004 C .084000017 .40500004 .139 .46600003 .20700002 .46600003 C .26900003 .46600003 .30400003 .42800004 .30400003 .36100004 L .30400003 0 L .38800005 0 L .38800005 .32900004 C .38800005 .40500004 .44300003 .46600003 .51100006 .46600003 C .572 .46600003 .60800006 .42700003 .60800006 .36100004 L .60800006 0 L .69200006 0 L .69200006 .393 C .69200006 .48700003 .638 .53900006 .54 .53900006 C .47000004 .53900006 .42800004 .518 .37900005 .45900003 C .34800003 .51500007 .30600003 .53900006 .23800004 .53900006 C .16800002 .53900006 .122 .513 .077 .45000003 L .077 .52400007 L 0 .52400007 Z "/>
</symbol>
<symbol id="font_0_10">
<path d="M 0 .72900006 L 0 0 L .08300001 0 L .08300001 .289 C .08300001 .39600004 .139 .46600003 .22500003 .46600003 C .25200004 .46600003 .279 .45700003 .29900003 .44200004 C .323 .425 .33300004 .4 .33300004 .363 L .33300004 0 L .41600005 0 L .41600005 .39600004 C .41600005 .48400004 .35300002 .53900006 .25100003 .53900006 C .17700002 .53900006 .132 .51600006 .08300001 .45200003 L .08300001 .72900006 L 0 .72900006 Z "/>
</symbol>
<use xlink:href="#font_0_14" transform="matrix(9.4645,0,0,-9.4645,15.811315,54.12599)" fill="#f58000"/>
<use xlink:href="#font_0_4" transform="matrix(9.4645,0,0,-9.4645,23.373452,54.343675)" fill="#f58000"/>
<use xlink:href="#font_0_10" transform="matrix(9.4645,0,0,-9.4645,28.957509,54.12599)" fill="#f58000"/>
<use xlink:href="#font_0_4" transform="matrix(9.4645,0,0,-9.4645,33.897977,54.343675)" fill="#f58000"/>
<path transform="matrix(.1,0,0,-.1,0,238.43)" stroke-width="3.98" stroke-linecap="butt" stroke-miterlimit="10" stroke-linejoin="miter" fill="none" stroke="#f58000" d="M 393.871 1845.03 L 422.262 1845.03 "/>
<use xlink:href="#font_0_a" transform="matrix(9.4645,0,0,-9.4645,42.282987,54.12599)" fill="#f58000"/>
<use xlink:href="#font_0_f" transform="matrix(9.4645,0,0,-9.4645,49.343454,54.343675)" fill="#f58000"/>
<use xlink:href="#font_0_8" transform="matrix(9.4645,0,0,-9.4645,54.54893,54.343675)" fill="#f58000"/>
<use xlink:href="#font_0_9" transform="matrix(9.4645,0,0,-9.4645,59.091894,54.343675)" fill="#f58000"/>
<path transform="matrix(.1,0,0,-.1,0,238.43)" d="M 2356.49 1944.96 C 2356.49 1960.61 2343.8 1973.3 2328.14 1973.3 C 2312.49 1973.3 2299.8 1960.61 2299.8 1944.96 C 2299.8 1929.3 2312.49 1916.61 2328.14 1916.61 C 2343.8 1916.61 2356.49 1929.3 2356.49 1944.96 Z M 2328.14 1944.96 " fill="#f58000"/>
<use xlink:href="#font_0_5" transform="matrix(9.4645,0,0,-9.4645,163.71108,40.67125)" fill="#f58000"/>
<path transform="matrix(.1,0,0,-.1,0,238.43)" stroke-width="3.98" stroke-linecap="butt" stroke-miterlimit="10" stroke-linejoin="miter" fill="none" stroke="#f58000" d="M 1690.3 2000.22 L 1718.69 2000.22 "/>
<use xlink:href="#font_0_8" transform="matrix(9.4645,0,0,-9.4645,172.19179,38.82567)" fill="#f58000"/>
<use xlink:href="#font_0_13" transform="matrix(9.4645,0,0,-9.4645,177.24584,38.607988)" fill="#f58000"/>
<use xlink:href="#font_0_b" transform="matrix(9.4645,0,0,-9.4645,179.10088,38.82567)" fill="#f58000"/>
<use xlink:href="#font_0_c" transform="matrix(9.4645,0,0,-9.4645,184.47672,38.82567)" fill="#f58000"/>
<use xlink:href="#font_0_9" transform="matrix(9.4645,0,0,-9.4645,189.36042,38.82567)" fill="#f58000"/>
<use xlink:href="#font_0_4" transform="matrix(9.4645,0,0,-9.4645,192.19977,38.82567)" fill="#f58000"/>
<use xlink:href="#font_0_5" transform="matrix(9.4645,0,0,-9.4645,197.63239,40.67125)" fill="#f58000"/>
<path transform="matrix(.1,0,0,-.1,0,238.43)" stroke-width="3.98" stroke-linecap="butt" stroke-miterlimit="10" stroke-linejoin="miter" fill="none" stroke="#f58000" d="M 2029.51 2000.22 L 2057.9 2000.22 "/>
<use xlink:href="#font_0_14" transform="matrix(9.4645,0,0,-9.4645,206.45252,38.607988)" fill="#f58000"/>
<use xlink:href="#font_0_4" transform="matrix(9.4645,0,0,-9.4645,214.01465,38.82567)" fill="#f58000"/>
<use xlink:href="#font_0_10" transform="matrix(9.4645,0,0,-9.4645,219.59871,38.607988)" fill="#f58000"/>
<use xlink:href="#font_0_4" transform="matrix(9.4645,0,0,-9.4645,224.53919,38.82567)" fill="#f58000"/>
<path transform="matrix(.1,0,0,-.1,0,238.43)" d="M 2139.33 1879.75 C 2139.33 1895.41 2126.64 1908.1 2110.98 1908.1 C 2095.32 1908.1 2082.63 1895.41 2082.63 1879.75 C 2082.63 1864.1 2095.32 1851.41 2110.98 1851.41 C 2126.64 1851.41 2139.33 1864.1 2139.33 1879.75 Z M 2110.98 1879.75 " fill="#f58000"/>
<use xlink:href="#font_0_5" transform="matrix(9.4645,0,0,-9.4645,124.125087,54.95125)" fill="#f58000"/>
<path transform="matrix(.1,0,0,-.1,0,238.43)" stroke-width="3.98" stroke-linecap="butt" stroke-miterlimit="10" stroke-linejoin="miter" fill="none" stroke="#f58000" d="M 1294.44 1857.41 L 1322.83 1857.41 "/>
<use xlink:href="#font_0_8" transform="matrix(9.4645,0,0,-9.4645,132.6048,53.105669)" fill="#f58000"/>
<use xlink:href="#font_0_13" transform="matrix(9.4645,0,0,-9.4645,137.65885,52.887987)" fill="#f58000"/>
<use xlink:href="#font_0_b" transform="matrix(9.4645,0,0,-9.4645,139.51389,53.105669)" fill="#f58000"/>
<use xlink:href="#font_0_c" transform="matrix(9.4645,0,0,-9.4645,144.88973,53.105669)" fill="#f58000"/>
<use xlink:href="#font_0_9" transform="matrix(9.4645,0,0,-9.4645,149.77342,53.105669)" fill="#f58000"/>
<use xlink:href="#font_0_4" transform="matrix(9.4645,0,0,-9.4645,152.61278,53.105669)" fill="#f58000"/>
<use xlink:href="#font_0_5" transform="matrix(9.4645,0,0,-9.4645,158.0454,54.95125)" fill="#f58000"/>
<path transform="matrix(.1,0,0,-.1,0,238.43)" stroke-width="3.98" stroke-linecap="butt" stroke-miterlimit="10" stroke-linejoin="miter" fill="none" stroke="#f58000" d="M 1633.64 1857.41 L 1662.03 1857.41 "/>
<symbol id="font_0_d">
<path d="M .44000004 .37100003 C .43600003 .42200003 .42500005 .455 .40500004 .48400004 C .36900003 .53300008 .30600003 .56200006 .233 .56200006 C .092 .56200006 0 .45000003 0 .27600003 C 0 .10700001 .09 0 .23200001 0 C .35700003 0 .43600003 .075 .44600005 .20300001 L .36200003 .20300001 C .34800003 .119 .30500005 .07700001 .23400001 .07700001 C .142 .07700001 .087000008 .15200001 .087000008 .27600003 C .087000008 .407 .141 .485 .23200001 .485 C .30200003 .485 .34600003 .44400005 .35600005 .37100003 L .44000004 .37100003 Z "/>
</symbol>
<symbol id="font_0_11">
<path d="M .08400001 .52400007 L .001000002 .52400007 L .001000002 0 L .08400001 0 L .08400001 .52400007 M .08400001 .72900006 L 0 .72900006 L 0 .624 L .08400001 .624 L .08400001 .72900006 Z "/>
</symbol>
<use xlink:href="#font_0_d" transform="matrix(9.4645,0,0,-9.4645,166.49739,53.105669)" fill="#f58000"/>
<use xlink:href="#font_0_4" transform="matrix(9.4645,0,0,-9.4645,171.27698,53.105669)" fill="#f58000"/>
<use xlink:href="#font_0_8" transform="matrix(9.4645,0,0,-9.4645,176.52031,53.105669)" fill="#f58000"/>
<use xlink:href="#font_0_f" transform="matrix(9.4645,0,0,-9.4645,181.30936,53.105669)" fill="#f58000"/>
<use xlink:href="#font_0_11" transform="matrix(9.4645,0,0,-9.4645,186.8177,52.887987)" fill="#f58000"/>
<use xlink:href="#font_0_8" transform="matrix(9.4645,0,0,-9.4645,188.61595,53.105669)" fill="#f58000"/>
<use xlink:href="#font_0_14" transform="matrix(9.4645,0,0,-9.4645,193.68894,52.887987)" fill="#f58000"/>
<use xlink:href="#font_0_11" transform="matrix(9.4645,0,0,-9.4645,201.535,52.887987)" fill="#f58000"/>
<use xlink:href="#font_0_d" transform="matrix(9.4645,0,0,-9.4645,203.30486,53.105669)" fill="#f58000"/>
<path transform="matrix(.1,0,0,-.1,0,238.43)" d="M 2848.37 2058.36 C 2848.37 2074.02 2835.68 2086.71 2820.02 2086.71 C 2804.36 2086.71 2791.67 2074.02 2791.67 2058.36 C 2791.67 2042.7 2804.36 2030.01 2820.02 2030.01 C 2835.68 2030.01 2848.37 2042.7 2848.37 2058.36 Z M 2820.02 2058.36 " fill="#f58000"/>
<use xlink:href="#font_0_5" transform="matrix(9.4645,0,0,-9.4645,254.11708,29.33026)" fill="#f58000"/>
<path transform="matrix(.1,0,0,-.1,0,238.43)" stroke-width="3.98" stroke-linecap="butt" stroke-miterlimit="10" stroke-linejoin="miter" fill="none" stroke="#f58000" d="M 2594.36 2113.62 L 2622.75 2113.62 "/>
<use xlink:href="#font_0_9" transform="matrix(9.4645,0,0,-9.4645,262.4085,27.484683)" fill="#f58000"/>
<use xlink:href="#font_0_4" transform="matrix(9.4645,0,0,-9.4645,265.24787,27.484683)" fill="#f58000"/>
<use xlink:href="#font_0_5" transform="matrix(9.4645,0,0,-9.4645,270.68049,29.33026)" fill="#f58000"/>
<use xlink:href="#font_0_4" transform="matrix(9.4645,0,0,-9.4645,275.7724,27.484683)" fill="#f58000"/>
<path transform="matrix(.1,0,0,-.1,0,238.43)" stroke-width="3.98" stroke-linecap="butt" stroke-miterlimit="10" stroke-linejoin="miter" fill="none" stroke="#f58000" d="M 2812.61 2113.62 L 2841 2113.62 "/>
<symbol id="font_0_7">
<path d="M 0 .52400007 L 0 0 L .08400001 0 L .08400001 .272 C .08400001 .347 .103 .39600004 .143 .425 C .169 .44400005 .194 .45000003 .252 .45100004 L .252 .536 C .238 .53800007 .231 .53900006 .22 .53900006 C .16600001 .53900006 .125 .507 .07700001 .42900003 L .07700001 .52400007 L 0 .52400007 Z "/>
</symbol>
<symbol id="font_0_2">
<path d="M 0 .52400007 L 0 0 L .084000017 0 L .084000017 .289 C .084000017 .39600004 .14000002 .46600003 .22600001 .46600003 C .29200004 .46600003 .33400003 .42600004 .33400003 .363 L .33400003 0 L .41700004 0 L .41700004 .39600004 C .41700004 .483 .35200004 .53900006 .25100003 .53900006 C .17300001 .53900006 .123 .509 .077 .43600003 L .077 .52400007 L 0 .52400007 Z "/>
</symbol>
<use xlink:href="#font_0_9" transform="matrix(9.4645,0,0,-9.4645,284.23353,27.484683)" fill="#f58000"/>
<use xlink:href="#font_0_7" transform="matrix(9.4645,0,0,-9.4645,287.3852,27.266999)" fill="#f58000"/>
<use xlink:href="#font_0_f" transform="matrix(9.4645,0,0,-9.4645,290.2624,27.484683)" fill="#f58000"/>
<use xlink:href="#font_0_2" transform="matrix(9.4645,0,0,-9.4645,295.8086,27.266999)" fill="#f58000"/>
<use xlink:href="#font_0_d" transform="matrix(9.4645,0,0,-9.4645,300.70176,27.484683)" fill="#f58000"/>
<use xlink:href="#font_0_10" transform="matrix(9.4645,0,0,-9.4645,305.8031,27.266999)" fill="#f58000"/>
<use xlink:href="#font_0_d" transform="matrix(9.4645,0,0,-9.4645,224.6994,213.11368)" fill="#1f6e96"/>
<path transform="matrix(.1,0,0,-.1,0,238.43)" stroke-width="3.98" stroke-linecap="butt" stroke-miterlimit="10" stroke-linejoin="miter" fill="none" stroke="#1f6e96" d="M 2297.07 257.34 L 2325.46 257.34 "/>
<use xlink:href="#font_0_c" transform="matrix(9.4645,0,0,-9.4645,233.05709,213.11368)" fill="#1f6e96"/>
<use xlink:href="#font_0_4" transform="matrix(9.4645,0,0,-9.4645,238.149,213.11368)" fill="#1f6e96"/>
<use xlink:href="#font_0_9" transform="matrix(9.4645,0,0,-9.4645,243.20305,213.11368)" fill="#1f6e96"/>
<use xlink:href="#font_0_d" transform="matrix(0,-9.4645,-9.4645,-0,415.7107,143.99869)" fill="#1f6e96"/>
<path transform="matrix(.1,0,0,-.1,0,238.43)" stroke-width="3.98" stroke-linecap="butt" stroke-miterlimit="10" stroke-linejoin="miter" fill="none" stroke="#1f6e96" d="M 4152.94 994.379 L 4152.94 1022.77 "/>
<symbol id="font_0_15">
<path d="M .63100007 .64300009 L .609 .577 C .58400008 .634 .54200008 .66400006 .48700003 .66400006 C .35300002 .66400006 .22999999 .532 .22999999 .38700003 C .22999999 .283 .3 .20400001 .393 .20400001 C .446 .20400001 .489 .22600001 .535 .27600003 C .544 .22500001 .5820001 .199 .64500007 .199 C .71900007 .199 .78000006 .22800002 .8310001 .28800003 C .88600006 .352 .91700008 .43300004 .91700008 .51100006 C .91700008 .71400007 .72400006 .8830001 .49100004 .8830001 C .372 .8830001 .24599999 .83400008 .15799999 .75400009 C .060000004 .665 0 .531 0 .40000005 C 0 .178 .20200002 0 .455 0 C .52900007 0 .609 .015000001 .68100008 .042000005 L .65300008 .109000008 C .57100006 .086 .51400008 .077 .46 .077 C .248 .077 .085 .224 .085 .41500003 C .085 .625 .26700003 .80600008 .47800002 .80600008 C .669 .80600008 .83000007 .66600009 .83000007 .499 C .83000007 .38200004 .74700006 .269 .66200008 .269 C .63500007 .269 .61200007 .289 .61200007 .31300003 C .61200007 .32200004 .61600008 .34000004 .6240001 .36300005 L .71400007 .64300009 L .63100007 .64300009 M .48100005 .6 C .53700008 .6 .57800009 .558 .57500007 .504 C .5730001 .454 .54600009 .37 .521 .333 C .493 .292 .456 .268 .419 .268 C .36400003 .268 .32 .32 .32 .38600005 C .32 .49800004 .397 .6 .48100005 .6 Z "/>
</symbol>
<symbol id="font_0_1">
<path d="M .45700006 .21900001 L .532 0 L .63600006 0 L .38000003 .72900006 L .26000003 .72900006 L 0 0 L .09900001 0 L .176 .21900001 L .45700006 .21900001 M .43100003 .29700003 L .199 .29700003 L .31900005 .629 L .43100003 .29700003 Z "/>
</symbol>
<use xlink:href="#font_0_f" transform="matrix(0,-9.4645,-9.4645,-0,415.7107,135.7744)" fill="#1f6e96"/>
<use xlink:href="#font_0_b" transform="matrix(0,-9.4645,-9.4645,-0,415.7107,130.49323)" fill="#1f6e96"/>
<use xlink:href="#font_0_8" transform="matrix(0,-9.4645,-9.4645,-0,415.7107,125.30668)" fill="#1f6e96"/>
<use xlink:href="#font_0_9" transform="matrix(0,-9.4645,-9.4645,-0,415.7107,120.763729)" fill="#1f6e96"/>
<use xlink:href="#font_0_15" transform="matrix(0,-9.4645,-9.4645,-0,416.83699,117.9433)" fill="#1f6e96"/>
<use xlink:href="#font_0_1" transform="matrix(0,-9.4645,-9.4645,-0,415.493,108.49772)" fill="#1f6e96"/>
<use xlink:href="#font_0_d" transform="matrix(0,-9.4645,-9.4645,-0,404.2169,30.36459)" fill="#1f6e96"/>
<path transform="matrix(.1,0,0,-.1,0,238.43)" stroke-width="3.98" stroke-linecap="butt" stroke-miterlimit="10" stroke-linejoin="miter" fill="none" stroke="#1f6e96" d="M 4038 2130.72 L 4038 2159.11 "/>
<use xlink:href="#font_0_f" transform="matrix(0,-9.4645,-9.4645,-0,404.21669,22.13941)" fill="#1f6e96"/>
<use xlink:href="#font_0_b" transform="matrix(0,-9.4645,-9.4645,-0,404.21669,16.858214)" fill="#1f6e96"/>
<use xlink:href="#font_0_8" transform="matrix(0,-9.4645,-9.4645,-0,404.21669,11.671661)" fill="#1f6e96"/>
<use xlink:href="#font_0_9" transform="matrix(0,-9.4645,-9.4645,-0,404.21669,7.128697)" fill="#1f6e96"/>
<use xlink:href="#font_0_d" transform="matrix(9.4645,0,0,-9.4645,347.2704,27.484683)" fill="#1f6e96"/>
<path transform="matrix(.1,0,0,-.1,0,238.43)" stroke-width="3.98" stroke-linecap="butt" stroke-miterlimit="10" stroke-linejoin="miter" fill="none" stroke="#1f6e96" d="M 3522.77 2113.62 L 3551.16 2113.62 "/>
<use xlink:href="#font_0_9" transform="matrix(9.4645,0,0,-9.4645,355.2495,27.484683)" fill="#1f6e96"/>
<use xlink:href="#font_0_4" transform="matrix(9.4645,0,0,-9.4645,358.08888,27.484683)" fill="#1f6e96"/>
<use xlink:href="#font_0_5" transform="matrix(9.4645,0,0,-9.4645,363.52149,29.33026)" fill="#1f6e96"/>
<use xlink:href="#font_0_4" transform="matrix(9.4645,0,0,-9.4645,368.6134,27.484683)" fill="#1f6e96"/>
<use xlink:href="#font_0_15" transform="matrix(9.4645,0,0,-9.4645,373.85676,28.610959)" fill="#1f6e96"/>
<use xlink:href="#font_0_1" transform="matrix(9.4645,0,0,-9.4645,383.3023,27.266999)" fill="#1f6e96"/>
<use xlink:href="#font_0_d" transform="matrix(9.4645,0,0,-9.4645,214.7544,27.484683)" fill="#1f6e96"/>
<path transform="matrix(.1,0,0,-.1,0,238.43)" stroke-width="3.98" stroke-linecap="butt" stroke-miterlimit="10" stroke-linejoin="miter" fill="none" stroke="#1f6e96" d="M 2197.61 2113.62 L 2226 2113.62 "/>
<use xlink:href="#font_0_9" transform="matrix(9.4645,0,0,-9.4645,222.73252,27.484683)" fill="#1f6e96"/>
<use xlink:href="#font_0_4" transform="matrix(9.4645,0,0,-9.4645,225.57187,27.484683)" fill="#1f6e96"/>
<use xlink:href="#font_0_5" transform="matrix(9.4645,0,0,-9.4645,231.00449,29.33026)" fill="#1f6e96"/>
<use xlink:href="#font_0_4" transform="matrix(9.4645,0,0,-9.4645,236.0964,27.484683)" fill="#1f6e96"/>
<use xlink:href="#font_0_d" transform="matrix(9.4645,0,0,-9.4645,119.971408,27.484683)" fill="#1f6e96"/>
<path transform="matrix(.1,0,0,-.1,0,238.43)" stroke-width="3.98" stroke-linecap="butt" stroke-miterlimit="10" stroke-linejoin="miter" fill="none" stroke="#1f6e96" d="M 1249.79 2113.62 L 1278.18 2113.62 "/>
<symbol id="font_0_3">
<path d="M 0 0 L .32900004 0 C .39800004 0 .449 .019000002 .48800005 .061000006 C .52400007 .09900001 .544 .15100001 .544 .208 C .544 .296 .504 .349 .411 .38500003 C .47700007 .416 .512 .47000004 .512 .544 C .512 .597 .49200005 .64400008 .45400007 .67800006 C .41600005 .71300008 .36600004 .72900006 .29600004 .72900006 L 0 .72900006 L 0 0 M .093 .41500003 L .093 .647 L .27300004 .647 C .32500003 .647 .35400004 .64000007 .37900005 .62100008 C .40500004 .601 .41900004 .57100006 .41900004 .531 C .41900004 .492 .40500004 .46100004 .37900005 .441 C .35400004 .42200003 .32500003 .41500003 .27300004 .41500003 L .093 .41500003 M .093 .082 L .093 .333 L .32000003 .333 C .36500005 .333 .39500005 .32200004 .41700004 .298 C .439 .275 .45100004 .24300002 .45100004 .20700002 C .45100004 .172 .439 .14 .41700004 .117000009 C .39500005 .093 .36500005 .082 .32000003 .082 L .093 .082 Z "/>
</symbol>
<use xlink:href="#font_0_9" transform="matrix(9.4645,0,0,-9.4645,127.9505,27.484683)" fill="#1f6e96"/>
<use xlink:href="#font_0_4" transform="matrix(9.4645,0,0,-9.4645,130.78986,27.484683)" fill="#1f6e96"/>
<use xlink:href="#font_0_5" transform="matrix(9.4645,0,0,-9.4645,136.22248,29.33026)" fill="#1f6e96"/>
<use xlink:href="#font_0_4" transform="matrix(9.4645,0,0,-9.4645,141.31439,27.484683)" fill="#1f6e96"/>
<use xlink:href="#font_0_15" transform="matrix(9.4645,0,0,-9.4645,146.55773,28.610959)" fill="#1f6e96"/>
<use xlink:href="#font_0_3" transform="matrix(9.4645,0,0,-9.4645,156.5901,27.266999)" fill="#1f6e96"/>
<use xlink:href="#font_0_d" transform="matrix(0,9.4645,9.4645,0,65.89132,3.4483984)" fill="#1f6e96"/>
<path transform="matrix(.1,0,0,-.1,0,238.43)" stroke-width="3.98" stroke-linecap="butt" stroke-miterlimit="10" stroke-linejoin="miter" fill="none" stroke="#1f6e96" d="M 663.082 2299.75 L 663.082 2271.36 "/>
<use xlink:href="#font_0_a" transform="matrix(0,9.4645,9.4645,0,66.109,11.350778)" fill="#1f6e96"/>
<use xlink:href="#font_0_f" transform="matrix(0,9.4645,9.4645,0,65.89132,18.41125)" fill="#1f6e96"/>
<use xlink:href="#font_0_8" transform="matrix(0,9.4645,9.4645,0,65.89132,23.61673)" fill="#1f6e96"/>
<use xlink:href="#font_0_9" transform="matrix(0,9.4645,9.4645,0,65.89132,28.159695)" fill="#1f6e96"/>
<use xlink:href="#font_0_d" transform="matrix(0,9.4645,9.4645,0,54.39722,133.65439)" fill="#1f6e96"/>
<path transform="matrix(.1,0,0,-.1,0,238.43)" stroke-width="3.98" stroke-linecap="butt" stroke-miterlimit="10" stroke-linejoin="miter" fill="none" stroke="#1f6e96" d="M 548.141 997.691 L 548.141 969.301 "/>
<use xlink:href="#font_0_a" transform="matrix(0,9.4645,9.4645,0,54.6148,141.55789)" fill="#1f6e96"/>
<use xlink:href="#font_0_f" transform="matrix(0,9.4645,9.4645,0,54.397119,148.61835)" fill="#1f6e96"/>
<use xlink:href="#font_0_8" transform="matrix(0,9.4645,9.4645,0,54.397119,153.8238)" fill="#1f6e96"/>
<use xlink:href="#font_0_9" transform="matrix(0,9.4645,9.4645,0,54.397119,158.36678)" fill="#1f6e96"/>
<use xlink:href="#font_0_15" transform="matrix(0,9.4645,9.4645,0,53.27084,161.1872)" fill="#1f6e96"/>
<use xlink:href="#font_0_1" transform="matrix(0,9.4645,9.4645,0,54.6148,170.63277)" fill="#1f6e96"/>
<use xlink:href="#font_0_d" transform="matrix(9.4645,0,0,-9.4645,75.2774,54.343675)" fill="#1f6e96"/>
<path transform="matrix(.1,0,0,-.1,0,238.43)" stroke-width="3.98" stroke-linecap="butt" stroke-miterlimit="10" stroke-linejoin="miter" fill="none" stroke="#1f6e96" d="M 802.84 1845.03 L 831.23 1845.03 "/>
<use xlink:href="#font_0_d" transform="matrix(9.4645,0,0,-9.4645,83.4172,54.343675)" fill="#1f6e96"/>
<use xlink:href="#font_0_4" transform="matrix(9.4645,0,0,-9.4645,88.19677,54.343675)" fill="#1f6e96"/>
<use xlink:href="#font_0_2" transform="matrix(9.4645,0,0,-9.4645,93.78082,54.12599)" fill="#1f6e96"/>
<use xlink:href="#font_0_14" transform="matrix(9.4645,0,0,-9.4645,99.04308,54.12599)" fill="#1f6e96"/>
<use xlink:href="#font_0_4" transform="matrix(9.4645,0,0,-9.4645,106.60522,54.343675)" fill="#1f6e96"/>
<use xlink:href="#font_0_10" transform="matrix(9.4645,0,0,-9.4645,112.18927,54.12599)" fill="#1f6e96"/>
<use xlink:href="#font_0_4" transform="matrix(9.4645,0,0,-9.4645,117.12974,54.343675)" fill="#1f6e96"/>
<use xlink:href="#font_0_d" transform="matrix(8.196547,-4.7322509,-4.7322509,-8.196547,166.62694,98.73181)" fill="#1f6e96"/>
<path transform="matrix(.1,0,0,-.1,0,238.43)" stroke-width="3.98002" stroke-linecap="butt" stroke-miterlimit="10" stroke-linejoin="miter" fill="none" stroke="#1f6e96" d="M 1707.54 1425.63 L 1732.13 1439.82 "/>
<use xlink:href="#font_0_8" transform="matrix(8.196547,-4.7322509,-4.7322509,-8.196547,173.70053,94.64861)" fill="#1f6e96"/>
<use xlink:href="#font_0_13" transform="matrix(8.196547,-4.7322509,-4.7322509,-8.196547,177.96863,91.933078)" fill="#1f6e96"/>
<use xlink:href="#font_0_b" transform="matrix(8.196547,-4.7322509,-4.7322509,-8.196547,179.68399,91.194087)" fill="#1f6e96"/>
<use xlink:href="#font_0_c" transform="matrix(8.196547,-4.7322509,-4.7322509,-8.196547,184.33963,88.50616)" fill="#1f6e96"/>
<use xlink:href="#font_0_c" transform="matrix(8.196547,-4.7322509,-4.7322509,-8.196547,188.81488,85.922389)" fill="#1f6e96"/>
<use xlink:href="#font_0_4" transform="matrix(8.196547,-4.7322509,-4.7322509,-8.196547,193.22463,83.376438)" fill="#1f6e96"/>
<use xlink:href="#font_0_9" transform="matrix(8.196547,-4.7322509,-4.7322509,-8.196547,197.60158,80.84941)" fill="#1f6e96"/>
<use xlink:href="#font_0_d" transform="matrix(8.893789,-3.237139,-3.237139,-8.893789,214.60416,72.22319)" fill="#1f6e96"/>
<path transform="matrix(.1,0,0,-.1,0,238.43)" stroke-width="3.98004" stroke-linecap="butt" stroke-miterlimit="10" stroke-linejoin="miter" fill="none" stroke="#1f6e96" d="M 2191.67 1683.11 L 2218.35 1692.82 "/>
<symbol id="font_0_6">
<path d="M 0 0 L .28100003 0 C .46500004 0 .57800009 .13800001 .57800009 .365 C .57800009 .591 .46600003 .72900006 .28100003 .72900006 L 0 .72900006 L 0 0 M .09300001 .082 L .09300001 .647 L .265 .647 C .40900005 .647 .485 .55 .485 .36400003 C .485 .18 .40900005 .082 .265 .082 L .09300001 .082 Z "/>
</symbol>
<use xlink:href="#font_0_8" transform="matrix(8.893789,-3.237139,-3.237139,-8.893789,222.27985,69.42949)" fill="#1f6e96"/>
<use xlink:href="#font_0_13" transform="matrix(8.893789,-3.237139,-3.237139,-8.893789,226.95468,67.49629)" fill="#1f6e96"/>
<use xlink:href="#font_0_b" transform="matrix(8.893789,-3.237139,-3.237139,-8.893789,228.77233,67.06637)" fill="#1f6e96"/>
<use xlink:href="#font_0_c" transform="matrix(8.893789,-3.237139,-3.237139,-8.893789,233.82399,65.22768)" fill="#1f6e96"/>
<use xlink:href="#font_0_c" transform="matrix(8.893789,-3.237139,-3.237139,-8.893789,238.68004,63.460187)" fill="#1f6e96"/>
<use xlink:href="#font_0_4" transform="matrix(8.893789,-3.237139,-3.237139,-8.893789,243.4649,61.718606)" fill="#1f6e96"/>
<use xlink:href="#font_0_9" transform="matrix(8.893789,-3.237139,-3.237139,-8.893789,248.21419,59.98997)" fill="#1f6e96"/>
<use xlink:href="#font_0_15" transform="matrix(8.893789,-3.237139,-3.237139,-8.893789,251.24976,60.08367)" fill="#1f6e96"/>
<use xlink:href="#font_0_6" transform="matrix(8.893789,-3.237139,-3.237139,-8.893789,260.30644,55.35702)" fill="#1f6e96"/>
<use xlink:href="#font_0_d" transform="matrix(9.4645,0,0,-9.4645,341.9564,54.481676)" fill="#1f6e96"/>
<path transform="matrix(.1,0,0,-.1,0,238.43)" stroke-width="3.98" stroke-linecap="butt" stroke-miterlimit="10" stroke-linejoin="miter" fill="none" stroke="#1f6e96" d="M 3469.63 1843.66 L 3498.02 1843.66 "/>
<use xlink:href="#font_0_8" transform="matrix(9.4645,0,0,-9.4645,350.12483,54.481676)" fill="#1f6e96"/>
<use xlink:href="#font_0_13" transform="matrix(9.4645,0,0,-9.4645,355.17884,54.263994)" fill="#1f6e96"/>
<use xlink:href="#font_0_b" transform="matrix(9.4645,0,0,-9.4645,357.03388,54.481676)" fill="#1f6e96"/>
<use xlink:href="#font_0_c" transform="matrix(9.4645,0,0,-9.4645,362.4097,54.481676)" fill="#1f6e96"/>
<use xlink:href="#font_0_c" transform="matrix(9.4645,0,0,-9.4645,367.57737,54.481676)" fill="#1f6e96"/>
<use xlink:href="#font_0_4" transform="matrix(9.4645,0,0,-9.4645,372.66929,54.481676)" fill="#1f6e96"/>
<use xlink:href="#font_0_9" transform="matrix(9.4645,0,0,-9.4645,377.72334,54.481676)" fill="#1f6e96"/>
<use xlink:href="#font_0_15" transform="matrix(9.4645,0,0,-9.4645,380.54377,55.607954)" fill="#1f6e96"/>
<use xlink:href="#font_0_3" transform="matrix(9.4645,0,0,-9.4645,390.5761,54.263994)" fill="#1f6e96"/>
<use xlink:href="#font_0_d" transform="matrix(8.196547,-4.7322509,-4.7322509,-8.196547,129.68593,103.32582)" fill="#1f6e96"/>
<path transform="matrix(.1,0,0,-.1,0,238.43)" stroke-width="3.98002" stroke-linecap="butt" stroke-miterlimit="10" stroke-linejoin="miter" fill="none" stroke="#1f6e96" d="M 1338.13 1379.69 L 1362.71 1393.89 "/>
<use xlink:href="#font_0_8" transform="matrix(8.196547,-4.7322509,-4.7322509,-8.196547,136.75853,99.241619)" fill="#1f6e96"/>
<use xlink:href="#font_0_13" transform="matrix(8.196547,-4.7322509,-4.7322509,-8.196547,141.02663,96.52608)" fill="#1f6e96"/>
<use xlink:href="#font_0_b" transform="matrix(8.196547,-4.7322509,-4.7322509,-8.196547,142.742,95.78709)" fill="#1f6e96"/>
<use xlink:href="#font_0_c" transform="matrix(8.196547,-4.7322509,-4.7322509,-8.196547,147.39765,93.09916)" fill="#1f6e96"/>
<use xlink:href="#font_0_9" transform="matrix(8.196547,-4.7322509,-4.7322509,-8.196547,151.62706,90.65732)" fill="#1f6e96"/>
<use xlink:href="#font_0_4" transform="matrix(8.196547,-4.7322509,-4.7322509,-8.196547,154.08603,89.23764)" fill="#1f6e96"/>
<use xlink:href="#font_0_5" transform="matrix(8.196547,-4.7322509,-4.7322509,-8.196547,159.71364,88.11965)" fill="#1f6e96"/>
<use xlink:href="#font_0_15" transform="matrix(8.196547,-4.7322509,-4.7322509,-8.196547,163.74735,84.96023)" fill="#1f6e96"/>
<use xlink:href="#font_0_6" transform="matrix(8.196547,-4.7322509,-4.7322509,-8.196547,171.84566,78.7328)" fill="#1f6e96"/>
<use xlink:href="#font_0_d" transform="matrix(8.577779,-3.99989,-3.99989,-8.577779,183.00691,72.95229)" fill="#1f6e96"/>
<path transform="matrix(.1,0,0,-.1,0,238.43)" stroke-width="3.98001" stroke-linecap="butt" stroke-miterlimit="10" stroke-linejoin="miter" fill="none" stroke="#1f6e96" d="M 1873.68 1679.72 L 1899.41 1691.72 "/>
<use xlink:href="#font_0_8" transform="matrix(8.577779,-3.99989,-3.99989,-8.577779,190.41063,69.50029)" fill="#1f6e96"/>
<use xlink:href="#font_0_13" transform="matrix(8.577779,-3.99989,-3.99989,-8.577779,194.89917,67.16706)" fill="#1f6e96"/>
<use xlink:href="#font_0_b" transform="matrix(8.577779,-3.99989,-3.99989,-8.577779,196.67243,66.58038)" fill="#1f6e96"/>
<use xlink:href="#font_0_c" transform="matrix(8.577779,-3.99989,-3.99989,-8.577779,201.54459,64.30844)" fill="#1f6e96"/>
<use xlink:href="#font_0_9" transform="matrix(8.577779,-3.99989,-3.99989,-8.577779,205.97072,62.2445)" fill="#1f6e96"/>
<use xlink:href="#font_0_4" transform="matrix(8.577779,-3.99989,-3.99989,-8.577779,208.54407,61.044534)" fill="#1f6e96"/>
<use xlink:href="#font_0_5" transform="matrix(8.577779,-3.99989,-3.99989,-8.577779,214.24768,60.421266)" fill="#1f6e96"/>
<use xlink:href="#font_0_d" transform="matrix(9.142045,-2.4496029,-2.4496029,-9.142045,234.06574,52.603326)" fill="#1f6e96"/>
<path transform="matrix(.1,0,0,-.1,0,238.43)" stroke-width="3.98002" stroke-linecap="butt" stroke-miterlimit="10" stroke-linejoin="miter" fill="none" stroke="#1f6e96" d="M 2387.95 1875.26 L 2415.37 1882.61 "/>
<use xlink:href="#font_0_8" transform="matrix(9.142045,-2.4496029,-2.4496029,-9.142045,241.95618,50.48898)" fill="#1f6e96"/>
<use xlink:href="#font_0_13" transform="matrix(9.142045,-2.4496029,-2.4496029,-9.142045,246.7817,48.97062)" fill="#1f6e96"/>
<use xlink:href="#font_0_b" transform="matrix(9.142045,-2.4496029,-2.4496029,-9.142045,248.62989,48.700769)" fill="#1f6e96"/>
<use xlink:href="#font_0_c" transform="matrix(9.142045,-2.4496029,-2.4496029,-9.142045,253.82257,47.309389)" fill="#1f6e96"/>
<use xlink:href="#font_0_9" transform="matrix(9.142045,-2.4496029,-2.4496029,-9.142045,258.53987,46.045389)" fill="#1f6e96"/>
<use xlink:href="#font_0_4" transform="matrix(9.142045,-2.4496029,-2.4496029,-9.142045,261.2825,45.310514)" fill="#1f6e96"/>
<use xlink:href="#font_0_5" transform="matrix(9.142045,-2.4496029,-2.4496029,-9.142045,267.0077,45.687135)" fill="#1f6e96"/>
<use xlink:href="#font_0_15" transform="matrix(9.142045,-2.4496029,-2.4496029,-9.142045,271.72166,43.679349)" fill="#1f6e96"/>
<use xlink:href="#font_0_1" transform="matrix(9.142045,-2.4496029,-2.4496029,-9.142045,280.4976,39.936475)" fill="#1f6e96"/>
<path transform="matrix(.1,0,0,-.1,0,238.43)" stroke-width="9.9628" stroke-linecap="butt" stroke-miterlimit="10" stroke-linejoin="miter" fill="none" stroke="#808080" d="M 649.523 187.242 L 4136.97 187.242 "/>
<path transform="matrix(.1,0,0,-.1,0,238.43)" d="M 4198.7 187.242 C 4191.12 188.934 4157.8 198.512 4136.97 208.938 L 4136.97 165.547 C 4157.8 175.973 4191.12 185.551 4198.7 187.242 " fill="#808080"/>
<path transform="matrix(.1,0,0,-.1,0,238.43)" stroke-width="9.9628" stroke-linecap="butt" stroke-miterlimit="10" stroke-linejoin="miter" fill="none" stroke="#808080" d="M 4198.7 187.242 C 4191.12 188.934 4157.8 198.512 4136.97 208.938 L 4136.97 165.547 C 4157.8 175.973 4191.12 185.551 4198.7 187.242 Z "/>
<symbol id="font_1_1">
<path d="M .33900003 .272 L .51500007 .54 L .347 .54 L .26000003 .377 L .172 .54 L .0040000008 .54 L .18 .272 L 0 0 L .16800002 0 L .26000003 .16800002 L .351 0 L .51900008 0 L .33900003 .272 Z "/>
</symbol>
<use xlink:href="#font_1_1" transform="matrix(9.4645,0,0,-9.4645,425.66844,222.221)" fill="#808080"/>
<path transform="matrix(.1,0,0,-.1,0,238.43)" stroke-width="9.9628" stroke-linecap="butt" stroke-miterlimit="10" stroke-linejoin="miter" fill="none" stroke="#808080" d="M 649.523 187.242 L 649.523 144.73 "/>
<symbol id="font_2_1">
<path d="M .57600006 0 C .59300008 0 .611 0 .611 .019999996 C .611 .040000008 .59300008 .040000008 .57600006 .040000008 L .035000005 .040000008 C .018 .040000008 0 .040000008 0 .019999996 C 0 0 .018 0 .035000005 0 L .57600006 0 Z "/>
</symbol>
<use xlink:href="#font_2_1" transform="matrix(9.9626,0,0,-9.9626,47.337797,232.15345)" fill="#808080"/>
<symbol id="font_3_2">
<path d="M .089999999 .35000003 L .089999999 .37400005 C .089999999 .62700006 .21400002 .66300007 .26500003 .66300007 C .28900004 .66300007 .33100004 .65700009 .35300002 .623 C .33800004 .623 .298 .623 .298 .57800009 C .298 .54700008 .32200004 .53200009 .344 .53200009 C .36 .53200009 .39000003 .54100009 .39000003 .58000007 C .39000003 .64000007 .34600003 .688 .263 .688 C .13499999 .688 0 .559 0 .33800004 C 0 .071 .116000007 0 .20900002 0 C .32000003 0 .41500003 .094000007 .41500003 .22600001 C .41500003 .35300005 .32600004 .44900004 .215 .44900004 C .14700002 .44900004 .11000001 .39800004 .089999999 .35000003 M .20900002 .028 C .146 .028 .116000007 .088 .11000001 .103 C .092 .15 .092 .23 .092 .24800001 C .092 .32600004 .124000009 .42600004 .21400002 .42600004 C .23000002 .42600004 .27600003 .42600004 .307 .36400003 C .32500003 .32700003 .32500003 .27600003 .32500003 .22700002 C .32500003 .179 .32500003 .12900001 .30800004 .093 C .27800004 .033000005 .23200003 .028 .20900002 .028 Z "/>
</symbol>
<symbol id="font_3_1">
<path d="M .421 .34200005 C .421 .42200003 .416 .50200006 .381 .57600006 C .335 .67200008 .25300003 .688 .211 .688 C .15100001 .688 .07800001 .66200008 .037000006 .56900009 C .0050000029 .5 0 .42200003 0 .34200005 C 0 .26700003 .0040000008 .177 .045000007 .101 C .088 .020000002 .161 0 .21000001 0 C .264 0 .34 .021000002 .384 .116000007 C .416 .185 .421 .263 .421 .34200005 M .21000001 .022000002 C .171 .022000002 .112 .047000003 .094 .143 C .083000008 .20300001 .083000008 .29500003 .083000008 .35400004 C .083000008 .41800005 .083000008 .48400004 .091000009 .53800007 C .11 .65700009 .185 .66600009 .21000001 .66600009 C .243 .66600009 .30900003 .64800009 .328 .549 C .338 .49300004 .338 .41700004 .338 .35400004 C .338 .279 .338 .21100001 .32700003 .147 C .312 .052 .255 .022000002 .21000001 .022000002 Z "/>
</symbol>
<use xlink:href="#font_3_2" transform="matrix(9.9626,0,0,-9.9626,54.678548,234.66402)" fill="#808080"/>
<use xlink:href="#font_3_1" transform="matrix(9.9626,0,0,-9.9626,59.62996,234.66402)" fill="#808080"/>
<use xlink:href="#font_3_1" transform="matrix(9.9626,0,0,-9.9626,64.61126,234.66402)" fill="#808080"/>
<symbol id="font_0_12">
<path d="M .083000008 .72900006 L 0 .72900006 L 0 0 L .083000008 0 L .083000008 .20400001 L .16400002 .284 L .34100003 0 L .44400005 0 L .23000002 .34300003 L .41200004 .52400007 L .305 .52400007 L .083000008 .30200003 L .083000008 .72900006 Z "/>
</symbol>
<use xlink:href="#font_0_12" transform="matrix(9.4645,0,0,-9.4645,71.330959,234.44484)" fill="#808080"/>
<use xlink:href="#font_0_14" transform="matrix(9.4645,0,0,-9.4645,76.17678,234.44484)" fill="#808080"/>
<path transform="matrix(.1,0,0,-.1,0,238.43)" stroke-width="9.9628" stroke-linecap="butt" stroke-miterlimit="10" stroke-linejoin="miter" fill="none" stroke="#808080" d="M 4051.35 187.242 L 4051.35 144.73 "/>
<use xlink:href="#font_3_2" transform="matrix(9.9626,0,0,-9.9626,390.98243,234.66402)" fill="#808080"/>
<use xlink:href="#font_3_1" transform="matrix(9.9626,0,0,-9.9626,395.93385,234.66402)" fill="#808080"/>
<use xlink:href="#font_3_1" transform="matrix(9.9626,0,0,-9.9626,400.91514,234.66402)" fill="#808080"/>
<use xlink:href="#font_0_12" transform="matrix(9.4645,0,0,-9.4645,407.63404,234.44484)" fill="#808080"/>
<use xlink:href="#font_0_14" transform="matrix(9.4645,0,0,-9.4645,412.47984,234.44484)" fill="#808080"/>
<path transform="matrix(.1,0,0,-.1,0,238.43)" stroke-width="9.9628" stroke-linecap="butt" stroke-miterlimit="10" stroke-linejoin="miter" fill="none" stroke="#808080" d="M 479.422 357.344 L 479.422 2143.78 "/>
<path transform="matrix(.1,0,0,-.1,0,238.43)" d="M 479.422 2205.5 C 477.73 2197.92 468.152 2164.6 457.727 2143.78 L 501.117 2143.78 C 490.691 2164.6 481.113 2197.92 479.422 2205.5 " fill="#808080"/>
<path transform="matrix(.1,0,0,-.1,0,238.43)" stroke-width="9.9628" stroke-linecap="butt" stroke-miterlimit="10" stroke-linejoin="miter" fill="none" stroke="#808080" d="M 479.422 2205.5 C 477.73 2197.92 468.152 2164.6 457.727 2143.78 L 501.117 2143.78 C 490.691 2164.6 481.113 2197.92 479.422 2205.5 Z "/>
<symbol id="font_1_2">
<path d="M .38500003 .75900009 L .273 .366 L .154 .75900009 L 0 .75900009 L .201 .19700001 L .201 .19600001 L .201 .19300002 C .201 .142 .163 .10300001 .114 .10300001 C .103 .10300001 .095 .10400001 .077 .109000008 L .077 .004000008 C .098000008 .001000002 .11 0 .127 0 C .162 0 .20400001 .0069999995 .22800002 .017000005 C .26700003 .033000009 .284 .05600001 .307 .120000008 L .52900007 .75900009 L .38500003 .75900009 Z "/>
</symbol>
<use xlink:href="#font_1_2" transform="matrix(9.4645,0,0,-9.4645,45.39928,12.310717)" fill="#808080"/>
<path transform="matrix(.1,0,0,-.1,0,238.43)" stroke-width="9.9628" stroke-linecap="butt" stroke-miterlimit="10" stroke-linejoin="miter" fill="none" stroke="#808080" d="M 479.422 357.344 L 436.91 357.344 "/>
<use xlink:href="#font_2_1" transform="matrix(9.9626,0,0,-9.9626,3.981976,203.40579)" fill="#808080"/>
<use xlink:href="#font_3_2" transform="matrix(9.9626,0,0,-9.9626,11.32156,205.91637)" fill="#808080"/>
<use xlink:href="#font_3_1" transform="matrix(9.9626,0,0,-9.9626,16.272973,205.91637)" fill="#808080"/>
<use xlink:href="#font_3_1" transform="matrix(9.9626,0,0,-9.9626,21.254273,205.91637)" fill="#808080"/>
<use xlink:href="#font_0_12" transform="matrix(9.4645,0,0,-9.4645,27.97397,205.69719)" fill="#808080"/>
<use xlink:href="#font_0_14" transform="matrix(9.4645,0,0,-9.4645,32.819795,205.69719)" fill="#808080"/>
<path transform="matrix(.1,0,0,-.1,0,238.43)" stroke-width="9.9628" stroke-linecap="butt" stroke-miterlimit="10" stroke-linejoin="miter" fill="none" stroke="#808080" d="M 479.422 2058.26 L 436.91 2058.26 "/>
<use xlink:href="#font_3_1" transform="matrix(9.9626,0,0,-9.9626,21.254542,36.242174)" fill="#808080"/>
<use xlink:href="#font_0_12" transform="matrix(9.4645,0,0,-9.4645,27.97392,36.022996)" fill="#808080"/>
<use xlink:href="#font_0_14" transform="matrix(9.4645,0,0,-9.4645,32.819746,36.022996)" fill="#808080"/>
<use xlink:href="#font_0_d" transform="matrix(9.4645,0,0,-9.4645,110.36939,116.716678)" fill="#1f6e96"/>
<path transform="matrix(.1,0,0,-.1,0,238.43)" stroke-width="3.98" stroke-linecap="butt" stroke-miterlimit="10" stroke-linejoin="miter" fill="none" stroke="#1f6e96" d="M 1153.76 1221.3 L 1182.15 1221.3 "/>
<use xlink:href="#font_0_8" transform="matrix(9.4645,0,0,-9.4645,118.53679,116.716678)" fill="#1f6e96"/>
<use xlink:href="#font_0_13" transform="matrix(9.4645,0,0,-9.4645,123.590839,116.49899)" fill="#1f6e96"/>
<use xlink:href="#font_0_b" transform="matrix(9.4645,0,0,-9.4645,125.44588,116.716678)" fill="#1f6e96"/>
<use xlink:href="#font_0_c" transform="matrix(9.4645,0,0,-9.4645,130.82172,116.716678)" fill="#1f6e96"/>
<path transform="matrix(.1,0,0,-.1,0,238.43)" stroke-width="3.98" stroke-linecap="butt" stroke-miterlimit="10" stroke-linejoin="miter" fill="none" stroke="#1f6e96" d="M 1361.41 1221.3 L 1389.8 1221.3 "/>
<symbol id="font_0_e">
<path d="M .46900005 .75200006 L .38600005 .75200006 L .38600005 .48100005 C .351 .53400006 .29500003 .56200006 .22500003 .56200006 C .089 .56200006 0 .453 0 .286 C 0 .109000008 .087000008 0 .22800002 0 C .3 0 .35000003 .027000003 .39500005 .09200001 L .39500005 .023000002 L .46900005 .023000002 L .46900005 .75200006 M .23900002 .48400004 C .32900004 .48400004 .38600005 .404 .38600005 .279 C .38600005 .158 .328 .07800001 .24000001 .07800001 C .148 .07800001 .087000008 .15900001 .087000008 .28100003 C .087000008 .40300004 .148 .48400004 .23900002 .48400004 Z "/>
</symbol>
<use xlink:href="#font_0_f" transform="matrix(9.4645,0,0,-9.4645,139.35858,116.716678)" fill="#1f6e96"/>
<use xlink:href="#font_0_2" transform="matrix(9.4645,0,0,-9.4645,144.90479,116.49899)" fill="#1f6e96"/>
<use xlink:href="#font_0_e" transform="matrix(9.4645,0,0,-9.4645,149.75061,116.716678)" fill="#1f6e96"/>
</g>
</svg>
