<?xml version="1.0" encoding="UTF-8" standalone="no"?>
<!DOCTYPE svg PUBLIC "-//W3C//DTD SVG 1.1//EN" "http://www.w3.org/Graphics/SVG/1.1/DTD/svg11.dtd">
<svg xmlns="http://www.w3.org/2000/svg" xmlns:xlink="http://www.w3.org/1999/xlink" version="1.1" width="426.52pt" height="219.35pt" viewBox="0 0 426.52 219.35">
<g enable-background="new">
<path transform="matrix(.1,0,0,-.1,0,219.35)" d="M 431.563 2034.02 L 431.563 1920.62 L 1893.02 1855.41 L 2602.06 2034.02 Z " fill="#5ecc0d"/>
<path transform="matrix(.1,0,0,-.1,0,219.35)" stroke-width="9.9628" stroke-linecap="butt" stroke-miterlimit="10" stroke-linejoin="miter" fill="none" stroke="#1f6e96" d="M 431.563 2034.02 L 431.563 1920.62 L 1893.02 1855.41 L 2602.06 2034.02 Z "/>
<path transform="matrix(.1,0,0,-.1,0,219.35)" d="M 431.563 333.004 L 3833.603 333.004 L 3833.603 1920.614 L 431.563 1920.614 Z " fill="#ffff73"/>
<path transform="matrix(.1,0,0,-.1,0,219.35)" stroke-width="9.9628" stroke-linecap="butt" stroke-miterlimit="10" stroke-linejoin="miter" fill="none" stroke="#1f6e96" d="M 431.563 333.004 L 3833.603 333.004 L 3833.603 1920.614 L 431.563 1920.614 Z "/>
<path transform="matrix(.1,0,0,-.1,0,219.35)" d="M 1276.4 1353.61 C 1276.4 1353.61 1637 1582.07 1731.16 1637.14 C 1825.34 1692.21 1881.92 1720.25 1955.12 1750.54 C 2028.32 1780.82 2155.44 1831.82 2258.73 1855.43 C 2362.02 1879.02 2481.04 1911.58 2699.55 1920.63 C 2918.06 1929.67 3833.6 1920.62 3833.6 1920.62 L 3833.6 2034.02 L 2602.06 2034.02 C 2602.06 2034.02 2208.56 1945.4 2110.18 1920.62 C 2011.8 1895.84 1961.73 1879.01 1893.02 1855.41 C 1824.3 1831.82 1684.59 1780.82 1614.94 1750.54 C 1545.28 1720.25 1485.16 1692.21 1390.98 1637.14 C 1296.81 1582.07 936.199 1353.61 936.199 1353.61 " fill="#33baff"/>
<path transform="matrix(.1,0,0,-.1,0,219.35)" stroke-width="9.9628" stroke-linecap="butt" stroke-miterlimit="10" stroke-linejoin="miter" fill="none" stroke="#1f6e96" d="M 1276.4 1353.61 C 1276.4 1353.61 1637 1582.07 1731.16 1637.14 C 1825.34 1692.21 1881.92 1720.25 1955.12 1750.54 C 2028.32 1780.82 2155.44 1831.82 2258.73 1855.43 C 2362.02 1879.02 2481.04 1911.58 2699.55 1920.63 C 2918.06 1929.67 3833.6 1920.62 3833.6 1920.62 L 3833.6 2034.02 L 2602.06 2034.02 C 2602.06 2034.02 2208.56 1945.4 2110.18 1920.62 C 2011.8 1895.84 1961.73 1879.01 1893.02 1855.41 C 1824.3 1831.82 1684.59 1780.82 1614.94 1750.54 C 1545.28 1720.25 1485.16 1692.21 1390.98 1637.14 C 1296.81 1582.07 936.199 1353.61 936.199 1353.61 Z "/>
<path transform="matrix(.1,0,0,-.1,0,219.35)" stroke-width="19.9255" stroke-linecap="butt" stroke-miterlimit="10" stroke-linejoin="miter" fill="none" stroke="#6100ad" d="M 936.199 1353.61 C 936.199 1353.61 1296.81 1582.07 1390.98 1637.14 C 1485.16 1692.21 1545.28 1720.25 1614.94 1750.54 C 1684.59 1780.82 1824.3 1831.82 1893.02 1855.41 C 1961.73 1879.01 2011.8 1895.84 2110.18 1920.62 C 2208.56 1945.4 2602.06 2034.02 2602.06 2034.02 "/>
<path transform="matrix(.1,0,0,-.1,0,219.35)" stroke-width="19.9255" stroke-linecap="butt" stroke-miterlimit="10" stroke-linejoin="miter" fill="none" stroke="#6100ad" d="M 1276.4 1353.61 C 1276.4 1353.61 1637 1582.07 1731.16 1637.14 C 1825.34 1692.21 1881.92 1720.25 1955.12 1750.54 C 2028.32 1780.82 2155.44 1831.82 2258.73 1855.43 C 2362.02 1879.02 2481.04 1911.58 2699.55 1920.63 C 2918.06 1929.67 3833.6 1920.62 3833.6 1920.62 "/>
<path transform="matrix(.1,0,0,-.1,0,219.35)" stroke-width="9.9628" stroke-linecap="butt" stroke-miterlimit="10" stroke-linejoin="miter" fill="none" stroke="#3b7d08" d="M 431.563 758.23 C 431.563 779.359 414.438 796.488 393.309 796.488 C 372.18 796.488 355.051 779.359 355.051 758.23 C 355.051 737.105 372.18 719.977 393.309 719.977 C 414.438 719.977 431.563 737.105 431.563 758.23 Z M 393.309 758.23 "/>
<clipPath id="cp0">
<path transform="matrix(.1,0,0,-.1,0,219.35)" d="M 268.02 644.844 L 353.05909 644.844 L 353.05909 871.621 L 268.02 871.621 Z "/>
</clipPath>
<g clip-path="url(#cp0)">
<symbol id="pac1">
<g clip-path="url(#cp2)">
<path transform="matrix(.1,0,0,-.1,-.00390625,219.35391)" stroke-width="3.985" stroke-linecap="butt" stroke-miterlimit="10" stroke-linejoin="miter" fill="none" stroke="#3b7d08" d="M 0 0 L 30.8828 30.8828 "/>
</g>
</symbol>
<pattern id="pa1" patternUnits="userSpaceOnUse" patternContentUnits="userSpaceOnUse" x="0" y="0" width="2.98883" height="2.98883">
<clipPath id="cp3">
<path d="M -.99628 -.99628 L 3.9851 -.99628 L 3.9851 3.9851 L -.99628 3.9851 Z"/>
</clipPath>
<g clip-path="url(#cp3)">
<g transform="matrix(1,0,0,-1,.00390625,219.35391)">
<use x="0" y="0" xlink:href="#pac1"/>
<use x="0" y="-2.98883" xlink:href="#pac1"/>
<use x="-2.98883" y="0" xlink:href="#pac1"/>
<use x="-2.98883" y="-2.98883" xlink:href="#pac1"/>
</g>
</g>
</pattern>
<clipPath id="cp2">
<path transform="matrix(.1,0,0,-.1,-.00390625,219.35391)" d="M -10 -10 L -10 40 L 40 40 L 40 -10 Z "/>
</clipPath>
<rect transform="matrix(1,0,0,-1,-.00390625,219.35391)" fill="url(#pa1)" x="26.805907" y="64.48831" width="8.503908" height="22.677704"/>
</g>
<path transform="matrix(.1,0,0,-.1,0,219.35)" stroke-width="9.9628" stroke-linecap="butt" stroke-miterlimit="10" stroke-linejoin="miter" fill="none" stroke="#3b7d08" d="M 431.563 1608.69 C 431.563 1629.82 414.438 1646.95 393.309 1646.95 C 372.18 1646.95 355.051 1629.82 355.051 1608.69 C 355.051 1587.56 372.18 1570.43 393.309 1570.43 C 414.438 1570.43 431.563 1587.56 431.563 1608.69 Z M 393.309 1608.69 "/>
<clipPath id="cp4">
<path transform="matrix(.1,0,0,-.1,0,219.35)" d="M 268.02 1495.3 L 353.05909 1495.3 L 353.05909 1722.073 L 268.02 1722.073 Z "/>
</clipPath>
<g clip-path="url(#cp4)">
<symbol id="pac5">
<g clip-path="url(#cp6)">
<path transform="matrix(.1,0,0,-.1,-.00390625,219.35391)" stroke-width="3.985" stroke-linecap="butt" stroke-miterlimit="10" stroke-linejoin="miter" fill="none" stroke="#3b7d08" d="M 0 0 L 30.8828 30.8828 "/>
</g>
</symbol>
<pattern id="pa5" patternUnits="userSpaceOnUse" patternContentUnits="userSpaceOnUse" x="0" y="0" width="2.98883" height="2.98883">
<clipPath id="cp7">
<path d="M -.99628 -.99628 L 3.9851 -.99628 L 3.9851 3.9851 L -.99628 3.9851 Z"/>
</clipPath>
<g clip-path="url(#cp7)">
<g transform="matrix(1,0,0,-1,.00390625,219.35391)">
<use x="0" y="0" xlink:href="#pac5"/>
<use x="0" y="-2.98883" xlink:href="#pac5"/>
<use x="-2.98883" y="0" xlink:href="#pac5"/>
<use x="-2.98883" y="-2.98883" xlink:href="#pac5"/>
</g>
</g>
</pattern>
<clipPath id="cp6">
<path transform="matrix(.1,0,0,-.1,-.00390625,219.35391)" d="M -10 -10 L -10 40 L 40 40 L 40 -10 Z "/>
</clipPath>
<rect transform="matrix(1,0,0,-1,-.00390625,219.35391)" fill="url(#pa5)" x="26.805907" y="149.53392" width="8.503908" height="22.677292"/>
</g>
<symbol id="font_8_1">
<path d="M .321 .067 C .33200003 .026 .367 0 .41 0 C .44500003 0 .468 .023000002 .484 .055000005 C .50100007 .091000009 .51400008 .15200001 .51400008 .15400002 C .51400008 .16400002 .50500008 .16400002 .50200006 .16400002 C .492 .16400002 .49100004 .16000001 .488 .14600002 C .474 .09 .455 .022000002 .41300003 .022000002 C .39200003 .022000002 .382 .035 .382 .068 C .382 .09 .394 .13700001 .402 .17200002 L .43 .28000004 C .433 .29500003 .44300003 .33300004 .447 .34800003 C .45200003 .37100003 .462 .40900005 .462 .41500003 C .462 .43300004 .448 .44200004 .433 .44200004 C .428 .44200004 .402 .441 .394 .40700004 C .375 .33400003 .331 .15900001 .319 .106000009 C .318 .102000009 .278 .022000002 .20500002 .022000002 C .15300001 .022000002 .143 .067 .143 .104 C .143 .16000001 .171 .23900002 .19700001 .30800004 C .209 .33800004 .21400002 .35200004 .21400002 .37100003 C .21400002 .41600005 .18200001 .45300005 .13200002 .45300005 C .037 .45300005 0 .30800004 0 .29900003 C 0 .28900004 .01 .28900004 .012 .28900004 C .022000002 .28900004 .023 .291 .028000003 .307 C .053000004 .39400003 .091000009 .43100003 .12900001 .43100003 C .13800001 .43100003 .15400002 .43000005 .15400002 .39800004 C .15400002 .374 .143 .34500004 .13700001 .33 C .10000001 .23100002 .079 .16900002 .079 .120000008 C .079 .025000003 .148 0 .202 0 C .268 0 .304 .045 .321 .067 Z "/>
</symbol>
<use xlink:href="#font_8_1" transform="matrix(9.9626,0,0,-9.9626,3.4428254,103.57559)" fill="#6100ad"/>
<symbol id="font_9_1">
<path d="M .201 .116000007 C .19100002 .082 .15800002 .028 .107 .028 C .10400001 .028 .07400001 .028 .053000004 .042000005 C .094000007 .055000005 .09700001 .091 .09700001 .097 C .09700001 .119 .080000009 .134 .057000005 .134 C .029000007 .134 0 .11 0 .073 C 0 .023000002 .056 0 .10500001 0 C .15100003 0 .192 .029000003 .21700001 .071 C .241 .018000002 .296 0 .336 0 C .451 0 .512 .125 .512 .15300001 C .512 .16600001 .49900005 .16600001 .49600003 .16600001 C .48200003 .16600001 .48100005 .16100002 .47700004 .14900002 C .456 .08 .39600004 .028 .34 .028 C .3 .028 .279 .055000005 .279 .093 C .279 .119 .303 .21000001 .331 .321 C .351 .398 .39600004 .423 .42900003 .423 C .43100003 .423 .46200005 .423 .483 .409 C .451 .4 .439 .372 .439 .354 C .439 .33200003 .456 .317 .479 .317 C .50200006 .317 .535 .336 .535 .37800003 C .535 .43400003 .47100006 .451 .43100003 .451 C .381 .451 .34100003 .418 .319 .38 C .301 .421 .255 .451 .199 .451 C .087000008 .451 .023000002 .328 .023000002 .298 C .023000002 .285 .037 .285 .040000008 .285 C .053000004 .285 .054000006 .289 .059000009 .30200003 C .084 .38 .14700002 .423 .19600001 .423 C .229 .423 .256 .405 .256 .357 C .256 .337 .24400002 .287 .23500002 .25300003 L .201 .116000007 Z "/>
</symbol>
<use xlink:href="#font_9_1" transform="matrix(6.9738,0,0,-6.9738,9.192562,105.03066)" fill="#6100ad"/>
<symbol id="font_a_8">
<path d="M .63100007 .19400002 C .646 .19400002 .665 .19400002 .665 .214 C .665 .23400001 .646 .23400001 .632 .23400001 L .033 .23400001 C .019000002 .23400001 0 .23400001 0 .214 C 0 .19400002 .019000002 .19400002 .034 .19400002 L .63100007 .19400002 M .632 0 C .646 0 .665 0 .665 .02000001 C .665 .040000008 .646 .040000008 .63100007 .040000008 L .034 .040000008 C .019000002 .040000008 0 .040000008 0 .02000001 C 0 0 .019000002 0 .033 0 L .632 0 Z "/>
</symbol>
<symbol id="font_a_6">
<path d="M .421 .34200005 C .421 .42200003 .416 .50200006 .381 .57600006 C .335 .67200008 .25300003 .688 .211 .688 C .15100001 .688 .07800001 .66200008 .037000006 .56900009 C .0050000029 .5 0 .42200003 0 .34200005 C 0 .26700003 .0040000008 .177 .045000007 .101 C .088 .020000002 .161 0 .21000001 0 C .264 0 .34 .021000002 .384 .116000007 C .416 .185 .421 .263 .421 .34200005 M .21000001 .022000002 C .171 .022000002 .112 .047000003 .094 .143 C .083000008 .20300001 .083000008 .29500003 .083000008 .35400004 C .083000008 .41800005 .083000008 .48400004 .091000009 .53800007 C .11 .65700009 .185 .66600009 .21000001 .66600009 C .243 .66600009 .30900003 .64800009 .328 .549 C .338 .49300004 .338 .41700004 .338 .35400004 C .338 .279 .338 .21100001 .32700003 .147 C .312 .052 .255 .022000002 .21000001 .022000002 Z "/>
</symbol>
<use xlink:href="#font_a_8" transform="matrix(9.9626,0,0,-9.9626,17.198925,102.140979)" fill="#6100ad"/>
<use xlink:href="#font_a_6" transform="matrix(9.9626,0,0,-9.9626,27.547926,103.68518)" fill="#6100ad"/>
<path transform="matrix(.1,0,0,-.1,0,219.35)" stroke-width="9.9628" stroke-linecap="butt" stroke-miterlimit="10" stroke-linejoin="miter" fill="none" stroke="#3b7d08" d="M 3910.11 758.23 C 3910.11 779.359 3892.98 796.488 3871.85 796.488 C 3850.72 796.488 3833.6 779.359 3833.6 758.23 C 3833.6 737.105 3850.72 719.977 3871.85 719.977 C 3892.98 719.977 3910.11 737.105 3910.11 758.23 Z M 3871.85 758.23 "/>
<clipPath id="cp11">
<path transform="matrix(.1,0,0,-.1,0,219.35)" d="M 3912.1 644.844 L 3997.1392 644.844 L 3997.1392 871.621 L 3912.1 871.621 Z "/>
</clipPath>
<g clip-path="url(#cp11)">
<symbol id="pac12">
<g clip-path="url(#cp13)">
<path transform="matrix(.1,0,0,-.1,-.00390625,219.35391)" stroke-width="3.985" stroke-linecap="butt" stroke-miterlimit="10" stroke-linejoin="miter" fill="none" stroke="#3b7d08" d="M 0 0 L 30.8828 30.8828 "/>
</g>
</symbol>
<pattern id="pa12" patternUnits="userSpaceOnUse" patternContentUnits="userSpaceOnUse" x="0" y="0" width="2.98883" height="2.98883">
<clipPath id="cp14">
<path d="M -.99628 -.99628 L 3.9851 -.99628 L 3.9851 3.9851 L -.99628 3.9851 Z"/>
</clipPath>
<g clip-path="url(#cp14)">
<g transform="matrix(1,0,0,-1,.00390625,219.35391)">
<use x="0" y="0" xlink:href="#pac12"/>
<use x="0" y="-2.98883" xlink:href="#pac12"/>
<use x="-2.98883" y="0" xlink:href="#pac12"/>
<use x="-2.98883" y="-2.98883" xlink:href="#pac12"/>
</g>
</g>
</pattern>
<clipPath id="cp13">
<path transform="matrix(.1,0,0,-.1,-.00390625,219.35391)" d="M -10 -10 L -10 40 L 40 40 L 40 -10 Z "/>
</clipPath>
<rect transform="matrix(1,0,0,-1,-.00390625,219.35391)" fill="url(#pa12)" x="391.21394" y="64.48831" width="8.503906" height="22.677704"/>
</g>
<path transform="matrix(.1,0,0,-.1,0,219.35)" stroke-width="9.9628" stroke-linecap="butt" stroke-miterlimit="10" stroke-linejoin="miter" fill="none" stroke="#3b7d08" d="M 3910.11 1608.69 C 3910.11 1629.82 3892.98 1646.95 3871.85 1646.95 C 3850.72 1646.95 3833.6 1629.82 3833.6 1608.69 C 3833.6 1587.56 3850.72 1570.43 3871.85 1570.43 C 3892.98 1570.43 3910.11 1587.56 3910.11 1608.69 Z M 3871.85 1608.69 "/>
<clipPath id="cp15">
<path transform="matrix(.1,0,0,-.1,0,219.35)" d="M 3912.1 1495.3 L 3997.1392 1495.3 L 3997.1392 1722.073 L 3912.1 1722.073 Z "/>
</clipPath>
<g clip-path="url(#cp15)">
<symbol id="pac16">
<g clip-path="url(#cp17)">
<path transform="matrix(.1,0,0,-.1,-.00390625,219.35391)" stroke-width="3.985" stroke-linecap="butt" stroke-miterlimit="10" stroke-linejoin="miter" fill="none" stroke="#3b7d08" d="M 0 0 L 30.8828 30.8828 "/>
</g>
</symbol>
<pattern id="pa16" patternUnits="userSpaceOnUse" patternContentUnits="userSpaceOnUse" x="0" y="0" width="2.98883" height="2.98883">
<clipPath id="cp18">
<path d="M -.99628 -.99628 L 3.9851 -.99628 L 3.9851 3.9851 L -.99628 3.9851 Z"/>
</clipPath>
<g clip-path="url(#cp18)">
<g transform="matrix(1,0,0,-1,.00390625,219.35391)">
<use x="0" y="0" xlink:href="#pac16"/>
<use x="0" y="-2.98883" xlink:href="#pac16"/>
<use x="-2.98883" y="0" xlink:href="#pac16"/>
<use x="-2.98883" y="-2.98883" xlink:href="#pac16"/>
</g>
</g>
</pattern>
<clipPath id="cp17">
<path transform="matrix(.1,0,0,-.1,-.00390625,219.35391)" d="M -10 -10 L -10 40 L 40 40 L 40 -10 Z "/>
</clipPath>
<rect transform="matrix(1,0,0,-1,-.00390625,219.35391)" fill="url(#pa16)" x="391.21394" y="149.53392" width="8.503906" height="22.677292"/>
</g>
<use xlink:href="#font_8_1" transform="matrix(9.9626,0,0,-9.9626,394.6669,103.57559)" fill="#6100ad"/>
<use xlink:href="#font_9_1" transform="matrix(6.9738,0,0,-6.9738,400.41548,105.03066)" fill="#6100ad"/>
<use xlink:href="#font_a_8" transform="matrix(9.9626,0,0,-9.9626,408.4218,102.140979)" fill="#6100ad"/>
<use xlink:href="#font_a_6" transform="matrix(9.9626,0,0,-9.9626,418.77085,103.68518)" fill="#6100ad"/>
<path transform="matrix(.1,0,0,-.1,0,219.35)" stroke-width="9.9628" stroke-linecap="butt" stroke-miterlimit="10" stroke-linejoin="miter" fill="none" stroke="#3b7d08" d="M 895.047 294.746 C 895.047 315.875 877.922 333.004 856.793 333.004 C 835.664 333.004 818.535 315.875 818.535 294.746 C 818.535 273.621 835.664 256.492 856.793 256.492 C 877.922 256.492 895.047 273.621 895.047 294.746 Z M 856.793 294.746 "/>
<clipPath id="cp19">
<path transform="matrix(.1,0,0,-.1,0,219.35)" d="M 743.406 169.457 L 970.179 169.457 L 970.179 254.5 L 743.406 254.5 Z "/>
</clipPath>
<g clip-path="url(#cp19)">
<symbol id="pac20">
<g clip-path="url(#cp21)">
<path transform="matrix(.1,0,0,-.1,-.00390625,219.35391)" stroke-width="3.985" stroke-linecap="butt" stroke-miterlimit="10" stroke-linejoin="miter" fill="none" stroke="#3b7d08" d="M 0 0 L 30.8828 30.8828 "/>
</g>
</symbol>
<pattern id="pa20" patternUnits="userSpaceOnUse" patternContentUnits="userSpaceOnUse" x="0" y="0" width="2.98883" height="2.98883">
<clipPath id="cp22">
<path d="M -.99628 -.99628 L 3.9851 -.99628 L 3.9851 3.9851 L -.99628 3.9851 Z"/>
</clipPath>
<g clip-path="url(#cp22)">
<g transform="matrix(1,0,0,-1,.00390625,219.35391)">
<use x="0" y="0" xlink:href="#pac20"/>
<use x="0" y="-2.98883" xlink:href="#pac20"/>
<use x="-2.98883" y="0" xlink:href="#pac20"/>
<use x="-2.98883" y="-2.98883" xlink:href="#pac20"/>
</g>
</g>
</pattern>
<clipPath id="cp21">
<path transform="matrix(.1,0,0,-.1,-.00390625,219.35391)" d="M -10 -10 L -10 40 L 40 40 L 40 -10 Z "/>
</clipPath>
<rect transform="matrix(1,0,0,-1,-.00390625,219.35391)" fill="url(#pa20)" x="74.344509" y="16.9496" width="22.677308" height="8.504303"/>
</g>
<path transform="matrix(.1,0,0,-.1,0,219.35)" stroke-width="9.9628" stroke-linecap="butt" stroke-miterlimit="10" stroke-linejoin="miter" fill="none" stroke="#3b7d08" d="M 1745.5 294.746 C 1745.5 315.875 1728.38 333.004 1707.25 333.004 C 1686.12 333.004 1668.99 315.875 1668.99 294.746 C 1668.99 273.621 1686.12 256.492 1707.25 256.492 C 1728.38 256.492 1745.5 273.621 1745.5 294.746 Z M 1707.25 294.746 "/>
<clipPath id="cp23">
<path transform="matrix(.1,0,0,-.1,0,219.35)" d="M 1593.86 169.457 L 1820.637 169.457 L 1820.637 254.5 L 1593.86 254.5 Z "/>
</clipPath>
<g clip-path="url(#cp23)">
<symbol id="pac24">
<g clip-path="url(#cp25)">
<path transform="matrix(.1,0,0,-.1,-.00390625,219.35391)" stroke-width="3.985" stroke-linecap="butt" stroke-miterlimit="10" stroke-linejoin="miter" fill="none" stroke="#3b7d08" d="M 0 0 L 30.8828 30.8828 "/>
</g>
</symbol>
<pattern id="pa24" patternUnits="userSpaceOnUse" patternContentUnits="userSpaceOnUse" x="0" y="0" width="2.98883" height="2.98883">
<clipPath id="cp26">
<path d="M -.99628 -.99628 L 3.9851 -.99628 L 3.9851 3.9851 L -.99628 3.9851 Z"/>
</clipPath>
<g clip-path="url(#cp26)">
<g transform="matrix(1,0,0,-1,.00390625,219.35391)">
<use x="0" y="0" xlink:href="#pac24"/>
<use x="0" y="-2.98883" xlink:href="#pac24"/>
<use x="-2.98883" y="0" xlink:href="#pac24"/>
<use x="-2.98883" y="-2.98883" xlink:href="#pac24"/>
</g>
</g>
</pattern>
<clipPath id="cp25">
<path transform="matrix(.1,0,0,-.1,-.00390625,219.35391)" d="M -10 -10 L -10 40 L 40 40 L 40 -10 Z "/>
</clipPath>
<rect transform="matrix(1,0,0,-1,-.00390625,219.35391)" fill="url(#pa24)" x="159.38991" y="16.9496" width="22.677704" height="8.504303"/>
</g>
<path transform="matrix(.1,0,0,-.1,0,219.35)" stroke-width="9.9628" stroke-linecap="butt" stroke-miterlimit="10" stroke-linejoin="miter" fill="none" stroke="#3b7d08" d="M 2595.96 294.746 C 2595.96 315.875 2578.83 333.004 2557.7 333.004 C 2536.58 333.004 2519.45 315.875 2519.45 294.746 C 2519.45 273.621 2536.58 256.492 2557.7 256.492 C 2578.83 256.492 2595.96 273.621 2595.96 294.746 Z M 2557.7 294.746 "/>
<clipPath id="cp27">
<path transform="matrix(.1,0,0,-.1,0,219.35)" d="M 2444.32 169.457 L 2671.0972 169.457 L 2671.0972 254.5 L 2444.32 254.5 Z "/>
</clipPath>
<g clip-path="url(#cp27)">
<symbol id="pac28">
<g clip-path="url(#cp29)">
<path transform="matrix(.1,0,0,-.1,-.00390625,219.35391)" stroke-width="3.985" stroke-linecap="butt" stroke-miterlimit="10" stroke-linejoin="miter" fill="none" stroke="#3b7d08" d="M 0 0 L 30.8828 30.8828 "/>
</g>
</symbol>
<pattern id="pa28" patternUnits="userSpaceOnUse" patternContentUnits="userSpaceOnUse" x="0" y="0" width="2.98883" height="2.98883">
<clipPath id="cp30">
<path d="M -.99628 -.99628 L 3.9851 -.99628 L 3.9851 3.9851 L -.99628 3.9851 Z"/>
</clipPath>
<g clip-path="url(#cp30)">
<g transform="matrix(1,0,0,-1,.00390625,219.35391)">
<use x="0" y="0" xlink:href="#pac28"/>
<use x="0" y="-2.98883" xlink:href="#pac28"/>
<use x="-2.98883" y="0" xlink:href="#pac28"/>
<use x="-2.98883" y="-2.98883" xlink:href="#pac28"/>
</g>
</g>
</pattern>
<clipPath id="cp29">
<path transform="matrix(.1,0,0,-.1,-.00390625,219.35391)" d="M -10 -10 L -10 40 L 40 40 L 40 -10 Z "/>
</clipPath>
<rect transform="matrix(1,0,0,-1,-.00390625,219.35391)" fill="url(#pa28)" x="244.43592" y="16.9496" width="22.677704" height="8.504303"/>
</g>
<path transform="matrix(.1,0,0,-.1,0,219.35)" stroke-width="9.9628" stroke-linecap="butt" stroke-miterlimit="10" stroke-linejoin="miter" fill="none" stroke="#3b7d08" d="M 3446.42 294.746 C 3446.42 315.875 3429.29 333.004 3408.16 333.004 C 3387.03 333.004 3369.91 315.875 3369.91 294.746 C 3369.91 273.621 3387.03 256.492 3408.16 256.492 C 3429.29 256.492 3446.42 273.621 3446.42 294.746 Z M 3408.16 294.746 "/>
<clipPath id="cp31">
<path transform="matrix(.1,0,0,-.1,0,219.35)" d="M 3294.77 169.457 L 3521.543 169.457 L 3521.543 254.5 L 3294.77 254.5 Z "/>
</clipPath>
<g clip-path="url(#cp31)">
<symbol id="pac32">
<g clip-path="url(#cp33)">
<path transform="matrix(.1,0,0,-.1,-.00390625,219.35391)" stroke-width="3.985" stroke-linecap="butt" stroke-miterlimit="10" stroke-linejoin="miter" fill="none" stroke="#3b7d08" d="M 0 0 L 30.8828 30.8828 "/>
</g>
</symbol>
<pattern id="pa32" patternUnits="userSpaceOnUse" patternContentUnits="userSpaceOnUse" x="0" y="0" width="2.98883" height="2.98883">
<clipPath id="cp34">
<path d="M -.99628 -.99628 L 3.9851 -.99628 L 3.9851 3.9851 L -.99628 3.9851 Z"/>
</clipPath>
<g clip-path="url(#cp34)">
<g transform="matrix(1,0,0,-1,.00390625,219.35391)">
<use x="0" y="0" xlink:href="#pac32"/>
<use x="0" y="-2.98883" xlink:href="#pac32"/>
<use x="-2.98883" y="0" xlink:href="#pac32"/>
<use x="-2.98883" y="-2.98883" xlink:href="#pac32"/>
</g>
</g>
</pattern>
<clipPath id="cp33">
<path transform="matrix(.1,0,0,-.1,-.00390625,219.35391)" d="M -10 -10 L -10 40 L 40 40 L 40 -10 Z "/>
</clipPath>
<rect transform="matrix(1,0,0,-1,-.00390625,219.35391)" fill="url(#pa32)" x="329.48094" y="16.9496" width="22.677277" height="8.504303"/>
</g>
<use xlink:href="#font_8_1" transform="matrix(9.9626,0,0,-9.9626,199.15792,213.45452)" fill="#6100ad"/>
<symbol id="font_9_2">
<path d="M .50900009 .58100005 C .513 .595 .513 .597 .513 .60300007 C .513 .623 .49700005 .63500007 .48000003 .63500007 C .46900005 .63500007 .45000003 .63000008 .43900005 .611 C .43600003 .605 .42800004 .573 .42300005 .55300006 L .40200005 .47000004 C .39600004 .44600005 .36500005 .32000003 .36200003 .30900003 C .36100004 .30900003 .31700004 .22200002 .23900001 .22200002 C .171 .22200002 .171 .287 .171 .305 C .171 .35900004 .194 .42200003 .22400002 .499 C .23600002 .531 .24100001 .54300007 .24100001 .56 C .24100001 .60800006 .2 .64500007 .146 .64500007 C .045000007 .64500007 0 .509 0 .49200005 C 0 .47900004 .014000002 .47900004 .017 .47900004 C .031 .47900004 .032 .48400004 .035 .495 C .060000007 .578 .103 .61700007 .143 .61700007 C .16000001 .61700007 .168 .606 .168 .582 C .168 .559 .15900001 .537 .154 .52400007 C .106000009 .402 .096 .365 .096 .321 C .096 .30400003 .096 .25700004 .135 .22500001 C .16600001 .19900002 .20800002 .194 .235 .194 C .27500005 .194 .31100003 .209 .34400005 .23900001 C .33100004 .18400002 .32000003 .142 .27800004 .09200001 C .25100003 .061000006 .21100001 .027999998 .158 .027999998 C .15100001 .027999998 .104 .027999998 .083000008 .061000006 C .13700001 .067 .13700001 .11500001 .13700001 .116000007 C .13700001 .148 .107999999 .15400002 .098000008 .15400002 C .073 .15400002 .040000004 .134 .040000004 .08800001 C .040000004 .037 .088 0 .15900001 0 C .26000003 0 .38300003 .07800001 .41400004 .20300001 L .50900009 .58100005 Z "/>
</symbol>
<use xlink:href="#font_9_2" transform="matrix(6.9738,0,0,-6.9738,204.8995,216.26172)" fill="#6100ad"/>
<use xlink:href="#font_a_8" transform="matrix(9.9626,0,0,-9.9626,212.68668,212.0199)" fill="#6100ad"/>
<use xlink:href="#font_a_6" transform="matrix(9.9626,0,0,-9.9626,223.03566,213.5641)" fill="#6100ad"/>
<path transform="matrix(.1,0,0,-.1,0,219.35)" stroke-width="19.9255" stroke-linecap="butt" stroke-miterlimit="10" stroke-linejoin="miter" fill="none" stroke="#6100ad" d="M 2105.13 1950.57 L 2290.06 2000.13 "/>
<path transform="matrix(.1,0,0,-.1,0,219.35)" d="M 2328.08 2010.31 C 2323.11 2010.2 2300.85 2011.16 2286.14 2014.75 L 2293.98 1985.5 C 2304.92 1995.97 2323.72 2007.92 2328.08 2010.31 " fill="#6100ad"/>
<path transform="matrix(.1,0,0,-.1,0,219.35)" stroke-width="17.9325" stroke-linecap="butt" stroke-miterlimit="10" stroke-linejoin="miter" fill="none" stroke="#6100ad" d="M 2328.08 2010.31 C 2323.11 2010.2 2300.85 2011.16 2286.14 2014.75 L 2293.98 1985.5 C 2304.92 1995.97 2323.72 2007.92 2328.08 2010.31 Z "/>
<path transform="matrix(.1,0,0,-.1,0,219.35)" stroke-width="19.9255" stroke-linecap="butt" stroke-miterlimit="10" stroke-linejoin="miter" fill="none" stroke="#6100ad" d="M 2389.97 1938.85 L 2205.04 1889.3 "/>
<path transform="matrix(.1,0,0,-.1,0,219.35)" d="M 2167.01 1879.11 C 2171.99 1879.22 2194.24 1878.26 2208.96 1874.67 L 2201.12 1903.92 C 2190.17 1893.46 2171.38 1881.5 2167.01 1879.11 " fill="#6100ad"/>
<path transform="matrix(.1,0,0,-.1,0,219.35)" stroke-width="17.9325" stroke-linecap="butt" stroke-miterlimit="10" stroke-linejoin="miter" fill="none" stroke="#6100ad" d="M 2167.01 1879.11 C 2171.99 1879.22 2194.24 1878.26 2208.96 1874.67 L 2201.12 1903.92 C 2190.17 1893.46 2171.38 1881.5 2167.01 1879.11 Z "/>
<symbol id="font_a_9">
<path d="M .107 .053000034 C .107 .07999998 .084000017 .106000009 .054000014 .106000009 C .020000004 .106000009 0 .07800001 0 .053000034 C 0 .026000023 .023000002 0 .05300001 0 C .087000008 0 .107 .027999998 .107 .053000034 Z "/>
</symbol>
<use xlink:href="#font_a_9" transform="matrix(9.623173,-2.5785206,-2.5785206,-9.623173,212.47126,9.98099)" fill="#6100ad"/>
<symbol id="font_8_2">
<path d="M .47600005 .694 C .47600005 .695 .47600005 .705 .46300004 .705 C .44800005 .705 .35300002 .69600006 .33600004 .694 C .32800005 .693 .32200004 .688 .32200004 .675 C .32200004 .663 .33100004 .663 .34600003 .663 C .39400003 .663 .39600004 .656 .39600004 .646 L .39300005 .626 L .33300004 .38900004 C .31500004 .42600004 .286 .45300005 .24100001 .45300005 C .124 .45300005 0 .30600003 0 .16000001 C 0 .06600001 .055000005 0 .133 0 C .153 0 .20300001 .0040000008 .263 .075 C .27100004 .033000005 .30600003 0 .35400004 0 C .38900004 0 .41200004 .023000002 .42800004 .055000005 C .44500003 .091000009 .45800004 .15200001 .45800004 .15400002 C .45800004 .16400002 .44900004 .16400002 .44600005 .16400002 C .43600003 .16400002 .43500004 .16000001 .43200005 .14600002 C .41500003 .081 .397 .022000002 .35600005 .022000002 C .32900004 .022000002 .32600004 .048 .32600004 .068 C .32600004 .092 .32800005 .09900001 .33200003 .116000007 L .47600005 .694 M .26800005 .13000001 C .263 .112 .263 .11000001 .24800001 .093 C .20400001 .038000004 .163 .022000002 .135 .022000002 C .08499999 .022000002 .07100001 .077 .07100001 .116000007 C .07100001 .16600001 .103 .28900004 .126 .335 C .157 .39400003 .202 .43100003 .242 .43100003 C .307 .43100003 .32100005 .34900005 .32100005 .34300003 C .32100005 .337 .31900005 .33100004 .31800003 .32600004 L .26800005 .13000001 Z "/>
</symbol>
<use xlink:href="#font_8_2" transform="matrix(9.623173,-2.5785206,-2.5785206,-9.623173,211.42766,18.90277)" fill="#6100ad"/>
<use xlink:href="#font_a_8" transform="matrix(9.623173,-2.5785206,-2.5785206,-9.623173,218.8923,15.417396)" fill="#6100ad"/>
<use xlink:href="#font_a_6" transform="matrix(9.623173,-2.5785206,-2.5785206,-9.623173,229.28852,14.230426)" fill="#6100ad"/>
<path transform="matrix(.1,0,0,-.1,0,219.35)" stroke-width="19.9255" stroke-linecap="butt" stroke-miterlimit="10" stroke-linejoin="miter" fill="none" stroke="#6100ad" d="M 1275.48 1615.81 L 1441.29 1711.54 "/>
<path transform="matrix(.1,0,0,-.1,0,219.35)" d="M 1475.38 1731.22 C 1470.6 1729.83 1448.86 1724.99 1433.72 1724.65 L 1448.86 1698.43 C 1456.72 1711.37 1471.78 1727.79 1475.38 1731.22 " fill="#6100ad"/>
<path transform="matrix(.1,0,0,-.1,0,219.35)" stroke-width="17.9322" stroke-linecap="butt" stroke-miterlimit="10" stroke-linejoin="miter" fill="none" stroke="#6100ad" d="M 1475.38 1731.22 C 1470.6 1729.83 1448.86 1724.99 1433.72 1724.65 L 1448.86 1698.43 C 1456.72 1711.37 1471.78 1727.79 1475.38 1731.22 Z "/>
<path transform="matrix(.1,0,0,-.1,0,219.35)" stroke-width="19.9255" stroke-linecap="butt" stroke-miterlimit="10" stroke-linejoin="miter" fill="none" stroke="#6100ad" d="M 1553.65 1678.21 L 1387.84 1582.48 "/>
<path transform="matrix(.1,0,0,-.1,0,219.35)" d="M 1353.75 1562.8 C 1358.53 1564.2 1380.28 1569.03 1395.41 1569.37 L 1380.28 1595.59 C 1372.41 1582.66 1357.35 1566.24 1353.75 1562.8 " fill="#6100ad"/>
<path transform="matrix(.1,0,0,-.1,0,219.35)" stroke-width="17.9322" stroke-linecap="butt" stroke-miterlimit="10" stroke-linejoin="miter" fill="none" stroke="#6100ad" d="M 1353.75 1562.8 C 1358.53 1564.2 1380.28 1569.03 1395.41 1569.37 L 1380.28 1595.59 C 1372.41 1582.66 1357.35 1566.24 1353.75 1562.8 Z "/>
<use xlink:href="#font_a_9" transform="matrix(8.627915,-4.9813,-4.9813,-8.627915,110.4969,51.662084)" fill="#6100ad"/>
<use xlink:href="#font_8_2" transform="matrix(8.627915,-4.9813,-4.9813,-8.627915,111.79799,60.55)" fill="#6100ad"/>
<use xlink:href="#font_a_8" transform="matrix(8.627915,-4.9813,-4.9813,-8.627915,118.10534,55.25191)" fill="#6100ad"/>
<symbol id="font_23_1">
<path d="M .57600006 0 C .59300008 0 .611 0 .611 .019999996 C .611 .040000008 .59300008 .040000008 .57600006 .040000008 L .035000005 .040000008 C .018 .040000008 0 .040000008 0 .019999996 C 0 0 .018 0 .035000005 0 L .57600006 0 Z "/>
</symbol>
<use xlink:href="#font_23_1" transform="matrix(8.627915,-4.9813,-4.9813,-8.627915,126.96225,49.022527)" fill="#6100ad"/>
<symbol id="font_a_7">
<path d="M .121 .47900004 C .075 .509 .071 .54300007 .071 .56000009 C .071 .62100008 .136 .66300007 .20700002 .66300007 C .28000004 .66300007 .344 .61100009 .344 .53900006 C .344 .48200003 .305 .43400005 .245 .39900003 L .121 .47900004 M .26700003 .38400004 C .33900003 .42100004 .388 .47300006 .388 .53900006 C .388 .63100007 .29900003 .688 .208 .688 C .108 .688 .027000003 .614 .027000003 .521 C .027000003 .503 .029 .45800004 .071 .41100005 C .082 .39900003 .11900001 .37400005 .144 .35700003 C .086 .32800005 0 .272 0 .17300001 C 0 .067 .102000009 0 .20700002 0 C .32000003 0 .41500003 .083000008 .41500003 .19000001 C .41500003 .22600001 .404 .27100004 .36600004 .31300003 C .34700004 .33400003 .33100004 .34400005 .26700003 .38400004 M .167 .34200005 L .29000003 .26400004 C .31800003 .245 .365 .215 .365 .154 C .365 .080000009 .29000003 .028 .208 .028 C .122 .028 .050000006 .09 .050000006 .17300001 C .050000006 .231 .082 .29500003 .167 .34200005 Z "/>
</symbol>
<symbol id="font_a_3">
<path d="M .083000008 .22900002 C .083000008 .39200003 .16500002 .43400003 .218 .43400003 C .227 .43400003 .29 .43300004 .32500003 .397 C .284 .39400003 .278 .36400003 .278 .351 C .278 .32500003 .296 .305 .324 .305 C .35 .305 .37 .32200004 .37 .35200004 C .37 .42000003 .294 .45900003 .21700001 .45900003 C .092 .45900003 0 .351 0 .22700002 C 0 .09900001 .099 0 .215 0 C .349 0 .381 .120000008 .381 .13000001 C .381 .14000002 .37100003 .14000002 .368 .14000002 C .359 .14000002 .35700003 .136 .35500003 .13000001 C .326 .037 .261 .025000003 .224 .025000003 C .171 .025000003 .083000008 .068 .083000008 .22900002 Z "/>
</symbol>
<symbol id="font_a_4">
<path d="M .07800001 .344 L .07800001 .076000008 C .07800001 .031000002 .067 .031000002 0 .031000002 L 0 0 C .035 .001 .08600001 .003 .113000009 .003 C .139 .003 .191 .001 .225 0 L .225 .031000002 C .158 .031000002 .147 .031000002 .147 .076000008 L .147 .26000003 C .147 .36400003 .218 .42000003 .282 .42000003 C .345 .42000003 .356 .36600004 .356 .30900003 L .356 .076000008 C .356 .031000002 .345 .031000002 .278 .031000002 L .278 0 C .31300003 .001 .36400003 .003 .391 .003 C .41700004 .003 .46900005 .001 .503 0 L .503 .031000002 C .43600003 .031000002 .425 .031000002 .425 .076000008 L .425 .26000003 C .425 .36400003 .496 .42000003 .56 .42000003 C .623 .42000003 .634 .36600004 .634 .30900003 L .634 .076000008 C .634 .031000002 .623 .031000002 .556 .031000002 L .556 0 C .591 .001 .642 .003 .669 .003 C .69500008 .003 .74700006 .001 .781 0 L .781 .031000002 C .72900006 .031000002 .70400008 .031000002 .703 .061000006 L .703 .252 C .703 .33800004 .703 .36900003 .67200008 .40500004 C .65800008 .42200003 .625 .44200004 .56700006 .44200004 C .48300005 .44200004 .439 .38200004 .42200003 .344 C .40800003 .43100003 .33400003 .44200004 .289 .44200004 C .216 .44200004 .169 .39900003 .141 .337 L .141 .44200004 L 0 .43100003 L 0 .4 C .07000001 .4 .07800001 .393 .07800001 .344 Z "/>
</symbol>
<symbol id="font_a_5">
<path d="M .38200004 .962 C .38700003 .975 .38700003 .97800007 .38700003 .98 C .38700003 .99100008 .37800003 1 .367 1 C .35300002 1 .34900005 .99 .34600003 .98 L .0050000029 .037999989 C 0 .024999991 0 .021999985 0 .019999996 C 0 .008999988 .009000003 0 .020000004 0 C .034 0 .038000004 .00999999 .041 .019999996 L .38200004 .962 Z "/>
</symbol>
<symbol id="font_a_2">
<path d="M .39600004 .541 C .42200003 .60400006 .47300003 .605 .48900003 .605 L .48900003 .63600006 C .46600003 .63400009 .43700005 .633 .41400004 .633 C .39600004 .633 .34900005 .635 .32700003 .63600006 L .32700003 .605 C .358 .60400006 .374 .587 .374 .56200006 C .374 .55200007 .37300004 .5500001 .36800004 .538 L .26700003 .29200004 L .15600002 .561 C .15200001 .57100006 .15 .57500007 .15 .579 C .15 .605 .187 .605 .206 .605 L .206 .63600006 C .18 .635 .114 .633 .097 .633 C .07 .633 .030000002 .63400009 0 .63600006 L 0 .605 C .048 .605 .067 .605 .081 .57000008 L .231 .20500002 C .22600001 .19200002 .21200001 .15900001 .206 .14600002 C .18400002 .091000009 .15600002 .022 .09200001 .022 C .087000008 .022 .064 .022 .045 .040000008 C .076000008 .044 .08400001 .066 .08400001 .08200001 C .08400001 .10800001 .065000008 .12400001 .042000005 .12400001 C .022 .12400001 0 .11100001 0 .08100001 C 0 .036 .042000005 0 .09200001 0 C .155 0 .19600001 .05700001 .22 .11400001 L .39600004 .541 Z "/>
</symbol>
<symbol id="font_a_1">
<path d="M .13900002 .33200003 L .13900002 .44200004 L 0 .43100003 L 0 .4 C .07000001 .4 .07800001 .393 .07800001 .344 L .07800001 .076000008 C .07800001 .031000002 .067 .031000002 0 .031000002 L 0 0 C .039 .001 .08600001 .003 .11400001 .003 C .15400002 .003 .20100002 .003 .24100003 0 L .24100003 .031000002 L .22000002 .031000002 C .14600002 .031000002 .14400001 .042000005 .14400001 .078 L .14400001 .23200001 C .14400001 .33100004 .18600002 .42000003 .26200003 .42000003 C .26900003 .42000003 .27100004 .42000003 .27300004 .41900004 C .27 .418 .25000004 .40600003 .25000004 .38000003 C .25000004 .35200004 .27100004 .337 .293 .337 C .31100003 .337 .33600004 .349 .33600004 .381 C .33600004 .41300003 .305 .44200004 .26200003 .44200004 C .18900001 .44200004 .15300001 .37500004 .13900002 .33200003 Z "/>
</symbol>
<use xlink:href="#font_a_7" transform="matrix(8.627915,-4.9813,-4.9813,-8.627915,134.57459,47.526529)" fill="#6100ad"/>
<use xlink:href="#font_a_3" transform="matrix(8.627915,-4.9813,-4.9813,-8.627915,138.76474,44.980829)" fill="#6100ad"/>
<use xlink:href="#font_a_4" transform="matrix(8.627915,-4.9813,-4.9813,-8.627915,142.52695,42.682184)" fill="#6100ad"/>
<use xlink:href="#font_a_5" transform="matrix(8.627915,-4.9813,-4.9813,-8.627915,151.16899,40.568685)" fill="#6100ad"/>
<use xlink:href="#font_a_2" transform="matrix(8.627915,-4.9813,-4.9813,-8.627915,154.93958,37.874094)" fill="#6100ad"/>
<use xlink:href="#font_a_1" transform="matrix(8.627915,-4.9813,-4.9813,-8.627915,158.54985,33.4314)" fill="#6100ad"/>
<path transform="matrix(.1,0,0,-.1,0,219.35)" stroke-width="19.9255" stroke-linecap="butt" stroke-miterlimit="10" stroke-linejoin="miter" fill="none" stroke="#6100ad" d="M 1710.07 1577.6 L 1875.88 1673.32 "/>
<path transform="matrix(.1,0,0,-.1,0,219.35)" d="M 1909.97 1693.01 C 1905.2 1691.61 1883.45 1686.78 1868.31 1686.44 L 1883.45 1660.21 C 1891.32 1673.15 1906.38 1689.57 1909.97 1693.01 " fill="#6100ad"/>
<path transform="matrix(.1,0,0,-.1,0,219.35)" stroke-width="17.9322" stroke-linecap="butt" stroke-miterlimit="10" stroke-linejoin="miter" fill="none" stroke="#6100ad" d="M 1909.97 1693.01 C 1905.2 1691.61 1883.45 1686.78 1868.31 1686.44 L 1883.45 1660.21 C 1891.32 1673.15 1906.38 1689.57 1909.97 1693.01 Z "/>
<path transform="matrix(.1,0,0,-.1,0,219.35)" stroke-width="19.9255" stroke-linecap="butt" stroke-miterlimit="10" stroke-linejoin="miter" fill="none" stroke="#6100ad" d="M 1903.2 1787.3 L 1737.39 1691.57 "/>
<path transform="matrix(.1,0,0,-.1,0,219.35)" d="M 1703.3 1671.89 C 1708.08 1673.29 1729.82 1678.12 1744.96 1678.46 L 1729.82 1704.68 C 1721.96 1691.74 1706.9 1675.33 1703.3 1671.89 " fill="#6100ad"/>
<path transform="matrix(.1,0,0,-.1,0,219.35)" stroke-width="17.9322" stroke-linecap="butt" stroke-miterlimit="10" stroke-linejoin="miter" fill="none" stroke="#6100ad" d="M 1703.3 1671.89 C 1708.08 1673.29 1729.82 1678.12 1744.96 1678.46 L 1729.82 1704.68 C 1721.96 1691.74 1706.9 1675.33 1703.3 1671.89 Z "/>
<use xlink:href="#font_a_9" transform="matrix(8.627915,-4.9813,-4.9813,-8.627915,163.4269,71.88808)" fill="#6100ad"/>
<use xlink:href="#font_8_2" transform="matrix(8.627915,-4.9813,-4.9813,-8.627915,164.728,80.77599)" fill="#6100ad"/>
<symbol id="font_a_a">
<path d="M .35300002 .31300003 L .632 .31300003 C .646 .31300003 .665 .31300003 .665 .333 C .665 .35300002 .646 .35300002 .632 .35300002 L .35300002 .35300002 L .35300002 .633 C .35300002 .647 .35300002 .666 .33300004 .666 C .31300003 .666 .31300003 .647 .31300003 .633 L .31300003 .35300002 L .033 .35300002 C .019000002 .35300002 0 .35300002 0 .333 C 0 .31300003 .019000002 .31300003 .033 .31300003 L .31300003 .31300003 L .31300003 .033000005 C .31300003 .019000002 .31300003 0 .33300004 0 C .35300002 0 .35300002 .019000002 .35300002 .033000005 L .35300002 .31300003 Z "/>
</symbol>
<use xlink:href="#font_a_8" transform="matrix(8.627915,-4.9813,-4.9813,-8.627915,171.03627,75.47737)" fill="#6100ad"/>
<use xlink:href="#font_a_a" transform="matrix(8.627915,-4.9813,-4.9813,-8.627915,181.22165,72.08171)" fill="#6100ad"/>
<use xlink:href="#font_a_7" transform="matrix(8.627915,-4.9813,-4.9813,-8.627915,187.5078,67.750698)" fill="#6100ad"/>
<use xlink:href="#font_a_3" transform="matrix(8.627915,-4.9813,-4.9813,-8.627915,191.69795,65.204998)" fill="#6100ad"/>
<use xlink:href="#font_a_4" transform="matrix(8.627915,-4.9813,-4.9813,-8.627915,195.46016,62.90635)" fill="#6100ad"/>
<use xlink:href="#font_a_5" transform="matrix(8.627915,-4.9813,-4.9813,-8.627915,204.10219,60.79285)" fill="#6100ad"/>
<use xlink:href="#font_a_2" transform="matrix(8.627915,-4.9813,-4.9813,-8.627915,207.87277,58.09826)" fill="#6100ad"/>
<use xlink:href="#font_a_1" transform="matrix(8.627915,-4.9813,-4.9813,-8.627915,211.48307,53.655569)" fill="#6100ad"/>
</g>
</svg>
