<?xml version="1.0" encoding="UTF-8" standalone="no"?>
<!DOCTYPE svg PUBLIC "-//W3C//DTD SVG 1.1//EN" "http://www.w3.org/Graphics/SVG/1.1/DTD/svg11.dtd">
<svg xmlns="http://www.w3.org/2000/svg" xmlns:xlink="http://www.w3.org/1999/xlink" version="1.1" width="426.52pt" height="204.4pt" viewBox="0 0 426.52 204.4">
<g enable-background="new">
<path transform="matrix(.1,0,0,-.1,0,204.4)" d="M 431.563 2034.02 L 431.563 1920.62 L 1893.02 1855.41 L 2602.06 2034.02 Z " fill="#5ecc0d"/>
<path transform="matrix(.1,0,0,-.1,0,204.4)" stroke-width="9.9628" stroke-linecap="butt" stroke-miterlimit="10" stroke-linejoin="miter" fill="none" stroke="#1f6e96" d="M 431.563 2034.02 L 431.563 1920.62 L 1893.02 1855.41 L 2602.06 2034.02 Z "/>
<path transform="matrix(.1,0,0,-.1,0,204.4)" d="M 431.563 333.004 L 3833.603 333.004 L 3833.603 1920.614 L 431.563 1920.614 Z " fill="#ffff73"/>
<path transform="matrix(.1,0,0,-.1,0,204.4)" stroke-width="9.9628" stroke-linecap="butt" stroke-miterlimit="10" stroke-linejoin="miter" fill="none" stroke="#1f6e96" d="M 431.563 333.004 L 3833.603 333.004 L 3833.603 1920.614 L 431.563 1920.614 Z "/>
<path transform="matrix(.1,0,0,-.1,0,204.4)" d="M 1276.4 1353.61 C 1276.4 1353.61 1637 1582.07 1731.16 1637.14 C 1825.34 1692.21 1881.92 1720.25 1955.12 1750.54 C 2028.32 1780.82 2155.44 1831.82 2258.73 1855.43 C 2362.02 1879.02 2481.04 1911.58 2699.55 1920.63 C 2918.06 1929.67 3833.6 1920.62 3833.6 1920.62 L 3833.6 2034.02 L 2602.06 2034.02 C 2602.06 2034.02 2208.56 1945.4 2110.18 1920.62 C 2011.8 1895.84 1961.73 1879.01 1893.02 1855.41 C 1824.3 1831.82 1684.59 1780.82 1614.94 1750.54 C 1545.28 1720.25 1485.16 1692.21 1390.98 1637.14 C 1296.81 1582.07 936.199 1353.61 936.199 1353.61 " fill="#33baff"/>
<path transform="matrix(.1,0,0,-.1,0,204.4)" stroke-width="9.9628" stroke-linecap="butt" stroke-miterlimit="10" stroke-linejoin="miter" fill="none" stroke="#1f6e96" d="M 1276.4 1353.61 C 1276.4 1353.61 1637 1582.07 1731.16 1637.14 C 1825.34 1692.21 1881.92 1720.25 1955.12 1750.54 C 2028.32 1780.82 2155.44 1831.82 2258.73 1855.43 C 2362.02 1879.02 2481.04 1911.58 2699.55 1920.63 C 2918.06 1929.67 3833.6 1920.62 3833.6 1920.62 L 3833.6 2034.02 L 2602.06 2034.02 C 2602.06 2034.02 2208.56 1945.4 2110.18 1920.62 C 2011.8 1895.84 1961.73 1879.01 1893.02 1855.41 C 1824.3 1831.82 1684.59 1780.82 1614.94 1750.54 C 1545.28 1720.25 1485.16 1692.21 1390.98 1637.14 C 1296.81 1582.07 936.199 1353.61 936.199 1353.61 Z "/>
<path transform="matrix(.1,0,0,-.1,0,204.4)" stroke-width="19.9255" stroke-linecap="butt" stroke-miterlimit="10" stroke-linejoin="miter" fill="none" stroke="#6100ad" d="M 1893.02 1855.41 C 1893.02 1855.41 2011.8 1895.84 2110.18 1920.62 C 2208.56 1945.4 2602.06 2034.02 2602.06 2034.02 "/>
<path transform="matrix(.1,0,0,-.1,0,204.4)" stroke-width="9.9628" stroke-linecap="butt" stroke-miterlimit="10" stroke-linejoin="miter" fill="none" stroke="#3b7d08" d="M 431.563 758.23 C 431.563 779.359 414.438 796.488 393.309 796.488 C 372.18 796.488 355.051 779.359 355.051 758.23 C 355.051 737.105 372.18 719.977 393.309 719.977 C 414.438 719.977 431.563 737.105 431.563 758.23 Z M 393.309 758.23 "/>
<clipPath id="cp0">
<path transform="matrix(.1,0,0,-.1,0,204.4)" d="M 268.02 644.844 L 353.05909 644.844 L 353.05909 871.621 L 268.02 871.621 Z "/>
</clipPath>
<g clip-path="url(#cp0)">
<symbol id="pac1">
<g clip-path="url(#cp2)">
<path transform="matrix(.1,0,0,-.1,-.00390625,204.4039)" stroke-width="3.985" stroke-linecap="butt" stroke-miterlimit="10" stroke-linejoin="miter" fill="none" stroke="#3b7d08" d="M 0 0 L 30.8828 30.8828 "/>
</g>
</symbol>
<pattern id="pa1" patternUnits="userSpaceOnUse" patternContentUnits="userSpaceOnUse" x="0" y="0" width="2.98883" height="2.98883">
<clipPath id="cp3">
<path d="M -.99628 -.99628 L 3.9851 -.99628 L 3.9851 3.9851 L -.99628 3.9851 Z"/>
</clipPath>
<g clip-path="url(#cp3)">
<g transform="matrix(1,0,0,-1,.00390625,204.4039)">
<use x="0" y="0" xlink:href="#pac1"/>
<use x="0" y="-2.98883" xlink:href="#pac1"/>
<use x="-2.98883" y="0" xlink:href="#pac1"/>
<use x="-2.98883" y="-2.98883" xlink:href="#pac1"/>
</g>
</g>
</pattern>
<clipPath id="cp2">
<path transform="matrix(.1,0,0,-.1,-.00390625,204.4039)" d="M -10 -10 L -10 40 L 40 40 L 40 -10 Z "/>
</clipPath>
<rect transform="matrix(1,0,0,-1,-.00390625,204.4039)" fill="url(#pa1)" x="26.805907" y="64.48831" width="8.503908" height="22.677697"/>
</g>
<path transform="matrix(.1,0,0,-.1,0,204.4)" stroke-width="9.9628" stroke-linecap="butt" stroke-miterlimit="10" stroke-linejoin="miter" fill="none" stroke="#3b7d08" d="M 431.563 1608.69 C 431.563 1629.82 414.438 1646.95 393.309 1646.95 C 372.18 1646.95 355.051 1629.82 355.051 1608.69 C 355.051 1587.56 372.18 1570.43 393.309 1570.43 C 414.438 1570.43 431.563 1587.56 431.563 1608.69 Z M 393.309 1608.69 "/>
<clipPath id="cp4">
<path transform="matrix(.1,0,0,-.1,0,204.4)" d="M 268.02 1495.3 L 353.05909 1495.3 L 353.05909 1722.073 L 268.02 1722.073 Z "/>
</clipPath>
<g clip-path="url(#cp4)">
<symbol id="pac5">
<g clip-path="url(#cp6)">
<path transform="matrix(.1,0,0,-.1,-.00390625,204.4039)" stroke-width="3.985" stroke-linecap="butt" stroke-miterlimit="10" stroke-linejoin="miter" fill="none" stroke="#3b7d08" d="M 0 0 L 30.8828 30.8828 "/>
</g>
</symbol>
<pattern id="pa5" patternUnits="userSpaceOnUse" patternContentUnits="userSpaceOnUse" x="0" y="0" width="2.98883" height="2.98883">
<clipPath id="cp7">
<path d="M -.99628 -.99628 L 3.9851 -.99628 L 3.9851 3.9851 L -.99628 3.9851 Z"/>
</clipPath>
<g clip-path="url(#cp7)">
<g transform="matrix(1,0,0,-1,.00390625,204.4039)">
<use x="0" y="0" xlink:href="#pac5"/>
<use x="0" y="-2.98883" xlink:href="#pac5"/>
<use x="-2.98883" y="0" xlink:href="#pac5"/>
<use x="-2.98883" y="-2.98883" xlink:href="#pac5"/>
</g>
</g>
</pattern>
<clipPath id="cp6">
<path transform="matrix(.1,0,0,-.1,-.00390625,204.4039)" d="M -10 -10 L -10 40 L 40 40 L 40 -10 Z "/>
</clipPath>
<rect transform="matrix(1,0,0,-1,-.00390625,204.4039)" fill="url(#pa5)" x="26.805907" y="149.53392" width="8.503908" height="22.677292"/>
</g>
<symbol id="font_8_1">
<path d="M .321 .067 C .33200003 .026 .367 0 .41 0 C .44500003 0 .468 .023000002 .484 .055000005 C .50100007 .091000009 .51400008 .15200001 .51400008 .15400002 C .51400008 .16400002 .50500008 .16400002 .50200006 .16400002 C .492 .16400002 .49100004 .16000001 .488 .14600002 C .474 .09 .455 .022000002 .41300003 .022000002 C .39200003 .022000002 .382 .035 .382 .068 C .382 .09 .394 .13700001 .402 .17200002 L .43 .28000004 C .433 .29500003 .44300003 .33300004 .447 .34800003 C .45200003 .37100003 .462 .40900005 .462 .41500003 C .462 .43300004 .448 .44200004 .433 .44200004 C .428 .44200004 .402 .441 .394 .40700004 C .375 .33400003 .331 .15900001 .319 .106000009 C .318 .102000009 .278 .022000002 .20500002 .022000002 C .15300001 .022000002 .143 .067 .143 .104 C .143 .16000001 .171 .23900002 .19700001 .30800004 C .209 .33800004 .21400002 .35200004 .21400002 .37100003 C .21400002 .41600005 .18200001 .45300005 .13200002 .45300005 C .037 .45300005 0 .30800004 0 .29900003 C 0 .28900004 .01 .28900004 .012 .28900004 C .022000002 .28900004 .023 .291 .028000003 .307 C .053000004 .39400003 .091000009 .43100003 .12900001 .43100003 C .13800001 .43100003 .15400002 .43000005 .15400002 .39800004 C .15400002 .374 .143 .34500004 .13700001 .33 C .10000001 .23100002 .079 .16900002 .079 .120000008 C .079 .025000003 .148 0 .202 0 C .268 0 .304 .045 .321 .067 Z "/>
</symbol>
<use xlink:href="#font_8_1" transform="matrix(9.9626,0,0,-9.9626,3.4428254,88.62558)" fill="#6100ad"/>
<symbol id="font_9_1">
<path d="M .201 .116000007 C .19100002 .082 .15800002 .028 .107 .028 C .10400001 .028 .07400001 .028 .053000004 .042000005 C .094000007 .055000005 .09700001 .091 .09700001 .097 C .09700001 .119 .080000009 .134 .057000005 .134 C .029000007 .134 0 .11 0 .073 C 0 .023000002 .056 0 .10500001 0 C .15100003 0 .192 .029000003 .21700001 .071 C .241 .018000002 .296 0 .336 0 C .451 0 .512 .125 .512 .15300001 C .512 .16600001 .49900005 .16600001 .49600003 .16600001 C .48200003 .16600001 .48100005 .16100002 .47700004 .14900002 C .456 .08 .39600004 .028 .34 .028 C .3 .028 .279 .055000005 .279 .093 C .279 .119 .303 .21000001 .331 .321 C .351 .398 .39600004 .423 .42900003 .423 C .43100003 .423 .46200005 .423 .483 .409 C .451 .4 .439 .372 .439 .354 C .439 .33200003 .456 .317 .479 .317 C .50200006 .317 .535 .336 .535 .37800003 C .535 .43400003 .47100006 .451 .43100003 .451 C .381 .451 .34100003 .418 .319 .38 C .301 .421 .255 .451 .199 .451 C .087000008 .451 .023000002 .328 .023000002 .298 C .023000002 .285 .037 .285 .040000008 .285 C .053000004 .285 .054000006 .289 .059000009 .30200003 C .084 .38 .14700002 .423 .19600001 .423 C .229 .423 .256 .405 .256 .357 C .256 .337 .24400002 .287 .23500002 .25300003 L .201 .116000007 Z "/>
</symbol>
<use xlink:href="#font_9_1" transform="matrix(6.9738,0,0,-6.9738,9.192562,90.08065)" fill="#6100ad"/>
<symbol id="font_a_2">
<path d="M .63100007 .19400002 C .646 .19400002 .665 .19400002 .665 .214 C .665 .23400001 .646 .23400001 .632 .23400001 L .033 .23400001 C .019000002 .23400001 0 .23400001 0 .214 C 0 .19400002 .019000002 .19400002 .034 .19400002 L .63100007 .19400002 M .632 0 C .646 0 .665 0 .665 .02000001 C .665 .040000008 .646 .040000008 .63100007 .040000008 L .034 .040000008 C .019000002 .040000008 0 .040000008 0 .02000001 C 0 0 .019000002 0 .033 0 L .632 0 Z "/>
</symbol>
<symbol id="font_a_1">
<path d="M .421 .34200005 C .421 .42200003 .416 .50200006 .381 .57600006 C .335 .67200008 .25300003 .688 .211 .688 C .15100001 .688 .07800001 .66200008 .037000006 .56900009 C .0050000029 .5 0 .42200003 0 .34200005 C 0 .26700003 .0040000008 .177 .045000007 .101 C .088 .020000002 .161 0 .21000001 0 C .264 0 .34 .021000002 .384 .116000007 C .416 .185 .421 .263 .421 .34200005 M .21000001 .022000002 C .171 .022000002 .112 .047000003 .094 .143 C .083000008 .20300001 .083000008 .29500003 .083000008 .35400004 C .083000008 .41800005 .083000008 .48400004 .091000009 .53800007 C .11 .65700009 .185 .66600009 .21000001 .66600009 C .243 .66600009 .30900003 .64800009 .328 .549 C .338 .49300004 .338 .41700004 .338 .35400004 C .338 .279 .338 .21100001 .32700003 .147 C .312 .052 .255 .022000002 .21000001 .022000002 Z "/>
</symbol>
<use xlink:href="#font_a_2" transform="matrix(9.9626,0,0,-9.9626,17.198925,87.19096)" fill="#6100ad"/>
<use xlink:href="#font_a_1" transform="matrix(9.9626,0,0,-9.9626,27.547926,88.73517)" fill="#6100ad"/>
<path transform="matrix(.1,0,0,-.1,0,204.4)" stroke-width="9.9628" stroke-linecap="butt" stroke-miterlimit="10" stroke-linejoin="miter" fill="none" stroke="#3b7d08" d="M 3910.11 758.23 C 3910.11 779.359 3892.98 796.488 3871.85 796.488 C 3850.72 796.488 3833.6 779.359 3833.6 758.23 C 3833.6 737.105 3850.72 719.977 3871.85 719.977 C 3892.98 719.977 3910.11 737.105 3910.11 758.23 Z M 3871.85 758.23 "/>
<clipPath id="cp11">
<path transform="matrix(.1,0,0,-.1,0,204.4)" d="M 3912.1 644.844 L 3997.1392 644.844 L 3997.1392 871.621 L 3912.1 871.621 Z "/>
</clipPath>
<g clip-path="url(#cp11)">
<symbol id="pac12">
<g clip-path="url(#cp13)">
<path transform="matrix(.1,0,0,-.1,-.00390625,204.4039)" stroke-width="3.985" stroke-linecap="butt" stroke-miterlimit="10" stroke-linejoin="miter" fill="none" stroke="#3b7d08" d="M 0 0 L 30.8828 30.8828 "/>
</g>
</symbol>
<pattern id="pa12" patternUnits="userSpaceOnUse" patternContentUnits="userSpaceOnUse" x="0" y="0" width="2.98883" height="2.98883">
<clipPath id="cp14">
<path d="M -.99628 -.99628 L 3.9851 -.99628 L 3.9851 3.9851 L -.99628 3.9851 Z"/>
</clipPath>
<g clip-path="url(#cp14)">
<g transform="matrix(1,0,0,-1,.00390625,204.4039)">
<use x="0" y="0" xlink:href="#pac12"/>
<use x="0" y="-2.98883" xlink:href="#pac12"/>
<use x="-2.98883" y="0" xlink:href="#pac12"/>
<use x="-2.98883" y="-2.98883" xlink:href="#pac12"/>
</g>
</g>
</pattern>
<clipPath id="cp13">
<path transform="matrix(.1,0,0,-.1,-.00390625,204.4039)" d="M -10 -10 L -10 40 L 40 40 L 40 -10 Z "/>
</clipPath>
<rect transform="matrix(1,0,0,-1,-.00390625,204.4039)" fill="url(#pa12)" x="391.21394" y="64.48831" width="8.503906" height="22.677697"/>
</g>
<path transform="matrix(.1,0,0,-.1,0,204.4)" stroke-width="9.9628" stroke-linecap="butt" stroke-miterlimit="10" stroke-linejoin="miter" fill="none" stroke="#3b7d08" d="M 3910.11 1608.69 C 3910.11 1629.82 3892.98 1646.95 3871.85 1646.95 C 3850.72 1646.95 3833.6 1629.82 3833.6 1608.69 C 3833.6 1587.56 3850.72 1570.43 3871.85 1570.43 C 3892.98 1570.43 3910.11 1587.56 3910.11 1608.69 Z M 3871.85 1608.69 "/>
<clipPath id="cp15">
<path transform="matrix(.1,0,0,-.1,0,204.4)" d="M 3912.1 1495.3 L 3997.1392 1495.3 L 3997.1392 1722.073 L 3912.1 1722.073 Z "/>
</clipPath>
<g clip-path="url(#cp15)">
<symbol id="pac16">
<g clip-path="url(#cp17)">
<path transform="matrix(.1,0,0,-.1,-.00390625,204.4039)" stroke-width="3.985" stroke-linecap="butt" stroke-miterlimit="10" stroke-linejoin="miter" fill="none" stroke="#3b7d08" d="M 0 0 L 30.8828 30.8828 "/>
</g>
</symbol>
<pattern id="pa16" patternUnits="userSpaceOnUse" patternContentUnits="userSpaceOnUse" x="0" y="0" width="2.98883" height="2.98883">
<clipPath id="cp18">
<path d="M -.99628 -.99628 L 3.9851 -.99628 L 3.9851 3.9851 L -.99628 3.9851 Z"/>
</clipPath>
<g clip-path="url(#cp18)">
<g transform="matrix(1,0,0,-1,.00390625,204.4039)">
<use x="0" y="0" xlink:href="#pac16"/>
<use x="0" y="-2.98883" xlink:href="#pac16"/>
<use x="-2.98883" y="0" xlink:href="#pac16"/>
<use x="-2.98883" y="-2.98883" xlink:href="#pac16"/>
</g>
</g>
</pattern>
<clipPath id="cp17">
<path transform="matrix(.1,0,0,-.1,-.00390625,204.4039)" d="M -10 -10 L -10 40 L 40 40 L 40 -10 Z "/>
</clipPath>
<rect transform="matrix(1,0,0,-1,-.00390625,204.4039)" fill="url(#pa16)" x="391.21394" y="149.53392" width="8.503906" height="22.677292"/>
</g>
<use xlink:href="#font_8_1" transform="matrix(9.9626,0,0,-9.9626,394.6669,88.62558)" fill="#6100ad"/>
<use xlink:href="#font_9_1" transform="matrix(6.9738,0,0,-6.9738,400.41548,90.08065)" fill="#6100ad"/>
<use xlink:href="#font_a_2" transform="matrix(9.9626,0,0,-9.9626,408.4218,87.19096)" fill="#6100ad"/>
<use xlink:href="#font_a_1" transform="matrix(9.9626,0,0,-9.9626,418.77085,88.73517)" fill="#6100ad"/>
<path transform="matrix(.1,0,0,-.1,0,204.4)" stroke-width="9.9628" stroke-linecap="butt" stroke-miterlimit="10" stroke-linejoin="miter" fill="none" stroke="#3b7d08" d="M 895.047 294.746 C 895.047 315.875 877.922 333.004 856.793 333.004 C 835.664 333.004 818.535 315.875 818.535 294.746 C 818.535 273.621 835.664 256.492 856.793 256.492 C 877.922 256.492 895.047 273.621 895.047 294.746 Z M 856.793 294.746 "/>
<clipPath id="cp19">
<path transform="matrix(.1,0,0,-.1,0,204.4)" d="M 743.406 169.457 L 970.179 169.457 L 970.179 254.5 L 743.406 254.5 Z "/>
</clipPath>
<g clip-path="url(#cp19)">
<symbol id="pac20">
<g clip-path="url(#cp21)">
<path transform="matrix(.1,0,0,-.1,-.00390625,204.4039)" stroke-width="3.985" stroke-linecap="butt" stroke-miterlimit="10" stroke-linejoin="miter" fill="none" stroke="#3b7d08" d="M 0 0 L 30.8828 30.8828 "/>
</g>
</symbol>
<pattern id="pa20" patternUnits="userSpaceOnUse" patternContentUnits="userSpaceOnUse" x="0" y="0" width="2.98883" height="2.98883">
<clipPath id="cp22">
<path d="M -.99628 -.99628 L 3.9851 -.99628 L 3.9851 3.9851 L -.99628 3.9851 Z"/>
</clipPath>
<g clip-path="url(#cp22)">
<g transform="matrix(1,0,0,-1,.00390625,204.4039)">
<use x="0" y="0" xlink:href="#pac20"/>
<use x="0" y="-2.98883" xlink:href="#pac20"/>
<use x="-2.98883" y="0" xlink:href="#pac20"/>
<use x="-2.98883" y="-2.98883" xlink:href="#pac20"/>
</g>
</g>
</pattern>
<clipPath id="cp21">
<path transform="matrix(.1,0,0,-.1,-.00390625,204.4039)" d="M -10 -10 L -10 40 L 40 40 L 40 -10 Z "/>
</clipPath>
<rect transform="matrix(1,0,0,-1,-.00390625,204.4039)" fill="url(#pa20)" x="74.344509" y="16.9496" width="22.677308" height="8.504303"/>
</g>
<path transform="matrix(.1,0,0,-.1,0,204.4)" stroke-width="9.9628" stroke-linecap="butt" stroke-miterlimit="10" stroke-linejoin="miter" fill="none" stroke="#3b7d08" d="M 1745.5 294.746 C 1745.5 315.875 1728.38 333.004 1707.25 333.004 C 1686.12 333.004 1668.99 315.875 1668.99 294.746 C 1668.99 273.621 1686.12 256.492 1707.25 256.492 C 1728.38 256.492 1745.5 273.621 1745.5 294.746 Z M 1707.25 294.746 "/>
<clipPath id="cp23">
<path transform="matrix(.1,0,0,-.1,0,204.4)" d="M 1593.86 169.457 L 1820.637 169.457 L 1820.637 254.5 L 1593.86 254.5 Z "/>
</clipPath>
<g clip-path="url(#cp23)">
<symbol id="pac24">
<g clip-path="url(#cp25)">
<path transform="matrix(.1,0,0,-.1,-.00390625,204.4039)" stroke-width="3.985" stroke-linecap="butt" stroke-miterlimit="10" stroke-linejoin="miter" fill="none" stroke="#3b7d08" d="M 0 0 L 30.8828 30.8828 "/>
</g>
</symbol>
<pattern id="pa24" patternUnits="userSpaceOnUse" patternContentUnits="userSpaceOnUse" x="0" y="0" width="2.98883" height="2.98883">
<clipPath id="cp26">
<path d="M -.99628 -.99628 L 3.9851 -.99628 L 3.9851 3.9851 L -.99628 3.9851 Z"/>
</clipPath>
<g clip-path="url(#cp26)">
<g transform="matrix(1,0,0,-1,.00390625,204.4039)">
<use x="0" y="0" xlink:href="#pac24"/>
<use x="0" y="-2.98883" xlink:href="#pac24"/>
<use x="-2.98883" y="0" xlink:href="#pac24"/>
<use x="-2.98883" y="-2.98883" xlink:href="#pac24"/>
</g>
</g>
</pattern>
<clipPath id="cp25">
<path transform="matrix(.1,0,0,-.1,-.00390625,204.4039)" d="M -10 -10 L -10 40 L 40 40 L 40 -10 Z "/>
</clipPath>
<rect transform="matrix(1,0,0,-1,-.00390625,204.4039)" fill="url(#pa24)" x="159.38991" y="16.9496" width="22.677704" height="8.504303"/>
</g>
<path transform="matrix(.1,0,0,-.1,0,204.4)" stroke-width="9.9628" stroke-linecap="butt" stroke-miterlimit="10" stroke-linejoin="miter" fill="none" stroke="#3b7d08" d="M 2595.96 294.746 C 2595.96 315.875 2578.83 333.004 2557.7 333.004 C 2536.58 333.004 2519.45 315.875 2519.45 294.746 C 2519.45 273.621 2536.58 256.492 2557.7 256.492 C 2578.83 256.492 2595.96 273.621 2595.96 294.746 Z M 2557.7 294.746 "/>
<clipPath id="cp27">
<path transform="matrix(.1,0,0,-.1,0,204.4)" d="M 2444.32 169.457 L 2671.0972 169.457 L 2671.0972 254.5 L 2444.32 254.5 Z "/>
</clipPath>
<g clip-path="url(#cp27)">
<symbol id="pac28">
<g clip-path="url(#cp29)">
<path transform="matrix(.1,0,0,-.1,-.00390625,204.4039)" stroke-width="3.985" stroke-linecap="butt" stroke-miterlimit="10" stroke-linejoin="miter" fill="none" stroke="#3b7d08" d="M 0 0 L 30.8828 30.8828 "/>
</g>
</symbol>
<pattern id="pa28" patternUnits="userSpaceOnUse" patternContentUnits="userSpaceOnUse" x="0" y="0" width="2.98883" height="2.98883">
<clipPath id="cp30">
<path d="M -.99628 -.99628 L 3.9851 -.99628 L 3.9851 3.9851 L -.99628 3.9851 Z"/>
</clipPath>
<g clip-path="url(#cp30)">
<g transform="matrix(1,0,0,-1,.00390625,204.4039)">
<use x="0" y="0" xlink:href="#pac28"/>
<use x="0" y="-2.98883" xlink:href="#pac28"/>
<use x="-2.98883" y="0" xlink:href="#pac28"/>
<use x="-2.98883" y="-2.98883" xlink:href="#pac28"/>
</g>
</g>
</pattern>
<clipPath id="cp29">
<path transform="matrix(.1,0,0,-.1,-.00390625,204.4039)" d="M -10 -10 L -10 40 L 40 40 L 40 -10 Z "/>
</clipPath>
<rect transform="matrix(1,0,0,-1,-.00390625,204.4039)" fill="url(#pa28)" x="244.43592" y="16.9496" width="22.677704" height="8.504303"/>
</g>
<path transform="matrix(.1,0,0,-.1,0,204.4)" stroke-width="9.9628" stroke-linecap="butt" stroke-miterlimit="10" stroke-linejoin="miter" fill="none" stroke="#3b7d08" d="M 3446.42 294.746 C 3446.42 315.875 3429.29 333.004 3408.16 333.004 C 3387.03 333.004 3369.91 315.875 3369.91 294.746 C 3369.91 273.621 3387.03 256.492 3408.16 256.492 C 3429.29 256.492 3446.42 273.621 3446.42 294.746 Z M 3408.16 294.746 "/>
<clipPath id="cp31">
<path transform="matrix(.1,0,0,-.1,0,204.4)" d="M 3294.77 169.457 L 3521.543 169.457 L 3521.543 254.5 L 3294.77 254.5 Z "/>
</clipPath>
<g clip-path="url(#cp31)">
<symbol id="pac32">
<g clip-path="url(#cp33)">
<path transform="matrix(.1,0,0,-.1,-.00390625,204.4039)" stroke-width="3.985" stroke-linecap="butt" stroke-miterlimit="10" stroke-linejoin="miter" fill="none" stroke="#3b7d08" d="M 0 0 L 30.8828 30.8828 "/>
</g>
</symbol>
<pattern id="pa32" patternUnits="userSpaceOnUse" patternContentUnits="userSpaceOnUse" x="0" y="0" width="2.98883" height="2.98883">
<clipPath id="cp34">
<path d="M -.99628 -.99628 L 3.9851 -.99628 L 3.9851 3.9851 L -.99628 3.9851 Z"/>
</clipPath>
<g clip-path="url(#cp34)">
<g transform="matrix(1,0,0,-1,.00390625,204.4039)">
<use x="0" y="0" xlink:href="#pac32"/>
<use x="0" y="-2.98883" xlink:href="#pac32"/>
<use x="-2.98883" y="0" xlink:href="#pac32"/>
<use x="-2.98883" y="-2.98883" xlink:href="#pac32"/>
</g>
</g>
</pattern>
<clipPath id="cp33">
<path transform="matrix(.1,0,0,-.1,-.00390625,204.4039)" d="M -10 -10 L -10 40 L 40 40 L 40 -10 Z "/>
</clipPath>
<rect transform="matrix(1,0,0,-1,-.00390625,204.4039)" fill="url(#pa32)" x="329.48094" y="16.9496" width="22.677277" height="8.504303"/>
</g>
<use xlink:href="#font_8_1" transform="matrix(9.9626,0,0,-9.9626,199.15792,198.5045)" fill="#6100ad"/>
<symbol id="font_9_2">
<path d="M .50900009 .58100005 C .513 .595 .513 .597 .513 .60300007 C .513 .623 .49700005 .63500007 .48000003 .63500007 C .46900005 .63500007 .45000003 .63000008 .43900005 .611 C .43600003 .605 .42800004 .573 .42300005 .55300006 L .40200005 .47000004 C .39600004 .44600005 .36500005 .32000003 .36200003 .30900003 C .36100004 .30900003 .31700004 .22200002 .23900001 .22200002 C .171 .22200002 .171 .287 .171 .305 C .171 .35900004 .194 .42200003 .22400002 .499 C .23600002 .531 .24100001 .54300007 .24100001 .56 C .24100001 .60800006 .2 .64500007 .146 .64500007 C .045000007 .64500007 0 .509 0 .49200005 C 0 .47900004 .014000002 .47900004 .017 .47900004 C .031 .47900004 .032 .48400004 .035 .495 C .060000007 .578 .103 .61700007 .143 .61700007 C .16000001 .61700007 .168 .606 .168 .582 C .168 .559 .15900001 .537 .154 .52400007 C .106000009 .402 .096 .365 .096 .321 C .096 .30400003 .096 .25700004 .135 .22500001 C .16600001 .19900002 .20800002 .194 .235 .194 C .27500005 .194 .31100003 .209 .34400005 .23900001 C .33100004 .18400002 .32000003 .142 .27800004 .09200001 C .25100003 .061000006 .21100001 .027999998 .158 .027999998 C .15100001 .027999998 .104 .027999998 .083000008 .061000006 C .13700001 .067 .13700001 .11500001 .13700001 .116000007 C .13700001 .148 .107999999 .15400002 .098000008 .15400002 C .073 .15400002 .040000004 .134 .040000004 .08800001 C .040000004 .037 .088 0 .15900001 0 C .26000003 0 .38300003 .07800001 .41400004 .20300001 L .50900009 .58100005 Z "/>
</symbol>
<use xlink:href="#font_9_2" transform="matrix(6.9738,0,0,-6.9738,204.8995,201.3117)" fill="#6100ad"/>
<use xlink:href="#font_a_2" transform="matrix(9.9626,0,0,-9.9626,212.68668,197.06989)" fill="#6100ad"/>
<use xlink:href="#font_a_1" transform="matrix(9.9626,0,0,-9.9626,223.03566,198.61409)" fill="#6100ad"/>
<path transform="matrix(.1,0,0,-.1,0,204.4)" stroke-width="19.9255" stroke-linecap="butt" stroke-miterlimit="10" stroke-linejoin="miter" fill="none" stroke="#6100ad" d="M 2105.13 1950.57 L 2290.06 2000.13 "/>
<path transform="matrix(.1,0,0,-.1,0,204.4)" d="M 2328.08 2010.31 C 2323.11 2010.2 2300.85 2011.16 2286.14 2014.75 L 2293.98 1985.5 C 2304.92 1995.97 2323.72 2007.92 2328.08 2010.31 " fill="#6100ad"/>
<path transform="matrix(.1,0,0,-.1,0,204.4)" stroke-width="17.9325" stroke-linecap="butt" stroke-miterlimit="10" stroke-linejoin="miter" fill="none" stroke="#6100ad" d="M 2328.08 2010.31 C 2323.11 2010.2 2300.85 2011.16 2286.14 2014.75 L 2293.98 1985.5 C 2304.92 1995.97 2323.72 2007.92 2328.08 2010.31 Z "/>
<path transform="matrix(.1,0,0,-.1,0,204.4)" stroke-width="19.9255" stroke-linecap="butt" stroke-miterlimit="10" stroke-linejoin="miter" fill="none" stroke="#6100ad" d="M 2389.97 1938.85 L 2205.04 1889.3 "/>
<path transform="matrix(.1,0,0,-.1,0,204.4)" d="M 2167.01 1879.11 C 2171.99 1879.22 2194.24 1878.26 2208.96 1874.67 L 2201.12 1903.92 C 2190.17 1893.46 2171.38 1881.5 2167.01 1879.11 " fill="#6100ad"/>
<path transform="matrix(.1,0,0,-.1,0,204.4)" stroke-width="17.9325" stroke-linecap="butt" stroke-miterlimit="10" stroke-linejoin="miter" fill="none" stroke="#6100ad" d="M 2167.01 1879.11 C 2171.99 1879.22 2194.24 1878.26 2208.96 1874.67 L 2201.12 1903.92 C 2190.17 1893.46 2171.38 1881.5 2167.01 1879.11 Z "/>
<symbol id="font_8_3">
<path d="M .47600005 .694 C .47600005 .695 .47600005 .705 .46300004 .705 C .44800005 .705 .35300002 .69600006 .33600004 .694 C .32800005 .693 .32200004 .688 .32200004 .675 C .32200004 .663 .33100004 .663 .34600003 .663 C .39400003 .663 .39600004 .656 .39600004 .646 L .39300005 .626 L .33300004 .38900004 C .31500004 .42600004 .286 .45300005 .24100001 .45300005 C .124 .45300005 0 .30600003 0 .16000001 C 0 .06600001 .055000005 0 .133 0 C .153 0 .20300001 .0040000008 .263 .075 C .27100004 .033000005 .30600003 0 .35400004 0 C .38900004 0 .41200004 .023000002 .42800004 .055000005 C .44500003 .091000009 .45800004 .15200001 .45800004 .15400002 C .45800004 .16400002 .44900004 .16400002 .44600005 .16400002 C .43600003 .16400002 .43500004 .16000001 .43200005 .14600002 C .41500003 .081 .397 .022000002 .35600005 .022000002 C .32900004 .022000002 .32600004 .048 .32600004 .068 C .32600004 .092 .32800005 .09900001 .33200003 .116000007 L .47600005 .694 M .26800005 .13000001 C .263 .112 .263 .11000001 .24800001 .093 C .20400001 .038000004 .163 .022000002 .135 .022000002 C .08499999 .022000002 .07100001 .077 .07100001 .116000007 C .07100001 .16600001 .103 .28900004 .126 .335 C .157 .39400003 .202 .43100003 .242 .43100003 C .307 .43100003 .32100005 .34900005 .32100005 .34300003 C .32100005 .337 .31900005 .33100004 .31800003 .32600004 L .26800005 .13000001 Z "/>
</symbol>
<use xlink:href="#font_8_3" transform="matrix(9.623173,-2.5785206,-2.5785206,-9.623173,211.56128,29.942702)" fill="#6100ad"/>
<use xlink:href="#font_a_2" transform="matrix(9.623173,-2.5785206,-2.5785206,-9.623173,219.02474,26.45765)" fill="#6100ad"/>
<use xlink:href="#font_8_3" transform="matrix(9.623173,-2.5785206,-2.5785206,-9.623173,229.39994,25.162856)" fill="#6100ad"/>
<symbol id="font_a_3">
<path d="M .23200003 .00999999 C .23200003 .012999982 .23200003 .014999986 .215 .03199999 C .09 .15799999 .058 .347 .058 .5 C .058 .674 .096 .84800007 .21900001 .97300007 C .23200003 .985 .23200003 .98700007 .23200003 .99 C .23200003 .99700006 .22800002 1 .222 1 C .21200001 1 .12200001 .93200007 .06299999 .805 C .012000002 .69500008 0 .584 0 .5 C 0 .422 .011 .301 .066 .188 C .126 .065 .21200001 0 .222 0 C .22800002 0 .23200003 .0029999912 .23200003 .00999999 Z "/>
</symbol>
<use xlink:href="#font_a_3" transform="matrix(9.623173,-2.5785206,-2.5785206,-9.623173,235.59333,25.968407)" fill="#6100ad"/>
<symbol id="font_8_2">
<path d="M .45700003 .586 C .461 .6 .461 .602 .461 .609 C .461 .62700006 .447 .63600006 .432 .63600006 C .42200003 .63600006 .40600003 .63 .397 .615 C .395 .61 .387 .579 .38300003 .561 C .37600003 .535 .36900003 .508 .363 .48100005 L .318 .301 C .314 .286 .271 .21600002 .20500002 .21600002 C .15400002 .21600002 .143 .26000003 .143 .29700003 C .143 .34300003 .16000001 .40500004 .194 .49300004 C .21000001 .53400006 .21400002 .545 .21400002 .56500008 C .21400002 .61 .18200001 .6470001 .13200002 .6470001 C .037 .6470001 0 .50200006 0 .49300004 C 0 .48300005 .01 .48300005 .012 .48300005 C .022000002 .48300005 .023 .485 .028000003 .50100007 C .055000009 .595 .095000009 .625 .12900001 .625 C .13700001 .625 .15400002 .625 .15400002 .59300008 C .15400002 .568 .14400001 .54200008 .13700001 .523 C .097 .41700004 .079 .36 .079 .31300003 C .079 .224 .142 .194 .201 .194 C .24000003 .194 .274 .21100001 .30200003 .23900002 C .289 .187 .277 .13800001 .237 .08500001 C .21100001 .051 .17300001 .022 .127 .022 C .113000009 .022 .068 .025000006 .051000008 .06400001 C .067 .06400001 .080000009 .06400001 .094000007 .076000008 C .104 .08500001 .11400001 .098000008 .11400001 .117000009 C .11400001 .148 .087000008 .15200001 .07700001 .15200001 C .054000006 .15200001 .021 .136 .021 .087000008 C .021 .037 .065000008 0 .127 0 C .23 0 .333 .091000009 .361 .20400001 L .45700003 .586 Z "/>
</symbol>
<use xlink:href="#font_8_2" transform="matrix(9.623173,-2.5785206,-2.5785206,-9.623173,238.54586,24.713145)" fill="#6100ad"/>
<symbol id="font_a_4">
<path d="M .232 .5 C .232 .578 .22100002 .699 .16600001 .81200006 C .106 .93500009 .020000004 1 .009999998 1 C .0040000008 1 0 .99600008 0 .99 C 0 .98700007 0 .985 .019000002 .967 C .117000009 .86800006 .174 .709 .174 .5 C .174 .329 .137 .153 .012999997 .026999996 C 0 .014999986 0 .012999982 0 .00999999 C 0 .003999993 .0040000008 0 .009999998 0 C .020000004 0 .11000001 .06799999 .169 .195 C .22 .305 .232 .416 .232 .5 Z "/>
</symbol>
<use xlink:href="#font_a_4" transform="matrix(9.623173,-2.5785206,-2.5785206,-9.623173,243.9946,23.717284)" fill="#6100ad"/>
</g>
</svg>
