<?xml version="1.0" encoding="utf-8"?>
<!-- Generator: Adobe Illustrator 25.4.1, SVG Export Plug-In . SVG Version: 6.00 Build 0)  -->
<svg version="1.1" id="Layer_1" xmlns="http://www.w3.org/2000/svg" xmlns:xlink="http://www.w3.org/1999/xlink" x="0px" y="0px"
	 viewBox="0 0 191 121" style="enable-background:new 0 0 191 121;" xml:space="preserve">
<style type="text/css">
	
		.st0{clip-path:url(#SVGID_00000087410633429726094910000008654089007298188477_);fill:none;stroke:#1E6E91;stroke-width:0.45;stroke-linejoin:bevel;stroke-miterlimit:10;}
	
		.st1{clip-path:url(#SVGID_00000087410633429726094910000008654089007298188477_);fill:none;stroke:#1E6E91;stroke-width:0.45;stroke-linejoin:bevel;stroke-miterlimit:10;stroke-dasharray:3.6,3.6;}
	
		.st2{clip-path:url(#SVGID_00000087410633429726094910000008654089007298188477_);fill-rule:evenodd;clip-rule:evenodd;fill:#F17F00;}
	
		.st3{clip-path:url(#SVGID_00000087410633429726094910000008654089007298188477_);fill:none;stroke:#F17F00;stroke-width:0.45;stroke-linejoin:bevel;stroke-miterlimit:10;}
	.st4{clip-path:url(#SVGID_00000087410633429726094910000008654089007298188477_);}
	.st5{font-family:'Helvetica-Bold';}
	.st6{font-size:10.8px;}
	.st7{letter-spacing:83;}
	.st8{clip-path:url(#SVGID_00000169550832066502869180000002177237187919147926_);}
	
		.st9{clip-path:url(#SVGID_00000095340773413564779400000017361608160313629880_);fill:none;stroke:#60C70E;stroke-width:0.45;stroke-linejoin:bevel;stroke-miterlimit:10;}
	
		.st10{clip-path:url(#SVGID_00000115495412851861462670000002861956282021546373_);fill-rule:evenodd;clip-rule:evenodd;fill:#60C70E;}
	
		.st11{clip-path:url(#SVGID_00000115495412851861462670000002861956282021546373_);fill:none;stroke:#60C70E;stroke-width:0.45;stroke-linejoin:bevel;stroke-miterlimit:10;}
</style>
<g>
	<defs>
		<rect id="SVGID_1_" y="0.04" width="191" height="120.96"/>
	</defs>
	<clipPath id="SVGID_00000150785186971738846250000012477304499921688974_">
		<use xlink:href="#SVGID_1_"  style="overflow:visible;"/>
	</clipPath>
	
		<rect x="4.5" y="17.5" style="clip-path:url(#SVGID_00000150785186971738846250000012477304499921688974_);fill:none;stroke:#1E6E91;stroke-width:0.45;stroke-linejoin:bevel;stroke-miterlimit:10;" width="180" height="90"/>
	
		<line style="clip-path:url(#SVGID_00000150785186971738846250000012477304499921688974_);fill:none;stroke:#1E6E91;stroke-width:0.45;stroke-linejoin:bevel;stroke-miterlimit:10;stroke-dasharray:3.6,3.6;" x1="94.5" y1="17.5" x2="94.5" y2="107.5"/>
	
		<path style="clip-path:url(#SVGID_00000150785186971738846250000012477304499921688974_);fill-rule:evenodd;clip-rule:evenodd;fill:#F17F00;" d="
		M186.72,17.5c0,1.23-0.99,2.22-2.22,2.22c-1.23,0-2.22-0.99-2.22-2.22c0-1.23,0.99-2.22,2.22-2.22
		C185.73,15.28,186.72,16.27,186.72,17.5"/>
	
		<circle style="clip-path:url(#SVGID_00000150785186971738846250000012477304499921688974_);fill:none;stroke:#F17F00;stroke-width:0.45;stroke-linejoin:bevel;stroke-miterlimit:10;" cx="184.5" cy="17.5" r="2.22"/>
	
		<path style="clip-path:url(#SVGID_00000150785186971738846250000012477304499921688974_);fill-rule:evenodd;clip-rule:evenodd;fill:#F17F00;" d="
		M186.72,107.5c0,1.23-0.99,2.22-2.22,2.22c-1.23,0-2.22-0.99-2.22-2.22s0.99-2.22,2.22-2.22
		C185.73,105.28,186.72,106.27,186.72,107.5"/>
	
		<circle style="clip-path:url(#SVGID_00000150785186971738846250000012477304499921688974_);fill:none;stroke:#F17F00;stroke-width:0.45;stroke-linejoin:bevel;stroke-miterlimit:10;" cx="184.5" cy="107.5" r="2.22"/>
	
		<path style="clip-path:url(#SVGID_00000150785186971738846250000012477304499921688974_);fill-rule:evenodd;clip-rule:evenodd;fill:#F17F00;" d="
		M96.72,107.5c0,1.23-0.99,2.22-2.22,2.22c-1.23,0-2.22-0.99-2.22-2.22s0.99-2.22,2.22-2.22C95.73,105.28,96.72,106.27,96.72,107.5"
		/>
	
		<circle style="clip-path:url(#SVGID_00000150785186971738846250000012477304499921688974_);fill:none;stroke:#F17F00;stroke-width:0.45;stroke-linejoin:bevel;stroke-miterlimit:10;" cx="94.5" cy="107.5" r="2.22"/>
	
		<path style="clip-path:url(#SVGID_00000150785186971738846250000012477304499921688974_);fill-rule:evenodd;clip-rule:evenodd;fill:#F17F00;" d="
		M96.72,17.5c0,1.23-0.99,2.22-2.22,2.22c-1.23,0-2.22-0.99-2.22-2.22c0-1.23,0.99-2.22,2.22-2.22
		C95.73,15.28,96.72,16.27,96.72,17.5"/>
	
		<circle style="clip-path:url(#SVGID_00000150785186971738846250000012477304499921688974_);fill:none;stroke:#F17F00;stroke-width:0.45;stroke-linejoin:bevel;stroke-miterlimit:10;" cx="94.5" cy="17.5" r="2.22"/>
	
		<path style="clip-path:url(#SVGID_00000150785186971738846250000012477304499921688974_);fill-rule:evenodd;clip-rule:evenodd;fill:#F17F00;" d="
		M6.72,17.5c0,1.23-0.99,2.22-2.22,2.22s-2.22-0.99-2.22-2.22c0-1.23,0.99-2.22,2.22-2.22S6.72,16.27,6.72,17.5"/>
	
		<circle style="clip-path:url(#SVGID_00000150785186971738846250000012477304499921688974_);fill:none;stroke:#F17F00;stroke-width:0.45;stroke-linejoin:bevel;stroke-miterlimit:10;" cx="4.5" cy="17.5" r="2.22"/>
	
		<path style="clip-path:url(#SVGID_00000150785186971738846250000012477304499921688974_);fill-rule:evenodd;clip-rule:evenodd;fill:#F17F00;" d="
		M6.72,107.5c0,1.23-0.99,2.22-2.22,2.22s-2.22-0.99-2.22-2.22s0.99-2.22,2.22-2.22S6.72,106.27,6.72,107.5"/>
	
		<circle style="clip-path:url(#SVGID_00000150785186971738846250000012477304499921688974_);fill:none;stroke:#F17F00;stroke-width:0.45;stroke-linejoin:bevel;stroke-miterlimit:10;" cx="4.5" cy="107.5" r="2.22"/>
	<g style="clip-path:url(#SVGID_00000150785186971738846250000012477304499921688974_);">
		<text transform="matrix(1 0 0 1 94.5 121)" class="st5 st6">2</text>
	</g>
	<g style="clip-path:url(#SVGID_00000150785186971738846250000012477304499921688974_);">
		<text transform="matrix(1 0 0 1 0 121)" class="st5 st6">0</text>
	</g>
	<g style="clip-path:url(#SVGID_00000150785186971738846250000012477304499921688974_);">
		<text transform="matrix(1 0 0 1 0 8.5)"><tspan x="0" y="0" class="st5 st6 st7">1</tspan><tspan x="90" y="0" class="st5 st6">3</tspan></text>
	</g>
	<g style="clip-path:url(#SVGID_00000150785186971738846250000012477304499921688974_);">
		<text transform="matrix(1 0 0 1 184.4999 121)" class="st5 st6">4</text>
	</g>
	<g style="clip-path:url(#SVGID_00000150785186971738846250000012477304499921688974_);">
		<text transform="matrix(1 0 0 1 184.4999 8.5)" class="st5 st6">5</text>
	</g>
	<g style="clip-path:url(#SVGID_00000150785186971738846250000012477304499921688974_);">
		<text transform="matrix(1 0 0 1 99 40)" class="st5 st6">y</text>
	</g>
	<g style="clip-path:url(#SVGID_00000150785186971738846250000012477304499921688974_);">
		<text transform="matrix(1 0 0 1 125.9999 62.5)" class="st5 st6">x</text>
	</g>
</g>
<g>
	<defs>
		<rect id="SVGID_00000108989884472621544900000017673490869292996780_" y="0.04" width="191.04" height="120.96"/>
	</defs>
	<clipPath id="SVGID_00000031172063852826899480000004057905072298396822_">
		<use xlink:href="#SVGID_00000108989884472621544900000017673490869292996780_"  style="overflow:visible;"/>
	</clipPath>
	<g style="clip-path:url(#SVGID_00000031172063852826899480000004057905072298396822_);">
		<defs>
			<path id="SVGID_00000166664247704253478040000011563409026408410043_" d="M96.3,34.6h-3.6v9.06l1.8-7.2l1.8,7.2V34.6z
				 M122.4,64.3v-3.6h-9.06l7.2,1.8l-7.2,1.8H122.4z M0,121V0.04h191.04V121H0z"/>
		</defs>
		<clipPath id="SVGID_00000082326668211767945180000004808269697138948275_">
			<use xlink:href="#SVGID_00000166664247704253478040000011563409026408410043_"  style="overflow:visible;"/>
		</clipPath>
		
			<polyline style="clip-path:url(#SVGID_00000082326668211767945180000004808269697138948275_);fill:none;stroke:#60C70E;stroke-width:0.45;stroke-linejoin:bevel;stroke-miterlimit:10;" points="
			94.5,35.5 94.5,62.5 121.5,62.5 		"/>
	</g>
</g>
<g>
	<defs>
		<rect id="SVGID_00000044876485258256561770000010155535323563692190_" y="0.04" width="191" height="120.96"/>
	</defs>
	<clipPath id="SVGID_00000148639018326866854500000006097799184649726098_">
		<use xlink:href="#SVGID_00000044876485258256561770000010155535323563692190_"  style="overflow:visible;"/>
	</clipPath>
	
		<polyline style="clip-path:url(#SVGID_00000148639018326866854500000006097799184649726098_);fill-rule:evenodd;clip-rule:evenodd;fill:#60C70E;" points="
		96.3,43.66 94.5,36.46 92.7,43.66 96.3,43.66 	"/>
	
		<polygon style="clip-path:url(#SVGID_00000148639018326866854500000006097799184649726098_);fill:none;stroke:#60C70E;stroke-width:0.45;stroke-linejoin:bevel;stroke-miterlimit:10;" points="
		96.3,43.66 94.5,36.46 92.7,43.66 	"/>
	
		<polyline style="clip-path:url(#SVGID_00000148639018326866854500000006097799184649726098_);fill-rule:evenodd;clip-rule:evenodd;fill:#60C70E;" points="
		113.34,64.3 120.54,62.5 113.34,60.7 113.34,64.3 	"/>
	
		<polygon style="clip-path:url(#SVGID_00000148639018326866854500000006097799184649726098_);fill:none;stroke:#60C70E;stroke-width:0.45;stroke-linejoin:bevel;stroke-miterlimit:10;" points="
		113.34,64.3 120.54,62.5 113.34,60.7 	"/>
</g>
</svg>
