<svg xmlns="http://www.w3.org/2000/svg" xmlns:xlink="http://www.w3.org/1999/xlink" version="1.1" width="365.033" height="330.657" viewBox="0 0 365.033 330.657">
<defs>
<path id="font_1_24" d="M.053985597-.21824646H.13798523V.05455017C.18199158 .0005493164 .23098755-.0234375 .29899598-.0234375 .43399049-.0234375 .522995 .08558655 .522995 .25279237 .522995 .4290161 .43699647 .5390625 .2979889 .5390625 .22698975 .5390625 .16999817 .50704959 .1309967 .44503785V.52404788H.053985597V-.21824646M.28399659 .46105958C.37599183 .46105958 .43598939 .3799591 .43598939 .25480653 .43598939 .13565064 .375 .05455017 .28399659 .05455017 .19599915 .05455017 .13798523 .13465882 .13798523 .25779725 .13798523 .38095094 .19599915 .46105958 .28399659 .46105958Z"/>
<path id="font_1_9" d="M.59599307 .51504519C.59498599 .6582031 .49699403 .74121096 .32899476 .74121096 .16899109 .74121096 .069992069 .65919497 .069992069 .52705386 .069992069 .43795777 .116989139 .38189698 .21299744 .35687257L.3939972 .30882264C.48599244 .2848053 .5279999 .24775696 .5279999 .19070435 .5279999 .1516571 .5069885 .11161804 .47599793 .08958435 .44699098 .06956482 .40098573 .058547975 .34199525 .058547975 .2630005 .058547975 .20899964 .07757568 .17399597 .11961365 .14698792 .1516571 .1349945 .18669129 .13598633 .23173523H.04798889C.04899597 .16467285 .06199646 .12062073 .09098816 .080581668 .14099121 .012557983 .22499085-.0234375 .33599855-.0234375 .4229889-.0234375 .49398805-.0034484864 .54100039 .032562257 .58999636 .07156372 .62098696 .13664246 .62098696 .19970703 .62098696 .28981019 .5649872 .35588075 .46598817 .38290406L.2829895 .43196107C.19499207 .4559784 .16299439 .4840088 .16299439 .5400696 .16299439 .614151 .22799683 .663208 .32598878 .663208 .44198609 .663208 .5069885 .6101532 .5079956 .51504519H.59599307Z"/>
<path id="font_1_10" d="M.74398806 0 .92900088 .7285156H.82499697L.69099429 .13691712 .5249939 .7285156H.4249878L.2630005 .13691712 .12599182 .7285156H.021987915L.20899964 0H.31098939L.47399903 .59858706 .6419983 0H.74398806Z"/>
<path id="font_1_7" d="M.18299866 .33203126H.5799866V.41401673H.18299866V.6465149H.59498599V.7285156H.08999634V0H.61299136V.08198547H.18299866V.33203126Z"/>
<path id="font_1_8" d="M.6459961 .7285156H.55799868V.13291931L.1769867 .7285156H.07598877V0H.1639862V.59059146L.54100039 0H.6459961V.7285156Z"/>
<path id="font_1_13" d="M.47099305 .34791566C.46699525 .39897157 .45599366 .4320221 .43598939 .46105958 .3999939 .51005557 .33699037 .5390625 .2639923 .5390625 .12298584 .5390625 .0309906 .4270172 .0309906 .25279237 .0309906 .08358765 .12098694-.0234375 .2630005-.0234375 .3880005-.0234375 .46699525 .05155945 .47698976 .17970276H.3929901C.3789978 .09561157 .33599855 .05355835 .2649994 .05355835 .17298889 .05355835 .117996219 .12864685 .117996219 .25279237 .117996219 .3839569 .17199707 .4620514 .2630005 .4620514 .33299256 .4620514 .3769989 .42100526 .3869934 .34791566H.47099305Z"/>
<path id="font_1_26" d="M.43798829 .37794496C.43699647 .48104859 .36898805 .5390625 .24798584 .5390625 .12599182 .5390625 .04699707 .47605897 .04699707 .37895204 .04699707 .29685975 .08898926 .25779725 .21299744 .22776795L.29100038 .20874024C.34899903 .19473267 .37199403 .17370606 .37199403 .13565064 .37199403 .08659363 .32299806 .05355835 .25 .05355835 .20498657 .05355835 .16699219 .0665741 .1459961 .08859253 .1329956 .10362244 .1269989 .118637088 .12199402 .15568543H.033996583C.037994386 .034561159 .10598755-.0234375 .24299622-.0234375 .375-.0234375 .45899964 .041549684 .45899964 .14266968 .45899964 .22076416 .4149933 .2638092 .31098939 .28884889L.23098755 .30786134C.16299439 .32388307 .13398743 .34591676 .13398743 .3829651 .13398743 .431015 .1769867 .4620514 .24499512 .4620514 .31199647 .4620514 .34799195 .43301393 .34999085 .37794496H.43798829Z"/>
<path id="font_1_23" d="M.27198792 .5390625C.125 .5390625 .035995485 .434021 .035995485 .25779725 .035995485 .081588748 .12399292-.0234375 .272995-.0234375 .41999818-.0234375 .5099945 .081588748 .5099945 .25379945 .5099945 .43502809 .4229889 .5390625 .27198792 .5390625M.272995 .4620514C.36698915 .4620514 .4229889 .384964 .4229889 .25480653 .4229889 .13165283 .36499024 .05355835 .272995 .05355835 .17999268 .05355835 .12298584 .13064575 .12298584 .25779725 .12298584 .3839569 .17999268 .4620514 .272995 .4620514Z"/>
<path id="font_1_28" d="M.48199464-.00044250489V.52441409H.39898683V.22688294C.39898683 .11968994 .34298707 .049560548 .2559967 .049560548 .18998719 .049560548 .147995 .08963013 .147995 .15275574V.52441409H.06498718V.11968994C.06498718 .032562257 .12998963-.0234375 .23199463-.0234375 .30899049-.0234375 .35798646 .0035552979 .40699769 .07260132V-.00044250489H.48199464Z"/>
<path id="font_1_27" d="M.2539978 .52441409H.16799927V.66841128H.084991458V.52441409H.01399231V.45640565H.084991458V.059570314C.084991458 .0065612795 .12098694-.0234375 .18598938-.0234375 .20599365-.0234375 .22599793-.021438599 .2539978-.016448975V.05355835C.24299622 .05055237 .22999573 .049560548 .21398926 .049560548 .17799378 .049560548 .16799927 .059570314 .16799927 .09664917V.45640565H.2539978V.52441409Z"/>
<path id="font_1_17" d="M.069992069 .7285156V0H.15299988V.28903199C.15299988 .39604188 .20899964 .4660492 .29499818 .4660492 .32199098 .4660492 .34899903 .4570465 .36898805 .44204713 .3929901 .42504884 .40299989 .40003968 .40299989 .3630371V0H.48599244V.39604188C.48599244 .48405458 .4229889 .5390625 .32099916 .5390625 .24699402 .5390625 .20199585 .51605227 .15299988 .45205689V.7285156H.069992069Z"/>
<path id="font_1_15" d="M.5130005 .23374939C.5130005 .31376649 .5069885 .36186219 .49198915 .40093995 .45799256 .48706056 .37799073 .5390625 .27999879 .5390625 .13398743 .5390625 .039993287 .4269867 .039993287 .25474549 .039993287 .08258057 .1309967-.0234375 .27799989-.0234375 .397995-.0234375 .48098756 .044555665 .5019989 .15867615H.41799928C.394989 .08959961 .34799195 .05355835 .2809906 .05355835 .22799683 .05355835 .18299866 .07757568 .15499878 .12162781 .1349945 .1516571 .12799073 .18170166 .1269989 .23374939H.5130005M.1289978 .3017578C.13598633 .39894105 .19499207 .4620514 .2789917 .4620514 .36099244 .4620514 .42399598 .3939209 .42399598 .30775453 .42399598 .30575563 .42399598 .3037567 .4229889 .3017578H.1289978Z"/>
<path id="font_1_11" d="M.5349884 .048553468C.526001 .046554567 .5219879 .046554567 .5169983 .046554567 .48799134 .046554567 .47200013 .061569215 .47200013 .08760071V.39598084C.47200013 .48905946 .4039917 .5390625 .2749939 .5390625 .19898987 .5390625 .13598633 .5170593 .100997928 .47805787 .07699585 .45103456 .066986087 .42100526 .06498718 .36894227H.14898682C.1559906 .43301393 .19400025 .4620514 .27198792 .4620514 .34700013 .4620514 .3889923 .434021 .3889923 .3839569V.36193849C.3889923 .32688905 .36799623 .3118744 .3019867 .30386354 .18399048 .28884889 .1659851 .28483583 .13398743 .27182008 .07299805 .24679566 .041992189 .19973755 .041992189 .13165283 .041992189 .03656006 .10798645-.0234375 .21398926-.0234375 .27999879-.0234375 .33299256-.00044250489 .3919983 .05355835 .397995 .0005493164 .42399598-.0234375 .47799684-.0234375 .49499513-.0234375 .5079956-.021438599 .5349884-.014450073V.048553468M.3889923 .16468811C.3889923 .13665772 .3809967 .119644168 .35598756 .09661865 .32199098 .06556702 .2809906 .049560548 .23199463 .049560548 .16699219 .049560548 .1289978 .080596927 .1289978 .13365174 .1289978 .1887207 .1659851 .2167511 .25498963 .22976685 .34298707 .24179077 .36099244 .24578858 .3889923 .25880433V.16468811Z"/>
<path id="font_1_22" d="M.069992069 .52441409V0H.1539917V.2892151C.1539917 .39604188 .20999146 .4660492 .29599 .4660492 .3619995 .4660492 .4039917 .42604066 .4039917 .3630371V0H.4869995V.39604188C.4869995 .4830475 .42199708 .5390625 .32099916 .5390625 .24299622 .5390625 .19299317 .50904849 .14698792 .43605042V.52441409H.069992069Z"/>
<path id="font_1_25" d="M.068984989 .52441409V0H.15299988V.27220155C.15299988 .34727479 .17199707 .39631654 .21199036 .42533876 .23799134 .4443512 .2630005 .45036317 .32099916 .45135499V.5364075C.30699159 .5380554 .2999878 .5390625 .2889862 .5390625 .23498535 .5390625 .19400025 .50704959 .1459961 .42904664V.52441409H.068984989Z"/>
<path id="font_1_29" d="M.55400088 0 .70799258 .52441409H.6139984L.5099945 .11607361 .40699769 .52441409H.30499269L.20498657 .11607361 .09799194 .52441409H.005996704L.1579895 0H.2519989L.35299684 .41133119 .45899964 0H.55400088Z"/>
<path id="font_1_16" d="M.2579956 .52441409H.17098999V.6064148C.17098999 .64141848 .19099427 .65940859 .22898865 .65940859 .23599243 .65940859 .23899842 .65940859 .2579956 .65841677V.727417C.23899842 .7314148 .22799683 .7324219 .21099854 .7324219 .13398743 .7324219 .08799744 .6884155 .08799744 .6134186V.52441409H.017990113V.45640565H.08799744V0H.17098999V.45640565H.2579956V.52441409Z"/>
<path id="font_1_20" d="M.1519928 .7285156H.067993167V0H.1519928V.7285156Z"/>
<path id="font_1_21" d="M.069992069 .52441409V0H.1539917V.32925416C.1539917 .40504457 .20899964 .4660492 .2769928 .4660492 .33898927 .4660492 .37399293 .4280548 .37399293 .3610382V0H.45799256V.32904054C.45799256 .40504457 .5130005 .4660492 .58099368 .4660492 .6419983 .4660492 .6779938 .42704774 .6779938 .3610382V0H.7619934V.3930359C.7619934 .48706056 .70799258 .5390625 .6100006 .5390625 .5399933 .5390625 .49798585 .51805117 .44898988 .4590454 .41799928 .5150604 .37599183 .5390625 .30799867 .5390625 .23799134 .5390625 .19198609 .5130615 .14698792 .45005799V.52441409H.069992069Z"/>
<path id="font_1_18" d="M.1499939 .5235901H.066986087V0H.1499939V.5235901M.1499939 .7285156H.06599426V.62350466H.1499939V.7285156Z"/>
<path id="font_2_2" d="M.35499574 .27201844 .5309906 .54003909H.36299134L.27598573 .37701417 .18798828 .54003909H.019989014L.19599915 .27201844 .015991211 0H.18399048L.27598573 .16799927 .36698915 0H.5349884L.35499574 .27201844Z"/>
<path id="font_1_5" d="M.32699586 .17001343V0H.4149933V.17001343H.519989V.24902344H.4149933V.7090149H.34999085L.027999878 .26301576V.17001343H.32699586M.32699586 .24902344H.10499573L.32699586 .559021V.24902344Z"/>
<path id="font_1_3" d="M.25898744 .5049896V0H.34700013V.70899966H.2889862C.2579956 .59999087 .23799134 .58499148 .101989749 .56799319V.5049896H.25898744Z"/>
<path id="font_1_2" d="M.2749939 .7089844C.20899964 .7089844 .14898682 .6799774 .11199951 .63098147 .06599426 .5689392 .042999269 .4738617 .042999269 .34277345 .042999269 .10359192 .12298584-.0234375 .2749939-.0234375 .4249878-.0234375 .5069885 .10359192 .5069885 .33676148 .5069885 .47486878 .4850006 .5669403 .43798829 .63098147 .40098573 .68096926 .34199525 .7089844 .2749939 .7089844M.2749939 .63098147C.36999513 .63098147 .4169922 .5349121 .4169922 .34477235 .4169922 .14363098 .37098695 .049560548 .272995 .049560548 .17999268 .049560548 .1329956 .14762879 .1329956 .34176637 .1329956 .53590396 .17999268 .63098147 .2749939 .63098147Z"/>
<path id="font_1_1" d="M.19099427 .10398865H.08699036V0H.19099427V.10398865Z"/>
<path id="font_1_19" d="M.14099121 .7285156H.057998659V0H.14099121V.20385742L.22200012 .28381349 .39898683 0H.5019989L.28799439 .34277345 .46998597 .52363589H.36299134L.14099121 .30178834V.7285156Z"/>
<path id="font_1_6" d="M.052993776 .16186524C.069992069 .045547487 .1459961-.0234375 .2539978-.0234375 .33198548-.0234375 .40299989 .014556885 .44400025 .07762146 .4889984 .14682007 .5089874 .23408509 .5089874 .36309815 .5089874 .4820404 .4909973 .5580139 .44898988 .62098696 .4099884 .6779785 .34799195 .7089844 .269989 .7089844 .1349945 .7089844 .037994386 .60899356 .037994386 .470047 .037994386 .33810426 .12799073 .24511719 .2559967 .24511719 .32299806 .24511719 .37199403 .269104 .41799928 .32411195 .4169922 .15083313 .36099244 .05455017 .2599945 .05455017 .19799805 .05455017 .15499878 .093673709 .14099121 .16186524H.052993776M.2689972 .63197329C.35099793 .63197329 .41299439 .5640106 .41299439 .4720459 .41299439 .38508607 .35198976 .32310487 .2659912 .32310487 .18099976 .32310487 .12799073 .38208009 .12799073 .47705079 .12799073 .56700137 .18798828 .63197329 .2689972 .63197329Z"/>
<path id="font_2_1" d="M.3939972 .54003909 .28199769 .1468811 .16299439 .54003909H.008987427L.20999146-.02218628V-.0231781-.026184082C.20999146-.07720947 .17199707-.11621094 .12298584-.11621094 .11199951-.11621094 .10398865-.115219119 .085998538-.11021423V-.21522522C.10699463-.21821594 .11898804-.21922302 .13598633-.21922302 .17098999-.21922302 .21299744-.21221924 .23699951-.20222473 .27598573-.18621826 .29299928-.16322327 .31599427-.09921265L.5379944 .54003909H.3939972Z"/>
<path id="font_1_4" d="M.22099304 .3247528H.23199463L.2689972 .3257599C.3659973 .3257599 .41600038 .28172303 .41600038 .19665528 .41600038 .10758972 .36099244 .05455017 .2689972 .05455017 .17298889 .05455017 .12599182 .10258484 .11999512 .20567322H.03199768C.035995485 .1486206 .04598999 .11160278 .06298828 .079574588 .09899902 .011550903 .16899109-.0234375 .2659912-.0234375 .4119873-.0234375 .5059967 .063568118 .5059967 .19766236 .5059967 .28771974 .47099305 .33776856 .38598634 .36679078 .45199586 .392807 .4850006 .44284059 .4850006 .5138855 .4850006 .63597109 .4039917 .7089844 .2689972 .7089844 .12599182 .7089844 .049987794 .63098147 .04699707 .47987367H.1349945C.13598633 .52290347 .13999939 .5469208 .15098572 .56892397 .17098999 .60795596 .21499634 .63197329 .269989 .63197329 .34799195 .63197329 .394989 .5859375 .394989 .5108948 .394989 .46084596 .3769989 .4308319 .33799745 .41482545 .31399537 .40481568 .2829895 .4008026 .22099304 .3998108V.3247528Z"/>
</defs>
<path transform="matrix(1,0,0,-1,-1069.812,11358.457)" d="M1162.2883 11084.263H1389.0763V11311.051H1162.2883Z" fill="#cceeff"/>
<path transform="matrix(1,0,0,-1,-1069.812,11358.457)" stroke-width=".99628" stroke-linecap="butt" stroke-miterlimit="10" stroke-linejoin="miter" fill="none" stroke="#1f6e96" d="M1162.2883 11084.263H1389.0763V11311.051H1162.2883Z"/>
<path transform="matrix(1,0,0,-1,-1069.812,11358.457)" stroke-width=".99628" stroke-linecap="butt" stroke-miterlimit="10" stroke-linejoin="miter" fill="none" stroke="#1f6e96" d="M1259.2527 11235C1259.2527 11235 1261.67 11223.582 1264.2993 11218.366 1266.9285 11213.15 1275.1537 11201.281 1278.2023 11197.407 1281.2509 11193.534 1284.2445 11192.207 1286.2714 11190.447 1288.2984 11188.6879 1290.8634 11186.12 1292.8113 11184.723 1294.7592 11183.326 1296.229 11183.961 1300.3102 11180.38 1304.3915 11176.798 1322.2257 11158.907 1322.2257 11158.907"/>
<path transform="matrix(1,0,0,-1,-1069.812,11358.457)" stroke-width=".99628" stroke-linecap="butt" stroke-miterlimit="10" stroke-linejoin="miter" fill="none" stroke="#1f6e96" d="M1261.5972 11166.785C1261.5972 11166.785 1269.0634 11173.512 1271.5873 11175.687 1274.1112 11177.862 1278.1343 11180.9379 1279.788 11182.464 1281.4417 11183.99 1282.6067 11185.581 1283.5062 11186.688 1284.4058 11187.796 1286.2714 11190.447 1286.2714 11190.447"/>
<path transform="matrix(1,0,0,-1,-1069.812,11358.457)" stroke-width=".99628" stroke-linecap="butt" stroke-miterlimit="10" stroke-linejoin="miter" fill="none" stroke="#1f6e96" d="M1286.2714 11190.447C1286.2714 11190.447 1287.7957 11192.108 1288.2334 11192.795 1288.6712 11193.482 1288.9889 11194.677 1289.4268 11195.398 1289.8646 11196.12 1290.5289 11196.725 1291.3893 11197.998 1292.2496 11199.272 1295.6276 11204.58 1295.6276 11204.58"/>
<path transform="matrix(1,0,0,-1,-1069.812,11358.457)" d="M1165.123 11084.263C1165.123 11085.828 1163.8539 11087.097 1162.2883 11087.097 1160.7228 11087.097 1159.4537 11085.828 1159.4537 11084.263 1159.4537 11082.697 1160.7228 11081.428 1162.2883 11081.428 1163.8539 11081.428 1165.123 11082.697 1165.123 11084.263ZM1162.2883 11084.263" fill="#f58000"/>
<use data-text="p" xlink:href="#font_1_24" transform="matrix(9.4645,0,0,-9.4645,82.20703,284.66603)" fill="#f58000"/>
<use data-text="S" xlink:href="#font_1_9" transform="matrix(9.4645,0,0,-9.4645,87.46929,284.66603)" fill="#f58000"/>
<use data-text="W" xlink:href="#font_1_10" transform="matrix(9.4645,0,0,-9.4645,93.78211,284.66603)" fill="#f58000"/>
<path transform="matrix(1,0,0,-1,-1069.812,11358.457)" d="M1391.911 11084.263C1391.911 11085.828 1390.642 11087.097 1389.0763 11087.097 1387.5108 11087.097 1386.2417 11085.828 1386.2417 11084.263 1386.2417 11082.697 1387.5108 11081.428 1389.0763 11081.428 1390.642 11081.428 1391.911 11082.697 1391.911 11084.263ZM1389.0763 11084.263" fill="#f58000"/>
<use data-text="p" xlink:href="#font_1_24" transform="matrix(9.4645,0,0,-9.4645,310.30299,284.66603)" fill="#f58000"/>
<use data-text="S" xlink:href="#font_1_9" transform="matrix(9.4645,0,0,-9.4645,315.56526,284.66603)" fill="#f58000"/>
<use data-text="E" xlink:href="#font_1_7" transform="matrix(9.4645,0,0,-9.4645,321.87809,284.66603)" fill="#f58000"/>
<path transform="matrix(1,0,0,-1,-1069.812,11358.457)" d="M1391.911 11311.051C1391.911 11312.616 1390.642 11313.885 1389.0763 11313.885 1387.5108 11313.885 1386.2417 11312.616 1386.2417 11311.051 1386.2417 11309.484 1387.5108 11308.216 1389.0763 11308.216 1390.642 11308.216 1391.911 11309.484 1391.911 11311.051ZM1389.0763 11311.051" fill="#f58000"/>
<use data-text="p" xlink:href="#font_1_24" transform="matrix(9.4645,0,0,-9.4645,310.042,42.22461)" fill="#f58000"/>
<use data-text="N" xlink:href="#font_1_8" transform="matrix(9.4645,0,0,-9.4645,315.30427,42.22461)" fill="#f58000"/>
<use data-text="E" xlink:href="#font_1_7" transform="matrix(9.4645,0,0,-9.4645,322.13764,42.22461)" fill="#f58000"/>
<path transform="matrix(1,0,0,-1,-1069.812,11358.457)" d="M1165.123 11311.051C1165.123 11312.616 1163.8539 11313.885 1162.2883 11313.885 1160.7228 11313.885 1159.4537 11312.616 1159.4537 11311.051 1159.4537 11309.484 1160.7228 11308.216 1162.2883 11308.216 1163.8539 11308.216 1165.123 11309.484 1165.123 11311.051ZM1162.2883 11311.051" fill="#f58000"/>
<use data-text="p" xlink:href="#font_1_24" transform="matrix(9.4645,0,0,-9.4645,81.946048,42.22461)" fill="#f58000"/>
<use data-text="N" xlink:href="#font_1_8" transform="matrix(9.4645,0,0,-9.4645,87.208309,42.22461)" fill="#f58000"/>
<use data-text="W" xlink:href="#font_1_10" transform="matrix(9.4645,0,0,-9.4645,94.04167,42.22461)" fill="#f58000"/>
<use data-text="c" xlink:href="#font_1_13" transform="matrix(9.4645,0,0,-9.4645,190.20899,284.5293)" fill="#1f6e96"/>
<path transform="matrix(1,0,0,-1,195.50899,284.3303)" stroke-width=".398" stroke-linecap="butt" stroke-miterlimit="10" stroke-linejoin="miter" fill="none" stroke="#1f6e96" d="M0 0H2.839"/>
<use data-text="s" xlink:href="#font_1_26" transform="matrix(9.4645,0,0,-9.4645,198.34899,284.5293)" fill="#1f6e96"/>
<use data-text="o" xlink:href="#font_1_23" transform="matrix(9.4645,0,0,-9.4645,203.08124,284.5293)" fill="#1f6e96"/>
<use data-text="u" xlink:href="#font_1_28" transform="matrix(9.4645,0,0,-9.4645,208.3435,284.5293)" fill="#1f6e96"/>
<use data-text="t" xlink:href="#font_1_27" transform="matrix(9.4645,0,0,-9.4645,213.60578,284.5293)" fill="#1f6e96"/>
<use data-text="h" xlink:href="#font_1_17" transform="matrix(9.4645,0,0,-9.4645,216.23691,284.5293)" fill="#1f6e96"/>
<use data-text="c" xlink:href="#font_1_13" transform="matrix(0,-9.4645,-9.4645,-0,328.932,173.95801)" fill="#1f6e96"/>
<path transform="matrix(0,-1,-1,-0,328.73304,168.65802)" stroke-width=".398" stroke-linecap="butt" stroke-miterlimit="10" stroke-linejoin="miter" fill="none" stroke="#1f6e96" d="M0 0H2.839"/>
<use data-text="e" xlink:href="#font_1_15" transform="matrix(0,-9.4645,-9.4645,-0,328.932,165.819)" fill="#1f6e96"/>
<use data-text="a" xlink:href="#font_1_11" transform="matrix(0,-9.4645,-9.4645,-0,328.932,160.55673)" fill="#1f6e96"/>
<use data-text="s" xlink:href="#font_1_26" transform="matrix(0,-9.4645,-9.4645,-0,328.932,155.29447)" fill="#1f6e96"/>
<use data-text="t" xlink:href="#font_1_27" transform="matrix(0,-9.4645,-9.4645,-0,328.932,150.56223)" fill="#1f6e96"/>
<use data-text="c" xlink:href="#font_1_13" transform="matrix(9.4645,0,0,-9.4645,190.80994,44.041994)" fill="#1f6e96"/>
<path transform="matrix(1,0,0,-1,196.10994,43.842988)" stroke-width=".398" stroke-linecap="butt" stroke-miterlimit="10" stroke-linejoin="miter" fill="none" stroke="#1f6e96" d="M0 0H2.839"/>
<use data-text="n" xlink:href="#font_1_22" transform="matrix(9.4645,0,0,-9.4645,198.94994,44.041994)" fill="#1f6e96"/>
<use data-text="o" xlink:href="#font_1_23" transform="matrix(9.4645,0,0,-9.4645,204.2122,44.041994)" fill="#1f6e96"/>
<use data-text="r" xlink:href="#font_1_25" transform="matrix(9.4645,0,0,-9.4645,209.47447,44.041994)" fill="#1f6e96"/>
<use data-text="t" xlink:href="#font_1_27" transform="matrix(9.4645,0,0,-9.4645,213.00473,44.041994)" fill="#1f6e96"/>
<use data-text="h" xlink:href="#font_1_17" transform="matrix(9.4645,0,0,-9.4645,215.63587,44.041994)" fill="#1f6e96"/>
<use data-text="c" xlink:href="#font_1_13" transform="matrix(0,9.4645,9.4645,0,82.776,147.19336)" fill="#1f6e96"/>
<path transform="matrix(0,1,1,0,82.97499,152.49335)" stroke-width=".398" stroke-linecap="butt" stroke-miterlimit="10" stroke-linejoin="miter" fill="none" stroke="#1f6e96" d="M0 0H2.839"/>
<use data-text="w" xlink:href="#font_1_29" transform="matrix(0,9.4645,9.4645,0,82.776,155.33237)" fill="#1f6e96"/>
<use data-text="e" xlink:href="#font_1_15" transform="matrix(0,9.4645,9.4645,0,82.776,162.07108)" fill="#1f6e96"/>
<use data-text="s" xlink:href="#font_1_26" transform="matrix(0,9.4645,9.4645,0,82.776,167.33335)" fill="#1f6e96"/>
<use data-text="t" xlink:href="#font_1_27" transform="matrix(0,9.4645,9.4645,0,82.776,172.0656)" fill="#1f6e96"/>
<use data-text="c" xlink:href="#font_1_13" transform="matrix(4.73225,8.196541,8.196541,-4.73225,152.36096,62.714845)" fill="#1f6e96"/>
<path transform="matrix(.5,.86603,.86603,-.5,155.18332,67.2053)" stroke-width=".398" stroke-linecap="butt" stroke-miterlimit="10" stroke-linejoin="miter" fill="none" stroke="#1f6e96" d="M0 0H2.839"/>
<use data-text="f" xlink:href="#font_1_16" transform="matrix(4.73225,8.196541,8.196541,-4.73225,156.43045,69.763469)" fill="#1f6e96"/>
<use data-text="a" xlink:href="#font_1_11" transform="matrix(4.73225,8.196541,8.196541,-4.73225,157.60407,71.79621)" fill="#1f6e96"/>
<use data-text="u" xlink:href="#font_1_28" transform="matrix(4.73225,8.196541,8.196541,-4.73225,160.2352,76.35349)" fill="#1f6e96"/>
<use data-text="l" xlink:href="#font_1_20" transform="matrix(4.73225,8.196541,8.196541,-4.73225,162.86634,80.910778)" fill="#1f6e96"/>
<use data-text="t" xlink:href="#font_1_27" transform="matrix(4.73225,8.196541,8.196541,-4.73225,163.9169,82.73041)" fill="#1f6e96"/>
<path transform="matrix(.5,.86603,.86603,-.5,165.68881,85.40146)" stroke-width=".398" stroke-linecap="butt" stroke-miterlimit="10" stroke-linejoin="miter" fill="none" stroke="#1f6e96" d="M0 0H2.839"/>
<use data-text="m" xlink:href="#font_1_21" transform="matrix(4.73225,8.196541,8.196541,-4.73225,166.93598,87.959629)" fill="#1f6e96"/>
<use data-text="a" xlink:href="#font_1_11" transform="matrix(4.73225,8.196541,8.196541,-4.73225,170.87793,94.78734)" fill="#1f6e96"/>
<use data-text="i" xlink:href="#font_1_18" transform="matrix(4.73225,8.196541,8.196541,-4.73225,173.50907,99.34462)" fill="#1f6e96"/>
<use data-text="n" xlink:href="#font_1_22" transform="matrix(4.73225,8.196541,8.196541,-4.73225,174.55963,101.16426)" fill="#1f6e96"/>
<path transform="matrix(.5,.86603,.86603,-.5,177.64682,106.113437)" stroke-width=".398" stroke-linecap="butt" stroke-miterlimit="10" stroke-linejoin="miter" fill="none" stroke="#1f6e96" d="M0 0H2.839"/>
<use data-text="n" xlink:href="#font_1_22" transform="matrix(4.73225,8.196541,8.196541,-4.73225,178.89447,108.672458)" fill="#1f6e96"/>
<use data-text="o" xlink:href="#font_1_23" transform="matrix(4.73225,8.196541,8.196541,-4.73225,181.5256,113.22974)" fill="#1f6e96"/>
<use data-text="r" xlink:href="#font_1_25" transform="matrix(4.73225,8.196541,8.196541,-4.73225,184.15674,117.78702)" fill="#1f6e96"/>
<use data-text="t" xlink:href="#font_1_27" transform="matrix(4.73225,8.196541,8.196541,-4.73225,185.92185,120.84433)" fill="#1f6e96"/>
<use data-text="h" xlink:href="#font_1_17" transform="matrix(4.73225,8.196541,8.196541,-4.73225,187.23743,123.12297)" fill="#1f6e96"/>
<use data-text="c" xlink:href="#font_1_13" transform="matrix(4.73225,8.196541,8.196541,-4.73225,229.23194,171.47461)" fill="#1f6e96"/>
<path transform="matrix(.5,.86603,.86603,-.5,232.05426,175.96508)" stroke-width=".398" stroke-linecap="butt" stroke-miterlimit="10" stroke-linejoin="miter" fill="none" stroke="#1f6e96" d="M0 0H2.839"/>
<use data-text="f" xlink:href="#font_1_16" transform="matrix(4.73225,8.196541,8.196541,-4.73225,233.30194,178.5241)" fill="#1f6e96"/>
<use data-text="a" xlink:href="#font_1_11" transform="matrix(4.73225,8.196541,8.196541,-4.73225,234.47553,180.55683)" fill="#1f6e96"/>
<use data-text="u" xlink:href="#font_1_28" transform="matrix(4.73225,8.196541,8.196541,-4.73225,237.10666,185.1141)" fill="#1f6e96"/>
<use data-text="l" xlink:href="#font_1_20" transform="matrix(4.73225,8.196541,8.196541,-4.73225,239.7378,189.67139)" fill="#1f6e96"/>
<use data-text="t" xlink:href="#font_1_27" transform="matrix(4.73225,8.196541,8.196541,-4.73225,240.78836,191.49103)" fill="#1f6e96"/>
<path transform="matrix(.5,.86603,.86603,-.5,242.55979,194.16123)" stroke-width=".398" stroke-linecap="butt" stroke-miterlimit="10" stroke-linejoin="miter" fill="none" stroke="#1f6e96" d="M0 0H2.839"/>
<use data-text="m" xlink:href="#font_1_21" transform="matrix(4.73225,8.196541,8.196541,-4.73225,243.80692,196.71936)" fill="#1f6e96"/>
<use data-text="a" xlink:href="#font_1_11" transform="matrix(4.73225,8.196541,8.196541,-4.73225,247.7489,203.54712)" fill="#1f6e96"/>
<use data-text="i" xlink:href="#font_1_18" transform="matrix(4.73225,8.196541,8.196541,-4.73225,250.38004,208.1044)" fill="#1f6e96"/>
<use data-text="n" xlink:href="#font_1_22" transform="matrix(4.73225,8.196541,8.196541,-4.73225,251.43058,209.92401)" fill="#1f6e96"/>
<path transform="matrix(.5,.86603,.86603,-.5,254.51828,214.87406)" stroke-width=".398" stroke-linecap="butt" stroke-miterlimit="10" stroke-linejoin="miter" fill="none" stroke="#1f6e96" d="M0 0H2.839"/>
<use data-text="s" xlink:href="#font_1_26" transform="matrix(4.73225,8.196541,8.196541,-4.73225,255.76544,217.43222)" fill="#1f6e96"/>
<use data-text="o" xlink:href="#font_1_23" transform="matrix(4.73225,8.196541,8.196541,-4.73225,258.13157,221.53049)" fill="#1f6e96"/>
<use data-text="u" xlink:href="#font_1_28" transform="matrix(4.73225,8.196541,8.196541,-4.73225,260.7627,226.08777)" fill="#1f6e96"/>
<use data-text="t" xlink:href="#font_1_27" transform="matrix(4.73225,8.196541,8.196541,-4.73225,263.39384,230.64505)" fill="#1f6e96"/>
<use data-text="h" xlink:href="#font_1_17" transform="matrix(4.73225,8.196541,8.196541,-4.73225,264.70939,232.9237)" fill="#1f6e96"/>
<use data-text="c" xlink:href="#font_1_13" transform="matrix(6.692348,-6.692348,-6.692348,-6.692348,167.47205,221.97949)" fill="#1f6e96"/>
<path transform="matrix(.7071,-.7071,-.7071,-.7071,171.07897,218.09114)" stroke-width=".398" stroke-linecap="butt" stroke-miterlimit="10" stroke-linejoin="miter" fill="none" stroke="#1f6e96" d="M0 0H2.839"/>
<use data-text="f" xlink:href="#font_1_16" transform="matrix(6.692348,-6.692348,-6.692348,-6.692348,173.22713,216.22441)" fill="#1f6e96"/>
<use data-text="a" xlink:href="#font_1_11" transform="matrix(6.692348,-6.692348,-6.692348,-6.692348,174.88683,214.5647)" fill="#1f6e96"/>
<use data-text="u" xlink:href="#font_1_28" transform="matrix(6.692348,-6.692348,-6.692348,-6.692348,178.60779,210.84375)" fill="#1f6e96"/>
<use data-text="l" xlink:href="#font_1_20" transform="matrix(6.692348,-6.692348,-6.692348,-6.692348,182.32874,207.1228)" fill="#1f6e96"/>
<use data-text="t" xlink:href="#font_1_27" transform="matrix(6.692348,-6.692348,-6.692348,-6.692348,183.81443,205.6371)" fill="#1f6e96"/>
<path transform="matrix(.7071,-.7071,-.7071,-.7071,185.93585,203.23427)" stroke-width=".398" stroke-linecap="butt" stroke-miterlimit="10" stroke-linejoin="miter" fill="none" stroke="#1f6e96" d="M0 0H2.839"/>
<use data-text="w" xlink:href="#font_1_29" transform="matrix(6.692348,-6.692348,-6.692348,-6.692348,188.084,201.36753)" fill="#1f6e96"/>
<use data-text="e" xlink:href="#font_1_15" transform="matrix(6.692348,-6.692348,-6.692348,-6.692348,192.84896,196.60257)" fill="#1f6e96"/>
<use data-text="s" xlink:href="#font_1_26" transform="matrix(6.692348,-6.692348,-6.692348,-6.692348,196.56992,192.88162)" fill="#1f6e96"/>
<use data-text="t" xlink:href="#font_1_27" transform="matrix(6.692348,-6.692348,-6.692348,-6.692348,199.91608,189.53545)" fill="#1f6e96"/>
<use data-text="c" xlink:href="#font_1_13" transform="matrix(6.692348,-6.692348,-6.692348,-6.692348,226.32105,160.62012)" fill="#1f6e96"/>
<path transform="matrix(.7071,-.7071,-.7071,-.7071,229.92798,156.73178)" stroke-width=".398" stroke-linecap="butt" stroke-miterlimit="10" stroke-linejoin="miter" fill="none" stroke="#1f6e96" d="M0 0H2.839"/>
<use data-text="f" xlink:href="#font_1_16" transform="matrix(6.692348,-6.692348,-6.692348,-6.692348,232.07683,154.86432)" fill="#1f6e96"/>
<use data-text="a" xlink:href="#font_1_11" transform="matrix(6.692348,-6.692348,-6.692348,-6.692348,233.73654,153.20462)" fill="#1f6e96"/>
<use data-text="u" xlink:href="#font_1_28" transform="matrix(6.692348,-6.692348,-6.692348,-6.692348,237.45749,149.48368)" fill="#1f6e96"/>
<use data-text="l" xlink:href="#font_1_20" transform="matrix(6.692348,-6.692348,-6.692348,-6.692348,241.17844,145.76273)" fill="#1f6e96"/>
<use data-text="t" xlink:href="#font_1_27" transform="matrix(6.692348,-6.692348,-6.692348,-6.692348,242.66414,144.27704)" fill="#1f6e96"/>
<path transform="matrix(.7071,-.7071,-.7071,-.7071,244.78485,141.87491)" stroke-width=".398" stroke-linecap="butt" stroke-miterlimit="10" stroke-linejoin="miter" fill="none" stroke="#1f6e96" d="M0 0H2.839"/>
<use data-text="e" xlink:href="#font_1_15" transform="matrix(6.692348,-6.692348,-6.692348,-6.692348,246.93372,140.00745)" fill="#1f6e96"/>
<use data-text="a" xlink:href="#font_1_11" transform="matrix(6.692348,-6.692348,-6.692348,-6.692348,250.65465,136.2865)" fill="#1f6e96"/>
<use data-text="s" xlink:href="#font_1_26" transform="matrix(6.692348,-6.692348,-6.692348,-6.692348,254.37561,132.56555)" fill="#1f6e96"/>
<use data-text="t" xlink:href="#font_1_27" transform="matrix(6.692348,-6.692348,-6.692348,-6.692348,257.72178,129.21939)" fill="#1f6e96"/>
<path transform="matrix(1,0,0,-1,-1069.812,11358.457)" stroke-width=".99628" stroke-linecap="butt" stroke-miterlimit="10" stroke-linejoin="miter" fill="none" stroke="#929292" d="M1162.2883 11050.245H1414.6248"/>
<path transform="matrix(1,0,0,-1,344.81275,308.2119)" d="M6.17204 0C5.4141 .16904 2.08237 1.12698 0 2.16945V-2.16945C2.08237-1.12698 5.4141-.16904 6.17204 0Z" fill="#929292"/>
<path transform="matrix(1,0,0,-1,344.81275,308.2119)" stroke-width=".99628" stroke-linecap="butt" stroke-miterlimit="10" stroke-linejoin="miter" fill="none" stroke="#929292" d="M6.17204 0C5.4141 .16904 2.08237 1.12698 0 2.16945V-2.16945C2.08237-1.12698 5.4141-.16904 6.17204 0Z"/>
<use data-text="x" xlink:href="#font_2_2" transform="matrix(9.4645,0,0,-9.4645,356.61695,310.8711)" fill="#929292"/>
<path transform="matrix(1,0,0,-1,-1069.812,11358.457)" stroke-width=".99628" stroke-linecap="butt" stroke-miterlimit="10" stroke-linejoin="miter" fill="none" stroke="#929292" d="M1162.2883 11050.245V11041.743"/>
<use data-text="4" xlink:href="#font_1_5" transform="matrix(9.4645,0,0,-9.4645,73.525028,327.3457)" fill="#929292"/>
<use data-text="1" xlink:href="#font_1_3" transform="matrix(9.4645,0,0,-9.4645,78.787288,327.3457)" fill="#929292"/>
<use data-text="0" xlink:href="#font_1_2" transform="matrix(9.4645,0,0,-9.4645,84.049549,327.3457)" fill="#929292"/>
<use data-text="." xlink:href="#font_1_1" transform="matrix(9.4645,0,0,-9.4645,89.311809,327.3457)" fill="#929292"/>
<use data-text="0" xlink:href="#font_1_2" transform="matrix(9.4645,0,0,-9.4645,91.94294,327.3457)" fill="#929292"/>
<use data-text="k" xlink:href="#font_1_19" transform="matrix(9.4645,0,0,-9.4645,98.785778,327.3457)" fill="#929292"/>
<use data-text="m" xlink:href="#font_1_21" transform="matrix(9.4645,0,0,-9.4645,103.51803,327.3457)" fill="#929292"/>
<path transform="matrix(1,0,0,-1,-1069.812,11358.457)" stroke-width=".99628" stroke-linecap="butt" stroke-miterlimit="10" stroke-linejoin="miter" fill="none" stroke="#929292" d="M1389.0763 11050.245V11041.743"/>
<use data-text="4" xlink:href="#font_1_5" transform="matrix(9.4645,0,0,-9.4645,300.30995,327.3457)" fill="#929292"/>
<use data-text="9" xlink:href="#font_1_6" transform="matrix(9.4645,0,0,-9.4645,305.5722,327.3457)" fill="#929292"/>
<use data-text="0" xlink:href="#font_1_2" transform="matrix(9.4645,0,0,-9.4645,310.83448,327.3457)" fill="#929292"/>
<use data-text="." xlink:href="#font_1_1" transform="matrix(9.4645,0,0,-9.4645,316.09675,327.3457)" fill="#929292"/>
<use data-text="0" xlink:href="#font_1_2" transform="matrix(9.4645,0,0,-9.4645,318.72789,327.3457)" fill="#929292"/>
<use data-text="k" xlink:href="#font_1_19" transform="matrix(9.4645,0,0,-9.4645,325.5707,327.3457)" fill="#929292"/>
<use data-text="m" xlink:href="#font_1_21" transform="matrix(9.4645,0,0,-9.4645,330.30296,327.3457)" fill="#929292"/>
<path transform="matrix(1,0,0,-1,-1069.812,11358.457)" stroke-width=".99628" stroke-linecap="butt" stroke-miterlimit="10" stroke-linejoin="miter" fill="none" stroke="#929292" d="M1128.2716 11084.263V11336.599"/>
<path transform="matrix(0,-1,-1,-0,58.459596,21.858399)" d="M6.17204 0C5.4141 .16904 2.08237 1.12698 0 2.16945V-2.16945C2.08237-1.12698 5.4141-.16904 6.17204 0Z" fill="#929292"/>
<path transform="matrix(0,-1,-1,-0,58.459596,21.858399)" stroke-width=".99628" stroke-linecap="butt" stroke-miterlimit="10" stroke-linejoin="miter" fill="none" stroke="#929292" d="M6.17204 0C5.4141 .16904 2.08237 1.12698 0 2.16945V-2.16945C2.08237-1.12698 5.4141-.16904 6.17204 0Z"/>
<use data-text="y" xlink:href="#font_2_1" transform="matrix(9.4645,0,0,-9.4645,55.813966,8.19043)" fill="#929292"/>
<path transform="matrix(1,0,0,-1,-1069.812,11358.457)" stroke-width=".99628" stroke-linecap="butt" stroke-miterlimit="10" stroke-linejoin="miter" fill="none" stroke="#929292" d="M1128.2716 11084.263H1119.7692"/>
<use data-text="3" xlink:href="#font_1_4" transform="matrix(9.4645,0,0,-9.4645,3.1550294,277.67774)" fill="#929292"/>
<use data-text="9" xlink:href="#font_1_6" transform="matrix(9.4645,0,0,-9.4645,8.417293,277.67774)" fill="#929292"/>
<use data-text="1" xlink:href="#font_1_3" transform="matrix(9.4645,0,0,-9.4645,13.679555,277.67774)" fill="#929292"/>
<use data-text="0" xlink:href="#font_1_2" transform="matrix(9.4645,0,0,-9.4645,18.941817,277.67774)" fill="#929292"/>
<use data-text="." xlink:href="#font_1_1" transform="matrix(9.4645,0,0,-9.4645,24.204079,277.67774)" fill="#929292"/>
<use data-text="0" xlink:href="#font_1_2" transform="matrix(9.4645,0,0,-9.4645,26.83521,277.67774)" fill="#929292"/>
<use data-text="k" xlink:href="#font_1_19" transform="matrix(9.4645,0,0,-9.4645,33.678049,277.67774)" fill="#929292"/>
<use data-text="m" xlink:href="#font_1_21" transform="matrix(9.4645,0,0,-9.4645,38.410299,277.67774)" fill="#929292"/>
<path transform="matrix(1,0,0,-1,-1069.812,11358.457)" stroke-width=".99628" stroke-linecap="butt" stroke-miterlimit="10" stroke-linejoin="miter" fill="none" stroke="#929292" d="M1128.2716 11311.051H1119.7692"/>
<use data-text="3" xlink:href="#font_1_4" transform="matrix(9.4645,0,0,-9.4645,3.1550294,50.89258)" fill="#929292"/>
<use data-text="9" xlink:href="#font_1_6" transform="matrix(9.4645,0,0,-9.4645,8.417293,50.89258)" fill="#929292"/>
<use data-text="9" xlink:href="#font_1_6" transform="matrix(9.4645,0,0,-9.4645,13.679555,50.89258)" fill="#929292"/>
<use data-text="0" xlink:href="#font_1_2" transform="matrix(9.4645,0,0,-9.4645,18.941817,50.89258)" fill="#929292"/>
<use data-text="." xlink:href="#font_1_1" transform="matrix(9.4645,0,0,-9.4645,24.204079,50.89258)" fill="#929292"/>
<use data-text="0" xlink:href="#font_1_2" transform="matrix(9.4645,0,0,-9.4645,26.83521,50.89258)" fill="#929292"/>
<use data-text="k" xlink:href="#font_1_19" transform="matrix(9.4645,0,0,-9.4645,33.678049,50.89258)" fill="#929292"/>
<use data-text="m" xlink:href="#font_1_21" transform="matrix(9.4645,0,0,-9.4645,38.410299,50.89258)" fill="#929292"/>
</svg>
