<svg xmlns="http://www.w3.org/2000/svg" xmlns:xlink="http://www.w3.org/1999/xlink" version="1.1" width="419.744" height="365.761" viewBox="0 0 419.744 365.761">
<defs>
<clipPath id="clip_1">
<path transform="matrix(1,0,0,-1,-1065.794,11380.393)" d="M1146.7833 11110.342V11133.02H1138.2792V11110.342ZM1138.2792 11133.02"/>
</clipPath>
<g id="pattern_tile_2">
<path transform="matrix(1,0,0,-1,0,365.761)" stroke-width=".3985" stroke-linecap="butt" stroke-miterlimit="10" stroke-linejoin="miter" fill="none" stroke="#3b7d08" d="M0 0 3.08846 3.08846"/>
</g>
<pattern id="pattern_2" patternUnits="userSpaceOnUse" patternContentUnits="userSpaceOnUse" x="0" y="0" width="2.98883" height="2.98883">
<clipPath id="clip_3">
<path d="M -.99628 -.99628 L 3.9851 -.99628 L 3.9851 3.9851 L -.99628 3.9851 Z"/>
</clipPath>
<g clip-path="url(#clip_3)">
<g transform="matrix(1,0,0,-1,-0,365.761)">
<use x="0" y="0" xlink:href="#pattern_tile_2"/>
<use x="0" y="-2.98883" xlink:href="#pattern_tile_2"/>
<use x="-2.98883" y="0" xlink:href="#pattern_tile_2"/>
<use x="-2.98883" y="-2.98883" xlink:href="#pattern_tile_2"/>
</g>
</g>
</pattern>
<clipPath id="clip_4">
<path transform="matrix(1,0,0,-1,-1065.794,11380.393)" d="M1146.7833 11185.183V11207.86H1138.2792V11185.183ZM1138.2792 11207.86"/>
</clipPath>
<g id="pattern_tile_5">
<path transform="matrix(1,0,0,-1,0,365.761)" stroke-width=".3985" stroke-linecap="butt" stroke-miterlimit="10" stroke-linejoin="miter" fill="none" stroke="#3b7d08" d="M0 0 3.08846 3.08846"/>
</g>
<pattern id="pattern_5" patternUnits="userSpaceOnUse" patternContentUnits="userSpaceOnUse" x="0" y="0" width="2.98883" height="2.98883">
<clipPath id="clip_6">
<path d="M -.99628 -.99628 L 3.9851 -.99628 L 3.9851 3.9851 L -.99628 3.9851 Z"/>
</clipPath>
<g clip-path="url(#clip_6)">
<g transform="matrix(1,0,0,-1,-0,365.761)">
<use x="0" y="0" xlink:href="#pattern_tile_5"/>
<use x="0" y="-2.98883" xlink:href="#pattern_tile_5"/>
<use x="-2.98883" y="0" xlink:href="#pattern_tile_5"/>
<use x="-2.98883" y="-2.98883" xlink:href="#pattern_tile_5"/>
</g>
</g>
</pattern>
<clipPath id="clip_7">
<path transform="matrix(1,0,0,-1,-1065.794,11380.393)" d="M1146.7833 11260.023V11282.7H1138.2792V11260.023ZM1138.2792 11282.7"/>
</clipPath>
<g id="pattern_tile_8">
<path transform="matrix(1,0,0,-1,0,365.761)" stroke-width=".3985" stroke-linecap="butt" stroke-miterlimit="10" stroke-linejoin="miter" fill="none" stroke="#3b7d08" d="M0 0 3.08846 3.08846"/>
</g>
<pattern id="pattern_8" patternUnits="userSpaceOnUse" patternContentUnits="userSpaceOnUse" x="0" y="0" width="2.98883" height="2.98883">
<clipPath id="clip_9">
<path d="M -.99628 -.99628 L 3.9851 -.99628 L 3.9851 3.9851 L -.99628 3.9851 Z"/>
</clipPath>
<g clip-path="url(#clip_9)">
<g transform="matrix(1,0,0,-1,-0,365.761)">
<use x="0" y="0" xlink:href="#pattern_tile_8"/>
<use x="0" y="-2.98883" xlink:href="#pattern_tile_8"/>
<use x="-2.98883" y="0" xlink:href="#pattern_tile_8"/>
<use x="-2.98883" y="-2.98883" xlink:href="#pattern_tile_8"/>
</g>
</g>
</pattern>
<path id="font_10_3" d="M.34999085 .056259157C.36099244 .015258789 .3959961-.0107421879 .43899537-.0107421879 .47399903-.0107421879 .49699403 .012252808 .5130005 .044265748 .5299988 .08027649 .54299929 .14129639 .54299929 .14329529 .54299929 .1532898 .5339966 .1532898 .5309906 .1532898 .5209961 .1532898 .519989 .14929199 .5169983 .13528443 .5029907 .07926941 .48399354 .011245728 .44198609 .011245728 .42099 .011245728 .41099549 .024261475 .41099549 .057266237 .41099549 .07926941 .4229889 .12628174 .43099977 .16130066L.45899964 .2693329C.46199037 .28433229 .47200013 .32234193 .47599793 .3373413 .48098756 .36035157 .4909973 .3983612 .4909973 .40437318 .4909973 .42237855 .47698976 .43138124 .46199037 .43138124 .45700074 .43138124 .43099977 .43037416 .4229889 .3963623 .4039917 .323349 .3600006 .14828491 .34799195 .09527588 .34700013 .091278079 .30699159 .011245728 .23399353 .011245728 .18199158 .011245728 .17199707 .056259157 .17199707 .09327698 .17199707 .14929199 .19999695 .22831726 .22599793 .29733277 .23799134 .3273468 .24299622 .34135438 .24299622 .36035157 .24299622 .405365 .21099854 .4423828 .16099549 .4423828 .06599426 .4423828 .0289917 .29733277 .0289917 .28833009 .0289917 .27833558 .038986207 .27833558 .040985109 .27833558 .050994874 .27833558 .051986696 .28033448 .056991579 .29634095 .08198547 .38336183 .11999512 .42037965 .1579895 .42037965 .16699219 .42037965 .18299866 .41937257 .18299866 .38735963 .18299866 .36335755 .17199707 .3343506 .1659851 .31933595 .1289978 .2203064 .10798645 .15829468 .10798645 .10928345 .10798645 .014251709 .1769867-.0107421879 .23098755-.0107421879 .29699708-.0107421879 .33299256 .03425598 .34999085 .056259157Z"/>
<path id="font_11_1" d="M.24899292 .10601807C.23899842 .072021488 .20599365 .018234253 .15499878 .018234253 .1519928 .018234253 .12199402 .018234253 .100997928 .03215027 .14199829 .04508972 .14498902 .08100891 .14498902 .087020877 .14498902 .10900879 .12799073 .12402344 .10499573 .12402344 .07699585 .12402344 .04798889 .10002136 .04798889 .0630188 .04798889 .01322937 .10398865-.009765625 .15299988-.009765625 .19898987-.009765625 .23999024 .019226075 .2649994 .061019899 .2889862 .008224487 .34399415-.009765625 .38398744-.009765625 .49899293-.009765625 .55999758 .11502075 .55999758 .14305115 .55999758 .15608216 .5469971 .15608216 .5439911 .15608216 .5299988 .15608216 .5289917 .15107727 .5249939 .13905335 .5039978 .07002258 .44400025 .018234253 .3880005 .018234253 .34799195 .018234253 .32699586 .04508972 .32699586 .08302307 .32699586 .10900879 .35099793 .20018006 .3789978 .31140138 .39898683 .38841249 .44400025 .4133911 .47698976 .4133911 .47898866 .4133911 .5099945 .4133911 .5309906 .39941407 .49899293 .39041139 .4869995 .3624115 .4869995 .34440614 .4869995 .32240296 .5039978 .30740357 .5269928 .30740357 .5499878 .30740357 .58299258 .32640077 .58299258 .3684082 .58299258 .4243927 .5189972 .44140626 .47898866 .44140626 .42900086 .44140626 .3889923 .4084015 .36698915 .3704071 .34899903 .4113922 .30299378 .44140626 .24699402 .44140626 .1349945 .44140626 .070999149 .31840516 .070999149 .2883606 .070999149 .27534486 .084991458 .27534486 .08799744 .27534486 .100997928 .27534486 .101989749 .27934266 .10699463 .29237367 .13198853 .3704071 .19499207 .4133911 .24398804 .4133911 .2769928 .4133911 .3039856 .395401 .3039856 .3474121 .3039856 .32740785 .2919922 .27734376 .2829895 .24327088L.24899292 .10601807Z"/>
<path id="font_12_7" d="M.68699648 .32714845C.70199587 .32714845 .72099307 .32714845 .72099307 .34713746 .72099307 .36714173 .70199587 .36714173 .6879883 .36714173H.08898926C.07499695 .36714173 .055999757 .36714173 .055999757 .34713746 .055999757 .32714845 .07499695 .32714845 .08999634 .32714845H.68699648M.6879883 .13284302C.70199587 .13284302 .72099307 .13284302 .72099307 .15284729 .72099307 .17285156 .70199587 .17285156 .68699648 .17285156H.08999634C.07499695 .17285156 .055999757 .17285156 .055999757 .15284729 .055999757 .13284302 .07499695 .13284302 .08898926 .13284302H.6879883Z"/>
<path id="font_12_3" d="M.45999146 .31976319C.45999146 .39982606 .45498658 .47988893 .41999818 .5539398 .37399293 .65000918 .2919922 .6660156 .25 .6660156 .18998719 .6660156 .116989139 .64001467 .07598877 .54693606 .04399109 .47789 .038986207 .39982606 .038986207 .31976319 .038986207 .24472046 .042999269 .15464783 .083999637 .07859802 .1269989-.0024719239 .19999695-.022460938 .24899292-.022460938 .30299378-.022460938 .3789978-.0014648438 .4229889 .09359741 .45498658 .16265869 .45999146 .2407074 .45999146 .31976319M.24899292-.00047302247C.20999146-.00047302247 .15098572 .024551392 .1329956 .12062073 .12199402 .18066406 .12199402 .2727356 .12199402 .3317871 .12199402 .39582826 .12199402 .46188355 .12998963 .5159149 .14898682 .63500979 .22399903 .64401248 .24899292 .64401248 .28199769 .64401248 .34799195 .6259918 .36698915 .52693179 .3769989 .47088624 .3769989 .39482118 .3769989 .3317871 .3769989 .25672914 .3769989 .18867493 .3659973 .12461853 .35099793 .029556275 .2939911-.00047302247 .24899292-.00047302247Z"/>
<clipPath id="clip_13">
<path transform="matrix(1,0,0,-1,-1065.794,11380.393)" d="M1188.368 11060.253H1211.0455V11068.757H1188.368Z"/>
</clipPath>
<g id="pattern_tile_14">
<path transform="matrix(1,0,0,-1,0,365.761)" stroke-width=".3985" stroke-linecap="butt" stroke-miterlimit="10" stroke-linejoin="miter" fill="none" stroke="#3b7d08" d="M0 0 3.08846 3.08846"/>
</g>
<pattern id="pattern_14" patternUnits="userSpaceOnUse" patternContentUnits="userSpaceOnUse" x="0" y="0" width="2.98883" height="2.98883">
<clipPath id="clip_15">
<path d="M -.99628 -.99628 L 3.9851 -.99628 L 3.9851 3.9851 L -.99628 3.9851 Z"/>
</clipPath>
<g clip-path="url(#clip_15)">
<g transform="matrix(1,0,0,-1,-0,365.761)">
<use x="0" y="0" xlink:href="#pattern_tile_14"/>
<use x="0" y="-2.98883" xlink:href="#pattern_tile_14"/>
<use x="-2.98883" y="0" xlink:href="#pattern_tile_14"/>
<use x="-2.98883" y="-2.98883" xlink:href="#pattern_tile_14"/>
</g>
</g>
</pattern>
<clipPath id="clip_16">
<path transform="matrix(1,0,0,-1,-1065.794,11380.393)" d="M1263.2086 11060.253H1285.8861V11068.757H1263.2086Z"/>
</clipPath>
<g id="pattern_tile_17">
<path transform="matrix(1,0,0,-1,0,365.761)" stroke-width=".3985" stroke-linecap="butt" stroke-miterlimit="10" stroke-linejoin="miter" fill="none" stroke="#3b7d08" d="M0 0 3.08846 3.08846"/>
</g>
<pattern id="pattern_17" patternUnits="userSpaceOnUse" patternContentUnits="userSpaceOnUse" x="0" y="0" width="2.98883" height="2.98883">
<clipPath id="clip_18">
<path d="M -.99628 -.99628 L 3.9851 -.99628 L 3.9851 3.9851 L -.99628 3.9851 Z"/>
</clipPath>
<g clip-path="url(#clip_18)">
<g transform="matrix(1,0,0,-1,-0,365.761)">
<use x="0" y="0" xlink:href="#pattern_tile_17"/>
<use x="0" y="-2.98883" xlink:href="#pattern_tile_17"/>
<use x="-2.98883" y="0" xlink:href="#pattern_tile_17"/>
<use x="-2.98883" y="-2.98883" xlink:href="#pattern_tile_17"/>
</g>
</g>
</pattern>
<clipPath id="clip_19">
<path transform="matrix(1,0,0,-1,-1065.794,11380.393)" d="M1338.049 11060.253H1360.7265V11068.757H1338.049Z"/>
</clipPath>
<g id="pattern_tile_20">
<path transform="matrix(1,0,0,-1,0,365.761)" stroke-width=".3985" stroke-linecap="butt" stroke-miterlimit="10" stroke-linejoin="miter" fill="none" stroke="#3b7d08" d="M0 0 3.08846 3.08846"/>
</g>
<pattern id="pattern_20" patternUnits="userSpaceOnUse" patternContentUnits="userSpaceOnUse" x="0" y="0" width="2.98883" height="2.98883">
<clipPath id="clip_21">
<path d="M -.99628 -.99628 L 3.9851 -.99628 L 3.9851 3.9851 L -.99628 3.9851 Z"/>
</clipPath>
<g clip-path="url(#clip_21)">
<g transform="matrix(1,0,0,-1,-0,365.761)">
<use x="0" y="0" xlink:href="#pattern_tile_20"/>
<use x="0" y="-2.98883" xlink:href="#pattern_tile_20"/>
<use x="-2.98883" y="0" xlink:href="#pattern_tile_20"/>
<use x="-2.98883" y="-2.98883" xlink:href="#pattern_tile_20"/>
</g>
</g>
</pattern>
<path id="font_11_2" d="M.55599978 .37738038C.55999758 .39138795 .55999758 .39338685 .55999758 .3993988 .55999758 .41940309 .5439911 .43139649 .5269928 .43139649 .5159912 .43139649 .49699403 .4263916 .48599244 .4073944 .48298646 .4013977 .47499085 .36938478 .46998597 .34936524L.44898988 .2663269C.44299317 .24232483 .4119873 .11627197 .40899659 .105270389 .4079895 .105270389 .3639984 .018234253 .28599549 .018234253 .21798706 .018234253 .21798706 .08325195 .21798706 .101257327 .21798706 .1552887 .24099732 .2183075 .2709961 .29534913 .2829895 .32736207 .28799439 .33937074 .28799439 .35636903 .28799439 .40438844 .24699402 .44140626 .19299317 .44140626 .09199524 .44140626 .04699707 .3053589 .04699707 .28834535 .04699707 .27534486 .06098938 .27534486 .06399536 .27534486 .07798767 .27534486 .07899475 .28033448 .08198547 .29135133 .10699463 .3743744 .1499939 .4133911 .18998719 .4133911 .20698548 .4133911 .21499634 .40238954 .21499634 .37838746 .21499634 .3553772 .20599365 .33335877 .20098877 .32035829 .15299988 .19830323 .14299011 .1612854 .14299011 .117263797 .14299011 .1002655 .14299011 .053237916 .18199158 .021224976 .21299744-.004776001 .25498963-.009765625 .28199769-.009765625 .32199098-.009765625 .35798646 .0052337648 .3909912 .035232545 .37799073-.01977539 .36698915-.061782838 .32499696-.11178589 .2979889-.14279175 .2579956-.17610169 .20498657-.17610169 .19799805-.17610169 .15098572-.17610169 .12998963-.14279175 .18399048-.13679505 .18399048-.08879089 .18399048-.08778381 .18399048-.055786134 .15499878-.04978943 .14498902-.04978943 .11999512-.04978943 .08699036-.0697937 .08699036-.11578369 .08699036-.1670227 .1349945-.20410156 .20599365-.20410156 .30699159-.20410156 .42999269-.12579346 .46099855-.00077819827L.55599978 .37738038Z"/>
<clipPath id="clip_22">
<path transform="matrix(1,0,0,-1,-1065.794,11380.393)" d="M1404.5814 11133.02V11110.342H1413.0856V11133.02ZM1413.0856 11110.342"/>
</clipPath>
<g id="pattern_tile_23">
<path transform="matrix(1,0,0,-1,0,365.761)" stroke-width=".3985" stroke-linecap="butt" stroke-miterlimit="10" stroke-linejoin="miter" fill="none" stroke="#3b7d08" d="M0 0 3.08846 3.08846"/>
</g>
<pattern id="pattern_23" patternUnits="userSpaceOnUse" patternContentUnits="userSpaceOnUse" x="0" y="0" width="2.98883" height="2.98883">
<clipPath id="clip_24">
<path d="M -.99628 -.99628 L 3.9851 -.99628 L 3.9851 3.9851 L -.99628 3.9851 Z"/>
</clipPath>
<g clip-path="url(#clip_24)">
<g transform="matrix(1,0,0,-1,-0,365.761)">
<use x="0" y="0" xlink:href="#pattern_tile_23"/>
<use x="0" y="-2.98883" xlink:href="#pattern_tile_23"/>
<use x="-2.98883" y="0" xlink:href="#pattern_tile_23"/>
<use x="-2.98883" y="-2.98883" xlink:href="#pattern_tile_23"/>
</g>
</g>
</pattern>
<clipPath id="clip_25">
<path transform="matrix(1,0,0,-1,-1065.794,11380.393)" d="M1404.5814 11207.86V11185.183H1413.0856V11207.86ZM1413.0856 11185.183"/>
</clipPath>
<g id="pattern_tile_26">
<path transform="matrix(1,0,0,-1,0,365.761)" stroke-width=".3985" stroke-linecap="butt" stroke-miterlimit="10" stroke-linejoin="miter" fill="none" stroke="#3b7d08" d="M0 0 3.08846 3.08846"/>
</g>
<pattern id="pattern_26" patternUnits="userSpaceOnUse" patternContentUnits="userSpaceOnUse" x="0" y="0" width="2.98883" height="2.98883">
<clipPath id="clip_27">
<path d="M -.99628 -.99628 L 3.9851 -.99628 L 3.9851 3.9851 L -.99628 3.9851 Z"/>
</clipPath>
<g clip-path="url(#clip_27)">
<g transform="matrix(1,0,0,-1,-0,365.761)">
<use x="0" y="0" xlink:href="#pattern_tile_26"/>
<use x="0" y="-2.98883" xlink:href="#pattern_tile_26"/>
<use x="-2.98883" y="0" xlink:href="#pattern_tile_26"/>
<use x="-2.98883" y="-2.98883" xlink:href="#pattern_tile_26"/>
</g>
</g>
</pattern>
<clipPath id="clip_28">
<path transform="matrix(1,0,0,-1,-1065.794,11380.393)" d="M1404.5814 11282.7V11260.023H1413.0856V11282.7ZM1413.0856 11260.023"/>
</clipPath>
<g id="pattern_tile_29">
<path transform="matrix(1,0,0,-1,0,365.761)" stroke-width=".3985" stroke-linecap="butt" stroke-miterlimit="10" stroke-linejoin="miter" fill="none" stroke="#3b7d08" d="M0 0 3.08846 3.08846"/>
</g>
<pattern id="pattern_29" patternUnits="userSpaceOnUse" patternContentUnits="userSpaceOnUse" x="0" y="0" width="2.98883" height="2.98883">
<clipPath id="clip_30">
<path d="M -.99628 -.99628 L 3.9851 -.99628 L 3.9851 3.9851 L -.99628 3.9851 Z"/>
</clipPath>
<g clip-path="url(#clip_30)">
<g transform="matrix(1,0,0,-1,-0,365.761)">
<use x="0" y="0" xlink:href="#pattern_tile_29"/>
<use x="0" y="-2.98883" xlink:href="#pattern_tile_29"/>
<use x="-2.98883" y="0" xlink:href="#pattern_tile_29"/>
<use x="-2.98883" y="-2.98883" xlink:href="#pattern_tile_29"/>
</g>
</g>
</pattern>
<clipPath id="clip_31">
<path transform="matrix(1,0,0,-1,-1065.794,11380.393)" d="M1188.368 11326.556H1211.0457V11335.06H1188.368ZM1211.0457 11335.06"/>
</clipPath>
<g id="pattern_tile_32">
<path transform="matrix(1,0,0,-1,0,365.761)" stroke-width=".3985" stroke-linecap="butt" stroke-miterlimit="10" stroke-linejoin="miter" fill="none" stroke="#3b7d08" d="M0 0 3.08846 3.08846"/>
</g>
<pattern id="pattern_32" patternUnits="userSpaceOnUse" patternContentUnits="userSpaceOnUse" x="0" y="0" width="2.98883" height="2.98883">
<clipPath id="clip_33">
<path d="M -.99628 -.99628 L 3.9851 -.99628 L 3.9851 3.9851 L -.99628 3.9851 Z"/>
</clipPath>
<g clip-path="url(#clip_33)">
<g transform="matrix(1,0,0,-1,-0,365.761)">
<use x="0" y="0" xlink:href="#pattern_tile_32"/>
<use x="0" y="-2.98883" xlink:href="#pattern_tile_32"/>
<use x="-2.98883" y="0" xlink:href="#pattern_tile_32"/>
<use x="-2.98883" y="-2.98883" xlink:href="#pattern_tile_32"/>
</g>
</g>
</pattern>
<clipPath id="clip_34">
<path transform="matrix(1,0,0,-1,-1065.794,11380.393)" d="M1263.2086 11326.556H1285.8861V11335.06H1263.2086ZM1285.8861 11335.06"/>
</clipPath>
<g id="pattern_tile_35">
<path transform="matrix(1,0,0,-1,0,365.761)" stroke-width=".3985" stroke-linecap="butt" stroke-miterlimit="10" stroke-linejoin="miter" fill="none" stroke="#3b7d08" d="M0 0 3.08846 3.08846"/>
</g>
<pattern id="pattern_35" patternUnits="userSpaceOnUse" patternContentUnits="userSpaceOnUse" x="0" y="0" width="2.98883" height="2.98883">
<clipPath id="clip_36">
<path d="M -.99628 -.99628 L 3.9851 -.99628 L 3.9851 3.9851 L -.99628 3.9851 Z"/>
</clipPath>
<g clip-path="url(#clip_36)">
<g transform="matrix(1,0,0,-1,-0,365.761)">
<use x="0" y="0" xlink:href="#pattern_tile_35"/>
<use x="0" y="-2.98883" xlink:href="#pattern_tile_35"/>
<use x="-2.98883" y="0" xlink:href="#pattern_tile_35"/>
<use x="-2.98883" y="-2.98883" xlink:href="#pattern_tile_35"/>
</g>
</g>
</pattern>
<clipPath id="clip_37">
<path transform="matrix(1,0,0,-1,-1065.794,11380.393)" d="M1338.049 11326.556H1360.7266V11335.06H1338.049ZM1360.7266 11335.06"/>
</clipPath>
<g id="pattern_tile_38">
<path transform="matrix(1,0,0,-1,0,365.761)" stroke-width=".3985" stroke-linecap="butt" stroke-miterlimit="10" stroke-linejoin="miter" fill="none" stroke="#3b7d08" d="M0 0 3.08846 3.08846"/>
</g>
<pattern id="pattern_38" patternUnits="userSpaceOnUse" patternContentUnits="userSpaceOnUse" x="0" y="0" width="2.98883" height="2.98883">
<clipPath id="clip_39">
<path d="M -.99628 -.99628 L 3.9851 -.99628 L 3.9851 3.9851 L -.99628 3.9851 Z"/>
</clipPath>
<g clip-path="url(#clip_39)">
<g transform="matrix(1,0,0,-1,-0,365.761)">
<use x="0" y="0" xlink:href="#pattern_tile_38"/>
<use x="0" y="-2.98883" xlink:href="#pattern_tile_38"/>
<use x="-2.98883" y="0" xlink:href="#pattern_tile_38"/>
<use x="-2.98883" y="-2.98883" xlink:href="#pattern_tile_38"/>
</g>
</g>
</pattern>
<path id="font_10_2" d="M.5159912 .68333438C.5159912 .6843262 .5159912 .69433596 .5029907 .69433596 .48799134 .69433596 .3929901 .68533328 .37599183 .68333438 .36799623 .6823273 .3619995 .6773224 .3619995 .6643219 .3619995 .6523285 .37098695 .6523285 .38598634 .6523285 .43399049 .6523285 .43598939 .6453247 .43598939 .6353302L.43299867 .6153412 .37298585 .37835694C.35499574 .41537477 .32598878 .4423828 .2809906 .4423828 .1639862 .4423828 .039993287 .29533387 .039993287 .14929199 .039993287 .055267335 .09498596-.0107421879 .17298889-.0107421879 .19299317-.0107421879 .24299622-.0067443849 .30299378 .06427002 .31098939 .022247315 .34599305-.0107421879 .3939972-.0107421879 .42900086-.0107421879 .45199586 .012252808 .46798707 .044265748 .4850006 .08027649 .49798585 .14129639 .49798585 .14329529 .49798585 .1532898 .4889984 .1532898 .48599244 .1532898 .47599793 .1532898 .47499085 .14929199 .47200013 .13528443 .45498658 .07026672 .43699647 .011245728 .3959961 .011245728 .36898805 .011245728 .3659973 .037261964 .3659973 .057266237 .3659973 .08126831 .36799623 .088272098 .37199403 .105285648L.5159912 .68333438M.30799867 .119277957C.30299378 .10127258 .30299378 .09927368 .28799439 .08227539 .24398804 .027252198 .20298767 .011245728 .1749878 .011245728 .125 .011245728 .11099243 .06626892 .11099243 .105285648 .11099243 .1552887 .14299011 .27833558 .1659851 .32434083 .19699097 .38336183 .24198914 .42037965 .28199769 .42037965 .34700013 .42037965 .36099244 .3383484 .36099244 .33235169 .36099244 .32633973 .35899354 .32034303 .35798646 .31533814L.30799867 .119277957Z"/>
<path id="font_12_6" d="M.2939911 .16503906V.07800293C.2939911 .041992189 .2919922 .0309906 .21798706 .0309906H.19699097V0C.23799134 .0029907227 .2899933 .0029907227 .33198548 .0029907227 .37399293 .0029907227 .4269867 .0029907227 .46798707 0V.0309906H.44699098C.37298585 .0309906 .37098695 .041992189 .37098695 .07800293V.16503906H.47099305V.19602967H.37098695V.65075686C.37098695 .67074587 .37098695 .6767578 .35499574 .6767578 .34599305 .6767578 .34298707 .6767578 .33499146 .66474917L.027999878 .19602967V.16503906H.2939911M.2999878 .19602967H.055999757L.2999878 .5688019V.19602967Z"/>
<path id="font_10_1" d="M.19198609 .052993776C.19198609 .08198547 .16799927 .10598755 .13899231 .10598755 .10998535 .10598755 .085998538 .08198547 .085998538 .052993776 .085998538 .023986817 .10998535 0 .13899231 0 .16799927 0 .19198609 .023986817 .19198609 .052993776Z"/>
<path id="font_12_10" d="M.10998535 .34429933V.076034549C.10998535 .0309906 .09899902 .0309906 .03199768 .0309906V0C.066986087 .0009918213 .117996219 .0029907227 .14498902 .0029907227 .17098999 .0029907227 .22299195 .0009918213 .25698854 0V.0309906C.18998719 .0309906 .1789856 .0309906 .1789856 .076034549V.2602234C.1789856 .36431886 .25 .42037965 .31399537 .42037965 .3769989 .42037965 .3880005 .36631776 .3880005 .30926515V.076034549C.3880005 .0309906 .3769989 .0309906 .30999757 .0309906V0C.34498597 .0009918213 .3959961 .0029907227 .4229889 .0029907227 .44898988 .0029907227 .5009918 .0009918213 .5349884 0V.0309906C.46798707 .0309906 .45700074 .0309906 .45700074 .076034549V.2602234C.45700074 .36431886 .5279999 .42037965 .59199526 .42037965 .6549988 .42037965 .66600039 .36631776 .66600039 .30926515V.076034549C.66600039 .0309906 .6549988 .0309906 .58799746 .0309906V0C.6230011 .0009918213 .673996 .0029907227 .70098879 .0029907227 .72698977 .0029907227 .7789917 .0009918213 .8129883 0V.0309906C.7609863 .0309906 .73599246 .0309906 .7350006 .061019899V.25221253C.7350006 .3383026 .7350006 .36932374 .70399478 .405365 .6899872 .42237855 .6569977 .4423828 .598999 .4423828 .5149994 .4423828 .47099305 .38233949 .45399476 .34429933 .43998719 .43138124 .3659973 .4423828 .32099916 .4423828 .24798584 .4423828 .20098877 .39935304 .17298889 .33729554V.4423828L.03199768 .43138124V.40037538C.101989749 .4003601 .10998535 .39335633 .10998535 .34429933Z"/>
<path id="font_12_9" d="M.22399903 .35253907V.6116028C.22399903 .6345978 .22399903 .64660647 .24598694 .6496124 .2559967 .6516113 .2849884 .6516113 .30499269 .6516113 .394989 .6516113 .5069885 .6476135 .5069885 .5025635 .5069885 .43354798 .48298646 .35253907 .33499146 .35253907H.22399903M.43499757 .33953858C.5319977 .36354066 .6100006 .4245453 .6100006 .5025635 .6100006 .59858706 .49598695 .6826172 .34899903 .6826172H.034988405V.6516113H.05899048C.13598633 .6516113 .13798523 .64060977 .13798523 .604599V.07752991C.13798523 .041534425 .13598633 .030532837 .05899048 .030532837H.034988405V-.00047302247C.070999149 .002532959 .14199829 .002532959 .18099976 .002532959 .21998596 .002532959 .29100038 .002532959 .32699586-.00047302247V.030532837H.30299378C.22599793 .030532837 .22399903 .041534425 .22399903 .07752991V.3305359H.33898927C.35499574 .3305359 .39698792 .3305359 .43199159 .2965393 .46998597 .26052857 .46998597 .22953797 .46998597 .16253662 .46998597 .09753418 .46998597 .057525636 .5109863 .01953125 .5519867-.016464234 .6069946-.022460938 .6369934-.022460938 .71499636-.022460938 .7319946 .059524537 .7319946 .087524417 .7319946 .09353638 .7319946 .104537967 .71899417 .104537967 .70799258 .104537967 .70799258 .09553528 .70700076 .088531497 .70098879 .017532349 .66600039-.00047302247 .6409912-.00047302247 .59199526-.00047302247 .58399966 .05053711 .56999209 .14352417L.5569916 .223526C.5389862 .28753663 .48999024 .32052613 .43499757 .33953858Z"/>
<path id="font_12_8" d="M.58200076 .2578125H.5569916C.54599 .15588379 .5319977 .0309906 .35598756 .0309906H.27398683C.22698975 .0309906 .22499085 .037979127 .22499085 .07095337V.6036377C.22499085 .637619 .22499085 .6516113 .31999208 .6516113H.35299684V.6826172C.31698609 .6796112 .22599793 .6796112 .18499756 .6796112 .1459961 .6796112 .067993167 .6796112 .032989503 .6826172V.6516113H.056991579C.13398743 .6516113 .13598633 .64060977 .13598633 .6046295V.07795715C.13598633 .04197693 .13398743 .0309906 .056991579 .0309906H.032989503V0H.55400088L.58200076 .2578125Z"/>
<path id="font_12_5" d="M.1269989 .07699585 .23298645 .18003845C.3889923 .31811524 .44898988 .3721466 .44898988 .47216798 .44898988 .5860901 .35899354 .6660156 .23699951 .6660156 .12399292 .6660156 .049987794 .57411196 .049987794 .48516847 .049987794 .4291687 .099990848 .4291687 .102996829 .4291687 .11999512 .4291687 .15499878 .44117738 .15499878 .48217774 .15499878 .5081787 .13699341 .5341797 .101989749 .5341797 .09399414 .5341797 .09199524 .5341797 .08898926 .5331726 .11199951 .59806826 .1659851 .63500979 .22399903 .63500979 .31498719 .63500979 .35798646 .5541382 .35798646 .47216798 .35798646 .39215089 .30799867 .31311036 .25299073 .25108338L.06098938 .036987306C.049987794 .025985718 .049987794 .023986817 .049987794 0H.42099L.44898988 .17404175H.42399598C.4189911 .14402771 .4119873 .1000061 .4019928 .084991458 .394989 .07699585 .32899476 .07699585 .30699159 .07699585H.1269989Z"/>
<path id="font_12_4" d="M.2939911 .64004519C.2939911 .66400149 .2939911 .6660156 .2709961 .6660156 .20899964 .60227969 .12098694 .60227969 .08898926 .60227969V.57128909C.10899353 .57128909 .16799927 .57128909 .21998596 .5972748V.07902527C.21998596 .042999269 .21699524 .0309906 .1269989 .0309906H.09498596V0C.12998963 .0029907227 .21699524 .0029907227 .25698854 .0029907227 .29699708 .0029907227 .38398744 .0029907227 .4189911 0V.0309906H.3869934C.29699708 .0309906 .2939911 .041992189 .2939911 .07902527V.64004519Z"/>
</defs>
<path transform="matrix(1,0,0,-1,-1065.794,11380.393)" d="M1162.2883 11084.263H1389.0763V11311.051H1162.2883Z" fill="#cceeff"/>
<path transform="matrix(1,0,0,-1,-1065.794,11380.393)" stroke-width=".99628" stroke-linecap="butt" stroke-miterlimit="10" stroke-linejoin="miter" fill="none" stroke="#1f6e96" d="M1162.2883 11084.263H1389.0763V11311.051H1162.2883Z"/>
<path transform="matrix(1,0,0,-1,-1065.794,11380.393)" stroke-width=".99628" stroke-linecap="butt" stroke-miterlimit="10" stroke-linejoin="miter" fill="none" stroke="#1f6e96" d="M1259.2527 11235C1259.2527 11235 1261.67 11223.582 1264.2993 11218.366 1266.9285 11213.15 1275.1537 11201.281 1278.2023 11197.407 1281.2509 11193.534 1284.2445 11192.207 1286.2714 11190.447 1288.2984 11188.6879 1290.8634 11186.12 1292.8113 11184.723 1294.7592 11183.326 1296.229 11183.961 1300.3102 11180.38 1304.3915 11176.798 1322.2257 11158.907 1322.2257 11158.907"/>
<path transform="matrix(1,0,0,-1,-1065.794,11380.393)" stroke-width=".99628" stroke-linecap="butt" stroke-miterlimit="10" stroke-linejoin="miter" fill="none" stroke="#1f6e96" d="M1261.5972 11166.785C1261.5972 11166.785 1269.0634 11173.512 1271.5873 11175.687 1274.1112 11177.862 1278.1343 11180.9379 1279.788 11182.464 1281.4417 11183.99 1282.6067 11185.581 1283.5062 11186.688 1284.4058 11187.796 1286.2714 11190.447 1286.2714 11190.447"/>
<path transform="matrix(1,0,0,-1,-1065.794,11380.393)" stroke-width=".99628" stroke-linecap="butt" stroke-miterlimit="10" stroke-linejoin="miter" fill="none" stroke="#1f6e96" d="M1286.2714 11190.447C1286.2714 11190.447 1287.7957 11192.108 1288.2334 11192.795 1288.6712 11193.482 1288.9889 11194.677 1289.4268 11195.398 1289.8646 11196.12 1290.5289 11196.725 1291.3893 11197.998 1292.2496 11199.272 1295.6276 11204.58 1295.6276 11204.58"/>
<path transform="matrix(1,0,0,-1,-1065.794,11380.393)" stroke-width=".99628" stroke-linecap="butt" stroke-miterlimit="10" stroke-linejoin="miter" fill="none" stroke="#3b7d08" d="M1162.2883 11121.681C1162.2883 11125.906 1158.8629 11129.332 1154.6372 11129.332 1150.4115 11129.332 1146.986 11125.906 1146.986 11121.681 1146.986 11117.455 1150.4115 11114.029 1154.6372 11114.029 1158.8629 11114.029 1162.2883 11117.455 1162.2883 11121.681ZM1154.6372 11121.681"/>
<g clip-path="url(#clip_1)">
<rect transform="matrix(1,0,0,-1,0,365.761)" fill="url(#pattern_2)" x="72.48523" y="95.710208" width="8.50415" height="22.677735"/>
</g>
<path transform="matrix(1,0,0,-1,-1065.794,11380.393)" stroke-width=".99628" stroke-linecap="butt" stroke-miterlimit="10" stroke-linejoin="miter" fill="none" stroke="#3b7d08" d="M1162.2883 11196.521C1162.2883 11200.747 1158.8629 11204.173 1154.6372 11204.173 1150.4115 11204.173 1146.986 11200.747 1146.986 11196.521 1146.986 11192.296 1150.4115 11188.87 1154.6372 11188.87 1158.8629 11188.87 1162.2883 11192.296 1162.2883 11196.521ZM1154.6372 11196.521"/>
<g clip-path="url(#clip_4)">
<rect transform="matrix(1,0,0,-1,0,365.761)" fill="url(#pattern_5)" x="72.48523" y="170.55103" width="8.50415" height="22.677735"/>
</g>
<path transform="matrix(1,0,0,-1,-1065.794,11380.393)" stroke-width=".99628" stroke-linecap="butt" stroke-miterlimit="10" stroke-linejoin="miter" fill="none" stroke="#3b7d08" d="M1162.2883 11271.361C1162.2883 11275.588 1158.8629 11279.013 1154.6372 11279.013 1150.4115 11279.013 1146.986 11275.588 1146.986 11271.361 1146.986 11267.136 1150.4115 11263.711 1154.6372 11263.711 1158.8629 11263.711 1162.2883 11267.136 1162.2883 11271.361ZM1154.6372 11271.361"/>
<g clip-path="url(#clip_7)">
<rect transform="matrix(1,0,0,-1,0,365.761)" fill="url(#pattern_8)" x="72.48523" y="245.39185" width="8.50415" height="22.676758"/>
</g>
<use data-text="u" xlink:href="#font_10_3" transform="matrix(9.9626,0,0,-9.9626,8.136052,185.27114)" fill="#6100ad"/>
<use data-text="x" xlink:href="#font_11_1" transform="matrix(6.9738,0,0,-6.9738,13.839052,186.76514)" fill="#6100ad"/>
<use data-text="=" xlink:href="#font_12_7" transform="matrix(9.9626,0,0,-9.9626,21.622054,185.27114)" fill="#6100ad"/>
<use data-text="0" xlink:href="#font_12_3" transform="matrix(9.9626,0,0,-9.9626,32.14256,185.27114)" fill="#6100ad"/>
<path transform="matrix(1,0,0,-1,-1065.794,11380.393)" stroke-width=".99628" stroke-linecap="butt" stroke-miterlimit="10" stroke-linejoin="miter" fill="none" stroke="#3b7d08" d="M1207.358 11076.611C1207.358 11080.837 1203.9325 11084.263 1199.7069 11084.263 1195.4812 11084.263 1192.0557 11080.837 1192.0557 11076.611 1192.0557 11072.386 1195.4812 11068.96 1199.7069 11068.96 1203.9325 11068.96 1207.358 11072.386 1207.358 11076.611ZM1199.7069 11076.611"/>
<g clip-path="url(#clip_13)">
<rect transform="matrix(1,0,0,-1,0,365.761)" fill="url(#pattern_14)" x="122.5741" y="45.621339" width="22.67749" height="8.503906"/>
</g>
<path transform="matrix(1,0,0,-1,-1065.794,11380.393)" stroke-width=".99628" stroke-linecap="butt" stroke-miterlimit="10" stroke-linejoin="miter" fill="none" stroke="#3b7d08" d="M1282.1985 11076.611C1282.1985 11080.837 1278.773 11084.263 1274.5474 11084.263 1270.3217 11084.263 1266.8961 11080.837 1266.8961 11076.611 1266.8961 11072.386 1270.3217 11068.96 1274.5474 11068.96 1278.773 11068.96 1282.1985 11072.386 1282.1985 11076.611ZM1274.5474 11076.611"/>
<g clip-path="url(#clip_16)">
<rect transform="matrix(1,0,0,-1,0,365.761)" fill="url(#pattern_17)" x="197.41468" y="45.621339" width="22.67749" height="8.503906"/>
</g>
<path transform="matrix(1,0,0,-1,-1065.794,11380.393)" stroke-width=".99628" stroke-linecap="butt" stroke-miterlimit="10" stroke-linejoin="miter" fill="none" stroke="#3b7d08" d="M1357.039 11076.611C1357.039 11080.837 1353.6134 11084.263 1349.3878 11084.263 1345.1621 11084.263 1341.7366 11080.837 1341.7366 11076.611 1341.7366 11072.386 1345.1621 11068.96 1349.3878 11068.96 1353.6134 11068.96 1357.039 11072.386 1357.039 11076.611ZM1349.3878 11076.611"/>
<g clip-path="url(#clip_19)">
<rect transform="matrix(1,0,0,-1,0,365.761)" fill="url(#pattern_20)" x="272.255" y="45.621339" width="22.67749" height="8.503906"/>
</g>
<use data-text="u" xlink:href="#font_10_3" transform="matrix(9.9626,0,0,-9.9626,195.49309,359.01914)" fill="#6100ad"/>
<use data-text="y" xlink:href="#font_11_2" transform="matrix(6.9738,0,0,-6.9738,201.19709,360.51313)" fill="#6100ad"/>
<use data-text="=" xlink:href="#font_12_7" transform="matrix(9.9626,0,0,-9.9626,208.75308,359.01914)" fill="#6100ad"/>
<use data-text="0" xlink:href="#font_12_3" transform="matrix(9.9626,0,0,-9.9626,219.27359,359.01914)" fill="#6100ad"/>
<path transform="matrix(1,0,0,-1,-1065.794,11380.393)" stroke-width=".99628" stroke-linecap="butt" stroke-miterlimit="10" stroke-linejoin="miter" fill="none" stroke="#3b7d08" d="M1404.3788 11121.681C1404.3788 11125.906 1400.9533 11129.332 1396.7276 11129.332 1392.5018 11129.332 1389.0763 11125.906 1389.0763 11121.681 1389.0763 11117.455 1392.5018 11114.029 1396.7276 11114.029 1400.9533 11114.029 1404.3788 11117.455 1404.3788 11121.681ZM1396.7276 11121.681"/>
<g clip-path="url(#clip_22)">
<rect transform="matrix(1,0,0,-1,0,365.761)" fill="url(#pattern_23)" x="338.78749" y="95.710208" width="8.50415" height="22.677735"/>
</g>
<path transform="matrix(1,0,0,-1,-1065.794,11380.393)" stroke-width=".99628" stroke-linecap="butt" stroke-miterlimit="10" stroke-linejoin="miter" fill="none" stroke="#3b7d08" d="M1404.3788 11196.521C1404.3788 11200.747 1400.9533 11204.173 1396.7276 11204.173 1392.5018 11204.173 1389.0763 11200.747 1389.0763 11196.521 1389.0763 11192.296 1392.5018 11188.87 1396.7276 11188.87 1400.9533 11188.87 1404.3788 11192.296 1404.3788 11196.521ZM1396.7276 11196.521"/>
<g clip-path="url(#clip_25)">
<rect transform="matrix(1,0,0,-1,0,365.761)" fill="url(#pattern_26)" x="338.78749" y="170.55103" width="8.50415" height="22.677735"/>
</g>
<path transform="matrix(1,0,0,-1,-1065.794,11380.393)" stroke-width=".99628" stroke-linecap="butt" stroke-miterlimit="10" stroke-linejoin="miter" fill="none" stroke="#3b7d08" d="M1404.3788 11271.361C1404.3788 11275.588 1400.9533 11279.013 1396.7276 11279.013 1392.5018 11279.013 1389.0763 11275.588 1389.0763 11271.361 1389.0763 11267.136 1392.5018 11263.711 1396.7276 11263.711 1400.9533 11263.711 1404.3788 11267.136 1404.3788 11271.361ZM1396.7276 11271.361"/>
<g clip-path="url(#clip_28)">
<rect transform="matrix(1,0,0,-1,0,365.761)" fill="url(#pattern_29)" x="338.78749" y="245.39185" width="8.50415" height="22.676758"/>
</g>
<use data-text="u" xlink:href="#font_10_3" transform="matrix(9.9626,0,0,-9.9626,382.62406,185.27114)" fill="#6100ad"/>
<use data-text="x" xlink:href="#font_11_1" transform="matrix(6.9738,0,0,-6.9738,388.32707,186.76514)" fill="#6100ad"/>
<use data-text="=" xlink:href="#font_12_7" transform="matrix(9.9626,0,0,-9.9626,396.11006,185.27114)" fill="#6100ad"/>
<use data-text="0" xlink:href="#font_12_3" transform="matrix(9.9626,0,0,-9.9626,406.63056,185.27114)" fill="#6100ad"/>
<path transform="matrix(1,0,0,-1,-1065.794,11380.393)" stroke-width=".99628" stroke-linecap="butt" stroke-miterlimit="10" stroke-linejoin="miter" fill="none" stroke="#3b7d08" d="M1207.358 11318.701C1207.358 11322.927 1203.9325 11326.353 1199.7069 11326.353 1195.4812 11326.353 1192.0557 11322.927 1192.0557 11318.701 1192.0557 11314.476 1195.4812 11311.051 1199.7069 11311.051 1203.9325 11311.051 1207.358 11314.476 1207.358 11318.701ZM1199.7069 11318.701"/>
<g clip-path="url(#clip_31)">
<rect transform="matrix(1,0,0,-1,0,365.761)" fill="url(#pattern_32)" x="122.5741" y="311.92408" width="22.677613" height="8.503906"/>
</g>
<path transform="matrix(1,0,0,-1,-1065.794,11380.393)" stroke-width=".99628" stroke-linecap="butt" stroke-miterlimit="10" stroke-linejoin="miter" fill="none" stroke="#3b7d08" d="M1282.1985 11318.701C1282.1985 11322.927 1278.773 11326.353 1274.5474 11326.353 1270.3217 11326.353 1266.8961 11322.927 1266.8961 11318.701 1266.8961 11314.476 1270.3217 11311.051 1274.5474 11311.051 1278.773 11311.051 1282.1985 11314.476 1282.1985 11318.701ZM1274.5474 11318.701"/>
<g clip-path="url(#clip_34)">
<rect transform="matrix(1,0,0,-1,0,365.761)" fill="url(#pattern_35)" x="197.41468" y="311.92408" width="22.67749" height="8.503906"/>
</g>
<path transform="matrix(1,0,0,-1,-1065.794,11380.393)" stroke-width=".99628" stroke-linecap="butt" stroke-miterlimit="10" stroke-linejoin="miter" fill="none" stroke="#3b7d08" d="M1357.039 11318.701C1357.039 11322.927 1353.6134 11326.353 1349.3878 11326.353 1345.1621 11326.353 1341.7366 11322.927 1341.7366 11318.701 1341.7366 11314.476 1345.1621 11311.051 1349.3878 11311.051 1353.6134 11311.051 1357.039 11314.476 1357.039 11318.701ZM1349.3878 11318.701"/>
<g clip-path="url(#clip_37)">
<rect transform="matrix(1,0,0,-1,0,365.761)" fill="url(#pattern_38)" x="272.255" y="311.92408" width="22.677613" height="8.503906"/>
</g>
<use data-text="u" xlink:href="#font_10_3" transform="matrix(9.9626,0,0,-9.9626,195.49309,11.523041)" fill="#6100ad"/>
<use data-text="y" xlink:href="#font_11_2" transform="matrix(6.9738,0,0,-6.9738,201.19709,13.018036)" fill="#6100ad"/>
<use data-text="=" xlink:href="#font_12_7" transform="matrix(9.9626,0,0,-9.9626,208.75308,11.523041)" fill="#6100ad"/>
<use data-text="0" xlink:href="#font_12_3" transform="matrix(9.9626,0,0,-9.9626,219.27359,11.523041)" fill="#6100ad"/>
<use data-text="d" xlink:href="#font_10_2" transform="matrix(9.9626,0,0,-9.9626,168.30506,149.85059)" fill="#6100ad"/>
<use data-text="=" xlink:href="#font_12_7" transform="matrix(9.9626,0,0,-9.9626,176.25806,149.85059)" fill="#6100ad"/>
<use data-text="4" xlink:href="#font_12_6" transform="matrix(9.9626,0,0,-9.9626,186.77857,149.85059)" fill="#6100ad"/>
<use data-text="." xlink:href="#font_10_1" transform="matrix(9.9626,0,0,-9.9626,191.75505,149.85059)" fill="#6100ad"/>
<use data-text="0" xlink:href="#font_12_3" transform="matrix(9.9626,0,0,-9.9626,194.52306,149.85059)" fill="#6100ad"/>
<use data-text="m" xlink:href="#font_12_10" transform="matrix(9.9626,0,0,-9.9626,199.50435,149.85059)" fill="#6100ad"/>
<use data-text="R" xlink:href="#font_12_9" transform="matrix(9.9626,0,0,-9.9626,211.12075,149.85059)" fill="#6100ad"/>
<use data-text="L" xlink:href="#font_12_8" transform="matrix(9.9626,0,0,-9.9626,218.45322,149.85059)" fill="#6100ad"/>
<use data-text="d" xlink:href="#font_10_2" transform="matrix(9.9626,0,0,-9.9626,145.15503,206.31543)" fill="#6100ad"/>
<use data-text="=" xlink:href="#font_12_7" transform="matrix(9.9626,0,0,-9.9626,153.10803,206.31543)" fill="#6100ad"/>
<use data-text="2" xlink:href="#font_12_5" transform="matrix(9.9626,0,0,-9.9626,163.62854,206.31543)" fill="#6100ad"/>
<use data-text="." xlink:href="#font_10_1" transform="matrix(9.9626,0,0,-9.9626,168.60503,206.31543)" fill="#6100ad"/>
<use data-text="0" xlink:href="#font_12_3" transform="matrix(9.9626,0,0,-9.9626,171.37303,206.31543)" fill="#6100ad"/>
<use data-text="m" xlink:href="#font_12_10" transform="matrix(9.9626,0,0,-9.9626,176.35433,206.31543)" fill="#6100ad"/>
<use data-text="L" xlink:href="#font_12_8" transform="matrix(9.9626,0,0,-9.9626,187.97072,206.31543)" fill="#6100ad"/>
<use data-text="L" xlink:href="#font_12_8" transform="matrix(9.9626,0,0,-9.9626,194.19734,206.31543)" fill="#6100ad"/>
<use data-text="d" xlink:href="#font_10_2" transform="matrix(9.9626,0,0,-9.9626,229.9281,183.0088)" fill="#6100ad"/>
<use data-text="=" xlink:href="#font_12_7" transform="matrix(9.9626,0,0,-9.9626,237.8811,183.0088)" fill="#6100ad"/>
<use data-text="1" xlink:href="#font_12_4" transform="matrix(9.9626,0,0,-9.9626,248.40161,183.0088)" fill="#6100ad"/>
<use data-text="." xlink:href="#font_10_1" transform="matrix(9.9626,0,0,-9.9626,253.3791,183.0088)" fill="#6100ad"/>
<use data-text="0" xlink:href="#font_12_3" transform="matrix(9.9626,0,0,-9.9626,256.14613,183.0088)" fill="#6100ad"/>
<use data-text="m" xlink:href="#font_12_10" transform="matrix(9.9626,0,0,-9.9626,261.12739,183.0088)" fill="#6100ad"/>
<use data-text="L" xlink:href="#font_12_8" transform="matrix(9.9626,0,0,-9.9626,272.74378,183.0088)" fill="#6100ad"/>
<use data-text="L" xlink:href="#font_12_8" transform="matrix(9.9626,0,0,-9.9626,278.9704,183.0088)" fill="#6100ad"/>
</svg>
