<?xml version="1.0" encoding="UTF-8" standalone="no"?>
<!DOCTYPE svg PUBLIC "-//W3C//DTD SVG 1.1//EN" "http://www.w3.org/Graphics/SVG/1.1/DTD/svg11.dtd">
<svg xmlns="http://www.w3.org/2000/svg" xmlns:xlink="http://www.w3.org/1999/xlink" version="1.1" width="280.764pt" height="114.739pt" viewBox="0 0 280.764 114.739">
<g enable-background="new">
<path transform="matrix(1,0,0,-1,12.823,99.889)" d="M 2.83466 0 C 2.83466 1.56555 1.56555 2.83466 0 2.83466 C -1.56555 2.83466 -2.83466 1.56555 -2.83466 0 C -2.83466 -1.56555 -1.56555 -2.83466 0 -2.83466 C 1.56555 -2.83466 2.83466 -1.56555 2.83466 0 Z M 0 0 " fill="#f58000"/>
<path transform="matrix(1,0,0,-1,12.823,99.889)" d="M 87.87512 0 C 87.87512 1.56555 86.60602 2.83466 85.04045 2.83466 C 83.4749 2.83466 82.20578 1.56555 82.20578 0 C 82.20578 -1.56555 83.4749 -2.83466 85.04045 -2.83466 C 86.60602 -2.83466 87.87512 -1.56555 87.87512 0 Z M 85.04045 0 " fill="#f58000"/>
<path transform="matrix(1,0,0,-1,12.823,99.889)" d="M 45.35489 85.04045 C 45.35489 86.60602 44.08577 87.87512 42.52022 87.87512 C 40.95465 87.87512 39.68555 86.60602 39.68555 85.04045 C 39.68555 83.4749 40.95465 82.20578 42.52022 82.20578 C 44.08577 82.20578 45.35489 83.4749 45.35489 85.04045 Z M 42.52022 85.04045 " fill="#f58000"/>
<path transform="matrix(1,0,0,-1,12.823,99.889)" stroke-width=".99628" stroke-linecap="butt" stroke-miterlimit="10" stroke-linejoin="miter" fill="none" stroke="#1f6e96" d="M 3.0339 0 L 82.00653 0 M 83.68376 2.71341 L 43.8769 82.32704 M 41.16353 82.32704 L 1.35667 2.71341 "/>
<symbol id="font_0_3">
<path d="M .244 .74700006 C .16800002 .74700006 .103 .71500006 .060000004 .656 C .019 .601 0 .51 0 .37300004 C 0 .24800001 .017000003 .15900001 .050000006 .105000007 C .09200001 .038000004 .16100002 0 .244 0 C .321 0 .384 .031000004 .428 .091000009 C .468 .14500001 .488 .23700002 .488 .36900003 C .488 .499 .47200004 .587 .438 .642 C .396 .71000006 .327 .74700006 .244 .74700006 M .244 .634 C .28 .634 .30900003 .614 .326 .577 C .34 .54700008 .348 .469 .348 .372 C .348 .293 .34 .21300002 .33 .185 C .314 .143 .284 .120000008 .244 .120000008 C .20700002 .120000008 .179 .139 .16200002 .17500001 C .148 .20500002 .14000002 .28 .14000002 .374 C .14000002 .45700003 .148 .53800007 .158 .56700006 C .17400001 .61 .20400001 .634 .244 .634 Z "/>
</symbol>
<use xlink:href="#font_0_3" transform="matrix(11.3574,0,0,-11.3574,3.4833649,111.63622)"/>
<symbol id="font_0_4">
<path d="M .17 .48900003 L .17 0 L .31 0 L .31 .70900008 L .21700002 .70900008 C .19500001 .625 .12200001 .582 0 .582 L 0 .48900003 L .17 .48900003 Z "/>
</symbol>
<use xlink:href="#font_0_4" transform="matrix(11.3574,0,0,-11.3574,101.9883,111.375)"/>
<symbol id="font_0_1">
<path d="M .48200003 .125 L .18200001 .125 C .2 .163 .222 .18300002 .326 .259 C .44900004 .349 .48500005 .40300004 .48500005 .499 C .48500005 .63600006 .39100004 .72400006 .24200002 .72400006 C .095 .72400006 .009 .637 .009 .48700003 C .009 .48100005 .009 .47300003 .010000002 .462 L .14400001 .462 L .14400001 .485 C .14400001 .564 .18100001 .61 .245 .61 C .307 .61 .34500004 .56700006 .34500004 .49600003 C .34500004 .418 .32000003 .38700003 .164 .27600003 C .044 .194 .0069999995 .13100001 0 0 L .48200003 0 L .48200003 .125 Z "/>
</symbol>
<use xlink:href="#font_0_1" transform="matrix(11.3574,0,0,-11.3574,59.03672,18.916)"/>
<path transform="matrix(1,0,0,-1,12.823,99.889)" d="M 172.91558 0 C 172.91558 1.56555 171.64647 2.83466 170.08092 2.83466 C 168.51535 2.83466 167.24625 1.56555 167.24625 0 C 167.24625 -1.56555 168.51535 -2.83466 170.08092 -2.83466 C 171.64647 -2.83466 172.91558 -1.56555 172.91558 0 Z M 170.08092 0 " fill="#f58000"/>
<path transform="matrix(1,0,0,-1,12.823,99.889)" d="M 257.95606 0 C 257.95606 1.56555 256.68696 2.83466 255.12137 2.83466 C 253.55582 2.83466 252.2867 1.56555 252.2867 0 C 252.2867 -1.56555 253.55582 -2.83466 255.12137 -2.83466 C 256.68696 -2.83466 257.95606 -1.56555 257.95606 0 Z M 255.12137 0 " fill="#f58000"/>
<path transform="matrix(1,0,0,-1,12.823,99.889)" d="M 257.95606 85.04045 C 257.95606 86.60602 256.68696 87.87512 255.12137 87.87512 C 253.55582 87.87512 252.2867 86.60602 252.2867 85.04045 C 252.2867 83.4749 253.55582 82.20578 255.12137 82.20578 C 256.68696 82.20578 257.95606 83.4749 257.95606 85.04045 Z M 255.12137 85.04045 " fill="#f58000"/>
<path transform="matrix(1,0,0,-1,12.823,99.889)" d="M 172.91558 85.04045 C 172.91558 86.60602 171.64647 87.87512 170.08092 87.87512 C 168.51535 87.87512 167.24625 86.60602 167.24625 85.04045 C 167.24625 83.4749 168.51535 82.20578 170.08092 82.20578 C 171.64647 82.20578 172.91558 83.4749 172.91558 85.04045 Z M 170.08092 85.04045 " fill="#f58000"/>
<path transform="matrix(1,0,0,-1,12.823,99.889)" stroke-width=".99628" stroke-linecap="butt" stroke-miterlimit="10" stroke-linejoin="miter" fill="none" stroke="#1f6e96" d="M 173.11484 0 L 252.08745 0 M 255.12137 3.0339 L 255.12137 82.00653 M 252.08745 85.04045 L 173.11484 85.04045 M 170.08092 82.00653 L 170.08092 3.0339 "/>
<use xlink:href="#font_0_3" transform="matrix(11.3574,0,0,-11.3574,173.56237,111.63622)"/>
<use xlink:href="#font_0_4" transform="matrix(11.3574,0,0,-11.3574,272.0673,111.375)"/>
<use xlink:href="#font_0_1" transform="matrix(11.3574,0,0,-11.3574,271.6357,11.496002)"/>
<symbol id="font_0_2">
<path d="M .18800001 .34 C .237 .34 .246 .33900003 .27 .333 C .317 .32000003 .347 .279 .347 .22700002 C .347 .165 .303 .120000008 .24200003 .120000008 C .17600002 .120000008 .14000002 .158 .136 .231 L 0 .231 C .0010000002 .089 .094000007 0 .23900001 0 C .39000003 0 .48700003 .089 .48700003 .22700002 C .48700003 .31 .451 .36400003 .371 .40300004 C .437 .44400005 .46400003 .48900003 .46400003 .554 C .46400003 .67200008 .37600003 .74700006 .23900001 .74700006 C .158 .74700006 .09 .71900007 .050000006 .66700008 C .022000002 .632 .0090000019 .58400008 .0090000019 .521 L .0090000019 .50900009 L .13900002 .50900009 C .14000002 .54700008 .143 .56600007 .15 .58400008 C .163 .615 .19500001 .634 .23600002 .634 C .292 .634 .324 .6 .324 .541 C .324 .47000004 .283 .43400003 .20000002 .43400003 L .18800001 .43400003 L .18800001 .34 Z "/>
</symbol>
<use xlink:href="#font_0_2" transform="matrix(11.3574,0,0,-11.3574,173.56237,11.547223)"/>
</g>
</svg>
