solid Created by Gmsh
facet normal 0 -1 0
  outer loop
    vertex -3000 -3000 -3000
    vertex -2333.89 -3000 -3294.72
    vertex -2379.17 -3000 -2616.67
  endloop
endfacet
facet normal 0 -1 0
  outer loop
    vertex -3000 -3000 -3000
    vertex -2379.17 -3000 -2616.67
    vertex -3000 -3000 -2000
  endloop
endfacet
facet normal 0 -1 0
  outer loop
    vertex -3000 -3000 -3000
    vertex -3000 -3000 -4000
    vertex -2333.89 -3000 -3294.72
  endloop
endfacet
facet normal 0 -1 0
  outer loop
    vertex -1500 -3000 -2968.75
    vertex -1000 -3000 -4000
    vertex -750 -3000 -3250
  endloop
endfacet
facet normal 0 -1 0
  outer loop
    vertex -1500 -3000 -2968.75
    vertex -750 -3000 -3250
    vertex -620.833 -3000 -2616.67
  endloop
endfacet
facet normal -0 -1 0
  outer loop
    vertex -1500 -3000 -2968.75
    vertex -2379.17 -3000 -2616.67
    vertex -2333.89 -3000 -3294.72
  endloop
endfacet
facet normal 0 -1 0
  outer loop
    vertex -1500 -3000 -2968.75
    vertex -2000 -3000 -2000
    vertex -2379.17 -3000 -2616.67
  endloop
endfacet
facet normal 0 -1 0
  outer loop
    vertex -1000 -3000 -4000
    vertex -1500 -3000 -2968.75
    vertex -2000 -3000 -4000
  endloop
endfacet
facet normal 0 -1 0
  outer loop
    vertex -1500 -3000 -2968.75
    vertex -2333.89 -3000 -3294.72
    vertex -2000 -3000 -4000
  endloop
endfacet
facet normal 0 -1 0
  outer loop
    vertex -1500 -3000 -2968.75
    vertex -620.833 -3000 -2616.67
    vertex -1000 -3000 -2000
  endloop
endfacet
facet normal 0 -1 0
  outer loop
    vertex -2000 -3000 -2000
    vertex -1500 -3000 -2968.75
    vertex -1000 -3000 -2000
  endloop
endfacet
facet normal 0 -1 0
  outer loop
    vertex -1000 -3000 -4000
    vertex 0 -3000 -4000
    vertex -750 -3000 -3250
  endloop
endfacet
facet normal 0 -1 0
  outer loop
    vertex -750 -3000 -3250
    vertex 0 -3000 -3000
    vertex -620.833 -3000 -2616.67
  endloop
endfacet
facet normal 0 -1 0
  outer loop
    vertex 0 -3000 -4000
    vertex 0 -3000 -3000
    vertex -750 -3000 -3250
  endloop
endfacet
facet normal -0 -1 0
  outer loop
    vertex -2000 -3000 -2000
    vertex -3000 -3000 -2000
    vertex -2379.17 -3000 -2616.67
  endloop
endfacet
facet normal 0 -1 0
  outer loop
    vertex -2000 -3000 -4000
    vertex -2333.89 -3000 -3294.72
    vertex -3000 -3000 -4000
  endloop
endfacet
facet normal -0 -1 0
  outer loop
    vertex 0 -3000 -2000
    vertex -1000 -3000 -2000
    vertex -620.833 -3000 -2616.67
  endloop
endfacet
facet normal 0 -1 -0
  outer loop
    vertex 0 -3000 -2000
    vertex -620.833 -3000 -2616.67
    vertex 0 -3000 -3000
  endloop
endfacet
facet normal 0 -1 0
  outer loop
    vertex 1495.14 -3000 -3004.86
    vertex 2333.24 -3000 -3300.09
    vertex 2379.17 -3000 -2620.83
  endloop
endfacet
facet normal 0 -1 0
  outer loop
    vertex 1495.14 -3000 -3004.86
    vertex 2379.17 -3000 -2620.83
    vertex 2000 -3000 -2000
  endloop
endfacet
facet normal 0 -1 0
  outer loop
    vertex 2333.24 -3000 -3300.09
    vertex 3000 -3000 -3000
    vertex 2379.17 -3000 -2620.83
  endloop
endfacet
facet normal 0 -1 0
  outer loop
    vertex 2000 -3000 -2000
    vertex 2379.17 -3000 -2620.83
    vertex 3000 -3000 -2000
  endloop
endfacet
facet normal 0 -1 0
  outer loop
    vertex 3000 -3000 -3000
    vertex 3000 -3000 -2000
    vertex 2379.17 -3000 -2620.83
  endloop
endfacet
facet normal 0 -1 0
  outer loop
    vertex 1495.14 -3000 -3004.86
    vertex 2000 -3000 -4000
    vertex 2333.24 -3000 -3300.09
  endloop
endfacet
facet normal -0 -1 0
  outer loop
    vertex 2000 -3000 -2000
    vertex 1000 -3000 -2000
    vertex 1495.14 -3000 -3004.86
  endloop
endfacet
facet normal 0 -1 0
  outer loop
    vertex 1000 -3000 -4000
    vertex 2000 -3000 -4000
    vertex 1495.14 -3000 -3004.86
  endloop
endfacet
facet normal 0 -1 0
  outer loop
    vertex 1495.14 -3000 -3004.86
    vertex 620.185 -3000 -3379.81
    vertex 1000 -3000 -4000
  endloop
endfacet
facet normal 0 -1 0
  outer loop
    vertex 1495.14 -3000 -3004.86
    vertex 1000 -3000 -2000
    vertex 750 -3000 -2750
  endloop
endfacet
facet normal -0 -1 0
  outer loop
    vertex 1495.14 -3000 -3004.86
    vertex 750 -3000 -2750
    vertex 620.185 -3000 -3379.81
  endloop
endfacet
facet normal 0 -1 0
  outer loop
    vertex 2000 -3000 -4000
    vertex 3000 -3000 -4000
    vertex 2333.24 -3000 -3300.09
  endloop
endfacet
facet normal 0 -1 -0
  outer loop
    vertex 3000 -3000 -3000
    vertex 2333.24 -3000 -3300.09
    vertex 3000 -3000 -4000
  endloop
endfacet
facet normal 0 -1 0
  outer loop
    vertex 1000 -3000 -4000
    vertex 620.185 -3000 -3379.81
    vertex 0 -3000 -4000
  endloop
endfacet
facet normal -0 -1 0
  outer loop
    vertex 1000 -3000 -2000
    vertex 0 -3000 -2000
    vertex 750 -3000 -2750
  endloop
endfacet
facet normal 0 -1 0
  outer loop
    vertex 0 -3000 -2000
    vertex 0 -3000 -3000
    vertex 750 -3000 -2750
  endloop
endfacet
facet normal 0 -1 0
  outer loop
    vertex 750 -3000 -2750
    vertex 0 -3000 -3000
    vertex 620.185 -3000 -3379.81
  endloop
endfacet
facet normal 0 -1 0
  outer loop
    vertex 0 -3000 -4000
    vertex 620.185 -3000 -3379.81
    vertex 0 -3000 -3000
  endloop
endfacet
facet normal 0 -1 0
  outer loop
    vertex -1500 -3000 -1031.25
    vertex -2379.17 -3000 -1383.33
    vertex -2000 -3000 -2000
  endloop
endfacet
facet normal 0 -1 0
  outer loop
    vertex -2000 -3000 -2000
    vertex -1000 -3000 -2000
    vertex -1500 -3000 -1031.25
  endloop
endfacet
facet normal 0 -1 0
  outer loop
    vertex -1500 -3000 -1031.25
    vertex -620.833 -3000 -1383.33
    vertex -750 -3000 -750
  endloop
endfacet
facet normal 0 -1 0
  outer loop
    vertex -1500 -3000 -1031.25
    vertex -750 -3000 -750
    vertex -1000 -3000 0
  endloop
endfacet
facet normal 0 -1 0
  outer loop
    vertex -1500 -3000 -1031.25
    vertex -2000 -3000 0
    vertex -2333.89 -3000 -705.278
  endloop
endfacet
facet normal 0 -1 0
  outer loop
    vertex -2000 -3000 0
    vertex -1500 -3000 -1031.25
    vertex -1000 -3000 0
  endloop
endfacet
facet normal 0 -1 0
  outer loop
    vertex -1500 -3000 -1031.25
    vertex -1000 -3000 -2000
    vertex -620.833 -3000 -1383.33
  endloop
endfacet
facet normal -0 -1 0
  outer loop
    vertex -1500 -3000 -1031.25
    vertex -2333.89 -3000 -705.278
    vertex -2379.17 -3000 -1383.33
  endloop
endfacet
facet normal 0 -1 -0
  outer loop
    vertex 0 -3000 -1000
    vertex -620.833 -3000 -1383.33
    vertex 0 -3000 -2000
  endloop
endfacet
facet normal -0 -1 0
  outer loop
    vertex 0 -3000 -1000
    vertex -750 -3000 -750
    vertex -620.833 -3000 -1383.33
  endloop
endfacet
facet normal 0 -1 0
  outer loop
    vertex 0 -3000 -1000
    vertex 0 -3000 0
    vertex -750 -3000 -750
  endloop
endfacet
facet normal 0 -1 0
  outer loop
    vertex -2000 -3000 -2000
    vertex -2379.17 -3000 -1383.33
    vertex -3000 -3000 -2000
  endloop
endfacet
facet normal 0 -1 0
  outer loop
    vertex 0 -3000 -2000
    vertex -620.833 -3000 -1383.33
    vertex -1000 -3000 -2000
  endloop
endfacet
facet normal -0 -1 0
  outer loop
    vertex 0 -3000 0
    vertex -1000 -3000 0
    vertex -750 -3000 -750
  endloop
endfacet
facet normal 0 -1 0
  outer loop
    vertex -3000 -3000 -1000
    vertex -2379.17 -3000 -1383.33
    vertex -2333.89 -3000 -705.278
  endloop
endfacet
facet normal 0 -1 0
  outer loop
    vertex -3000 -3000 -1000
    vertex -3000 -3000 -2000
    vertex -2379.17 -3000 -1383.33
  endloop
endfacet
facet normal 0 -1 0
  outer loop
    vertex -3000 -3000 -1000
    vertex -2333.89 -3000 -705.278
    vertex -3000 -3000 0
  endloop
endfacet
facet normal -0 -1 0
  outer loop
    vertex -2000 -3000 0
    vertex -3000 -3000 0
    vertex -2333.89 -3000 -705.278
  endloop
endfacet
facet normal 0 -1 -0
  outer loop
    vertex 3000 -3000 0
    vertex 2333.24 -3000 -704.074
    vertex 3000 -3000 -1000
  endloop
endfacet
facet normal -0 -1 0
  outer loop
    vertex 3000 -3000 0
    vertex 2000 -3000 0
    vertex 2333.24 -3000 -704.074
  endloop
endfacet
facet normal 0 -1 0
  outer loop
    vertex 750 -3000 -750
    vertex 0 -3000 -1000
    vertex 620.185 -3000 -1382.69
  endloop
endfacet
facet normal 0 -1 0
  outer loop
    vertex 0 -3000 -1000
    vertex 750 -3000 -750
    vertex 0 -3000 0
  endloop
endfacet
facet normal 0 -1 -0
  outer loop
    vertex 750 -3000 -750
    vertex 620.185 -3000 -1382.69
    vertex 1495.14 -3000 -1026.39
  endloop
endfacet
facet normal 0 -1 0
  outer loop
    vertex 1495.14 -3000 -1026.39
    vertex 1000 -3000 0
    vertex 750 -3000 -750
  endloop
endfacet
facet normal -0 -1 0
  outer loop
    vertex 1000 -3000 0
    vertex 0 -3000 0
    vertex 750 -3000 -750
  endloop
endfacet
facet normal 0 -1 0
  outer loop
    vertex 1495.14 -3000 -1026.39
    vertex 2000 -3000 -2000
    vertex 2379.17 -3000 -1379.17
  endloop
endfacet
facet normal 0 -1 0
  outer loop
    vertex 1495.14 -3000 -1026.39
    vertex 2379.17 -3000 -1379.17
    vertex 2333.24 -3000 -704.074
  endloop
endfacet
facet normal -0 -1 0
  outer loop
    vertex 3000 -3000 -1000
    vertex 2333.24 -3000 -704.074
    vertex 2379.17 -3000 -1379.17
  endloop
endfacet
facet normal 0 -1 -0
  outer loop
    vertex 3000 -3000 -1000
    vertex 2379.17 -3000 -1379.17
    vertex 3000 -3000 -2000
  endloop
endfacet
facet normal 0 -1 0
  outer loop
    vertex 2000 -3000 -2000
    vertex 3000 -3000 -2000
    vertex 2379.17 -3000 -1379.17
  endloop
endfacet
facet normal 0 -1 0
  outer loop
    vertex 0 -3000 -1000
    vertex 0 -3000 -2000
    vertex 620.185 -3000 -1382.69
  endloop
endfacet
facet normal 0 -1 0
  outer loop
    vertex 2000 -3000 -2000
    vertex 1495.14 -3000 -1026.39
    vertex 1000 -3000 -2000
  endloop
endfacet
facet normal 0 -1 0
  outer loop
    vertex 1495.14 -3000 -1026.39
    vertex 2333.24 -3000 -704.074
    vertex 2000 -3000 0
  endloop
endfacet
facet normal 0 -1 0
  outer loop
    vertex 1495.14 -3000 -1026.39
    vertex 620.185 -3000 -1382.69
    vertex 1000 -3000 -2000
  endloop
endfacet
facet normal 0 -1 0
  outer loop
    vertex 1000 -3000 0
    vertex 1495.14 -3000 -1026.39
    vertex 2000 -3000 0
  endloop
endfacet
facet normal 0 -1 0
  outer loop
    vertex 1000 -3000 -2000
    vertex 620.185 -3000 -1382.69
    vertex 0 -3000 -2000
  endloop
endfacet
facet normal 0 -1 0
  outer loop
    vertex -2000 3000 -2000
    vertex -1497.87 3000 -3008.98
    vertex -1000 3000 -2000
  endloop
endfacet
facet normal 0 -1 -0
  outer loop
    vertex -2000 3000 -2000
    vertex -2250 3000 -2750
    vertex -1497.87 3000 -3008.98
  endloop
endfacet
facet normal -0 -1 0
  outer loop
    vertex -2000 3000 -2000
    vertex -3000 3000 -2000
    vertex -2250 3000 -2750
  endloop
endfacet
facet normal 0 -1 0
  outer loop
    vertex -1000 3000 -2000
    vertex -620.833 3000 -2620.83
    vertex 0 3000 -2000
  endloop
endfacet
facet normal 0 -1 -0
  outer loop
    vertex -1000 3000 -2000
    vertex -1497.87 3000 -3008.98
    vertex -620.833 3000 -2620.83
  endloop
endfacet
facet normal 0 -1 0
  outer loop
    vertex -666.111 3000 -3299.44
    vertex 0 3000 -3000
    vertex -620.833 3000 -2620.83
  endloop
endfacet
facet normal 0 -1 0
  outer loop
    vertex -666.111 3000 -3299.44
    vertex -620.833 3000 -2620.83
    vertex -1497.87 3000 -3008.98
  endloop
endfacet
facet normal 0 -1 0
  outer loop
    vertex 0 3000 -3000
    vertex 0 3000 -2000
    vertex -620.833 3000 -2620.83
  endloop
endfacet
facet normal 0 -1 -0
  outer loop
    vertex 0 3000 -3000
    vertex -666.111 3000 -3299.44
    vertex 0 3000 -4000
  endloop
endfacet
facet normal 0 -1 0
  outer loop
    vertex -1000 3000 -4000
    vertex -666.111 3000 -3299.44
    vertex -1497.87 3000 -3008.98
  endloop
endfacet
facet normal 0 -1 0
  outer loop
    vertex -1000 3000 -4000
    vertex 0 3000 -4000
    vertex -666.111 3000 -3299.44
  endloop
endfacet
facet normal 0 -1 0
  outer loop
    vertex -3000 3000 -3000
    vertex -2250 3000 -2750
    vertex -3000 3000 -2000
  endloop
endfacet
facet normal 0 -1 0
  outer loop
    vertex -2250 3000 -2750
    vertex -3000 3000 -3000
    vertex -2378.88 3000 -3380.36
  endloop
endfacet
facet normal 0 -1 -0
  outer loop
    vertex -2250 3000 -2750
    vertex -2378.88 3000 -3380.36
    vertex -1497.87 3000 -3008.98
  endloop
endfacet
facet normal 0 -1 0
  outer loop
    vertex -3000 3000 -3000
    vertex -3000 3000 -4000
    vertex -2378.88 3000 -3380.36
  endloop
endfacet
facet normal 0 -1 0
  outer loop
    vertex -1000 3000 -4000
    vertex -1497.87 3000 -3008.98
    vertex -2000 3000 -4000
  endloop
endfacet
facet normal 0 -1 0
  outer loop
    vertex -1497.87 3000 -3008.98
    vertex -2378.88 3000 -3380.36
    vertex -2000 3000 -4000
  endloop
endfacet
facet normal 0 -1 0
  outer loop
    vertex -3000 3000 -4000
    vertex -2000 3000 -4000
    vertex -2378.88 3000 -3380.36
  endloop
endfacet
facet normal 0 -1 -0
  outer loop
    vertex 666.111 3000 -2700.56
    vertex 620.833 3000 -3379.17
    vertex 1497.87 3000 -3022.27
  endloop
endfacet
facet normal 0 -1 0
  outer loop
    vertex 666.111 3000 -2700.56
    vertex 0 3000 -3000
    vertex 620.833 3000 -3379.17
  endloop
endfacet
facet normal 0 -1 0
  outer loop
    vertex 1497.87 3000 -3022.27
    vertex 620.833 3000 -3379.17
    vertex 1000 3000 -4000
  endloop
endfacet
facet normal 0 -1 0
  outer loop
    vertex 0 3000 -3000
    vertex 0 3000 -4000
    vertex 620.833 3000 -3379.17
  endloop
endfacet
facet normal 0 -1 0
  outer loop
    vertex 1000 3000 -4000
    vertex 620.833 3000 -3379.17
    vertex 0 3000 -4000
  endloop
endfacet
facet normal -0 -1 0
  outer loop
    vertex 2000 3000 -2000
    vertex 1000 3000 -2000
    vertex 1497.87 3000 -3022.27
  endloop
endfacet
facet normal 0 -1 -0
  outer loop
    vertex 2000 3000 -2000
    vertex 1497.87 3000 -3022.27
    vertex 2250 3000 -2750
  endloop
endfacet
facet normal 0 -1 0
  outer loop
    vertex 2000 3000 -2000
    vertex 2250 3000 -2750
    vertex 3000 3000 -2000
  endloop
endfacet
facet normal 0 -1 -0
  outer loop
    vertex 1000 3000 -2000
    vertex 666.111 3000 -2700.56
    vertex 1497.87 3000 -3022.27
  endloop
endfacet
facet normal -0 -1 0
  outer loop
    vertex 1000 3000 -2000
    vertex 0 3000 -2000
    vertex 666.111 3000 -2700.56
  endloop
endfacet
facet normal 0 -1 0
  outer loop
    vertex 0 3000 -3000
    vertex 666.111 3000 -2700.56
    vertex 0 3000 -2000
  endloop
endfacet
facet normal 0 -1 -0
  outer loop
    vertex 2250 3000 -2750
    vertex 1497.87 3000 -3022.27
    vertex 2378.88 3000 -3382.14
  endloop
endfacet
facet normal 0 -1 0
  outer loop
    vertex 2250 3000 -2750
    vertex 2378.88 3000 -3382.14
    vertex 3000 3000 -3000
  endloop
endfacet
facet normal 0 -1 0
  outer loop
    vertex 3000 3000 -3000
    vertex 3000 3000 -2000
    vertex 2250 3000 -2750
  endloop
endfacet
facet normal 0 -1 0
  outer loop
    vertex 2000 3000 -4000
    vertex 1497.87 3000 -3022.27
    vertex 1000 3000 -4000
  endloop
endfacet
facet normal 0 -1 0
  outer loop
    vertex 1497.87 3000 -3022.27
    vertex 2000 3000 -4000
    vertex 2378.88 3000 -3382.14
  endloop
endfacet
facet normal 0 -1 -0
  outer loop
    vertex 3000 3000 -3000
    vertex 2378.88 3000 -3382.14
    vertex 3000 3000 -4000
  endloop
endfacet
facet normal 0 -1 0
  outer loop
    vertex 2000 3000 -4000
    vertex 3000 3000 -4000
    vertex 2378.88 3000 -3382.14
  endloop
endfacet
facet normal 0 -1 0
  outer loop
    vertex -2000 3000 0
    vertex -1500 3000 -1031.25
    vertex -1000 3000 0
  endloop
endfacet
facet normal 0 -1 -0
  outer loop
    vertex -2000 3000 0
    vertex -2250 3000 -750
    vertex -1500 3000 -1031.25
  endloop
endfacet
facet normal -0 -1 0
  outer loop
    vertex -2000 3000 0
    vertex -3000 3000 0
    vertex -2250 3000 -750
  endloop
endfacet
facet normal 0 -1 -0
  outer loop
    vertex -1000 3000 0
    vertex -1500 3000 -1031.25
    vertex -750 3000 -750
  endloop
endfacet
facet normal 0 -1 0
  outer loop
    vertex -1000 3000 0
    vertex -750 3000 -750
    vertex 0 3000 0
  endloop
endfacet
facet normal 0 -1 0
  outer loop
    vertex -2000 3000 -2000
    vertex -1500 3000 -1031.25
    vertex -2379.17 3000 -1383.33
  endloop
endfacet
facet normal 0 -1 0
  outer loop
    vertex -2000 3000 -2000
    vertex -1000 3000 -2000
    vertex -1500 3000 -1031.25
  endloop
endfacet
facet normal 0 -1 0
  outer loop
    vertex -2000 3000 -2000
    vertex -2379.17 3000 -1383.33
    vertex -3000 3000 -2000
  endloop
endfacet
facet normal 0 -1 -0
  outer loop
    vertex -750 3000 -750
    vertex -1500 3000 -1031.25
    vertex -620.833 3000 -1383.33
  endloop
endfacet
facet normal 0 -1 0
  outer loop
    vertex -750 3000 -750
    vertex -620.833 3000 -1383.33
    vertex 0 3000 -1000
  endloop
endfacet
facet normal 0 -1 0
  outer loop
    vertex 0 3000 -1000
    vertex 0 3000 0
    vertex -750 3000 -750
  endloop
endfacet
facet normal 0 -1 0
  outer loop
    vertex -1500 3000 -1031.25
    vertex -1000 3000 -2000
    vertex -620.833 3000 -1383.33
  endloop
endfacet
facet normal -0 -1 0
  outer loop
    vertex -1500 3000 -1031.25
    vertex -2250 3000 -750
    vertex -2379.17 3000 -1383.33
  endloop
endfacet
facet normal 0 -1 0
  outer loop
    vertex -1000 3000 -2000
    vertex 0 3000 -2000
    vertex -620.833 3000 -1383.33
  endloop
endfacet
facet normal 0 -1 -0
  outer loop
    vertex 0 3000 -1000
    vertex -620.833 3000 -1383.33
    vertex 0 3000 -2000
  endloop
endfacet
facet normal 0 -1 0
  outer loop
    vertex -2250 3000 -750
    vertex -3000 3000 -1000
    vertex -2379.17 3000 -1383.33
  endloop
endfacet
facet normal 0 -1 0
  outer loop
    vertex -3000 3000 0
    vertex -3000 3000 -1000
    vertex -2250 3000 -750
  endloop
endfacet
facet normal 0 -1 0
  outer loop
    vertex -3000 3000 -2000
    vertex -2379.17 3000 -1383.33
    vertex -3000 3000 -1000
  endloop
endfacet
facet normal 0 -1 0
  outer loop
    vertex 3000 3000 -1000
    vertex 3000 3000 0
    vertex 2250 3000 -750
  endloop
endfacet
facet normal -0 -1 0
  outer loop
    vertex 3000 3000 -1000
    vertex 2250 3000 -750
    vertex 2379.17 3000 -1383.33
  endloop
endfacet
facet normal 0 -1 -0
  outer loop
    vertex 3000 3000 -1000
    vertex 2379.17 3000 -1383.33
    vertex 3000 3000 -2000
  endloop
endfacet
facet normal 0 -1 0
  outer loop
    vertex 2000 3000 -2000
    vertex 1500 3000 -1031.25
    vertex 1000 3000 -2000
  endloop
endfacet
facet normal 0 -1 0
  outer loop
    vertex 2000 3000 -2000
    vertex 2379.17 3000 -1383.33
    vertex 1500 3000 -1031.25
  endloop
endfacet
facet normal 0 -1 0
  outer loop
    vertex 2000 3000 -2000
    vertex 3000 3000 -2000
    vertex 2379.17 3000 -1383.33
  endloop
endfacet
facet normal 0 -1 0
  outer loop
    vertex 1000 3000 -2000
    vertex 1500 3000 -1031.25
    vertex 620.833 3000 -1383.33
  endloop
endfacet
facet normal 0 -1 0
  outer loop
    vertex 1000 3000 -2000
    vertex 620.833 3000 -1383.33
    vertex 0 3000 -2000
  endloop
endfacet
facet normal 0 -1 0
  outer loop
    vertex 0 3000 -1000
    vertex 0 3000 -2000
    vertex 620.833 3000 -1383.33
  endloop
endfacet
facet normal 0 -1 0
  outer loop
    vertex 0 3000 -1000
    vertex 620.833 3000 -1383.33
    vertex 666.111 3000 -705.278
  endloop
endfacet
facet normal 0 -1 0
  outer loop
    vertex 0 3000 -1000
    vertex 666.111 3000 -705.278
    vertex 0 3000 0
  endloop
endfacet
facet normal 0 -1 0
  outer loop
    vertex 1000 3000 0
    vertex 1500 3000 -1031.25
    vertex 2000 3000 0
  endloop
endfacet
facet normal 0 -1 0
  outer loop
    vertex 1500 3000 -1031.25
    vertex 1000 3000 0
    vertex 666.111 3000 -705.278
  endloop
endfacet
facet normal 0 -1 0
  outer loop
    vertex 1500 3000 -1031.25
    vertex 2250 3000 -750
    vertex 2000 3000 0
  endloop
endfacet
facet normal 0 -1 0
  outer loop
    vertex 1500 3000 -1031.25
    vertex 2379.17 3000 -1383.33
    vertex 2250 3000 -750
  endloop
endfacet
facet normal -0 -1 0
  outer loop
    vertex 1500 3000 -1031.25
    vertex 666.111 3000 -705.278
    vertex 620.833 3000 -1383.33
  endloop
endfacet
facet normal -0 -1 0
  outer loop
    vertex 1000 3000 0
    vertex 0 3000 0
    vertex 666.111 3000 -705.278
  endloop
endfacet
facet normal -0 -1 0
  outer loop
    vertex 3000 3000 0
    vertex 2000 3000 0
    vertex 2250 3000 -750
  endloop
endfacet
facet normal 1 -0 0
  outer loop
    vertex -3000 1000 -2000
    vertex -3000 1595.07 -2988.26
    vertex -3000 2000 -2000
  endloop
endfacet
facet normal 1 0 0
  outer loop
    vertex -3000 1000 -2000
    vertex -3000 510.564 -2984.81
    vertex -3000 1595.07 -2988.26
  endloop
endfacet
facet normal 1 0 0
  outer loop
    vertex -3000 1000 -2000
    vertex -3000 -9.14815e-09 -2000
    vertex -3000 510.564 -2984.81
  endloop
endfacet
facet normal 1 -0 0
  outer loop
    vertex -3000 -3000 -3000
    vertex -3000 -2341.88 -3296.22
    vertex -3000 -2379.17 -2620.83
  endloop
endfacet
facet normal 1 0 0
  outer loop
    vertex -3000 -3000 -3000
    vertex -3000 -2379.17 -2620.83
    vertex -3000 -3000 -2000
  endloop
endfacet
facet normal 1 0 0
  outer loop
    vertex -3000 -3000 -3000
    vertex -3000 -3000 -4000
    vertex -3000 -2341.88 -3296.22
  endloop
endfacet
facet normal 1 0 -0
  outer loop
    vertex -3000 -2000 -4000
    vertex -3000 -1559.92 -2975.79
    vertex -3000 -2341.88 -3296.22
  endloop
endfacet
facet normal 1 0 0
  outer loop
    vertex -3000 -2000 -4000
    vertex -3000 -1000 -4000
    vertex -3000 -1559.92 -2975.79
  endloop
endfacet
facet normal 1 0 0
  outer loop
    vertex -3000 -2000 -4000
    vertex -3000 -2341.88 -3296.22
    vertex -3000 -3000 -4000
  endloop
endfacet
facet normal 1 0 0
  outer loop
    vertex -3000 2000 -4000
    vertex -3000 1595.07 -2988.26
    vertex -3000 1000 -4000
  endloop
endfacet
facet normal 1 0 -0
  outer loop
    vertex -3000 2000 -4000
    vertex -3000 2291.67 -3291.67
    vertex -3000 1595.07 -2988.26
  endloop
endfacet
facet normal 1 0 0
  outer loop
    vertex -3000 2000 -4000
    vertex -3000 3000 -4000
    vertex -3000 2291.67 -3291.67
  endloop
endfacet
facet normal 1 0 0
  outer loop
    vertex -3000 1595.07 -2988.26
    vertex -3000 2389.88 -2632.35
    vertex -3000 2000 -2000
  endloop
endfacet
facet normal 1 0 0
  outer loop
    vertex -3000 510.564 -2984.81
    vertex -3000 1000 -4000
    vertex -3000 1595.07 -2988.26
  endloop
endfacet
facet normal 1 -0 0
  outer loop
    vertex -3000 1595.07 -2988.26
    vertex -3000 2291.67 -3291.67
    vertex -3000 2389.88 -2632.35
  endloop
endfacet
facet normal 1 -0 0
  outer loop
    vertex -3000 -1000 -2000
    vertex -3000 -505.484 -2953.96
    vertex -3000 -9.14815e-09 -2000
  endloop
endfacet
facet normal 1 0 0
  outer loop
    vertex -3000 -1000 -2000
    vertex -3000 -2000 -2000
    vertex -3000 -1559.92 -2975.79
  endloop
endfacet
facet normal 1 0 0
  outer loop
    vertex -3000 -1000 -2000
    vertex -3000 -1559.92 -2975.79
    vertex -3000 -505.484 -2953.96
  endloop
endfacet
facet normal 1 0 0
  outer loop
    vertex -3000 -9.14815e-09 -2000
    vertex -3000 -505.484 -2953.96
    vertex -3000 510.564 -2984.81
  endloop
endfacet
facet normal 1 0 0
  outer loop
    vertex -3000 -1559.92 -2975.79
    vertex -3000 -2379.17 -2620.83
    vertex -3000 -2341.88 -3296.22
  endloop
endfacet
facet normal 1 0 0
  outer loop
    vertex -3000 -1559.92 -2975.79
    vertex -3000 -2000 -2000
    vertex -3000 -2379.17 -2620.83
  endloop
endfacet
facet normal 1 0 0
  outer loop
    vertex -3000 -2000 -2000
    vertex -3000 -3000 -2000
    vertex -3000 -2379.17 -2620.83
  endloop
endfacet
facet normal 1 -0 0
  outer loop
    vertex -3000 -1559.92 -2975.79
    vertex -3000 -1000 -4000
    vertex -3000 -505.484 -2953.96
  endloop
endfacet
facet normal 1 -0 0
  outer loop
    vertex -3000 2000 -2000
    vertex -3000 2389.88 -2632.35
    vertex -3000 3000 -2000
  endloop
endfacet
facet normal 1 0 0
  outer loop
    vertex -3000 1000 -4000
    vertex -3000 510.564 -2984.81
    vertex -3000 -9.14815e-09 -4000
  endloop
endfacet
facet normal 1 0 0
  outer loop
    vertex -3000 510.564 -2984.81
    vertex -3000 -505.484 -2953.96
    vertex -3000 -9.14815e-09 -4000
  endloop
endfacet
facet normal 1 0 0
  outer loop
    vertex -3000 -1000 -4000
    vertex -3000 -9.14815e-09 -4000
    vertex -3000 -505.484 -2953.96
  endloop
endfacet
facet normal 1 0 0
  outer loop
    vertex -3000 3000 -3000
    vertex -3000 2389.88 -2632.35
    vertex -3000 2291.67 -3291.67
  endloop
endfacet
facet normal 1 0 0
  outer loop
    vertex -3000 3000 -3000
    vertex -3000 2291.67 -3291.67
    vertex -3000 3000 -4000
  endloop
endfacet
facet normal 1 0 -0
  outer loop
    vertex -3000 3000 -3000
    vertex -3000 3000 -2000
    vertex -3000 2389.88 -2632.35
  endloop
endfacet
facet normal 1 0 -0
  outer loop
    vertex -3000 1000 -2000
    vertex -3000 1595.07 -1011.74
    vertex -3000 510.564 -1015.19
  endloop
endfacet
facet normal 1 0 0
  outer loop
    vertex -3000 1000 -2000
    vertex -3000 2000 -2000
    vertex -3000 1595.07 -1011.74
  endloop
endfacet
facet normal 1 0 0
  outer loop
    vertex -3000 1000 -2000
    vertex -3000 510.564 -1015.19
    vertex -3000 -9.14815e-09 -2000
  endloop
endfacet
facet normal 1 0 0
  outer loop
    vertex -3000 510.564 -1015.19
    vertex -3000 1595.07 -1011.74
    vertex -3000 1000 0
  endloop
endfacet
facet normal 1 0 0
  outer loop
    vertex -3000 1595.07 -1011.74
    vertex -3000 2291.67 -708.333
    vertex -3000 2000 0
  endloop
endfacet
facet normal 1 -0 0
  outer loop
    vertex -3000 1595.07 -1011.74
    vertex -3000 2389.88 -1367.65
    vertex -3000 2291.67 -708.333
  endloop
endfacet
facet normal 1 0 0
  outer loop
    vertex -3000 2000 0
    vertex -3000 1000 0
    vertex -3000 1595.07 -1011.74
  endloop
endfacet
facet normal 1 0 0
  outer loop
    vertex -3000 1595.07 -1011.74
    vertex -3000 2000 -2000
    vertex -3000 2389.88 -1367.65
  endloop
endfacet
facet normal 1 0 0
  outer loop
    vertex -3000 510.564 -1015.19
    vertex -3000 -498.826 -1043.35
    vertex -3000 -9.14815e-09 -2000
  endloop
endfacet
facet normal 1 0 0
  outer loop
    vertex -3000 510.564 -1015.19
    vertex -3000 -9.14815e-09 0
    vertex -3000 -498.826 -1043.35
  endloop
endfacet
facet normal 1 0 0
  outer loop
    vertex -3000 1000 0
    vertex -3000 -9.14815e-09 0
    vertex -3000 510.564 -1015.19
  endloop
endfacet
facet normal 1 -0 0
  outer loop
    vertex -3000 2000 0
    vertex -3000 2291.67 -708.333
    vertex -3000 3000 0
  endloop
endfacet
facet normal 1 0 0
  outer loop
    vertex -3000 3000 0
    vertex -3000 2291.67 -708.333
    vertex -3000 3000 -1000
  endloop
endfacet
facet normal 1 0 0
  outer loop
    vertex -3000 2291.67 -708.333
    vertex -3000 2389.88 -1367.65
    vertex -3000 3000 -1000
  endloop
endfacet
facet normal 1 0 0
  outer loop
    vertex -3000 -1000 -2000
    vertex -3000 -9.14815e-09 -2000
    vertex -3000 -498.826 -1043.35
  endloop
endfacet
facet normal 1 0 -0
  outer loop
    vertex -3000 -1000 -2000
    vertex -3000 -498.826 -1043.35
    vertex -3000 -1565.36 -1021.99
  endloop
endfacet
facet normal 1 0 0
  outer loop
    vertex -3000 -9.14815e-09 0
    vertex -3000 -1000 0
    vertex -3000 -498.826 -1043.35
  endloop
endfacet
facet normal 1 -0 0
  outer loop
    vertex -3000 -1565.36 -1021.99
    vertex -3000 -498.826 -1043.35
    vertex -3000 -1000 0
  endloop
endfacet
facet normal 1 -0 0
  outer loop
    vertex -3000 -3000 -1000
    vertex -3000 -2401.27 -1376.93
    vertex -3000 -2350.38 -711.265
  endloop
endfacet
facet normal 1 0 0
  outer loop
    vertex -3000 -3000 -1000
    vertex -3000 -2350.38 -711.265
    vertex -3000 -3000 0
  endloop
endfacet
facet normal 1 0 0
  outer loop
    vertex -3000 -3000 -1000
    vertex -3000 -3000 -2000
    vertex -3000 -2401.27 -1376.93
  endloop
endfacet
facet normal 1 0 0
  outer loop
    vertex -3000 -1000 -2000
    vertex -3000 -1565.36 -1021.99
    vertex -3000 -2000 -2000
  endloop
endfacet
facet normal 1 0 0
  outer loop
    vertex -3000 -2000 0
    vertex -3000 -2350.38 -711.265
    vertex -3000 -1565.36 -1021.99
  endloop
endfacet
facet normal 1 -0 0
  outer loop
    vertex -3000 -2000 0
    vertex -3000 -1565.36 -1021.99
    vertex -3000 -1000 0
  endloop
endfacet
facet normal 1 0 0
  outer loop
    vertex -3000 -2000 0
    vertex -3000 -3000 0
    vertex -3000 -2350.38 -711.265
  endloop
endfacet
facet normal 1 0 0
  outer loop
    vertex -3000 2000 -2000
    vertex -3000 3000 -2000
    vertex -3000 2389.88 -1367.65
  endloop
endfacet
facet normal 1 0 0
  outer loop
    vertex -3000 -1565.36 -1021.99
    vertex -3000 -2350.38 -711.265
    vertex -3000 -2401.27 -1376.93
  endloop
endfacet
facet normal 1 0 0
  outer loop
    vertex -3000 -1565.36 -1021.99
    vertex -3000 -2401.27 -1376.93
    vertex -3000 -2000 -2000
  endloop
endfacet
facet normal 1 0 0
  outer loop
    vertex -3000 -2000 -2000
    vertex -3000 -2401.27 -1376.93
    vertex -3000 -3000 -2000
  endloop
endfacet
facet normal 1 0 -0
  outer loop
    vertex -3000 3000 -2000
    vertex -3000 3000 -1000
    vertex -3000 2389.88 -1367.65
  endloop
endfacet
facet normal 1 0 0
  outer loop
    vertex 3000 3000 -1000
    vertex 3000 2291.67 -708.333
    vertex 3000 2388.31 -1366.09
  endloop
endfacet
facet normal 1 0 0
  outer loop
    vertex 3000 3000 -1000
    vertex 3000 2388.31 -1366.09
    vertex 3000 3000 -2000
  endloop
endfacet
facet normal 1 0 -0
  outer loop
    vertex 3000 3000 -1000
    vertex 3000 3000 0
    vertex 3000 2291.67 -708.333
  endloop
endfacet
facet normal 1 0 0
  outer loop
    vertex 3000 -3000 0
    vertex 3000 -3000 -1000
    vertex 3000 -2350.4 -709.127
  endloop
endfacet
facet normal 1 -0 0
  outer loop
    vertex 3000 -3000 0
    vertex 3000 -2350.4 -709.127
    vertex 3000 -2000 0
  endloop
endfacet
facet normal 1 -0 0
  outer loop
    vertex 3000 -3000 -1000
    vertex 3000 -2401.28 -1374.51
    vertex 3000 -2350.4 -709.127
  endloop
endfacet
facet normal 1 0 0
  outer loop
    vertex 3000 -3000 -1000
    vertex 3000 -3000 -2000
    vertex 3000 -2401.28 -1374.51
  endloop
endfacet
facet normal 1 0 0
  outer loop
    vertex 3000 -1565.48 -1005.95
    vertex 3000 -2401.28 -1374.51
    vertex 3000 -2000 -2000
  endloop
endfacet
facet normal 1 0 0
  outer loop
    vertex 3000 -2000 -2000
    vertex 3000 -1000 -2000
    vertex 3000 -1565.48 -1005.95
  endloop
endfacet
facet normal 1 0 0
  outer loop
    vertex 3000 -1565.48 -1005.95
    vertex 3000 -2350.4 -709.127
    vertex 3000 -2401.28 -1374.51
  endloop
endfacet
facet normal 1 0 0
  outer loop
    vertex 3000 -1565.48 -1005.95
    vertex 3000 -2000 0
    vertex 3000 -2350.4 -709.127
  endloop
endfacet
facet normal 1 0 0
  outer loop
    vertex 3000 -1565.48 -1005.95
    vertex 3000 -506.133 -957.539
    vertex 3000 -1000 0
  endloop
endfacet
facet normal 1 -0 0
  outer loop
    vertex 3000 -1565.48 -1005.95
    vertex 3000 -1000 -2000
    vertex 3000 -506.133 -957.539
  endloop
endfacet
facet normal 1 0 0
  outer loop
    vertex 3000 -1000 0
    vertex 3000 -2000 0
    vertex 3000 -1565.48 -1005.95
  endloop
endfacet
facet normal 1 0 0
  outer loop
    vertex 3000 2000 -2000
    vertex 3000 1592.54 -1007.09
    vertex 3000 1000 -2000
  endloop
endfacet
facet normal 1 0 -0
  outer loop
    vertex 3000 2000 -2000
    vertex 3000 2388.31 -1366.09
    vertex 3000 1592.54 -1007.09
  endloop
endfacet
facet normal 1 0 0
  outer loop
    vertex 3000 2000 -2000
    vertex 3000 3000 -2000
    vertex 3000 2388.31 -1366.09
  endloop
endfacet
facet normal 1 0 0
  outer loop
    vertex 3000 1000 -2000
    vertex 3000 510.282 -986.899
    vertex 3000 -9.14815e-09 -2000
  endloop
endfacet
facet normal 1 0 -0
  outer loop
    vertex 3000 1000 -2000
    vertex 3000 1592.54 -1007.09
    vertex 3000 510.282 -986.899
  endloop
endfacet
facet normal 1 0 0
  outer loop
    vertex 3000 -2000 -2000
    vertex 3000 -2401.28 -1374.51
    vertex 3000 -3000 -2000
  endloop
endfacet
facet normal 1 0 -0
  outer loop
    vertex 3000 -9.14815e-09 -2000
    vertex 3000 510.282 -986.899
    vertex 3000 -506.133 -957.539
  endloop
endfacet
facet normal 1 0 0
  outer loop
    vertex 3000 -9.14815e-09 -2000
    vertex 3000 -506.133 -957.539
    vertex 3000 -1000 -2000
  endloop
endfacet
facet normal 1 -0 0
  outer loop
    vertex 3000 1592.54 -1007.09
    vertex 3000 2388.31 -1366.09
    vertex 3000 2291.67 -708.333
  endloop
endfacet
facet normal 1 -0 0
  outer loop
    vertex 3000 510.282 -986.899
    vertex 3000 1592.54 -1007.09
    vertex 3000 1000 0
  endloop
endfacet
facet normal 1 0 0
  outer loop
    vertex 3000 1592.54 -1007.09
    vertex 3000 2291.67 -708.333
    vertex 3000 2000 0
  endloop
endfacet
facet normal 1 0 0
  outer loop
    vertex 3000 2000 0
    vertex 3000 1000 0
    vertex 3000 1592.54 -1007.09
  endloop
endfacet
facet normal 1 0 0
  outer loop
    vertex 3000 510.282 -986.899
    vertex 3000 -9.14815e-09 0
    vertex 3000 -506.133 -957.539
  endloop
endfacet
facet normal 1 -0 0
  outer loop
    vertex 3000 -9.14815e-09 0
    vertex 3000 510.282 -986.899
    vertex 3000 1000 0
  endloop
endfacet
facet normal 1 -0 0
  outer loop
    vertex 3000 2000 0
    vertex 3000 2291.67 -708.333
    vertex 3000 3000 0
  endloop
endfacet
facet normal 1 0 0
  outer loop
    vertex 3000 -9.14815e-09 0
    vertex 3000 -1000 0
    vertex 3000 -506.133 -957.539
  endloop
endfacet
facet normal 1 0 0
  outer loop
    vertex 3000 1000 -4000
    vertex 3000 2000 -4000
    vertex 3000 1595.95 -3013.06
  endloop
endfacet
facet normal 1 0 -0
  outer loop
    vertex 3000 1000 -4000
    vertex 3000 1595.95 -3013.06
    vertex 3000 509.259 -3013.89
  endloop
endfacet
facet normal 1 0 0
  outer loop
    vertex 3000 1000 -4000
    vertex 3000 509.259 -3013.89
    vertex 3000 -9.14815e-09 -4000
  endloop
endfacet
facet normal 1 0 0
  outer loop
    vertex 3000 2000 -2000
    vertex 3000 1000 -2000
    vertex 3000 1595.95 -3013.06
  endloop
endfacet
facet normal 1 0 0
  outer loop
    vertex 3000 2000 -2000
    vertex 3000 1595.95 -3013.06
    vertex 3000 2291.67 -2708.33
  endloop
endfacet
facet normal 1 -0 0
  outer loop
    vertex 3000 2000 -2000
    vertex 3000 2291.67 -2708.33
    vertex 3000 3000 -2000
  endloop
endfacet
facet normal 1 0 0
  outer loop
    vertex 3000 1000 -2000
    vertex 3000 -9.14815e-09 -2000
    vertex 3000 509.259 -3013.89
  endloop
endfacet
facet normal 1 0 0
  outer loop
    vertex 3000 1000 -2000
    vertex 3000 509.259 -3013.89
    vertex 3000 1595.95 -3013.06
  endloop
endfacet
facet normal 1 0 0
  outer loop
    vertex 3000 -2000 -2000
    vertex 3000 -2387.9 -2620.04
    vertex 3000 -1565.48 -2994.05
  endloop
endfacet
facet normal 1 -0 0
  outer loop
    vertex 3000 -2000 -2000
    vertex 3000 -1565.48 -2994.05
    vertex 3000 -1000 -2000
  endloop
endfacet
facet normal 1 0 0
  outer loop
    vertex 3000 -2000 -2000
    vertex 3000 -3000 -2000
    vertex 3000 -2387.9 -2620.04
  endloop
endfacet
facet normal 1 0 0
  outer loop
    vertex 3000 -9.14815e-09 -2000
    vertex 3000 -506.246 -3042.55
    vertex 3000 509.259 -3013.89
  endloop
endfacet
facet normal 1 0 0
  outer loop
    vertex 3000 -9.14815e-09 -2000
    vertex 3000 -1000 -2000
    vertex 3000 -506.246 -3042.55
  endloop
endfacet
facet normal 1 0 0
  outer loop
    vertex 3000 -1000 -4000
    vertex 3000 -1565.48 -2994.05
    vertex 3000 -2000 -4000
  endloop
endfacet
facet normal 1 0 -0
  outer loop
    vertex 3000 -1000 -4000
    vertex 3000 -506.246 -3042.55
    vertex 3000 -1565.48 -2994.05
  endloop
endfacet
facet normal 1 0 0
  outer loop
    vertex 3000 -1000 -4000
    vertex 3000 -9.14815e-09 -4000
    vertex 3000 -506.246 -3042.55
  endloop
endfacet
facet normal 1 0 0
  outer loop
    vertex 3000 -3000 -3000
    vertex 3000 -2387.9 -2620.04
    vertex 3000 -3000 -2000
  endloop
endfacet
facet normal 1 -0 0
  outer loop
    vertex 3000 -3000 -3000
    vertex 3000 -2343.78 -3298.54
    vertex 3000 -2387.9 -2620.04
  endloop
endfacet
facet normal 1 0 0
  outer loop
    vertex 3000 -3000 -3000
    vertex 3000 -3000 -4000
    vertex 3000 -2343.78 -3298.54
  endloop
endfacet
facet normal 1 0 0
  outer loop
    vertex 3000 -1565.48 -2994.05
    vertex 3000 -2343.78 -3298.54
    vertex 3000 -2000 -4000
  endloop
endfacet
facet normal 1 0 0
  outer loop
    vertex 3000 -1565.48 -2994.05
    vertex 3000 -2387.9 -2620.04
    vertex 3000 -2343.78 -3298.54
  endloop
endfacet
facet normal 1 -0 0
  outer loop
    vertex 3000 -1565.48 -2994.05
    vertex 3000 -506.246 -3042.55
    vertex 3000 -1000 -2000
  endloop
endfacet
facet normal 1 0 -0
  outer loop
    vertex 3000 3000 -3000
    vertex 3000 3000 -2000
    vertex 3000 2291.67 -2708.33
  endloop
endfacet
facet normal 1 0 0
  outer loop
    vertex 3000 3000 -3000
    vertex 3000 2291.67 -2708.33
    vertex 3000 2389.99 -3367.83
  endloop
endfacet
facet normal 1 0 0
  outer loop
    vertex 3000 3000 -3000
    vertex 3000 2389.99 -3367.83
    vertex 3000 3000 -4000
  endloop
endfacet
facet normal 1 0 0
  outer loop
    vertex 3000 -2000 -4000
    vertex 3000 -2343.78 -3298.54
    vertex 3000 -3000 -4000
  endloop
endfacet
facet normal 1 0 -0
  outer loop
    vertex 3000 2000 -4000
    vertex 3000 2389.99 -3367.83
    vertex 3000 1595.95 -3013.06
  endloop
endfacet
facet normal 1 0 0
  outer loop
    vertex 3000 2000 -4000
    vertex 3000 3000 -4000
    vertex 3000 2389.99 -3367.83
  endloop
endfacet
facet normal 1 0 0
  outer loop
    vertex 3000 509.259 -3013.89
    vertex 3000 -506.246 -3042.55
    vertex 3000 -9.14815e-09 -4000
  endloop
endfacet
facet normal 1 -0 0
  outer loop
    vertex 3000 1595.95 -3013.06
    vertex 3000 2389.99 -3367.83
    vertex 3000 2291.67 -2708.33
  endloop
endfacet
facet normal 0 0 -1
  outer loop
    vertex -3000 -2000 -4000
    vertex -2075.24 -1243.08 -4000
    vertex -2208.82 -2208.82 -4000
  endloop
endfacet
facet normal 0 0 -1
  outer loop
    vertex -3000 -2000 -4000
    vertex -3000 -1000 -4000
    vertex -2075.24 -1243.08 -4000
  endloop
endfacet
facet normal 0 0 -1
  outer loop
    vertex -3000 -2000 -4000
    vertex -2208.82 -2208.82 -4000
    vertex -3000 -3000 -4000
  endloop
endfacet
facet normal 0 0 -1
  outer loop
    vertex -1000 -3000 -4000
    vertex -791.176 -2208.82 -4000
    vertex 0 -3000 -4000
  endloop
endfacet
facet normal 0 0 -1
  outer loop
    vertex -1000 -3000 -4000
    vertex -2000 -3000 -4000
    vertex -1495.4 -2023.41 -4000
  endloop
endfacet
facet normal 0 0 -1
  outer loop
    vertex -1000 -3000 -4000
    vertex -1495.4 -2023.41 -4000
    vertex -791.176 -2208.82 -4000
  endloop
endfacet
facet normal 0 -0 -1
  outer loop
    vertex 0 -9.14815e-09 -4000
    vertex 0 -1000 -4000
    vertex -710.498 -368.506 -4000
  endloop
endfacet
facet normal -0 0 -1
  outer loop
    vertex 0 -9.14815e-09 -4000
    vertex -710.498 -368.506 -4000
    vertex -937.5 500 -4000
  endloop
endfacet
facet normal 0 0 -1
  outer loop
    vertex 0 -9.14815e-09 -4000
    vertex -937.5 500 -4000
    vertex 0 1000 -4000
  endloop
endfacet
facet normal -0 0 -1
  outer loop
    vertex 0 -1000 -4000
    vertex -919.279 -1264.02 -4000
    vertex -710.498 -368.506 -4000
  endloop
endfacet
facet normal 0 -0 -1
  outer loop
    vertex 0 -1000 -4000
    vertex 0 -2000 -4000
    vertex -919.279 -1264.02 -4000
  endloop
endfacet
facet normal -0 0 -1
  outer loop
    vertex 0 2000 -4000
    vertex -680.456 1395.78 -4000
    vertex -811.056 2183.2 -4000
  endloop
endfacet
facet normal 0 -0 -1
  outer loop
    vertex 0 2000 -4000
    vertex 0 1000 -4000
    vertex -680.456 1395.78 -4000
  endloop
endfacet
facet normal 0 0 -1
  outer loop
    vertex 0 2000 -4000
    vertex -811.056 2183.2 -4000
    vertex 0 3000 -4000
  endloop
endfacet
facet normal 0 0 -1
  outer loop
    vertex -3000 2000 -4000
    vertex -2281.25 1343.75 -4000
    vertex -3000 1000 -4000
  endloop
endfacet
facet normal 0 0 -1
  outer loop
    vertex -3000 2000 -4000
    vertex -2183.37 2177.42 -4000
    vertex -2281.25 1343.75 -4000
  endloop
endfacet
facet normal 0 0 -1
  outer loop
    vertex -3000 2000 -4000
    vertex -3000 3000 -4000
    vertex -2183.37 2177.42 -4000
  endloop
endfacet
facet normal 0 0 -1
  outer loop
    vertex -1494.05 1483.96 -4000
    vertex -1500 2394.05 -4000
    vertex -811.056 2183.2 -4000
  endloop
endfacet
facet normal 0 0 -1
  outer loop
    vertex -1494.05 1483.96 -4000
    vertex -2183.37 2177.42 -4000
    vertex -1500 2394.05 -4000
  endloop
endfacet
facet normal 0 0 -1
  outer loop
    vertex -811.056 2183.2 -4000
    vertex -1500 2394.05 -4000
    vertex -1000 3000 -4000
  endloop
endfacet
facet normal -0 0 -1
  outer loop
    vertex -1000 3000 -4000
    vertex -1500 2394.05 -4000
    vertex -2000 3000 -4000
  endloop
endfacet
facet normal 0 0 -1
  outer loop
    vertex -2183.37 2177.42 -4000
    vertex -2000 3000 -4000
    vertex -1500 2394.05 -4000
  endloop
endfacet
facet normal 0 0 -1
  outer loop
    vertex -2075.24 -1243.08 -4000
    vertex -2289.5 -368.506 -4000
    vertex -1488.45 -403.344 -4000
  endloop
endfacet
facet normal 0 0 -1
  outer loop
    vertex -2075.24 -1243.08 -4000
    vertex -3000 -1000 -4000
    vertex -2289.5 -368.506 -4000
  endloop
endfacet
facet normal 0 0 -1
  outer loop
    vertex -1488.45 -403.344 -4000
    vertex -2289.5 -368.506 -4000
    vertex -2046.74 505.32 -4000
  endloop
endfacet
facet normal 0 0 -1
  outer loop
    vertex -2046.74 505.32 -4000
    vertex -2289.5 -368.506 -4000
    vertex -3000 -9.14815e-09 -4000
  endloop
endfacet
facet normal 0 0 -1
  outer loop
    vertex -3000 -1000 -4000
    vertex -3000 -9.14815e-09 -4000
    vertex -2289.5 -368.506 -4000
  endloop
endfacet
facet normal 0 0 -1
  outer loop
    vertex -1494.05 1483.96 -4000
    vertex -811.056 2183.2 -4000
    vertex -680.456 1395.78 -4000
  endloop
endfacet
facet normal 0 0 -1
  outer loop
    vertex -1494.05 1483.96 -4000
    vertex -680.456 1395.78 -4000
    vertex -937.5 500 -4000
  endloop
endfacet
facet normal 0 -0 -1
  outer loop
    vertex -1494.05 1483.96 -4000
    vertex -937.5 500 -4000
    vertex -2046.74 505.32 -4000
  endloop
endfacet
facet normal 0 0 -1
  outer loop
    vertex -1494.05 1483.96 -4000
    vertex -2046.74 505.32 -4000
    vertex -2281.25 1343.75 -4000
  endloop
endfacet
facet normal -0 0 -1
  outer loop
    vertex -1494.05 1483.96 -4000
    vertex -2281.25 1343.75 -4000
    vertex -2183.37 2177.42 -4000
  endloop
endfacet
facet normal 0 -0 -1
  outer loop
    vertex -2075.24 -1243.08 -4000
    vertex -1495.4 -2023.41 -4000
    vertex -2208.82 -2208.82 -4000
  endloop
endfacet
facet normal 0 0 -1
  outer loop
    vertex -1495.4 -2023.41 -4000
    vertex -2075.24 -1243.08 -4000
    vertex -919.279 -1264.02 -4000
  endloop
endfacet
facet normal 0 -0 -1
  outer loop
    vertex -1488.45 -403.344 -4000
    vertex -919.279 -1264.02 -4000
    vertex -2075.24 -1243.08 -4000
  endloop
endfacet
facet normal 0 0 -1
  outer loop
    vertex 0 -3000 -4000
    vertex -791.176 -2208.82 -4000
    vertex 0 -2000 -4000
  endloop
endfacet
facet normal 0 0 -1
  outer loop
    vertex -937.5 500 -4000
    vertex -680.456 1395.78 -4000
    vertex 0 1000 -4000
  endloop
endfacet
facet normal 0 0 -1
  outer loop
    vertex -1495.4 -2023.41 -4000
    vertex -2000 -3000 -4000
    vertex -2208.82 -2208.82 -4000
  endloop
endfacet
facet normal 0 0 -1
  outer loop
    vertex -1495.4 -2023.41 -4000
    vertex -919.279 -1264.02 -4000
    vertex -791.176 -2208.82 -4000
  endloop
endfacet
facet normal 0 0 -1
  outer loop
    vertex -1000 3000 -4000
    vertex 0 3000 -4000
    vertex -811.056 2183.2 -4000
  endloop
endfacet
facet normal 0 0 -1
  outer loop
    vertex -1488.45 -403.344 -4000
    vertex -937.5 500 -4000
    vertex -710.498 -368.506 -4000
  endloop
endfacet
facet normal 0 0 -1
  outer loop
    vertex -1488.45 -403.344 -4000
    vertex -2046.74 505.32 -4000
    vertex -937.5 500 -4000
  endloop
endfacet
facet normal 0 0 -1
  outer loop
    vertex -1488.45 -403.344 -4000
    vertex -710.498 -368.506 -4000
    vertex -919.279 -1264.02 -4000
  endloop
endfacet
facet normal 0 0 -1
  outer loop
    vertex -2046.74 505.32 -4000
    vertex -3000 1000 -4000
    vertex -2281.25 1343.75 -4000
  endloop
endfacet
facet normal 0 0 -1
  outer loop
    vertex -2000 -3000 -4000
    vertex -3000 -3000 -4000
    vertex -2208.82 -2208.82 -4000
  endloop
endfacet
facet normal 0 0 -1
  outer loop
    vertex -3000 1000 -4000
    vertex -2046.74 505.32 -4000
    vertex -3000 -9.14815e-09 -4000
  endloop
endfacet
facet normal -0 0 -1
  outer loop
    vertex 0 -2000 -4000
    vertex -791.176 -2208.82 -4000
    vertex -919.279 -1264.02 -4000
  endloop
endfacet
facet normal 0 0 -1
  outer loop
    vertex -3000 3000 -4000
    vertex -2000 3000 -4000
    vertex -2183.37 2177.42 -4000
  endloop
endfacet
facet normal -0 0 -1
  outer loop
    vertex 3000 1000 -4000
    vertex 2000 500 -4000
    vertex 2281.25 1343.75 -4000
  endloop
endfacet
facet normal 0 -0 -1
  outer loop
    vertex 3000 1000 -4000
    vertex 3000 -9.14815e-09 -4000
    vertex 2000 500 -4000
  endloop
endfacet
facet normal 0 0 -1
  outer loop
    vertex 3000 1000 -4000
    vertex 2281.25 1343.75 -4000
    vertex 3000 2000 -4000
  endloop
endfacet
facet normal 0 0 -1
  outer loop
    vertex 1000 -3000 -4000
    vertex 1500 -2013.07 -4000
    vertex 2000 -3000 -4000
  endloop
endfacet
facet normal 0 0 -1
  outer loop
    vertex 1000 -3000 -4000
    vertex 791.176 -2208.82 -4000
    vertex 1500 -2013.07 -4000
  endloop
endfacet
facet normal 0 0 -1
  outer loop
    vertex 1000 -3000 -4000
    vertex 0 -3000 -4000
    vertex 791.176 -2208.82 -4000
  endloop
endfacet
facet normal 0 0 -1
  outer loop
    vertex 2000 -3000 -4000
    vertex 1500 -2013.07 -4000
    vertex 2208.82 -2208.82 -4000
  endloop
endfacet
facet normal 0 0 -1
  outer loop
    vertex 2000 -3000 -4000
    vertex 2208.82 -2208.82 -4000
    vertex 3000 -3000 -4000
  endloop
endfacet
facet normal 0 0 -1
  outer loop
    vertex 0 -9.14815e-09 -4000
    vertex 681.805 -409.259 -4000
    vertex 0 -1000 -4000
  endloop
endfacet
facet normal 0 0 -1
  outer loop
    vertex 0 -9.14815e-09 -4000
    vertex 924.148 507.833 -4000
    vertex 681.805 -409.259 -4000
  endloop
endfacet
facet normal 0 0 -1
  outer loop
    vertex 0 -9.14815e-09 -4000
    vertex 0 1000 -4000
    vertex 924.148 507.833 -4000
  endloop
endfacet
facet normal 0 0 -1
  outer loop
    vertex 0 -1000 -4000
    vertex 681.805 -409.259 -4000
    vertex 920.093 -1263.01 -4000
  endloop
endfacet
facet normal 0 0 -1
  outer loop
    vertex 0 -1000 -4000
    vertex 920.093 -1263.01 -4000
    vertex 0 -2000 -4000
  endloop
endfacet
facet normal 0 0 -1
  outer loop
    vertex 0 2000 -4000
    vertex 875 2125 -4000
    vertex 679.47 1398.96 -4000
  endloop
endfacet
facet normal 0 0 -1
  outer loop
    vertex 0 2000 -4000
    vertex 0 3000 -4000
    vertex 875 2125 -4000
  endloop
endfacet
facet normal 0 0 -1
  outer loop
    vertex 0 2000 -4000
    vertex 679.47 1398.96 -4000
    vertex 0 1000 -4000
  endloop
endfacet
facet normal 0 -0 -1
  outer loop
    vertex 1493.06 -393.001 -4000
    vertex 2074.58 -1253.18 -4000
    vertex 920.093 -1263.01 -4000
  endloop
endfacet
facet normal 0 0 -1
  outer loop
    vertex 1493.06 -393.001 -4000
    vertex 2289.5 -368.506 -4000
    vertex 2074.58 -1253.18 -4000
  endloop
endfacet
facet normal 0 0 -1
  outer loop
    vertex 1493.06 -393.001 -4000
    vertex 920.093 -1263.01 -4000
    vertex 681.805 -409.259 -4000
  endloop
endfacet
facet normal 0 0 -1
  outer loop
    vertex 1493.06 -393.001 -4000
    vertex 924.148 507.833 -4000
    vertex 2000 500 -4000
  endloop
endfacet
facet normal -0 0 -1
  outer loop
    vertex 1493.06 -393.001 -4000
    vertex 681.805 -409.259 -4000
    vertex 924.148 507.833 -4000
  endloop
endfacet
facet normal 0 0 -1
  outer loop
    vertex 1493.06 -393.001 -4000
    vertex 2000 500 -4000
    vertex 2289.5 -368.506 -4000
  endloop
endfacet
facet normal 0 0 -1
  outer loop
    vertex 1500 1500 -4000
    vertex 1500 2394.05 -4000
    vertex 2125 2125 -4000
  endloop
endfacet
facet normal 0 0 -1
  outer loop
    vertex 1500 1500 -4000
    vertex 2125 2125 -4000
    vertex 2281.25 1343.75 -4000
  endloop
endfacet
facet normal 0 -0 -1
  outer loop
    vertex 1500 1500 -4000
    vertex 2000 500 -4000
    vertex 924.148 507.833 -4000
  endloop
endfacet
facet normal 0 0 -1
  outer loop
    vertex 1500 1500 -4000
    vertex 924.148 507.833 -4000
    vertex 679.47 1398.96 -4000
  endloop
endfacet
facet normal 0 0 -1
  outer loop
    vertex 1500 1500 -4000
    vertex 2281.25 1343.75 -4000
    vertex 2000 500 -4000
  endloop
endfacet
facet normal -0 0 -1
  outer loop
    vertex 1500 1500 -4000
    vertex 679.47 1398.96 -4000
    vertex 875 2125 -4000
  endloop
endfacet
facet normal 0 0 -1
  outer loop
    vertex 1500 1500 -4000
    vertex 875 2125 -4000
    vertex 1500 2394.05 -4000
  endloop
endfacet
facet normal -0 0 -1
  outer loop
    vertex 1500 -2013.07 -4000
    vertex 791.176 -2208.82 -4000
    vertex 920.093 -1263.01 -4000
  endloop
endfacet
facet normal 0 0 -1
  outer loop
    vertex 920.093 -1263.01 -4000
    vertex 791.176 -2208.82 -4000
    vertex 0 -2000 -4000
  endloop
endfacet
facet normal 0 0 -1
  outer loop
    vertex 0 -3000 -4000
    vertex 0 -2000 -4000
    vertex 791.176 -2208.82 -4000
  endloop
endfacet
facet normal 0 0 -1
  outer loop
    vertex 2125 2125 -4000
    vertex 1500 2394.05 -4000
    vertex 2000 3000 -4000
  endloop
endfacet
facet normal 0 0 -1
  outer loop
    vertex 2125 2125 -4000
    vertex 3000 2000 -4000
    vertex 2281.25 1343.75 -4000
  endloop
endfacet
facet normal 0 0 -1
  outer loop
    vertex 3000 2000 -4000
    vertex 2125 2125 -4000
    vertex 3000 3000 -4000
  endloop
endfacet
facet normal 0 0 -1
  outer loop
    vertex 2000 3000 -4000
    vertex 3000 3000 -4000
    vertex 2125 2125 -4000
  endloop
endfacet
facet normal 0 0 -1
  outer loop
    vertex 1500 -2013.07 -4000
    vertex 2074.58 -1253.18 -4000
    vertex 2208.82 -2208.82 -4000
  endloop
endfacet
facet normal 0 0 -1
  outer loop
    vertex 1500 -2013.07 -4000
    vertex 920.093 -1263.01 -4000
    vertex 2074.58 -1253.18 -4000
  endloop
endfacet
facet normal 0 0 -1
  outer loop
    vertex 2074.58 -1253.18 -4000
    vertex 3000 -2000 -4000
    vertex 2208.82 -2208.82 -4000
  endloop
endfacet
facet normal 0 -0 -1
  outer loop
    vertex 3000 -2000 -4000
    vertex 3000 -3000 -4000
    vertex 2208.82 -2208.82 -4000
  endloop
endfacet
facet normal 0 0 -1
  outer loop
    vertex 2074.58 -1253.18 -4000
    vertex 2289.5 -368.506 -4000
    vertex 3000 -1000 -4000
  endloop
endfacet
facet normal 0 -0 -1
  outer loop
    vertex 3000 -1000 -4000
    vertex 3000 -2000 -4000
    vertex 2074.58 -1253.18 -4000
  endloop
endfacet
facet normal 0 0 -1
  outer loop
    vertex 924.148 507.833 -4000
    vertex 0 1000 -4000
    vertex 679.47 1398.96 -4000
  endloop
endfacet
facet normal 0 0 -1
  outer loop
    vertex 2000 500 -4000
    vertex 3000 -9.14815e-09 -4000
    vertex 2289.5 -368.506 -4000
  endloop
endfacet
facet normal 0 0 -1
  outer loop
    vertex 875 2125 -4000
    vertex 1000 3000 -4000
    vertex 1500 2394.05 -4000
  endloop
endfacet
facet normal -0 0 -1
  outer loop
    vertex 1000 3000 -4000
    vertex 875 2125 -4000
    vertex 0 3000 -4000
  endloop
endfacet
facet normal -0 0 -1
  outer loop
    vertex 2000 3000 -4000
    vertex 1500 2394.05 -4000
    vertex 1000 3000 -4000
  endloop
endfacet
facet normal 0 0 -1
  outer loop
    vertex 3000 -1000 -4000
    vertex 2289.5 -368.506 -4000
    vertex 3000 -9.14815e-09 -4000
  endloop
endfacet
facet normal 0 -0 1
  outer loop
    vertex 3000 -3000 0
    vertex 3000 -2000 0
    vertex 2208.82 -2208.82 0
  endloop
endfacet
facet normal 0 0 1
  outer loop
    vertex 3000 -3000 0
    vertex 2208.82 -2208.82 0
    vertex 2000 -3000 0
  endloop
endfacet
facet normal 0 0 1
  outer loop
    vertex 0 -2000 0
    vertex 921.04 -1265.18 0
    vertex 0 -1000 0
  endloop
endfacet
facet normal -0 0 1
  outer loop
    vertex 0 -2000 0
    vertex 791.176 -2208.82 0
    vertex 921.04 -1265.18 0
  endloop
endfacet
facet normal 0 0 1
  outer loop
    vertex 0 -2000 0
    vertex 0 -3000 0
    vertex 791.176 -2208.82 0
  endloop
endfacet
facet normal 0 0 1
  outer loop
    vertex 0 2000 0
    vertex 0 1000 0
    vertex 676.246 1403.45 0
  endloop
endfacet
facet normal -0 0 1
  outer loop
    vertex 0 2000 0
    vertex 676.246 1403.45 0
    vertex 816.634 2177.42 0
  endloop
endfacet
facet normal 0 0 1
  outer loop
    vertex 0 2000 0
    vertex 816.634 2177.42 0
    vertex 0 3000 0
  endloop
endfacet
facet normal 0 0 1
  outer loop
    vertex 0 1000 0
    vertex 0 -9.14815e-09 0
    vertex 952.385 505.105 0
  endloop
endfacet
facet normal -0 0 1
  outer loop
    vertex 0 1000 0
    vertex 952.385 505.105 0
    vertex 676.246 1403.45 0
  endloop
endfacet
facet normal 0 0 1
  outer loop
    vertex 0 -1000 0
    vertex 710.498 -368.506 0
    vertex 0 -9.14815e-09 0
  endloop
endfacet
facet normal -0 0 1
  outer loop
    vertex 0 -1000 0
    vertex 921.04 -1265.18 0
    vertex 710.498 -368.506 0
  endloop
endfacet
facet normal -0 0 1
  outer loop
    vertex 0 -9.14815e-09 0
    vertex 710.498 -368.506 0
    vertex 952.385 505.105 0
  endloop
endfacet
facet normal -0 0 1
  outer loop
    vertex 1500 -2013.07 0
    vertex 2208.82 -2208.82 0
    vertex 2075.24 -1263.37 0
  endloop
endfacet
facet normal 0 -0 1
  outer loop
    vertex 1500 -2013.07 0
    vertex 2075.24 -1263.37 0
    vertex 921.04 -1265.18 0
  endloop
endfacet
facet normal 0 0 1
  outer loop
    vertex 1500 -2013.07 0
    vertex 2000 -3000 0
    vertex 2208.82 -2208.82 0
  endloop
endfacet
facet normal 0 0 1
  outer loop
    vertex 1500 -2013.07 0
    vertex 921.04 -1265.18 0
    vertex 791.176 -2208.82 0
  endloop
endfacet
facet normal 0 0 1
  outer loop
    vertex 1500 -2013.07 0
    vertex 791.176 -2208.82 0
    vertex 1000 -3000 0
  endloop
endfacet
facet normal 0 0 1
  outer loop
    vertex 1000 -3000 0
    vertex 2000 -3000 0
    vertex 1500 -2013.07 0
  endloop
endfacet
facet normal 0 -0 1
  outer loop
    vertex 2075.24 -1263.37 0
    vertex 2315.18 -412.031 0
    vertex 1502.34 -405.598 0
  endloop
endfacet
facet normal 0 0 1
  outer loop
    vertex 2075.24 -1263.37 0
    vertex 1502.34 -405.598 0
    vertex 921.04 -1265.18 0
  endloop
endfacet
facet normal 0 0 1
  outer loop
    vertex 2075.24 -1263.37 0
    vertex 3000 -1000 0
    vertex 2315.18 -412.031 0
  endloop
endfacet
facet normal 0 0 1
  outer loop
    vertex 2075.24 -1263.37 0
    vertex 2208.82 -2208.82 0
    vertex 3000 -2000 0
  endloop
endfacet
facet normal 0 0 1
  outer loop
    vertex 3000 -1000 0
    vertex 2075.24 -1263.37 0
    vertex 3000 -2000 0
  endloop
endfacet
facet normal -0 0 1
  outer loop
    vertex 1502.34 -405.598 0
    vertex 2315.18 -412.031 0
    vertex 2062.5 500 0
  endloop
endfacet
facet normal 0 0 1
  outer loop
    vertex 1502.34 -405.598 0
    vertex 710.498 -368.506 0
    vertex 921.04 -1265.18 0
  endloop
endfacet
facet normal 0 -0 1
  outer loop
    vertex 1502.34 -405.598 0
    vertex 2062.5 500 0
    vertex 952.385 505.105 0
  endloop
endfacet
facet normal 0 0 1
  outer loop
    vertex 1502.34 -405.598 0
    vertex 952.385 505.105 0
    vertex 710.498 -368.506 0
  endloop
endfacet
facet normal 0 0 1
  outer loop
    vertex 2062.5 500 0
    vertex 2315.18 -412.031 0
    vertex 3000 -9.14815e-09 0
  endloop
endfacet
facet normal 0 0 1
  outer loop
    vertex 3000 -9.14815e-09 0
    vertex 2315.18 -412.031 0
    vertex 3000 -1000 0
  endloop
endfacet
facet normal 0 0 1
  outer loop
    vertex 2125 2125 0
    vertex 1500 2394.05 0
    vertex 1505.95 1483.96 0
  endloop
endfacet
facet normal 0 0 1
  outer loop
    vertex 2125 2125 0
    vertex 2000 3000 0
    vertex 1500 2394.05 0
  endloop
endfacet
facet normal 0 0 1
  outer loop
    vertex 2125 2125 0
    vertex 1505.95 1483.96 0
    vertex 2319.54 1395.78 0
  endloop
endfacet
facet normal 0 0 1
  outer loop
    vertex 2125 2125 0
    vertex 2319.54 1395.78 0
    vertex 3000 2000 0
  endloop
endfacet
facet normal 0 -0 1
  outer loop
    vertex 3000 2000 0
    vertex 3000 3000 0
    vertex 2125 2125 0
  endloop
endfacet
facet normal 0 0 1
  outer loop
    vertex 3000 3000 0
    vertex 2000 3000 0
    vertex 2125 2125 0
  endloop
endfacet
facet normal 0 0 1
  outer loop
    vertex 1505.95 1483.96 0
    vertex 1500 2394.05 0
    vertex 816.634 2177.42 0
  endloop
endfacet
facet normal 0 0 1
  outer loop
    vertex 816.634 2177.42 0
    vertex 1500 2394.05 0
    vertex 1000 3000 0
  endloop
endfacet
facet normal -0 0 1
  outer loop
    vertex 1000 3000 0
    vertex 1500 2394.05 0
    vertex 2000 3000 0
  endloop
endfacet
facet normal 0 0 1
  outer loop
    vertex 1000 -3000 0
    vertex 791.176 -2208.82 0
    vertex 0 -3000 0
  endloop
endfacet
facet normal 0 0 1
  outer loop
    vertex 1505.95 1483.96 0
    vertex 952.385 505.105 0
    vertex 2062.5 500 0
  endloop
endfacet
facet normal 0 0 1
  outer loop
    vertex 1505.95 1483.96 0
    vertex 2062.5 500 0
    vertex 2319.54 1395.78 0
  endloop
endfacet
facet normal 0 0 1
  outer loop
    vertex 1505.95 1483.96 0
    vertex 676.246 1403.45 0
    vertex 952.385 505.105 0
  endloop
endfacet
facet normal 0 0 1
  outer loop
    vertex 1505.95 1483.96 0
    vertex 816.634 2177.42 0
    vertex 676.246 1403.45 0
  endloop
endfacet
facet normal 0 0 1
  outer loop
    vertex 2062.5 500 0
    vertex 3000 1000 0
    vertex 2319.54 1395.78 0
  endloop
endfacet
facet normal 0 -0 1
  outer loop
    vertex 3000 -9.14815e-09 0
    vertex 3000 1000 0
    vertex 2062.5 500 0
  endloop
endfacet
facet normal 0 0 1
  outer loop
    vertex 1000 3000 0
    vertex 0 3000 0
    vertex 816.634 2177.42 0
  endloop
endfacet
facet normal 0 0 1
  outer loop
    vertex 3000 2000 0
    vertex 2319.54 1395.78 0
    vertex 3000 1000 0
  endloop
endfacet
facet normal 0 -0 1
  outer loop
    vertex 0 -2000 0
    vertex 0 -1000 0
    vertex -919.717 -1265.18 0
  endloop
endfacet
facet normal 0 0 1
  outer loop
    vertex 0 -2000 0
    vertex -919.717 -1265.18 0
    vertex -791.176 -2208.82 0
  endloop
endfacet
facet normal 0 0 1
  outer loop
    vertex 0 -2000 0
    vertex -791.176 -2208.82 0
    vertex 0 -3000 0
  endloop
endfacet
facet normal -0 0 1
  outer loop
    vertex -2000 3000 0
    vertex -1500 2394.05 0
    vertex -1000 3000 0
  endloop
endfacet
facet normal 0 0 1
  outer loop
    vertex -2000 3000 0
    vertex -2183.37 2177.42 0
    vertex -1500 2394.05 0
  endloop
endfacet
facet normal 0 0 1
  outer loop
    vertex -2000 3000 0
    vertex -3000 3000 0
    vertex -2183.37 2177.42 0
  endloop
endfacet
facet normal 0 0 1
  outer loop
    vertex -1000 3000 0
    vertex -1500 2394.05 0
    vertex -811.056 2183.2 0
  endloop
endfacet
facet normal -0 0 1
  outer loop
    vertex -1000 3000 0
    vertex -811.056 2183.2 0
    vertex 0 3000 0
  endloop
endfacet
facet normal 0 0 1
  outer loop
    vertex 0 2000 0
    vertex -680.456 1395.78 0
    vertex 0 1000 0
  endloop
endfacet
facet normal 0 0 1
  outer loop
    vertex 0 2000 0
    vertex -811.056 2183.2 0
    vertex -680.456 1395.78 0
  endloop
endfacet
facet normal 0 -0 1
  outer loop
    vertex 0 2000 0
    vertex 0 3000 0
    vertex -811.056 2183.2 0
  endloop
endfacet
facet normal 0 0 1
  outer loop
    vertex 0 1000 0
    vertex -937.5 500 0
    vertex 0 -9.14815e-09 0
  endloop
endfacet
facet normal 0 0 1
  outer loop
    vertex 0 1000 0
    vertex -680.456 1395.78 0
    vertex -937.5 500 0
  endloop
endfacet
facet normal 0 -0 1
  outer loop
    vertex 0 -1000 0
    vertex 0 -9.14815e-09 0
    vertex -682.922 -412.272 0
  endloop
endfacet
facet normal 0 0 1
  outer loop
    vertex 0 -1000 0
    vertex -682.922 -412.272 0
    vertex -919.717 -1265.18 0
  endloop
endfacet
facet normal 0 0 1
  outer loop
    vertex 0 -9.14815e-09 0
    vertex -937.5 500 0
    vertex -682.922 -412.272 0
  endloop
endfacet
facet normal 0 0 1
  outer loop
    vertex -2000 500 0
    vertex -937.5 500 0
    vertex -1494.05 1483.96 0
  endloop
endfacet
facet normal 0 -0 1
  outer loop
    vertex -2000 500 0
    vertex -1494.05 1483.96 0
    vertex -2281.25 1343.75 0
  endloop
endfacet
facet normal -0 0 1
  outer loop
    vertex -2000 500 0
    vertex -1488.45 -405.598 0
    vertex -937.5 500 0
  endloop
endfacet
facet normal 0 0 1
  outer loop
    vertex -2000 500 0
    vertex -2289.5 -368.506 0
    vertex -1488.45 -405.598 0
  endloop
endfacet
facet normal 0 0 1
  outer loop
    vertex -2000 500 0
    vertex -3000 -9.14815e-09 0
    vertex -2289.5 -368.506 0
  endloop
endfacet
facet normal 0 0 1
  outer loop
    vertex -2000 500 0
    vertex -2281.25 1343.75 0
    vertex -3000 1000 0
  endloop
endfacet
facet normal 0 0 1
  outer loop
    vertex -3000 1000 0
    vertex -3000 -9.14815e-09 0
    vertex -2000 500 0
  endloop
endfacet
facet normal 0 -0 1
  outer loop
    vertex -1494.05 1483.96 0
    vertex -811.056 2183.2 0
    vertex -1500 2394.05 0
  endloop
endfacet
facet normal 0 0 1
  outer loop
    vertex -1494.05 1483.96 0
    vertex -1500 2394.05 0
    vertex -2183.37 2177.42 0
  endloop
endfacet
facet normal -0 0 1
  outer loop
    vertex -1500 -2013.07 0
    vertex -791.176 -2208.82 0
    vertex -919.717 -1265.18 0
  endloop
endfacet
facet normal 0 0 1
  outer loop
    vertex -1500 -2013.07 0
    vertex -1000 -3000 0
    vertex -791.176 -2208.82 0
  endloop
endfacet
facet normal 0 0 1
  outer loop
    vertex -1500 -2013.07 0
    vertex -2075.24 -1263.37 0
    vertex -2208.82 -2208.82 0
  endloop
endfacet
facet normal 0 -0 1
  outer loop
    vertex -1500 -2013.07 0
    vertex -919.717 -1265.18 0
    vertex -2075.24 -1263.37 0
  endloop
endfacet
facet normal 0 0 1
  outer loop
    vertex -1500 -2013.07 0
    vertex -2208.82 -2208.82 0
    vertex -2000 -3000 0
  endloop
endfacet
facet normal 0 0 1
  outer loop
    vertex -2000 -3000 0
    vertex -1000 -3000 0
    vertex -1500 -2013.07 0
  endloop
endfacet
facet normal 0 0 1
  outer loop
    vertex -1494.05 1483.96 0
    vertex -937.5 500 0
    vertex -680.456 1395.78 0
  endloop
endfacet
facet normal 0 0 1
  outer loop
    vertex -1494.05 1483.96 0
    vertex -2183.37 2177.42 0
    vertex -2281.25 1343.75 0
  endloop
endfacet
facet normal -0 0 1
  outer loop
    vertex -1494.05 1483.96 0
    vertex -680.456 1395.78 0
    vertex -811.056 2183.2 0
  endloop
endfacet
facet normal 0 0 1
  outer loop
    vertex 0 -3000 0
    vertex -791.176 -2208.82 0
    vertex -1000 -3000 0
  endloop
endfacet
facet normal 0 0 1
  outer loop
    vertex -2075.24 -1263.37 0
    vertex -3000 -2000 0
    vertex -2208.82 -2208.82 0
  endloop
endfacet
facet normal 0 0 1
  outer loop
    vertex -1488.45 -405.598 0
    vertex -2075.24 -1263.37 0
    vertex -919.717 -1265.18 0
  endloop
endfacet
facet normal 0 -0 1
  outer loop
    vertex -2075.24 -1263.37 0
    vertex -1488.45 -405.598 0
    vertex -2289.5 -368.506 0
  endloop
endfacet
facet normal 0 0 1
  outer loop
    vertex -2075.24 -1263.37 0
    vertex -2289.5 -368.506 0
    vertex -3000 -1000 0
  endloop
endfacet
facet normal 0 0 1
  outer loop
    vertex -3000 -2000 0
    vertex -2075.24 -1263.37 0
    vertex -3000 -1000 0
  endloop
endfacet
facet normal 0 0 1
  outer loop
    vertex -2000 -3000 0
    vertex -2208.82 -2208.82 0
    vertex -3000 -3000 0
  endloop
endfacet
facet normal 0 0 1
  outer loop
    vertex -3000 -2000 0
    vertex -3000 -3000 0
    vertex -2208.82 -2208.82 0
  endloop
endfacet
facet normal -0 0 1
  outer loop
    vertex -1488.45 -405.598 0
    vertex -682.922 -412.272 0
    vertex -937.5 500 0
  endloop
endfacet
facet normal 0 0 1
  outer loop
    vertex -1488.45 -405.598 0
    vertex -919.717 -1265.18 0
    vertex -682.922 -412.272 0
  endloop
endfacet
facet normal 0 0 1
  outer loop
    vertex -3000 -9.14815e-09 0
    vertex -3000 -1000 0
    vertex -2289.5 -368.506 0
  endloop
endfacet
facet normal 0 0 1
  outer loop
    vertex -2183.37 2177.42 0
    vertex -3000 2000 0
    vertex -2281.25 1343.75 0
  endloop
endfacet
facet normal 0 0 1
  outer loop
    vertex -3000 2000 0
    vertex -3000 1000 0
    vertex -2281.25 1343.75 0
  endloop
endfacet
facet normal 0 0 1
  outer loop
    vertex -3000 2000 0
    vertex -2183.37 2177.42 0
    vertex -3000 3000 0
  endloop
endfacet
facet normal 1 -0 0
  outer loop
    vertex 0 -2000 0
    vertex 0 -1565.48 -1005.95
    vertex 0 -1000 0
  endloop
endfacet
facet normal 1 0 0
  outer loop
    vertex 0 -2000 0
    vertex 0 -2350.4 -709.127
    vertex 0 -1565.48 -1005.95
  endloop
endfacet
facet normal 1 0 0
  outer loop
    vertex 0 -2000 0
    vertex 0 -3000 0
    vertex 0 -2350.4 -709.127
  endloop
endfacet
facet normal 1 0 0
  outer loop
    vertex 0 -3000 -1000
    vertex 0 -3000 -2000
    vertex 0 -2401.28 -1374.51
  endloop
endfacet
facet normal 1 -0 0
  outer loop
    vertex 0 -3000 -1000
    vertex 0 -2401.28 -1374.51
    vertex 0 -2350.4 -709.127
  endloop
endfacet
facet normal 1 0 0
  outer loop
    vertex 0 -3000 -1000
    vertex 0 -2350.4 -709.127
    vertex 0 -3000 0
  endloop
endfacet
facet normal 1 0 0
  outer loop
    vertex 0 -1000 -2000
    vertex 0 -1565.48 -1005.95
    vertex 0 -2000 -2000
  endloop
endfacet
facet normal 1 0 -0
  outer loop
    vertex 0 -1000 -2000
    vertex 0 -506.246 -957.451
    vertex 0 -1565.48 -1005.95
  endloop
endfacet
facet normal 1 0 0
  outer loop
    vertex 0 -1000 -2000
    vertex 0 -9.14815e-09 -2000
    vertex 0 -506.246 -957.451
  endloop
endfacet
facet normal 1 0 0
  outer loop
    vertex 0 2000 0
    vertex 0 1000 0
    vertex 0 1595.95 -1010.42
  endloop
endfacet
facet normal 1 0 0
  outer loop
    vertex 0 2000 0
    vertex 0 1595.95 -1010.42
    vertex 0 2291.67 -708.333
  endloop
endfacet
facet normal 1 -0 0
  outer loop
    vertex 0 2000 0
    vertex 0 2291.67 -708.333
    vertex 0 3000 0
  endloop
endfacet
facet normal 1 0 0
  outer loop
    vertex 0 1000 0
    vertex 0 -9.14815e-09 0
    vertex 0 509.259 -986.111
  endloop
endfacet
facet normal 1 0 0
  outer loop
    vertex 0 1000 0
    vertex 0 509.259 -986.111
    vertex 0 1595.95 -1010.42
  endloop
endfacet
facet normal 1 -0 0
  outer loop
    vertex 0 -1000 0
    vertex 0 -506.246 -957.451
    vertex 0 -9.14815e-09 0
  endloop
endfacet
facet normal 1 0 0
  outer loop
    vertex 0 -1000 0
    vertex 0 -1565.48 -1005.95
    vertex 0 -506.246 -957.451
  endloop
endfacet
facet normal 1 0 0
  outer loop
    vertex 0 2000 -2000
    vertex 0 3000 -2000
    vertex 0 2389.99 -1367.48
  endloop
endfacet
facet normal 1 0 0
  outer loop
    vertex 0 2000 -2000
    vertex 0 1595.95 -1010.42
    vertex 0 1000 -2000
  endloop
endfacet
facet normal 1 0 -0
  outer loop
    vertex 0 2000 -2000
    vertex 0 2389.99 -1367.48
    vertex 0 1595.95 -1010.42
  endloop
endfacet
facet normal 1 0 0
  outer loop
    vertex 0 -9.14815e-09 0
    vertex 0 -506.246 -957.451
    vertex 0 509.259 -986.111
  endloop
endfacet
facet normal 1 0 0
  outer loop
    vertex 0 3000 -1000
    vertex 0 2291.67 -708.333
    vertex 0 2389.99 -1367.48
  endloop
endfacet
facet normal 1 0 -0
  outer loop
    vertex 0 3000 -1000
    vertex 0 3000 0
    vertex 0 2291.67 -708.333
  endloop
endfacet
facet normal 1 0 0
  outer loop
    vertex 0 3000 -1000
    vertex 0 2389.99 -1367.48
    vertex 0 3000 -2000
  endloop
endfacet
facet normal 1 0 -0
  outer loop
    vertex 0 -2000 -2000
    vertex 0 -1565.48 -1005.95
    vertex 0 -2401.28 -1374.51
  endloop
endfacet
facet normal 1 0 0
  outer loop
    vertex 0 -2000 -2000
    vertex 0 -2401.28 -1374.51
    vertex 0 -3000 -2000
  endloop
endfacet
facet normal 1 0 0
  outer loop
    vertex 0 2291.67 -708.333
    vertex 0 1595.95 -1010.42
    vertex 0 2389.99 -1367.48
  endloop
endfacet
facet normal 1 0 0
  outer loop
    vertex 0 -1565.48 -1005.95
    vertex 0 -2350.4 -709.127
    vertex 0 -2401.28 -1374.51
  endloop
endfacet
facet normal 1 0 0
  outer loop
    vertex 0 509.259 -986.111
    vertex 0 -506.246 -957.451
    vertex 0 -9.14815e-09 -2000
  endloop
endfacet
facet normal 1 0 0
  outer loop
    vertex 0 509.259 -986.111
    vertex 0 1000 -2000
    vertex 0 1595.95 -1010.42
  endloop
endfacet
facet normal 1 0 0
  outer loop
    vertex 0 -9.14815e-09 -2000
    vertex 0 1000 -2000
    vertex 0 509.259 -986.111
  endloop
endfacet
facet normal 1 0 0
  outer loop
    vertex 0 -1000 -2000
    vertex 0 -2000 -2000
    vertex 0 -1565.48 -2994.05
  endloop
endfacet
facet normal 1 -0 0
  outer loop
    vertex 0 -1565.48 -2994.05
    vertex 0 -506.246 -3042.55
    vertex 0 -1000 -2000
  endloop
endfacet
facet normal 1 0 0
  outer loop
    vertex 0 -1565.48 -2994.05
    vertex 0 -2000 -2000
    vertex 0 -2387.9 -2620.04
  endloop
endfacet
facet normal 1 0 0
  outer loop
    vertex 0 -1000 -4000
    vertex 0 -1565.48 -2994.05
    vertex 0 -2000 -4000
  endloop
endfacet
facet normal 1 0 0
  outer loop
    vertex 0 -1565.48 -2994.05
    vertex 0 -1000 -4000
    vertex 0 -506.246 -3042.55
  endloop
endfacet
facet normal 1 0 0
  outer loop
    vertex 0 -1565.48 -2994.05
    vertex 0 -2387.9 -2620.04
    vertex 0 -2343.78 -3298.54
  endloop
endfacet
facet normal 1 0 0
  outer loop
    vertex 0 -1565.48 -2994.05
    vertex 0 -2343.78 -3298.54
    vertex 0 -2000 -4000
  endloop
endfacet
facet normal 1 -0 0
  outer loop
    vertex 0 -1000 -2000
    vertex 0 -506.246 -3042.55
    vertex 0 -9.14815e-09 -2000
  endloop
endfacet
facet normal 1 -0 0
  outer loop
    vertex 0 2000 -2000
    vertex 0 2388.31 -2633.91
    vertex 0 3000 -2000
  endloop
endfacet
facet normal 1 0 0
  outer loop
    vertex 0 2000 -2000
    vertex 0 1000 -2000
    vertex 0 1593.42 -2994.24
  endloop
endfacet
facet normal 1 0 0
  outer loop
    vertex 0 2000 -2000
    vertex 0 1593.42 -2994.24
    vertex 0 2388.31 -2633.91
  endloop
endfacet
facet normal 1 0 0
  outer loop
    vertex 0 -9.14815e-09 -4000
    vertex 0 -506.246 -3042.55
    vertex 0 -1000 -4000
  endloop
endfacet
facet normal 1 0 0
  outer loop
    vertex 0 -9.14815e-09 -4000
    vertex 0 1000 -4000
    vertex 0 509.259 -3013.89
  endloop
endfacet
facet normal 1 0 -0
  outer loop
    vertex 0 -9.14815e-09 -4000
    vertex 0 509.259 -3013.89
    vertex 0 -506.246 -3042.55
  endloop
endfacet
facet normal 1 0 0
  outer loop
    vertex 0 -2000 -2000
    vertex 0 -3000 -2000
    vertex 0 -2387.9 -2620.04
  endloop
endfacet
facet normal 1 0 0
  outer loop
    vertex 0 2000 -4000
    vertex 0 3000 -4000
    vertex 0 2291.67 -3291.67
  endloop
endfacet
facet normal 1 0 -0
  outer loop
    vertex 0 2000 -4000
    vertex 0 2291.67 -3291.67
    vertex 0 1593.42 -2994.24
  endloop
endfacet
facet normal 1 0 0
  outer loop
    vertex 0 2000 -4000
    vertex 0 1593.42 -2994.24
    vertex 0 1000 -4000
  endloop
endfacet
facet normal 1 0 0
  outer loop
    vertex 0 -3000 -2000
    vertex 0 -3000 -3000
    vertex 0 -2387.9 -2620.04
  endloop
endfacet
facet normal 1 0 0
  outer loop
    vertex 0 -3000 -4000
    vertex 0 -2000 -4000
    vertex 0 -2343.78 -3298.54
  endloop
endfacet
facet normal 1 0 0
  outer loop
    vertex 0 -3000 -4000
    vertex 0 -2343.78 -3298.54
    vertex 0 -3000 -3000
  endloop
endfacet
facet normal 1 0 0
  outer loop
    vertex 0 2291.67 -3291.67
    vertex 0 3000 -3000
    vertex 0 2388.31 -2633.91
  endloop
endfacet
facet normal 1 0 0
  outer loop
    vertex 0 3000 -3000
    vertex 0 2291.67 -3291.67
    vertex 0 3000 -4000
  endloop
endfacet
facet normal 1 0 -0
  outer loop
    vertex 0 2291.67 -3291.67
    vertex 0 2388.31 -2633.91
    vertex 0 1593.42 -2994.24
  endloop
endfacet
facet normal 1 0 0
  outer loop
    vertex 0 -2343.78 -3298.54
    vertex 0 -2387.9 -2620.04
    vertex 0 -3000 -3000
  endloop
endfacet
facet normal 1 0 -0
  outer loop
    vertex 0 3000 -3000
    vertex 0 3000 -2000
    vertex 0 2388.31 -2633.91
  endloop
endfacet
facet normal 1 -0 0
  outer loop
    vertex 0 -9.14815e-09 -2000
    vertex 0 509.259 -3013.89
    vertex 0 1000 -2000
  endloop
endfacet
facet normal 1 0 0
  outer loop
    vertex 0 509.259 -3013.89
    vertex 0 -9.14815e-09 -2000
    vertex 0 -506.246 -3042.55
  endloop
endfacet
facet normal 1 -0 0
  outer loop
    vertex 0 509.259 -3013.89
    vertex 0 1000 -4000
    vertex 0 1593.42 -2994.24
  endloop
endfacet
facet normal 1 0 0
  outer loop
    vertex 0 509.259 -3013.89
    vertex 0 1593.42 -2994.24
    vertex 0 1000 -2000
  endloop
endfacet
endsolid Created by Gmsh
