<?xml version="1.0" encoding="UTF-8" standalone="no"?>
<!DOCTYPE svg PUBLIC "-//W3C//DTD SVG 1.1//EN" "http://www.w3.org/Graphics/SVG/1.1/DTD/svg11.dtd">
<svg xmlns="http://www.w3.org/2000/svg" xmlns:xlink="http://www.w3.org/1999/xlink" version="1.1" width="377.93pt" height="325.63pt" viewBox="0 0 377.93 325.63">
<g enable-background="new">
<path transform="matrix(.1,0,0,-.1,0,325.63)" d="M 1041.91 494.664 L 2742.7203 494.664 L 2742.7203 2762.414 L 1041.91 2762.414 Z " fill="#cceeff"/>
<path transform="matrix(.1,0,0,-.1,0,325.63)" stroke-width="9.9628" stroke-linecap="butt" stroke-miterlimit="10" stroke-linejoin="miter" fill="none" stroke="#1f6e96" d="M 1041.91 494.664 L 2742.7203 494.664 L 2742.7203 2762.414 L 1041.91 2762.414 Z "/>
<path transform="matrix(.1,0,0,-.1,0,325.63)" stroke-width="9.9628" stroke-linecap="butt" stroke-miterlimit="10" stroke-linejoin="miter" fill="none" stroke="#929292" d="M 1041.91 409.621 L 2828.13 409.621 "/>
<path transform="matrix(.1,0,0,-.1,0,325.63)" d="M 2889.85 409.621 C 2882.27 411.309 2848.96 420.891 2828.13 431.313 L 2828.13 387.926 C 2848.96 398.352 2882.27 407.93 2889.85 409.621 Z " fill="#929292"/>
<path transform="matrix(.1,0,0,-.1,0,325.63)" stroke-width="9.9628" stroke-linecap="butt" stroke-miterlimit="10" stroke-linejoin="miter" fill="none" stroke="#929292" d="M 2889.85 409.621 C 2882.27 411.309 2848.96 420.891 2828.13 431.313 L 2828.13 387.926 C 2848.96 398.352 2882.27 407.93 2889.85 409.621 Z "/>
<symbol id="font_0_1">
<path d="M .33900003 .272 L .51500007 .54 L .347 .54 L .26000003 .377 L .172 .54 L .0040000008 .54 L .18 .272 L 0 0 L .16800002 0 L .26000003 .16800002 L .351 0 L .51900008 0 L .33900003 .272 Z "/>
</symbol>
<use xlink:href="#font_0_1" transform="matrix(9.4645,0,0,-9.4645,294.78544,287.182)" fill="#929292"/>
<path transform="matrix(.1,0,0,-.1,0,325.63)" stroke-width="9.9628" stroke-linecap="butt" stroke-miterlimit="10" stroke-linejoin="miter" fill="none" stroke="#929292" d="M 1041.91 409.621 L 1041.91 367.109 "/>
<symbol id="font_1_11">
<path d="M .238 .072 L 0 .072 L 0 0 L .238 0 L .238 .072 Z "/>
</symbol>
<symbol id="font_1_10">
<path d="M .455 .54700008 C .43800003 .66300007 .36200003 .73200008 .254 .73200008 C .17600002 .73200008 .106000009 .694 .06400001 .63100007 C .02 .56200006 0 .47500003 0 .34600003 C 0 .22700002 .018000003 .15100001 .060000007 .08800001 C .098000008 .031000004 .16000001 0 .23800002 0 C .373 0 .47 .10000001 .47 .23900001 C .47 .37100003 .38 .46400003 .253 .46400003 C .18300002 .46400003 .128 .43700005 .09 .38500003 C .091000009 .558 .14700002 .65400007 .24800001 .65400007 C .31 .65400007 .35300002 .615 .367 .54700008 L .455 .54700008 M .24200003 .386 C .327 .386 .38 .32700003 .38 .23200001 C .38 .143 .32 .07800001 .23900001 .07800001 C .157 .07800001 .09500001 .146 .09500001 .23700002 C .09500001 .32500003 .15500002 .386 .24200003 .386 Z "/>
</symbol>
<symbol id="font_1_12">
<path d="M .10400001 .104 L 0 .104 L 0 0 L .10400001 0 L .10400001 .104 Z "/>
</symbol>
<symbol id="font_1_13">
<path d="M .23200001 .73200008 C .16600001 .73200008 .106000009 .703 .069000009 .65400007 C .022999999 .592 0 .49700005 0 .36600004 C 0 .127 .08 0 .23200001 0 C .382 0 .46400003 .127 .46400003 .36 C .46400003 .49800004 .442 .59000006 .395 .65400007 C .358 .70400008 .299 .73200008 .23200001 .73200008 M .23200001 .65400007 C .327 .65400007 .374 .558 .374 .36800004 C .374 .16700001 .328 .073 .23 .073 C .13700001 .073 .09 .171 .09 .365 C .09 .559 .13700001 .65400007 .23200001 .65400007 Z "/>
</symbol>
<symbol id="font_1_e">
<path d="M .083000008 .72900006 L 0 .72900006 L 0 0 L .083000008 0 L .083000008 .20400001 L .16400002 .284 L .34100003 0 L .44400005 0 L .23000002 .34300003 L .41200004 .52400007 L .305 .52400007 L .083000008 .30200003 L .083000008 .72900006 Z "/>
</symbol>
<symbol id="font_1_f">
<path d="M 0 .52400007 L 0 0 L .084000017 0 L .084000017 .32900004 C .084000017 .40500004 .139 .46600003 .20700002 .46600003 C .26900003 .46600003 .30400003 .42800004 .30400003 .36100004 L .30400003 0 L .38800005 0 L .38800005 .32900004 C .38800005 .40500004 .44300003 .46600003 .51100006 .46600003 C .572 .46600003 .60800006 .42700003 .60800006 .36100004 L .60800006 0 L .69200006 0 L .69200006 .393 C .69200006 .48700003 .638 .53900006 .54 .53900006 C .47000004 .53900006 .42800004 .518 .37900005 .45900003 C .34800003 .51500007 .30600003 .53900006 .23800004 .53900006 C .16800002 .53900006 .122 .513 .077 .45000003 L .077 .52400007 L 0 .52400007 Z "/>
</symbol>
<use xlink:href="#font_1_11" transform="matrix(9.4645,0,0,-9.4645,89.378368,297.1347)" fill="#929292"/>
<use xlink:href="#font_1_10" transform="matrix(9.4645,0,0,-9.4645,92.501659,299.62388)" fill="#929292"/>
<use xlink:href="#font_1_12" transform="matrix(9.4645,0,0,-9.4645,98.18035,299.4062)" fill="#929292"/>
<use xlink:href="#font_1_13" transform="matrix(9.4645,0,0,-9.4645,100.39505,299.62388)" fill="#929292"/>
<use xlink:href="#font_1_e" transform="matrix(9.4645,0,0,-9.4645,107.37983,299.4062)" fill="#929292"/>
<use xlink:href="#font_1_f" transform="matrix(9.4645,0,0,-9.4645,112.225658,299.4062)" fill="#929292"/>
<path transform="matrix(.1,0,0,-.1,0,325.63)" stroke-width="9.9628" stroke-linecap="butt" stroke-miterlimit="10" stroke-linejoin="miter" fill="none" stroke="#929292" d="M 2742.72 409.621 L 2742.72 367.109 "/>
<use xlink:href="#font_1_10" transform="matrix(9.4645,0,0,-9.4645,261.00398,299.62388)" fill="#929292"/>
<use xlink:href="#font_1_12" transform="matrix(9.4645,0,0,-9.4645,266.68269,299.4062)" fill="#929292"/>
<use xlink:href="#font_1_13" transform="matrix(9.4645,0,0,-9.4645,268.89738,299.62388)" fill="#929292"/>
<use xlink:href="#font_1_e" transform="matrix(9.4645,0,0,-9.4645,275.88227,299.4062)" fill="#929292"/>
<use xlink:href="#font_1_f" transform="matrix(9.4645,0,0,-9.4645,280.72807,299.4062)" fill="#929292"/>
<path transform="matrix(.1,0,0,-.1,0,325.63)" stroke-width="9.9628" stroke-linecap="butt" stroke-miterlimit="10" stroke-linejoin="miter" fill="none" stroke="#929292" d="M 956.871 494.664 L 956.871 2847.82 "/>
<path transform="matrix(.1,0,0,-.1,0,325.63)" d="M 956.871 2909.54 C 955.18 2901.96 945.602 2868.64 935.176 2847.82 L 978.566 2847.82 C 968.141 2868.64 958.563 2901.96 956.871 2909.54 Z " fill="#929292"/>
<path transform="matrix(.1,0,0,-.1,0,325.63)" stroke-width="9.9628" stroke-linecap="butt" stroke-miterlimit="10" stroke-linejoin="miter" fill="none" stroke="#929292" d="M 956.871 2909.54 C 955.18 2901.96 945.602 2868.64 935.176 2847.82 L 978.566 2847.82 C 968.141 2868.64 958.563 2901.96 956.871 2909.54 Z "/>
<symbol id="font_0_2">
<path d="M .38500003 .75900009 L .273 .366 L .154 .75900009 L 0 .75900009 L .201 .19700001 L .201 .19600001 L .201 .19300002 C .201 .142 .163 .10300001 .114 .10300001 C .103 .10300001 .095 .10400001 .077 .109000008 L .077 .004000008 C .098000008 .001000002 .11 0 .127 0 C .162 0 .20400001 .0069999995 .22800002 .017000005 C .26700003 .033000009 .284 .05600001 .307 .120000008 L .52900007 .75900009 L .38500003 .75900009 Z "/>
</symbol>
<use xlink:href="#font_0_2" transform="matrix(9.4645,0,0,-9.4645,93.14218,29.106722)" fill="#929292"/>
<path transform="matrix(.1,0,0,-.1,0,325.63)" stroke-width="9.9628" stroke-linecap="butt" stroke-miterlimit="10" stroke-linejoin="miter" fill="none" stroke="#929292" d="M 956.871 494.664 L 914.359 494.664 "/>
<symbol id="font_1_14">
<path d="M .157 .505 L .157 0 L .245 0 L .245 .70900008 L .187 .70900008 C .15600002 .6 .136 .58500006 0 .568 L 0 .505 L .157 .505 Z "/>
</symbol>
<use xlink:href="#font_1_11" transform="matrix(9.4645,0,0,-9.4645,52.457269,277.2296)" fill="#929292"/>
<use xlink:href="#font_1_14" transform="matrix(9.4645,0,0,-9.4645,56.138959,279.5011)" fill="#929292"/>
<use xlink:href="#font_1_10" transform="matrix(9.4645,0,0,-9.4645,60.84282,279.71879)" fill="#929292"/>
<use xlink:href="#font_1_12" transform="matrix(9.4645,0,0,-9.4645,66.521518,279.5011)" fill="#929292"/>
<use xlink:href="#font_1_13" transform="matrix(9.4645,0,0,-9.4645,68.73621,279.71879)" fill="#929292"/>
<use xlink:href="#font_1_e" transform="matrix(9.4645,0,0,-9.4645,75.72084,279.5011)" fill="#929292"/>
<use xlink:href="#font_1_f" transform="matrix(9.4645,0,0,-9.4645,80.56666,279.5011)" fill="#929292"/>
<path transform="matrix(.1,0,0,-.1,0,325.63)" stroke-width="9.9628" stroke-linecap="butt" stroke-miterlimit="10" stroke-linejoin="miter" fill="none" stroke="#929292" d="M 956.871 2762.41 L 914.359 2762.41 "/>
<use xlink:href="#font_1_13" transform="matrix(9.4645,0,0,-9.4645,60.842878,52.947694)" fill="#929292"/>
<use xlink:href="#font_1_12" transform="matrix(9.4645,0,0,-9.4645,66.521579,52.73001)" fill="#929292"/>
<use xlink:href="#font_1_13" transform="matrix(9.4645,0,0,-9.4645,68.736278,52.947694)" fill="#929292"/>
<use xlink:href="#font_1_e" transform="matrix(9.4645,0,0,-9.4645,75.72117,52.73001)" fill="#929292"/>
<use xlink:href="#font_1_f" transform="matrix(9.4645,0,0,-9.4645,80.56699,52.73001)" fill="#929292"/>
<symbol id="font_1_9">
<path d="M 0 .75200006 L 0 .023000002 L .075 .023000002 L .075 .09 C .11500001 .029000003 .16800002 0 .24100001 0 C .37900005 0 .469 .113000009 .469 .287 C .469 .45700003 .38300003 .56200006 .24500002 .56200006 C .17300001 .56200006 .12200001 .535 .083000008 .476 L .083000008 .75200006 L 0 .75200006 M .22900002 .48400004 C .32200004 .48400004 .38200004 .40300004 .38200004 .27800004 C .38200004 .15900001 .32000003 .07800001 .22900002 .07800001 C .141 .07800001 .083000008 .158 .083000008 .28100003 C .083000008 .404 .141 .48400004 .22900002 .48400004 Z "/>
</symbol>
<symbol id="font_1_2">
<path d="M .23600002 .56200006 C .089 .56200006 0 .45700003 0 .28100003 C 0 .105000007 .088 0 .237 0 C .384 0 .47400005 .105000007 .47400005 .277 C .47400005 .45800004 .387 .56200006 .23600002 .56200006 M .237 .485 C .331 .485 .387 .40800003 .387 .27800004 C .387 .155 .329 .07700001 .237 .07700001 C .14400001 .07700001 .087 .15400002 .087 .28100003 C .087 .407 .14400001 .485 .237 .485 Z "/>
</symbol>
<symbol id="font_1_6">
<path d="M .41700004 .023000002 L .41700004 .54700008 L .33400003 .54700008 L .33400003 .25 C .33400003 .143 .27800004 .073 .19100002 .073 C .125 .073 .083 .113000009 .083 .17600002 L .083 .54700008 L 0 .54700008 L 0 .143 C 0 .056 .065000008 0 .167 0 C .24400002 0 .293 .027000003 .342 .09600001 L .342 .023000002 L .41700004 .023000002 Z "/>
</symbol>
<symbol id="font_1_1">
<path d="M 0 .52400007 L 0 0 L .084000017 0 L .084000017 .289 C .084000017 .39600004 .14000002 .46600003 .22600001 .46600003 C .29200004 .46600003 .33400003 .42600004 .33400003 .363 L .33400003 0 L .41700004 0 L .41700004 .39600004 C .41700004 .483 .35200004 .53900006 .25100003 .53900006 C .17300001 .53900006 .123 .509 .077 .43600003 L .077 .52400007 L 0 .52400007 Z "/>
</symbol>
<symbol id="font_1_b">
<path d="M .46900005 .75200006 L .38600005 .75200006 L .38600005 .48100005 C .351 .53400006 .29500003 .56200006 .22500003 .56200006 C .089 .56200006 0 .453 0 .286 C 0 .109000008 .087000008 0 .22800002 0 C .3 0 .35000003 .027000003 .39500005 .09200001 L .39500005 .023000002 L .46900005 .023000002 L .46900005 .75200006 M .23900002 .48400004 C .32900004 .48400004 .38600005 .404 .38600005 .279 C .38600005 .158 .328 .07800001 .24000001 .07800001 C .148 .07800001 .087000008 .15900001 .087000008 .28100003 C .087000008 .40300004 .148 .48400004 .23900002 .48400004 Z "/>
</symbol>
<symbol id="font_1_7">
<path d="M .49300004 .072000008 C .48400004 .07000001 .48000003 .07000001 .47500003 .07000001 C .44600005 .07000001 .43000005 .08500001 .43000005 .11100001 L .43000005 .41900004 C .43000005 .512 .36200003 .56200006 .23300001 .56200006 C .157 .56200006 .094000007 .54 .059 .50100007 C .035000005 .47400005 .024999999 .44400005 .023000002 .39200003 L .107 .39200003 C .114 .45600004 .15200001 .485 .23000002 .485 C .305 .485 .34700004 .45700003 .34700004 .407 L .34700004 .38500003 C .34700004 .35000003 .32600004 .335 .26000003 .32700003 C .14200002 .312 .124000009 .30800004 .092 .29500003 C .031000004 .27 0 .223 0 .155 C 0 .060000004 .066 0 .17200002 0 C .238 0 .291 .023000002 .35000003 .07700001 C .35600005 .024000003 .38200004 0 .43600003 0 C .45300005 0 .46600003 .0020000004 .49300004 .0090000019 L .49300004 .072000008 M .34700004 .18800001 C .34700004 .16000001 .33900003 .143 .314 .120000008 C .28000004 .089 .23900002 .073 .19 .073 C .125 .073 .087000008 .104 .087000008 .157 C .087000008 .21200001 .124000009 .24000001 .21300003 .25300003 C .30100004 .26500003 .31900005 .269 .34700004 .282 L .34700004 .18800001 Z "/>
</symbol>
<symbol id="font_1_4">
<path d="M 0 .52400007 L 0 0 L .08400001 0 L .08400001 .272 C .08400001 .347 .103 .39600004 .143 .425 C .169 .44400005 .194 .45000003 .252 .45100004 L .252 .536 C .238 .53800007 .231 .53900006 .22 .53900006 C .16600001 .53900006 .125 .507 .07700001 .42900003 L .07700001 .52400007 L 0 .52400007 Z "/>
</symbol>
<symbol id="font_1_a">
<path d="M .368 .74200007 L .22300002 .33400003 L .089 .74200007 L 0 .74200007 L .17700002 .216 L .14500001 .13300002 C .13200002 .096 .113 .082 .078 .082 C .066 .082 .052 .08400001 .034 .088 L .034 .012999997 C .051 .003999993 .068 0 .09 0 C .117000009 0 .14600002 .009000003 .16800002 .025000006 C .19400002 .044 .20900002 .066 .22500001 .108 L .458 .74200007 L .368 .74200007 Z "/>
</symbol>
<use xlink:href="#font_1_9" transform="matrix(9.4645,0,0,-9.4645,3.6649929,165.35869)" fill="#6100ad"/>
<use xlink:href="#font_1_2" transform="matrix(9.4645,0,0,-9.4645,8.756895,165.35869)" fill="#6100ad"/>
<use xlink:href="#font_1_6" transform="matrix(9.4645,0,0,-9.4645,14.293629,165.35869)" fill="#6100ad"/>
<use xlink:href="#font_1_1" transform="matrix(9.4645,0,0,-9.4645,19.603215,165.141)" fill="#6100ad"/>
<use xlink:href="#font_1_b" transform="matrix(9.4645,0,0,-9.4645,24.449038,165.35869)" fill="#6100ad"/>
<use xlink:href="#font_1_7" transform="matrix(9.4645,0,0,-9.4645,29.862732,165.35869)" fill="#6100ad"/>
<use xlink:href="#font_1_4" transform="matrix(9.4645,0,0,-9.4645,35.380537,165.141)" fill="#6100ad"/>
<use xlink:href="#font_1_a" transform="matrix(9.4645,0,0,-9.4645,38.352575,167.20427)" fill="#6100ad"/>
<path transform="matrix(.1,0,0,-.1,0,325.63)" stroke-width="3.98" stroke-linecap="butt" stroke-miterlimit="10" stroke-linejoin="miter" fill="none" stroke="#6100ad" d="M 434.629 1606.89 L 463.02 1606.89 "/>
<symbol id="font_1_8">
<path d="M .27500005 .27100004 L .45100004 .52400007 L .35700003 .52400007 L .231 .33400003 L .105000007 .52400007 L .01 .52400007 L .185 .26700003 L 0 0 L .095 0 L .228 .201 L .35900004 0 L .45600004 0 L .27500005 .27100004 Z "/>
</symbol>
<symbol id="font_1_c">
<path d="M .47300003 .25700004 C .47300003 .337 .46700005 .38500003 .45200003 .42400003 C .41800005 .51 .33800004 .56200006 .24 .56200006 C .094 .56200006 0 .45000003 0 .27800004 C 0 .106000009 .091000009 0 .23800002 0 C .35800005 0 .44100005 .068 .46200005 .18200001 L .37800003 .18200001 C .35500003 .113000009 .30800004 .07700001 .24100001 .07700001 C .18800001 .07700001 .143 .101 .114999998 .14500001 C .095 .17500001 .088 .20500002 .087 .25700004 L .47300003 .25700004 M .089 .32500003 C .096 .42200003 .155 .485 .23900001 .485 C .32100005 .485 .38400004 .41700004 .38400004 .33100004 C .38400004 .32900004 .38400004 .32700003 .38300003 .32500003 L .089 .32500003 Z "/>
</symbol>
<symbol id="font_1_d">
<path d="M .38300003 .74200007 L .38300003 .666 C .341 .72800007 .29 .757 .223 .757 C .09 .757 0 .64100006 0 .47100003 C 0 .38500003 .023 .315 .06600001 .26500003 C .105000007 .22100002 .16100002 .19500001 .216 .19500001 C .282 .19500001 .328 .223 .375 .289 L .375 .26200003 C .375 .19100002 .366 .148 .345 .119 C .323 .088 .28 .07000001 .22900002 .07000001 C .19100002 .07000001 .157 .08 .134 .098000008 C .11500001 .113000009 .10700001 .127 .10200001 .158 L .017000003 .158 C .026000003 .059 .103 0 .22600003 0 C .304 0 .371 .025000006 .405 .067 C .44500003 .115 .46 .18100001 .46 .30400003 L .46 .74200007 L .38300003 .74200007 M .23200001 .68 C .322 .68 .375 .60400006 .375 .47300006 C .375 .34800003 .321 .272 .23300003 .272 C .142 .272 .087000008 .34900005 .087000008 .476 C .087000008 .602 .143 .68 .23200001 .68 Z "/>
</symbol>
<use xlink:href="#font_1_8" transform="matrix(9.4645,0,0,-9.4645,46.462896,165.141)" fill="#6100ad"/>
<use xlink:href="#font_1_1" transform="matrix(9.4645,0,0,-9.4645,51.696763,165.141)" fill="#6100ad"/>
<use xlink:href="#font_1_c" transform="matrix(9.4645,0,0,-9.4645,56.67509,165.35869)" fill="#6100ad"/>
<use xlink:href="#font_1_d" transform="matrix(9.4645,0,0,-9.4645,61.83325,167.20427)" fill="#6100ad"/>
<path transform="matrix(.1,0,0,-.1,0,325.63)" stroke-width="19.9255" stroke-linecap="butt" stroke-miterlimit="10" stroke-linejoin="miter" fill="none" stroke="#6100ad" d="M 701.734 1690.52 C 968.211 1737.57 775.438 1581.55 962.445 1614.53 "/>
<path transform="matrix(.1,0,0,-.1,0,325.63)" d="M 1001.21 1621.36 C 996.246 1621.68 974.156 1624.58 959.816 1629.44 L 965.07 1599.62 C 976.887 1609.09 996.656 1619.36 1001.21 1621.36 Z " fill="#6100ad"/>
<path transform="matrix(.1,0,0,-.1,0,325.63)" stroke-width="17.9324" stroke-linecap="butt" stroke-miterlimit="10" stroke-linejoin="miter" fill="none" stroke="#6100ad" d="M 1001.21 1621.36 C 996.246 1621.68 974.156 1624.58 959.816 1629.44 L 965.07 1599.62 C 976.887 1609.09 996.656 1619.36 1001.21 1621.36 Z "/>
<use xlink:href="#font_1_9" transform="matrix(9.4645,0,0,-9.4645,312.15409,165.39868)" fill="#6100ad"/>
<use xlink:href="#font_1_2" transform="matrix(9.4645,0,0,-9.4645,317.246,165.39868)" fill="#6100ad"/>
<use xlink:href="#font_1_6" transform="matrix(9.4645,0,0,-9.4645,322.78276,165.39868)" fill="#6100ad"/>
<use xlink:href="#font_1_1" transform="matrix(9.4645,0,0,-9.4645,328.09233,165.181)" fill="#6100ad"/>
<use xlink:href="#font_1_b" transform="matrix(9.4645,0,0,-9.4645,332.93815,165.39868)" fill="#6100ad"/>
<use xlink:href="#font_1_7" transform="matrix(9.4645,0,0,-9.4645,338.35188,165.39868)" fill="#6100ad"/>
<use xlink:href="#font_1_4" transform="matrix(9.4645,0,0,-9.4645,343.86967,165.181)" fill="#6100ad"/>
<use xlink:href="#font_1_a" transform="matrix(9.4645,0,0,-9.4645,346.8417,167.24427)" fill="#6100ad"/>
<path transform="matrix(.1,0,0,-.1,0,325.63)" stroke-width="3.98" stroke-linecap="butt" stroke-miterlimit="10" stroke-linejoin="miter" fill="none" stroke="#6100ad" d="M 3519.52 1606.48 L 3547.91 1606.48 "/>
<symbol id="font_1_3">
<path d="M 0 0 L .08400001 0 L .08400001 .273 C .128 .21900001 .177 .19500001 .24500002 .19500001 C .38000003 .19500001 .469 .30400003 .469 .47100003 C .469 .647 .38300003 .757 .244 .757 C .17300001 .757 .116 .725 .07700001 .66300007 L .07700001 .74200007 L 0 .74200007 L 0 0 M .23 .679 C .32200004 .679 .38200004 .59800007 .38200004 .47300006 C .38200004 .35400004 .32100005 .273 .23 .273 C .142 .273 .08400001 .35300002 .08400001 .476 C .08400001 .59900006 .142 .679 .23 .679 Z "/>
</symbol>
<symbol id="font_1_5">
<path d="M .404 .40100003 C .403 .50400009 .335 .56200006 .21400002 .56200006 C .092 .56200006 .013 .499 .013 .402 C .013 .32000003 .055 .28100003 .17900002 .25100003 L .257 .23200001 C .315 .21800001 .338 .19700001 .338 .15900001 C .338 .11000001 .289 .07700001 .21599999 .07700001 C .171 .07700001 .13300002 .09 .11200001 .112 C .099 .127 .093 .142 .08800001 .179 L 0 .179 C .0040000008 .058000003 .072000008 0 .20900002 0 C .34100003 0 .425 .065000008 .425 .16600001 C .425 .24400002 .381 .287 .277 .312 L .197 .33100004 C .12900001 .347 .1 .36900003 .1 .40600003 C .1 .45400004 .143 .485 .211 .485 C .278 .485 .314 .45600004 .316 .40100003 L .404 .40100003 Z "/>
</symbol>
<use xlink:href="#font_1_8" transform="matrix(9.4645,0,0,-9.4645,354.95188,165.181)" fill="#6100ad"/>
<use xlink:href="#font_1_3" transform="matrix(9.4645,0,0,-9.4645,360.0343,167.24427)" fill="#6100ad"/>
<use xlink:href="#font_1_2" transform="matrix(9.4645,0,0,-9.4645,365.12623,165.39868)" fill="#6100ad"/>
<use xlink:href="#font_1_5" transform="matrix(9.4645,0,0,-9.4645,370.36958,165.39868)" fill="#6100ad"/>
<path transform="matrix(.1,0,0,-.1,0,325.63)" stroke-width="19.9255" stroke-linecap="butt" stroke-miterlimit="10" stroke-linejoin="miter" fill="none" stroke="#6100ad" d="M 3082.91 1566.99 C 2816.43 1519.97 3009.2 1675.52 2822.2 1642.55 "/>
<path transform="matrix(.1,0,0,-.1,0,325.63)" d="M 2783.43 1635.71 C 2788.39 1635.39 2810.48 1632.5 2824.82 1627.64 L 2819.57 1657.46 C 2807.75 1647.99 2787.98 1637.71 2783.43 1635.71 Z " fill="#6100ad"/>
<path transform="matrix(.1,0,0,-.1,0,325.63)" stroke-width="17.9324" stroke-linecap="butt" stroke-miterlimit="10" stroke-linejoin="miter" fill="none" stroke="#6100ad" d="M 2783.43 1635.71 C 2788.39 1635.39 2810.48 1632.5 2824.82 1627.64 L 2819.57 1657.46 C 2807.75 1647.99 2787.98 1637.71 2783.43 1635.71 Z "/>
<use xlink:href="#font_1_9" transform="matrix(9.4645,0,0,-9.4645,157.91008,320.58753)" fill="#6100ad"/>
<use xlink:href="#font_1_2" transform="matrix(9.4645,0,0,-9.4645,163.002,320.58753)" fill="#6100ad"/>
<use xlink:href="#font_1_6" transform="matrix(9.4645,0,0,-9.4645,168.53873,320.58753)" fill="#6100ad"/>
<use xlink:href="#font_1_1" transform="matrix(9.4645,0,0,-9.4645,173.84833,320.36985)" fill="#6100ad"/>
<use xlink:href="#font_1_b" transform="matrix(9.4645,0,0,-9.4645,178.69416,320.58753)" fill="#6100ad"/>
<use xlink:href="#font_1_7" transform="matrix(9.4645,0,0,-9.4645,184.10785,320.58753)" fill="#6100ad"/>
<use xlink:href="#font_1_4" transform="matrix(9.4645,0,0,-9.4645,189.62566,320.36985)" fill="#6100ad"/>
<use xlink:href="#font_1_a" transform="matrix(9.4645,0,0,-9.4645,192.59769,322.4331)" fill="#6100ad"/>
<path transform="matrix(.1,0,0,-.1,0,325.63)" stroke-width="3.98" stroke-linecap="butt" stroke-miterlimit="10" stroke-linejoin="miter" fill="none" stroke="#6100ad" d="M 1977.07 54.6016 L 2005.46 54.6016 "/>
<use xlink:href="#font_1_a" transform="matrix(9.4645,0,0,-9.4645,200.73628,322.4331)" fill="#6100ad"/>
<use xlink:href="#font_1_1" transform="matrix(9.4645,0,0,-9.4645,205.94178,320.36985)" fill="#6100ad"/>
<use xlink:href="#font_1_c" transform="matrix(9.4645,0,0,-9.4645,210.9201,320.58753)" fill="#6100ad"/>
<use xlink:href="#font_1_d" transform="matrix(9.4645,0,0,-9.4645,216.07826,322.4331)" fill="#6100ad"/>
<path transform="matrix(.1,0,0,-.1,0,325.63)" stroke-width="19.9255" stroke-linecap="butt" stroke-miterlimit="10" stroke-linejoin="miter" fill="none" stroke="#6100ad" d="M 1906.12 154.484 C 1952.37 416.797 1938.57 232.352 1906.33 415.191 "/>
<path transform="matrix(.1,0,0,-.1,0,325.63)" d="M 1899.5 453.961 C 1899.18 448.996 1896.28 426.906 1891.42 412.563 L 1921.24 417.82 C 1911.77 429.637 1901.5 449.406 1899.5 453.961 Z " fill="#6100ad"/>
<path transform="matrix(.1,0,0,-.1,0,325.63)" stroke-width="17.9324" stroke-linecap="butt" stroke-miterlimit="10" stroke-linejoin="miter" fill="none" stroke="#6100ad" d="M 1899.5 453.961 C 1899.18 448.996 1896.28 426.906 1891.42 412.563 L 1921.24 417.82 C 1911.77 429.637 1901.5 449.406 1899.5 453.961 Z "/>
<use xlink:href="#font_1_9" transform="matrix(9.4645,0,0,-9.4645,158.17508,10.209688)" fill="#6100ad"/>
<use xlink:href="#font_1_2" transform="matrix(9.4645,0,0,-9.4645,163.267,10.209688)" fill="#6100ad"/>
<use xlink:href="#font_1_6" transform="matrix(9.4645,0,0,-9.4645,168.80373,10.209688)" fill="#6100ad"/>
<use xlink:href="#font_1_1" transform="matrix(9.4645,0,0,-9.4645,174.11333,9.992004)" fill="#6100ad"/>
<use xlink:href="#font_1_b" transform="matrix(9.4645,0,0,-9.4645,178.95915,10.209688)" fill="#6100ad"/>
<use xlink:href="#font_1_7" transform="matrix(9.4645,0,0,-9.4645,184.37285,10.209688)" fill="#6100ad"/>
<use xlink:href="#font_1_4" transform="matrix(9.4645,0,0,-9.4645,189.89066,9.992004)" fill="#6100ad"/>
<use xlink:href="#font_1_a" transform="matrix(9.4645,0,0,-9.4645,192.86269,12.055265)" fill="#6100ad"/>
<path transform="matrix(.1,0,0,-.1,0,325.63)" stroke-width="3.98" stroke-linecap="butt" stroke-miterlimit="10" stroke-linejoin="miter" fill="none" stroke="#6100ad" d="M 1979.72 3158.37 L 2008.11 3158.37 "/>
<use xlink:href="#font_1_a" transform="matrix(9.4645,0,0,-9.4645,201.00128,12.055265)" fill="#6100ad"/>
<use xlink:href="#font_1_3" transform="matrix(9.4645,0,0,-9.4645,206.05533,12.055265)" fill="#6100ad"/>
<use xlink:href="#font_1_2" transform="matrix(9.4645,0,0,-9.4645,211.14725,10.209688)" fill="#6100ad"/>
<use xlink:href="#font_1_5" transform="matrix(9.4645,0,0,-9.4645,216.39058,10.209688)" fill="#6100ad"/>
<path transform="matrix(.1,0,0,-.1,0,325.63)" stroke-width="19.9255" stroke-linecap="butt" stroke-miterlimit="10" stroke-linejoin="miter" fill="none" stroke="#6100ad" d="M 1906.04 3102.59 C 1952.3 2840.28 1846.07 3024.72 1878.31 2841.88 "/>
<path transform="matrix(.1,0,0,-.1,0,325.63)" d="M 1885.14 2803.11 C 1885.46 2808.08 1888.36 2830.17 1893.22 2844.51 L 1863.4 2839.25 C 1872.87 2827.44 1883.14 2807.67 1885.14 2803.11 Z " fill="#6100ad"/>
<path transform="matrix(.1,0,0,-.1,0,325.63)" stroke-width="17.9324" stroke-linecap="butt" stroke-miterlimit="10" stroke-linejoin="miter" fill="none" stroke="#6100ad" d="M 1885.14 2803.11 C 1885.46 2808.08 1888.36 2830.17 1893.22 2844.51 L 1863.4 2839.25 C 1872.87 2827.44 1883.14 2807.67 1885.14 2803.11 Z "/>
</g>
</svg>
