<?xml version="1.0" encoding="UTF-8" standalone="no"?>
<!DOCTYPE svg PUBLIC "-//W3C//DTD SVG 1.1//EN" "http://www.w3.org/Graphics/SVG/1.1/DTD/svg11.dtd">
<svg xmlns="http://www.w3.org/2000/svg" xmlns:xlink="http://www.w3.org/1999/xlink" version="1.1" width="250.32pt" height="284.55pt" viewBox="0 0 250.32 284.55">
<g enable-background="new">
<path transform="matrix(.1,0,0,-.1,0,284.55)" d="M 514.664 272.277 L 2215.474 272.277 L 2215.474 2540.017 L 514.664 2540.017 Z " fill="#cceeff"/>
<path transform="matrix(.1,0,0,-.1,0,284.55)" stroke-width="9.9628" stroke-linecap="butt" stroke-miterlimit="10" stroke-linejoin="miter" fill="none" stroke="#1f6e96" d="M 514.664 272.277 L 2215.474 272.277 L 2215.474 2540.017 L 514.664 2540.017 Z "/>
<path transform="matrix(.1,0,0,-.1,0,284.55)" stroke-width="9.9628" stroke-linecap="butt" stroke-miterlimit="10" stroke-linejoin="miter" fill="none" stroke="#1f6e96" d="M 514.664 272.277 L 514.664 2540.02 "/>
<path transform="matrix(.1,0,0,-.1,0,284.55)" stroke-width="9.9628" stroke-linecap="butt" stroke-miterlimit="10" stroke-linejoin="miter" fill="none" stroke="#1f6e96" d="M 1081.6 272.277 L 1081.6 2540.02 "/>
<path transform="matrix(.1,0,0,-.1,0,284.55)" stroke-width="9.9628" stroke-linecap="butt" stroke-miterlimit="10" stroke-linejoin="miter" fill="none" stroke="#1f6e96" d="M 1648.54 272.277 L 1648.54 2540.02 "/>
<path transform="matrix(.1,0,0,-.1,0,284.55)" stroke-width="9.9628" stroke-linecap="butt" stroke-miterlimit="10" stroke-linejoin="miter" fill="none" stroke="#1f6e96" d="M 2215.47 272.277 L 2215.47 2540.02 "/>
<path transform="matrix(.1,0,0,-.1,0,284.55)" stroke-width="9.9628" stroke-linecap="butt" stroke-miterlimit="10" stroke-linejoin="miter" fill="none" stroke="#1f6e96" d="M 514.664 272.277 L 2215.47 272.277 "/>
<path transform="matrix(.1,0,0,-.1,0,284.55)" stroke-width="9.9628" stroke-linecap="butt" stroke-miterlimit="10" stroke-linejoin="miter" fill="none" stroke="#1f6e96" d="M 514.664 839.211 L 2215.47 839.211 "/>
<path transform="matrix(.1,0,0,-.1,0,284.55)" stroke-width="9.9628" stroke-linecap="butt" stroke-miterlimit="10" stroke-linejoin="miter" fill="none" stroke="#1f6e96" d="M 514.664 1406.15 L 2215.47 1406.15 "/>
<path transform="matrix(.1,0,0,-.1,0,284.55)" stroke-width="9.9628" stroke-linecap="butt" stroke-miterlimit="10" stroke-linejoin="miter" fill="none" stroke="#1f6e96" d="M 514.664 1973.08 L 2215.47 1973.08 "/>
<path transform="matrix(.1,0,0,-.1,0,284.55)" stroke-width="9.9628" stroke-linecap="butt" stroke-miterlimit="10" stroke-linejoin="miter" fill="none" stroke="#1f6e96" d="M 514.664 2540.02 L 2215.47 2540.02 "/>
<symbol id="font_0_5">
<path d="M .421 .34200005 C .421 .42200003 .416 .50200006 .381 .57600006 C .335 .67200008 .25300003 .688 .211 .688 C .15100001 .688 .07800001 .66200008 .037000006 .56900009 C .0050000029 .5 0 .42200003 0 .34200005 C 0 .26700003 .0040000008 .177 .045000007 .101 C .088 .020000002 .161 0 .21000001 0 C .264 0 .34 .021000002 .384 .116000007 C .416 .185 .421 .263 .421 .34200005 M .21000001 .022000002 C .171 .022000002 .112 .047000003 .094 .143 C .083000008 .20300001 .083000008 .29500003 .083000008 .35400004 C .083000008 .41800005 .083000008 .48400004 .091000009 .53800007 C .11 .65700009 .185 .66600009 .21000001 .66600009 C .243 .66600009 .30900003 .64800009 .328 .549 C .338 .49300004 .338 .41700004 .338 .35400004 C .338 .279 .338 .21100001 .32700003 .147 C .312 .052 .255 .022000002 .21000001 .022000002 Z "/>
</symbol>
<symbol id="font_0_8">
<path d="M .24800003 .37400005 C .33 .40100003 .388 .47100006 .388 .55 C .388 .632 .3 .688 .204 .688 C .10300001 .688 .027000003 .628 .027000003 .55200007 C .027000003 .519 .049000004 .5 .078 .5 C .109000008 .5 .12900001 .522 .12900001 .55100008 C .12900001 .6010001 .082 .6010001 .067 .6010001 C .098 .65000006 .164 .66300007 .20000002 .66300007 C .24100003 .66300007 .29600004 .64100006 .29600004 .55100008 C .29600004 .53900006 .29400004 .48100005 .268 .43700005 C .238 .38900004 .204 .38600005 .17900002 .38500003 C .171 .38400004 .14700002 .38200004 .14000002 .38200004 C .132 .38100005 .125 .38000003 .125 .37000004 C .125 .35900004 .132 .35900004 .14900002 .35900004 L .19300002 .35900004 C .275 .35900004 .312 .29100005 .312 .193 C .312 .057000005 .24300003 .028 .199 .028 C .15600002 .028 .081 .045 .046000005 .104 C .081 .09900001 .11200001 .12100001 .11200001 .15900001 C .11200001 .19500001 .085 .215 .056 .215 C .031999999 .215 0 .201 0 .157 C 0 .06600001 .093 0 .20200002 0 C .32400004 0 .41500003 .091000009 .41500003 .193 C .41500003 .27500005 .35200004 .35300005 .24800003 .37400005 Z "/>
</symbol>
<symbol id="font_0_1">
<path d="M .089999999 .35000003 L .089999999 .37400005 C .089999999 .62700006 .21400002 .66300007 .26500003 .66300007 C .28900004 .66300007 .33100004 .65700009 .35300002 .623 C .33800004 .623 .298 .623 .298 .57800009 C .298 .54700008 .32200004 .53200009 .344 .53200009 C .36 .53200009 .39000003 .54100009 .39000003 .58000007 C .39000003 .64000007 .34600003 .688 .263 .688 C .13499999 .688 0 .559 0 .33800004 C 0 .071 .116000007 0 .20900002 0 C .32000003 0 .41500003 .094000007 .41500003 .22600001 C .41500003 .35300005 .32600004 .44900004 .215 .44900004 C .14700002 .44900004 .11000001 .39800004 .089999999 .35000003 M .20900002 .028 C .146 .028 .116000007 .088 .11000001 .103 C .092 .15 .092 .23 .092 .24800001 C .092 .32600004 .124000009 .42600004 .21400002 .42600004 C .23000002 .42600004 .27600003 .42600004 .307 .36400003 C .32500003 .32700003 .32500003 .27600003 .32500003 .22700002 C .32500003 .179 .32500003 .12900001 .30800004 .093 C .27800004 .033000005 .23200003 .028 .20900002 .028 Z "/>
</symbol>
<symbol id="font_0_4">
<path d="M .32500003 .34000004 L .32500003 .30800004 C .32500003 .074 .22100002 .028 .16300002 .028 C .146 .028 .092 .030000002 .065000008 .064 C .109000008 .064 .117000009 .093 .117000009 .11000001 C .117000009 .141 .093 .156 .071 .156 C .055 .156 .024999999 .147 .024999999 .108 C .024999999 .041 .079 0 .164 0 C .293 0 .41500003 .136 .41500003 .35100005 C .41500003 .62000009 .3 .688 .21100003 .688 C .15600002 .688 .107 .67 .064 .62500008 C .023000002 .58000007 0 .53800007 0 .46300004 C 0 .33800004 .08800001 .24000001 .20000002 .24000001 C .261 .24000001 .30200003 .28200004 .32500003 .34000004 M .201 .263 C .185 .263 .139 .263 .108 .32600004 C .089999999 .36300005 .089999999 .41300006 .089999999 .46200005 C .089999999 .51600006 .089999999 .563 .11100001 .6 C .13800001 .65000006 .176 .66300007 .21100003 .66300007 C .25700004 .66300007 .29000003 .62900009 .307 .58400008 C .31900005 .55200007 .323 .48900003 .323 .44300006 C .323 .36000005 .28900004 .263 .201 .263 Z "/>
</symbol>
<symbol id="font_0_6">
<path d="M .205 .64000007 C .205 .66400006 .205 .666 .18200003 .666 C .120000008 .60200008 .032000007 .60200008 0 .60200008 L 0 .57100006 C .020000004 .57100006 .07900001 .57100006 .13100001 .597 L .13100001 .079 C .13100001 .043 .128 .031000002 .038000004 .031000002 L .0060000049 .031000002 L .0060000049 0 C .04100001 .003 .128 .003 .168 .003 C .20800002 .003 .29500003 .003 .33000005 0 L .33000005 .031000002 L .29800005 .031000002 C .20800002 .031000002 .205 .042000005 .205 .079 L .205 .64000007 Z "/>
</symbol>
<symbol id="font_0_9">
<path d="M .266 .165 L .266 .078 C .266 .042000005 .26400004 .031000002 .19000001 .031000002 L .16900002 .031000002 L .16900002 0 C .21000001 .003 .26200003 .003 .30400003 .003 C .34600003 .003 .39900003 .003 .44000004 0 L .44000004 .031000002 L .41900004 .031000002 C .34500004 .031000002 .34300003 .042000005 .34300003 .078 L .34300003 .165 L .44300003 .165 L .44300003 .19600001 L .34300003 .19600001 L .34300003 .651 C .34300003 .671 .34300003 .67700007 .32700003 .67700007 C .31800003 .67700007 .31500004 .67700007 .307 .665 L 0 .19600001 L 0 .165 L .266 .165 M .272 .19600001 L .028 .19600001 L .272 .569 L .272 .19600001 Z "/>
</symbol>
<symbol id="font_0_2">
<path d="M .42000003 .63100007 C .42900003 .64300009 .42900003 .64500007 .42900003 .66600009 L .18600002 .66600009 C .064 .66600009 .062000008 .679 .058000007 .6980001 L .033 .6980001 L 0 .49200005 L .024999999 .49200005 C .028000005 .508 .037 .57100006 .050000006 .58300009 C .057000005 .58900007 .13500002 .58900007 .148 .58900007 L .35500003 .58900007 C .344 .573 .26500003 .46400006 .24300003 .43100003 C .153 .29600004 .12000001 .157 .12000001 .055 C .12000001 .045 .12000001 0 .16600001 0 C .21200001 0 .21200001 .045 .21200001 .055 L .21200001 .106000009 C .21200001 .16100002 .21500004 .216 .22300002 .27 C .22700003 .29300005 .24100003 .37900005 .28500004 .44100005 L .42000003 .63100007 Z "/>
</symbol>
<symbol id="font_0_7">
<path d="M .07700001 .07700001 L .18300002 .18 C .33900003 .31800003 .39900003 .372 .39900003 .47200004 C .39900003 .586 .30900003 .666 .18700002 .666 C .074 .666 0 .574 0 .485 C 0 .42900003 .05 .42900003 .053000008 .42900003 C .07000001 .42900003 .105000007 .441 .105000007 .48200003 C .105000007 .508 .08700001 .53400006 .052000006 .53400006 C .044000005 .53400006 .042000008 .53400006 .039 .53300008 C .062000004 .59800007 .11600001 .63500007 .17400001 .63500007 C .26500003 .63500007 .308 .554 .308 .47200004 C .308 .39200003 .25800003 .31300003 .20300003 .25100003 L .011000004 .037 C 0 .026 0 .024 0 0 L .37100003 0 L .39900003 .17400001 L .374 .17400001 C .36900003 .14400001 .36200003 .1 .352 .085 C .345 .07700001 .279 .07700001 .257 .07700001 L .07700001 .07700001 Z "/>
</symbol>
<symbol id="font_0_a">
<path d="M .39900003 .223 C .39900003 .34200005 .317 .44200004 .209 .44200004 C .16100002 .44200004 .118000019 .42600004 .082 .39100004 L .082 .586 C .10200001 .58000007 .135 .573 .16700001 .573 C .29 .573 .36 .66400006 .36 .67700007 C .36 .683 .357 .688 .35 .688 C .349 .688 .347 .688 .342 .68500009 C .322 .67600008 .273 .656 .20600002 .656 C .16600001 .656 .120000008 .66300007 .073 .6840001 C .065 .68700006 .06300001 .68700006 .061000009 .68700006 C .051000004 .68700006 .051000004 .679 .051000004 .66300007 L .051000004 .36700005 C .051000004 .34900005 .051000004 .34100003 .065 .34100003 C .07200001 .34100003 .074 .34400005 .07800001 .35000003 C .08900002 .36600004 .12600002 .42000006 .207 .42000006 C .259 .42000006 .284 .37400005 .292 .35600005 C .308 .31900005 .31 .28000004 .31 .23 C .31 .19500001 .31 .135 .286 .093 C .262 .054000006 .22500001 .028 .17900002 .028 C .106000009 .028 .049000008 .08100001 .032 .14000002 C .035 .13900002 .038000008 .13800001 .049000008 .13800001 C .082 .13800001 .09900001 .163 .09900001 .187 C .09900001 .21100001 .082 .23600002 .049000008 .23600002 C .035 .23600002 0 .22900002 0 .18300002 C 0 .097 .069000009 0 .18100001 0 C .297 0 .39900003 .096 .39900003 .223 Z "/>
</symbol>
<symbol id="font_0_3">
<path d="M .121 .47900004 C .075 .509 .071 .54300007 .071 .56000009 C .071 .62100008 .136 .66300007 .20700002 .66300007 C .28000004 .66300007 .344 .61100009 .344 .53900006 C .344 .48200003 .305 .43400005 .245 .39900003 L .121 .47900004 M .26700003 .38400004 C .33900003 .42100004 .388 .47300006 .388 .53900006 C .388 .63100007 .29900003 .688 .208 .688 C .108 .688 .027000003 .614 .027000003 .521 C .027000003 .503 .029 .45800004 .071 .41100005 C .082 .39900003 .11900001 .37400005 .144 .35700003 C .086 .32800005 0 .272 0 .17300001 C 0 .067 .102000009 0 .20700002 0 C .32000003 0 .41500003 .083000008 .41500003 .19000001 C .41500003 .22600001 .404 .27100004 .36600004 .31300003 C .34700004 .33400003 .33100004 .34400005 .26700003 .38400004 M .167 .34200005 L .29000003 .26400004 C .31800003 .245 .365 .215 .365 .154 C .365 .080000009 .29000003 .028 .208 .028 C .122 .028 .050000006 .09 .050000006 .17300001 C .050000006 .231 .082 .29500003 .167 .34200005 Z "/>
</symbol>
<use xlink:href="#font_0_5" transform="matrix(9.9626,0,0,-9.9626,77.71154,232.40196)" fill="#1f6e96"/>
<use xlink:href="#font_0_8" transform="matrix(9.9626,0,0,-9.9626,77.741428,175.70897)" fill="#1f6e96"/>
<use xlink:href="#font_0_1" transform="matrix(9.9626,0,0,-9.9626,77.741428,119.01596)" fill="#1f6e96"/>
<use xlink:href="#font_0_4" transform="matrix(9.9626,0,0,-9.9626,77.741428,62.322969)" fill="#1f6e96"/>
<use xlink:href="#font_0_6" transform="matrix(9.9626,0,0,-9.9626,134.90267,232.18279)" fill="#1f6e96"/>
<use xlink:href="#font_0_9" transform="matrix(9.9626,0,0,-9.9626,134.29494,175.48978)" fill="#1f6e96"/>
<use xlink:href="#font_0_2" transform="matrix(9.9626,0,0,-9.9626,134.5739,119.01596)" fill="#1f6e96"/>
<use xlink:href="#font_0_6" transform="matrix(9.9626,0,0,-9.9626,132.41165,62.10379)" fill="#1f6e96"/>
<use xlink:href="#font_0_5" transform="matrix(9.9626,0,0,-9.9626,136.8948,62.322969)" fill="#1f6e96"/>
<use xlink:href="#font_0_7" transform="matrix(9.9626,0,0,-9.9626,191.2071,232.18279)" fill="#1f6e96"/>
<use xlink:href="#font_0_a" transform="matrix(9.9626,0,0,-9.9626,191.2071,175.70896)" fill="#1f6e96"/>
<use xlink:href="#font_0_3" transform="matrix(9.9626,0,0,-9.9626,191.12741,119.01596)" fill="#1f6e96"/>
<use xlink:href="#font_0_6" transform="matrix(9.9626,0,0,-9.9626,189.10465,62.10379)" fill="#1f6e96"/>
<use xlink:href="#font_0_6" transform="matrix(9.9626,0,0,-9.9626,194.08594,62.10379)" fill="#1f6e96"/>
<path transform="matrix(.1,0,0,-.1,0,284.55)" d="M 543.012 272.277 C 543.012 287.93 530.32 300.621 514.664 300.621 C 499.012 300.621 486.32 287.93 486.32 272.277 C 486.32 256.621 499.012 243.93 514.664 243.93 C 530.32 243.93 543.012 256.621 543.012 272.277 Z M 514.664 272.277 " fill="#f58000"/>
<use xlink:href="#font_0_5" transform="matrix(9.9626,0,0,-9.9626,55.20964,254.18517)" fill="#f58000"/>
<path transform="matrix(.1,0,0,-.1,0,284.55)" d="M 543.012 839.211 C 543.012 854.867 530.32 867.559 514.664 867.559 C 499.012 867.559 486.32 854.867 486.32 839.211 C 486.32 823.555 499.012 810.863 514.664 810.863 C 530.32 810.863 543.012 823.555 543.012 839.211 Z M 514.664 839.211 " fill="#f58000"/>
<use xlink:href="#font_0_6" transform="matrix(9.9626,0,0,-9.9626,55.70777,197.27298)" fill="#f58000"/>
<path transform="matrix(.1,0,0,-.1,0,284.55)" d="M 543.012 1406.15 C 543.012 1421.8 530.32 1434.5 514.664 1434.5 C 499.012 1434.5 486.32 1421.8 486.32 1406.15 C 486.32 1390.49 499.012 1377.8 514.664 1377.8 C 530.32 1377.8 543.012 1390.49 543.012 1406.15 Z M 514.664 1406.15 " fill="#f58000"/>
<use xlink:href="#font_0_7" transform="matrix(9.9626,0,0,-9.9626,55.31923,140.57999)" fill="#f58000"/>
<path transform="matrix(.1,0,0,-.1,0,284.55)" d="M 543.012 1973.08 C 543.012 1988.74 530.32 2001.43 514.664 2001.43 C 499.012 2001.43 486.32 1988.74 486.32 1973.08 C 486.32 1957.43 499.012 1944.74 514.664 1944.74 C 530.32 1944.74 543.012 1957.43 543.012 1973.08 Z M 514.664 1973.08 " fill="#f58000"/>
<use xlink:href="#font_0_8" transform="matrix(9.9626,0,0,-9.9626,55.23953,84.10617)" fill="#f58000"/>
<path transform="matrix(.1,0,0,-.1,0,284.55)" d="M 543.012 2540.02 C 543.012 2555.68 530.32 2568.37 514.664 2568.37 C 499.012 2568.37 486.32 2555.68 486.32 2540.02 C 486.32 2524.36 499.012 2511.67 514.664 2511.67 C 530.32 2511.67 543.012 2524.36 543.012 2540.02 Z M 514.664 2540.02 " fill="#f58000"/>
<use xlink:href="#font_0_9" transform="matrix(9.9626,0,0,-9.9626,55.10005,27.194)" fill="#f58000"/>
<path transform="matrix(.1,0,0,-.1,0,284.55)" d="M 1109.95 272.277 C 1109.95 287.93 1097.26 300.621 1081.6 300.621 C 1065.95 300.621 1053.25 287.93 1053.25 272.277 C 1053.25 256.621 1065.95 243.93 1081.6 243.93 C 1097.26 243.93 1109.95 256.621 1109.95 272.277 Z M 1081.6 272.277 " fill="#f58000"/>
<use xlink:href="#font_0_a" transform="matrix(9.9626,0,0,-9.9626,112.01213,254.18517)" fill="#f58000"/>
<path transform="matrix(.1,0,0,-.1,0,284.55)" d="M 1109.95 839.211 C 1109.95 854.867 1097.26 867.559 1081.6 867.559 C 1065.95 867.559 1053.25 854.867 1053.25 839.211 C 1053.25 823.555 1065.95 810.863 1081.6 810.863 C 1097.26 810.863 1109.95 823.555 1109.95 839.211 Z M 1081.6 839.211 " fill="#f58000"/>
<use xlink:href="#font_0_1" transform="matrix(9.9626,0,0,-9.9626,111.93243,197.49216)" fill="#f58000"/>
<path transform="matrix(.1,0,0,-.1,0,284.55)" d="M 1109.95 1406.15 C 1109.95 1421.8 1097.26 1434.5 1081.6 1434.5 C 1065.95 1434.5 1053.25 1421.8 1053.25 1406.15 C 1053.25 1390.49 1065.95 1377.8 1081.6 1377.8 C 1097.26 1377.8 1109.95 1390.49 1109.95 1406.15 Z M 1081.6 1406.15 " fill="#f58000"/>
<use xlink:href="#font_0_2" transform="matrix(9.9626,0,0,-9.9626,112.07191,140.79917)" fill="#f58000"/>
<path transform="matrix(.1,0,0,-.1,0,284.55)" d="M 1109.95 1973.08 C 1109.95 1988.74 1097.26 2001.43 1081.6 2001.43 C 1065.95 2001.43 1053.25 1988.74 1053.25 1973.08 C 1053.25 1957.43 1065.95 1944.74 1081.6 1944.74 C 1097.26 1944.74 1109.95 1957.43 1109.95 1973.08 Z M 1081.6 1973.08 " fill="#f58000"/>
<use xlink:href="#font_0_3" transform="matrix(9.9626,0,0,-9.9626,111.93243,84.10617)" fill="#f58000"/>
<path transform="matrix(.1,0,0,-.1,0,284.55)" d="M 1109.95 2540.02 C 1109.95 2555.68 1097.26 2568.37 1081.6 2568.37 C 1065.95 2568.37 1053.25 2555.68 1053.25 2540.02 C 1053.25 2524.36 1065.95 2511.67 1081.6 2511.67 C 1097.26 2511.67 1109.95 2524.36 1109.95 2540.02 Z M 1081.6 2540.02 " fill="#f58000"/>
<use xlink:href="#font_0_4" transform="matrix(9.9626,0,0,-9.9626,111.93243,27.413178)" fill="#f58000"/>
<path transform="matrix(.1,0,0,-.1,0,284.55)" d="M 1676.89 272.277 C 1676.89 287.93 1664.2 300.621 1648.54 300.621 C 1632.88 300.621 1620.19 287.93 1620.19 272.277 C 1620.19 256.621 1632.88 243.93 1648.54 243.93 C 1664.2 243.93 1676.89 256.621 1676.89 272.277 Z M 1648.54 272.277 " fill="#f58000"/>
<use xlink:href="#font_0_6" transform="matrix(9.9626,0,0,-9.9626,169.09368,253.96599)" fill="#f58000"/>
<use xlink:href="#font_0_5" transform="matrix(9.9626,0,0,-9.9626,173.57683,254.18517)" fill="#f58000"/>
<path transform="matrix(.1,0,0,-.1,0,284.55)" d="M 1676.89 839.211 C 1676.89 854.867 1664.2 867.559 1648.54 867.559 C 1632.88 867.559 1620.19 854.867 1620.19 839.211 C 1620.19 823.555 1632.88 810.863 1648.54 810.863 C 1664.2 810.863 1676.89 823.555 1676.89 839.211 Z M 1648.54 839.211 " fill="#f58000"/>
<use xlink:href="#font_0_6" transform="matrix(9.9626,0,0,-9.9626,169.09368,197.27298)" fill="#f58000"/>
<use xlink:href="#font_0_6" transform="matrix(9.9626,0,0,-9.9626,174.07497,197.27298)" fill="#f58000"/>
<path transform="matrix(.1,0,0,-.1,0,284.55)" d="M 1676.89 1406.15 C 1676.89 1421.8 1664.2 1434.5 1648.54 1434.5 C 1632.88 1434.5 1620.19 1421.8 1620.19 1406.15 C 1620.19 1390.49 1632.88 1377.8 1648.54 1377.8 C 1664.2 1377.8 1676.89 1390.49 1676.89 1406.15 Z M 1648.54 1406.15 " fill="#f58000"/>
<use xlink:href="#font_0_6" transform="matrix(9.9626,0,0,-9.9626,169.09368,140.57999)" fill="#f58000"/>
<use xlink:href="#font_0_7" transform="matrix(9.9626,0,0,-9.9626,173.68642,140.57999)" fill="#f58000"/>
<path transform="matrix(.1,0,0,-.1,0,284.55)" d="M 1676.89 1973.08 C 1676.89 1988.74 1664.2 2001.43 1648.54 2001.43 C 1632.88 2001.43 1620.19 1988.74 1620.19 1973.08 C 1620.19 1957.43 1632.88 1944.74 1648.54 1944.74 C 1664.2 1944.74 1676.89 1957.43 1676.89 1973.08 Z M 1648.54 1973.08 " fill="#f58000"/>
<use xlink:href="#font_0_6" transform="matrix(9.9626,0,0,-9.9626,169.09368,83.88699)" fill="#f58000"/>
<use xlink:href="#font_0_8" transform="matrix(9.9626,0,0,-9.9626,173.60672,84.10617)" fill="#f58000"/>
<path transform="matrix(.1,0,0,-.1,0,284.55)" d="M 1676.89 2540.02 C 1676.89 2555.68 1664.2 2568.37 1648.54 2568.37 C 1632.88 2568.37 1620.19 2555.68 1620.19 2540.02 C 1620.19 2524.36 1632.88 2511.67 1648.54 2511.67 C 1664.2 2511.67 1676.89 2524.36 1676.89 2540.02 Z M 1648.54 2540.02 " fill="#f58000"/>
<use xlink:href="#font_0_6" transform="matrix(9.9626,0,0,-9.9626,169.09368,27.194)" fill="#f58000"/>
<use xlink:href="#font_0_9" transform="matrix(9.9626,0,0,-9.9626,173.46724,27.194)" fill="#f58000"/>
<path transform="matrix(.1,0,0,-.1,0,284.55)" d="M 2243.82 272.277 C 2243.82 287.93 2231.13 300.621 2215.47 300.621 C 2199.82 300.621 2187.13 287.93 2187.13 272.277 C 2187.13 256.621 2199.82 243.93 2215.47 243.93 C 2231.13 243.93 2243.82 256.621 2243.82 272.277 Z M 2215.47 272.277 " fill="#f58000"/>
<use xlink:href="#font_0_6" transform="matrix(9.9626,0,0,-9.9626,225.78667,253.96599)" fill="#f58000"/>
<use xlink:href="#font_0_a" transform="matrix(9.9626,0,0,-9.9626,230.37941,254.18517)" fill="#f58000"/>
<path transform="matrix(.1,0,0,-.1,0,284.55)" d="M 2243.82 839.211 C 2243.82 854.867 2231.13 867.559 2215.47 867.559 C 2199.82 867.559 2187.13 854.867 2187.13 839.211 C 2187.13 823.555 2199.82 810.863 2215.47 810.863 C 2231.13 810.863 2243.82 823.555 2243.82 839.211 Z M 2215.47 839.211 " fill="#f58000"/>
<use xlink:href="#font_0_6" transform="matrix(9.9626,0,0,-9.9626,225.78667,197.27298)" fill="#f58000"/>
<use xlink:href="#font_0_1" transform="matrix(9.9626,0,0,-9.9626,230.29972,197.49216)" fill="#f58000"/>
<path transform="matrix(.1,0,0,-.1,0,284.55)" d="M 2243.82 1406.15 C 2243.82 1421.8 2231.13 1434.5 2215.47 1434.5 C 2199.82 1434.5 2187.13 1421.8 2187.13 1406.15 C 2187.13 1390.49 2199.82 1377.8 2215.47 1377.8 C 2231.13 1377.8 2243.82 1390.49 2243.82 1406.15 Z M 2215.47 1406.15 " fill="#f58000"/>
<use xlink:href="#font_0_6" transform="matrix(9.9626,0,0,-9.9626,225.78667,140.57999)" fill="#f58000"/>
<use xlink:href="#font_0_2" transform="matrix(9.9626,0,0,-9.9626,230.4392,140.79917)" fill="#f58000"/>
<path transform="matrix(.1,0,0,-.1,0,284.55)" d="M 2243.82 1973.08 C 2243.82 1988.74 2231.13 2001.43 2215.47 2001.43 C 2199.82 2001.43 2187.13 1988.74 2187.13 1973.08 C 2187.13 1957.43 2199.82 1944.74 2215.47 1944.74 C 2231.13 1944.74 2243.82 1957.43 2243.82 1973.08 Z M 2215.47 1973.08 " fill="#f58000"/>
<use xlink:href="#font_0_6" transform="matrix(9.9626,0,0,-9.9626,225.78667,83.88699)" fill="#f58000"/>
<use xlink:href="#font_0_3" transform="matrix(9.9626,0,0,-9.9626,230.29972,84.10617)" fill="#f58000"/>
<path transform="matrix(.1,0,0,-.1,0,284.55)" d="M 2243.82 2540.02 C 2243.82 2555.68 2231.13 2568.37 2215.47 2568.37 C 2199.82 2568.37 2187.13 2555.68 2187.13 2540.02 C 2187.13 2524.36 2199.82 2511.67 2215.47 2511.67 C 2231.13 2511.67 2243.82 2524.36 2243.82 2540.02 Z M 2215.47 2540.02 " fill="#f58000"/>
<use xlink:href="#font_0_6" transform="matrix(9.9626,0,0,-9.9626,225.78667,27.194)" fill="#f58000"/>
<use xlink:href="#font_0_4" transform="matrix(9.9626,0,0,-9.9626,230.29972,27.413178)" fill="#f58000"/>
<path transform="matrix(.1,0,0,-.1,0,284.55)" stroke-width="9.9628" stroke-linecap="butt" stroke-miterlimit="10" stroke-linejoin="miter" fill="none" stroke="#929292" d="M 514.664 187.23 L 2300.88 187.23 "/>
<path transform="matrix(.1,0,0,-.1,0,284.55)" d="M 2362.6 187.23 C 2355.02 188.922 2321.71 198.5 2300.88 208.926 L 2300.88 165.535 C 2321.71 175.961 2355.02 185.539 2362.6 187.23 Z " fill="#929292"/>
<path transform="matrix(.1,0,0,-.1,0,284.55)" stroke-width="9.9628" stroke-linecap="butt" stroke-miterlimit="10" stroke-linejoin="miter" fill="none" stroke="#929292" d="M 2362.6 187.23 C 2355.02 188.922 2321.71 198.5 2300.88 208.926 L 2300.88 165.535 C 2321.71 175.961 2355.02 185.539 2362.6 187.23 Z "/>
<symbol id="font_1_1">
<path d="M .33900003 .272 L .51500007 .54 L .347 .54 L .26000003 .377 L .172 .54 L .0040000008 .54 L .18 .272 L 0 0 L .16800002 0 L .26000003 .16800002 L .351 0 L .51900008 0 L .33900003 .272 Z "/>
</symbol>
<use xlink:href="#font_1_1" transform="matrix(9.4645,0,0,-9.4645,242.06043,268.341)" fill="#929292"/>
<path transform="matrix(.1,0,0,-.1,0,284.55)" stroke-width="9.9628" stroke-linecap="butt" stroke-miterlimit="10" stroke-linejoin="miter" fill="none" stroke="#929292" d="M 514.664 187.23 L 514.664 144.719 "/>
<symbol id="font_2_1">
<path d="M .57600006 0 C .59300008 0 .611 0 .611 .019999996 C .611 .040000008 .59300008 .040000008 .57600006 .040000008 L .035000005 .040000008 C .018 .040000008 0 .040000008 0 .019999996 C 0 0 .018 0 .035000005 0 L .57600006 0 Z "/>
</symbol>
<use xlink:href="#font_2_1" transform="matrix(9.9626,0,0,-9.9626,38.832799,278.2734)" fill="#929292"/>
<use xlink:href="#font_0_1" transform="matrix(9.9626,0,0,-9.9626,46.17355,280.784)" fill="#929292"/>
<symbol id="font_3_1">
<path d="M .083000008 .72900006 L 0 .72900006 L 0 0 L .083000008 0 L .083000008 .20400001 L .16400002 .284 L .34100003 0 L .44400005 0 L .23000002 .34300003 L .41200004 .52400007 L .305 .52400007 L .083000008 .30200003 L .083000008 .72900006 Z "/>
</symbol>
<symbol id="font_3_2">
<path d="M 0 .52400007 L 0 0 L .084000017 0 L .084000017 .32900004 C .084000017 .40500004 .139 .46600003 .20700002 .46600003 C .26900003 .46600003 .30400003 .42800004 .30400003 .36100004 L .30400003 0 L .38800005 0 L .38800005 .32900004 C .38800005 .40500004 .44300003 .46600003 .51100006 .46600003 C .572 .46600003 .60800006 .42700003 .60800006 .36100004 L .60800006 0 L .69200006 0 L .69200006 .393 C .69200006 .48700003 .638 .53900006 .54 .53900006 C .47000004 .53900006 .42800004 .518 .37900005 .45900003 C .34800003 .51500007 .30600003 .53900006 .23800004 .53900006 C .16800002 .53900006 .122 .513 .077 .45000003 L .077 .52400007 L 0 .52400007 Z "/>
</symbol>
<use xlink:href="#font_3_1" transform="matrix(9.4645,0,0,-9.4645,52.86187,280.56483)" fill="#929292"/>
<use xlink:href="#font_3_2" transform="matrix(9.4645,0,0,-9.4645,57.70769,280.56483)" fill="#929292"/>
<path transform="matrix(.1,0,0,-.1,0,284.55)" stroke-width="9.9628" stroke-linecap="butt" stroke-miterlimit="10" stroke-linejoin="miter" fill="none" stroke="#929292" d="M 1081.6 187.23 L 1081.6 144.719 "/>
<use xlink:href="#font_2_1" transform="matrix(9.9626,0,0,-9.9626,95.525699,278.2734)" fill="#929292"/>
<use xlink:href="#font_0_7" transform="matrix(9.9626,0,0,-9.9626,102.94498,280.56483)" fill="#929292"/>
<use xlink:href="#font_3_1" transform="matrix(9.4645,0,0,-9.4645,109.55477,280.56483)" fill="#929292"/>
<use xlink:href="#font_3_2" transform="matrix(9.4645,0,0,-9.4645,114.4006,280.56483)" fill="#929292"/>
<path transform="matrix(.1,0,0,-.1,0,284.55)" stroke-width="9.9628" stroke-linecap="butt" stroke-miterlimit="10" stroke-linejoin="miter" fill="none" stroke="#929292" d="M 1648.54 187.23 L 1648.54 144.719 "/>
<use xlink:href="#font_0_7" transform="matrix(9.9626,0,0,-9.9626,155.76413,280.56483)" fill="#929292"/>
<use xlink:href="#font_3_1" transform="matrix(9.4645,0,0,-9.4645,162.37392,280.56483)" fill="#929292"/>
<use xlink:href="#font_3_2" transform="matrix(9.4645,0,0,-9.4645,167.21976,280.56483)" fill="#929292"/>
<path transform="matrix(.1,0,0,-.1,0,284.55)" stroke-width="9.9628" stroke-linecap="butt" stroke-miterlimit="10" stroke-linejoin="miter" fill="none" stroke="#929292" d="M 2215.47 187.23 L 2215.47 144.719 "/>
<use xlink:href="#font_0_1" transform="matrix(9.9626,0,0,-9.9626,212.37743,280.784)" fill="#929292"/>
<use xlink:href="#font_3_1" transform="matrix(9.4645,0,0,-9.4645,219.06691,280.56483)" fill="#929292"/>
<use xlink:href="#font_3_2" transform="matrix(9.4645,0,0,-9.4645,223.91275,280.56483)" fill="#929292"/>
<path transform="matrix(.1,0,0,-.1,0,284.55)" stroke-width="9.9628" stroke-linecap="butt" stroke-miterlimit="10" stroke-linejoin="miter" fill="none" stroke="#929292" d="M 429.621 272.277 L 429.621 2625.43 "/>
<path transform="matrix(.1,0,0,-.1,0,284.55)" d="M 429.621 2687.15 C 427.93 2679.57 418.352 2646.25 407.926 2625.43 L 451.316 2625.43 C 440.891 2646.25 431.313 2679.57 429.621 2687.15 Z " fill="#929292"/>
<path transform="matrix(.1,0,0,-.1,0,284.55)" stroke-width="9.9628" stroke-linecap="butt" stroke-miterlimit="10" stroke-linejoin="miter" fill="none" stroke="#929292" d="M 429.621 2687.15 C 427.93 2679.57 418.352 2646.25 407.926 2625.43 L 451.316 2625.43 C 440.891 2646.25 431.313 2679.57 429.621 2687.15 Z "/>
<symbol id="font_1_2">
<path d="M .38500003 .75900009 L .273 .366 L .154 .75900009 L 0 .75900009 L .201 .19700001 L .201 .19600001 L .201 .19300002 C .201 .142 .163 .10300001 .114 .10300001 C .103 .10300001 .095 .10400001 .077 .109000008 L .077 .004000008 C .098000008 .001000002 .11 0 .127 0 C .162 0 .20400001 .0069999995 .22800002 .017000005 C .26700003 .033000009 .284 .05600001 .307 .120000008 L .52900007 .75900009 L .38500003 .75900009 Z "/>
</symbol>
<use xlink:href="#font_1_2" transform="matrix(9.4645,0,0,-9.4645,40.417184,10.265718)" fill="#929292"/>
<path transform="matrix(.1,0,0,-.1,0,284.55)" stroke-width="9.9628" stroke-linecap="butt" stroke-miterlimit="10" stroke-linejoin="miter" fill="none" stroke="#929292" d="M 429.621 272.277 L 387.109 272.277 "/>
<use xlink:href="#font_2_1" transform="matrix(9.9626,0,0,-9.9626,3.981976,258.0316)" fill="#929292"/>
<use xlink:href="#font_0_6" transform="matrix(9.9626,0,0,-9.9626,11.789802,260.323)" fill="#929292"/>
<use xlink:href="#font_0_1" transform="matrix(9.9626,0,0,-9.9626,16.302859,260.54219)" fill="#929292"/>
<use xlink:href="#font_3_1" transform="matrix(9.4645,0,0,-9.4645,22.99307,260.323)" fill="#929292"/>
<use xlink:href="#font_3_2" transform="matrix(9.4645,0,0,-9.4645,27.838896,260.323)" fill="#929292"/>
<path transform="matrix(.1,0,0,-.1,0,284.55)" stroke-width="9.9628" stroke-linecap="butt" stroke-miterlimit="10" stroke-linejoin="miter" fill="none" stroke="#929292" d="M 429.621 839.211 L 387.109 839.211 "/>
<use xlink:href="#font_2_1" transform="matrix(9.9626,0,0,-9.9626,3.981976,201.3387)" fill="#929292"/>
<use xlink:href="#font_0_6" transform="matrix(9.9626,0,0,-9.9626,11.789802,203.6301)" fill="#929292"/>
<use xlink:href="#font_0_7" transform="matrix(9.9626,0,0,-9.9626,16.38256,203.6301)" fill="#929292"/>
<use xlink:href="#font_3_1" transform="matrix(9.4645,0,0,-9.4645,22.99307,203.6301)" fill="#929292"/>
<use xlink:href="#font_3_2" transform="matrix(9.4645,0,0,-9.4645,27.838896,203.6301)" fill="#929292"/>
<path transform="matrix(.1,0,0,-.1,0,284.55)" stroke-width="9.9628" stroke-linecap="butt" stroke-miterlimit="10" stroke-linejoin="miter" fill="none" stroke="#929292" d="M 429.621 1406.15 L 387.109 1406.15 "/>
<use xlink:href="#font_2_1" transform="matrix(9.9626,0,0,-9.9626,8.962835,144.64659)" fill="#929292"/>
<use xlink:href="#font_0_3" transform="matrix(9.9626,0,0,-9.9626,16.303589,147.15717)" fill="#929292"/>
<use xlink:href="#font_3_1" transform="matrix(9.4645,0,0,-9.4645,22.99308,146.93799)" fill="#929292"/>
<use xlink:href="#font_3_2" transform="matrix(9.4645,0,0,-9.4645,27.838906,146.93799)" fill="#929292"/>
<path transform="matrix(.1,0,0,-.1,0,284.55)" stroke-width="9.9628" stroke-linecap="butt" stroke-miterlimit="10" stroke-linejoin="miter" fill="none" stroke="#929292" d="M 429.621 1973.08 L 387.109 1973.08 "/>
<use xlink:href="#font_2_1" transform="matrix(9.9626,0,0,-9.9626,8.962835,87.9536)" fill="#929292"/>
<use xlink:href="#font_0_9" transform="matrix(9.9626,0,0,-9.9626,16.164113,90.244998)" fill="#929292"/>
<use xlink:href="#font_3_1" transform="matrix(9.4645,0,0,-9.4645,22.99308,90.244998)" fill="#929292"/>
<use xlink:href="#font_3_2" transform="matrix(9.4645,0,0,-9.4645,27.838906,90.244998)" fill="#929292"/>
<path transform="matrix(.1,0,0,-.1,0,284.55)" stroke-width="9.9628" stroke-linecap="butt" stroke-miterlimit="10" stroke-linejoin="miter" fill="none" stroke="#929292" d="M 429.621 2540.02 L 387.109 2540.02 "/>
<use xlink:href="#font_0_5" transform="matrix(9.9626,0,0,-9.9626,16.27374,34.186174)" fill="#929292"/>
<use xlink:href="#font_3_1" transform="matrix(9.4645,0,0,-9.4645,22.99312,33.966997)" fill="#929292"/>
<use xlink:href="#font_3_2" transform="matrix(9.4645,0,0,-9.4645,27.838946,33.966997)" fill="#929292"/>
</g>
</svg>
