<?xml version="1.0" encoding="UTF-8" standalone="no"?>
<!DOCTYPE svg PUBLIC "-//W3C//DTD SVG 1.1//EN" "http://www.w3.org/Graphics/SVG/1.1/DTD/svg11.dtd">
<svg xmlns="http://www.w3.org/2000/svg" xmlns:xlink="http://www.w3.org/1999/xlink" version="1.1" width="274.08pt" height="258.1pt" viewBox="0 0 274.08 258.1">
<g enable-background="new">
<path transform="matrix(.1,0,0,-.1,0,258.1)" d="M 520.027 156.594 L 2220.837 156.594 L 2220.837 2424.344 L 520.027 2424.344 Z " fill="#cceeff"/>
<path transform="matrix(.1,0,0,-.1,0,258.1)" stroke-width="9.9628" stroke-linecap="butt" stroke-miterlimit="10" stroke-linejoin="miter" fill="none" stroke="#1f6e96" d="M 520.027 156.594 L 2220.837 156.594 L 2220.837 2424.344 L 520.027 2424.344 Z "/>
<path transform="matrix(.1,0,0,-.1,0,258.1)" stroke-width="19.9255" stroke-linecap="butt" stroke-miterlimit="10" stroke-linejoin="miter" fill="none" stroke="#6100ad" d="M 520.027 1460.56 L 520.027 1201.07 "/>
<path transform="matrix(.1,0,0,-.1,0,258.1)" d="M 520.027 1161.71 C 521.207 1166.54 527.891 1187.79 535.164 1201.07 L 504.887 1201.07 C 512.16 1187.79 518.848 1166.54 520.027 1161.71 Z " fill="#6100ad"/>
<path transform="matrix(.1,0,0,-.1,0,258.1)" stroke-width="17.9326" stroke-linecap="butt" stroke-miterlimit="10" stroke-linejoin="miter" fill="none" stroke="#6100ad" d="M 520.027 1161.71 C 521.207 1166.54 527.891 1187.79 535.164 1201.07 L 504.887 1201.07 C 512.16 1187.79 518.848 1166.54 520.027 1161.71 Z "/>
<symbol id="font_0_1">
<path d="M .321 .067 C .33200003 .026 .367 0 .41 0 C .44500003 0 .468 .023000002 .484 .055000005 C .50100007 .091000009 .51400008 .15200001 .51400008 .15400002 C .51400008 .16400002 .50500008 .16400002 .50200006 .16400002 C .492 .16400002 .49100004 .16000001 .488 .14600002 C .474 .09 .455 .022000002 .41300003 .022000002 C .39200003 .022000002 .382 .035 .382 .068 C .382 .09 .394 .13700001 .402 .17200002 L .43 .28000004 C .433 .29500003 .44300003 .33300004 .447 .34800003 C .45200003 .37100003 .462 .40900005 .462 .41500003 C .462 .43300004 .448 .44200004 .433 .44200004 C .428 .44200004 .402 .441 .394 .40700004 C .375 .33400003 .331 .15900001 .319 .106000009 C .318 .102000009 .278 .022000002 .20500002 .022000002 C .15300001 .022000002 .143 .067 .143 .104 C .143 .16000001 .171 .23900002 .19700001 .30800004 C .209 .33800004 .21400002 .35200004 .21400002 .37100003 C .21400002 .41600005 .18200001 .45300005 .13200002 .45300005 C .037 .45300005 0 .30800004 0 .29900003 C 0 .28900004 .01 .28900004 .012 .28900004 C .022000002 .28900004 .023 .291 .028000003 .307 C .053000004 .39400003 .091000009 .43100003 .12900001 .43100003 C .13800001 .43100003 .15400002 .43000005 .15400002 .39800004 C .15400002 .374 .143 .34500004 .13700001 .33 C .10000001 .23100002 .079 .16900002 .079 .120000008 C .079 .025000003 .148 0 .202 0 C .268 0 .304 .045 .321 .067 Z "/>
</symbol>
<use xlink:href="#font_0_1" transform="matrix(9.9626,0,0,-9.9626,8.424855,125.5746)" fill="#6100ad"/>
<symbol id="font_1_2">
<path d="M .201 .116000007 C .19100002 .082 .15800002 .028 .107 .028 C .10400001 .028 .07400001 .028 .053000004 .042000005 C .094000007 .055000005 .09700001 .091 .09700001 .097 C .09700001 .119 .080000009 .134 .057000005 .134 C .029000007 .134 0 .11 0 .073 C 0 .023000002 .056 0 .10500001 0 C .15100003 0 .192 .029000003 .21700001 .071 C .241 .018000002 .296 0 .336 0 C .451 0 .512 .125 .512 .15300001 C .512 .16600001 .49900005 .16600001 .49600003 .16600001 C .48200003 .16600001 .48100005 .16100002 .47700004 .14900002 C .456 .08 .39600004 .028 .34 .028 C .3 .028 .279 .055000005 .279 .093 C .279 .119 .303 .21000001 .331 .321 C .351 .398 .39600004 .423 .42900003 .423 C .43100003 .423 .46200005 .423 .483 .409 C .451 .4 .439 .372 .439 .354 C .439 .33200003 .456 .317 .479 .317 C .50200006 .317 .535 .336 .535 .37800003 C .535 .43400003 .47100006 .451 .43100003 .451 C .381 .451 .34100003 .418 .319 .38 C .301 .421 .255 .451 .199 .451 C .087000008 .451 .023000002 .328 .023000002 .298 C .023000002 .285 .037 .285 .040000008 .285 C .053000004 .285 .054000006 .289 .059000009 .30200003 C .084 .38 .14700002 .423 .19600001 .423 C .229 .423 .256 .405 .256 .357 C .256 .337 .24400002 .287 .23500002 .25300003 L .201 .116000007 Z "/>
</symbol>
<use xlink:href="#font_1_2" transform="matrix(6.9738,0,0,-6.9738,14.173812,127.02889)" fill="#6100ad"/>
<symbol id="font_2_1">
<path d="M .63100007 .19400002 C .646 .19400002 .665 .19400002 .665 .214 C .665 .23400001 .646 .23400001 .632 .23400001 L .033 .23400001 C .019000002 .23400001 0 .23400001 0 .214 C 0 .19400002 .019000002 .19400002 .034 .19400002 L .63100007 .19400002 M .632 0 C .646 0 .665 0 .665 .02000001 C .665 .040000008 .646 .040000008 .63100007 .040000008 L .034 .040000008 C .019000002 .040000008 0 .040000008 0 .02000001 C 0 0 .019000002 0 .033 0 L .632 0 Z "/>
</symbol>
<use xlink:href="#font_2_1" transform="matrix(9.9626,0,0,-9.9626,22.179785,124.139987)" fill="#6100ad"/>
<symbol id="font_0_2">
<path d="M .33300004 .38900004 C .31500004 .42600004 .286 .45300005 .24100001 .45300005 C .124 .45300005 0 .30600003 0 .16000001 C 0 .06600001 .055000005 0 .133 0 C .153 0 .20300001 .0040000008 .263 .075 C .27100004 .033000005 .30600003 0 .35400004 0 C .38900004 0 .41200004 .023000002 .42800004 .055000005 C .44500003 .091000009 .45800004 .15200001 .45800004 .15400002 C .45800004 .16400002 .44900004 .16400002 .44600005 .16400002 C .43600003 .16400002 .43500004 .16000001 .43200005 .14600002 C .41500003 .081 .397 .022000002 .35600005 .022000002 C .32900004 .022000002 .32600004 .048 .32600004 .068 C .32600004 .09 .32800005 .098000008 .33900003 .14200002 C .35000003 .18400002 .35200004 .19400002 .36100004 .23200003 L .397 .37200005 C .40400005 .40000005 .40400005 .40200005 .40400005 .40600003 C .40400005 .42300005 .39200003 .43300004 .37500004 .43300004 C .35100005 .43300004 .33600004 .411 .33300004 .38900004 M .26800005 .13000001 C .263 .112 .263 .11000001 .24800001 .093 C .20400001 .038000004 .163 .022000002 .135 .022000002 C .08499999 .022000002 .07100001 .077 .07100001 .116000007 C .07100001 .16600001 .103 .28900004 .126 .335 C .157 .39400003 .202 .43100003 .242 .43100003 C .307 .43100003 .32100005 .34900005 .32100005 .34300003 C .32100005 .337 .31900005 .33100004 .31800003 .32600004 L .26800005 .13000001 Z "/>
</symbol>
<symbol id="font_0_4">
<path d="M .45700003 .586 C .461 .6 .461 .602 .461 .609 C .461 .62700006 .447 .63600006 .432 .63600006 C .42200003 .63600006 .40600003 .63 .397 .615 C .395 .61 .387 .579 .38300003 .561 C .37600003 .535 .36900003 .508 .363 .48100005 L .318 .301 C .314 .286 .271 .21600002 .20500002 .21600002 C .15400002 .21600002 .143 .26000003 .143 .29700003 C .143 .34300003 .16000001 .40500004 .194 .49300004 C .21000001 .53400006 .21400002 .545 .21400002 .56500008 C .21400002 .61 .18200001 .6470001 .13200002 .6470001 C .037 .6470001 0 .50200006 0 .49300004 C 0 .48300005 .01 .48300005 .012 .48300005 C .022000002 .48300005 .023 .485 .028000003 .50100007 C .055000009 .595 .095000009 .625 .12900001 .625 C .13700001 .625 .15400002 .625 .15400002 .59300008 C .15400002 .568 .14400001 .54200008 .13700001 .523 C .097 .41700004 .079 .36 .079 .31300003 C .079 .224 .142 .194 .201 .194 C .24000003 .194 .274 .21100001 .30200003 .23900002 C .289 .187 .277 .13800001 .237 .08500001 C .21100001 .051 .17300001 .022 .127 .022 C .113000009 .022 .068 .025000006 .051000008 .06400001 C .067 .06400001 .080000009 .06400001 .094000007 .076000008 C .104 .08500001 .11400001 .098000008 .11400001 .117000009 C .11400001 .148 .087000008 .15200001 .07700001 .15200001 C .054000006 .15200001 .021 .136 .021 .087000008 C .021 .037 .065000008 0 .127 0 C .23 0 .333 .091000009 .361 .20400001 L .45700003 .586 Z "/>
</symbol>
<use xlink:href="#font_0_2" transform="matrix(9.9626,0,0,-9.9626,32.53638,125.5746)" fill="#6100ad"/>
<use xlink:href="#font_0_4" transform="matrix(9.9626,0,0,-9.9626,37.69302,127.50735)" fill="#6100ad"/>
<use xlink:href="#font_0_1" transform="matrix(9.9626,0,0,-9.9626,8.424793,137.5297)" fill="#6100ad"/>
<symbol id="font_1_3">
<path d="M .50900009 .58100005 C .513 .595 .513 .597 .513 .60300007 C .513 .623 .49700005 .63500007 .48000003 .63500007 C .46900005 .63500007 .45000003 .63000008 .43900005 .611 C .43600003 .605 .42800004 .573 .42300005 .55300006 L .40200005 .47000004 C .39600004 .44600005 .36500005 .32000003 .36200003 .30900003 C .36100004 .30900003 .31700004 .22200002 .23900001 .22200002 C .171 .22200002 .171 .287 .171 .305 C .171 .35900004 .194 .42200003 .22400002 .499 C .23600002 .531 .24100001 .54300007 .24100001 .56 C .24100001 .60800006 .2 .64500007 .146 .64500007 C .045000007 .64500007 0 .509 0 .49200005 C 0 .47900004 .014000002 .47900004 .017 .47900004 C .031 .47900004 .032 .48400004 .035 .495 C .060000007 .578 .103 .61700007 .143 .61700007 C .16000001 .61700007 .168 .606 .168 .582 C .168 .559 .15900001 .537 .154 .52400007 C .106000009 .402 .096 .365 .096 .321 C .096 .30400003 .096 .25700004 .135 .22500001 C .16600001 .19900002 .20800002 .194 .235 .194 C .27500005 .194 .31100003 .209 .34400005 .23900001 C .33100004 .18400002 .32000003 .142 .27800004 .09200001 C .25100003 .061000006 .21100001 .027999998 .158 .027999998 C .15100001 .027999998 .104 .027999998 .083000008 .061000006 C .13700001 .067 .13700001 .11500001 .13700001 .116000007 C .13700001 .148 .107999999 .15400002 .098000008 .15400002 C .073 .15400002 .040000004 .134 .040000004 .08800001 C .040000004 .037 .088 0 .15900001 0 C .26000003 0 .38300003 .07800001 .41400004 .20300001 L .50900009 .58100005 Z "/>
</symbol>
<use xlink:href="#font_1_3" transform="matrix(6.9738,0,0,-6.9738,14.166776,140.3369)" fill="#6100ad"/>
<use xlink:href="#font_2_1" transform="matrix(9.9626,0,0,-9.9626,21.952773,136.09508)" fill="#6100ad"/>
<symbol id="font_0_3">
<path d="M .305 .31300003 C .311 .33900003 .334 .43100003 .404 .43100003 C .409 .43100003 .433 .43100003 .454 .418 C .426 .41300003 .40600003 .388 .40600003 .36400003 C .40600003 .34800003 .417 .32900004 .444 .32900004 C .46600003 .32900004 .498 .34700004 .498 .38700003 C .498 .43900005 .439 .45300005 .405 .45300005 C .347 .45300005 .312 .40000005 .3 .37700004 C .275 .44300003 .221 .45300005 .19200002 .45300005 C .08800001 .45300005 .031000002 .32400004 .031000002 .29900003 C .031000002 .28900004 .041 .28900004 .043000007 .28900004 C .051000008 .28900004 .054000006 .291 .056 .3 C .09 .40600003 .156 .43100003 .19000001 .43100003 C .209 .43100003 .244 .42200003 .244 .36400003 C .244 .33300004 .22700002 .26600004 .19000001 .126 C .17400001 .064 .13900002 .022000002 .095000009 .022000002 C .08900001 .022000002 .06600001 .022000002 .045 .035 C .07000001 .040000004 .09200001 .061 .09200001 .089 C .09200001 .116000007 .07000001 .124000009 .055000009 .124000009 C .025 .124000009 0 .098000008 0 .06600001 C 0 .020000002 .050000006 0 .094000007 0 C .16000001 0 .19600001 .07000001 .19900002 .076000008 C .21100001 .039 .24700003 0 .307 0 C .41 0 .467 .12900001 .467 .15400002 C .467 .16400002 .458 .16400002 .455 .16400002 C .446 .16400002 .444 .16000001 .442 .15300001 C .409 .046 .341 .022000002 .30900003 .022000002 C .27 .022000002 .254 .054 .254 .08800001 C .254 .11000001 .26 .13200002 .271 .17600002 L .305 .31300003 Z "/>
</symbol>
<use xlink:href="#font_0_2" transform="matrix(9.9626,0,0,-9.9626,32.30937,137.5297)" fill="#6100ad"/>
<use xlink:href="#font_0_3" transform="matrix(9.9626,0,0,-9.9626,37.466009,137.5297)" fill="#6100ad"/>
<path transform="matrix(.1,0,0,-.1,0,258.1)" stroke-width="19.9255" stroke-linecap="butt" stroke-miterlimit="10" stroke-linejoin="miter" fill="none" stroke="#6100ad" d="M 2220.84 1120.38 L 2220.84 1379.86 "/>
<path transform="matrix(.1,0,0,-.1,0,258.1)" d="M 2220.84 1419.23 C 2219.66 1414.39 2212.97 1393.14 2205.7 1379.86 L 2235.97 1379.86 C 2228.7 1393.14 2222.02 1414.39 2220.84 1419.23 Z " fill="#6100ad"/>
<path transform="matrix(.1,0,0,-.1,0,258.1)" stroke-width="17.9326" stroke-linecap="butt" stroke-miterlimit="10" stroke-linejoin="miter" fill="none" stroke="#6100ad" d="M 2220.84 1419.23 C 2219.66 1414.39 2212.97 1393.14 2205.7 1379.86 L 2235.97 1379.86 C 2228.7 1393.14 2222.02 1414.39 2220.84 1419.23 Z "/>
<use xlink:href="#font_0_1" transform="matrix(9.9626,0,0,-9.9626,231.50292,125.5746)" fill="#6100ad"/>
<use xlink:href="#font_1_2" transform="matrix(6.9738,0,0,-6.9738,237.25188,127.02889)" fill="#6100ad"/>
<use xlink:href="#font_2_1" transform="matrix(9.9626,0,0,-9.9626,245.25785,124.139987)" fill="#6100ad"/>
<use xlink:href="#font_0_2" transform="matrix(9.9626,0,0,-9.9626,255.61563,125.5746)" fill="#6100ad"/>
<use xlink:href="#font_0_4" transform="matrix(9.9626,0,0,-9.9626,260.77229,127.50735)" fill="#6100ad"/>
<use xlink:href="#font_0_1" transform="matrix(9.9626,0,0,-9.9626,231.50295,137.5297)" fill="#6100ad"/>
<use xlink:href="#font_1_3" transform="matrix(6.9738,0,0,-6.9738,237.24494,140.3369)" fill="#6100ad"/>
<use xlink:href="#font_2_1" transform="matrix(9.9626,0,0,-9.9626,245.03093,136.09508)" fill="#6100ad"/>
<use xlink:href="#font_0_2" transform="matrix(9.9626,0,0,-9.9626,255.38753,137.5297)" fill="#6100ad"/>
<use xlink:href="#font_0_3" transform="matrix(9.9626,0,0,-9.9626,260.54417,137.5297)" fill="#6100ad"/>
<path transform="matrix(.1,0,0,-.1,0,258.1)" stroke-width="19.9255" stroke-linecap="butt" stroke-miterlimit="10" stroke-linejoin="miter" fill="none" stroke="#6100ad" d="M 1540.52 156.594 L 1281.04 156.594 "/>
<path transform="matrix(.1,0,0,-.1,0,258.1)" d="M 1241.67 156.594 C 1246.51 155.414 1267.76 148.73 1281.04 141.457 L 1281.04 171.734 C 1267.76 164.461 1246.51 157.773 1241.67 156.594 Z " fill="#6100ad"/>
<path transform="matrix(.1,0,0,-.1,0,258.1)" stroke-width="17.9326" stroke-linecap="butt" stroke-miterlimit="10" stroke-linejoin="miter" fill="none" stroke="#6100ad" d="M 1241.67 156.594 C 1246.51 155.414 1267.76 148.73 1281.04 141.457 L 1281.04 171.734 C 1267.76 164.461 1246.51 157.773 1241.67 156.594 Z "/>
<symbol id="font_0_5">
<path d="M .267 .38500003 L .435 .38500003 C .448 .38500003 .48400004 .38500003 .48400004 .419 C .48400004 .44300003 .463 .44300003 .444 .44300003 L .16400002 .44300003 C .14400001 .44300003 .105 .44300003 .061000006 .396 C .028000003 .36 0 .312 0 .306 C 0 .305 0 .296 .012 .296 C .020000002 .296 .022000002 .3 .028000003 .308 C .077 .38500003 .13400002 .38500003 .15500002 .38500003 L .23800002 .38500003 L .14000002 .064 C .136 .052 .13000001 .031000002 .13000001 .027 C .13000001 .016 .13700001 0 .15900001 0 C .19200002 0 .19700001 .028 .20000002 .043 L .267 .38500003 Z "/>
</symbol>
<use xlink:href="#font_0_5" transform="matrix(9.9626,0,0,-9.9626,114.73899,253.12737)" fill="#6100ad"/>
<symbol id="font_1_1">
<path d="M .204 .405 L .30600003 .405 C .32500003 .405 .33800004 .405 .33800004 .42700003 C .33800004 .441 .32500003 .441 .30800004 .441 L .21300003 .441 L .25000004 .58900007 C .25100003 .59400007 .25300003 .59900006 .25300003 .60300007 C .25300003 .621 .23900002 .635 .21900001 .635 C .194 .635 .17900002 .61800006 .17200002 .592 C .16500002 .56700006 .178 .615 .134 .441 L .031999999 .441 C .013 .441 0 .441 0 .419 C 0 .405 .011999998 .405 .030000002 .405 L .125 .405 L .066 .16900002 C .060000004 .14400001 .051 .108 .051 .095 C .051 .036000004 .101 0 .15799999 0 C .26900003 0 .33200003 .14000002 .33200003 .15300001 C .33200003 .16600001 .31900005 .16600001 .316 .16600001 C .30400003 .16600001 .30300004 .16400002 .29500003 .14700002 C .26700003 .084 .21600002 .028 .16100002 .028 C .14000002 .028 .12600002 .041 .12600002 .077 C .12600002 .087000008 .13 .108 .132 .118 L .204 .405 Z "/>
</symbol>
<use xlink:href="#font_1_1" transform="matrix(6.9738,0,0,-6.9738,119.11798,254.57286)" fill="#6100ad"/>
<use xlink:href="#font_2_1" transform="matrix(9.9626,0,0,-9.9626,125.65799,251.68279)" fill="#6100ad"/>
<symbol id="font_3_1">
<path d="M .57600006 0 C .59300008 0 .611 0 .611 .019999996 C .611 .040000008 .59300008 .040000008 .57600006 .040000008 L .035000005 .040000008 C .018 .040000008 0 .040000008 0 .019999996 C 0 0 .018 0 .035000005 0 L .57600006 0 Z "/>
</symbol>
<use xlink:href="#font_3_1" transform="matrix(9.9626,0,0,-9.9626,136.44298,250.71642)" fill="#6100ad"/>
<symbol id="font_2_2">
<path d="M .07700001 .07700001 L .18300002 .18 C .33900003 .31800003 .39900003 .372 .39900003 .47200004 C .39900003 .586 .30900003 .666 .18700002 .666 C .074 .666 0 .574 0 .485 C 0 .42900003 .05 .42900003 .053000008 .42900003 C .07000001 .42900003 .105000007 .441 .105000007 .48200003 C .105000007 .508 .08700001 .53400006 .052000006 .53400006 C .044000005 .53400006 .042000008 .53400006 .039 .53300008 C .062000004 .59800007 .11600001 .63500007 .17400001 .63500007 C .26500003 .63500007 .308 .554 .308 .47200004 C .308 .39200003 .25800003 .31300003 .20300003 .25100003 L .011000004 .037 C 0 .026 0 .024 0 0 L .37100003 0 L .39900003 .17400001 L .374 .17400001 C .36900003 .14400001 .36200003 .1 .352 .085 C .345 .07700001 .279 .07700001 .257 .07700001 L .07700001 .07700001 Z "/>
</symbol>
<use xlink:href="#font_2_2" transform="matrix(9.9626,0,0,-9.9626,143.86304,253.00782)" fill="#6100ad"/>
<symbol id="font_0_6">
<path d="M .201 .56700006 C .20600002 .588 .216 .62600007 .216 .63100007 C .216 .648 .20400001 .65800008 .187 .65800008 C .18400002 .65800008 .156 .657 .147 .62200006 L .0029999987 .042999999 C 0 .031000004 0 .029 0 .026999996 C 0 .0119999949 .011 0 .028 0 C .049000004 0 .061000006 .017999992 .063 .020999998 C .067 .030000002 .080000009 .082 .118 .236 C .15 .209 .19500001 .205 .215 .205 C .28500004 .205 .324 .25 .34800003 .278 C .35700003 .23300001 .39400003 .205 .43800003 .205 C .47300003 .205 .49600003 .228 .5120001 .26000003 C .52900007 .296 .54200008 .357 .54200008 .35900004 C .54200008 .36900003 .533 .36900003 .53 .36900003 C .52 .36900003 .51900008 .365 .51600006 .351 C .49900005 .286 .48100005 .22700002 .44000004 .22700002 C .41300003 .22700002 .41000004 .25300003 .41000004 .273 C .41000004 .29500003 .42200003 .342 .43 .37700004 L .45800004 .485 C .46100004 .5 .47100006 .53800007 .475 .55300006 C .48000006 .57600006 .49000005 .614 .49000005 .62 C .49000005 .638 .47600005 .647 .46100004 .647 C .45600004 .647 .43 .646 .42200003 .61200007 L .37500004 .425 C .363 .375 .35200004 .333 .349 .323 C .34800003 .31800003 .3 .22700002 .21900001 .22700002 C .16900002 .22700002 .14500001 .26000003 .14500001 .314 C .14500001 .343 .15200001 .371 .15900001 .39900003 L .201 .56700006 Z "/>
</symbol>
<use xlink:href="#font_0_6" transform="matrix(9.9626,0,0,-9.9626,148.64504,255.15973)" fill="#6100ad"/>
<use xlink:href="#font_0_2" transform="matrix(9.9626,0,0,-9.9626,154.74813,253.1174)" fill="#6100ad"/>
<path transform="matrix(.1,0,0,-.1,0,258.1)" stroke-width="19.9255" stroke-linecap="butt" stroke-miterlimit="10" stroke-linejoin="miter" fill="none" stroke="#6100ad" d="M 1200.34 2424.34 L 1459.82 2424.34 "/>
<path transform="matrix(.1,0,0,-.1,0,258.1)" d="M 1499.19 2424.34 C 1494.36 2425.52 1473.11 2432.2 1459.82 2439.48 L 1459.82 2409.2 C 1473.11 2416.48 1494.36 2423.16 1499.19 2424.34 Z " fill="#6100ad"/>
<path transform="matrix(.1,0,0,-.1,0,258.1)" stroke-width="17.9326" stroke-linecap="butt" stroke-miterlimit="10" stroke-linejoin="miter" fill="none" stroke="#6100ad" d="M 1499.19 2424.34 C 1494.36 2425.52 1473.11 2432.2 1459.82 2439.48 L 1459.82 2409.2 C 1473.11 2416.48 1494.36 2423.16 1499.19 2424.34 Z "/>
<use xlink:href="#font_0_5" transform="matrix(9.9626,0,0,-9.9626,114.73899,9.697555)" fill="#6100ad"/>
<use xlink:href="#font_1_1" transform="matrix(6.9738,0,0,-6.9738,119.11798,11.141485)" fill="#6100ad"/>
<use xlink:href="#font_2_1" transform="matrix(9.9626,0,0,-9.9626,125.65799,8.252977)" fill="#6100ad"/>
<use xlink:href="#font_3_1" transform="matrix(9.9626,0,0,-9.9626,136.44298,7.286605)" fill="#6100ad"/>
<use xlink:href="#font_2_2" transform="matrix(9.9626,0,0,-9.9626,143.86304,9.578003)" fill="#6100ad"/>
<use xlink:href="#font_0_6" transform="matrix(9.9626,0,0,-9.9626,148.64504,11.729924)" fill="#6100ad"/>
<use xlink:href="#font_0_2" transform="matrix(9.9626,0,0,-9.9626,154.74813,9.687592)" fill="#6100ad"/>
</g>
</svg>
