<?xml version="1.0" encoding="UTF-8" standalone="no"?>
<!DOCTYPE svg PUBLIC "-//W3C//DTD SVG 1.1//EN" "http://www.w3.org/Graphics/SVG/1.1/DTD/svg11.dtd">
<svg xmlns="http://www.w3.org/2000/svg" xmlns:xlink="http://www.w3.org/1999/xlink" version="1.1" width="336.57pt" height="269.08pt" viewBox="0 0 336.57 269.08">
<g enable-background="new">
<path transform="matrix(.1,0,0,-.1,0,269.08)" d="M 832.457 418.047 L 2533.267 418.047 L 2533.267 2685.787 L 832.457 2685.787 Z " fill="#cceeff"/>
<path transform="matrix(.1,0,0,-.1,0,269.08)" stroke-width="9.9628" stroke-linecap="butt" stroke-miterlimit="10" stroke-linejoin="miter" fill="none" stroke="#1f6e96" d="M 832.457 418.047 L 2533.267 418.047 L 2533.267 2685.787 L 832.457 2685.787 Z "/>
<path transform="matrix(.1,0,0,-.1,0,269.08)" stroke-width="19.9255" stroke-linecap="butt" stroke-miterlimit="10" stroke-linejoin="miter" fill="none" stroke="#6100ad" d="M 832.457 1551.92 L 572.973 1551.92 "/>
<path transform="matrix(.1,0,0,-.1,0,269.08)" d="M 533.605 1551.92 C 538.441 1550.74 559.691 1544.05 572.973 1536.78 L 572.973 1567.06 C 559.691 1559.78 538.441 1553.1 533.605 1551.92 Z " fill="#6100ad"/>
<path transform="matrix(.1,0,0,-.1,0,269.08)" stroke-width="17.9326" stroke-linecap="butt" stroke-miterlimit="10" stroke-linejoin="miter" fill="none" stroke="#6100ad" d="M 533.605 1551.92 C 538.441 1550.74 559.691 1544.05 572.973 1536.78 L 572.973 1567.06 C 559.691 1559.78 538.441 1553.1 533.605 1551.92 Z "/>
<symbol id="font_0_1">
<path d="M .321 .067 C .33200003 .026 .367 0 .41 0 C .44500003 0 .468 .023000002 .484 .055000005 C .50100007 .091000009 .51400008 .15200001 .51400008 .15400002 C .51400008 .16400002 .50500008 .16400002 .50200006 .16400002 C .492 .16400002 .49100004 .16000001 .488 .14600002 C .474 .09 .455 .022000002 .41300003 .022000002 C .39200003 .022000002 .382 .035 .382 .068 C .382 .09 .394 .13700001 .402 .17200002 L .43 .28000004 C .433 .29500003 .44300003 .33300004 .447 .34800003 C .45200003 .37100003 .462 .40900005 .462 .41500003 C .462 .43300004 .448 .44200004 .433 .44200004 C .428 .44200004 .402 .441 .394 .40700004 C .375 .33400003 .331 .15900001 .319 .106000009 C .318 .102000009 .278 .022000002 .20500002 .022000002 C .15300001 .022000002 .143 .067 .143 .104 C .143 .16000001 .171 .23900002 .19700001 .30800004 C .209 .33800004 .21400002 .35200004 .21400002 .37100003 C .21400002 .41600005 .18200001 .45300005 .13200002 .45300005 C .037 .45300005 0 .30800004 0 .29900003 C 0 .28900004 .01 .28900004 .012 .28900004 C .022000002 .28900004 .023 .291 .028000003 .307 C .053000004 .39400003 .091000009 .43100003 .12900001 .43100003 C .13800001 .43100003 .15400002 .43000005 .15400002 .39800004 C .15400002 .374 .143 .34500004 .13700001 .33 C .10000001 .23100002 .079 .16900002 .079 .120000008 C .079 .025000003 .148 0 .202 0 C .268 0 .304 .045 .321 .067 Z "/>
</symbol>
<use xlink:href="#font_0_1" transform="matrix(9.9626,0,0,-9.9626,3.4428254,116.15457)" fill="#6100ad"/>
<symbol id="font_1_1">
<path d="M .201 .116000007 C .19100002 .082 .15800002 .028 .107 .028 C .10400001 .028 .07400001 .028 .053000004 .042000005 C .094000007 .055000005 .09700001 .091 .09700001 .097 C .09700001 .119 .080000009 .134 .057000005 .134 C .029000007 .134 0 .11 0 .073 C 0 .023000002 .056 0 .10500001 0 C .15100003 0 .192 .029000003 .21700001 .071 C .241 .018000002 .296 0 .336 0 C .451 0 .512 .125 .512 .15300001 C .512 .16600001 .49900005 .16600001 .49600003 .16600001 C .48200003 .16600001 .48100005 .16100002 .47700004 .14900002 C .456 .08 .39600004 .028 .34 .028 C .3 .028 .279 .055000005 .279 .093 C .279 .119 .303 .21000001 .331 .321 C .351 .398 .39600004 .423 .42900003 .423 C .43100003 .423 .46200005 .423 .483 .409 C .451 .4 .439 .372 .439 .354 C .439 .33200003 .456 .317 .479 .317 C .50200006 .317 .535 .336 .535 .37800003 C .535 .43400003 .47100006 .451 .43100003 .451 C .381 .451 .34100003 .418 .319 .38 C .301 .421 .255 .451 .199 .451 C .087000008 .451 .023000002 .328 .023000002 .298 C .023000002 .285 .037 .285 .040000008 .285 C .053000004 .285 .054000006 .289 .059000009 .30200003 C .084 .38 .14700002 .423 .19600001 .423 C .229 .423 .256 .405 .256 .357 C .256 .337 .24400002 .287 .23500002 .25300003 L .201 .116000007 Z "/>
</symbol>
<use xlink:href="#font_1_1" transform="matrix(6.9738,0,0,-6.9738,9.192562,117.61004)" fill="#6100ad"/>
<symbol id="font_2_1">
<path d="M .63100007 .19400002 C .646 .19400002 .665 .19400002 .665 .214 C .665 .23400001 .646 .23400001 .632 .23400001 L .033 .23400001 C .019000002 .23400001 0 .23400001 0 .214 C 0 .19400002 .019000002 .19400002 .034 .19400002 L .63100007 .19400002 M .632 0 C .646 0 .665 0 .665 .02000001 C .665 .040000008 .646 .040000008 .63100007 .040000008 L .034 .040000008 C .019000002 .040000008 0 .040000008 0 .02000001 C 0 0 .019000002 0 .033 0 L .632 0 Z "/>
</symbol>
<use xlink:href="#font_2_1" transform="matrix(9.9626,0,0,-9.9626,17.198925,114.719959)" fill="#6100ad"/>
<symbol id="font_3_1">
<path d="M .57600006 0 C .59300008 0 .611 0 .611 .019999996 C .611 .040000008 .59300008 .040000008 .57600006 .040000008 L .035000005 .040000008 C .018 .040000008 0 .040000008 0 .019999996 C 0 0 .018 0 .035000005 0 L .57600006 0 Z "/>
</symbol>
<use xlink:href="#font_3_1" transform="matrix(9.9626,0,0,-9.9626,27.983918,113.753589)" fill="#6100ad"/>
<use xlink:href="#font_0_1" transform="matrix(9.9626,0,0,-9.9626,35.194765,116.15457)" fill="#6100ad"/>
<symbol id="font_4_1">
<path d="M .46400006 .33900003 C .46400006 .44900004 .45100004 .528 .40500004 .598 C .374 .644 .31200005 .684 .23200001 .684 C 0 .684 0 .41100005 0 .33900003 C 0 .26700003 0 0 .23200001 0 C .46400006 0 .46400006 .26700003 .46400006 .33900003 M .23200001 .028 C .186 .028 .125 .055 .105000007 .13700001 C .091000009 .19600001 .091000009 .27800004 .091000009 .35200004 C .091000009 .42500005 .091000009 .50100007 .106000009 .556 C .127 .635 .19100002 .656 .23200001 .656 C .286 .656 .338 .623 .356 .565 C .37200005 .51100006 .37300004 .43900005 .37300004 .35200004 C .37300004 .27800004 .37300004 .20400001 .36 .141 C .34000004 .050000006 .272 .028 .23200001 .028 Z "/>
</symbol>
<use xlink:href="#font_4_1" transform="matrix(6.9738,0,0,-6.9738,40.971616,117.67977)" fill="#6100ad"/>
<path transform="matrix(.1,0,0,-.1,0,269.08)" stroke-width="19.9255" stroke-linecap="butt" stroke-miterlimit="10" stroke-linejoin="miter" fill="none" stroke="#6100ad" d="M 2533.27 1551.92 L 2792.75 1551.92 "/>
<path transform="matrix(.1,0,0,-.1,0,269.08)" d="M 2832.11 1551.92 C 2827.28 1553.1 2806.03 1559.78 2792.75 1567.06 L 2792.75 1536.78 C 2806.03 1544.05 2827.28 1550.74 2832.11 1551.92 Z " fill="#6100ad"/>
<path transform="matrix(.1,0,0,-.1,0,269.08)" stroke-width="17.9326" stroke-linecap="butt" stroke-miterlimit="10" stroke-linejoin="miter" fill="none" stroke="#6100ad" d="M 2832.11 1551.92 C 2827.28 1553.1 2806.03 1559.78 2792.75 1567.06 L 2792.75 1536.78 C 2806.03 1544.05 2827.28 1550.74 2832.11 1551.92 Z "/>
<use xlink:href="#font_0_1" transform="matrix(9.9626,0,0,-9.9626,291.7829,116.15457)" fill="#6100ad"/>
<use xlink:href="#font_1_1" transform="matrix(6.9738,0,0,-6.9738,297.53147,117.61004)" fill="#6100ad"/>
<symbol id="font_2_2">
<path d="M .35300002 .31300003 L .632 .31300003 C .646 .31300003 .665 .31300003 .665 .333 C .665 .35300002 .646 .35300002 .632 .35300002 L .35300002 .35300002 L .35300002 .633 C .35300002 .647 .35300002 .666 .33300004 .666 C .31300003 .666 .31300003 .647 .31300003 .633 L .31300003 .35300002 L .033 .35300002 C .019000002 .35300002 0 .35300002 0 .333 C 0 .31300003 .019000002 .31300003 .033 .31300003 L .31300003 .31300003 L .31300003 .033000005 C .31300003 .019000002 .31300003 0 .33300004 0 C .35300002 0 .35300002 .019000002 .35300002 .033000005 L .35300002 .31300003 Z "/>
</symbol>
<use xlink:href="#font_2_1" transform="matrix(9.9626,0,0,-9.9626,305.5378,114.719959)" fill="#6100ad"/>
<use xlink:href="#font_2_2" transform="matrix(9.9626,0,0,-9.9626,316.05616,116.87188)" fill="#6100ad"/>
<use xlink:href="#font_0_1" transform="matrix(9.9626,0,0,-9.9626,323.53364,116.15457)" fill="#6100ad"/>
<use xlink:href="#font_4_1" transform="matrix(6.9738,0,0,-6.9738,329.3105,117.67977)" fill="#6100ad"/>
<path transform="matrix(.1,0,0,-.1,0,269.08)" stroke-width="9.9628" stroke-linecap="butt" stroke-miterlimit="10" stroke-linejoin="miter" fill="none" stroke="#3b7d08" d="M 1166.95 367.023 C 1166.95 395.203 1144.1 418.047 1115.93 418.047 C 1087.75 418.047 1064.9 395.203 1064.9 367.023 C 1064.9 338.844 1087.75 316 1115.93 316 C 1144.1 316 1166.95 338.844 1166.95 367.023 Z M 1115.93 367.023 "/>
<clipPath id="cp5">
<path transform="matrix(.1,0,0,-.1,0,269.08)" d="M 1002.54 228.969 L 1229.317 228.969 L 1229.317 314.0081 L 1002.54 314.0081 Z "/>
</clipPath>
<g clip-path="url(#cp5)">
<symbol id="pac6" style="overflow:visible">
<g clip-path="url(#cp7)">
<path transform="matrix(.1,0,0,-.1,-.00390625,269.0839)" stroke-width="3.985" stroke-linecap="butt" stroke-miterlimit="10" stroke-linejoin="miter" fill="none" stroke="#3b7d08" d="M 0 0 L 30.8828 30.8828 "/>
</g>
</symbol>
<pattern id="pa6" patternUnits="userSpaceOnUse" patternContentUnits="userSpaceOnUse" x="0" y="0" width="2.98883" height="2.98883">
<clipPath id="cp8">
<path d="M -.99628 -.99628 L 3.9851 -.99628 L 3.9851 3.9851 L -.99628 3.9851 Z"/>
</clipPath>
<g clip-path="url(#cp8)">
<g transform="matrix(1,0,0,-1,.00390625,269.0839)">
<use x="0" y="0" xlink:href="#pac6"/>
<use x="0" y="-2.98883" xlink:href="#pac6"/>
<use x="-2.98883" y="0" xlink:href="#pac6"/>
<use x="-2.98883" y="-2.98883" xlink:href="#pac6"/>
</g>
</g>
</pattern>
<clipPath id="cp7">
<path transform="matrix(.1,0,0,-.1,-.00390625,269.0839)" d="M -10 -10 L -10 40 L 40 40 L 40 -10 Z "/>
</clipPath>
<rect transform="matrix(1,0,0,-1,-.00390625,269.0839)" fill="url(#pa6)" x="100.257907" y="22.900803" width="22.677704" height="8.503906"/>
</g>
<path transform="matrix(.1,0,0,-.1,0,269.08)" stroke-width="9.9628" stroke-linecap="butt" stroke-miterlimit="10" stroke-linejoin="miter" fill="none" stroke="#3b7d08" d="M 1733.88 367.023 C 1733.88 395.203 1711.04 418.047 1682.86 418.047 C 1654.68 418.047 1631.84 395.203 1631.84 367.023 C 1631.84 338.844 1654.68 316 1682.86 316 C 1711.04 316 1733.88 338.844 1733.88 367.023 Z M 1682.86 367.023 "/>
<clipPath id="cp9">
<path transform="matrix(.1,0,0,-.1,0,269.08)" d="M 1569.47 228.969 L 1796.2429 228.969 L 1796.2429 314.0081 L 1569.47 314.0081 Z "/>
</clipPath>
<g clip-path="url(#cp9)">
<symbol id="pac10" style="overflow:visible">
<g clip-path="url(#cp11)">
<path transform="matrix(.1,0,0,-.1,-.00390625,269.0839)" stroke-width="3.985" stroke-linecap="butt" stroke-miterlimit="10" stroke-linejoin="miter" fill="none" stroke="#3b7d08" d="M 0 0 L 30.8828 30.8828 "/>
</g>
</symbol>
<pattern id="pa10" patternUnits="userSpaceOnUse" patternContentUnits="userSpaceOnUse" x="0" y="0" width="2.98883" height="2.98883">
<clipPath id="cp12">
<path d="M -.99628 -.99628 L 3.9851 -.99628 L 3.9851 3.9851 L -.99628 3.9851 Z"/>
</clipPath>
<g clip-path="url(#cp12)">
<g transform="matrix(1,0,0,-1,.00390625,269.0839)">
<use x="0" y="0" xlink:href="#pac10"/>
<use x="0" y="-2.98883" xlink:href="#pac10"/>
<use x="-2.98883" y="0" xlink:href="#pac10"/>
<use x="-2.98883" y="-2.98883" xlink:href="#pac10"/>
</g>
</g>
</pattern>
<clipPath id="cp11">
<path transform="matrix(.1,0,0,-.1,-.00390625,269.0839)" d="M -10 -10 L -10 40 L 40 40 L 40 -10 Z "/>
</clipPath>
<rect transform="matrix(1,0,0,-1,-.00390625,269.0839)" fill="url(#pa10)" x="156.95092" y="22.900803" width="22.677292" height="8.503906"/>
</g>
<path transform="matrix(.1,0,0,-.1,0,269.08)" stroke-width="9.9628" stroke-linecap="butt" stroke-miterlimit="10" stroke-linejoin="miter" fill="none" stroke="#3b7d08" d="M 2300.82 367.023 C 2300.82 395.203 2277.98 418.047 2249.8 418.047 C 2221.62 418.047 2198.77 395.203 2198.77 367.023 C 2198.77 338.844 2221.62 316 2249.8 316 C 2277.98 316 2300.82 338.844 2300.82 367.023 Z M 2249.8 367.023 "/>
<clipPath id="cp13">
<path transform="matrix(.1,0,0,-.1,0,269.08)" d="M 2136.41 228.969 L 2363.1829 228.969 L 2363.1829 314.0081 L 2136.41 314.0081 Z "/>
</clipPath>
<g clip-path="url(#cp13)">
<symbol id="pac14" style="overflow:visible">
<g clip-path="url(#cp15)">
<path transform="matrix(.1,0,0,-.1,-.00390625,269.0839)" stroke-width="3.985" stroke-linecap="butt" stroke-miterlimit="10" stroke-linejoin="miter" fill="none" stroke="#3b7d08" d="M 0 0 L 30.8828 30.8828 "/>
</g>
</symbol>
<pattern id="pa14" patternUnits="userSpaceOnUse" patternContentUnits="userSpaceOnUse" x="0" y="0" width="2.98883" height="2.98883">
<clipPath id="cp16">
<path d="M -.99628 -.99628 L 3.9851 -.99628 L 3.9851 3.9851 L -.99628 3.9851 Z"/>
</clipPath>
<g clip-path="url(#cp16)">
<g transform="matrix(1,0,0,-1,.00390625,269.0839)">
<use x="0" y="0" xlink:href="#pac14"/>
<use x="0" y="-2.98883" xlink:href="#pac14"/>
<use x="-2.98883" y="0" xlink:href="#pac14"/>
<use x="-2.98883" y="-2.98883" xlink:href="#pac14"/>
</g>
</g>
</pattern>
<clipPath id="cp15">
<path transform="matrix(.1,0,0,-.1,-.00390625,269.0839)" d="M -10 -10 L -10 40 L 40 40 L 40 -10 Z "/>
</clipPath>
<rect transform="matrix(1,0,0,-1,-.00390625,269.0839)" fill="url(#pa14)" x="213.6449" y="22.900803" width="22.677292" height="8.503906"/>
</g>
<use xlink:href="#font_0_1" transform="matrix(9.9626,0,0,-9.9626,154.19692,263.1845)" fill="#6100ad"/>
<symbol id="font_1_2">
<path d="M .50900009 .58100005 C .513 .595 .513 .597 .513 .60300007 C .513 .623 .49700005 .63500007 .48000003 .63500007 C .46900005 .63500007 .45000003 .63000008 .43900005 .611 C .43600003 .605 .42800004 .573 .42300005 .55300006 L .40200005 .47000004 C .39600004 .44600005 .36500005 .32000003 .36200003 .30900003 C .36100004 .30900003 .31700004 .22200002 .23900001 .22200002 C .171 .22200002 .171 .287 .171 .305 C .171 .35900004 .194 .42200003 .22400002 .499 C .23600002 .531 .24100001 .54300007 .24100001 .56 C .24100001 .60800006 .2 .64500007 .146 .64500007 C .045000007 .64500007 0 .509 0 .49200005 C 0 .47900004 .014000002 .47900004 .017 .47900004 C .031 .47900004 .032 .48400004 .035 .495 C .060000007 .578 .103 .61700007 .143 .61700007 C .16000001 .61700007 .168 .606 .168 .582 C .168 .559 .15900001 .537 .154 .52400007 C .106000009 .402 .096 .365 .096 .321 C .096 .30400003 .096 .25700004 .135 .22500001 C .16600001 .19900002 .20800002 .194 .235 .194 C .27500005 .194 .31100003 .209 .34400005 .23900001 C .33100004 .18400002 .32000003 .142 .27800004 .09200001 C .25100003 .061000006 .21100001 .027999998 .158 .027999998 C .15100001 .027999998 .104 .027999998 .083000008 .061000006 C .13700001 .067 .13700001 .11500001 .13700001 .116000007 C .13700001 .148 .107999999 .15400002 .098000008 .15400002 C .073 .15400002 .040000004 .134 .040000004 .08800001 C .040000004 .037 .088 0 .15900001 0 C .26000003 0 .38300003 .07800001 .41400004 .20300001 L .50900009 .58100005 Z "/>
</symbol>
<use xlink:href="#font_1_2" transform="matrix(6.9738,0,0,-6.9738,159.9389,265.9925)" fill="#6100ad"/>
<symbol id="font_2_3">
<path d="M .421 .34200005 C .421 .42200003 .416 .50200006 .381 .57600006 C .335 .67200008 .25300003 .688 .211 .688 C .15100001 .688 .07800001 .66200008 .037000006 .56900009 C .0050000029 .5 0 .42200003 0 .34200005 C 0 .26700003 .0040000008 .177 .045000007 .101 C .088 .020000002 .161 0 .21000001 0 C .264 0 .34 .021000002 .384 .116000007 C .416 .185 .421 .263 .421 .34200005 M .21000001 .022000002 C .171 .022000002 .112 .047000003 .094 .143 C .083000008 .20300001 .083000008 .29500003 .083000008 .35400004 C .083000008 .41800005 .083000008 .48400004 .091000009 .53800007 C .11 .65700009 .185 .66600009 .21000001 .66600009 C .243 .66600009 .30900003 .64800009 .328 .549 C .338 .49300004 .338 .41700004 .338 .35400004 C .338 .279 .338 .21100001 .32700003 .147 C .312 .052 .255 .022000002 .21000001 .022000002 Z "/>
</symbol>
<use xlink:href="#font_2_1" transform="matrix(9.9626,0,0,-9.9626,167.72528,261.7499)" fill="#6100ad"/>
<use xlink:href="#font_2_3" transform="matrix(9.9626,0,0,-9.9626,178.07427,263.2941)" fill="#6100ad"/>
</g>
</svg>
