<svg xmlns="http://www.w3.org/2000/svg" xmlns:xlink="http://www.w3.org/1999/xlink" version="1.1" width="765.579" height="611.873" viewBox="0 0 765.579 611.873">
<defs>
<path id="font_1_3" d="M.35499574 .27201844 .5309906 .54003909H.36299134L.27598573 .37701417 .18798828 .54003909H.019989014L.19599915 .27201844 .015991211 0H.18399048L.27598573 .16799927 .36698915 0H.5349884L.35499574 .27201844Z"/>
<path id="font_2_6" d="M.32699586 .17001343V0H.4149933V.17001343H.519989V.24902344H.4149933V.7090149H.34999085L.027999878 .26301576V.17001343H.32699586M.32699586 .24902344H.10499573L.32699586 .559021V.24902344Z"/>
<path id="font_2_4" d="M.25898744 .5049896V0H.34700013V.70899966H.2889862C.2579956 .59999087 .23799134 .58499148 .101989749 .56799319V.5049896H.25898744Z"/>
<path id="font_2_3" d="M.2749939 .7089844C.20899964 .7089844 .14898682 .6799774 .11199951 .63098147 .06599426 .5689392 .042999269 .4738617 .042999269 .34277345 .042999269 .10359192 .12298584-.0234375 .2749939-.0234375 .4249878-.0234375 .5069885 .10359192 .5069885 .33676148 .5069885 .47486878 .4850006 .5669403 .43798829 .63098147 .40098573 .68096926 .34199525 .7089844 .2749939 .7089844M.2749939 .63098147C.36999513 .63098147 .4169922 .5349121 .4169922 .34477235 .4169922 .14363098 .37098695 .049560548 .272995 .049560548 .17999268 .049560548 .1329956 .14762879 .1329956 .34176637 .1329956 .53590396 .17999268 .63098147 .2749939 .63098147Z"/>
<path id="font_2_2" d="M.19099427 .10398865H.08699036V0H.19099427V.10398865Z"/>
<path id="font_2_16" d="M.14099121 .7285156H.057998659V0H.14099121V.20385742L.22200012 .28381349 .39898683 0H.5019989L.28799439 .34277345 .46998597 .52363589H.36299134L.14099121 .30178834V.7285156Z"/>
<path id="font_2_18" d="M.069992069 .52441409V0H.1539917V.32925416C.1539917 .40504457 .20899964 .4660492 .2769928 .4660492 .33898927 .4660492 .37399293 .4280548 .37399293 .3610382V0H.45799256V.32904054C.45799256 .40504457 .5130005 .4660492 .58099368 .4660492 .6419983 .4660492 .6779938 .42704774 .6779938 .3610382V0H.7619934V.3930359C.7619934 .48706056 .70799258 .5390625 .6100006 .5390625 .5399933 .5390625 .49798585 .51805117 .44898988 .4590454 .41799928 .5150604 .37599183 .5390625 .30799867 .5390625 .23799134 .5390625 .19198609 .5130615 .14698792 .45005799V.52441409H.069992069Z"/>
<path id="font_2_8" d="M.052993776 .16186524C.069992069 .045547487 .1459961-.0234375 .2539978-.0234375 .33198548-.0234375 .40299989 .014556885 .44400025 .07762146 .4889984 .14682007 .5089874 .23408509 .5089874 .36309815 .5089874 .4820404 .4909973 .5580139 .44898988 .62098696 .4099884 .6779785 .34799195 .7089844 .269989 .7089844 .1349945 .7089844 .037994386 .60899356 .037994386 .470047 .037994386 .33810426 .12799073 .24511719 .2559967 .24511719 .32299806 .24511719 .37199403 .269104 .41799928 .32411195 .4169922 .15083313 .36099244 .05455017 .2599945 .05455017 .19799805 .05455017 .15499878 .093673709 .14099121 .16186524H.052993776M.2689972 .63197329C.35099793 .63197329 .41299439 .5640106 .41299439 .4720459 .41299439 .38508607 .35198976 .32310487 .2659912 .32310487 .18099976 .32310487 .12799073 .38208009 .12799073 .47705079 .12799073 .56700137 .18798828 .63197329 .2689972 .63197329Z"/>
<path id="font_1_1" d="M.3939972 .54003909 .28199769 .1468811 .16299439 .54003909H.008987427L.20999146-.02218628V-.0231781-.026184082C.20999146-.07720947 .17199707-.11621094 .12298584-.11621094 .11199951-.11621094 .10398865-.115219119 .085998538-.11021423V-.21522522C.10699463-.21821594 .11898804-.21922302 .13598633-.21922302 .17098999-.21922302 .21299744-.21221924 .23699951-.20222473 .27598573-.18621826 .29299928-.16322327 .31599427-.09921265L.5379944 .54003909H.3939972Z"/>
<path id="font_2_5" d="M.22099304 .3247528H.23199463L.2689972 .3257599C.3659973 .3257599 .41600038 .28172303 .41600038 .19665528 .41600038 .10758972 .36099244 .05455017 .2689972 .05455017 .17298889 .05455017 .12599182 .10258484 .11999512 .20567322H.03199768C.035995485 .1486206 .04598999 .11160278 .06298828 .079574588 .09899902 .011550903 .16899109-.0234375 .2659912-.0234375 .4119873-.0234375 .5059967 .063568118 .5059967 .19766236 .5059967 .28771974 .47099305 .33776856 .38598634 .36679078 .45199586 .392807 .4850006 .44284059 .4850006 .5138855 .4850006 .63597109 .4039917 .7089844 .2689972 .7089844 .12599182 .7089844 .049987794 .63098147 .04699707 .47987367H.1349945C.13598633 .52290347 .13999939 .5469208 .15098572 .56892397 .17098999 .60795596 .21499634 .63197329 .269989 .63197329 .34799195 .63197329 .394989 .5859375 .394989 .5108948 .394989 .46084596 .3769989 .4308319 .33799745 .41482545 .31399537 .40481568 .2829895 .4008026 .22099304 .3998108V.3247528Z"/>
<path id="font_2_7" d="M.519989 .7089844H.04598999V.62197878H.42900086C.2599945 .38098146 .19099427 .23298645 .13798523 0H.23199463C.2709961 .22698975 .3600006 .4219818 .519989 .63497927V.7089844Z"/>
<path id="font_1_2" d="M.45899964 .54003909H.038986207V.42703248H.28799439L.020996094 .11299133V0H.46798707V.11299133H.19400025L.45899964 .42703248V.54003909Z"/>
<path id="font_2_1" d="M.28399659 .31222535H.04598999V.24023438H.28399659V.31222535Z"/>
<path id="font_2_10" d="M.053985597 .7285156V-.00044250489H.1289978V.0665741C.16899109 .005554199 .22200012-.0234375 .29499818-.0234375 .43299867-.0234375 .522995 .08959961 .522995 .2638092 .522995 .434021 .43699647 .5390625 .29899598 .5390625 .22698975 .5390625 .17599488 .51205447 .13699341 .4530487V.7285156H.053985597M.2829895 .46105958C.37599183 .46105958 .43598939 .3799591 .43598939 .25480653 .43598939 .13565064 .37399293 .05455017 .2829895 .05455017 .19499207 .05455017 .13699341 .13465882 .13699341 .25779725 .13699341 .38095094 .19499207 .46105958 .2829895 .46105958Z"/>
<path id="font_2_20" d="M.27198792 .5390625C.125 .5390625 .035995485 .434021 .035995485 .25779725 .035995485 .081588748 .12399292-.0234375 .272995-.0234375 .41999818-.0234375 .5099945 .081588748 .5099945 .25379945 .5099945 .43502809 .4229889 .5390625 .27198792 .5390625M.272995 .4620514C.36698915 .4620514 .4229889 .384964 .4229889 .25480653 .4229889 .13165283 .36499024 .05355835 .272995 .05355835 .17999268 .05355835 .12298584 .13064575 .12298584 .25779725 .12298584 .3839569 .17999268 .4620514 .272995 .4620514Z"/>
<path id="font_2_25" d="M.48199464-.00044250489V.52441409H.39898683V.22688294C.39898683 .11968994 .34298707 .049560548 .2559967 .049560548 .18998719 .049560548 .147995 .08963013 .147995 .15275574V.52441409H.06498718V.11968994C.06498718 .032562257 .12998963-.0234375 .23199463-.0234375 .30899049-.0234375 .35798646 .0035552979 .40699769 .07260132V-.00044250489H.48199464Z"/>
<path id="font_2_19" d="M.069992069 .52441409V0H.1539917V.2892151C.1539917 .39604188 .20999146 .4660492 .29599 .4660492 .3619995 .4660492 .4039917 .42604066 .4039917 .3630371V0H.4869995V.39604188C.4869995 .4830475 .42199708 .5390625 .32099916 .5390625 .24299622 .5390625 .19299317 .50904849 .14698792 .43605042V.52441409H.069992069Z"/>
<path id="font_2_11" d="M.49499513 .7285156H.4119873V.4580536C.3769989 .51104739 .32099916 .5390625 .25099183 .5390625 .114990238 .5390625 .025985718 .43000794 .025985718 .26280213 .025985718 .08558655 .11299133-.0234375 .2539978-.0234375 .32598878-.0234375 .37599183 .0035552979 .42099 .068573V-.00044250489H.49499513V.7285156M.2649994 .46105958C.35499574 .46105958 .4119873 .38095094 .4119873 .25579835 .4119873 .13465882 .35398866 .05455017 .2659912 .05455017 .17399597 .05455017 .11299133 .13565064 .11299133 .25779725 .11299133 .3799591 .17399597 .46105958 .2649994 .46105958Z"/>
<path id="font_2_9" d="M.5349884 .048553468C.526001 .046554567 .5219879 .046554567 .5169983 .046554567 .48799134 .046554567 .47200013 .061569215 .47200013 .08760071V.39598084C.47200013 .48905946 .4039917 .5390625 .2749939 .5390625 .19898987 .5390625 .13598633 .5170593 .100997928 .47805787 .07699585 .45103456 .066986087 .42100526 .06498718 .36894227H.14898682C.1559906 .43301393 .19400025 .4620514 .27198792 .4620514 .34700013 .4620514 .3889923 .434021 .3889923 .3839569V.36193849C.3889923 .32688905 .36799623 .3118744 .3019867 .30386354 .18399048 .28884889 .1659851 .28483583 .13398743 .27182008 .07299805 .24679566 .041992189 .19973755 .041992189 .13165283 .041992189 .03656006 .10798645-.0234375 .21398926-.0234375 .27999879-.0234375 .33299256-.00044250489 .3919983 .05355835 .397995 .0005493164 .42399598-.0234375 .47799684-.0234375 .49499513-.0234375 .5079956-.021438599 .5349884-.014450073V.048553468M.3889923 .16468811C.3889923 .13665772 .3809967 .119644168 .35598756 .09661865 .32199098 .06556702 .2809906 .049560548 .23199463 .049560548 .16699219 .049560548 .1289978 .080596927 .1289978 .13365174 .1289978 .1887207 .1659851 .2167511 .25498963 .22976685 .34298707 .24179077 .36099244 .24578858 .3889923 .25880433V.16468811Z"/>
<path id="font_2_22" d="M.068984989 .52441409V0H.15299988V.27220155C.15299988 .34727479 .17199707 .39631654 .21199036 .42533876 .23799134 .4443512 .2630005 .45036317 .32099916 .45135499V.5364075C.30699159 .5380554 .2999878 .5390625 .2889862 .5390625 .23498535 .5390625 .19400025 .50704959 .1459961 .42904664V.52441409H.068984989Z"/>
<path id="font_2_27" d="M.3880005 .52441409 .24299622 .11628723 .10899353 .52441409H.019989014L.19699097-.001739502 .16499329-.08476257C.1519928-.121780399 .1329956-.13578797 .09799194-.13578797 .085998538-.13578797 .07199097-.1337738 .053985597-.129776V-.20478821C.070999149-.21377564 .08799744-.21777344 .10998535-.21777344 .13699341-.21777344 .1659851-.20878601 .18798828-.19277954 .21398926-.17378235 .22898865-.15177918 .24499512-.10977173L.47799684 .52441409H.3880005Z"/>
<path id="font_2_26" d="M.55400088 0 .70799258 .52441409H.6139984L.5099945 .11607361 .40699769 .52441409H.30499269L.20498657 .11607361 .09799194 .52441409H.005996704L.1579895 0H.2519989L.35299684 .41133119 .45899964 0H.55400088Z"/>
<path id="font_2_12" d="M.5130005 .23374939C.5130005 .31376649 .5069885 .36186219 .49198915 .40093995 .45799256 .48706056 .37799073 .5390625 .27999879 .5390625 .13398743 .5390625 .039993287 .4269867 .039993287 .25474549 .039993287 .08258057 .1309967-.0234375 .27799989-.0234375 .397995-.0234375 .48098756 .044555665 .5019989 .15867615H.41799928C.394989 .08959961 .34799195 .05355835 .2809906 .05355835 .22799683 .05355835 .18299866 .07757568 .15499878 .12162781 .1349945 .1516571 .12799073 .18170166 .1269989 .23374939H.5130005M.1289978 .3017578C.13598633 .39894105 .19499207 .4620514 .2789917 .4620514 .36099244 .4620514 .42399598 .3939209 .42399598 .30775453 .42399598 .30575563 .42399598 .3037567 .4229889 .3017578H.1289978Z"/>
<path id="font_2_23" d="M.43798829 .37794496C.43699647 .48104859 .36898805 .5390625 .24798584 .5390625 .12599182 .5390625 .04699707 .47605897 .04699707 .37895204 .04699707 .29685975 .08898926 .25779725 .21299744 .22776795L.29100038 .20874024C.34899903 .19473267 .37199403 .17370606 .37199403 .13565064 .37199403 .08659363 .32299806 .05355835 .25 .05355835 .20498657 .05355835 .16699219 .0665741 .1459961 .08859253 .1329956 .10362244 .1269989 .118637088 .12199402 .15568543H.033996583C.037994386 .034561159 .10598755-.0234375 .24299622-.0234375 .375-.0234375 .45899964 .041549684 .45899964 .14266968 .45899964 .22076416 .4149933 .2638092 .31098939 .28884889L.23098755 .30786134C.16299439 .32388307 .13398743 .34591676 .13398743 .3829651 .13398743 .431015 .1769867 .4620514 .24499512 .4620514 .31199647 .4620514 .34799195 .43301393 .34999085 .37794496H.43798829Z"/>
<path id="font_2_24" d="M.2539978 .52441409H.16799927V.66841128H.084991458V.52441409H.01399231V.45640565H.084991458V.059570314C.084991458 .0065612795 .12098694-.0234375 .18598938-.0234375 .20599365-.0234375 .22599793-.021438599 .2539978-.016448975V.05355835C.24299622 .05055237 .22999573 .049560548 .21398926 .049560548 .17799378 .049560548 .16799927 .059570314 .16799927 .09664917V.45640565H.2539978V.52441409Z"/>
<path id="font_2_14" d="M.069992069 .7285156V0H.15299988V.28903199C.15299988 .39604188 .20899964 .4660492 .29499818 .4660492 .32199098 .4660492 .34899903 .4570465 .36898805 .44204713 .3929901 .42504884 .40299989 .40003968 .40299989 .3630371V0H.48599244V.39604188C.48599244 .48405458 .4229889 .5390625 .32099916 .5390625 .24699402 .5390625 .20199585 .51605227 .15299988 .45205689V.7285156H.069992069Z"/>
<path id="font_2_21" d="M.053985597-.21824646H.13798523V.05455017C.18199158 .0005493164 .23098755-.0234375 .29899598-.0234375 .43399049-.0234375 .522995 .08558655 .522995 .25279237 .522995 .4290161 .43699647 .5390625 .2979889 .5390625 .22698975 .5390625 .16999817 .50704959 .1309967 .44503785V.52404788H.053985597V-.21824646M.28399659 .46105958C.37599183 .46105958 .43598939 .3799591 .43598939 .25480653 .43598939 .13565064 .375 .05455017 .28399659 .05455017 .19599915 .05455017 .13798523 .13465882 .13798523 .25779725 .13798523 .38095094 .19599915 .46105958 .28399659 .46105958Z"/>
<path id="font_2_13" d="M.2579956 .52441409H.17098999V.6064148C.17098999 .64141848 .19099427 .65940859 .22898865 .65940859 .23599243 .65940859 .23899842 .65940859 .2579956 .65841677V.727417C.23899842 .7314148 .22799683 .7324219 .21099854 .7324219 .13398743 .7324219 .08799744 .6884155 .08799744 .6134186V.52441409H.017990113V.45640565H.08799744V0H.17098999V.45640565H.2579956V.52441409Z"/>
<path id="font_2_17" d="M.1519928 .7285156H.067993167V0H.1519928V.7285156Z"/>
<path id="font_2_15" d="M.1499939 .5235901H.066986087V0H.1499939V.5235901M.1499939 .7285156H.06599426V.62350466H.1499939V.7285156Z"/>
</defs>
<path transform="matrix(1,0,0,-1,390.907,172.39698)" d="M-139.57784-398.66835 307.0713-319.91429V-93.14674L-139.57784-171.9008Z" fill="#cceeff"/>
<path transform="matrix(1,0,0,-1,390.907,172.39698)" stroke-width=".99628" stroke-linecap="butt" stroke-miterlimit="10" stroke-linejoin="miter" fill="none" stroke="#1f6e96" d="M-139.57784-398.66835 307.0713-319.91429V-93.14674L-139.57784-171.9008Z"/>
<path transform="matrix(1,0,0,-1,390.907,172.39698)" d="M-307.0713-133.62076-139.57784-398.66835V-171.9008L-307.0713 93.14674Z" fill="#cceeff"/>
<path transform="matrix(1,0,0,-1,390.907,172.39698)" stroke-width=".99628" stroke-linecap="butt" stroke-miterlimit="10" stroke-linejoin="miter" fill="none" stroke="#1f6e96" d="M-307.0713-133.62076-139.57784-398.66835V-171.9008L-307.0713 93.14674Z"/>
<path transform="matrix(1,0,0,-1,390.907,172.39698)" d="M-139.57784-171.9008 307.0713-93.14674 139.57784 171.9008-307.0713 93.14674Z" fill="#cceeff"/>
<path transform="matrix(1,0,0,-1,390.907,172.39698)" stroke-width=".99628" stroke-linecap="butt" stroke-miterlimit="10" stroke-linejoin="miter" fill="none" stroke="#1f6e96" d="M-139.57784-171.9008 307.0713-93.14674 139.57784 171.9008-307.0713 93.14674Z"/>
<path transform="matrix(1,0,0,-1,390.907,172.39698)" stroke-width=".99628" stroke-linecap="butt" stroke-dasharray="2.98883,2.98883" stroke-miterlimit="10" stroke-linejoin="miter" fill="none" stroke="#1f6e96" d="M307.0713-319.91429 139.57784-54.8667-307.0713-133.62076"/>
<path transform="matrix(1,0,0,-1,390.907,172.39698)" stroke-width=".99628" stroke-linecap="butt" stroke-dasharray="2.98883,2.98883" stroke-miterlimit="10" stroke-linejoin="miter" fill="none" stroke="#1f6e96" d="M139.57784-54.8667V171.9008"/>
<path transform="matrix(1,0,0,-1,390.907,172.39698)" stroke-width=".99628" stroke-linecap="butt" stroke-dasharray="2.98883,2.98883" stroke-miterlimit="10" stroke-linejoin="miter" fill="none" stroke="#1f6e96" d="M-98.16432 62.09666C-98.16432 62.09666-82.16005 45.14433-71.84557 37.92957-61.53107 30.7148-33.64352 15.07542-23.82469 10.09763-14.00584 5.11986-6.80344 4.09177-1.07822 2.0531 4.64696 .01442 12.22687-3.09543 17.43872-4.59573 22.65054-6.09604 24.9199-4.59564 36.48503-8.76 48.05013-12.92435 100.79192-34.60953 100.79192-34.60953V-119.64867C100.79192-119.64867 48.05013-97.96349 36.48503-93.79913 24.9199-89.63478 22.65054-91.13516 17.43872-89.63487 12.22687-88.13457 4.64696-85.02469-1.07822-82.98601-6.80344-80.94733-14.00584-79.91925-23.82469-74.94145-33.64352-69.96367-61.53107-54.32431-71.84557-47.10954-82.16005-39.89476-98.16432-22.94243-98.16432-22.94243Z"/>
<path transform="matrix(1,0,0,-1,390.907,172.39698)" stroke-width=".99628" stroke-linecap="butt" stroke-miterlimit="10" stroke-linejoin="miter" fill="none" stroke="#1f6e96" d="M-98.16432 62.09666C-98.16432 62.09666-82.16005 45.14433-71.84557 37.92957-61.53107 30.7148-33.64352 15.07542-23.82469 10.09763-14.00584 5.11986-6.80344 4.09177-1.07822 2.0531 4.64696 .01442 12.22687-3.09543 17.43872-4.59573 22.65054-6.09604 24.9199-4.59564 36.48503-8.76 48.05013-12.92435 100.79192-34.60953 100.79192-34.60953"/>
<path transform="matrix(1,0,0,-1,390.907,172.39698)" stroke-width=".99628" stroke-linecap="butt" stroke-dasharray="2.98883,2.98883" stroke-miterlimit="10" stroke-linejoin="miter" fill="none" stroke="#1f6e96" d="M-26.37335-43.3869C-26.37335-43.3869-18.29231-30.31294-15.4636-26.04666-12.63489-21.78038-7.73976-15.59148-5.98593-12.63855-4.2321-9.68561-3.50412-6.80243-2.8232-4.76399-2.14226-2.72554-1.07822 2.0531-1.07822 2.0531V-82.98601C-1.07822-82.98601-2.14226-87.76468-2.8232-89.80313-3.50412-91.84155-4.2321-94.72475-5.98593-97.67767-7.73976-100.63062-12.63489-106.81952-15.4636-111.08578-18.29231-115.35207-26.37335-128.42603-26.37335-128.42603Z"/>
<path transform="matrix(1,0,0,-1,390.907,172.39698)" stroke-width=".99628" stroke-linecap="butt" stroke-miterlimit="10" stroke-linejoin="miter" fill="none" stroke="#1f6e96" d="M-26.37335-43.3869C-26.37335-43.3869-18.29231-30.31294-15.4636-26.04666-12.63489-21.78038-7.73976-15.59148-5.98593-12.63855-4.2321-9.68561-3.50412-6.80243-2.8232-4.76399-2.14226-2.72554-1.07822 2.0531-1.07822 2.0531"/>
<path transform="matrix(1,0,0,-1,390.907,172.39698)" stroke-width=".99628" stroke-linecap="butt" stroke-dasharray="2.98883,2.98883" stroke-miterlimit="10" stroke-linejoin="miter" fill="none" stroke="#1f6e96" d="M-1.07822 2.0531C-1.07822 2.0531 .28795 5.17073 .47362 6.39336 .65929 7.61598 .10854 9.58783 .25995 10.86494 .41138 12.14203 1.12505 13.3138 1.56497 15.59775 2.0049 17.88173 3.4307 27.32622 3.4307 27.32622V-57.71289C3.4307-57.71289 2.0049-67.15738 1.56497-69.44133 1.12505-71.72531 .41138-72.89708 .25995-74.17416 .10854-75.45126 .65929-77.42313 .47362-78.64574 .28795-79.86838-1.07822-82.98601-1.07822-82.98601Z"/>
<path transform="matrix(1,0,0,-1,390.907,172.39698)" stroke-width=".99628" stroke-linecap="butt" stroke-miterlimit="10" stroke-linejoin="miter" fill="none" stroke="#1f6e96" d="M-1.07822 2.0531C-1.07822 2.0531 .28795 5.17073 .47362 6.39336 .65929 7.61598 .10854 9.58783 .25995 10.86494 .41138 12.14203 1.12505 13.3138 1.56497 15.59775 2.0049 17.88173 3.4307 27.32622 3.4307 27.32622"/>
<path transform="matrix(1,0,0,-1,390.907,172.39698)" stroke-width=".99628" stroke-linecap="butt" stroke-miterlimit="10" stroke-linejoin="miter" fill="none" stroke="#929292" d="M-128.41077-416.33955 354.56706-331.1798"/>
<path transform="matrix(.9848,-.17363,-.17363,-.9848,745.47409,503.5768)" d="M6.17204 0C5.4141 .16904 2.08237 1.12698 0 2.16945V-2.16945C2.08237-1.12698 5.4141-.16904 6.17204 0Z" fill="#929292"/>
<path transform="matrix(.9848,-.17363,-.17363,-.9848,745.47409,503.5768)" stroke-width=".99628" stroke-linecap="butt" stroke-miterlimit="10" stroke-linejoin="miter" fill="none" stroke="#929292" d="M6.17204 0C5.4141 .16904 2.08237 1.12698 0 2.16945V-2.16945C2.08237-1.12698 5.4141-.16904 6.17204 0Z"/>
<use data-text="x" xlink:href="#font_1_3" transform="matrix(9.4645,0,0,-9.4645,757.162,504.62)" fill="#929292"/>
<path transform="matrix(1,0,0,-1,390.907,172.39698)" stroke-width=".99628" stroke-linecap="butt" stroke-miterlimit="10" stroke-linejoin="miter" fill="none" stroke="#929292" d="M-128.41077-416.33955-122.82892-425.17247"/>
<use data-text="4" xlink:href="#font_2_6" transform="matrix(9.320829,1.6435105,1.6435105,-9.320829,271.096,601.488)" fill="#929292"/>
<use data-text="1" xlink:href="#font_2_4" transform="matrix(9.320829,1.6435105,1.6435105,-9.320829,276.27839,602.4018)" fill="#929292"/>
<use data-text="0" xlink:href="#font_2_3" transform="matrix(9.320829,1.6435105,1.6435105,-9.320829,281.4608,603.31558)" fill="#929292"/>
<use data-text="." xlink:href="#font_2_2" transform="matrix(9.320829,1.6435105,1.6435105,-9.320829,286.64317,604.2294)" fill="#929292"/>
<use data-text="0" xlink:href="#font_2_3" transform="matrix(9.320829,1.6435105,1.6435105,-9.320829,289.23439,604.6863)" fill="#929292"/>
<use data-text="k" xlink:href="#font_2_16" transform="matrix(9.320829,1.6435105,1.6435105,-9.320829,295.97334,605.8745)" fill="#929292"/>
<use data-text="m" xlink:href="#font_2_18" transform="matrix(9.320829,1.6435105,1.6435105,-9.320829,300.63374,606.6963)" fill="#929292"/>
<path transform="matrix(1,0,0,-1,390.907,172.39698)" stroke-width=".99628" stroke-linecap="butt" stroke-miterlimit="10" stroke-linejoin="miter" fill="none" stroke="#929292" d="M318.2452-337.58427 323.82704-346.41719"/>
<use data-text="4" xlink:href="#font_2_6" transform="matrix(9.320829,1.6435105,1.6435105,-9.320829,717.747,522.734)" fill="#929292"/>
<use data-text="9" xlink:href="#font_2_8" transform="matrix(9.320829,1.6435105,1.6435105,-9.320829,722.9294,523.6478)" fill="#929292"/>
<use data-text="0" xlink:href="#font_2_3" transform="matrix(9.320829,1.6435105,1.6435105,-9.320829,728.11178,524.5616)" fill="#929292"/>
<use data-text="." xlink:href="#font_2_2" transform="matrix(9.320829,1.6435105,1.6435105,-9.320829,733.2942,525.4754)" fill="#929292"/>
<use data-text="0" xlink:href="#font_2_3" transform="matrix(9.320829,1.6435105,1.6435105,-9.320829,735.8853,525.93228)" fill="#929292"/>
<use data-text="k" xlink:href="#font_2_16" transform="matrix(9.320829,1.6435105,1.6435105,-9.320829,742.62429,527.12057)" fill="#929292"/>
<use data-text="m" xlink:href="#font_2_18" transform="matrix(9.320829,1.6435105,1.6435105,-9.320829,747.28469,527.94229)" fill="#929292"/>
<path transform="matrix(1,0,0,-1,390.907,172.39698)" stroke-width=".99628" stroke-linecap="butt" stroke-miterlimit="10" stroke-linejoin="miter" fill="none" stroke="#929292" d="M-161.912-402.60636-347.216-109.37474"/>
<path transform="matrix(-.53418,-.8453,-.8453,.53418,43.69101,281.77174)" d="M6.17204 0C5.4141 .16904 2.08237 1.12698 0 2.16945V-2.16945C2.08237-1.12698 5.4141-.16904 6.17204 0Z" fill="#929292"/>
<path transform="matrix(-.53418,-.8453,-.8453,.53418,43.69101,281.77174)" stroke-width=".99628" stroke-linecap="butt" stroke-miterlimit="10" stroke-linejoin="miter" fill="none" stroke="#929292" d="M6.17204 0C5.4141 .16904 2.08237 1.12698 0 2.16945V-2.16945C2.08237-1.12698 5.4141-.16904 6.17204 0Z"/>
<use data-text="y" xlink:href="#font_1_1" transform="matrix(9.4645,0,0,-9.4645,36.54001,269.266)" fill="#929292"/>
<path transform="matrix(1,0,0,-1,390.907,172.39698)" stroke-width=".99628" stroke-linecap="butt" stroke-miterlimit="10" stroke-linejoin="miter" fill="none" stroke="#929292" d="M-161.912-402.60636-173.07569-404.57475"/>
<use data-text="3" xlink:href="#font_2_5" transform="matrix(9.320829,-1.6435105,-1.6435105,-9.320829,172.33602,588.381)" fill="#929292"/>
<use data-text="9" xlink:href="#font_2_8" transform="matrix(9.320829,-1.6435105,-1.6435105,-9.320829,177.5184,587.46719)" fill="#929292"/>
<use data-text="1" xlink:href="#font_2_4" transform="matrix(9.320829,-1.6435105,-1.6435105,-9.320829,182.70079,586.5534)" fill="#929292"/>
<use data-text="0" xlink:href="#font_2_3" transform="matrix(9.320829,-1.6435105,-1.6435105,-9.320829,187.88318,585.6396)" fill="#929292"/>
<use data-text="." xlink:href="#font_2_2" transform="matrix(9.320829,-1.6435105,-1.6435105,-9.320829,193.06557,584.72579)" fill="#929292"/>
<use data-text="0" xlink:href="#font_2_3" transform="matrix(9.320829,-1.6435105,-1.6435105,-9.320829,195.65676,584.2689)" fill="#929292"/>
<use data-text="k" xlink:href="#font_2_16" transform="matrix(9.320829,-1.6435105,-1.6435105,-9.320829,202.39572,583.0806)" fill="#929292"/>
<use data-text="m" xlink:href="#font_2_18" transform="matrix(9.320829,-1.6435105,-1.6435105,-9.320829,207.05614,582.2589)" fill="#929292"/>
<path transform="matrix(1,0,0,-1,390.907,172.39698)" stroke-width=".99628" stroke-linecap="butt" stroke-miterlimit="10" stroke-linejoin="miter" fill="none" stroke="#929292" d="M-329.40803-137.55474-340.57167-139.52313"/>
<use data-text="3" xlink:href="#font_2_5" transform="matrix(9.320829,-1.6435105,-1.6435105,-9.320829,4.8420107,323.33296)" fill="#929292"/>
<use data-text="9" xlink:href="#font_2_8" transform="matrix(9.320829,-1.6435105,-1.6435105,-9.320829,10.024395,322.41917)" fill="#929292"/>
<use data-text="7" xlink:href="#font_2_7" transform="matrix(9.320829,-1.6435105,-1.6435105,-9.320829,15.206776,321.50538)" fill="#929292"/>
<use data-text="0" xlink:href="#font_2_3" transform="matrix(9.320829,-1.6435105,-1.6435105,-9.320829,20.389157,320.59159)" fill="#929292"/>
<use data-text="." xlink:href="#font_2_2" transform="matrix(9.320829,-1.6435105,-1.6435105,-9.320829,25.571537,319.6778)" fill="#929292"/>
<use data-text="0" xlink:href="#font_2_3" transform="matrix(9.320829,-1.6435105,-1.6435105,-9.320829,28.16273,319.2209)" fill="#929292"/>
<use data-text="k" xlink:href="#font_2_16" transform="matrix(9.320829,-1.6435105,-1.6435105,-9.320829,34.901689,318.03263)" fill="#929292"/>
<use data-text="m" xlink:href="#font_2_18" transform="matrix(9.320829,-1.6435105,-1.6435105,-9.320829,39.562105,317.21089)" fill="#929292"/>
<path transform="matrix(1,0,0,-1,390.907,172.39698)" stroke-width=".99628" stroke-linecap="butt" stroke-miterlimit="10" stroke-linejoin="miter" fill="none" stroke="#929292" d="M-329.40547-137.55878V126.09735"/>
<path transform="matrix(0,-1,-1,-0,61.501558,46.29962)" d="M6.17204 0C5.4141 .16904 2.08237 1.12698 0 2.16945V-2.16945C2.08237-1.12698 5.4141-.16904 6.17204 0Z" fill="#929292"/>
<path transform="matrix(0,-1,-1,-0,61.501558,46.29962)" stroke-width=".99628" stroke-linecap="butt" stroke-miterlimit="10" stroke-linejoin="miter" fill="none" stroke="#929292" d="M6.17204 0C5.4141 .16904 2.08237 1.12698 0 2.16945V-2.16945C2.08237-1.12698 5.4141-.16904 6.17204 0Z"/>
<use data-text="z" xlink:href="#font_1_2" transform="matrix(9.4645,0,0,-9.4645,59.139009,34.478944)" fill="#929292"/>
<path transform="matrix(1,0,0,-1,390.907,172.39698)" stroke-width=".99628" stroke-linecap="butt" stroke-miterlimit="10" stroke-linejoin="miter" fill="none" stroke="#929292" d="M-329.40547-137.55878-340.56913-139.52718"/>
<use data-text="-" xlink:href="#font_2_1" transform="matrix(9.4645,0,0,-9.4645,10.927002,315.26295)" fill="#929292"/>
<use data-text="4" xlink:href="#font_2_6" transform="matrix(9.4645,0,0,-9.4645,14.078681,315.26295)" fill="#929292"/>
<use data-text="0" xlink:href="#font_2_3" transform="matrix(9.4645,0,0,-9.4645,19.340945,315.26295)" fill="#929292"/>
<use data-text="." xlink:href="#font_2_2" transform="matrix(9.4645,0,0,-9.4645,24.603207,315.26295)" fill="#929292"/>
<use data-text="0" xlink:href="#font_2_3" transform="matrix(9.4645,0,0,-9.4645,27.234339,315.26295)" fill="#929292"/>
<use data-text="k" xlink:href="#font_2_16" transform="matrix(9.4645,0,0,-9.4645,34.07717,315.26295)" fill="#929292"/>
<use data-text="m" xlink:href="#font_2_18" transform="matrix(9.4645,0,0,-9.4645,38.809427,315.26295)" fill="#929292"/>
<path transform="matrix(1,0,0,-1,390.907,172.39698)" stroke-width=".99628" stroke-linecap="butt" stroke-miterlimit="10" stroke-linejoin="miter" fill="none" stroke="#929292" d="M-329.40547 89.21222-340.56913 87.24382"/>
<use data-text="0" xlink:href="#font_2_3" transform="matrix(9.4645,0,0,-9.4645,19.340027,88.494998)" fill="#929292"/>
<use data-text="." xlink:href="#font_2_2" transform="matrix(9.4645,0,0,-9.4645,24.60229,88.494998)" fill="#929292"/>
<use data-text="0" xlink:href="#font_2_3" transform="matrix(9.4645,0,0,-9.4645,27.233422,88.494998)" fill="#929292"/>
<use data-text="k" xlink:href="#font_2_16" transform="matrix(9.4645,0,0,-9.4645,34.076257,88.494998)" fill="#929292"/>
<use data-text="m" xlink:href="#font_2_18" transform="matrix(9.4645,0,0,-9.4645,38.808507,88.494998)" fill="#929292"/>
<use data-text="b" xlink:href="#font_2_10" transform="matrix(4.73225,8.196541,8.196541,-4.73225,149.87302,299.28999)" fill="#6100ad"/>
<use data-text="o" xlink:href="#font_2_20" transform="matrix(4.73225,8.196541,8.196541,-4.73225,152.50415,303.8473)" fill="#6100ad"/>
<use data-text="u" xlink:href="#font_2_25" transform="matrix(4.73225,8.196541,8.196541,-4.73225,155.13529,308.40455)" fill="#6100ad"/>
<use data-text="n" xlink:href="#font_2_19" transform="matrix(4.73225,8.196541,8.196541,-4.73225,157.76642,312.96186)" fill="#6100ad"/>
<use data-text="d" xlink:href="#font_2_11" transform="matrix(4.73225,8.196541,8.196541,-4.73225,160.39756,317.5191)" fill="#6100ad"/>
<use data-text="a" xlink:href="#font_2_9" transform="matrix(4.73225,8.196541,8.196541,-4.73225,163.02869,322.07643)" fill="#6100ad"/>
<use data-text="r" xlink:href="#font_2_22" transform="matrix(4.73225,8.196541,8.196541,-4.73225,165.65982,326.63368)" fill="#6100ad"/>
<use data-text="y" xlink:href="#font_2_27" transform="matrix(4.73225,8.196541,8.196541,-4.73225,167.37763,329.609)" fill="#6100ad"/>
<path transform="matrix(.5,.86603,.86603,-.5,170.19986,334.0993)" stroke-width=".398" stroke-linecap="butt" stroke-miterlimit="10" stroke-linejoin="miter" fill="none" stroke="#6100ad" d="M0 0H2.839"/>
<use data-text="w" xlink:href="#font_2_26" transform="matrix(4.73225,8.196541,8.196541,-4.73225,171.44702,336.65748)" fill="#6100ad"/>
<use data-text="e" xlink:href="#font_2_12" transform="matrix(4.73225,8.196541,8.196541,-4.73225,174.81638,342.4934)" fill="#6100ad"/>
<use data-text="s" xlink:href="#font_2_23" transform="matrix(4.73225,8.196541,8.196541,-4.73225,177.44751,347.05067)" fill="#6100ad"/>
<use data-text="t" xlink:href="#font_2_24" transform="matrix(4.73225,8.196541,8.196541,-4.73225,179.81363,351.14894)" fill="#6100ad"/>
<use data-text="b" xlink:href="#font_2_10" transform="matrix(4.73225,8.196541,8.196541,-4.73225,596.885,221.17697)" fill="#6100ad"/>
<use data-text="o" xlink:href="#font_2_20" transform="matrix(4.73225,8.196541,8.196541,-4.73225,599.5161,225.73429)" fill="#6100ad"/>
<use data-text="u" xlink:href="#font_2_25" transform="matrix(4.73225,8.196541,8.196541,-4.73225,602.1472,230.29154)" fill="#6100ad"/>
<use data-text="n" xlink:href="#font_2_19" transform="matrix(4.73225,8.196541,8.196541,-4.73225,604.7784,234.84885)" fill="#6100ad"/>
<use data-text="d" xlink:href="#font_2_11" transform="matrix(4.73225,8.196541,8.196541,-4.73225,607.40957,239.4061)" fill="#6100ad"/>
<use data-text="a" xlink:href="#font_2_9" transform="matrix(4.73225,8.196541,8.196541,-4.73225,610.04067,243.96341)" fill="#6100ad"/>
<use data-text="r" xlink:href="#font_2_22" transform="matrix(4.73225,8.196541,8.196541,-4.73225,612.67178,248.52066)" fill="#6100ad"/>
<use data-text="y" xlink:href="#font_2_27" transform="matrix(4.73225,8.196541,8.196541,-4.73225,614.3896,251.496)" fill="#6100ad"/>
<path transform="matrix(.5,.86603,.86603,-.5,617.21267,255.98581)" stroke-width=".398" stroke-linecap="butt" stroke-miterlimit="10" stroke-linejoin="miter" fill="none" stroke="#6100ad" d="M0 0H2.839"/>
<use data-text="e" xlink:href="#font_2_12" transform="matrix(4.73225,8.196541,8.196541,-4.73225,618.4595,258.54533)" fill="#6100ad"/>
<use data-text="a" xlink:href="#font_2_9" transform="matrix(4.73225,8.196541,8.196541,-4.73225,621.0906,263.10258)" fill="#6100ad"/>
<use data-text="s" xlink:href="#font_2_23" transform="matrix(4.73225,8.196541,8.196541,-4.73225,623.72177,267.65989)" fill="#6100ad"/>
<use data-text="t" xlink:href="#font_2_24" transform="matrix(4.73225,8.196541,8.196541,-4.73225,626.0879,271.75816)" fill="#6100ad"/>
<use data-text="b" xlink:href="#font_2_10" transform="matrix(9.320829,-1.6435105,-1.6435105,-9.320829,442.424,426.42698)" fill="#6100ad"/>
<use data-text="o" xlink:href="#font_2_20" transform="matrix(9.320829,-1.6435105,-1.6435105,-9.320829,447.6064,425.51319)" fill="#6100ad"/>
<use data-text="u" xlink:href="#font_2_25" transform="matrix(9.320829,-1.6435105,-1.6435105,-9.320829,452.7888,424.59938)" fill="#6100ad"/>
<use data-text="n" xlink:href="#font_2_19" transform="matrix(9.320829,-1.6435105,-1.6435105,-9.320829,457.9712,423.68559)" fill="#6100ad"/>
<use data-text="d" xlink:href="#font_2_11" transform="matrix(9.320829,-1.6435105,-1.6435105,-9.320829,463.15357,422.7718)" fill="#6100ad"/>
<use data-text="a" xlink:href="#font_2_9" transform="matrix(9.320829,-1.6435105,-1.6435105,-9.320829,468.33598,421.858)" fill="#6100ad"/>
<use data-text="r" xlink:href="#font_2_22" transform="matrix(9.320829,-1.6435105,-1.6435105,-9.320829,473.51835,420.9442)" fill="#6100ad"/>
<use data-text="y" xlink:href="#font_2_27" transform="matrix(9.320829,-1.6435105,-1.6435105,-9.320829,476.9018,420.3476)" fill="#6100ad"/>
<path transform="matrix(.98482,-.17365,-.17365,-.98482,482.08659,419.23133)" stroke-width=".398" stroke-linecap="butt" stroke-miterlimit="10" stroke-linejoin="miter" fill="none" stroke="#6100ad" d="M0 0H2.839"/>
<use data-text="s" xlink:href="#font_2_23" transform="matrix(9.320829,-1.6435105,-1.6435105,-9.320829,484.918,418.93415)" fill="#6100ad"/>
<use data-text="o" xlink:href="#font_2_20" transform="matrix(9.320829,-1.6435105,-1.6435105,-9.320829,489.5784,418.1124)" fill="#6100ad"/>
<use data-text="u" xlink:href="#font_2_25" transform="matrix(9.320829,-1.6435105,-1.6435105,-9.320829,494.7608,417.1986)" fill="#6100ad"/>
<use data-text="t" xlink:href="#font_2_24" transform="matrix(9.320829,-1.6435105,-1.6435105,-9.320829,499.94319,416.2848)" fill="#6100ad"/>
<use data-text="h" xlink:href="#font_2_14" transform="matrix(9.320829,-1.6435105,-1.6435105,-9.320829,502.53437,415.8279)" fill="#6100ad"/>
<use data-text="b" xlink:href="#font_2_10" transform="matrix(9.320829,-1.6435105,-1.6435105,-9.320829,387.186,84.89899)" fill="#6100ad"/>
<use data-text="o" xlink:href="#font_2_20" transform="matrix(9.320829,-1.6435105,-1.6435105,-9.320829,392.36839,83.98523)" fill="#6100ad"/>
<use data-text="u" xlink:href="#font_2_25" transform="matrix(9.320829,-1.6435105,-1.6435105,-9.320829,397.55079,83.07141)" fill="#6100ad"/>
<use data-text="n" xlink:href="#font_2_19" transform="matrix(9.320829,-1.6435105,-1.6435105,-9.320829,402.73316,82.15759)" fill="#6100ad"/>
<use data-text="d" xlink:href="#font_2_11" transform="matrix(9.320829,-1.6435105,-1.6435105,-9.320829,407.91557,81.243839)" fill="#6100ad"/>
<use data-text="a" xlink:href="#font_2_9" transform="matrix(9.320829,-1.6435105,-1.6435105,-9.320829,413.09794,80.33002)" fill="#6100ad"/>
<use data-text="r" xlink:href="#font_2_22" transform="matrix(9.320829,-1.6435105,-1.6435105,-9.320829,418.2803,79.41626)" fill="#6100ad"/>
<use data-text="y" xlink:href="#font_2_27" transform="matrix(9.320829,-1.6435105,-1.6435105,-9.320829,421.6638,78.81964)" fill="#6100ad"/>
<path transform="matrix(.98482,-.17365,-.17365,-.98482,426.84855,77.70343)" stroke-width=".398" stroke-linecap="butt" stroke-miterlimit="10" stroke-linejoin="miter" fill="none" stroke="#6100ad" d="M0 0H2.839"/>
<use data-text="n" xlink:href="#font_2_19" transform="matrix(9.320829,-1.6435105,-1.6435105,-9.320829,429.67903,77.40637)" fill="#6100ad"/>
<use data-text="o" xlink:href="#font_2_20" transform="matrix(9.320829,-1.6435105,-1.6435105,-9.320829,434.86143,76.49255)" fill="#6100ad"/>
<use data-text="r" xlink:href="#font_2_22" transform="matrix(9.320829,-1.6435105,-1.6435105,-9.320829,440.0438,75.578739)" fill="#6100ad"/>
<use data-text="t" xlink:href="#font_2_24" transform="matrix(9.320829,-1.6435105,-1.6435105,-9.320829,443.52046,74.96576)" fill="#6100ad"/>
<use data-text="h" xlink:href="#font_2_14" transform="matrix(9.320829,-1.6435105,-1.6435105,-9.320829,446.11164,74.50885)" fill="#6100ad"/>
<use data-text="b" xlink:href="#font_2_10" transform="matrix(9.320829,-1.6435105,-1.6435105,-9.320829,355.83103,407.79)" fill="#6100ad"/>
<use data-text="o" xlink:href="#font_2_20" transform="matrix(9.320829,-1.6435105,-1.6435105,-9.320829,361.0134,406.87623)" fill="#6100ad"/>
<use data-text="u" xlink:href="#font_2_25" transform="matrix(9.320829,-1.6435105,-1.6435105,-9.320829,366.19578,405.9624)" fill="#6100ad"/>
<use data-text="n" xlink:href="#font_2_19" transform="matrix(9.320829,-1.6435105,-1.6435105,-9.320829,371.3782,405.0486)" fill="#6100ad"/>
<use data-text="d" xlink:href="#font_2_11" transform="matrix(9.320829,-1.6435105,-1.6435105,-9.320829,376.56059,404.13484)" fill="#6100ad"/>
<use data-text="a" xlink:href="#font_2_9" transform="matrix(9.320829,-1.6435105,-1.6435105,-9.320829,381.74296,403.22105)" fill="#6100ad"/>
<use data-text="r" xlink:href="#font_2_22" transform="matrix(9.320829,-1.6435105,-1.6435105,-9.320829,386.92533,402.30726)" fill="#6100ad"/>
<use data-text="y" xlink:href="#font_2_27" transform="matrix(9.320829,-1.6435105,-1.6435105,-9.320829,390.3088,401.71064)" fill="#6100ad"/>
<path transform="matrix(.98482,-.17365,-.17365,-.98482,395.4934,400.59336)" stroke-width=".398" stroke-linecap="butt" stroke-miterlimit="10" stroke-linejoin="miter" fill="none" stroke="#6100ad" d="M0 0H2.839"/>
<use data-text="b" xlink:href="#font_2_10" transform="matrix(9.320829,-1.6435105,-1.6435105,-9.320829,398.32408,400.29737)" fill="#6100ad"/>
<use data-text="o" xlink:href="#font_2_20" transform="matrix(9.320829,-1.6435105,-1.6435105,-9.320829,403.50645,399.38356)" fill="#6100ad"/>
<use data-text="t" xlink:href="#font_2_24" transform="matrix(9.320829,-1.6435105,-1.6435105,-9.320829,408.6888,398.46977)" fill="#6100ad"/>
<use data-text="t" xlink:href="#font_2_24" transform="matrix(9.320829,-1.6435105,-1.6435105,-9.320829,411.28,398.01289)" fill="#6100ad"/>
<use data-text="o" xlink:href="#font_2_20" transform="matrix(9.320829,-1.6435105,-1.6435105,-9.320829,413.8712,397.55598)" fill="#6100ad"/>
<use data-text="m" xlink:href="#font_2_18" transform="matrix(9.320829,-1.6435105,-1.6435105,-9.320829,419.05357,396.64219)" fill="#6100ad"/>
<use data-text="b" xlink:href="#font_2_10" transform="matrix(9.320829,-1.6435105,-1.6435105,-9.320829,279.854,282.79499)" fill="#6100ad"/>
<use data-text="o" xlink:href="#font_2_20" transform="matrix(9.320829,-1.6435105,-1.6435105,-9.320829,285.03639,281.8812)" fill="#6100ad"/>
<use data-text="u" xlink:href="#font_2_25" transform="matrix(9.320829,-1.6435105,-1.6435105,-9.320829,290.21876,280.9674)" fill="#6100ad"/>
<use data-text="n" xlink:href="#font_2_19" transform="matrix(9.320829,-1.6435105,-1.6435105,-9.320829,295.40116,280.05363)" fill="#6100ad"/>
<use data-text="d" xlink:href="#font_2_11" transform="matrix(9.320829,-1.6435105,-1.6435105,-9.320829,300.58354,279.1398)" fill="#6100ad"/>
<use data-text="a" xlink:href="#font_2_9" transform="matrix(9.320829,-1.6435105,-1.6435105,-9.320829,305.76594,278.226)" fill="#6100ad"/>
<use data-text="r" xlink:href="#font_2_22" transform="matrix(9.320829,-1.6435105,-1.6435105,-9.320829,310.9483,277.31224)" fill="#6100ad"/>
<use data-text="y" xlink:href="#font_2_27" transform="matrix(9.320829,-1.6435105,-1.6435105,-9.320829,314.33177,276.71565)" fill="#6100ad"/>
<path transform="matrix(.98482,-.17365,-.17365,-.98482,319.51557,275.59953)" stroke-width=".398" stroke-linecap="butt" stroke-miterlimit="10" stroke-linejoin="miter" fill="none" stroke="#6100ad" d="M0 0H2.839"/>
<use data-text="t" xlink:href="#font_2_24" transform="matrix(9.320829,-1.6435105,-1.6435105,-9.320829,322.34706,275.30235)" fill="#6100ad"/>
<use data-text="o" xlink:href="#font_2_20" transform="matrix(9.320829,-1.6435105,-1.6435105,-9.320829,324.93824,274.84544)" fill="#6100ad"/>
<use data-text="p" xlink:href="#font_2_21" transform="matrix(9.320829,-1.6435105,-1.6435105,-9.320829,330.1206,273.93165)" fill="#6100ad"/>
<use data-text="f" xlink:href="#font_2_13" transform="matrix(9.320829,-1.6435105,-1.6435105,-9.320829,322.953,137.21399)" fill="#6100ad"/>
<use data-text="a" xlink:href="#font_2_9" transform="matrix(9.320829,-1.6435105,-1.6435105,-9.320829,325.2646,136.8064)" fill="#6100ad"/>
<use data-text="u" xlink:href="#font_2_25" transform="matrix(9.320829,-1.6435105,-1.6435105,-9.320829,330.44697,135.89264)" fill="#6100ad"/>
<use data-text="l" xlink:href="#font_2_17" transform="matrix(9.320829,-1.6435105,-1.6435105,-9.320829,335.62937,134.97882)" fill="#6100ad"/>
<use data-text="t" xlink:href="#font_2_24" transform="matrix(9.320829,-1.6435105,-1.6435105,-9.320829,337.69859,134.61396)" fill="#6100ad"/>
<path transform="matrix(.98482,-.17365,-.17365,-.98482,340.81346,133.86164)" stroke-width=".398" stroke-linecap="butt" stroke-miterlimit="10" stroke-linejoin="miter" fill="none" stroke="#6100ad" d="M0 0H2.839"/>
<use data-text="m" xlink:href="#font_2_18" transform="matrix(9.320829,-1.6435105,-1.6435105,-9.320829,343.6441,133.56562)" fill="#6100ad"/>
<use data-text="a" xlink:href="#font_2_9" transform="matrix(9.320829,-1.6435105,-1.6435105,-9.320829,351.40837,132.1966)" fill="#6100ad"/>
<use data-text="i" xlink:href="#font_2_15" transform="matrix(9.320829,-1.6435105,-1.6435105,-9.320829,356.59074,131.28278)" fill="#6100ad"/>
<use data-text="n" xlink:href="#font_2_19" transform="matrix(9.320829,-1.6435105,-1.6435105,-9.320829,358.65995,130.91791)" fill="#6100ad"/>
<use data-text="f" xlink:href="#font_2_13" transform="matrix(9.320829,-1.6435105,-1.6435105,-9.320829,332.96504,209.36399)" fill="#6100ad"/>
<use data-text="a" xlink:href="#font_2_9" transform="matrix(9.320829,-1.6435105,-1.6435105,-9.320829,335.2766,208.95639)" fill="#6100ad"/>
<use data-text="u" xlink:href="#font_2_25" transform="matrix(9.320829,-1.6435105,-1.6435105,-9.320829,340.45899,208.0426)" fill="#6100ad"/>
<use data-text="l" xlink:href="#font_2_17" transform="matrix(9.320829,-1.6435105,-1.6435105,-9.320829,345.6414,207.12882)" fill="#6100ad"/>
<use data-text="t" xlink:href="#font_2_24" transform="matrix(9.320829,-1.6435105,-1.6435105,-9.320829,347.71058,206.76395)" fill="#6100ad"/>
<path transform="matrix(.98482,-.17365,-.17365,-.98482,350.82646,206.01145)" stroke-width=".398" stroke-linecap="butt" stroke-miterlimit="10" stroke-linejoin="miter" fill="none" stroke="#6100ad" d="M0 0H2.839"/>
<use data-text="w" xlink:href="#font_2_26" transform="matrix(9.320829,-1.6435105,-1.6435105,-9.320829,353.6571,205.71543)" fill="#6100ad"/>
<use data-text="e" xlink:href="#font_2_12" transform="matrix(9.320829,-1.6435105,-1.6435105,-9.320829,360.29356,204.54523)" fill="#6100ad"/>
<use data-text="s" xlink:href="#font_2_23" transform="matrix(9.320829,-1.6435105,-1.6435105,-9.320829,365.47593,203.63144)" fill="#6100ad"/>
<use data-text="t" xlink:href="#font_2_24" transform="matrix(9.320829,-1.6435105,-1.6435105,-9.320829,370.13636,202.8097)" fill="#6100ad"/>
<use data-text="f" xlink:href="#font_2_13" transform="matrix(9.320829,-1.6435105,-1.6435105,-9.320829,396.36103,159.54499)" fill="#6100ad"/>
<use data-text="a" xlink:href="#font_2_9" transform="matrix(9.320829,-1.6435105,-1.6435105,-9.320829,398.67259,159.13739)" fill="#6100ad"/>
<use data-text="u" xlink:href="#font_2_25" transform="matrix(9.320829,-1.6435105,-1.6435105,-9.320829,403.85499,158.22357)" fill="#6100ad"/>
<use data-text="l" xlink:href="#font_2_17" transform="matrix(9.320829,-1.6435105,-1.6435105,-9.320829,409.03736,157.30982)" fill="#6100ad"/>
<use data-text="t" xlink:href="#font_2_24" transform="matrix(9.320829,-1.6435105,-1.6435105,-9.320829,411.10658,156.94495)" fill="#6100ad"/>
<path transform="matrix(.98482,-.17365,-.17365,-.98482,414.2226,156.19342)" stroke-width=".398" stroke-linecap="butt" stroke-miterlimit="10" stroke-linejoin="miter" fill="none" stroke="#6100ad" d="M0 0H2.839"/>
<use data-text="e" xlink:href="#font_2_12" transform="matrix(9.320829,-1.6435105,-1.6435105,-9.320829,417.0531,155.89643)" fill="#6100ad"/>
<use data-text="a" xlink:href="#font_2_9" transform="matrix(9.320829,-1.6435105,-1.6435105,-9.320829,422.23548,154.9826)" fill="#6100ad"/>
<use data-text="s" xlink:href="#font_2_23" transform="matrix(9.320829,-1.6435105,-1.6435105,-9.320829,427.41789,154.06879)" fill="#6100ad"/>
<use data-text="t" xlink:href="#font_2_24" transform="matrix(9.320829,-1.6435105,-1.6435105,-9.320829,432.07829,153.24707)" fill="#6100ad"/>
</svg>
