<?xml version="1.0" encoding="UTF-8" standalone="no"?>
<!DOCTYPE svg PUBLIC "-//W3C//DTD SVG 1.1//EN" "http://www.w3.org/Graphics/SVG/1.1/DTD/svg11.dtd">
<svg xmlns="http://www.w3.org/2000/svg" xmlns:xlink="http://www.w3.org/1999/xlink" version="1.1" width="243.92pt" height="287.8pt" viewBox="0 0 243.92 287.8">
<g enable-background="new">
<path transform="matrix(.1,0,0,-.1,0,287.8)" d="M 691.434 403.746 L 2108.944 403.746 L 2108.944 2530.016 L 691.434 2530.016 Z " fill="#cceeff"/>
<path transform="matrix(.1,0,0,-.1,0,287.8)" stroke-width="9.9628" stroke-linecap="butt" stroke-miterlimit="10" stroke-linejoin="miter" fill="none" stroke="#1f6e96" d="M 691.434 403.746 L 2108.944 403.746 L 2108.944 2530.016 L 691.434 2530.016 Z "/>
<path transform="matrix(.1,0,0,-.1,0,287.8)" stroke-width="9.9628" stroke-linecap="butt" stroke-miterlimit="10" stroke-linejoin="miter" fill="none" stroke="#1f6e96" d="M 1400.19 403.746 L 1400.19 2530.02 "/>
<path transform="matrix(.1,0,0,-.1,0,287.8)" d="M 719.781 403.746 C 719.781 419.402 707.09 432.094 691.434 432.094 C 675.777 432.094 663.086 419.402 663.086 403.746 C 663.086 388.09 675.777 375.398 691.434 375.398 C 707.09 375.398 719.781 388.09 719.781 403.746 Z M 691.434 403.746 " fill="#f58000"/>
<symbol id="font_0_3">
<path d="M 0 0 L .08400001 0 L .08400001 .273 C .128 .21900001 .177 .19500001 .24500002 .19500001 C .38000003 .19500001 .469 .30400003 .469 .47100003 C .469 .647 .38300003 .757 .244 .757 C .17300001 .757 .116 .725 .07700001 .66300007 L .07700001 .74200007 L 0 .74200007 L 0 0 M .23 .679 C .32200004 .679 .38200004 .59800007 .38200004 .47300006 C .38200004 .35400004 .32100005 .273 .23 .273 C .142 .273 .08400001 .35300002 .08400001 .476 C .08400001 .59900006 .142 .679 .23 .679 Z "/>
</symbol>
<symbol id="font_0_16">
<path d="M .157 .505 L .157 0 L .245 0 L .245 .70900008 L .187 .70900008 C .15600002 .6 .136 .58500006 0 .568 L 0 .505 L .157 .505 Z "/>
</symbol>
<use xlink:href="#font_0_3" transform="matrix(9.4645,0,0,-9.4645,55.773183,259.51527)" fill="#f58000"/>
<use xlink:href="#font_0_16" transform="matrix(9.4645,0,0,-9.4645,61.489744,257.452)" fill="#f58000"/>
<path transform="matrix(.1,0,0,-.1,0,287.8)" d="M 2137.29 403.746 C 2137.29 419.402 2124.6 432.094 2108.95 432.094 C 2093.29 432.094 2080.6 419.402 2080.6 403.746 C 2080.6 388.09 2093.29 375.398 2108.95 375.398 C 2124.6 375.398 2137.29 388.09 2137.29 403.746 Z M 2108.95 403.746 " fill="#f58000"/>
<symbol id="font_0_17">
<path d="M .47200004 .087000008 L .099 .087000008 C .108 .14500001 .14000002 .18200001 .227 .23300001 L .32700003 .287 C .426 .34100003 .47700004 .41400004 .47700004 .50100007 C .47700004 .56 .453 .615 .411 .65300008 C .36900003 .69100007 .317 .70900008 .25 .70900008 C .16 .70900008 .093 .67700007 .054000006 .61700007 C .029 .57900008 .018 .535 .015999999 .46300004 L .10400001 .46300004 C .107 .51100006 .113 .54 .125 .563 C .148 .606 .194 .632 .24700001 .632 C .32700003 .632 .38700003 .57500007 .38700003 .499 C .38700003 .44300003 .354 .395 .291 .35900004 L .199 .307 C .051 .223 .008000001 .156 0 0 L .47200004 0 L .47200004 .087000008 Z "/>
</symbol>
<use xlink:href="#font_0_3" transform="matrix(9.4645,0,0,-9.4645,214.76308,259.51527)" fill="#f58000"/>
<use xlink:href="#font_0_17" transform="matrix(9.4645,0,0,-9.4645,219.83606,257.452)" fill="#f58000"/>
<path transform="matrix(.1,0,0,-.1,0,287.8)" d="M 2137.29 2530.02 C 2137.29 2545.67 2124.6 2558.36 2108.95 2558.36 C 2093.29 2558.36 2080.6 2545.67 2080.6 2530.02 C 2080.6 2514.36 2093.29 2501.67 2108.95 2501.67 C 2124.6 2501.67 2137.29 2514.36 2137.29 2530.02 Z M 2108.95 2530.02 " fill="#f58000"/>
<symbol id="font_0_18">
<path d="M .18900001 .34800003 L .2 .34800003 L .23700002 .349 C .33400003 .349 .384 .305 .384 .22000002 C .384 .13100001 .32900004 .07800001 .23700002 .07800001 C .141 .07800001 .094 .12600002 .088 .22900002 L 0 .22900002 C .0040000008 .172 .014000002 .135 .031 .10300001 C .067 .035000005 .13700001 0 .234 0 C .38000003 0 .47400005 .087000008 .47400005 .22100002 C .47400005 .31100003 .439 .36100004 .354 .39000003 C .42000003 .416 .453 .46600003 .453 .537 C .453 .65900006 .372 .73200008 .23700002 .73200008 C .094 .73200008 .018 .65400007 .015000001 .503 L .103 .503 C .104 .546 .107999999 .57000008 .119 .592 C .139 .63100007 .183 .65500006 .238 .65500006 C .316 .65500006 .363 .609 .363 .53400006 C .363 .48400004 .345 .45400004 .30600003 .43800003 C .282 .42800004 .25100003 .42400003 .18900001 .423 L .18900001 .34800003 Z "/>
</symbol>
<use xlink:href="#font_0_3" transform="matrix(9.4645,0,0,-9.4645,214.76308,31.530241)" fill="#f58000"/>
<use xlink:href="#font_0_18" transform="matrix(9.4645,0,0,-9.4645,219.81713,29.684664)" fill="#f58000"/>
<path transform="matrix(.1,0,0,-.1,0,287.8)" d="M 719.781 2530.02 C 719.781 2545.67 707.09 2558.36 691.434 2558.36 C 675.777 2558.36 663.086 2545.67 663.086 2530.02 C 663.086 2514.36 675.777 2501.67 691.434 2501.67 C 707.09 2501.67 719.781 2514.36 719.781 2530.02 Z M 691.434 2530.02 " fill="#f58000"/>
<symbol id="font_0_19">
<path d="M .29900003 .17 L .29900003 0 L .38700003 0 L .38700003 .17 L .49200005 .17 L .49200005 .24900002 L .38700003 .24900002 L .38700003 .70900008 L .32200004 .70900008 L 0 .263 L 0 .17 L .29900003 .17 M .29900003 .24900002 L .07700001 .24900002 L .29900003 .559 L .29900003 .24900002 Z "/>
</symbol>
<use xlink:href="#font_0_3" transform="matrix(9.4645,0,0,-9.4645,55.773183,31.530241)" fill="#f58000"/>
<use xlink:href="#font_0_19" transform="matrix(9.4645,0,0,-9.4645,60.78937,29.46698)" fill="#f58000"/>
<path transform="matrix(.1,0,0,-.1,0,287.8)" d="M 1428.54 403.746 C 1428.54 419.402 1415.84 432.094 1400.19 432.094 C 1384.54 432.094 1371.84 419.402 1371.84 403.746 C 1371.84 388.09 1384.54 375.398 1400.19 375.398 C 1415.84 375.398 1428.54 388.09 1428.54 403.746 Z M 1400.19 403.746 " fill="#f58000"/>
<symbol id="font_0_1a">
<path d="M .441 .73200008 L .075 .73200008 L .022000004 .34600003 L .103000018 .34600003 C .14400001 .395 .17800002 .41200004 .23300001 .41200004 C .328 .41200004 .388 .347 .388 .24200002 C .388 .14000002 .32900004 .07800001 .23300001 .07800001 C .15600002 .07800001 .10900001 .117000009 .088 .19700001 L 0 .19700001 C .012000002 .139 .022000004 .11100001 .043 .08500001 C .083000008 .031000004 .15500002 0 .23500002 0 C .37800003 0 .47800002 .104 .47800002 .254 C .47800002 .39400003 .38500003 .49 .24900002 .49 C .19900002 .49 .15900001 .47700004 .118000019 .44700004 L .14600002 .64500007 L .441 .64500007 L .441 .73200008 Z "/>
</symbol>
<use xlink:href="#font_0_3" transform="matrix(9.4645,0,0,-9.4645,135.26808,259.34025)" fill="#f58000"/>
<use xlink:href="#font_0_1a" transform="matrix(9.4645,0,0,-9.4645,140.35053,257.49467)" fill="#f58000"/>
<path transform="matrix(.1,0,0,-.1,0,287.8)" d="M 1428.54 2530.02 C 1428.54 2545.67 1415.84 2558.36 1400.19 2558.36 C 1384.54 2558.36 1371.84 2545.67 1371.84 2530.02 C 1371.84 2514.36 1384.54 2501.67 1400.19 2501.67 C 1415.84 2501.67 1428.54 2514.36 1428.54 2530.02 Z M 1400.19 2530.02 " fill="#f58000"/>
<symbol id="font_0_11">
<path d="M .455 .54700008 C .43800003 .66300007 .36200003 .73200008 .254 .73200008 C .17600002 .73200008 .106000009 .694 .06400001 .63100007 C .02 .56200006 0 .47500003 0 .34600003 C 0 .22700002 .018000003 .15100001 .060000007 .08800001 C .098000008 .031000004 .16000001 0 .23800002 0 C .373 0 .47 .10000001 .47 .23900001 C .47 .37100003 .38 .46400003 .253 .46400003 C .18300002 .46400003 .128 .43700005 .09 .38500003 C .091000009 .558 .14700002 .65400007 .24800001 .65400007 C .31 .65400007 .35300002 .615 .367 .54700008 L .455 .54700008 M .24200003 .386 C .327 .386 .38 .32700003 .38 .23200001 C .38 .143 .32 .07800001 .23900001 .07800001 C .157 .07800001 .09500001 .146 .09500001 .23700002 C .09500001 .32500003 .15500002 .386 .24200003 .386 Z "/>
</symbol>
<use xlink:href="#font_0_3" transform="matrix(9.4645,0,0,-9.4645,135.26808,31.530241)" fill="#f58000"/>
<use xlink:href="#font_0_11" transform="matrix(9.4645,0,0,-9.4645,140.42624,29.684664)" fill="#f58000"/>
<symbol id="font_0_a">
<path d="M .44000004 .37100003 C .43600003 .42200003 .42500005 .455 .40500004 .48400004 C .36900003 .53300008 .30600003 .56200006 .233 .56200006 C .092 .56200006 0 .45000003 0 .27600003 C 0 .10700001 .09 0 .23200001 0 C .35700003 0 .43600003 .075 .44600005 .20300001 L .36200003 .20300001 C .34800003 .119 .30500005 .07700001 .23400001 .07700001 C .142 .07700001 .087000008 .15200001 .087000008 .27600003 C .087000008 .407 .141 .485 .23200001 .485 C .30200003 .485 .34600003 .44400005 .35600005 .37100003 L .44000004 .37100003 Z "/>
</symbol>
<use xlink:href="#font_0_a" transform="matrix(9.4645,0,0,-9.4645,87.9106,257.66969)" fill="#1f6e96"/>
<path transform="matrix(.1,0,0,-.1,0,287.8)" stroke-width="3.98" stroke-linecap="butt" stroke-miterlimit="10" stroke-linejoin="miter" fill="none" stroke="#1f6e96" d="M 929.172 305.469 L 957.559 305.469 "/>
<symbol id="font_0_9">
<path d="M .368 .74200007 L .22300002 .33400003 L .089 .74200007 L 0 .74200007 L .17700002 .216 L .14500001 .13300002 C .13200002 .096 .113 .082 .078 .082 C .066 .082 .052 .08400001 .034 .088 L .034 .012999997 C .051 .003999993 .068 0 .09 0 C .117000009 0 .14600002 .009000003 .16800002 .025000006 C .19400002 .044 .20900002 .066 .22500001 .108 L .458 .74200007 L .368 .74200007 Z "/>
</symbol>
<symbol id="font_0_1">
<path d="M 0 .52400007 L 0 0 L .084000017 0 L .084000017 .289 C .084000017 .39600004 .14000002 .46600003 .22600001 .46600003 C .29200004 .46600003 .33400003 .42600004 .33400003 .363 L .33400003 0 L .41700004 0 L .41700004 .39600004 C .41700004 .483 .35200004 .53900006 .25100003 .53900006 C .17300001 .53900006 .123 .509 .077 .43600003 L .077 .52400007 L 0 .52400007 Z "/>
</symbol>
<symbol id="font_0_b">
<path d="M .47300003 .25700004 C .47300003 .337 .46700005 .38500003 .45200003 .42400003 C .41800005 .51 .33800004 .56200006 .24 .56200006 C .094 .56200006 0 .45000003 0 .27800004 C 0 .106000009 .091000009 0 .23800002 0 C .35800005 0 .44100005 .068 .46200005 .18200001 L .37800003 .18200001 C .35500003 .113000009 .30800004 .07700001 .24100001 .07700001 C .18800001 .07700001 .143 .101 .114999998 .14500001 C .095 .17500001 .088 .20500002 .087 .25700004 L .47300003 .25700004 M .089 .32500003 C .096 .42200003 .155 .485 .23900001 .485 C .32100005 .485 .38400004 .41700004 .38400004 .33100004 C .38400004 .32900004 .38400004 .32700003 .38300003 .32500003 L .089 .32500003 Z "/>
</symbol>
<symbol id="font_0_d">
<path d="M .38300003 .74200007 L .38300003 .666 C .341 .72800007 .29 .757 .223 .757 C .09 .757 0 .64100006 0 .47100003 C 0 .38500003 .023 .315 .06600001 .26500003 C .105000007 .22100002 .16100002 .19500001 .216 .19500001 C .282 .19500001 .328 .223 .375 .289 L .375 .26200003 C .375 .19100002 .366 .148 .345 .119 C .323 .088 .28 .07000001 .22900002 .07000001 C .19100002 .07000001 .157 .08 .134 .098000008 C .11500001 .113000009 .10700001 .127 .10200001 .158 L .017000003 .158 C .026000003 .059 .103 0 .22600003 0 C .304 0 .371 .025000006 .405 .067 C .44500003 .115 .46 .18100001 .46 .30400003 L .46 .74200007 L .38300003 .74200007 M .23200001 .68 C .322 .68 .375 .60400006 .375 .47300006 C .375 .34800003 .321 .272 .23300003 .272 C .142 .272 .087000008 .34900005 .087000008 .476 C .087000008 .602 .143 .68 .23200001 .68 Z "/>
</symbol>
<use xlink:href="#font_0_9" transform="matrix(9.4645,0,0,-9.4645,95.9463,259.51527)" fill="#1f6e96"/>
<use xlink:href="#font_0_1" transform="matrix(9.4645,0,0,-9.4645,101.15177,257.452)" fill="#1f6e96"/>
<use xlink:href="#font_0_b" transform="matrix(9.4645,0,0,-9.4645,106.1301,257.66969)" fill="#1f6e96"/>
<use xlink:href="#font_0_d" transform="matrix(9.4645,0,0,-9.4645,111.288249,259.51527)" fill="#1f6e96"/>
<use xlink:href="#font_0_16" transform="matrix(9.4645,0,0,-9.4645,117.24142,257.452)" fill="#1f6e96"/>
<path transform="matrix(.1,0,0,-.1,0,287.8)" stroke-width="9.9628" stroke-linecap="butt" stroke-miterlimit="10" stroke-linejoin="miter" fill="none" stroke="#1f6e96" d="M 939.465 460.379 L 1067.39 460.379 "/>
<path transform="matrix(.1,0,0,-.1,0,287.8)" d="M 1129.11 460.379 C 1121.53 462.066 1088.21 471.648 1067.39 482.07 L 1067.39 438.684 C 1088.21 449.109 1121.53 458.688 1129.11 460.379 Z " fill="#1f6e96"/>
<path transform="matrix(.1,0,0,-.1,0,287.8)" stroke-width="9.9628" stroke-linecap="butt" stroke-miterlimit="10" stroke-linejoin="miter" fill="none" stroke="#1f6e96" d="M 1129.11 460.379 C 1121.53 462.066 1088.21 471.648 1067.39 482.07 L 1067.39 438.684 C 1088.21 449.109 1121.53 458.688 1129.11 460.379 Z "/>
<use xlink:href="#font_0_a" transform="matrix(9.4645,0,0,-9.4645,158.7894,257.66969)" fill="#1f6e96"/>
<path transform="matrix(.1,0,0,-.1,0,287.8)" stroke-width="3.98" stroke-linecap="butt" stroke-miterlimit="10" stroke-linejoin="miter" fill="none" stroke="#1f6e96" d="M 1637.96 305.469 L 1666.35 305.469 "/>
<use xlink:href="#font_0_9" transform="matrix(9.4645,0,0,-9.4645,166.82529,259.51527)" fill="#1f6e96"/>
<use xlink:href="#font_0_1" transform="matrix(9.4645,0,0,-9.4645,172.03078,257.452)" fill="#1f6e96"/>
<use xlink:href="#font_0_b" transform="matrix(9.4645,0,0,-9.4645,177.00911,257.66969)" fill="#1f6e96"/>
<use xlink:href="#font_0_d" transform="matrix(9.4645,0,0,-9.4645,182.16727,259.51527)" fill="#1f6e96"/>
<use xlink:href="#font_0_17" transform="matrix(9.4645,0,0,-9.4645,187.47686,257.452)" fill="#1f6e96"/>
<path transform="matrix(.1,0,0,-.1,0,287.8)" stroke-width="9.9628" stroke-linecap="butt" stroke-miterlimit="10" stroke-linejoin="miter" fill="none" stroke="#1f6e96" d="M 1648.27 460.379 L 1776.19 460.379 "/>
<path transform="matrix(.1,0,0,-.1,0,287.8)" d="M 1837.91 460.379 C 1830.33 462.066 1797.01 471.648 1776.19 482.07 L 1776.19 438.684 C 1797.01 449.109 1830.33 458.688 1837.91 460.379 Z " fill="#1f6e96"/>
<path transform="matrix(.1,0,0,-.1,0,287.8)" stroke-width="9.9628" stroke-linecap="butt" stroke-miterlimit="10" stroke-linejoin="miter" fill="none" stroke="#1f6e96" d="M 1837.91 460.379 C 1830.33 462.066 1797.01 471.648 1776.19 482.07 L 1776.19 438.684 C 1797.01 449.109 1830.33 458.688 1837.91 460.379 Z "/>
<use xlink:href="#font_0_a" transform="matrix(0,-9.4645,-9.4645,-0,219.59468,154.88959)" fill="#1f6e96"/>
<path transform="matrix(.1,0,0,-.1,0,287.8)" stroke-width="3.98" stroke-linecap="butt" stroke-miterlimit="10" stroke-linejoin="miter" fill="none" stroke="#1f6e96" d="M 2191.78 1379.17 L 2191.78 1407.56 "/>
<symbol id="font_0_8">
<path d="M .27500005 .27100004 L .45100004 .52400007 L .35700003 .52400007 L .231 .33400003 L .105000007 .52400007 L .01 .52400007 L .185 .26700003 L 0 0 L .095 0 L .228 .201 L .35900004 0 L .45600004 0 L .27500005 .27100004 Z "/>
</symbol>
<symbol id="font_0_2">
<path d="M .23600002 .56200006 C .089 .56200006 0 .45700003 0 .28100003 C 0 .105000007 .088 0 .237 0 C .384 0 .47400005 .105000007 .47400005 .277 C .47400005 .45800004 .387 .56200006 .23600002 .56200006 M .237 .485 C .331 .485 .387 .40800003 .387 .27800004 C .387 .155 .329 .07700001 .237 .07700001 C .14400001 .07700001 .087 .15400002 .087 .28100003 C .087 .407 .14400001 .485 .237 .485 Z "/>
</symbol>
<symbol id="font_0_4">
<path d="M .404 .40100003 C .403 .50400009 .335 .56200006 .21400002 .56200006 C .092 .56200006 .013 .499 .013 .402 C .013 .32000003 .055 .28100003 .17900002 .25100003 L .257 .23200001 C .315 .21800001 .338 .19700001 .338 .15900001 C .338 .11000001 .289 .07700001 .21599999 .07700001 C .171 .07700001 .13300002 .09 .11200001 .112 C .099 .127 .093 .142 .08800001 .179 L 0 .179 C .0040000008 .058000003 .072000008 0 .20900002 0 C .34100003 0 .425 .065000008 .425 .16600001 C .425 .24400002 .381 .287 .277 .312 L .197 .33100004 C .12900001 .347 .1 .36900003 .1 .40600003 C .1 .45400004 .143 .485 .211 .485 C .278 .485 .314 .45600004 .316 .40100003 L .404 .40100003 Z "/>
</symbol>
<use xlink:href="#font_0_8" transform="matrix(0,-9.4645,-9.4645,-0,219.377,146.88309)" fill="#1f6e96"/>
<use xlink:href="#font_0_3" transform="matrix(0,-9.4645,-9.4645,-0,221.44026,141.80066)" fill="#1f6e96"/>
<use xlink:href="#font_0_2" transform="matrix(0,-9.4645,-9.4645,-0,219.59468,136.70874)" fill="#1f6e96"/>
<use xlink:href="#font_0_4" transform="matrix(0,-9.4645,-9.4645,-0,219.59468,131.46541)" fill="#1f6e96"/>
<path transform="matrix(.1,0,0,-.1,0,287.8)" stroke-width="9.9628" stroke-linecap="butt" stroke-miterlimit="10" stroke-linejoin="miter" fill="none" stroke="#1f6e96" d="M 2052.29 1360.51 L 2052.29 1488.43 "/>
<path transform="matrix(.1,0,0,-.1,0,287.8)" d="M 2052.29 1550.16 C 2050.6 1542.57 2041.02 1509.26 2030.6 1488.43 L 2073.99 1488.43 C 2063.56 1509.26 2053.98 1542.57 2052.29 1550.16 Z " fill="#1f6e96"/>
<path transform="matrix(.1,0,0,-.1,0,287.8)" stroke-width="9.9628" stroke-linecap="butt" stroke-miterlimit="10" stroke-linejoin="miter" fill="none" stroke="#1f6e96" d="M 2052.29 1550.16 C 2050.6 1542.57 2041.02 1509.26 2030.6 1488.43 L 2073.99 1488.43 C 2063.56 1509.26 2053.98 1542.57 2052.29 1550.16 Z "/>
<use xlink:href="#font_0_a" transform="matrix(9.4645,0,0,-9.4645,159.0544,29.632662)" fill="#1f6e96"/>
<path transform="matrix(.1,0,0,-.1,0,287.8)" stroke-width="3.98" stroke-linecap="butt" stroke-miterlimit="10" stroke-linejoin="miter" fill="none" stroke="#1f6e96" d="M 1640.61 2585.85 L 1669 2585.85 "/>
<use xlink:href="#font_0_9" transform="matrix(9.4645,0,0,-9.4645,167.09029,31.47824)" fill="#1f6e96"/>
<use xlink:href="#font_0_3" transform="matrix(9.4645,0,0,-9.4645,172.14434,31.47824)" fill="#1f6e96"/>
<use xlink:href="#font_0_2" transform="matrix(9.4645,0,0,-9.4645,177.23625,29.632662)" fill="#1f6e96"/>
<use xlink:href="#font_0_4" transform="matrix(9.4645,0,0,-9.4645,182.47959,29.632662)" fill="#1f6e96"/>
<use xlink:href="#font_0_17" transform="matrix(9.4645,0,0,-9.4645,187.21184,29.414978)" fill="#1f6e96"/>
<path transform="matrix(.1,0,0,-.1,0,287.8)" stroke-width="9.9628" stroke-linecap="butt" stroke-miterlimit="10" stroke-linejoin="miter" fill="none" stroke="#1f6e96" d="M 1860.87 2473.38 L 1732.95 2473.38 "/>
<path transform="matrix(.1,0,0,-.1,0,287.8)" d="M 1671.23 2473.38 C 1678.81 2471.69 1712.13 2462.11 1732.95 2451.69 L 1732.95 2495.08 C 1712.13 2484.65 1678.81 2475.07 1671.23 2473.38 Z " fill="#1f6e96"/>
<path transform="matrix(.1,0,0,-.1,0,287.8)" stroke-width="9.9628" stroke-linecap="butt" stroke-miterlimit="10" stroke-linejoin="miter" fill="none" stroke="#1f6e96" d="M 1671.23 2473.38 C 1678.81 2471.69 1712.13 2462.11 1732.95 2451.69 L 1732.95 2495.08 C 1712.13 2484.65 1678.81 2475.07 1671.23 2473.38 Z "/>
<use xlink:href="#font_0_a" transform="matrix(9.4645,0,0,-9.4645,88.1754,29.632662)" fill="#1f6e96"/>
<path transform="matrix(.1,0,0,-.1,0,287.8)" stroke-width="3.98" stroke-linecap="butt" stroke-miterlimit="10" stroke-linejoin="miter" fill="none" stroke="#1f6e96" d="M 931.82 2585.85 L 960.211 2585.85 "/>
<use xlink:href="#font_0_9" transform="matrix(9.4645,0,0,-9.4645,96.210399,31.47824)" fill="#1f6e96"/>
<use xlink:href="#font_0_3" transform="matrix(9.4645,0,0,-9.4645,101.26444,31.47824)" fill="#1f6e96"/>
<use xlink:href="#font_0_2" transform="matrix(9.4645,0,0,-9.4645,106.35634,29.632662)" fill="#1f6e96"/>
<use xlink:href="#font_0_4" transform="matrix(9.4645,0,0,-9.4645,111.59967,29.632662)" fill="#1f6e96"/>
<use xlink:href="#font_0_16" transform="matrix(9.4645,0,0,-9.4645,116.97551,29.414978)" fill="#1f6e96"/>
<path transform="matrix(.1,0,0,-.1,0,287.8)" stroke-width="9.9628" stroke-linecap="butt" stroke-miterlimit="10" stroke-linejoin="miter" fill="none" stroke="#1f6e96" d="M 1152.07 2473.38 L 1024.15 2473.38 "/>
<path transform="matrix(.1,0,0,-.1,0,287.8)" d="M 962.43 2473.38 C 970.008 2471.69 1003.32 2462.11 1024.15 2451.69 L 1024.15 2495.08 C 1003.32 2484.65 970.008 2475.07 962.43 2473.38 Z " fill="#1f6e96"/>
<path transform="matrix(.1,0,0,-.1,0,287.8)" stroke-width="9.9628" stroke-linecap="butt" stroke-miterlimit="10" stroke-linejoin="miter" fill="none" stroke="#1f6e96" d="M 962.43 2473.38 C 970.008 2471.69 1003.32 2462.11 1024.15 2451.69 L 1024.15 2495.08 C 1003.32 2484.65 970.008 2475.07 962.43 2473.38 Z "/>
<use xlink:href="#font_0_a" transform="matrix(0,9.4645,9.4645,0,60.44322,127.08339)" fill="#1f6e96"/>
<path transform="matrix(.1,0,0,-.1,0,287.8)" stroke-width="3.98" stroke-linecap="butt" stroke-miterlimit="10" stroke-linejoin="miter" fill="none" stroke="#1f6e96" d="M 608.609 1557.1 L 608.609 1528.71 "/>
<use xlink:href="#font_0_8" transform="matrix(0,9.4645,9.4645,0,60.6609,135.0909)" fill="#1f6e96"/>
<use xlink:href="#font_0_1" transform="matrix(0,9.4645,9.4645,0,60.6609,140.32477)" fill="#1f6e96"/>
<use xlink:href="#font_0_b" transform="matrix(0,9.4645,9.4645,0,60.44322,145.3031)" fill="#1f6e96"/>
<use xlink:href="#font_0_d" transform="matrix(0,9.4645,9.4645,0,58.597639,150.46126)" fill="#1f6e96"/>
<path transform="matrix(.1,0,0,-.1,0,287.8)" stroke-width="9.9628" stroke-linecap="butt" stroke-miterlimit="10" stroke-linejoin="miter" fill="none" stroke="#1f6e96" d="M 748.086 1573.12 L 748.086 1445.2 "/>
<path transform="matrix(.1,0,0,-.1,0,287.8)" d="M 748.086 1383.48 C 749.777 1391.05 759.355 1424.37 769.781 1445.2 L 726.395 1445.2 C 736.816 1424.37 746.398 1391.05 748.086 1383.48 Z " fill="#1f6e96"/>
<path transform="matrix(.1,0,0,-.1,0,287.8)" stroke-width="9.9628" stroke-linecap="butt" stroke-miterlimit="10" stroke-linejoin="miter" fill="none" stroke="#1f6e96" d="M 748.086 1383.48 C 749.777 1391.05 759.355 1424.37 769.781 1445.2 L 726.395 1445.2 C 736.816 1424.37 746.398 1391.05 748.086 1383.48 Z "/>
<use xlink:href="#font_0_a" transform="matrix(0,-9.4645,-9.4645,-0,150.50368,153.6966)" fill="#1f6e96"/>
<path transform="matrix(.1,0,0,-.1,0,287.8)" stroke-width="3.98" stroke-linecap="butt" stroke-miterlimit="10" stroke-linejoin="miter" fill="none" stroke="#1f6e96" d="M 1500.87 1391.1 L 1500.87 1419.49 "/>
<symbol id="font_0_c">
<path d="M .24000001 .52400007 L .153 .52400007 L .153 .606 C .153 .64100006 .17300001 .65900006 .21100001 .65900006 C .21800001 .65900006 .221 .65900006 .24000001 .65800008 L .24000001 .72700008 C .221 .731 .21000001 .73200008 .193 .73200008 C .116000007 .73200008 .07000001 .688 .07000001 .61300006 L .07000001 .52400007 L 0 .52400007 L 0 .45600004 L .07000001 .45600004 L .07000001 0 L .153 0 L .153 .45600004 L .24000001 .45600004 L .24000001 .52400007 Z "/>
</symbol>
<symbol id="font_0_7">
<path d="M .49300004 .072000008 C .48400004 .07000001 .48000003 .07000001 .47500003 .07000001 C .44600005 .07000001 .43000005 .08500001 .43000005 .11100001 L .43000005 .41900004 C .43000005 .512 .36200003 .56200006 .23300001 .56200006 C .157 .56200006 .094000007 .54 .059 .50100007 C .035000005 .47400005 .024999999 .44400005 .023000002 .39200003 L .107 .39200003 C .114 .45600004 .15200001 .485 .23000002 .485 C .305 .485 .34700004 .45700003 .34700004 .407 L .34700004 .38500003 C .34700004 .35000003 .32600004 .335 .26000003 .32700003 C .14200002 .312 .124000009 .30800004 .092 .29500003 C .031000004 .27 0 .223 0 .155 C 0 .060000004 .066 0 .17200002 0 C .238 0 .291 .023000002 .35000003 .07700001 C .35600005 .024000003 .38200004 0 .43600003 0 C .45300005 0 .46600003 .0020000004 .49300004 .0090000019 L .49300004 .072000008 M .34700004 .18800001 C .34700004 .16000001 .33900003 .143 .314 .120000008 C .28000004 .089 .23900002 .073 .19 .073 C .125 .073 .087000008 .104 .087000008 .157 C .087000008 .21200001 .124000009 .24000001 .21300003 .25300003 C .30100004 .26500003 .31900005 .269 .34700004 .282 L .34700004 .18800001 Z "/>
</symbol>
<symbol id="font_0_6">
<path d="M .41700004 .023000002 L .41700004 .54700008 L .33400003 .54700008 L .33400003 .25 C .33400003 .143 .27800004 .073 .19100002 .073 C .125 .073 .083 .113000009 .083 .17600002 L .083 .54700008 L 0 .54700008 L 0 .143 C 0 .056 .065000008 0 .167 0 C .24400002 0 .293 .027000003 .342 .09600001 L .342 .023000002 L .41700004 .023000002 Z "/>
</symbol>
<symbol id="font_0_f">
<path d="M .08400001 .72900006 L 0 .72900006 L 0 0 L .08400001 0 L .08400001 .72900006 Z "/>
</symbol>
<symbol id="font_0_5">
<path d="M .24000001 .54700008 L .15400002 .54700008 L .15400002 .69100007 L .071 .69100007 L .071 .54700008 L 0 .54700008 L 0 .47900004 L .071 .47900004 L .071 .083000008 C .071 .030000002 .10700001 0 .172 0 C .19200002 0 .21200001 .0020000004 .24000001 .007000001 L .24000001 .07700001 C .22900002 .074 .216 .073 .20000002 .073 C .164 .073 .15400002 .083000008 .15400002 .120000008 L .15400002 .47900004 L .24000001 .47900004 L .24000001 .54700008 Z "/>
</symbol>
<use xlink:href="#font_0_c" transform="matrix(0,-9.4645,-9.4645,-0,150.286,145.67963)" fill="#1f6e96"/>
<use xlink:href="#font_0_7" transform="matrix(0,-9.4645,-9.4645,-0,150.50368,143.10521)" fill="#1f6e96"/>
<use xlink:href="#font_0_6" transform="matrix(0,-9.4645,-9.4645,-0,150.50368,137.62526)" fill="#1f6e96"/>
<use xlink:href="#font_0_f" transform="matrix(0,-9.4645,-9.4645,-0,150.286,132.3346)" fill="#1f6e96"/>
<use xlink:href="#font_0_5" transform="matrix(0,-9.4645,-9.4645,-0,150.50368,130.74456)" fill="#1f6e96"/>
<path transform="matrix(.1,0,0,-.1,0,287.8)" stroke-width="9.9628" stroke-linecap="butt" stroke-miterlimit="10" stroke-linejoin="miter" fill="none" stroke="#1f6e96" d="M 1343.49 1360.51 L 1343.49 1488.43 "/>
<path transform="matrix(.1,0,0,-.1,0,287.8)" d="M 1343.49 1550.16 C 1341.8 1542.57 1332.22 1509.26 1321.8 1488.43 L 1365.19 1488.43 C 1354.76 1509.26 1345.18 1542.57 1343.49 1550.16 Z " fill="#1f6e96"/>
<path transform="matrix(.1,0,0,-.1,0,287.8)" stroke-width="9.9628" stroke-linecap="butt" stroke-miterlimit="10" stroke-linejoin="miter" fill="none" stroke="#1f6e96" d="M 1343.49 1550.16 C 1341.8 1542.57 1332.22 1509.26 1321.8 1488.43 L 1365.19 1488.43 C 1354.76 1509.26 1345.18 1542.57 1343.49 1550.16 Z "/>
<path transform="matrix(.1,0,0,-.1,0,287.8)" stroke-width="9.9628" stroke-linecap="butt" stroke-miterlimit="10" stroke-linejoin="miter" fill="none" stroke="#929292" d="M 691.434 191.141 L 2236.87 191.141 "/>
<path transform="matrix(.1,0,0,-.1,0,287.8)" d="M 2298.59 191.141 C 2291.01 192.828 2257.69 202.41 2236.87 212.836 L 2236.87 169.445 C 2257.69 179.871 2291.01 189.449 2298.59 191.141 Z " fill="#929292"/>
<path transform="matrix(.1,0,0,-.1,0,287.8)" stroke-width="9.9628" stroke-linecap="butt" stroke-miterlimit="10" stroke-linejoin="miter" fill="none" stroke="#929292" d="M 2298.59 191.141 C 2291.01 192.828 2257.69 202.41 2236.87 212.836 L 2236.87 169.445 C 2257.69 179.871 2291.01 189.449 2298.59 191.141 Z "/>
<symbol id="font_1_1">
<path d="M .33900003 .272 L .51500007 .54 L .347 .54 L .26000003 .377 L .172 .54 L .0040000008 .54 L .18 .272 L 0 0 L .16800002 0 L .26000003 .16800002 L .351 0 L .51900008 0 L .33900003 .272 Z "/>
</symbol>
<use xlink:href="#font_1_1" transform="matrix(9.4645,0,0,-9.4645,235.65943,271.202)" fill="#929292"/>
<path transform="matrix(.1,0,0,-.1,0,287.8)" stroke-width="9.9628" stroke-linecap="butt" stroke-miterlimit="10" stroke-linejoin="miter" fill="none" stroke="#929292" d="M 691.434 191.141 L 691.434 138 "/>
<symbol id="font_0_13">
<path d="M .238 .072 L 0 .072 L 0 0 L .238 0 L .238 .072 Z "/>
</symbol>
<symbol id="font_0_15">
<path d="M .23200001 .73200008 C .16600001 .73200008 .106000009 .703 .069000009 .65400007 C .022999999 .592 0 .49700005 0 .36600004 C 0 .127 .08 0 .23200001 0 C .382 0 .46400003 .127 .46400003 .36 C .46400003 .49800004 .442 .59000006 .395 .65400007 C .358 .70400008 .299 .73200008 .23200001 .73200008 M .23200001 .65400007 C .327 .65400007 .374 .558 .374 .36800004 C .374 .16700001 .328 .073 .23 .073 C .13700001 .073 .09 .171 .09 .365 C .09 .559 .13700001 .65400007 .23200001 .65400007 Z "/>
</symbol>
<symbol id="font_0_14">
<path d="M .10400001 .104 L 0 .104 L 0 0 L .10400001 0 L .10400001 .104 Z "/>
</symbol>
<symbol id="font_0_e">
<path d="M .083000008 .72900006 L 0 .72900006 L 0 0 L .083000008 0 L .083000008 .20400001 L .16400002 .284 L .34100003 0 L .44400005 0 L .23000002 .34300003 L .41200004 .52400007 L .305 .52400007 L .083000008 .30200003 L .083000008 .72900006 Z "/>
</symbol>
<symbol id="font_0_10">
<path d="M 0 .52400007 L 0 0 L .084000017 0 L .084000017 .32900004 C .084000017 .40500004 .139 .46600003 .20700002 .46600003 C .26900003 .46600003 .30400003 .42800004 .30400003 .36100004 L .30400003 0 L .38800005 0 L .38800005 .32900004 C .38800005 .40500004 .44300003 .46600003 .51100006 .46600003 C .572 .46600003 .60800006 .42700003 .60800006 .36100004 L .60800006 0 L .69200006 0 L .69200006 .393 C .69200006 .48700003 .638 .53900006 .54 .53900006 C .47000004 .53900006 .42800004 .518 .37900005 .45900003 C .34800003 .51500007 .30600003 .53900006 .23800004 .53900006 C .16800002 .53900006 .122 .513 .077 .45000003 L .077 .52400007 L 0 .52400007 Z "/>
</symbol>
<use xlink:href="#font_0_13" transform="matrix(9.4645,0,0,-9.4645,51.69827,282.21757)" fill="#929292"/>
<use xlink:href="#font_0_1a" transform="matrix(9.4645,0,0,-9.4645,54.74584,284.70674)" fill="#929292"/>
<use xlink:href="#font_0_15" transform="matrix(9.4645,0,0,-9.4645,60.08382,284.70674)" fill="#929292"/>
<use xlink:href="#font_0_14" transform="matrix(9.4645,0,0,-9.4645,65.76252,284.48905)" fill="#929292"/>
<use xlink:href="#font_0_15" transform="matrix(9.4645,0,0,-9.4645,67.97722,284.70674)" fill="#929292"/>
<use xlink:href="#font_0_e" transform="matrix(9.4645,0,0,-9.4645,74.961849,284.48905)" fill="#929292"/>
<use xlink:href="#font_0_10" transform="matrix(9.4645,0,0,-9.4645,79.80767,284.48905)" fill="#929292"/>
<path transform="matrix(.1,0,0,-.1,0,287.8)" stroke-width="9.9628" stroke-linecap="butt" stroke-miterlimit="10" stroke-linejoin="miter" fill="none" stroke="#929292" d="M 2108.86 191.141 L 2108.86 138 "/>
<use xlink:href="#font_0_1a" transform="matrix(9.4645,0,0,-9.4645,194.91025,284.70674)" fill="#929292"/>
<use xlink:href="#font_0_15" transform="matrix(9.4645,0,0,-9.4645,200.24823,284.70674)" fill="#929292"/>
<use xlink:href="#font_0_14" transform="matrix(9.4645,0,0,-9.4645,205.92694,284.48905)" fill="#929292"/>
<use xlink:href="#font_0_15" transform="matrix(9.4645,0,0,-9.4645,208.14163,284.70674)" fill="#929292"/>
<use xlink:href="#font_0_e" transform="matrix(9.4645,0,0,-9.4645,215.12639,284.48905)" fill="#929292"/>
<use xlink:href="#font_0_10" transform="matrix(9.4645,0,0,-9.4645,219.97223,284.48905)" fill="#929292"/>
<path transform="matrix(.1,0,0,-.1,0,287.8)" stroke-width="9.9628" stroke-linecap="butt" stroke-miterlimit="10" stroke-linejoin="miter" fill="none" stroke="#929292" d="M 478.828 403.746 L 478.828 2657.94 "/>
<path transform="matrix(.1,0,0,-.1,0,287.8)" d="M 478.828 2719.66 C 477.137 2712.08 467.559 2678.76 457.133 2657.94 L 500.523 2657.94 C 490.098 2678.76 480.52 2712.08 478.828 2719.66 Z " fill="#929292"/>
<path transform="matrix(.1,0,0,-.1,0,287.8)" stroke-width="9.9628" stroke-linecap="butt" stroke-miterlimit="10" stroke-linejoin="miter" fill="none" stroke="#929292" d="M 478.828 2719.66 C 477.137 2712.08 467.559 2678.76 457.133 2657.94 L 500.523 2657.94 C 490.098 2678.76 480.52 2712.08 478.828 2719.66 Z "/>
<symbol id="font_1_2">
<path d="M .38500003 .75900009 L .273 .366 L .154 .75900009 L 0 .75900009 L .201 .19700001 L .201 .19600001 L .201 .19300002 C .201 .142 .163 .10300001 .114 .10300001 C .103 .10300001 .095 .10400001 .077 .109000008 L .077 .004000008 C .098000008 .001000002 .11 0 .127 0 C .162 0 .20400001 .0069999995 .22800002 .017000005 C .26700003 .033000009 .284 .05600001 .307 .120000008 L .52900007 .75900009 L .38500003 .75900009 Z "/>
</symbol>
<use xlink:href="#font_1_2" transform="matrix(9.4645,0,0,-9.4645,45.338285,10.266726)" fill="#929292"/>
<path transform="matrix(.1,0,0,-.1,0,287.8)" stroke-width="9.9628" stroke-linecap="butt" stroke-miterlimit="10" stroke-linejoin="miter" fill="none" stroke="#929292" d="M 478.828 403.746 L 425.688 403.746 "/>
<symbol id="font_0_12">
<path d="M .47400005 .70900008 L 0 .70900008 L 0 .62200006 L .38300003 .62200006 C .21400002 .381 .14500001 .23300001 .09200001 0 L .186 0 C .22500003 .22700002 .314 .42200003 .47400005 .63500007 L .47400005 .70900008 Z "/>
</symbol>
<use xlink:href="#font_0_13" transform="matrix(9.4645,0,0,-9.4645,3.5904473,248.4933)" fill="#929292"/>
<use xlink:href="#font_0_12" transform="matrix(9.4645,0,0,-9.4645,6.742126,250.76479)" fill="#929292"/>
<use xlink:href="#font_0_1a" transform="matrix(9.4645,0,0,-9.4645,11.900279,250.98247)" fill="#929292"/>
<use xlink:href="#font_0_14" transform="matrix(9.4645,0,0,-9.4645,17.654696,250.76479)" fill="#929292"/>
<use xlink:href="#font_0_15" transform="matrix(9.4645,0,0,-9.4645,19.869389,250.98247)" fill="#929292"/>
<use xlink:href="#font_0_e" transform="matrix(9.4645,0,0,-9.4645,26.85402,250.76479)" fill="#929292"/>
<use xlink:href="#font_0_10" transform="matrix(9.4645,0,0,-9.4645,31.699845,250.76479)" fill="#929292"/>
<path transform="matrix(.1,0,0,-.1,0,287.8)" stroke-width="9.9628" stroke-linecap="butt" stroke-miterlimit="10" stroke-linejoin="miter" fill="none" stroke="#929292" d="M 478.828 2529.89 L 425.688 2529.89 "/>
<use xlink:href="#font_0_12" transform="matrix(9.4645,0,0,-9.4645,6.741227,38.15399)" fill="#929292"/>
<use xlink:href="#font_0_1a" transform="matrix(9.4645,0,0,-9.4645,11.899381,38.371675)" fill="#929292"/>
<use xlink:href="#font_0_14" transform="matrix(9.4645,0,0,-9.4645,17.653798,38.15399)" fill="#929292"/>
<use xlink:href="#font_0_15" transform="matrix(9.4645,0,0,-9.4645,19.86849,38.371675)" fill="#929292"/>
<use xlink:href="#font_0_e" transform="matrix(9.4645,0,0,-9.4645,26.853236,38.15399)" fill="#929292"/>
<use xlink:href="#font_0_10" transform="matrix(9.4645,0,0,-9.4645,31.69906,38.15399)" fill="#929292"/>
</g>
</svg>
