<?xml version="1.0" encoding="UTF-8" standalone="no"?>
<!DOCTYPE svg PUBLIC "-//W3C//DTD SVG 1.1//EN" "http://www.w3.org/Graphics/SVG/1.1/DTD/svg11.dtd">
<svg xmlns="http://www.w3.org/2000/svg" xmlns:xlink="http://www.w3.org/1999/xlink" version="1.1" width="345.35pt" height="307.23pt" viewBox="0 0 345.35 307.23">
<g enable-background="new">
<path transform="matrix(.1,0,0,-.1,0,307.23)" d="M 1020.64 473.414 L 2438.15 473.414 L 2438.15 2599.684 L 1020.64 2599.684 Z " fill="#cceeff"/>
<path transform="matrix(.1,0,0,-.1,0,307.23)" stroke-width="9.9628" stroke-linecap="butt" stroke-miterlimit="10" stroke-linejoin="miter" fill="none" stroke="#1f6e96" d="M 1020.64 473.414 L 2438.15 473.414 L 2438.15 2599.684 L 1020.64 2599.684 Z "/>
<path transform="matrix(.1,0,0,-.1,0,307.23)" stroke-width="9.9628" stroke-linecap="butt" stroke-miterlimit="10" stroke-linejoin="miter" fill="none" stroke="#1f6e96" d="M 1729.4 473.414 L 1729.4 2599.68 "/>
<path transform="matrix(.1,0,0,-.1,0,307.23)" stroke-width="9.9628" stroke-linecap="butt" stroke-miterlimit="10" stroke-linejoin="miter" fill="none" stroke="#929292" d="M 1020.64 260.809 L 2566.08 260.809 "/>
<path transform="matrix(.1,0,0,-.1,0,307.23)" d="M 2627.8 260.809 C 2620.22 262.5 2586.9 272.078 2566.08 282.504 L 2566.08 239.113 C 2586.9 249.539 2620.22 259.121 2627.8 260.809 Z " fill="#929292"/>
<path transform="matrix(.1,0,0,-.1,0,307.23)" stroke-width="9.9628" stroke-linecap="butt" stroke-miterlimit="10" stroke-linejoin="miter" fill="none" stroke="#929292" d="M 2627.8 260.809 C 2620.22 262.5 2586.9 272.078 2566.08 282.504 L 2566.08 239.113 C 2586.9 249.539 2620.22 259.121 2627.8 260.809 Z "/>
<symbol id="font_0_1">
<path d="M .33900003 .272 L .51500007 .54 L .347 .54 L .26000003 .377 L .172 .54 L .0040000008 .54 L .18 .272 L 0 0 L .16800002 0 L .26000003 .16800002 L .351 0 L .51900008 0 L .33900003 .272 Z "/>
</symbol>
<use xlink:href="#font_0_1" transform="matrix(9.4645,0,0,-9.4645,268.5804,283.66523)" fill="#929292"/>
<path transform="matrix(.1,0,0,-.1,0,307.23)" stroke-width="9.9628" stroke-linecap="butt" stroke-miterlimit="10" stroke-linejoin="miter" fill="none" stroke="#929292" d="M 1020.64 260.809 L 1020.64 207.668 "/>
<symbol id="font_1_16">
<path d="M .238 .072 L 0 .072 L 0 0 L .238 0 L .238 .072 Z "/>
</symbol>
<symbol id="font_1_19">
<path d="M .441 .73200008 L .075 .73200008 L .022000004 .34600003 L .103000018 .34600003 C .14400001 .395 .17800002 .41200004 .23300001 .41200004 C .328 .41200004 .388 .347 .388 .24200002 C .388 .14000002 .32900004 .07800001 .23300001 .07800001 C .15600002 .07800001 .10900001 .117000009 .088 .19700001 L 0 .19700001 C .012000002 .139 .022000004 .11100001 .043 .08500001 C .083000008 .031000004 .15500002 0 .23500002 0 C .37800003 0 .47800002 .104 .47800002 .254 C .47800002 .39400003 .38500003 .49 .24900002 .49 C .19900002 .49 .15900001 .47700004 .118000019 .44700004 L .14600002 .64500007 L .441 .64500007 L .441 .73200008 Z "/>
</symbol>
<symbol id="font_1_18">
<path d="M .23200001 .73200008 C .16600001 .73200008 .106000009 .703 .069000009 .65400007 C .022999999 .592 0 .49700005 0 .36600004 C 0 .127 .08 0 .23200001 0 C .382 0 .46400003 .127 .46400003 .36 C .46400003 .49800004 .442 .59000006 .395 .65400007 C .358 .70400008 .299 .73200008 .23200001 .73200008 M .23200001 .65400007 C .327 .65400007 .374 .558 .374 .36800004 C .374 .16700001 .328 .073 .23 .073 C .13700001 .073 .09 .171 .09 .365 C .09 .559 .13700001 .65400007 .23200001 .65400007 Z "/>
</symbol>
<symbol id="font_1_17">
<path d="M .10400001 .104 L 0 .104 L 0 0 L .10400001 0 L .10400001 .104 Z "/>
</symbol>
<symbol id="font_1_12">
<path d="M .083000008 .72900006 L 0 .72900006 L 0 0 L .083000008 0 L .083000008 .20400001 L .16400002 .284 L .34100003 0 L .44400005 0 L .23000002 .34300003 L .41200004 .52400007 L .305 .52400007 L .083000008 .30200003 L .083000008 .72900006 Z "/>
</symbol>
<symbol id="font_1_14">
<path d="M 0 .52400007 L 0 0 L .084000017 0 L .084000017 .32900004 C .084000017 .40500004 .139 .46600003 .20700002 .46600003 C .26900003 .46600003 .30400003 .42800004 .30400003 .36100004 L .30400003 0 L .38800005 0 L .38800005 .32900004 C .38800005 .40500004 .44300003 .46600003 .51100006 .46600003 C .572 .46600003 .60800006 .42700003 .60800006 .36100004 L .60800006 0 L .69200006 0 L .69200006 .393 C .69200006 .48700003 .638 .53900006 .54 .53900006 C .47000004 .53900006 .42800004 .518 .37900005 .45900003 C .34800003 .51500007 .30600003 .53900006 .23800004 .53900006 C .16800002 .53900006 .122 .513 .077 .45000003 L .077 .52400007 L 0 .52400007 Z "/>
</symbol>
<use xlink:href="#font_1_16" transform="matrix(9.4645,0,0,-9.4645,84.61936,294.68043)" fill="#929292"/>
<use xlink:href="#font_1_19" transform="matrix(9.4645,0,0,-9.4645,87.66694,297.1696)" fill="#929292"/>
<use xlink:href="#font_1_18" transform="matrix(9.4645,0,0,-9.4645,93.00491,297.1696)" fill="#929292"/>
<use xlink:href="#font_1_17" transform="matrix(9.4645,0,0,-9.4645,98.68361,296.9519)" fill="#929292"/>
<use xlink:href="#font_1_18" transform="matrix(9.4645,0,0,-9.4645,100.89831,297.1696)" fill="#929292"/>
<use xlink:href="#font_1_12" transform="matrix(9.4645,0,0,-9.4645,107.88295,296.9519)" fill="#929292"/>
<use xlink:href="#font_1_14" transform="matrix(9.4645,0,0,-9.4645,112.72877,296.9519)" fill="#929292"/>
<path transform="matrix(.1,0,0,-.1,0,307.23)" stroke-width="9.9628" stroke-linecap="butt" stroke-miterlimit="10" stroke-linejoin="miter" fill="none" stroke="#929292" d="M 2438.07 260.809 L 2438.07 207.668 "/>
<use xlink:href="#font_1_19" transform="matrix(9.4645,0,0,-9.4645,227.83226,297.1696)" fill="#929292"/>
<use xlink:href="#font_1_18" transform="matrix(9.4645,0,0,-9.4645,233.17024,297.1696)" fill="#929292"/>
<use xlink:href="#font_1_17" transform="matrix(9.4645,0,0,-9.4645,238.84896,296.9519)" fill="#929292"/>
<use xlink:href="#font_1_18" transform="matrix(9.4645,0,0,-9.4645,241.06365,297.1696)" fill="#929292"/>
<use xlink:href="#font_1_12" transform="matrix(9.4645,0,0,-9.4645,248.0484,296.9519)" fill="#929292"/>
<use xlink:href="#font_1_14" transform="matrix(9.4645,0,0,-9.4645,252.89424,296.9519)" fill="#929292"/>
<path transform="matrix(.1,0,0,-.1,0,307.23)" stroke-width="9.9628" stroke-linecap="butt" stroke-miterlimit="10" stroke-linejoin="miter" fill="none" stroke="#929292" d="M 808.039 473.414 L 808.039 2727.61 "/>
<path transform="matrix(.1,0,0,-.1,0,307.23)" d="M 808.039 2789.33 C 806.348 2781.75 796.77 2748.43 786.344 2727.61 L 829.734 2727.61 C 819.309 2748.43 809.727 2781.75 808.039 2789.33 Z " fill="#929292"/>
<path transform="matrix(.1,0,0,-.1,0,307.23)" stroke-width="9.9628" stroke-linecap="butt" stroke-miterlimit="10" stroke-linejoin="miter" fill="none" stroke="#929292" d="M 808.039 2789.33 C 806.348 2781.75 796.77 2748.43 786.344 2727.61 L 829.734 2727.61 C 819.309 2748.43 809.727 2781.75 808.039 2789.33 Z "/>
<symbol id="font_0_2">
<path d="M .38500003 .75900009 L .273 .366 L .154 .75900009 L 0 .75900009 L .201 .19700001 L .201 .19600001 L .201 .19300002 C .201 .142 .163 .10300001 .114 .10300001 C .103 .10300001 .095 .10400001 .077 .109000008 L .077 .004000008 C .098000008 .001000002 .11 0 .127 0 C .162 0 .20400001 .0069999995 .22800002 .017000005 C .26700003 .033000009 .284 .05600001 .307 .120000008 L .52900007 .75900009 L .38500003 .75900009 Z "/>
</symbol>
<use xlink:href="#font_0_2" transform="matrix(9.4645,0,0,-9.4645,78.25898,22.729739)" fill="#929292"/>
<path transform="matrix(.1,0,0,-.1,0,307.23)" stroke-width="9.9628" stroke-linecap="butt" stroke-miterlimit="10" stroke-linejoin="miter" fill="none" stroke="#929292" d="M 808.039 473.414 L 754.898 473.414 "/>
<symbol id="font_1_15">
<path d="M .47400005 .70900008 L 0 .70900008 L 0 .62200006 L .38300003 .62200006 C .21400002 .381 .14500001 .23300001 .09200001 0 L .186 0 C .22500003 .22700002 .314 .42200003 .47400005 .63500007 L .47400005 .70900008 Z "/>
</symbol>
<use xlink:href="#font_1_16" transform="matrix(9.4645,0,0,-9.4645,36.511568,260.95655)" fill="#929292"/>
<use xlink:href="#font_1_15" transform="matrix(9.4645,0,0,-9.4645,39.663248,263.22804)" fill="#929292"/>
<use xlink:href="#font_1_19" transform="matrix(9.4645,0,0,-9.4645,44.8214,263.4457)" fill="#929292"/>
<use xlink:href="#font_1_17" transform="matrix(9.4645,0,0,-9.4645,50.575819,263.22804)" fill="#929292"/>
<use xlink:href="#font_1_18" transform="matrix(9.4645,0,0,-9.4645,52.790513,263.4457)" fill="#929292"/>
<use xlink:href="#font_1_12" transform="matrix(9.4645,0,0,-9.4645,59.775148,263.22804)" fill="#929292"/>
<use xlink:href="#font_1_14" transform="matrix(9.4645,0,0,-9.4645,64.62097,263.22804)" fill="#929292"/>
<path transform="matrix(.1,0,0,-.1,0,307.23)" stroke-width="9.9628" stroke-linecap="butt" stroke-miterlimit="10" stroke-linejoin="miter" fill="none" stroke="#929292" d="M 808.039 2599.55 L 754.898 2599.55 "/>
<use xlink:href="#font_1_15" transform="matrix(9.4645,0,0,-9.4645,39.66237,50.617006)" fill="#929292"/>
<use xlink:href="#font_1_19" transform="matrix(9.4645,0,0,-9.4645,44.820524,50.834688)" fill="#929292"/>
<use xlink:href="#font_1_17" transform="matrix(9.4645,0,0,-9.4645,50.57494,50.617006)" fill="#929292"/>
<use xlink:href="#font_1_18" transform="matrix(9.4645,0,0,-9.4645,52.789636,50.834688)" fill="#929292"/>
<use xlink:href="#font_1_12" transform="matrix(9.4645,0,0,-9.4645,59.77438,50.617006)" fill="#929292"/>
<use xlink:href="#font_1_14" transform="matrix(9.4645,0,0,-9.4645,64.6202,50.617006)" fill="#929292"/>
<symbol id="font_1_e">
<path d="M .47300003 .25700004 C .47300003 .337 .46700005 .38500003 .45200003 .42400003 C .41800005 .51 .33800004 .56200006 .24 .56200006 C .094 .56200006 0 .45000003 0 .27800004 C 0 .106000009 .091000009 0 .23800002 0 C .35800005 0 .44100005 .068 .46200005 .18200001 L .37800003 .18200001 C .35500003 .113000009 .30800004 .07700001 .24100001 .07700001 C .18800001 .07700001 .143 .101 .114999998 .14500001 C .095 .17500001 .088 .20500002 .087 .25700004 L .47300003 .25700004 M .089 .32500003 C .096 .42200003 .155 .485 .23900001 .485 C .32100005 .485 .38400004 .41700004 .38400004 .33100004 C .38400004 .32900004 .38400004 .32700003 .38300003 .32500003 L .089 .32500003 Z "/>
</symbol>
<symbol id="font_1_13">
<path d="M .08400001 .72900006 L 0 .72900006 L 0 0 L .08400001 0 L .08400001 .72900006 Z "/>
</symbol>
<symbol id="font_1_8">
<path d="M .49300004 .072000008 C .48400004 .07000001 .48000003 .07000001 .47500003 .07000001 C .44600005 .07000001 .43000005 .08500001 .43000005 .11100001 L .43000005 .41900004 C .43000005 .512 .36200003 .56200006 .23300001 .56200006 C .157 .56200006 .094000007 .54 .059 .50100007 C .035000005 .47400005 .024999999 .44400005 .023000002 .39200003 L .107 .39200003 C .114 .45600004 .15200001 .485 .23000002 .485 C .305 .485 .34700004 .45700003 .34700004 .407 L .34700004 .38500003 C .34700004 .35000003 .32600004 .335 .26000003 .32700003 C .14200002 .312 .124000009 .30800004 .092 .29500003 C .031000004 .27 0 .223 0 .155 C 0 .060000004 .066 0 .17200002 0 C .238 0 .291 .023000002 .35000003 .07700001 C .35600005 .024000003 .38200004 0 .43600003 0 C .45300005 0 .46600003 .0020000004 .49300004 .0090000019 L .49300004 .072000008 M .34700004 .18800001 C .34700004 .16000001 .33900003 .143 .314 .120000008 C .28000004 .089 .23900002 .073 .19 .073 C .125 .073 .087000008 .104 .087000008 .157 C .087000008 .21200001 .124000009 .24000001 .21300003 .25300003 C .30100004 .26500003 .31900005 .269 .34700004 .282 L .34700004 .18800001 Z "/>
</symbol>
<symbol id="font_1_5">
<path d="M .404 .40100003 C .403 .50400009 .335 .56200006 .21400002 .56200006 C .092 .56200006 .013 .499 .013 .402 C .013 .32000003 .055 .28100003 .17900002 .25100003 L .257 .23200001 C .315 .21800001 .338 .19700001 .338 .15900001 C .338 .11000001 .289 .07700001 .21599999 .07700001 C .171 .07700001 .13300002 .09 .11200001 .112 C .099 .127 .093 .142 .08800001 .179 L 0 .179 C .0040000008 .058000003 .072000008 0 .20900002 0 C .34100003 0 .425 .065000008 .425 .16600001 C .425 .24400002 .381 .287 .277 .312 L .197 .33100004 C .12900001 .347 .1 .36900003 .1 .40600003 C .1 .45400004 .143 .485 .211 .485 C .278 .485 .314 .45600004 .316 .40100003 L .404 .40100003 Z "/>
</symbol>
<symbol id="font_1_6">
<path d="M .24000001 .54700008 L .15400002 .54700008 L .15400002 .69100007 L .071 .69100007 L .071 .54700008 L 0 .54700008 L 0 .47900004 L .071 .47900004 L .071 .083000008 C .071 .030000002 .10700001 0 .172 0 C .19200002 0 .21200001 .0020000004 .24000001 .007000001 L .24000001 .07700001 C .22900002 .074 .216 .073 .20000002 .073 C .164 .073 .15400002 .083000008 .15400002 .120000008 L .15400002 .47900004 L .24000001 .47900004 L .24000001 .54700008 Z "/>
</symbol>
<symbol id="font_1_11">
<path d="M .08400001 .52400007 L .001000002 .52400007 L .001000002 0 L .08400001 0 L .08400001 .52400007 M .08400001 .72900006 L 0 .72900006 L 0 .624 L .08400001 .624 L .08400001 .72900006 Z "/>
</symbol>
<symbol id="font_1_c">
<path d="M .44000004 .37100003 C .43600003 .42200003 .42500005 .455 .40500004 .48400004 C .36900003 .53300008 .30600003 .56200006 .233 .56200006 C .092 .56200006 0 .45000003 0 .27600003 C 0 .10700001 .09 0 .23200001 0 C .35700003 0 .43600003 .075 .44600005 .20300001 L .36200003 .20300001 C .34800003 .119 .30500005 .07700001 .23400001 .07700001 C .142 .07700001 .087000008 .15200001 .087000008 .27600003 C .087000008 .407 .141 .485 .23200001 .485 C .30200003 .485 .34600003 .44400005 .35600005 .37100003 L .44000004 .37100003 Z "/>
</symbol>
<use xlink:href="#font_1_e" transform="matrix(9.4645,0,0,-9.4645,112.50558,156.1657)" fill="#6100ad"/>
<use xlink:href="#font_1_13" transform="matrix(9.4645,0,0,-9.4645,118.032848,155.94802)" fill="#6100ad"/>
<use xlink:href="#font_1_8" transform="matrix(9.4645,0,0,-9.4645,119.887889,156.1657)" fill="#6100ad"/>
<use xlink:href="#font_1_5" transform="matrix(9.4645,0,0,-9.4645,125.07443,156.1657)" fill="#6100ad"/>
<use xlink:href="#font_1_6" transform="matrix(9.4645,0,0,-9.4645,129.6174,156.1657)" fill="#6100ad"/>
<use xlink:href="#font_1_11" transform="matrix(9.4645,0,0,-9.4645,132.74069,155.94802)" fill="#6100ad"/>
<use xlink:href="#font_1_c" transform="matrix(9.4645,0,0,-9.4645,134.51055,156.1657)" fill="#6100ad"/>
<path transform="matrix(.1,0,0,-.1,0,307.23)" stroke-width="3.98" stroke-linecap="butt" stroke-miterlimit="10" stroke-linejoin="miter" fill="none" stroke="#6100ad" d="M 1395.17 1514.81 L 1423.56 1514.81 "/>
<symbol id="font_1_9">
<path d="M .27500005 .27100004 L .45100004 .52400007 L .35700003 .52400007 L .231 .33400003 L .105000007 .52400007 L .01 .52400007 L .185 .26700003 L 0 0 L .095 0 L .228 .201 L .35900004 0 L .45600004 0 L .27500005 .27100004 Z "/>
</symbol>
<symbol id="font_1_1">
<path d="M 0 .52400007 L 0 0 L .084000017 0 L .084000017 .289 C .084000017 .39600004 .14000002 .46600003 .22600001 .46600003 C .29200004 .46600003 .33400003 .42600004 .33400003 .363 L .33400003 0 L .41700004 0 L .41700004 .39600004 C .41700004 .483 .35200004 .53900006 .25100003 .53900006 C .17300001 .53900006 .123 .509 .077 .43600003 L .077 .52400007 L 0 .52400007 Z "/>
</symbol>
<symbol id="font_1_10">
<path d="M .38300003 .74200007 L .38300003 .666 C .341 .72800007 .29 .757 .223 .757 C .09 .757 0 .64100006 0 .47100003 C 0 .38500003 .023 .315 .06600001 .26500003 C .105000007 .22100002 .16100002 .19500001 .216 .19500001 C .282 .19500001 .328 .223 .375 .289 L .375 .26200003 C .375 .19100002 .366 .148 .345 .119 C .323 .088 .28 .07000001 .22900002 .07000001 C .19100002 .07000001 .157 .08 .134 .098000008 C .11500001 .113000009 .10700001 .127 .10200001 .158 L .017000003 .158 C .026000003 .059 .103 0 .22600003 0 C .304 0 .371 .025000006 .405 .067 C .44500003 .115 .46 .18100001 .46 .30400003 L .46 .74200007 L .38300003 .74200007 M .23200001 .68 C .322 .68 .375 .60400006 .375 .47300006 C .375 .34800003 .321 .272 .23300003 .272 C .142 .272 .087000008 .34900005 .087000008 .476 C .087000008 .602 .143 .68 .23200001 .68 Z "/>
</symbol>
<use xlink:href="#font_1_9" transform="matrix(9.4645,0,0,-9.4645,142.5169,155.94802)" fill="#6100ad"/>
<use xlink:href="#font_1_1" transform="matrix(9.4645,0,0,-9.4645,147.75078,155.94802)" fill="#6100ad"/>
<use xlink:href="#font_1_e" transform="matrix(9.4645,0,0,-9.4645,152.72911,156.1657)" fill="#6100ad"/>
<use xlink:href="#font_1_10" transform="matrix(9.4645,0,0,-9.4645,157.88727,158.01128)" fill="#6100ad"/>
<use xlink:href="#font_1_e" transform="matrix(9.4645,0,0,-9.4645,183.6498,156.2317)" fill="#6100ad"/>
<use xlink:href="#font_1_13" transform="matrix(9.4645,0,0,-9.4645,189.17707,156.01403)" fill="#6100ad"/>
<use xlink:href="#font_1_8" transform="matrix(9.4645,0,0,-9.4645,191.0321,156.2317)" fill="#6100ad"/>
<use xlink:href="#font_1_5" transform="matrix(9.4645,0,0,-9.4645,196.21866,156.2317)" fill="#6100ad"/>
<use xlink:href="#font_1_6" transform="matrix(9.4645,0,0,-9.4645,200.76163,156.2317)" fill="#6100ad"/>
<use xlink:href="#font_1_11" transform="matrix(9.4645,0,0,-9.4645,203.88492,156.01403)" fill="#6100ad"/>
<use xlink:href="#font_1_c" transform="matrix(9.4645,0,0,-9.4645,205.65477,156.2317)" fill="#6100ad"/>
<path transform="matrix(.1,0,0,-.1,0,307.23)" stroke-width="3.98" stroke-linecap="butt" stroke-miterlimit="10" stroke-linejoin="miter" fill="none" stroke="#6100ad" d="M 2106.61 1514.15 L 2135 1514.15 "/>
<symbol id="font_1_3">
<path d="M 0 0 L .08400001 0 L .08400001 .273 C .128 .21900001 .177 .19500001 .24500002 .19500001 C .38000003 .19500001 .469 .30400003 .469 .47100003 C .469 .647 .38300003 .757 .244 .757 C .17300001 .757 .116 .725 .07700001 .66300007 L .07700001 .74200007 L 0 .74200007 L 0 0 M .23 .679 C .32200004 .679 .38200004 .59800007 .38200004 .47300006 C .38200004 .35400004 .32100005 .273 .23 .273 C .142 .273 .08400001 .35300002 .08400001 .476 C .08400001 .59900006 .142 .679 .23 .679 Z "/>
</symbol>
<symbol id="font_1_2">
<path d="M .23600002 .56200006 C .089 .56200006 0 .45700003 0 .28100003 C 0 .105000007 .088 0 .237 0 C .384 0 .47400005 .105000007 .47400005 .277 C .47400005 .45800004 .387 .56200006 .23600002 .56200006 M .237 .485 C .331 .485 .387 .40800003 .387 .27800004 C .387 .155 .329 .07700001 .237 .07700001 C .14400001 .07700001 .087 .15400002 .087 .28100003 C .087 .407 .14400001 .485 .237 .485 Z "/>
</symbol>
<symbol id="font_1_a">
<path d="M 0 .75200006 L 0 .023000002 L .075 .023000002 L .075 .09 C .11500001 .029000003 .16800002 0 .24100001 0 C .37900005 0 .469 .113000009 .469 .287 C .469 .45700003 .38300003 .56200006 .24500002 .56200006 C .17300001 .56200006 .12200001 .535 .083000008 .476 L .083000008 .75200006 L 0 .75200006 M .22900002 .48400004 C .32200004 .48400004 .38200004 .40300004 .38200004 .27800004 C .38200004 .15900001 .32000003 .07800001 .22900002 .07800001 C .141 .07800001 .083000008 .158 .083000008 .28100003 C .083000008 .404 .141 .48400004 .22900002 .48400004 Z "/>
</symbol>
<symbol id="font_1_7">
<path d="M .41700004 .023000002 L .41700004 .54700008 L .33400003 .54700008 L .33400003 .25 C .33400003 .143 .27800004 .073 .19100002 .073 C .125 .073 .083 .113000009 .083 .17600002 L .083 .54700008 L 0 .54700008 L 0 .143 C 0 .056 .065000008 0 .167 0 C .24400002 0 .293 .027000003 .342 .09600001 L .342 .023000002 L .41700004 .023000002 Z "/>
</symbol>
<symbol id="font_1_d">
<path d="M .46900005 .75200006 L .38600005 .75200006 L .38600005 .48100005 C .351 .53400006 .29500003 .56200006 .22500003 .56200006 C .089 .56200006 0 .453 0 .286 C 0 .109000008 .087000008 0 .22800002 0 C .3 0 .35000003 .027000003 .39500005 .09200001 L .39500005 .023000002 L .46900005 .023000002 L .46900005 .75200006 M .23900002 .48400004 C .32900004 .48400004 .38600005 .404 .38600005 .279 C .38600005 .158 .328 .07800001 .24000001 .07800001 C .148 .07800001 .087000008 .15900001 .087000008 .28100003 C .087000008 .40300004 .148 .48400004 .23900002 .48400004 Z "/>
</symbol>
<symbol id="font_1_4">
<path d="M 0 .52400007 L 0 0 L .08400001 0 L .08400001 .272 C .08400001 .347 .103 .39600004 .143 .425 C .169 .44400005 .194 .45000003 .252 .45100004 L .252 .536 C .238 .53800007 .231 .53900006 .22 .53900006 C .16600001 .53900006 .125 .507 .07700001 .42900003 L .07700001 .52400007 L 0 .52400007 Z "/>
</symbol>
<symbol id="font_1_b">
<path d="M .368 .74200007 L .22300002 .33400003 L .089 .74200007 L 0 .74200007 L .17700002 .216 L .14500001 .13300002 C .13200002 .096 .113 .082 .078 .082 C .066 .082 .052 .08400001 .034 .088 L .034 .012999997 C .051 .003999993 .068 0 .09 0 C .117000009 0 .14600002 .009000003 .16800002 .025000006 C .19400002 .044 .20900002 .066 .22500001 .108 L .458 .74200007 L .368 .74200007 Z "/>
</symbol>
<use xlink:href="#font_1_9" transform="matrix(9.4645,0,0,-9.4645,213.6609,156.014)" fill="#6100ad"/>
<use xlink:href="#font_1_3" transform="matrix(9.4645,0,0,-9.4645,218.74333,158.07727)" fill="#6100ad"/>
<use xlink:href="#font_1_2" transform="matrix(9.4645,0,0,-9.4645,223.83525,156.23169)" fill="#6100ad"/>
<use xlink:href="#font_1_5" transform="matrix(9.4645,0,0,-9.4645,229.07859,156.23169)" fill="#6100ad"/>
<use xlink:href="#font_1_a" transform="matrix(9.4645,0,0,-9.4645,3.66509,156.16568)" fill="#6100ad"/>
<use xlink:href="#font_1_2" transform="matrix(9.4645,0,0,-9.4645,8.756991,156.16568)" fill="#6100ad"/>
<use xlink:href="#font_1_7" transform="matrix(9.4645,0,0,-9.4645,14.293724,156.16568)" fill="#6100ad"/>
<use xlink:href="#font_1_1" transform="matrix(9.4645,0,0,-9.4645,19.60331,155.948)" fill="#6100ad"/>
<use xlink:href="#font_1_d" transform="matrix(9.4645,0,0,-9.4645,24.449133,156.16568)" fill="#6100ad"/>
<use xlink:href="#font_1_8" transform="matrix(9.4645,0,0,-9.4645,29.862828,156.16568)" fill="#6100ad"/>
<use xlink:href="#font_1_4" transform="matrix(9.4645,0,0,-9.4645,35.38063,155.948)" fill="#6100ad"/>
<use xlink:href="#font_1_b" transform="matrix(9.4645,0,0,-9.4645,38.35267,158.01126)" fill="#6100ad"/>
<path transform="matrix(.1,0,0,-.1,0,307.23)" stroke-width="3.98" stroke-linecap="butt" stroke-miterlimit="10" stroke-linejoin="miter" fill="none" stroke="#6100ad" d="M 434.629 1514.81 L 463.02 1514.81 "/>
<use xlink:href="#font_1_9" transform="matrix(9.4645,0,0,-9.4645,46.463998,155.94802)" fill="#6100ad"/>
<use xlink:href="#font_1_1" transform="matrix(9.4645,0,0,-9.4645,51.697866,155.94802)" fill="#6100ad"/>
<use xlink:href="#font_1_e" transform="matrix(9.4645,0,0,-9.4645,56.676195,156.1657)" fill="#6100ad"/>
<use xlink:href="#font_1_10" transform="matrix(9.4645,0,0,-9.4645,61.83435,158.01128)" fill="#6100ad"/>
<path transform="matrix(.1,0,0,-.1,0,307.23)" stroke-width="19.9255" stroke-linecap="butt" stroke-miterlimit="10" stroke-linejoin="miter" fill="none" stroke="#6100ad" d="M 701.672 1598.53 C 951.535 1642.59 770.781 1492.43 941.172 1522.47 "/>
<path transform="matrix(.1,0,0,-.1,0,307.23)" d="M 979.938 1529.31 C 974.973 1529.63 952.887 1532.52 938.543 1537.38 L 943.801 1507.56 C 955.617 1517.04 975.383 1527.31 979.938 1529.31 Z " fill="#6100ad"/>
<path transform="matrix(.1,0,0,-.1,0,307.23)" stroke-width="17.9324" stroke-linecap="butt" stroke-miterlimit="10" stroke-linejoin="miter" fill="none" stroke="#6100ad" d="M 979.938 1529.31 C 974.973 1529.63 952.887 1532.52 938.543 1537.38 L 943.801 1507.56 C 955.617 1517.04 975.383 1527.31 979.938 1529.31 Z "/>
<use xlink:href="#font_1_a" transform="matrix(9.4645,0,0,-9.4645,279.57008,156.20569)" fill="#6100ad"/>
<use xlink:href="#font_1_2" transform="matrix(9.4645,0,0,-9.4645,284.662,156.20569)" fill="#6100ad"/>
<use xlink:href="#font_1_7" transform="matrix(9.4645,0,0,-9.4645,290.19874,156.20569)" fill="#6100ad"/>
<use xlink:href="#font_1_1" transform="matrix(9.4645,0,0,-9.4645,295.5083,155.988)" fill="#6100ad"/>
<use xlink:href="#font_1_d" transform="matrix(9.4645,0,0,-9.4645,300.35414,156.20569)" fill="#6100ad"/>
<use xlink:href="#font_1_8" transform="matrix(9.4645,0,0,-9.4645,305.76786,156.20569)" fill="#6100ad"/>
<use xlink:href="#font_1_4" transform="matrix(9.4645,0,0,-9.4645,311.28565,155.988)" fill="#6100ad"/>
<use xlink:href="#font_1_b" transform="matrix(9.4645,0,0,-9.4645,314.2577,158.05127)" fill="#6100ad"/>
<path transform="matrix(.1,0,0,-.1,0,307.23)" stroke-width="3.98" stroke-linecap="butt" stroke-miterlimit="10" stroke-linejoin="miter" fill="none" stroke="#6100ad" d="M 3193.68 1514.41 L 3222.07 1514.41 "/>
<use xlink:href="#font_1_9" transform="matrix(9.4645,0,0,-9.4645,322.3679,155.988)" fill="#6100ad"/>
<use xlink:href="#font_1_3" transform="matrix(9.4645,0,0,-9.4645,327.45033,158.05127)" fill="#6100ad"/>
<use xlink:href="#font_1_2" transform="matrix(9.4645,0,0,-9.4645,332.54225,156.20569)" fill="#6100ad"/>
<use xlink:href="#font_1_5" transform="matrix(9.4645,0,0,-9.4645,337.78559,156.20569)" fill="#6100ad"/>
<path transform="matrix(.1,0,0,-.1,0,307.23)" stroke-width="19.9255" stroke-linecap="butt" stroke-miterlimit="10" stroke-linejoin="miter" fill="none" stroke="#6100ad" d="M 2757.13 1474.95 C 2507.27 1430.85 2688.02 1580.54 2517.63 1550.5 "/>
<path transform="matrix(.1,0,0,-.1,0,307.23)" d="M 2478.86 1543.66 C 2483.83 1543.34 2505.91 1540.45 2520.26 1535.59 L 2515 1565.41 C 2503.18 1555.94 2483.42 1545.66 2478.86 1543.66 Z " fill="#6100ad"/>
<path transform="matrix(.1,0,0,-.1,0,307.23)" stroke-width="17.9324" stroke-linecap="butt" stroke-miterlimit="10" stroke-linejoin="miter" fill="none" stroke="#6100ad" d="M 2478.86 1543.66 C 2483.83 1543.34 2505.91 1540.45 2520.26 1535.59 L 2515 1565.41 C 2503.18 1555.94 2483.42 1545.66 2478.86 1543.66 Z "/>
<use xlink:href="#font_1_a" transform="matrix(9.4645,0,0,-9.4645,141.61309,302.18754)" fill="#6100ad"/>
<use xlink:href="#font_1_2" transform="matrix(9.4645,0,0,-9.4645,146.705,302.18754)" fill="#6100ad"/>
<use xlink:href="#font_1_7" transform="matrix(9.4645,0,0,-9.4645,152.24173,302.18754)" fill="#6100ad"/>
<use xlink:href="#font_1_1" transform="matrix(9.4645,0,0,-9.4645,157.55133,301.96986)" fill="#6100ad"/>
<use xlink:href="#font_1_d" transform="matrix(9.4645,0,0,-9.4645,162.39716,302.18754)" fill="#6100ad"/>
<use xlink:href="#font_1_8" transform="matrix(9.4645,0,0,-9.4645,167.81085,302.18754)" fill="#6100ad"/>
<use xlink:href="#font_1_4" transform="matrix(9.4645,0,0,-9.4645,173.32866,301.96986)" fill="#6100ad"/>
<use xlink:href="#font_1_b" transform="matrix(9.4645,0,0,-9.4645,176.30069,304.0331)" fill="#6100ad"/>
<path transform="matrix(.1,0,0,-.1,0,307.23)" stroke-width="3.98" stroke-linecap="butt" stroke-miterlimit="10" stroke-linejoin="miter" fill="none" stroke="#6100ad" d="M 1814.11 54.6016 L 1842.5 54.6016 "/>
<use xlink:href="#font_1_b" transform="matrix(9.4645,0,0,-9.4645,184.43929,304.0331)" fill="#6100ad"/>
<use xlink:href="#font_1_1" transform="matrix(9.4645,0,0,-9.4645,189.64478,301.96986)" fill="#6100ad"/>
<use xlink:href="#font_1_e" transform="matrix(9.4645,0,0,-9.4645,194.62311,302.18754)" fill="#6100ad"/>
<use xlink:href="#font_1_10" transform="matrix(9.4645,0,0,-9.4645,199.78127,304.0331)" fill="#6100ad"/>
<path transform="matrix(.1,0,0,-.1,0,307.23)" stroke-width="19.9255" stroke-linecap="butt" stroke-miterlimit="10" stroke-linejoin="miter" fill="none" stroke="#6100ad" d="M 1715.55 154.422 C 1672.19 400.398 1772.73 227.441 1743.37 393.941 "/>
<path transform="matrix(.1,0,0,-.1,0,307.23)" d="M 1736.54 432.711 C 1736.21 427.746 1733.32 405.656 1728.46 391.313 L 1758.28 396.57 C 1748.81 408.387 1738.54 428.152 1736.54 432.711 Z " fill="#6100ad"/>
<path transform="matrix(.1,0,0,-.1,0,307.23)" stroke-width="17.9324" stroke-linecap="butt" stroke-miterlimit="10" stroke-linejoin="miter" fill="none" stroke="#6100ad" d="M 1736.54 432.711 C 1736.21 427.746 1733.32 405.656 1728.46 391.313 L 1758.28 396.57 C 1748.81 408.387 1738.54 428.152 1736.54 432.711 Z "/>
<use xlink:href="#font_1_a" transform="matrix(9.4645,0,0,-9.4645,141.87808,10.211702)" fill="#6100ad"/>
<use xlink:href="#font_1_2" transform="matrix(9.4645,0,0,-9.4645,146.97,10.211702)" fill="#6100ad"/>
<use xlink:href="#font_1_7" transform="matrix(9.4645,0,0,-9.4645,152.50673,10.211702)" fill="#6100ad"/>
<use xlink:href="#font_1_1" transform="matrix(9.4645,0,0,-9.4645,157.81633,9.994019)" fill="#6100ad"/>
<use xlink:href="#font_1_d" transform="matrix(9.4645,0,0,-9.4645,162.66216,10.211702)" fill="#6100ad"/>
<use xlink:href="#font_1_8" transform="matrix(9.4645,0,0,-9.4645,168.07585,10.211702)" fill="#6100ad"/>
<use xlink:href="#font_1_4" transform="matrix(9.4645,0,0,-9.4645,173.59366,9.994019)" fill="#6100ad"/>
<use xlink:href="#font_1_b" transform="matrix(9.4645,0,0,-9.4645,176.56569,12.05728)" fill="#6100ad"/>
<path transform="matrix(.1,0,0,-.1,0,307.23)" stroke-width="3.98" stroke-linecap="butt" stroke-miterlimit="10" stroke-linejoin="miter" fill="none" stroke="#6100ad" d="M 1816.76 2974.35 L 1845.15 2974.35 "/>
<use xlink:href="#font_1_b" transform="matrix(9.4645,0,0,-9.4645,184.70429,12.05728)" fill="#6100ad"/>
<use xlink:href="#font_1_3" transform="matrix(9.4645,0,0,-9.4645,189.75833,12.05728)" fill="#6100ad"/>
<use xlink:href="#font_1_2" transform="matrix(9.4645,0,0,-9.4645,194.85025,10.211702)" fill="#6100ad"/>
<use xlink:href="#font_1_5" transform="matrix(9.4645,0,0,-9.4645,200.09358,10.211702)" fill="#6100ad"/>
<path transform="matrix(.1,0,0,-.1,0,307.23)" stroke-width="19.9255" stroke-linecap="butt" stroke-miterlimit="10" stroke-linejoin="miter" fill="none" stroke="#6100ad" d="M 1743.08 2918.68 C 1786.46 2672.7 1685.98 2845.66 1715.34 2679.16 "/>
<path transform="matrix(.1,0,0,-.1,0,307.23)" d="M 1722.18 2640.39 C 1722.5 2645.36 1725.39 2667.44 1730.25 2681.79 L 1700.43 2676.53 C 1709.91 2664.71 1720.18 2644.95 1722.18 2640.39 Z " fill="#6100ad"/>
<path transform="matrix(.1,0,0,-.1,0,307.23)" stroke-width="17.9324" stroke-linecap="butt" stroke-miterlimit="10" stroke-linejoin="miter" fill="none" stroke="#6100ad" d="M 1722.18 2640.39 C 1722.5 2645.36 1725.39 2667.44 1730.25 2681.79 L 1700.43 2676.53 C 1709.91 2664.71 1720.18 2644.95 1722.18 2640.39 Z "/>
<symbol id="font_1_f">
<path d="M .24000001 .52400007 L .153 .52400007 L .153 .606 C .153 .64100006 .17300001 .65900006 .21100001 .65900006 C .21800001 .65900006 .221 .65900006 .24000001 .65800008 L .24000001 .72700008 C .221 .731 .21000001 .73200008 .193 .73200008 C .116000007 .73200008 .07000001 .688 .07000001 .61300006 L .07000001 .52400007 L 0 .52400007 L 0 .45600004 L .07000001 .45600004 L .07000001 0 L .153 0 L .153 .45600004 L .24000001 .45600004 L .24000001 .52400007 Z "/>
</symbol>
<use xlink:href="#font_1_f" transform="matrix(9.4645,0,0,-9.4645,208.35437,210.11402)" fill="#6100ad"/>
<use xlink:href="#font_1_8" transform="matrix(9.4645,0,0,-9.4645,210.92879,210.3317)" fill="#6100ad"/>
<use xlink:href="#font_1_7" transform="matrix(9.4645,0,0,-9.4645,216.40874,210.3317)" fill="#6100ad"/>
<use xlink:href="#font_1_13" transform="matrix(9.4645,0,0,-9.4645,221.6994,210.11402)" fill="#6100ad"/>
<use xlink:href="#font_1_6" transform="matrix(9.4645,0,0,-9.4645,223.28945,210.3317)" fill="#6100ad"/>
<path transform="matrix(.1,0,0,-.1,0,307.23)" stroke-width="19.9255" stroke-linecap="butt" stroke-miterlimit="10" stroke-linejoin="miter" fill="none" stroke="#6100ad" d="M 2048.33 983.48 C 1802.4 940.121 1975.32 1048.31 1808.87 1018.96 "/>
<path transform="matrix(.1,0,0,-.1,0,307.23)" d="M 1770.11 1012.13 C 1775.07 1011.8 1797.16 1008.91 1811.5 1004.05 L 1806.24 1033.87 C 1794.43 1024.4 1774.66 1014.13 1770.11 1012.13 Z " fill="#6100ad"/>
<path transform="matrix(.1,0,0,-.1,0,307.23)" stroke-width="17.9324" stroke-linecap="butt" stroke-miterlimit="10" stroke-linejoin="miter" fill="none" stroke="#6100ad" d="M 1770.11 1012.13 C 1775.07 1011.8 1797.16 1008.91 1811.5 1004.05 L 1806.24 1033.87 C 1794.43 1024.4 1774.66 1014.13 1770.11 1012.13 Z "/>
</g>
</svg>
