<?xml version="1.0" encoding="UTF-8" standalone="no"?>
<!DOCTYPE svg PUBLIC "-//W3C//DTD SVG 1.1//EN" "http://www.w3.org/Graphics/SVG/1.1/DTD/svg11.dtd">
<svg xmlns="http://www.w3.org/2000/svg" xmlns:xlink="http://www.w3.org/1999/xlink" version="1.1" width="321.87pt" height="213.62pt" viewBox="0 0 321.87 213.62">
<g enable-background="new">
<path transform="matrix(.1,0,0,-.1,0,213.62)" d="M 900.574 4.96484 L 2318.084 4.96484 L 2318.084 2131.2349 L 900.574 2131.2349 Z " fill="#cceeff"/>
<path transform="matrix(.1,0,0,-.1,0,213.62)" stroke-width="9.9628" stroke-linecap="butt" stroke-miterlimit="10" stroke-linejoin="miter" fill="none" stroke="#1f6e96" d="M 900.574 4.96484 L 2318.084 4.96484 L 2318.084 2131.2349 L 900.574 2131.2349 Z "/>
<path transform="matrix(.1,0,0,-.1,0,213.62)" stroke-width="9.9628" stroke-linecap="butt" stroke-miterlimit="10" stroke-linejoin="miter" fill="none" stroke="#1f6e96" d="M 1609.33 4.96484 L 1609.33 2131.23 "/>
<path transform="matrix(.1,0,0,-.1,0,213.62)" stroke-width="19.9255" stroke-linecap="butt" stroke-miterlimit="10" stroke-linejoin="miter" fill="none" stroke="#6100ad" d="M 900.531 908.594 L 900.531 1146.8 "/>
<path transform="matrix(.1,0,0,-.1,0,213.62)" d="M 900.531 1186.17 C 899.352 1181.33 892.664 1160.08 885.391 1146.8 L 915.672 1146.8 C 908.395 1160.08 901.711 1181.33 900.531 1186.17 Z " fill="#6100ad"/>
<path transform="matrix(.1,0,0,-.1,0,213.62)" stroke-width="17.9326" stroke-linecap="butt" stroke-miterlimit="10" stroke-linejoin="miter" fill="none" stroke="#6100ad" d="M 900.531 1186.17 C 899.352 1181.33 892.664 1160.08 885.391 1146.8 L 915.672 1146.8 C 908.395 1160.08 901.711 1181.33 900.531 1186.17 Z "/>
<symbol id="font_0_2">
<path d="M .321 .067 C .33200003 .026 .367 0 .41 0 C .44500003 0 .468 .023000002 .484 .055000005 C .50100007 .091000009 .51400008 .15200001 .51400008 .15400002 C .51400008 .16400002 .50500008 .16400002 .50200006 .16400002 C .492 .16400002 .49100004 .16000001 .488 .14600002 C .474 .09 .455 .022000002 .41300003 .022000002 C .39200003 .022000002 .382 .035 .382 .068 C .382 .09 .394 .13700001 .402 .17200002 L .43 .28000004 C .433 .29500003 .44300003 .33300004 .447 .34800003 C .45200003 .37100003 .462 .40900005 .462 .41500003 C .462 .43300004 .448 .44200004 .433 .44200004 C .428 .44200004 .402 .441 .394 .40700004 C .375 .33400003 .331 .15900001 .319 .106000009 C .318 .102000009 .278 .022000002 .20500002 .022000002 C .15300001 .022000002 .143 .067 .143 .104 C .143 .16000001 .171 .23900002 .19700001 .30800004 C .209 .33800004 .21400002 .35200004 .21400002 .37100003 C .21400002 .41600005 .18200001 .45300005 .13200002 .45300005 C .037 .45300005 0 .30800004 0 .29900003 C 0 .28900004 .01 .28900004 .012 .28900004 C .022000002 .28900004 .023 .291 .028000003 .307 C .053000004 .39400003 .091000009 .43100003 .12900001 .43100003 C .13800001 .43100003 .15400002 .43000005 .15400002 .39800004 C .15400002 .374 .143 .34500004 .13700001 .33 C .10000001 .23100002 .079 .16900002 .079 .120000008 C .079 .025000003 .148 0 .202 0 C .268 0 .304 .045 .321 .067 Z "/>
</symbol>
<use xlink:href="#font_0_2" transform="matrix(9.9626,0,0,-9.9626,8.424855,103.338588)" fill="#6100ad"/>
<symbol id="font_1_1">
<path d="M .201 .116000007 C .19100002 .082 .15800002 .028 .107 .028 C .10400001 .028 .07400001 .028 .053000004 .042000005 C .094000007 .055000005 .09700001 .091 .09700001 .097 C .09700001 .119 .080000009 .134 .057000005 .134 C .029000007 .134 0 .11 0 .073 C 0 .023000002 .056 0 .10500001 0 C .15100003 0 .192 .029000003 .21700001 .071 C .241 .018000002 .296 0 .336 0 C .451 0 .512 .125 .512 .15300001 C .512 .16600001 .49900005 .16600001 .49600003 .16600001 C .48200003 .16600001 .48100005 .16100002 .47700004 .14900002 C .456 .08 .39600004 .028 .34 .028 C .3 .028 .279 .055000005 .279 .093 C .279 .119 .303 .21000001 .331 .321 C .351 .398 .39600004 .423 .42900003 .423 C .43100003 .423 .46200005 .423 .483 .409 C .451 .4 .439 .372 .439 .354 C .439 .33200003 .456 .317 .479 .317 C .50200006 .317 .535 .336 .535 .37800003 C .535 .43400003 .47100006 .451 .43100003 .451 C .381 .451 .34100003 .418 .319 .38 C .301 .421 .255 .451 .199 .451 C .087000008 .451 .023000002 .328 .023000002 .298 C .023000002 .285 .037 .285 .040000008 .285 C .053000004 .285 .054000006 .289 .059000009 .30200003 C .084 .38 .14700002 .423 .19600001 .423 C .229 .423 .256 .405 .256 .357 C .256 .337 .24400002 .287 .23500002 .25300003 L .201 .116000007 Z "/>
</symbol>
<use xlink:href="#font_1_1" transform="matrix(6.9738,0,0,-6.9738,14.173812,104.79288)" fill="#6100ad"/>
<symbol id="font_2_5">
<path d="M .63100007 .19400002 C .646 .19400002 .665 .19400002 .665 .214 C .665 .23400001 .646 .23400001 .632 .23400001 L .033 .23400001 C .019000002 .23400001 0 .23400001 0 .214 C 0 .19400002 .019000002 .19400002 .034 .19400002 L .63100007 .19400002 M .632 0 C .646 0 .665 0 .665 .02000001 C .665 .040000008 .646 .040000008 .63100007 .040000008 L .034 .040000008 C .019000002 .040000008 0 .040000008 0 .02000001 C 0 0 .019000002 0 .033 0 L .632 0 Z "/>
</symbol>
<symbol id="font_2_9">
<path d="M .421 .34200005 C .421 .42200003 .416 .50200006 .381 .57600006 C .335 .67200008 .25300003 .688 .211 .688 C .15100001 .688 .07800001 .66200008 .037000006 .56900009 C .0050000029 .5 0 .42200003 0 .34200005 C 0 .26700003 .0040000008 .177 .045000007 .101 C .088 .020000002 .161 0 .21000001 0 C .264 0 .34 .021000002 .384 .116000007 C .416 .185 .421 .263 .421 .34200005 M .21000001 .022000002 C .171 .022000002 .112 .047000003 .094 .143 C .083000008 .20300001 .083000008 .29500003 .083000008 .35400004 C .083000008 .41800005 .083000008 .48400004 .091000009 .53800007 C .11 .65700009 .185 .66600009 .21000001 .66600009 C .243 .66600009 .30900003 .64800009 .328 .549 C .338 .49300004 .338 .41700004 .338 .35400004 C .338 .279 .338 .21100001 .32700003 .147 C .312 .052 .255 .022000002 .21000001 .022000002 Z "/>
</symbol>
<symbol id="font_2_6">
<path d="M .107 .053000034 C .107 .07999998 .084000017 .106000009 .054000014 .106000009 C .020000004 .106000009 0 .07800001 0 .053000034 C 0 .026000023 .023000002 0 .05300001 0 C .087000008 0 .107 .027999998 .107 .053000034 Z "/>
</symbol>
<use xlink:href="#font_2_5" transform="matrix(9.9626,0,0,-9.9626,22.179785,101.90397)" fill="#6100ad"/>
<use xlink:href="#font_2_9" transform="matrix(9.9626,0,0,-9.9626,32.528787,103.44817)" fill="#6100ad"/>
<use xlink:href="#font_2_6" transform="matrix(9.9626,0,0,-9.9626,10.7269,109.57515)" fill="#6100ad"/>
<use xlink:href="#font_0_2" transform="matrix(9.9626,0,0,-9.9626,8.424855,115.293689)" fill="#6100ad"/>
<symbol id="font_1_2">
<path d="M .50900009 .58100005 C .513 .595 .513 .597 .513 .60300007 C .513 .623 .49700005 .63500007 .48000003 .63500007 C .46900005 .63500007 .45000003 .63000008 .43900005 .611 C .43600003 .605 .42800004 .573 .42300005 .55300006 L .40200005 .47000004 C .39600004 .44600005 .36500005 .32000003 .36200003 .30900003 C .36100004 .30900003 .31700004 .22200002 .23900001 .22200002 C .171 .22200002 .171 .287 .171 .305 C .171 .35900004 .194 .42200003 .22400002 .499 C .23600002 .531 .24100001 .54300007 .24100001 .56 C .24100001 .60800006 .2 .64500007 .146 .64500007 C .045000007 .64500007 0 .509 0 .49200005 C 0 .47900004 .014000002 .47900004 .017 .47900004 C .031 .47900004 .032 .48400004 .035 .495 C .060000007 .578 .103 .61700007 .143 .61700007 C .16000001 .61700007 .168 .606 .168 .582 C .168 .559 .15900001 .537 .154 .52400007 C .106000009 .402 .096 .365 .096 .321 C .096 .30400003 .096 .25700004 .135 .22500001 C .16600001 .19900002 .20800002 .194 .235 .194 C .27500005 .194 .31100003 .209 .34400005 .23900001 C .33100004 .18400002 .32000003 .142 .27800004 .09200001 C .25100003 .061000006 .21100001 .027999998 .158 .027999998 C .15100001 .027999998 .104 .027999998 .083000008 .061000006 C .13700001 .067 .13700001 .11500001 .13700001 .116000007 C .13700001 .148 .107999999 .15400002 .098000008 .15400002 C .073 .15400002 .040000004 .134 .040000004 .08800001 C .040000004 .037 .088 0 .15900001 0 C .26000003 0 .38300003 .07800001 .41400004 .20300001 L .50900009 .58100005 Z "/>
</symbol>
<use xlink:href="#font_1_2" transform="matrix(6.9738,0,0,-6.9738,14.166838,118.1005)" fill="#6100ad"/>
<symbol id="font_2_7">
<path d="M .35300002 .31300003 L .632 .31300003 C .646 .31300003 .665 .31300003 .665 .333 C .665 .35300002 .646 .35300002 .632 .35300002 L .35300002 .35300002 L .35300002 .633 C .35300002 .647 .35300002 .666 .33300004 .666 C .31300003 .666 .31300003 .647 .31300003 .633 L .31300003 .35300002 L .033 .35300002 C .019000002 .35300002 0 .35300002 0 .333 C 0 .31300003 .019000002 .31300003 .033 .31300003 L .31300003 .31300003 L .31300003 .033000005 C .31300003 .019000002 .31300003 0 .33300004 0 C .35300002 0 .35300002 .019000002 .35300002 .033000005 L .35300002 .31300003 Z "/>
</symbol>
<symbol id="font_2_a">
<path d="M .205 .64000007 C .205 .66400006 .205 .666 .18200003 .666 C .120000008 .60200008 .032000007 .60200008 0 .60200008 L 0 .57100006 C .020000004 .57100006 .07900001 .57100006 .13100001 .597 L .13100001 .079 C .13100001 .043 .128 .031000002 .038000004 .031000002 L .0060000049 .031000002 L .0060000049 0 C .04100001 .003 .128 .003 .168 .003 C .20800002 .003 .29500003 .003 .33000005 0 L .33000005 .031000002 L .29800005 .031000002 C .20800002 .031000002 .205 .042000005 .205 .079 L .205 .64000007 Z "/>
</symbol>
<use xlink:href="#font_2_5" transform="matrix(9.9626,0,0,-9.9626,21.952836,113.85907)" fill="#6100ad"/>
<use xlink:href="#font_2_7" transform="matrix(9.9626,0,0,-9.9626,32.4712,116.010997)" fill="#6100ad"/>
<use xlink:href="#font_2_a" transform="matrix(9.9626,0,0,-9.9626,40.54888,115.1841)" fill="#6100ad"/>
<symbol id="font_0_4">
<path d="M .106 .053000004 C .106 .082 .08200001 .106000009 .05300001 .106000009 C .024000004 .106000009 0 .082 0 .053000004 C 0 .024 .024000004 0 .05300001 0 C .08200001 0 .106 .024 .106 .053000004 Z "/>
</symbol>
<use xlink:href="#font_0_4" transform="matrix(9.9626,0,0,-9.9626,45.497816,115.1841)" fill="#6100ad"/>
<symbol id="font_2_3">
<path d="M .083000008 .22900002 C .083000008 .39200003 .16500002 .43400003 .218 .43400003 C .227 .43400003 .29 .43300004 .32500003 .397 C .284 .39400003 .278 .36400003 .278 .351 C .278 .32500003 .296 .305 .324 .305 C .35 .305 .37 .32200004 .37 .35200004 C .37 .42000003 .294 .45900003 .21700001 .45900003 C .092 .45900003 0 .351 0 .22700002 C 0 .09900001 .099 0 .215 0 C .349 0 .381 .120000008 .381 .13000001 C .381 .14000002 .37100003 .14000002 .368 .14000002 C .359 .14000002 .35700003 .136 .35500003 .13000001 C .326 .037 .261 .025000003 .224 .025000003 C .171 .025000003 .083000008 .068 .083000008 .22900002 Z "/>
</symbol>
<symbol id="font_2_4">
<path d="M .07800001 .344 L .07800001 .076000008 C .07800001 .031000002 .067 .031000002 0 .031000002 L 0 0 C .035 .001 .08600001 .003 .113000009 .003 C .139 .003 .191 .001 .225 0 L .225 .031000002 C .158 .031000002 .147 .031000002 .147 .076000008 L .147 .26000003 C .147 .36400003 .218 .42000003 .282 .42000003 C .345 .42000003 .356 .36600004 .356 .30900003 L .356 .076000008 C .356 .031000002 .345 .031000002 .278 .031000002 L .278 0 C .31300003 .001 .36400003 .003 .391 .003 C .41700004 .003 .46900005 .001 .503 0 L .503 .031000002 C .43600003 .031000002 .425 .031000002 .425 .076000008 L .425 .26000003 C .425 .36400003 .496 .42000003 .56 .42000003 C .623 .42000003 .634 .36600004 .634 .30900003 L .634 .076000008 C .634 .031000002 .623 .031000002 .556 .031000002 L .556 0 C .591 .001 .642 .003 .669 .003 C .69500008 .003 .74700006 .001 .781 0 L .781 .031000002 C .72900006 .031000002 .70400008 .031000002 .703 .061000006 L .703 .252 C .703 .33800004 .703 .36900003 .67200008 .40500004 C .65800008 .42200003 .625 .44200004 .56700006 .44200004 C .48300005 .44200004 .439 .38200004 .42200003 .344 C .40800003 .43100003 .33400003 .44200004 .289 .44200004 C .216 .44200004 .169 .39900003 .141 .337 L .141 .44200004 L 0 .43100003 L 0 .4 C .07000001 .4 .07800001 .393 .07800001 .344 Z "/>
</symbol>
<symbol id="font_2_8">
<path d="M .38200004 .962 C .38700003 .975 .38700003 .97800007 .38700003 .98 C .38700003 .99100008 .37800003 1 .367 1 C .35300002 1 .34900005 .99 .34600003 .98 L .0050000029 .037999989 C 0 .024999991 0 .021999985 0 .019999996 C 0 .008999988 .009000003 0 .020000004 0 C .034 0 .038000004 .00999999 .041 .019999996 L .38200004 .962 Z "/>
</symbol>
<symbol id="font_2_2">
<path d="M .39600004 .541 C .42200003 .60400006 .47300003 .605 .48900003 .605 L .48900003 .63600006 C .46600003 .63400009 .43700005 .633 .41400004 .633 C .39600004 .633 .34900005 .635 .32700003 .63600006 L .32700003 .605 C .358 .60400006 .374 .587 .374 .56200006 C .374 .55200007 .37300004 .5500001 .36800004 .538 L .26700003 .29200004 L .15600002 .561 C .15200001 .57100006 .15 .57500007 .15 .579 C .15 .605 .187 .605 .206 .605 L .206 .63600006 C .18 .635 .114 .633 .097 .633 C .07 .633 .030000002 .63400009 0 .63600006 L 0 .605 C .048 .605 .067 .605 .081 .57000008 L .231 .20500002 C .22600001 .19200002 .21200001 .15900001 .206 .14600002 C .18400002 .091000009 .15600002 .022 .09200001 .022 C .087000008 .022 .064 .022 .045 .040000008 C .076000008 .044 .08400001 .066 .08400001 .08200001 C .08400001 .10800001 .065000008 .12400001 .042000005 .12400001 C .022 .12400001 0 .11100001 0 .08100001 C 0 .036 .042000005 0 .09200001 0 C .155 0 .19600001 .05700001 .22 .11400001 L .39600004 .541 Z "/>
</symbol>
<symbol id="font_2_1">
<path d="M .13900002 .33200003 L .13900002 .44200004 L 0 .43100003 L 0 .4 C .07000001 .4 .07800001 .393 .07800001 .344 L .07800001 .076000008 C .07800001 .031000002 .067 .031000002 0 .031000002 L 0 0 C .039 .001 .08600001 .003 .11400001 .003 C .15400002 .003 .20100002 .003 .24100003 0 L .24100003 .031000002 L .22000002 .031000002 C .14600002 .031000002 .14400001 .042000005 .14400001 .078 L .14400001 .23200001 C .14400001 .33100004 .18600002 .42000003 .26200003 .42000003 C .26900003 .42000003 .27100004 .42000003 .27300004 .41900004 C .27 .418 .25000004 .40600003 .25000004 .38000003 C .25000004 .35200004 .27100004 .337 .293 .337 C .31100003 .337 .33600004 .349 .33600004 .381 C .33600004 .41300003 .305 .44200004 .26200003 .44200004 C .18900001 .44200004 .15300001 .37500004 .13900002 .33200003 Z "/>
</symbol>
<use xlink:href="#font_2_9" transform="matrix(9.9626,0,0,-9.9626,47.797544,115.403278)" fill="#6100ad"/>
<use xlink:href="#font_2_3" transform="matrix(9.9626,0,0,-9.9626,54.392656,115.293689)" fill="#6100ad"/>
<use xlink:href="#font_2_4" transform="matrix(9.9626,0,0,-9.9626,58.800107,115.1841)" fill="#6100ad"/>
<use xlink:href="#font_2_8" transform="matrix(9.9626,0,0,-9.9626,67.34104,117.67474)" fill="#6100ad"/>
<use xlink:href="#font_2_2" transform="matrix(9.9626,0,0,-9.9626,71.95373,117.22643)" fill="#6100ad"/>
<use xlink:href="#font_2_1" transform="matrix(9.9626,0,0,-9.9626,77.30164,115.1841)" fill="#6100ad"/>
<path transform="matrix(.1,0,0,-.1,0,213.62)" stroke-width="19.9255" stroke-linecap="butt" stroke-miterlimit="10" stroke-linejoin="miter" fill="none" stroke="#6100ad" d="M 2318.13 1227.48 L 2318.13 989.27 "/>
<path transform="matrix(.1,0,0,-.1,0,213.62)" d="M 2318.13 949.902 C 2319.31 954.738 2326 975.988 2333.27 989.27 L 2302.99 989.27 C 2310.27 975.988 2316.95 954.738 2318.13 949.902 Z " fill="#6100ad"/>
<path transform="matrix(.1,0,0,-.1,0,213.62)" stroke-width="17.9326" stroke-linecap="butt" stroke-miterlimit="10" stroke-linejoin="miter" fill="none" stroke="#6100ad" d="M 2318.13 949.902 C 2319.31 954.738 2326 975.988 2333.27 989.27 L 2302.99 989.27 C 2310.27 975.988 2316.95 954.738 2318.13 949.902 Z "/>
<use xlink:href="#font_0_2" transform="matrix(9.9626,0,0,-9.9626,241.23291,103.34058)" fill="#6100ad"/>
<use xlink:href="#font_1_1" transform="matrix(6.9738,0,0,-6.9738,246.98148,104.794879)" fill="#6100ad"/>
<use xlink:href="#font_2_5" transform="matrix(9.9626,0,0,-9.9626,254.98862,101.90597)" fill="#6100ad"/>
<use xlink:href="#font_2_9" transform="matrix(9.9626,0,0,-9.9626,265.33763,103.45017)" fill="#6100ad"/>
<use xlink:href="#font_2_6" transform="matrix(9.9626,0,0,-9.9626,243.53572,109.57715)" fill="#6100ad"/>
<use xlink:href="#font_0_2" transform="matrix(9.9626,0,0,-9.9626,241.2329,115.295688)" fill="#6100ad"/>
<use xlink:href="#font_1_2" transform="matrix(6.9738,0,0,-6.9738,246.97449,118.10289)" fill="#6100ad"/>
<use xlink:href="#font_2_5" transform="matrix(9.9626,0,0,-9.9626,254.76087,113.86107)" fill="#6100ad"/>
<symbol id="font_3_2">
<path d="M .57600006 0 C .59300008 0 .611 0 .611 .019999996 C .611 .040000008 .59300008 .040000008 .57600006 .040000008 L .035000005 .040000008 C .018 .040000008 0 .040000008 0 .019999996 C 0 0 .018 0 .035000005 0 L .57600006 0 Z "/>
</symbol>
<use xlink:href="#font_3_2" transform="matrix(9.9626,0,0,-9.9626,265.54667,112.8947)" fill="#6100ad"/>
<use xlink:href="#font_2_a" transform="matrix(9.9626,0,0,-9.9626,273.35447,115.1861)" fill="#6100ad"/>
<use xlink:href="#font_0_4" transform="matrix(9.9626,0,0,-9.9626,278.3066,115.1861)" fill="#6100ad"/>
<use xlink:href="#font_2_9" transform="matrix(9.9626,0,0,-9.9626,280.60517,115.40527)" fill="#6100ad"/>
<use xlink:href="#font_2_3" transform="matrix(9.9626,0,0,-9.9626,287.20027,115.295688)" fill="#6100ad"/>
<use xlink:href="#font_2_4" transform="matrix(9.9626,0,0,-9.9626,291.60774,115.1861)" fill="#6100ad"/>
<use xlink:href="#font_2_8" transform="matrix(9.9626,0,0,-9.9626,300.14866,117.67674)" fill="#6100ad"/>
<use xlink:href="#font_2_2" transform="matrix(9.9626,0,0,-9.9626,304.76136,117.22843)" fill="#6100ad"/>
<use xlink:href="#font_2_1" transform="matrix(9.9626,0,0,-9.9626,310.10929,115.1861)" fill="#6100ad"/>
<path transform="matrix(.1,0,0,-.1,0,213.62)" stroke-width="19.9255" stroke-linecap="butt" stroke-miterlimit="10" stroke-linejoin="miter" fill="none" stroke="#6100ad" d="M 1666.03 1227.48 L 1666.03 989.27 "/>
<path transform="matrix(.1,0,0,-.1,0,213.62)" d="M 1666.03 949.902 C 1667.21 954.738 1673.89 975.988 1681.17 989.27 L 1650.89 989.27 C 1658.16 975.988 1664.85 954.738 1666.03 949.902 Z " fill="#6100ad"/>
<path transform="matrix(.1,0,0,-.1,0,213.62)" stroke-width="17.9326" stroke-linecap="butt" stroke-miterlimit="10" stroke-linejoin="miter" fill="none" stroke="#6100ad" d="M 1666.03 949.902 C 1667.21 954.738 1673.89 975.988 1681.17 989.27 L 1650.89 989.27 C 1658.16 975.988 1664.85 954.738 1666.03 949.902 Z "/>
<path transform="matrix(.1,0,0,-.1,0,213.62)" stroke-width="19.9255" stroke-linecap="butt" stroke-miterlimit="10" stroke-linejoin="miter" fill="none" stroke="#6100ad" d="M 1552.63 908.594 L 1552.63 1146.8 "/>
<path transform="matrix(.1,0,0,-.1,0,213.62)" d="M 1552.63 1186.17 C 1551.45 1181.33 1544.77 1160.08 1537.49 1146.8 L 1567.77 1146.8 C 1560.5 1160.08 1553.81 1181.33 1552.63 1186.17 Z " fill="#6100ad"/>
<path transform="matrix(.1,0,0,-.1,0,213.62)" stroke-width="17.9326" stroke-linecap="butt" stroke-miterlimit="10" stroke-linejoin="miter" fill="none" stroke="#6100ad" d="M 1552.63 1186.17 C 1551.45 1181.33 1544.77 1160.08 1537.49 1146.8 L 1567.77 1146.8 C 1560.5 1160.08 1553.81 1181.33 1552.63 1186.17 Z "/>
<symbol id="font_0_3">
<path d="M .47600005 .694 C .47600005 .695 .47600005 .705 .46300004 .705 C .44800005 .705 .35300002 .69600006 .33600004 .694 C .32800005 .693 .32200004 .688 .32200004 .675 C .32200004 .663 .33100004 .663 .34600003 .663 C .39400003 .663 .39600004 .656 .39600004 .646 L .39300005 .626 L .33300004 .38900004 C .31500004 .42600004 .286 .45300005 .24100001 .45300005 C .124 .45300005 0 .30600003 0 .16000001 C 0 .06600001 .055000005 0 .133 0 C .153 0 .20300001 .0040000008 .263 .075 C .27100004 .033000005 .30600003 0 .35400004 0 C .38900004 0 .41200004 .023000002 .42800004 .055000005 C .44500003 .091000009 .45800004 .15200001 .45800004 .15400002 C .45800004 .16400002 .44900004 .16400002 .44600005 .16400002 C .43600003 .16400002 .43500004 .16000001 .43200005 .14600002 C .41500003 .081 .397 .022000002 .35600005 .022000002 C .32900004 .022000002 .32600004 .048 .32600004 .068 C .32600004 .092 .32800005 .09900001 .33200003 .116000007 L .47600005 .694 M .26800005 .13000001 C .263 .112 .263 .11000001 .24800001 .093 C .20400001 .038000004 .163 .022000002 .135 .022000002 C .08499999 .022000002 .07100001 .077 .07100001 .116000007 C .07100001 .16600001 .103 .28900004 .126 .335 C .157 .39400003 .202 .43100003 .242 .43100003 C .307 .43100003 .32100005 .34900005 .32100005 .34300003 C .32100005 .337 .31900005 .33100004 .31800003 .32600004 L .26800005 .13000001 Z "/>
</symbol>
<use xlink:href="#font_0_3" transform="matrix(9.9626,0,0,-9.9626,174.64749,103.339588)" fill="#6100ad"/>
<use xlink:href="#font_2_5" transform="matrix(9.9626,0,0,-9.9626,182.76003,101.90497)" fill="#6100ad"/>
<use xlink:href="#font_3_2" transform="matrix(9.9626,0,0,-9.9626,193.54502,100.9386)" fill="#6100ad"/>
<symbol id="font_2_b">
<path d="M .07700001 .07700001 L .18300002 .18 C .33900003 .31800003 .39900003 .372 .39900003 .47200004 C .39900003 .586 .30900003 .666 .18700002 .666 C .074 .666 0 .574 0 .485 C 0 .42900003 .05 .42900003 .053000008 .42900003 C .07000001 .42900003 .105000007 .441 .105000007 .48200003 C .105000007 .508 .08700001 .53400006 .052000006 .53400006 C .044000005 .53400006 .042000008 .53400006 .039 .53300008 C .062000004 .59800007 .11600001 .63500007 .17400001 .63500007 C .26500003 .63500007 .308 .554 .308 .47200004 C .308 .39200003 .25800003 .31300003 .20300003 .25100003 L .011000004 .037 C 0 .026 0 .024 0 0 L .37100003 0 L .39900003 .17400001 L .374 .17400001 C .36900003 .14400001 .36200003 .1 .352 .085 C .345 .07700001 .279 .07700001 .257 .07700001 L .07700001 .07700001 Z "/>
</symbol>
<use xlink:href="#font_2_b" transform="matrix(9.9626,0,0,-9.9626,200.96508,103.229999)" fill="#6100ad"/>
<use xlink:href="#font_0_4" transform="matrix(9.9626,0,0,-9.9626,206.30498,103.229999)" fill="#6100ad"/>
<use xlink:href="#font_2_9" transform="matrix(9.9626,0,0,-9.9626,208.6047,103.44917)" fill="#6100ad"/>
<use xlink:href="#font_2_4" transform="matrix(9.9626,0,0,-9.9626,213.51627,103.229999)" fill="#6100ad"/>
<symbol id="font_0_1">
<path d="M .18300002 .411 L .277 .411 C .29700003 .411 .307 .411 .307 .43100003 C .307 .44200004 .29700003 .44200004 .279 .44200004 L .19100002 .44200004 C .227 .584 .23200003 .60400006 .23200003 .61 C .23200003 .62700006 .22000002 .637 .20300001 .637 C .2 .637 .172 .636 .163 .601 L .124 .44200004 L .030000002 .44200004 C .009999998 .44200004 0 .44200004 0 .42300005 C 0 .411 .007999999 .411 .028 .411 L .11600001 .411 C .044 .127 .04 .11000001 .04 .092 C .04 .038000004 .078 0 .132 0 C .234 0 .291 .14600002 .291 .15400002 C .291 .16400002 .28300003 .16400002 .279 .16400002 C .27 .16400002 .26900003 .16100002 .264 .15000002 C .22100002 .046 .16800002 .022000002 .134 .022000002 C .113000009 .022000002 .103 .035 .103 .068 C .103 .092 .105000007 .09900001 .109 .116000007 L .18300002 .411 Z "/>
</symbol>
<use xlink:href="#font_0_1" transform="matrix(9.9626,0,0,-9.9626,174.4781,115.29428)" fill="#6100ad"/>
<symbol id="font_3_1">
<path d="M .591 .46100004 C .605 .467 .611 .47400005 .611 .48300005 C .611 .49300004 .60700008 .499 .591 .50600007 L .04 .76600006 C .026 .77300009 .022 .77300009 .020000004 .77300009 C .008000001 .77300009 0 .76400008 0 .7530001 C 0 .74100008 .008000001 .73600009 .019000002 .73100009 L .544 .48400004 L .020999998 .23700002 C .001000002 .22800002 0 .22000002 0 .21400002 C 0 .20300001 .009000003 .194 .020000004 .194 C .023000002 .194 .024999999 .194 .038000004 .201 L .591 .46100004 M .57600006 0 C .59300008 0 .611 0 .611 .020000004 C .611 .040000008 .59000006 .040000008 .57500007 .040000008 L .036 .040000008 C .020999998 .040000008 0 .040000008 0 .020000004 C 0 0 .018 0 .035000005 0 L .57600006 0 Z "/>
</symbol>
<use xlink:href="#font_3_1" transform="matrix(9.9626,0,0,-9.9626,181.44109,116.54957)" fill="#6100ad"/>
<use xlink:href="#font_2_a" transform="matrix(9.9626,0,0,-9.9626,192.01688,115.18469)" fill="#6100ad"/>
<use xlink:href="#font_2_9" transform="matrix(9.9626,0,0,-9.9626,196.50003,115.40387)" fill="#6100ad"/>
<use xlink:href="#font_2_9" transform="matrix(9.9626,0,0,-9.9626,201.48133,115.40387)" fill="#6100ad"/>
<use xlink:href="#font_2_2" transform="matrix(9.9626,0,0,-9.9626,206.26337,117.22703)" fill="#6100ad"/>
<use xlink:href="#font_2_1" transform="matrix(9.9626,0,0,-9.9626,211.61128,115.18469)" fill="#6100ad"/>
</g>
</svg>
