<svg xmlns="http://www.w3.org/2000/svg" xmlns:xlink="http://www.w3.org/1999/xlink" version="1.1" width="468" height="288" viewBox="0 0 468 288">
<defs>
<clipPath id="clip_1">
<path transform="matrix(1,0,0,-1,0,288)" d="M47.378126 41.14375H457.19999V277.19999H47.378126Z"/>
</clipPath>
<g id="font_2_50">
<path transform="matrix(.001,0,0,.001,0,0)" d="M192 83H536V0H73V83C110 121 161 173 226 239 290 304 331 346 348 365 380 400 402 430 414 455 426 479 433 504 433 528 433 566 419 598 392 622 365 646 330 659 286 659 255 659 222 653 188 643 154 632 117 616 78 594V694C118 710 155 722 189 730 223 738 255 742 284 742 359 742 419 723 464 685 509 647 532 597 532 534 532 504 526 475 515 449 504 422 484 390 454 354 446 344 420 317 376 272 332 227 271 164 192 83Z"/>
</g>
<g id="font_2_48">
<path transform="matrix(.001,0,0,.001,0,0)" d="M318 664C267 664 229 639 203 589 177 539 165 464 165 364 165 264 177 189 203 139 229 89 267 64 318 64 369 64 407 89 433 139 458 189 471 264 471 364 471 464 458 539 433 589 407 639 369 664 318 664ZM318 742C399 742 461 709 505 645 548 580 570 486 570 364 570 241 548 147 505 83 461 19 399-13 317-13 235-13 173 19 130 83 87 147 66 241 66 364 66 486 87 580 130 645 173 709 236 742 318 742Z"/>
</g>
<clipPath id="clip_3">
<path transform="matrix(.01,0,0,-.01,70.98307,261.45)" d="M-1021-463H1794V1233H-1021Z"/>
</clipPath>
<g id="font_2_49">
<path transform="matrix(.001,0,0,.001,0,0)" d="M124 83H285V639L110 604V694L284 729H383V83H544V0H124V83Z"/>
</g>
<clipPath id="clip_4">
<path transform="matrix(.01,0,0,-.01,139.28672,261.45)" d="M-1021-463H1794V1233H-1021Z"/>
</clipPath>
<g id="font_2_51">
<path transform="matrix(.001,0,0,.001,0,0)" d="M406 393C453 383 490 362 516 330 542 298 556 258 556 212 556 140 531 84 482 45 432 6 362-13 271-13 240-13 208-10 176-4 144 1 110 10 76 22V117C103 101 133 89 166 81 198 73 232 69 268 69 330 69 377 81 409 105 441 129 458 165 458 212 458 254 443 288 413 312 383 336 341 349 287 349H202V430H291C339 430 376 439 402 459 428 478 441 506 441 543 441 580 427 609 401 629 374 649 336 659 287 659 260 659 231 656 200 650 169 644 135 635 98 623V711C135 721 170 729 203 734 235 739 266 742 296 742 370 742 429 725 473 691 517 657 539 611 539 553 539 513 527 479 504 451 481 423 448 403 406 393Z"/>
</g>
<g id="font_2_68">
<path transform="matrix(.001,0,0,.001,0,0)" d="M197 648V81H316C416 81 490 103 537 149 583 195 607 267 607 365 607 463 583 534 537 580 490 625 416 648 316 648H197ZM98 729H301C442 729 546 699 612 641 678 582 711 490 711 365 711 239 677 147 611 88 545 29 441 0 301 0H98V729Z"/>
</g>
<g id="font_2_105">
<path transform="matrix(.001,0,0,.001,0,0)" d="M94 547H184V0H94V547ZM94 760H184V646H94V760Z"/>
</g>
<g id="font_2_115">
<path transform="matrix(.001,0,0,.001,0,0)" d="M443 531V446C417 458 391 468 364 475 336 481 308 485 279 485 234 485 200 478 178 464 156 450 145 430 145 403 145 382 153 366 169 354 185 342 217 330 265 320L296 313C360 299 405 279 432 255 458 230 472 195 472 151 472 100 452 60 412 31 372 1 316-13 246-13 216-13 186-10 154-5 122 0 89 8 54 20V113C87 95 120 82 152 74 184 65 216 61 248 61 290 61 323 68 346 82 368 96 380 117 380 144 380 168 371 187 355 200 339 213 303 226 247 238L216 245C160 257 119 275 95 299 70 323 58 356 58 399 58 450 76 490 112 518 148 546 200 560 268 560 301 560 332 557 362 552 391 547 418 540 443 531Z"/>
</g>
<g id="font_2_116">
<path transform="matrix(.001,0,0,.001,0,0)" d="M183 702V547H368V477H183V180C183 135 189 106 201 94 213 81 238 75 276 75H368V0H276C206 0 158 13 132 39 106 65 93 112 93 180V477H27V547H93V702H183Z"/>
</g>
<g id="font_2_97">
<path transform="matrix(.001,0,0,.001,0,0)" d="M343 275C270 275 220 266 192 250 164 233 150 205 150 165 150 133 160 107 181 89 202 70 231 61 267 61 317 61 357 78 387 114 417 149 432 196 432 255V275H343ZM522 312V0H432V83C411 49 385 25 355 10 325-5 287-13 243-13 187-13 142 2 109 33 76 64 60 106 60 159 60 220 80 266 122 298 163 329 224 345 306 345H432V354C432 395 418 427 391 450 364 472 326 484 277 484 245 484 215 480 185 472 155 464 127 453 100 439V522C132 534 164 544 195 550 226 556 256 560 286 560 365 560 424 539 463 498 502 457 522 395 522 312Z"/>
</g>
<g id="font_2_110">
<path transform="matrix(.001,0,0,.001,0,0)" d="M549 330V0H459V327C459 379 448 417 428 443 408 469 378 482 338 482 289 482 251 466 223 435 195 404 181 362 181 309V0H91V547H181V462C202 494 227 519 257 535 286 551 320 560 358 560 420 560 468 540 500 501 532 462 549 405 549 330Z"/>
</g>
<g id="font_2_99">
<path transform="matrix(.001,0,0,.001,0,0)" d="M488 526V442C462 456 437 466 411 473 385 480 360 484 334 484 276 484 230 465 198 428 166 391 150 339 150 273 150 206 166 154 198 117 230 80 276 62 334 62 360 62 385 65 411 72 437 79 462 90 488 104V21C462 9 436 0 410-5 383-10 354-13 324-13 242-13 176 12 128 64 79 115 55 185 55 273 55 362 79 432 128 483 177 534 244 560 330 560 358 560 385 557 411 551 437 545 463 537 488 526Z"/>
</g>
<g id="font_2_101">
<path transform="matrix(.001,0,0,.001,0,0)" d="M562 296V252H149C153 190 171 142 205 110 238 78 284 62 344 62 378 62 412 66 444 74 476 82 509 95 541 113V28C509 14 476 3 442-3 408-9 373-13 339-13 251-13 182 12 131 62 80 112 55 181 55 268 55 357 79 428 127 481 175 533 241 560 323 560 397 560 455 536 498 489 540 441 562 377 562 296ZM472 322C471 371 457 410 431 440 404 469 368 484 324 484 274 484 234 469 204 441 174 413 156 373 152 322H472Z"/>
</g>
<g id="font_2_32">
</g>
<g id="font_2_108">
<path transform="matrix(.001,0,0,.001,0,0)" d="M94 760H184V0H94V760Z"/>
</g>
<g id="font_2_111">
<path transform="matrix(.001,0,0,.001,0,0)" d="M306 484C258 484 220 465 192 427 164 389 150 338 150 273 150 207 163 156 191 118 219 80 257 62 306 62 354 62 392 80 420 118 448 156 462 207 462 273 462 337 448 389 420 427 392 465 354 484 306 484ZM306 560C384 560 445 534 490 484 534 433 557 363 557 273 557 183 534 113 490 63 445 12 384-13 306-13 227-13 165 12 121 63 77 113 55 183 55 273 55 363 77 433 121 484 165 534 227 560 306 560Z"/>
</g>
<g id="font_2_103">
<path transform="matrix(.001,0,0,.001,0,0)" d="M454 280C454 344 440 395 414 431 387 467 349 485 301 485 253 485 215 467 188 431 161 395 148 344 148 280 148 215 161 165 188 129 215 93 253 75 301 75 349 75 387 93 414 129 440 165 454 215 454 280ZM544 68C544-24 523-93 482-139 440-184 377-207 292-207 260-207 231-204 203-200 175-195 147-188 121-178V-91C147-105 173-115 199-122 225-129 251-133 278-133 336-133 380-117 410-87 439-56 454-10 454 52V96C435 64 411 40 382 24 353 8 319 0 279 0 211 0 157 25 116 76 75 127 55 195 55 280 55 364 75 432 116 483 157 534 211 560 279 560 319 560 353 552 382 536 411 520 435 496 454 464V547H544V68Z"/>
</g>
<g id="font_2_114">
<path transform="matrix(.001,0,0,.001,0,0)" d="M411 463C401 469 390 473 378 476 366 478 353 480 339 480 288 480 249 463 222 430 194 397 181 350 181 288V0H91V547H181V462C199 495 224 520 254 536 284 552 321 560 365 560 371 560 378 559 386 559 393 558 401 557 411 555V463Z"/>
</g>
<g id="font_2_107">
<path transform="matrix(.001,0,0,.001,0,0)" d="M91 760H181V311L449 547H564L274 291 576 0H459L181 267V0H91V760Z"/>
</g>
<g id="font_2_44">
<path transform="matrix(.001,0,0,.001,0,0)" d="M117 124H220V40L140-115H77L117 40V124Z"/>
</g>
<g id="font_2_109">
<path transform="matrix(.001,0,0,.001,0,0)" d="M520 442C542 482 569 511 600 531 631 550 668 560 711 560 767 560 811 540 842 500 873 460 889 403 889 330V0H799V327C799 379 789 418 771 444 752 469 724 482 686 482 639 482 602 466 575 435 548 404 535 362 535 309V0H445V327C445 379 435 418 417 444 398 469 369 482 331 482 285 482 248 466 221 435 194 404 181 362 181 309V0H91V547H181V462C201 495 226 520 255 536 283 552 317 560 357 560 397 560 430 550 458 530 486 510 506 480 520 442Z"/>
</g>
<g id="font_2_46">
<path transform="matrix(.001,0,0,.001,0,0)" d="M107 124H210V0H107V124Z"/>
</g>
<g id="font_2_52">
<path transform="matrix(.001,0,0,.001,0,0)" d="M378 643 129 254H378V643ZM352 729H476V254H580V172H476V0H378V172H49V267L352 729Z"/>
</g>
<g id="font_2_54">
<path transform="matrix(.001,0,0,.001,0,0)" d="M330 404C286 404 251 388 225 358 199 328 186 286 186 234 186 181 199 139 225 109 251 79 286 64 330 64 374 64 409 79 435 109 461 139 474 181 474 234 474 286 461 328 435 358 409 388 374 404 330 404ZM526 713V623C501 635 476 644 451 650 425 656 400 659 376 659 310 659 260 637 226 593 192 549 172 482 168 394 187 422 211 444 240 459 269 474 301 482 336 482 409 482 467 459 509 415 551 371 573 310 573 234 573 159 550 99 506 54 462 9 403-13 330-13 246-13 181 19 137 83 92 147 70 241 70 364 70 479 97 571 152 639 206 707 280 742 372 742 396 742 421 739 447 735 472 730 498 723 526 713Z"/>
</g>
<g id="font_2_56">
<path transform="matrix(.001,0,0,.001,0,0)" d="M318 346C271 346 234 333 207 308 180 283 167 249 167 205 167 161 180 126 207 101 234 76 271 64 318 64 364 64 401 76 428 102 455 127 469 161 469 205 469 249 455 283 429 308 402 333 365 346 318 346ZM219 388C177 398 144 418 120 447 96 476 85 511 85 553 85 611 105 657 147 691 188 725 245 742 318 742 390 742 447 725 489 691 530 657 551 611 551 553 551 511 539 476 515 447 491 418 459 398 417 388 464 377 501 355 528 323 554 291 568 251 568 205 568 134 546 80 503 43 459 5 397-13 317-13 237-13 175 5 132 43 89 80 68 134 68 205 68 251 81 291 108 323 134 355 171 377 219 388ZM183 544C183 506 194 476 218 455 242 434 275 424 318 424 360 424 393 434 417 455 441 476 453 506 453 544 453 582 441 611 417 632 393 653 360 664 318 664 275 664 242 653 218 632 194 611 183 582 183 544Z"/>
</g>
<g id="font_2_76">
<path transform="matrix(.001,0,0,.001,0,0)" d="M98 729H197V83H552V0H98V729Z"/>
</g>
<g id="font_2_102">
<path transform="matrix(.001,0,0,.001,0,0)" d="M371 760V685H285C253 685 230 678 218 665 205 652 199 629 199 595V547H347V477H199V0H109V477H23V547H109V585C109 645 123 690 151 718 179 746 224 760 286 760H371Z"/>
</g>
<g id="font_2_45">
<path transform="matrix(.001,0,0,.001,0,0)" d="M49 314H312V234H49V314Z"/>
</g>
<g id="font_2_112">
<path transform="matrix(.001,0,0,.001,0,0)" d="M181 82V-207H91V547H181V464C199 496 223 520 252 536 281 552 316 560 356 560 422 560 476 533 518 481 559 428 580 359 580 273 580 187 559 117 518 65 476 13 422-13 356-13 316-13 281-5 252 10 223 25 199 49 181 82ZM487 273C487 339 473 390 446 428 418 466 381 485 334 485 286 485 249 466 222 428 194 390 181 339 181 273 181 207 194 155 222 117 249 79 286 61 334 61 381 61 418 79 446 117 473 155 487 207 487 273Z"/>
</g>
<clipPath id="clip_5">
<path transform="matrix(1,0,0,-1,0,288)" d="M47.378126 41.14375H457.19999V277.19999H47.378126Z"/>
</clipPath>
<clipPath id="clip_6">
<path transform="matrix(1,0,0,-1,0,288)" d="M47.378126 41.14375H457.19999V277.19999H47.378126Z"/>
</clipPath>
<clipPath id="clip_7">
<path transform="matrix(1,0,0,-1,0,288)" d="M47.378126 41.14375H457.19999V277.19999H47.378126Z"/>
</clipPath>
<clipPath id="clip_8">
<path transform="matrix(1,0,0,-1,0,288)" d="M47.378126 41.14375H457.19999V277.19999H47.378126Z"/>
</clipPath>
<clipPath id="clip_9">
<path transform="matrix(1,0,0,-1,0,288)" d="M47.378126 41.14375H457.19999V277.19999H47.378126Z"/>
</clipPath>
<g id="font_2_69">
<path transform="matrix(.001,0,0,.001,0,0)" d="M98 729H559V646H197V430H544V347H197V83H568V0H98V729Z"/>
</g>
<g id="font_2_120">
<path transform="matrix(.001,0,0,.001,0,0)" d="M549 547 351 281 559 0H453L294 215 135 0H29L241 286 47 547H153L298 352 443 547H549Z"/>
</g>
<g id="font_2_80">
<path transform="matrix(.001,0,0,.001,0,0)" d="M197 648V374H321C367 374 402 385 427 409 452 433 465 467 465 511 465 555 452 588 427 612 402 636 367 648 321 648H197ZM98 729H321C402 729 464 710 506 673 548 636 569 582 569 511 569 439 548 384 506 348 464 311 402 293 321 293H197V0H98V729Z"/>
</g>
<g id="font_2_98">
<path transform="matrix(.001,0,0,.001,0,0)" d="M487 273C487 339 473 390 446 428 418 466 381 485 334 485 286 485 249 466 222 428 194 390 181 339 181 273 181 207 194 155 222 117 249 79 286 61 334 61 381 61 418 79 446 117 473 155 487 207 487 273ZM181 464C199 496 223 520 252 536 281 552 316 560 356 560 422 560 476 533 518 481 559 428 580 359 580 273 580 187 559 117 518 65 476 13 422-13 356-13 316-13 281-5 252 10 223 25 199 49 181 82V0H91V760H181V464Z"/>
</g>
<g id="font_2_100">
<path transform="matrix(.001,0,0,.001,0,0)" d="M454 464V760H544V0H454V82C435 49 411 25 382 10 353-5 319-13 279-13 213-13 159 13 117 65 75 117 55 187 55 273 55 359 75 428 117 481 159 533 213 560 279 560 319 560 353 552 382 536 411 520 435 496 454 464ZM148 273C148 207 161 155 188 117 215 79 252 61 300 61 348 61 385 79 413 117 440 155 454 207 454 273 454 339 440 390 413 428 385 466 348 485 300 485 252 485 215 466 188 428 161 390 148 339 148 273Z"/>
</g>
<g id="font_2_77">
<path transform="matrix(.001,0,0,.001,0,0)" d="M98 729H245L431 233 618 729H765V0H669V640L481 140H382L194 640V0H98V729Z"/>
</g>
<g id="font_2_177">
<path transform="matrix(.001,0,0,.001,0,0)" d="M460 627V438H732V355H460V166H378V355H106V438H378V627H460ZM106 83H732V0H106V83Z"/>
</g>
<g id="font_2_118">
<path transform="matrix(.001,0,0,.001,0,0)" d="M30 547H125L296 88 467 547H562L357 0H235L30 547Z"/>
</g>
</defs>
<path transform="matrix(1,0,0,-1,0,288)" d="M0 0H468V288H0Z" fill="#ffffff"/>
<path transform="matrix(1,0,0,-1,0,288)" d="M47.378126 41.14375H457.2V277.2H47.378126Z" fill="#ffffff"/>
<g clip-path="url(#clip_1)">
<path transform="matrix(1,0,0,-1,0,288)" d="M-294.1401 63.197359V63.197359H-266.6365-239.13289-212.2347-185.33652-158.43831-131.54012-104.64189-77.743679-50.84544-23.947207 2.951041 29.849289L56.74755 58.097719 83.64581 75.4567 110.54408 221.51413 137.44235 186.20761 164.34066 121.956218 191.23894 153.81565 218.13724 213.33438 245.03554 191.0842 271.93385 206.69557 298.83213 205.73824 325.7304 163.19345 352.62867 75.30163 379.52693 61.51596 406.4252 63.197359H433.32344 460.22169 487.11994 514.0181 540.9164 567.8146 594.71279 621.611 648.50918 675.40737 702.91098 730.4146 702.91098 675.40737 648.50918 621.611 594.71279 567.8146 540.9164 514.0181 487.11994 460.22169 433.32344 406.4252L379.52693 73.24172 352.62867 88.28655 325.7304 189.77663 298.83213 235.37162 271.93385 216.65814 245.03554 211.74257 218.13724 241.40724 191.23894 174.11525 164.34066 154.28569 137.44235 219.88004 110.54408 240.55875 83.64581 82.77517 56.74755 64.08466 29.849289 63.197359H2.951041-23.947207-50.84544-77.743679-104.64189-131.54012-158.43831-185.33652-212.2347-239.13289-266.6365-294.1401Z" fill="#ffa500" fill-opacity=".5"/>
</g>
<path transform="matrix(1,0,0,-1,0,288)" d="M81.529949 41.14375V37.64375"/>
<path transform="matrix(1,0,0,-1,0,288)" stroke-width=".8" stroke-linecap="butt" stroke-linejoin="round" fill="none" stroke="#000000" d="M81.529949 41.14375V37.64375"/>
<use data-text="2" xlink:href="#font_2_50" transform="matrix(10,0,0,-10,79.36198,261.45)"/>
<use data-text="0" xlink:href="#font_2_48" transform="matrix(10,0,0,-10,85.72198,261.45)"/>
<g clip-path="url(#clip_3)">
<path transform="matrix(.01,0,0,-.01,70.98307,261.45)" d="M106 355H732V272H106V355Z"/>
</g>
<path transform="matrix(1,0,0,-1,0,288)" d="M149.83359 41.14375V37.64375"/>
<path transform="matrix(1,0,0,-1,0,288)" stroke-width=".8" stroke-linecap="butt" stroke-linejoin="round" fill="none" stroke="#000000" d="M149.83359 41.14375V37.64375"/>
<use data-text="1" xlink:href="#font_2_49" transform="matrix(10,0,0,-10,147.66562,261.45)"/>
<use data-text="0" xlink:href="#font_2_48" transform="matrix(10,0,0,-10,154.02562,261.45)"/>
<g clip-path="url(#clip_4)">
<path transform="matrix(.01,0,0,-.01,139.28672,261.45)" d="M106 355H732V272H106V355Z"/>
</g>
<path transform="matrix(1,0,0,-1,0,288)" d="M218.13724 41.14375V37.64375"/>
<path transform="matrix(1,0,0,-1,0,288)" stroke-width=".8" stroke-linecap="butt" stroke-linejoin="round" fill="none" stroke="#000000" d="M218.13724 41.14375V37.64375"/>
<use data-text="0" xlink:href="#font_2_48" transform="matrix(10,0,0,-10,214.95755,261.45)"/>
<path transform="matrix(1,0,0,-1,0,288)" d="M286.4409 41.14375V37.64375"/>
<path transform="matrix(1,0,0,-1,0,288)" stroke-width=".8" stroke-linecap="butt" stroke-linejoin="round" fill="none" stroke="#000000" d="M286.4409 41.14375V37.64375"/>
<use data-text="1" xlink:href="#font_2_49" transform="matrix(10,0,0,-10,280.0815,261.45)"/>
<use data-text="0" xlink:href="#font_2_48" transform="matrix(10,0,0,-10,286.44154,261.45)"/>
<path transform="matrix(1,0,0,-1,0,288)" d="M354.74455 41.14375V37.64375"/>
<path transform="matrix(1,0,0,-1,0,288)" stroke-width=".8" stroke-linecap="butt" stroke-linejoin="round" fill="none" stroke="#000000" d="M354.74455 41.14375V37.64375"/>
<use data-text="2" xlink:href="#font_2_50" transform="matrix(10,0,0,-10,348.38517,261.45)"/>
<use data-text="0" xlink:href="#font_2_48" transform="matrix(10,0,0,-10,354.74519,261.45)"/>
<path transform="matrix(1,0,0,-1,0,288)" d="M423.0482 41.14375V37.64375"/>
<path transform="matrix(1,0,0,-1,0,288)" stroke-width=".8" stroke-linecap="butt" stroke-linejoin="round" fill="none" stroke="#000000" d="M423.0482 41.14375V37.64375"/>
<use data-text="3" xlink:href="#font_2_51" transform="matrix(10,0,0,-10,416.6888,261.45)"/>
<use data-text="0" xlink:href="#font_2_48" transform="matrix(10,0,0,-10,423.04884,261.45)"/>
<use data-text="D" xlink:href="#font_2_68" transform="matrix(10,0,0,-10,188.60157,275.1219)"/>
<use data-text="i" xlink:href="#font_2_105" transform="matrix(10,0,0,-10,196.30156,275.1219)"/>
<use data-text="s" xlink:href="#font_2_115" transform="matrix(10,0,0,-10,199.08156,275.1219)"/>
<use data-text="t" xlink:href="#font_2_116" transform="matrix(10,0,0,-10,204.29157,275.1219)"/>
<use data-text="a" xlink:href="#font_2_97" transform="matrix(10,0,0,-10,208.21157,275.1219)"/>
<use data-text="n" xlink:href="#font_2_110" transform="matrix(10,0,0,-10,214.34157,275.1219)"/>
<use data-text="c" xlink:href="#font_2_99" transform="matrix(10,0,0,-10,220.68157,275.1219)"/>
<use data-text="e" xlink:href="#font_2_101" transform="matrix(10,0,0,-10,226.18157,275.1219)"/>
<use data-text=" " xlink:href="#font_2_32" transform="matrix(10,0,0,-10,232.33158,275.1219)"/>
<use data-text="a" xlink:href="#font_2_97" transform="matrix(10,0,0,-10,235.51157,275.1219)"/>
<use data-text="l" xlink:href="#font_2_108" transform="matrix(10,0,0,-10,241.64157,275.1219)"/>
<use data-text="o" xlink:href="#font_2_111" transform="matrix(10,0,0,-10,244.42157,275.1219)"/>
<use data-text="n" xlink:href="#font_2_110" transform="matrix(10,0,0,-10,250.54157,275.1219)"/>
<use data-text="g" xlink:href="#font_2_103" transform="matrix(10,0,0,-10,256.88157,275.1219)"/>
<use data-text=" " xlink:href="#font_2_32" transform="matrix(10,0,0,-10,263.23158,275.1219)"/>
<use data-text="s" xlink:href="#font_2_115" transform="matrix(10,0,0,-10,266.41157,275.1219)"/>
<use data-text="t" xlink:href="#font_2_116" transform="matrix(10,0,0,-10,271.62156,275.1219)"/>
<use data-text="r" xlink:href="#font_2_114" transform="matrix(10,0,0,-10,275.54158,275.1219)"/>
<use data-text="i" xlink:href="#font_2_105" transform="matrix(10,0,0,-10,279.65156,275.1219)"/>
<use data-text="k" xlink:href="#font_2_107" transform="matrix(10,0,0,-10,282.43156,275.1219)"/>
<use data-text="e" xlink:href="#font_2_101" transform="matrix(10,0,0,-10,287.8778,275.1219)"/>
<use data-text="," xlink:href="#font_2_44" transform="matrix(10,0,0,-10,294.0278,275.1219)"/>
<use data-text=" " xlink:href="#font_2_32" transform="matrix(10,0,0,-10,297.20783,275.1219)"/>
<use data-text="k" xlink:href="#font_2_107" transform="matrix(10,0,0,-10,300.38783,275.1219)"/>
<use data-text="m" xlink:href="#font_2_109" transform="matrix(10,0,0,-10,306.1778,275.1219)"/>
<path transform="matrix(1,0,0,-1,0,288)" d="M47.378126 63.197359H43.878126"/>
<path transform="matrix(1,0,0,-1,0,288)" stroke-width=".8" stroke-linecap="butt" stroke-linejoin="round" fill="none" stroke="#000000" d="M47.378126 63.197359H43.878126"/>
<use data-text="0" xlink:href="#font_2_48" transform="matrix(10,0,0,-10,24.471875,228.59952)"/>
<use data-text="." xlink:href="#font_2_46" transform="matrix(10,0,0,-10,30.831875,228.59952)"/>
<use data-text="0" xlink:href="#font_2_48" transform="matrix(10,0,0,-10,34.011877,228.59952)"/>
<path transform="matrix(1,0,0,-1,0,288)" d="M47.378126 109.55376H43.878126"/>
<path transform="matrix(1,0,0,-1,0,288)" stroke-width=".8" stroke-linecap="butt" stroke-linejoin="round" fill="none" stroke="#000000" d="M47.378126 109.55376H43.878126"/>
<use data-text="0" xlink:href="#font_2_48" transform="matrix(10,0,0,-10,24.471875,182.24312)"/>
<use data-text="." xlink:href="#font_2_46" transform="matrix(10,0,0,-10,30.831875,182.24312)"/>
<use data-text="2" xlink:href="#font_2_50" transform="matrix(10,0,0,-10,34.011877,182.24312)"/>
<path transform="matrix(1,0,0,-1,0,288)" d="M47.378126 155.91016H43.878126"/>
<path transform="matrix(1,0,0,-1,0,288)" stroke-width=".8" stroke-linecap="butt" stroke-linejoin="round" fill="none" stroke="#000000" d="M47.378126 155.91016H43.878126"/>
<use data-text="0" xlink:href="#font_2_48" transform="matrix(10,0,0,-10,24.471875,135.88672)"/>
<use data-text="." xlink:href="#font_2_46" transform="matrix(10,0,0,-10,30.831875,135.88672)"/>
<use data-text="4" xlink:href="#font_2_52" transform="matrix(10,0,0,-10,34.011877,135.88672)"/>
<path transform="matrix(1,0,0,-1,0,288)" d="M47.378126 202.26656H43.878126"/>
<path transform="matrix(1,0,0,-1,0,288)" stroke-width=".8" stroke-linecap="butt" stroke-linejoin="round" fill="none" stroke="#000000" d="M47.378126 202.26656H43.878126"/>
<use data-text="0" xlink:href="#font_2_48" transform="matrix(10,0,0,-10,24.471875,89.53032)"/>
<use data-text="." xlink:href="#font_2_46" transform="matrix(10,0,0,-10,30.831875,89.53032)"/>
<use data-text="6" xlink:href="#font_2_54" transform="matrix(10,0,0,-10,34.011877,89.53032)"/>
<path transform="matrix(1,0,0,-1,0,288)" d="M47.378126 248.62296H43.878126"/>
<path transform="matrix(1,0,0,-1,0,288)" stroke-width=".8" stroke-linecap="butt" stroke-linejoin="round" fill="none" stroke="#000000" d="M47.378126 248.62296H43.878126"/>
<use data-text="0" xlink:href="#font_2_48" transform="matrix(10,0,0,-10,24.471875,43.17392)"/>
<use data-text="." xlink:href="#font_2_46" transform="matrix(10,0,0,-10,30.831875,43.17392)"/>
<use data-text="8" xlink:href="#font_2_56" transform="matrix(10,0,0,-10,34.011877,43.17392)"/>
<use data-text="L" xlink:href="#font_2_76" transform="matrix(0,-10,-10,-0,18.39375,174.3125)"/>
<use data-text="e" xlink:href="#font_2_101" transform="matrix(0,-10,-10,-0,18.39375,168.91437)"/>
<use data-text="f" xlink:href="#font_2_102" transform="matrix(0,-10,-10,-0,18.39375,162.76438)"/>
<use data-text="t" xlink:href="#font_2_116" transform="matrix(0,-10,-10,-0,18.39375,159.41625)"/>
<use data-text="-" xlink:href="#font_2_45" transform="matrix(0,-10,-10,-0,18.39375,155.49625)"/>
<use data-text="l" xlink:href="#font_2_108" transform="matrix(0,-10,-10,-0,18.39375,151.88625)"/>
<use data-text="a" xlink:href="#font_2_97" transform="matrix(0,-10,-10,-0,18.39375,149.10625)"/>
<use data-text="t" xlink:href="#font_2_116" transform="matrix(0,-10,-10,-0,18.39375,142.97624)"/>
<use data-text="e" xlink:href="#font_2_101" transform="matrix(0,-10,-10,-0,18.39375,139.05625)"/>
<use data-text="r" xlink:href="#font_2_114" transform="matrix(0,-10,-10,-0,18.39375,132.90625)"/>
<use data-text="a" xlink:href="#font_2_97" transform="matrix(0,-10,-10,-0,18.39375,128.79624)"/>
<use data-text="l" xlink:href="#font_2_108" transform="matrix(0,-10,-10,-0,18.39375,122.666248)"/>
<use data-text=" " xlink:href="#font_2_32" transform="matrix(0,-10,-10,-0,18.39375,119.886249)"/>
<use data-text="s" xlink:href="#font_2_115" transform="matrix(0,-10,-10,-0,18.39375,116.70624)"/>
<use data-text="l" xlink:href="#font_2_108" transform="matrix(0,-10,-10,-0,18.39375,111.49625)"/>
<use data-text="i" xlink:href="#font_2_105" transform="matrix(0,-10,-10,-0,18.39375,108.71624)"/>
<use data-text="p" xlink:href="#font_2_112" transform="matrix(0,-10,-10,-0,18.39375,105.93624)"/>
<use data-text="," xlink:href="#font_2_44" transform="matrix(0,-10,-10,-0,18.39375,99.58624)"/>
<use data-text=" " xlink:href="#font_2_32" transform="matrix(0,-10,-10,-0,18.39375,96.40624)"/>
<use data-text="m" xlink:href="#font_2_109" transform="matrix(0,-10,-10,-0,18.39375,93.22624)"/>
<g clip-path="url(#clip_5)">
<path transform="matrix(1,0,0,-1,0,288)" stroke-width="2" stroke-linecap="square" stroke-linejoin="round" fill="none" stroke="#929292" d="M81.529949 63.197359H82.89602L83.579059 63.660924 84.26209 68.52834 85.62817 81.27635 86.99424 95.646839 88.36031 107.93128 89.04335 112.798709 89.72639 116.50722 91.09246 122.069988 91.7755 124.85137 92.458538 128.3281 94.507648 142.23502 95.190677 145.24819 95.87371 146.17531 96.55675 145.94353 97.239788 146.17531 97.92282 148.02957 98.60586 152.20165 99.288898 158.92333 100.65497 175.61164 102.02104 192.06815 102.70408 197.8627 103.387119 201.10765 104.07015 201.33943 104.75319 199.94873 105.436229 199.25339 106.11926 201.33943 106.8023 207.36577 108.8514 234.71604 109.53445 240.97415 110.217479 244.45088 110.90051 245.84157 111.58355 245.14623 112.26659 243.29198 113.63266 237.96099 114.3157 236.10674H114.99873L115.68177 237.7292 116.36481 240.97415 117.047847 246.07335 118.41392 259.05317 119.096958 263.92057 119.77999 265.54304 120.46303 262.99345 121.146068 257.19889 122.51214 244.2191 123.195178 240.74237 123.878208 238.8881 124.56125 238.19277 125.24428 237.7292 125.927318 237.03386 126.61035 236.10674 127.29339 235.87496 127.976428 236.80208 128.65947 239.35169 130.02555 246.30513 130.70858 249.08652 131.3916 249.78186 132.07465 248.85474 132.75768 246.30513 133.44072 241.90128 136.17287 219.18665 136.8559 216.86882 137.53894 215.9417 138.22197 216.17348H138.90502L139.58805 215.70992 140.27109 214.55101 140.95412 213.62387 141.63716 212.92853 143.00324 212.46497 143.68627 211.30606 144.36931 208.2929 145.05234 202.9619 147.10144 181.63796 147.78449 176.30698 149.15056 167.49925 149.83359 162.16828 151.8827 141.07611 152.56574 136.2087 153.24878 133.65909 153.93181 133.19553 154.61486 133.65909 155.29788 133.89087 155.98093 133.4273 156.66396 132.50019 157.347 132.0366 158.03003 132.73197 158.71308 135.28156 160.07915 141.77146 160.76218 144.08928 161.44522 144.78462 162.12825 144.08928 163.49433 141.07611 164.17736 139.45363 164.8604 138.5265 165.54343 138.06295 166.22647 138.29473 166.9095 139.45363 168.27558 142.23502 168.95862 143.16216 169.64165 143.62572 171.00772 143.16216H171.69077L172.3738 143.39394 174.42292 145.47997 175.10594 145.94353 175.78899 146.17531 176.47202 146.63889 177.15505 147.56601 179.20417 151.5063 179.88719 152.20165 180.57024 151.73809 181.93631 150.3474 182.61934 150.1156 183.30239 151.04274 183.98542 152.43343 184.66846 153.36055H185.35149L186.03453 151.73809 187.4006 146.63889 188.08364 145.0164 188.76668 145.24819 189.4497 147.10245 190.13275 150.1156 191.49883 157.9962 192.18186 162.16828 192.86489 165.645 193.54793 168.42639 194.23096 169.81708 195.59703 171.20777 196.28008 172.1349 196.9631 173.98915 197.64615 176.30698 200.3783 186.96895 203.79347 197.63092 206.52562 206.90219 207.8917 209.91536 208.57472 210.6107 210.62384 212.0014 211.30687 212.23319H211.98992L212.67295 212.0014 213.35599 211.30606 214.03902 209.91536 214.72206 208.06111 215.40509 205.5115 217.45421 195.77666 218.13724 193.69063 218.82028 192.99527 219.50331 193.22707 220.18636 194.61775 220.86939 196.7038 223.60153 206.67041 224.9676 209.68358 226.33368 212.46497 229.06583 220.57733 229.74886 221.50446 231.11493 221.96804 231.79798 222.4316 232.481 223.35872 233.84708 226.83545 235.8962 233.78891 236.57923 234.94782 237.26226 234.71604 237.9453 232.86179 239.31137 226.60367 239.9944 224.28585 240.67745 223.5905 241.36048 223.82228 242.04352 224.51763H242.72655L243.40959 223.35872 245.4587 217.79595 246.14174 217.1006 247.50782 216.17348 248.19084 215.24636 248.87389 213.16031 250.23996 207.82933 250.92299 205.5115 251.60604 204.12082 252.28907 203.42546 252.97209 202.26656 253.65514 200.87587 255.70424 192.99527 256.38728 192.06815 257.0703 193.22707 257.75337 195.77666 258.4364 198.78983 259.11943 201.10765 259.80247 202.26656H260.4855L261.85157 200.87587 262.5346 200.41231 263.21766 200.18051H263.9007L264.5837 200.87587 265.26676 201.803 266.63285 205.27973 267.31587 207.36577 268.68196 212.46497 270.73106 221.96804 272.0971 228.68972 272.78016 231.47109 273.4632 233.55713 276.19535 239.81525 276.8784 241.20594H277.5614L278.24446 239.35169 278.9275 234.94782 281.65965 210.6107 282.34269 206.90219 283.0257 204.3526 283.70875 202.9619H284.39179L285.0748 203.88904 285.75785 205.74329 286.4409 208.98824 287.12394 212.92853 288.49 221.50446 289.17304 224.51763 289.85609 225.90833 291.22215 227.29901 291.90519 229.15328 292.58824 233.09357 293.95429 244.45088 295.32038 255.8082 296.0034 260.21208 296.68644 263.457 297.36949 265.54304 298.0525 266.47019 298.73554 266.23838 299.41859 265.54304 300.10163 264.6159 300.78465 263.92057 301.46769 262.76167 302.15074 261.37098 302.83378 258.82136 303.51679 255.11286 304.19984 250.47722 305.56593 237.7292 307.61503 215.9417 308.29808 210.14714 308.98109 205.97507 309.66413 203.19368 311.0302 198.78983 312.39628 192.76349 313.0793 188.59142 314.44538 178.393 315.81147 166.80391 316.49449 161.47293 317.17753 157.30086 317.86058 154.28769 318.5436 152.6652H319.22663L319.90968 153.82413 320.5927 155.4466 321.27577 156.6055 321.95878 155.67838 322.6418 152.20165 323.32487 146.87067 324.69093 135.04978 325.37397 130.64592 326.057 127.40097 328.1061 120.67929 328.78916 118.825038 329.47218 117.43435H330.1552L330.83827 118.825038 332.2043 123.2289 332.88737 125.08315 333.5704 125.546718H334.93647L335.6195 126.70563 336.30256 129.25524 336.9856 133.19553 339.71775 151.5063 340.40077 154.51947 341.0838 156.37372H341.76686L342.4499 154.75125 343.1329 151.5063 343.81596 146.40709 344.499 139.9172 346.5481 117.43435 347.23115 111.40801 348.5972 103.29565 349.28025 100.51426 351.32936 94.25615 352.0124 91.24298 352.69544 87.07091 353.37846 81.27635 354.0615 73.62755 354.74455 63.197359"/>
</g>
<g clip-path="url(#clip_6)">
<path transform="matrix(1,0,0,-1,0,288)" stroke-width="2" stroke-linecap="square" stroke-linejoin="round" fill="none" stroke="#000000" d="M-1 63.197359 60.109838 63.102128H66.8344L73.55897 63.356077 80.28353 63.86397 83.64581 64.21315 87.008098 83.09813 90.370388 103.04631 93.732669 124.057689 97.09495 146.13227 100.45724 169.27005 103.81952 193.47104 107.1818 218.73522 110.54408 245.0626 113.90637 245.03485 117.268657 243.98186 120.630939 241.9036 123.99322 238.8001 127.35551 234.67134 130.71779 229.51734 134.08008 223.33809 137.44235 216.13358 140.80464 194.95412 144.16693 177.08156 147.52922 162.51592 150.8915 151.25716 154.25379 143.30532 157.61608 138.66037 160.97837 137.32233 164.34066 139.2912 171.06522 144.25508 177.7898 148.7762 184.51436 152.85459 191.23894 156.4902 194.60123 172.2877 197.96352 184.90134 201.3258 194.3311 204.6881 200.57703 208.05037 203.63907 211.41266 203.51728 214.77495 200.2116 218.13724 193.72208 221.49953 203.88503 224.86182 212.04056 228.2241 218.18869 231.5864 222.32939 234.94869 224.46268 238.31096 224.58856 241.67325 222.70703 245.03554 218.81807 248.39783 209.22689 251.76012 202.70128 255.1224 199.24123 258.48469 198.84676 261.847 201.51784 265.20927 207.2545 268.57154 216.05672 271.93385 227.92452 275.2961 214.1782 278.65843 205.72719 282.0207 202.57144 285.38298 204.71097 288.74528 212.1458 292.10755 224.87589 295.46986 242.90128 298.83213 266.22193 305.5567 228.65172 312.28126 193.258 319.00584 160.04074 322.3681 144.2483 325.7304 128.99999 329.09269 141.2898 332.45497 148.58719 335.81724 150.89217 339.17955 148.20475 342.5418 140.52487 345.90409 127.85261 349.2664 110.18791 352.62867 87.53081 355.99095 79.16618 359.35325 72.3224 362.7155 66.99946 366.0778 63.197359 369.4401 60.9161 372.80238 60.155679 376.16465 60.9161 379.52693 63.197359H469"/>
</g>
<g clip-path="url(#clip_7)">
<path transform="matrix(1,0,0,-1,0,288)" stroke-width="2" stroke-linecap="square" stroke-linejoin="round" fill="none" stroke="#ffa500" d="M-1 63.197359H2.951041 29.849289L56.74755 61.09119 83.64581 79.11594 110.54408 231.03644 137.44235 203.04383 164.34066 138.12096 191.23894 163.96544 218.13724 227.37082 245.03554 201.41338 271.93385 211.67687 298.83213 220.55493 325.7304 176.48503 352.62867 81.79409 379.52693 67.37884 406.4252 63.197359H433.32344 460.22169 469"/>
</g>
<g clip-path="url(#clip_8)">
<path transform="matrix(1,0,0,-1,0,288)" stroke-width="1" stroke-linecap="butt" stroke-dasharray="3.7,1.6" stroke-linejoin="round" fill="none" stroke="#ffa500" d="M-1 63.197359H2.951041 29.849289L56.74755 51.87358 83.64581 70.874629 110.54408 204.39659 137.44235 161.81156 164.34066 96.85873 191.23894 141.13538 218.13724 190.54499 245.03554 171.20702 271.93385 198.83652 298.83213 173.45528 325.7304 147.16008 352.62867 66.3455 379.52693 52.38967 406.4252 63.197359H433.32344 460.22169 469"/>
</g>
<g clip-path="url(#clip_9)">
<path transform="matrix(1,0,0,-1,0,288)" stroke-width="1" stroke-linecap="butt" stroke-dasharray="3.7,1.6" stroke-linejoin="round" fill="none" stroke="#ffa500" d="M-1 63.197359H2.951041 29.849289L56.74755 67.16872 83.64581 90.76218 110.54408 250.80089 137.44235 249.21639 164.34066 174.19606 191.23894 189.77217 218.13724 261.41178 245.03554 225.5134 271.93385 222.01828 298.83213 250.54207 325.7304 220.72512 352.62867 96.385189 379.52693 78.795879 406.4252 63.197359H433.32344 460.22169 469"/>
</g>
<path transform="matrix(1,0,0,-1,0,288)" stroke-width=".8" stroke-linecap="square" stroke-miterlimit="10" stroke-linejoin="miter" fill="none" stroke="#000000" d="M47.378126 41.14375V277.2"/>
<path transform="matrix(1,0,0,-1,0,288)" stroke-width=".8" stroke-linecap="square" stroke-miterlimit="10" stroke-linejoin="miter" fill="none" stroke="#000000" d="M47.378126 41.14375H457.2"/>
<g>
<path transform="matrix(1,0,0,-1,0,288)" d="M338.2 195.84062H450.2C451.53334 195.84062 452.2 196.5073 452.2 197.84062V270.2C452.2 271.53334 451.53334 272.2 450.2 272.2H338.2C336.86668 272.2 336.2 271.53334 336.2 270.2V197.84062C336.2 196.5073 336.86668 195.84062 338.2 195.84062Z" fill="#ffffff" fill-opacity=".8"/>
<path transform="matrix(1,0,0,-1,0,288)" stroke-width="1" stroke-linecap="butt" stroke-miterlimit="10" stroke-linejoin="miter" fill="none" stroke="#d5d6d5" stroke-opacity=".8" d="M338.2 195.84062H450.2C451.53334 195.84062 452.2 196.5073 452.2 197.84062V270.2C452.2 271.53334 451.53334 272.2 450.2 272.2H338.2C336.86668 272.2 336.2 271.53334 336.2 270.2V197.84062C336.2 196.5073 336.86668 195.84062 338.2 195.84062Z"/>
</g>
<path transform="matrix(1,0,0,-1,0,288)" stroke-width="2" stroke-linecap="square" stroke-linejoin="round" fill="none" stroke="#929292" d="M340.2 264.10627H350.2 360.2"/>
<use data-text="E" xlink:href="#font_2_69" transform="matrix(10,0,0,-10,368.2,27.393738)"/>
<use data-text="x" xlink:href="#font_2_120" transform="matrix(10,0,0,-10,374.52003,27.393738)"/>
<use data-text="a" xlink:href="#font_2_97" transform="matrix(10,0,0,-10,380.44,27.393738)"/>
<use data-text="c" xlink:href="#font_2_99" transform="matrix(10,0,0,-10,386.57,27.393738)"/>
<use data-text="t" xlink:href="#font_2_116" transform="matrix(10,0,0,-10,392.07,27.393738)"/>
<use data-text=" " xlink:href="#font_2_32" transform="matrix(10,0,0,-10,395.99003,27.393738)"/>
<use data-text="s" xlink:href="#font_2_115" transform="matrix(10,0,0,-10,399.17,27.393738)"/>
<use data-text="l" xlink:href="#font_2_108" transform="matrix(10,0,0,-10,404.38,27.393738)"/>
<use data-text="i" xlink:href="#font_2_105" transform="matrix(10,0,0,-10,407.16,27.393738)"/>
<use data-text="p" xlink:href="#font_2_112" transform="matrix(10,0,0,-10,409.94,27.393738)"/>
<path transform="matrix(1,0,0,-1,0,288)" stroke-width="2" stroke-linecap="square" stroke-linejoin="round" fill="none" stroke="#000000" d="M340.2 249.43437H350.2 360.2"/>
<use data-text="P" xlink:href="#font_2_80" transform="matrix(10,0,0,-10,368.2,42.065629)"/>
<use data-text="r" xlink:href="#font_2_114" transform="matrix(10,0,0,-10,374.05815,42.065629)"/>
<use data-text="e" xlink:href="#font_2_101" transform="matrix(10,0,0,-10,377.9494,42.065629)"/>
<use data-text="s" xlink:href="#font_2_115" transform="matrix(10,0,0,-10,384.0994,42.065629)"/>
<use data-text="c" xlink:href="#font_2_99" transform="matrix(10,0,0,-10,389.3094,42.065629)"/>
<use data-text="r" xlink:href="#font_2_114" transform="matrix(10,0,0,-10,394.8094,42.065629)"/>
<use data-text="i" xlink:href="#font_2_105" transform="matrix(10,0,0,-10,398.91938,42.065629)"/>
<use data-text="b" xlink:href="#font_2_98" transform="matrix(10,0,0,-10,401.6994,42.065629)"/>
<use data-text="e" xlink:href="#font_2_101" transform="matrix(10,0,0,-10,408.04939,42.065629)"/>
<use data-text="d" xlink:href="#font_2_100" transform="matrix(10,0,0,-10,414.1994,42.065629)"/>
<use data-text=" " xlink:href="#font_2_32" transform="matrix(10,0,0,-10,420.54939,42.065629)"/>
<use data-text="s" xlink:href="#font_2_115" transform="matrix(10,0,0,-10,423.72938,42.065629)"/>
<use data-text="l" xlink:href="#font_2_108" transform="matrix(10,0,0,-10,428.9394,42.065629)"/>
<use data-text="i" xlink:href="#font_2_105" transform="matrix(10,0,0,-10,431.7194,42.065629)"/>
<use data-text="p" xlink:href="#font_2_112" transform="matrix(10,0,0,-10,434.4994,42.065629)"/>
<path transform="matrix(1,0,0,-1,0,288)" stroke-width="2" stroke-linecap="square" stroke-linejoin="round" fill="none" stroke="#ffa500" d="M340.2 234.7625H350.2 360.2"/>
<use data-text="M" xlink:href="#font_2_77" transform="matrix(10,0,0,-10,368.2,56.737504)"/>
<use data-text="o" xlink:href="#font_2_111" transform="matrix(10,0,0,-10,376.83003,56.737504)"/>
<use data-text="d" xlink:href="#font_2_100" transform="matrix(10,0,0,-10,382.95,56.737504)"/>
<use data-text="e" xlink:href="#font_2_101" transform="matrix(10,0,0,-10,389.30003,56.737504)"/>
<use data-text="l" xlink:href="#font_2_108" transform="matrix(10,0,0,-10,395.45,56.737504)"/>
<use data-text=" " xlink:href="#font_2_32" transform="matrix(10,0,0,-10,398.23,56.737504)"/>
<use data-text="m" xlink:href="#font_2_109" transform="matrix(10,0,0,-10,401.41,56.737504)"/>
<use data-text="e" xlink:href="#font_2_101" transform="matrix(10,0,0,-10,411.15003,56.737504)"/>
<use data-text="d" xlink:href="#font_2_100" transform="matrix(10,0,0,-10,417.30003,56.737504)"/>
<use data-text="i" xlink:href="#font_2_105" transform="matrix(10,0,0,-10,423.65003,56.737504)"/>
<use data-text="a" xlink:href="#font_2_97" transform="matrix(10,0,0,-10,426.43003,56.737504)"/>
<use data-text="n" xlink:href="#font_2_110" transform="matrix(10,0,0,-10,432.56,56.737504)"/>
<path transform="matrix(1,0,0,-1,0,288)" d="M340.2 216.59062H360.2V223.59062H340.2Z" fill="#ffa500" fill-opacity=".5"/>
<use data-text="m" xlink:href="#font_2_109" transform="matrix(10,0,0,-10,368.2,71.00313)"/>
<use data-text="e" xlink:href="#font_2_101" transform="matrix(10,0,0,-10,377.94123,71.00313)"/>
<use data-text="d" xlink:href="#font_2_100" transform="matrix(10,0,0,-10,384.09358,71.00313)"/>
<use data-text="i" xlink:href="#font_2_105" transform="matrix(10,0,0,-10,390.44123,71.00313)"/>
<use data-text="a" xlink:href="#font_2_97" transform="matrix(10,0,0,-10,393.21955,71.00313)"/>
<use data-text="n" xlink:href="#font_2_110" transform="matrix(10,0,0,-10,399.34748,71.00313)"/>
<use data-text="&#x00b1;" xlink:href="#font_2_177" transform="matrix(10,0,0,-10,405.68537,71.00313)"/>
<use data-text="s" xlink:href="#font_2_115" transform="matrix(10,0,0,-10,414.06428,71.00313)"/>
<use data-text="t" xlink:href="#font_2_116" transform="matrix(10,0,0,-10,419.27424,71.00313)"/>
<use data-text="d" xlink:href="#font_2_100" transform="matrix(10,0,0,-10,423.19514,71.00313)"/>
<use data-text="d" xlink:href="#font_2_100" transform="matrix(10,0,0,-10,429.5428,71.00313)"/>
<use data-text="e" xlink:href="#font_2_101" transform="matrix(10,0,0,-10,435.89045,71.00313)"/>
<use data-text="v" xlink:href="#font_2_118" transform="matrix(10,0,0,-10,442.0428,71.00313)"/>
<path transform="matrix(1,0,0,-1,0,288)" stroke-width="1" stroke-linecap="butt" stroke-dasharray="3.7,1.6" stroke-linejoin="round" fill="none" stroke="#ffa500" d="M340.2 205.41875H350.2 360.2"/>
<use data-text="m" xlink:href="#font_2_109" transform="matrix(10,0,0,-10,368.2,86.08125)"/>
<use data-text="i" xlink:href="#font_2_105" transform="matrix(10,0,0,-10,377.94,86.08125)"/>
<use data-text="n" xlink:href="#font_2_110" transform="matrix(10,0,0,-10,380.72,86.08125)"/>
<use data-text="-" xlink:href="#font_2_45" transform="matrix(10,0,0,-10,387.06,86.08125)"/>
<use data-text="m" xlink:href="#font_2_109" transform="matrix(10,0,0,-10,390.67,86.08125)"/>
<use data-text="a" xlink:href="#font_2_97" transform="matrix(10,0,0,-10,400.41,86.08125)"/>
<use data-text="x" xlink:href="#font_2_120" transform="matrix(10,0,0,-10,406.54,86.08125)"/>
</svg>
