<svg xmlns="http://www.w3.org/2000/svg" xmlns:xlink="http://www.w3.org/1999/xlink" version="1.1" width="468" height="288" viewBox="0 0 468 288">
<defs>
<g id="font_1_54">
<path transform="matrix(.001,0,0,.001,0,0)" d="M330 404C286 404 251 388 225 358 199 328 186 286 186 234 186 181 199 139 225 109 251 79 286 64 330 64 374 64 409 79 435 109 461 139 474 181 474 234 474 286 461 328 435 358 409 388 374 404 330 404ZM526 713V623C501 635 476 644 451 650 425 656 400 659 376 659 310 659 260 637 226 593 192 549 172 482 168 394 187 422 211 444 240 459 269 474 301 482 336 482 409 482 467 459 509 415 551 371 573 310 573 234 573 159 550 99 506 54 462 9 403-13 330-13 246-13 181 19 137 83 92 147 70 241 70 364 70 479 97 571 152 639 206 707 280 742 372 742 396 742 421 739 447 735 472 730 498 723 526 713Z"/>
</g>
<g id="font_1_48">
<path transform="matrix(.001,0,0,.001,0,0)" d="M318 664C267 664 229 639 203 589 177 539 165 464 165 364 165 264 177 189 203 139 229 89 267 64 318 64 369 64 407 89 433 139 458 189 471 264 471 364 471 464 458 539 433 589 407 639 369 664 318 664ZM318 742C399 742 461 709 505 645 548 580 570 486 570 364 570 241 548 147 505 83 461 19 399-13 317-13 235-13 173 19 130 83 87 147 66 241 66 364 66 486 87 580 130 645 173 709 236 742 318 742Z"/>
</g>
<clipPath id="clip_2">
<path transform="matrix(.01,0,0,-.01,73.69312,265.15376)" d="M-1021-463H1794V1233H-1021Z"/>
</clipPath>
<g id="font_1_52">
<path transform="matrix(.001,0,0,.001,0,0)" d="M378 643 129 254H378V643ZM352 729H476V254H580V172H476V0H378V172H49V267L352 729Z"/>
</g>
<clipPath id="clip_3">
<path transform="matrix(.01,0,0,-.01,129.85312,265.15376)" d="M-1021-463H1794V1233H-1021Z"/>
</clipPath>
<g id="font_1_50">
<path transform="matrix(.001,0,0,.001,0,0)" d="M192 83H536V0H73V83C110 121 161 173 226 239 290 304 331 346 348 365 380 400 402 430 414 455 426 479 433 504 433 528 433 566 419 598 392 622 365 646 330 659 286 659 255 659 222 653 188 643 154 632 117 616 78 594V694C118 710 155 722 189 730 223 738 255 742 284 742 359 742 419 723 464 685 509 647 532 597 532 534 532 504 526 475 515 449 504 422 484 390 454 354 446 344 420 317 376 272 332 227 271 164 192 83Z"/>
</g>
<clipPath id="clip_4">
<path transform="matrix(.01,0,0,-.01,186.01313,265.15376)" d="M-1021-463H1794V1233H-1021Z"/>
</clipPath>
<g id="font_1_68">
<path transform="matrix(.001,0,0,.001,0,0)" d="M197 648V81H316C416 81 490 103 537 149 583 195 607 267 607 365 607 463 583 534 537 580 490 625 416 648 316 648H197ZM98 729H301C442 729 546 699 612 641 678 582 711 490 711 365 711 239 677 147 611 88 545 29 441 0 301 0H98V729Z"/>
</g>
<g id="font_1_105">
<path transform="matrix(.001,0,0,.001,0,0)" d="M94 547H184V0H94V547ZM94 760H184V646H94V760Z"/>
</g>
<g id="font_1_115">
<path transform="matrix(.001,0,0,.001,0,0)" d="M443 531V446C417 458 391 468 364 475 336 481 308 485 279 485 234 485 200 478 178 464 156 450 145 430 145 403 145 382 153 366 169 354 185 342 217 330 265 320L296 313C360 299 405 279 432 255 458 230 472 195 472 151 472 100 452 60 412 31 372 1 316-13 246-13 216-13 186-10 154-5 122 0 89 8 54 20V113C87 95 120 82 152 74 184 65 216 61 248 61 290 61 323 68 346 82 368 96 380 117 380 144 380 168 371 187 355 200 339 213 303 226 247 238L216 245C160 257 119 275 95 299 70 323 58 356 58 399 58 450 76 490 112 518 148 546 200 560 268 560 301 560 332 557 362 552 391 547 418 540 443 531Z"/>
</g>
<g id="font_1_116">
<path transform="matrix(.001,0,0,.001,0,0)" d="M183 702V547H368V477H183V180C183 135 189 106 201 94 213 81 238 75 276 75H368V0H276C206 0 158 13 132 39 106 65 93 112 93 180V477H27V547H93V702H183Z"/>
</g>
<g id="font_1_97">
<path transform="matrix(.001,0,0,.001,0,0)" d="M343 275C270 275 220 266 192 250 164 233 150 205 150 165 150 133 160 107 181 89 202 70 231 61 267 61 317 61 357 78 387 114 417 149 432 196 432 255V275H343ZM522 312V0H432V83C411 49 385 25 355 10 325-5 287-13 243-13 187-13 142 2 109 33 76 64 60 106 60 159 60 220 80 266 122 298 163 329 224 345 306 345H432V354C432 395 418 427 391 450 364 472 326 484 277 484 245 484 215 480 185 472 155 464 127 453 100 439V522C132 534 164 544 195 550 226 556 256 560 286 560 365 560 424 539 463 498 502 457 522 395 522 312Z"/>
</g>
<g id="font_1_110">
<path transform="matrix(.001,0,0,.001,0,0)" d="M549 330V0H459V327C459 379 448 417 428 443 408 469 378 482 338 482 289 482 251 466 223 435 195 404 181 362 181 309V0H91V547H181V462C202 494 227 519 257 535 286 551 320 560 358 560 420 560 468 540 500 501 532 462 549 405 549 330Z"/>
</g>
<g id="font_1_99">
<path transform="matrix(.001,0,0,.001,0,0)" d="M488 526V442C462 456 437 466 411 473 385 480 360 484 334 484 276 484 230 465 198 428 166 391 150 339 150 273 150 206 166 154 198 117 230 80 276 62 334 62 360 62 385 65 411 72 437 79 462 90 488 104V21C462 9 436 0 410-5 383-10 354-13 324-13 242-13 176 12 128 64 79 115 55 185 55 273 55 362 79 432 128 483 177 534 244 560 330 560 358 560 385 557 411 551 437 545 463 537 488 526Z"/>
</g>
<g id="font_1_101">
<path transform="matrix(.001,0,0,.001,0,0)" d="M562 296V252H149C153 190 171 142 205 110 238 78 284 62 344 62 378 62 412 66 444 74 476 82 509 95 541 113V28C509 14 476 3 442-3 408-9 373-13 339-13 251-13 182 12 131 62 80 112 55 181 55 268 55 357 79 428 127 481 175 533 241 560 323 560 397 560 455 536 498 489 540 441 562 377 562 296ZM472 322C471 371 457 410 431 440 404 469 368 484 324 484 274 484 234 469 204 441 174 413 156 373 152 322H472Z"/>
</g>
<g id="font_1_32">
</g>
<g id="font_1_108">
<path transform="matrix(.001,0,0,.001,0,0)" d="M94 760H184V0H94V760Z"/>
</g>
<g id="font_1_111">
<path transform="matrix(.001,0,0,.001,0,0)" d="M306 484C258 484 220 465 192 427 164 389 150 338 150 273 150 207 163 156 191 118 219 80 257 62 306 62 354 62 392 80 420 118 448 156 462 207 462 273 462 337 448 389 420 427 392 465 354 484 306 484ZM306 560C384 560 445 534 490 484 534 433 557 363 557 273 557 183 534 113 490 63 445 12 384-13 306-13 227-13 165 12 121 63 77 113 55 183 55 273 55 363 77 433 121 484 165 534 227 560 306 560Z"/>
</g>
<g id="font_1_103">
<path transform="matrix(.001,0,0,.001,0,0)" d="M454 280C454 344 440 395 414 431 387 467 349 485 301 485 253 485 215 467 188 431 161 395 148 344 148 280 148 215 161 165 188 129 215 93 253 75 301 75 349 75 387 93 414 129 440 165 454 215 454 280ZM544 68C544-24 523-93 482-139 440-184 377-207 292-207 260-207 231-204 203-200 175-195 147-188 121-178V-91C147-105 173-115 199-122 225-129 251-133 278-133 336-133 380-117 410-87 439-56 454-10 454 52V96C435 64 411 40 382 24 353 8 319 0 279 0 211 0 157 25 116 76 75 127 55 195 55 280 55 364 75 432 116 483 157 534 211 560 279 560 319 560 353 552 382 536 411 520 435 496 454 464V547H544V68Z"/>
</g>
<g id="font_1_114">
<path transform="matrix(.001,0,0,.001,0,0)" d="M411 463C401 469 390 473 378 476 366 478 353 480 339 480 288 480 249 463 222 430 194 397 181 350 181 288V0H91V547H181V462C199 495 224 520 254 536 284 552 321 560 365 560 371 560 378 559 386 559 393 558 401 557 411 555V463Z"/>
</g>
<g id="font_1_107">
<path transform="matrix(.001,0,0,.001,0,0)" d="M91 760H181V311L449 547H564L274 291 576 0H459L181 267V0H91V760Z"/>
</g>
<g id="font_1_44">
<path transform="matrix(.001,0,0,.001,0,0)" d="M117 124H220V40L140-115H77L117 40V124Z"/>
</g>
<g id="font_1_109">
<path transform="matrix(.001,0,0,.001,0,0)" d="M520 442C542 482 569 511 600 531 631 550 668 560 711 560 767 560 811 540 842 500 873 460 889 403 889 330V0H799V327C799 379 789 418 771 444 752 469 724 482 686 482 639 482 602 466 575 435 548 404 535 362 535 309V0H445V327C445 379 435 418 417 444 398 469 369 482 331 482 285 482 248 466 221 435 194 404 181 362 181 309V0H91V547H181V462C201 495 226 520 255 536 283 552 317 560 357 560 397 560 430 550 458 530 486 510 506 480 520 442Z"/>
</g>
<g id="font_1_46">
<path transform="matrix(.001,0,0,.001,0,0)" d="M107 124H210V0H107V124Z"/>
</g>
<g id="font_1_56">
<path transform="matrix(.001,0,0,.001,0,0)" d="M318 346C271 346 234 333 207 308 180 283 167 249 167 205 167 161 180 126 207 101 234 76 271 64 318 64 364 64 401 76 428 102 455 127 469 161 469 205 469 249 455 283 429 308 402 333 365 346 318 346ZM219 388C177 398 144 418 120 447 96 476 85 511 85 553 85 611 105 657 147 691 188 725 245 742 318 742 390 742 447 725 489 691 530 657 551 611 551 553 551 511 539 476 515 447 491 418 459 398 417 388 464 377 501 355 528 323 554 291 568 251 568 205 568 134 546 80 503 43 459 5 397-13 317-13 237-13 175 5 132 43 89 80 68 134 68 205 68 251 81 291 108 323 134 355 171 377 219 388ZM183 544C183 506 194 476 218 455 242 434 275 424 318 424 360 424 393 434 417 455 441 476 453 506 453 544 453 582 441 611 417 632 393 653 360 664 318 664 275 664 242 653 218 632 194 611 183 582 183 544Z"/>
</g>
<g id="font_1_49">
<path transform="matrix(.001,0,0,.001,0,0)" d="M124 83H285V639L110 604V694L284 729H383V83H544V0H124V83Z"/>
</g>
<g id="font_1_73">
<path transform="matrix(.001,0,0,.001,0,0)" d="M98 729H197V0H98V729Z"/>
</g>
<g id="font_1_112">
<path transform="matrix(.001,0,0,.001,0,0)" d="M181 82V-207H91V547H181V464C199 496 223 520 252 536 281 552 316 560 356 560 422 560 476 533 518 481 559 428 580 359 580 273 580 187 559 117 518 65 476 13 422-13 356-13 316-13 281-5 252 10 223 25 199 49 181 82ZM487 273C487 339 473 390 446 428 418 466 381 485 334 485 286 485 249 466 222 428 194 390 181 339 181 273 181 207 194 155 222 117 249 79 286 61 334 61 381 61 418 79 446 117 473 155 487 207 487 273Z"/>
</g>
<g id="font_1_117">
<path transform="matrix(.001,0,0,.001,0,0)" d="M85 216V547H175V219C175 167 185 129 205 103 225 77 255 64 296 64 344 64 383 79 411 110 439 141 453 183 453 237V547H543V0H453V84C431 50 405 26 377 10 348-5 315-13 277-13 214-13 166 6 134 45 101 83 85 140 85 216ZM311 560V560Z"/>
</g>
<g id="font_1_100">
<path transform="matrix(.001,0,0,.001,0,0)" d="M454 464V760H544V0H454V82C435 49 411 25 382 10 353-5 319-13 279-13 213-13 159 13 117 65 75 117 55 187 55 273 55 359 75 428 117 481 159 533 213 560 279 560 319 560 353 552 382 536 411 520 435 496 454 464ZM148 273C148 207 161 155 188 117 215 79 252 61 300 61 348 61 385 79 413 117 440 155 454 207 454 273 454 339 440 390 413 428 385 466 348 485 300 485 252 485 215 466 188 428 161 390 148 339 148 273Z"/>
</g>
<clipPath id="clip_5">
<path transform="matrix(1,0,0,-1,0,288)" d="M42.12 37.44H463.32V276.47999H42.12Z"/>
</clipPath>
<clipPath id="clip_6">
<path transform="matrix(1,0,0,-1,0,288)" d="M42.12 37.44H463.32V276.47999H42.12Z"/>
</clipPath>
<clipPath id="clip_7">
<path transform="matrix(1,0,0,-1,0,288)" d="M42.12 37.44H463.32V276.47999H42.12Z"/>
</clipPath>
<clipPath id="clip_8">
<path transform="matrix(1,0,0,-1,0,288)" d="M42.12 37.44H463.32V276.47999H42.12Z"/>
</clipPath>
<clipPath id="clip_9">
<path transform="matrix(1,0,0,-1,0,288)" d="M42.12 37.44H463.32V276.47999H42.12Z"/>
</clipPath>
<clipPath id="clip_10">
<path transform="matrix(1,0,0,-1,0,288)" d="M42.12 37.44H463.32V276.47999H42.12Z"/>
</clipPath>
<clipPath id="clip_11">
<path transform="matrix(1,0,0,-1,0,288)" d="M42.12 37.44H463.32V276.47999H42.12Z"/>
</clipPath>
<clipPath id="clip_12">
<path transform="matrix(1,0,0,-1,0,288)" d="M42.12 37.44H463.32V276.47999H42.12Z"/>
</clipPath>
<clipPath id="clip_13">
<path transform="matrix(1,0,0,-1,0,288)" d="M42.12 37.44H463.32V276.47999H42.12Z"/>
</clipPath>
<clipPath id="clip_14">
<path transform="matrix(1,0,0,-1,0,288)" d="M42.12 37.44H463.32V276.47999H42.12Z"/>
</clipPath>
<clipPath id="clip_15">
<path transform="matrix(1,0,0,-1,0,288)" d="M42.12 37.44H463.32V276.47999H42.12Z"/>
</clipPath>
<clipPath id="clip_16">
<path transform="matrix(1,0,0,-1,0,288)" d="M42.12 37.44H463.32V276.47999H42.12Z"/>
</clipPath>
<clipPath id="clip_17">
<path transform="matrix(1,0,0,-1,0,288)" d="M42.12 37.44H463.32V276.47999H42.12Z"/>
</clipPath>
</defs>
<path transform="matrix(1,0,0,-1,0,288)" d="M0 0H468V288H0Z" fill="#ffffff"/>
<path transform="matrix(1,0,0,-1,0,288)" d="M42.12 37.44H463.32V276.48H42.12Z" fill="#ffffff"/>
<path transform="matrix(1,0,0,-1,0,288)" d="M84.24 37.44V33.94"/>
<path transform="matrix(1,0,0,-1,0,288)" stroke-width=".8" stroke-linecap="butt" stroke-linejoin="round" fill="none" stroke="#000000" d="M84.24 37.44V33.94"/>
<use data-text="6" xlink:href="#font_1_54" transform="matrix(10,0,0,-10,82.07203,265.15376)"/>
<use data-text="0" xlink:href="#font_1_48" transform="matrix(10,0,0,-10,88.43203,265.15376)"/>
<g clip-path="url(#clip_2)">
<path transform="matrix(.01,0,0,-.01,73.69312,265.15376)" d="M106 355H732V272H106V355Z"/>
</g>
<path transform="matrix(1,0,0,-1,0,288)" d="M140.4 37.44V33.94"/>
<path transform="matrix(1,0,0,-1,0,288)" stroke-width=".8" stroke-linecap="butt" stroke-linejoin="round" fill="none" stroke="#000000" d="M140.4 37.44V33.94"/>
<use data-text="4" xlink:href="#font_1_52" transform="matrix(10,0,0,-10,138.23203,265.15376)"/>
<use data-text="0" xlink:href="#font_1_48" transform="matrix(10,0,0,-10,144.59203,265.15376)"/>
<g clip-path="url(#clip_3)">
<path transform="matrix(.01,0,0,-.01,129.85312,265.15376)" d="M106 355H732V272H106V355Z"/>
</g>
<path transform="matrix(1,0,0,-1,0,288)" d="M196.56 37.44V33.94"/>
<path transform="matrix(1,0,0,-1,0,288)" stroke-width=".8" stroke-linecap="butt" stroke-linejoin="round" fill="none" stroke="#000000" d="M196.56 37.44V33.94"/>
<use data-text="2" xlink:href="#font_1_50" transform="matrix(10,0,0,-10,194.39203,265.15376)"/>
<use data-text="0" xlink:href="#font_1_48" transform="matrix(10,0,0,-10,200.75203,265.15376)"/>
<g clip-path="url(#clip_4)">
<path transform="matrix(.01,0,0,-.01,186.01313,265.15376)" d="M106 355H732V272H106V355Z"/>
</g>
<path transform="matrix(1,0,0,-1,0,288)" d="M252.72 37.44V33.94"/>
<path transform="matrix(1,0,0,-1,0,288)" stroke-width=".8" stroke-linecap="butt" stroke-linejoin="round" fill="none" stroke="#000000" d="M252.72 37.44V33.94"/>
<use data-text="0" xlink:href="#font_1_48" transform="matrix(10,0,0,-10,249.54032,265.15376)"/>
<path transform="matrix(1,0,0,-1,0,288)" d="M308.88 37.44V33.94"/>
<path transform="matrix(1,0,0,-1,0,288)" stroke-width=".8" stroke-linecap="butt" stroke-linejoin="round" fill="none" stroke="#000000" d="M308.88 37.44V33.94"/>
<use data-text="2" xlink:href="#font_1_50" transform="matrix(10,0,0,-10,302.52064,265.15376)"/>
<use data-text="0" xlink:href="#font_1_48" transform="matrix(10,0,0,-10,308.8806,265.15376)"/>
<path transform="matrix(1,0,0,-1,0,288)" d="M365.04 37.44V33.94"/>
<path transform="matrix(1,0,0,-1,0,288)" stroke-width=".8" stroke-linecap="butt" stroke-linejoin="round" fill="none" stroke="#000000" d="M365.04 37.44V33.94"/>
<use data-text="4" xlink:href="#font_1_52" transform="matrix(10,0,0,-10,358.68064,265.15376)"/>
<use data-text="0" xlink:href="#font_1_48" transform="matrix(10,0,0,-10,365.04066,265.15376)"/>
<path transform="matrix(1,0,0,-1,0,288)" d="M421.2 37.44V33.94"/>
<path transform="matrix(1,0,0,-1,0,288)" stroke-width=".8" stroke-linecap="butt" stroke-linejoin="round" fill="none" stroke="#000000" d="M421.2 37.44V33.94"/>
<use data-text="6" xlink:href="#font_1_54" transform="matrix(10,0,0,-10,414.84065,265.15376)"/>
<use data-text="0" xlink:href="#font_1_48" transform="matrix(10,0,0,-10,421.20063,265.15376)"/>
<use data-text="D" xlink:href="#font_1_68" transform="matrix(10,0,0,-10,189.0325,278.82563)"/>
<use data-text="i" xlink:href="#font_1_105" transform="matrix(10,0,0,-10,196.7325,278.82563)"/>
<use data-text="s" xlink:href="#font_1_115" transform="matrix(10,0,0,-10,199.5125,278.82563)"/>
<use data-text="t" xlink:href="#font_1_116" transform="matrix(10,0,0,-10,204.7225,278.82563)"/>
<use data-text="a" xlink:href="#font_1_97" transform="matrix(10,0,0,-10,208.6425,278.82563)"/>
<use data-text="n" xlink:href="#font_1_110" transform="matrix(10,0,0,-10,214.7725,278.82563)"/>
<use data-text="c" xlink:href="#font_1_99" transform="matrix(10,0,0,-10,221.1125,278.82563)"/>
<use data-text="e" xlink:href="#font_1_101" transform="matrix(10,0,0,-10,226.6125,278.82563)"/>
<use data-text=" " xlink:href="#font_1_32" transform="matrix(10,0,0,-10,232.76251,278.82563)"/>
<use data-text="a" xlink:href="#font_1_97" transform="matrix(10,0,0,-10,235.9425,278.82563)"/>
<use data-text="l" xlink:href="#font_1_108" transform="matrix(10,0,0,-10,242.07251,278.82563)"/>
<use data-text="o" xlink:href="#font_1_111" transform="matrix(10,0,0,-10,244.85251,278.82563)"/>
<use data-text="n" xlink:href="#font_1_110" transform="matrix(10,0,0,-10,250.9725,278.82563)"/>
<use data-text="g" xlink:href="#font_1_103" transform="matrix(10,0,0,-10,257.3125,278.82563)"/>
<use data-text=" " xlink:href="#font_1_32" transform="matrix(10,0,0,-10,263.6625,278.82563)"/>
<use data-text="s" xlink:href="#font_1_115" transform="matrix(10,0,0,-10,266.8425,278.82563)"/>
<use data-text="t" xlink:href="#font_1_116" transform="matrix(10,0,0,-10,272.0525,278.82563)"/>
<use data-text="r" xlink:href="#font_1_114" transform="matrix(10,0,0,-10,275.9725,278.82563)"/>
<use data-text="i" xlink:href="#font_1_105" transform="matrix(10,0,0,-10,280.0825,278.82563)"/>
<use data-text="k" xlink:href="#font_1_107" transform="matrix(10,0,0,-10,282.8625,278.82563)"/>
<use data-text="e" xlink:href="#font_1_101" transform="matrix(10,0,0,-10,288.30876,278.82563)"/>
<use data-text="," xlink:href="#font_1_44" transform="matrix(10,0,0,-10,294.45875,278.82563)"/>
<use data-text=" " xlink:href="#font_1_32" transform="matrix(10,0,0,-10,297.63874,278.82563)"/>
<use data-text="k" xlink:href="#font_1_107" transform="matrix(10,0,0,-10,300.81877,278.82563)"/>
<use data-text="m" xlink:href="#font_1_109" transform="matrix(10,0,0,-10,306.60877,278.82563)"/>
<path transform="matrix(1,0,0,-1,0,288)" d="M42.12 37.44H38.62"/>
<path transform="matrix(1,0,0,-1,0,288)" stroke-width=".8" stroke-linecap="butt" stroke-linejoin="round" fill="none" stroke="#000000" d="M42.12 37.44H38.62"/>
<use data-text="0" xlink:href="#font_1_48" transform="matrix(10,0,0,-10,19.21375,254.35688)"/>
<use data-text="." xlink:href="#font_1_46" transform="matrix(10,0,0,-10,25.573752,254.35688)"/>
<use data-text="0" xlink:href="#font_1_48" transform="matrix(10,0,0,-10,28.753752,254.35688)"/>
<path transform="matrix(1,0,0,-1,0,288)" d="M42.12 85.248H38.62"/>
<path transform="matrix(1,0,0,-1,0,288)" stroke-width=".8" stroke-linecap="butt" stroke-linejoin="round" fill="none" stroke="#000000" d="M42.12 85.248H38.62"/>
<use data-text="0" xlink:href="#font_1_48" transform="matrix(10,0,0,-10,19.21375,206.54888)"/>
<use data-text="." xlink:href="#font_1_46" transform="matrix(10,0,0,-10,25.573752,206.54888)"/>
<use data-text="2" xlink:href="#font_1_50" transform="matrix(10,0,0,-10,28.753752,206.54888)"/>
<path transform="matrix(1,0,0,-1,0,288)" d="M42.12 133.056H38.62"/>
<path transform="matrix(1,0,0,-1,0,288)" stroke-width=".8" stroke-linecap="butt" stroke-linejoin="round" fill="none" stroke="#000000" d="M42.12 133.056H38.62"/>
<use data-text="0" xlink:href="#font_1_48" transform="matrix(10,0,0,-10,19.21375,158.74088)"/>
<use data-text="." xlink:href="#font_1_46" transform="matrix(10,0,0,-10,25.573752,158.74088)"/>
<use data-text="4" xlink:href="#font_1_52" transform="matrix(10,0,0,-10,28.753752,158.74088)"/>
<path transform="matrix(1,0,0,-1,0,288)" d="M42.12 180.864H38.62"/>
<path transform="matrix(1,0,0,-1,0,288)" stroke-width=".8" stroke-linecap="butt" stroke-linejoin="round" fill="none" stroke="#000000" d="M42.12 180.864H38.62"/>
<use data-text="0" xlink:href="#font_1_48" transform="matrix(10,0,0,-10,19.21375,110.93288)"/>
<use data-text="." xlink:href="#font_1_46" transform="matrix(10,0,0,-10,25.573752,110.93288)"/>
<use data-text="6" xlink:href="#font_1_54" transform="matrix(10,0,0,-10,28.753752,110.93288)"/>
<path transform="matrix(1,0,0,-1,0,288)" d="M42.12 228.672H38.62"/>
<path transform="matrix(1,0,0,-1,0,288)" stroke-width=".8" stroke-linecap="butt" stroke-linejoin="round" fill="none" stroke="#000000" d="M42.12 228.672H38.62"/>
<use data-text="0" xlink:href="#font_1_48" transform="matrix(10,0,0,-10,19.21375,63.124879)"/>
<use data-text="." xlink:href="#font_1_46" transform="matrix(10,0,0,-10,25.573752,63.124879)"/>
<use data-text="8" xlink:href="#font_1_56" transform="matrix(10,0,0,-10,28.753752,63.124879)"/>
<path transform="matrix(1,0,0,-1,0,288)" d="M42.12 276.48H38.62"/>
<path transform="matrix(1,0,0,-1,0,288)" stroke-width=".8" stroke-linecap="butt" stroke-linejoin="round" fill="none" stroke="#000000" d="M42.12 276.48H38.62"/>
<use data-text="1" xlink:href="#font_1_49" transform="matrix(10,0,0,-10,19.21375,15.316864)"/>
<use data-text="." xlink:href="#font_1_46" transform="matrix(10,0,0,-10,25.573752,15.316864)"/>
<use data-text="0" xlink:href="#font_1_48" transform="matrix(10,0,0,-10,28.753752,15.316864)"/>
<use data-text="I" xlink:href="#font_1_73" transform="matrix(0,-10,-10,-0,13.135625,185.74314)"/>
<use data-text="m" xlink:href="#font_1_109" transform="matrix(0,-10,-10,-0,13.135625,182.79314)"/>
<use data-text="p" xlink:href="#font_1_112" transform="matrix(0,-10,-10,-0,13.135625,173.05313)"/>
<use data-text="u" xlink:href="#font_1_117" transform="matrix(0,-10,-10,-0,13.135625,166.70313)"/>
<use data-text="l" xlink:href="#font_1_108" transform="matrix(0,-10,-10,-0,13.135625,160.36313)"/>
<use data-text="s" xlink:href="#font_1_115" transform="matrix(0,-10,-10,-0,13.135625,157.58313)"/>
<use data-text="e" xlink:href="#font_1_101" transform="matrix(0,-10,-10,-0,13.135625,152.37314)"/>
<use data-text=" " xlink:href="#font_1_32" transform="matrix(0,-10,-10,-0,13.135625,146.22313)"/>
<use data-text="a" xlink:href="#font_1_97" transform="matrix(0,-10,-10,-0,13.135625,143.04312)"/>
<use data-text="m" xlink:href="#font_1_109" transform="matrix(0,-10,-10,-0,13.135625,136.91313)"/>
<use data-text="p" xlink:href="#font_1_112" transform="matrix(0,-10,-10,-0,13.135625,127.17313)"/>
<use data-text="l" xlink:href="#font_1_108" transform="matrix(0,-10,-10,-0,13.135625,120.82313)"/>
<use data-text="i" xlink:href="#font_1_105" transform="matrix(0,-10,-10,-0,13.135625,118.04313)"/>
<use data-text="t" xlink:href="#font_1_116" transform="matrix(0,-10,-10,-0,13.135625,115.26313)"/>
<use data-text="u" xlink:href="#font_1_117" transform="matrix(0,-10,-10,-0,13.135625,111.34313)"/>
<use data-text="d" xlink:href="#font_1_100" transform="matrix(0,-10,-10,-0,13.135625,105.00313)"/>
<use data-text="e" xlink:href="#font_1_101" transform="matrix(0,-10,-10,-0,13.135625,98.65313)"/>
<use data-text="," xlink:href="#font_1_44" transform="matrix(0,-10,-10,-0,13.135625,92.50313)"/>
<use data-text=" " xlink:href="#font_1_32" transform="matrix(0,-10,-10,-0,13.135625,89.32313)"/>
<use data-text="m" xlink:href="#font_1_109" transform="matrix(0,-10,-10,-0,13.135625,86.14313)"/>
<g clip-path="url(#clip_5)">
<path transform="matrix(1,0,0,-1,0,288)" stroke-width="1.5" stroke-linecap="square" stroke-linejoin="round" fill="none" stroke="#1f77b4" d="M42.12 37.44H53.426885 64.733768 75.791759 86.84975 97.907749 108.965747 120.02374 131.08176 142.13976 153.19777 164.25579 175.3138 186.37183L197.42984 276.48 208.48787 37.44H219.5459 230.60393 241.66196 252.72 263.77806 274.83607 285.8941 296.95213 308.01017 319.06819 330.1262 341.1842 352.24223 363.30024 374.35826 385.41627 396.47428 407.53227 418.59025 429.64826 440.70625 452.01313 463.32"/>
</g>
<g clip-path="url(#clip_6)">
<path transform="matrix(1,0,0,-1,0,288)" stroke-width="1.5" stroke-linecap="square" stroke-linejoin="round" fill="none" stroke="#ff7f0e" d="M42.12 37.44H53.426885 64.733768 75.791759 86.84975 97.907749 108.965747 120.02374 131.08176 142.13976 153.19777 164.25579 175.3138 186.37183 197.42984 208.48787L219.5459 276.48 230.60393 37.44H241.66196 252.72 263.77806 274.83607 285.8941 296.95213 308.01017 319.06819 330.1262 341.1842 352.24223 363.30024 374.35826 385.41627 396.47428 407.53227 418.59025 429.64826 440.70625 452.01313 463.32"/>
</g>
<g clip-path="url(#clip_7)">
<path transform="matrix(1,0,0,-1,0,288)" stroke-width="1.5" stroke-linecap="square" stroke-linejoin="round" fill="none" stroke="#2ca02c" d="M42.12 37.44H53.426885 64.733768 75.791759 86.84975 97.907749 108.965747 120.02374 131.08176 142.13976 153.19777 164.25579 175.3138 186.37183 197.42984 208.48787 219.5459 230.60393L241.66196 276.48 252.72 37.44H263.77806 274.83607 285.8941 296.95213 308.01017 319.06819 330.1262 341.1842 352.24223 363.30024 374.35826 385.41627 396.47428 407.53227 418.59025 429.64826 440.70625 452.01313 463.32"/>
</g>
<g clip-path="url(#clip_8)">
<path transform="matrix(1,0,0,-1,0,288)" stroke-width="1.5" stroke-linecap="square" stroke-linejoin="round" fill="none" stroke="#d62728" d="M42.12 37.44H53.426885 64.733768 75.791759 86.84975 97.907749 108.965747 120.02374 131.08176 142.13976 153.19777 164.25579 175.3138 186.37183 197.42984 208.48787 219.5459 230.60393 241.66196 252.72L263.77806 276.48 274.83607 37.44H285.8941 296.95213 308.01017 319.06819 330.1262 341.1842 352.24223 363.30024 374.35826 385.41627 396.47428 407.53227 418.59025 429.64826 440.70625 452.01313 463.32"/>
</g>
<g clip-path="url(#clip_9)">
<path transform="matrix(1,0,0,-1,0,288)" stroke-width="1.5" stroke-linecap="square" stroke-linejoin="round" fill="none" stroke="#9467bd" d="M42.12 37.44H53.426885 64.733768 75.791759 86.84975 97.907749 108.965747 120.02374 131.08176 142.13976 153.19777 164.25579 175.3138 186.37183 197.42984 208.48787 219.5459 230.60393 241.66196 252.72 263.77806 274.83607L285.8941 276.48 296.95213 37.44H308.01017 319.06819 330.1262 341.1842 352.24223 363.30024 374.35826 385.41627 396.47428 407.53227 418.59025 429.64826 440.70625 452.01313 463.32"/>
</g>
<g clip-path="url(#clip_10)">
<path transform="matrix(1,0,0,-1,0,288)" stroke-width="1.5" stroke-linecap="square" stroke-linejoin="round" fill="none" stroke="#8c564b" d="M42.12 37.44H53.426885 64.733768 75.791759 86.84975 97.907749 108.965747 120.02374 131.08176 142.13976 153.19777 164.25579 175.3138 186.37183 197.42984 208.48787 219.5459 230.60393 241.66196 252.72 263.77806 274.83607 285.8941 296.95213L308.01017 276.48 319.06819 37.44H330.1262 341.1842 352.24223 363.30024 374.35826 385.41627 396.47428 407.53227 418.59025 429.64826 440.70625 452.01313 463.32"/>
</g>
<g clip-path="url(#clip_11)">
<path transform="matrix(1,0,0,-1,0,288)" stroke-width="1.5" stroke-linecap="square" stroke-linejoin="round" fill="none" stroke="#e377c2" d="M42.12 37.44H53.426885 64.733768 75.791759 86.84975 97.907749 108.965747 120.02374 131.08176 142.13976 153.19777 164.25579 175.3138L186.37183 276.48 197.42984 37.44H208.48787 219.5459 230.60393 241.66196 252.72 263.77806 274.83607 285.8941 296.95213 308.01017 319.06819 330.1262 341.1842 352.24223 363.30024 374.35826 385.41627 396.47428 407.53227 418.59025 429.64826 440.70625 452.01313 463.32"/>
</g>
<g clip-path="url(#clip_12)">
<path transform="matrix(1,0,0,-1,0,288)" stroke-width="1.5" stroke-linecap="square" stroke-linejoin="round" fill="none" stroke="#919191" d="M42.12 37.44H53.426885 64.733768 75.791759 86.84975 97.907749 108.965747 120.02374 131.08176 142.13976 153.19777 164.25579 175.3138 186.37183 197.42984L208.48787 276.48 219.5459 37.44H230.60393 241.66196 252.72 263.77806 274.83607 285.8941 296.95213 308.01017 319.06819 330.1262 341.1842 352.24223 363.30024 374.35826 385.41627 396.47428 407.53227 418.59025 429.64826 440.70625 452.01313 463.32"/>
</g>
<g clip-path="url(#clip_13)">
<path transform="matrix(1,0,0,-1,0,288)" stroke-width="1.5" stroke-linecap="square" stroke-linejoin="round" fill="none" stroke="#bcbd22" d="M42.12 37.44H53.426885 64.733768 75.791759 86.84975 97.907749 108.965747 120.02374 131.08176 142.13976 153.19777 164.25579 175.3138 186.37183 197.42984 208.48787 219.5459L230.60393 276.48 241.66196 37.44H252.72 263.77806 274.83607 285.8941 296.95213 308.01017 319.06819 330.1262 341.1842 352.24223 363.30024 374.35826 385.41627 396.47428 407.53227 418.59025 429.64826 440.70625 452.01313 463.32"/>
</g>
<g clip-path="url(#clip_14)">
<path transform="matrix(1,0,0,-1,0,288)" stroke-width="1.5" stroke-linecap="square" stroke-linejoin="round" fill="none" stroke="#17becf" d="M42.12 37.44H53.426885 64.733768 75.791759 86.84975 97.907749 108.965747 120.02374 131.08176 142.13976 153.19777 164.25579 175.3138 186.37183 197.42984 208.48787 219.5459 230.60393 241.66196L252.72 276.48 263.77806 37.44H274.83607 285.8941 296.95213 308.01017 319.06819 330.1262 341.1842 352.24223 363.30024 374.35826 385.41627 396.47428 407.53227 418.59025 429.64826 440.70625 452.01313 463.32"/>
</g>
<g clip-path="url(#clip_15)">
<path transform="matrix(1,0,0,-1,0,288)" stroke-width="1.5" stroke-linecap="square" stroke-linejoin="round" fill="none" stroke="#1f77b4" d="M42.12 37.44H53.426885 64.733768 75.791759 86.84975 97.907749 108.965747 120.02374 131.08176 142.13976 153.19777 164.25579 175.3138 186.37183 197.42984 208.48787 219.5459 230.60393 241.66196 252.72 263.77806L274.83607 276.48 285.8941 37.44H296.95213 308.01017 319.06819 330.1262 341.1842 352.24223 363.30024 374.35826 385.41627 396.47428 407.53227 418.59025 429.64826 440.70625 452.01313 463.32"/>
</g>
<g clip-path="url(#clip_16)">
<path transform="matrix(1,0,0,-1,0,288)" stroke-width="1.5" stroke-linecap="square" stroke-linejoin="round" fill="none" stroke="#ff7f0e" d="M42.12 37.44H53.426885 64.733768 75.791759 86.84975 97.907749 108.965747 120.02374 131.08176 142.13976 153.19777 164.25579 175.3138 186.37183 197.42984 208.48787 219.5459 230.60393 241.66196 252.72 263.77806 274.83607 285.8941L296.95213 276.48 308.01017 37.44H319.06819 330.1262 341.1842 352.24223 363.30024 374.35826 385.41627 396.47428 407.53227 418.59025 429.64826 440.70625 452.01313 463.32"/>
</g>
<g clip-path="url(#clip_17)">
<path transform="matrix(1,0,0,-1,0,288)" stroke-width="1.5" stroke-linecap="square" stroke-linejoin="round" fill="none" stroke="#2ca02c" d="M42.12 37.44H53.426885 64.733768 75.791759 86.84975 97.907749 108.965747 120.02374 131.08176 142.13976 153.19777 164.25579 175.3138 186.37183 197.42984 208.48787 219.5459 230.60393 241.66196 252.72 263.77806 274.83607 285.8941 296.95213 308.01017L319.06819 276.48 330.1262 37.44H341.1842 352.24223 363.30024 374.35826 385.41627 396.47428 407.53227 418.59025 429.64826 440.70625 452.01313 463.32"/>
</g>
<path transform="matrix(1,0,0,-1,0,288)" stroke-width=".8" stroke-linecap="square" stroke-miterlimit="10" stroke-linejoin="miter" fill="none" stroke="#000000" d="M42.12 37.44V276.48"/>
<path transform="matrix(1,0,0,-1,0,288)" stroke-width=".8" stroke-linecap="square" stroke-miterlimit="10" stroke-linejoin="miter" fill="none" stroke="#000000" d="M42.12 37.44H463.32"/>
</svg>
