<svg xmlns="http://www.w3.org/2000/svg" xmlns:xlink="http://www.w3.org/1999/xlink" version="1.1" width="468" height="288" viewBox="0 0 468 288">
<defs>
<clipPath id="clip_1">
<path transform="matrix(1,0,0,-1,0,288)" d="M47.378126 41.14375H457.19999V277.19999H47.378126Z"/>
</clipPath>
<g id="font_2_50">
<path transform="matrix(.001,0,0,.001,0,0)" d="M192 83H536V0H73V83C110 121 161 173 226 239 290 304 331 346 348 365 380 400 402 430 414 455 426 479 433 504 433 528 433 566 419 598 392 622 365 646 330 659 286 659 255 659 222 653 188 643 154 632 117 616 78 594V694C118 710 155 722 189 730 223 738 255 742 284 742 359 742 419 723 464 685 509 647 532 597 532 534 532 504 526 475 515 449 504 422 484 390 454 354 446 344 420 317 376 272 332 227 271 164 192 83Z"/>
</g>
<g id="font_2_48">
<path transform="matrix(.001,0,0,.001,0,0)" d="M318 664C267 664 229 639 203 589 177 539 165 464 165 364 165 264 177 189 203 139 229 89 267 64 318 64 369 64 407 89 433 139 458 189 471 264 471 364 471 464 458 539 433 589 407 639 369 664 318 664ZM318 742C399 742 461 709 505 645 548 580 570 486 570 364 570 241 548 147 505 83 461 19 399-13 317-13 235-13 173 19 130 83 87 147 66 241 66 364 66 486 87 580 130 645 173 709 236 742 318 742Z"/>
</g>
<clipPath id="clip_3">
<path transform="matrix(.01,0,0,-.01,70.98307,261.45)" d="M-1021-463H1794V1233H-1021Z"/>
</clipPath>
<g id="font_2_49">
<path transform="matrix(.001,0,0,.001,0,0)" d="M124 83H285V639L110 604V694L284 729H383V83H544V0H124V83Z"/>
</g>
<clipPath id="clip_4">
<path transform="matrix(.01,0,0,-.01,139.28672,261.45)" d="M-1021-463H1794V1233H-1021Z"/>
</clipPath>
<g id="font_2_51">
<path transform="matrix(.001,0,0,.001,0,0)" d="M406 393C453 383 490 362 516 330 542 298 556 258 556 212 556 140 531 84 482 45 432 6 362-13 271-13 240-13 208-10 176-4 144 1 110 10 76 22V117C103 101 133 89 166 81 198 73 232 69 268 69 330 69 377 81 409 105 441 129 458 165 458 212 458 254 443 288 413 312 383 336 341 349 287 349H202V430H291C339 430 376 439 402 459 428 478 441 506 441 543 441 580 427 609 401 629 374 649 336 659 287 659 260 659 231 656 200 650 169 644 135 635 98 623V711C135 721 170 729 203 734 235 739 266 742 296 742 370 742 429 725 473 691 517 657 539 611 539 553 539 513 527 479 504 451 481 423 448 403 406 393Z"/>
</g>
<g id="font_2_68">
<path transform="matrix(.001,0,0,.001,0,0)" d="M197 648V81H316C416 81 490 103 537 149 583 195 607 267 607 365 607 463 583 534 537 580 490 625 416 648 316 648H197ZM98 729H301C442 729 546 699 612 641 678 582 711 490 711 365 711 239 677 147 611 88 545 29 441 0 301 0H98V729Z"/>
</g>
<g id="font_2_105">
<path transform="matrix(.001,0,0,.001,0,0)" d="M94 547H184V0H94V547ZM94 760H184V646H94V760Z"/>
</g>
<g id="font_2_115">
<path transform="matrix(.001,0,0,.001,0,0)" d="M443 531V446C417 458 391 468 364 475 336 481 308 485 279 485 234 485 200 478 178 464 156 450 145 430 145 403 145 382 153 366 169 354 185 342 217 330 265 320L296 313C360 299 405 279 432 255 458 230 472 195 472 151 472 100 452 60 412 31 372 1 316-13 246-13 216-13 186-10 154-5 122 0 89 8 54 20V113C87 95 120 82 152 74 184 65 216 61 248 61 290 61 323 68 346 82 368 96 380 117 380 144 380 168 371 187 355 200 339 213 303 226 247 238L216 245C160 257 119 275 95 299 70 323 58 356 58 399 58 450 76 490 112 518 148 546 200 560 268 560 301 560 332 557 362 552 391 547 418 540 443 531Z"/>
</g>
<g id="font_2_116">
<path transform="matrix(.001,0,0,.001,0,0)" d="M183 702V547H368V477H183V180C183 135 189 106 201 94 213 81 238 75 276 75H368V0H276C206 0 158 13 132 39 106 65 93 112 93 180V477H27V547H93V702H183Z"/>
</g>
<g id="font_2_97">
<path transform="matrix(.001,0,0,.001,0,0)" d="M343 275C270 275 220 266 192 250 164 233 150 205 150 165 150 133 160 107 181 89 202 70 231 61 267 61 317 61 357 78 387 114 417 149 432 196 432 255V275H343ZM522 312V0H432V83C411 49 385 25 355 10 325-5 287-13 243-13 187-13 142 2 109 33 76 64 60 106 60 159 60 220 80 266 122 298 163 329 224 345 306 345H432V354C432 395 418 427 391 450 364 472 326 484 277 484 245 484 215 480 185 472 155 464 127 453 100 439V522C132 534 164 544 195 550 226 556 256 560 286 560 365 560 424 539 463 498 502 457 522 395 522 312Z"/>
</g>
<g id="font_2_110">
<path transform="matrix(.001,0,0,.001,0,0)" d="M549 330V0H459V327C459 379 448 417 428 443 408 469 378 482 338 482 289 482 251 466 223 435 195 404 181 362 181 309V0H91V547H181V462C202 494 227 519 257 535 286 551 320 560 358 560 420 560 468 540 500 501 532 462 549 405 549 330Z"/>
</g>
<g id="font_2_99">
<path transform="matrix(.001,0,0,.001,0,0)" d="M488 526V442C462 456 437 466 411 473 385 480 360 484 334 484 276 484 230 465 198 428 166 391 150 339 150 273 150 206 166 154 198 117 230 80 276 62 334 62 360 62 385 65 411 72 437 79 462 90 488 104V21C462 9 436 0 410-5 383-10 354-13 324-13 242-13 176 12 128 64 79 115 55 185 55 273 55 362 79 432 128 483 177 534 244 560 330 560 358 560 385 557 411 551 437 545 463 537 488 526Z"/>
</g>
<g id="font_2_101">
<path transform="matrix(.001,0,0,.001,0,0)" d="M562 296V252H149C153 190 171 142 205 110 238 78 284 62 344 62 378 62 412 66 444 74 476 82 509 95 541 113V28C509 14 476 3 442-3 408-9 373-13 339-13 251-13 182 12 131 62 80 112 55 181 55 268 55 357 79 428 127 481 175 533 241 560 323 560 397 560 455 536 498 489 540 441 562 377 562 296ZM472 322C471 371 457 410 431 440 404 469 368 484 324 484 274 484 234 469 204 441 174 413 156 373 152 322H472Z"/>
</g>
<g id="font_2_32">
</g>
<g id="font_2_108">
<path transform="matrix(.001,0,0,.001,0,0)" d="M94 760H184V0H94V760Z"/>
</g>
<g id="font_2_111">
<path transform="matrix(.001,0,0,.001,0,0)" d="M306 484C258 484 220 465 192 427 164 389 150 338 150 273 150 207 163 156 191 118 219 80 257 62 306 62 354 62 392 80 420 118 448 156 462 207 462 273 462 337 448 389 420 427 392 465 354 484 306 484ZM306 560C384 560 445 534 490 484 534 433 557 363 557 273 557 183 534 113 490 63 445 12 384-13 306-13 227-13 165 12 121 63 77 113 55 183 55 273 55 363 77 433 121 484 165 534 227 560 306 560Z"/>
</g>
<g id="font_2_103">
<path transform="matrix(.001,0,0,.001,0,0)" d="M454 280C454 344 440 395 414 431 387 467 349 485 301 485 253 485 215 467 188 431 161 395 148 344 148 280 148 215 161 165 188 129 215 93 253 75 301 75 349 75 387 93 414 129 440 165 454 215 454 280ZM544 68C544-24 523-93 482-139 440-184 377-207 292-207 260-207 231-204 203-200 175-195 147-188 121-178V-91C147-105 173-115 199-122 225-129 251-133 278-133 336-133 380-117 410-87 439-56 454-10 454 52V96C435 64 411 40 382 24 353 8 319 0 279 0 211 0 157 25 116 76 75 127 55 195 55 280 55 364 75 432 116 483 157 534 211 560 279 560 319 560 353 552 382 536 411 520 435 496 454 464V547H544V68Z"/>
</g>
<g id="font_2_114">
<path transform="matrix(.001,0,0,.001,0,0)" d="M411 463C401 469 390 473 378 476 366 478 353 480 339 480 288 480 249 463 222 430 194 397 181 350 181 288V0H91V547H181V462C199 495 224 520 254 536 284 552 321 560 365 560 371 560 378 559 386 559 393 558 401 557 411 555V463Z"/>
</g>
<g id="font_2_107">
<path transform="matrix(.001,0,0,.001,0,0)" d="M91 760H181V311L449 547H564L274 291 576 0H459L181 267V0H91V760Z"/>
</g>
<g id="font_2_44">
<path transform="matrix(.001,0,0,.001,0,0)" d="M117 124H220V40L140-115H77L117 40V124Z"/>
</g>
<g id="font_2_109">
<path transform="matrix(.001,0,0,.001,0,0)" d="M520 442C542 482 569 511 600 531 631 550 668 560 711 560 767 560 811 540 842 500 873 460 889 403 889 330V0H799V327C799 379 789 418 771 444 752 469 724 482 686 482 639 482 602 466 575 435 548 404 535 362 535 309V0H445V327C445 379 435 418 417 444 398 469 369 482 331 482 285 482 248 466 221 435 194 404 181 362 181 309V0H91V547H181V462C201 495 226 520 255 536 283 552 317 560 357 560 397 560 430 550 458 530 486 510 506 480 520 442Z"/>
</g>
<g id="font_2_46">
<path transform="matrix(.001,0,0,.001,0,0)" d="M107 124H210V0H107V124Z"/>
</g>
<g id="font_2_52">
<path transform="matrix(.001,0,0,.001,0,0)" d="M378 643 129 254H378V643ZM352 729H476V254H580V172H476V0H378V172H49V267L352 729Z"/>
</g>
<g id="font_2_54">
<path transform="matrix(.001,0,0,.001,0,0)" d="M330 404C286 404 251 388 225 358 199 328 186 286 186 234 186 181 199 139 225 109 251 79 286 64 330 64 374 64 409 79 435 109 461 139 474 181 474 234 474 286 461 328 435 358 409 388 374 404 330 404ZM526 713V623C501 635 476 644 451 650 425 656 400 659 376 659 310 659 260 637 226 593 192 549 172 482 168 394 187 422 211 444 240 459 269 474 301 482 336 482 409 482 467 459 509 415 551 371 573 310 573 234 573 159 550 99 506 54 462 9 403-13 330-13 246-13 181 19 137 83 92 147 70 241 70 364 70 479 97 571 152 639 206 707 280 742 372 742 396 742 421 739 447 735 472 730 498 723 526 713Z"/>
</g>
<g id="font_2_56">
<path transform="matrix(.001,0,0,.001,0,0)" d="M318 346C271 346 234 333 207 308 180 283 167 249 167 205 167 161 180 126 207 101 234 76 271 64 318 64 364 64 401 76 428 102 455 127 469 161 469 205 469 249 455 283 429 308 402 333 365 346 318 346ZM219 388C177 398 144 418 120 447 96 476 85 511 85 553 85 611 105 657 147 691 188 725 245 742 318 742 390 742 447 725 489 691 530 657 551 611 551 553 551 511 539 476 515 447 491 418 459 398 417 388 464 377 501 355 528 323 554 291 568 251 568 205 568 134 546 80 503 43 459 5 397-13 317-13 237-13 175 5 132 43 89 80 68 134 68 205 68 251 81 291 108 323 134 355 171 377 219 388ZM183 544C183 506 194 476 218 455 242 434 275 424 318 424 360 424 393 434 417 455 441 476 453 506 453 544 453 582 441 611 417 632 393 653 360 664 318 664 275 664 242 653 218 632 194 611 183 582 183 544Z"/>
</g>
<g id="font_2_76">
<path transform="matrix(.001,0,0,.001,0,0)" d="M98 729H197V83H552V0H98V729Z"/>
</g>
<g id="font_2_102">
<path transform="matrix(.001,0,0,.001,0,0)" d="M371 760V685H285C253 685 230 678 218 665 205 652 199 629 199 595V547H347V477H199V0H109V477H23V547H109V585C109 645 123 690 151 718 179 746 224 760 286 760H371Z"/>
</g>
<g id="font_2_45">
<path transform="matrix(.001,0,0,.001,0,0)" d="M49 314H312V234H49V314Z"/>
</g>
<g id="font_2_112">
<path transform="matrix(.001,0,0,.001,0,0)" d="M181 82V-207H91V547H181V464C199 496 223 520 252 536 281 552 316 560 356 560 422 560 476 533 518 481 559 428 580 359 580 273 580 187 559 117 518 65 476 13 422-13 356-13 316-13 281-5 252 10 223 25 199 49 181 82ZM487 273C487 339 473 390 446 428 418 466 381 485 334 485 286 485 249 466 222 428 194 390 181 339 181 273 181 207 194 155 222 117 249 79 286 61 334 61 381 61 418 79 446 117 473 155 487 207 487 273Z"/>
</g>
<clipPath id="clip_5">
<path transform="matrix(1,0,0,-1,0,288)" d="M47.378126 41.14375H457.19999V277.19999H47.378126Z"/>
</clipPath>
<clipPath id="clip_6">
<path transform="matrix(1,0,0,-1,0,288)" d="M47.378126 41.14375H457.19999V277.19999H47.378126Z"/>
</clipPath>
<clipPath id="clip_7">
<path transform="matrix(1,0,0,-1,0,288)" d="M47.378126 41.14375H457.19999V277.19999H47.378126Z"/>
</clipPath>
<clipPath id="clip_8">
<path transform="matrix(1,0,0,-1,0,288)" d="M47.378126 41.14375H457.19999V277.19999H47.378126Z"/>
</clipPath>
<clipPath id="clip_9">
<path transform="matrix(1,0,0,-1,0,288)" d="M47.378126 41.14375H457.19999V277.19999H47.378126Z"/>
</clipPath>
<g id="font_2_69">
<path transform="matrix(.001,0,0,.001,0,0)" d="M98 729H559V646H197V430H544V347H197V83H568V0H98V729Z"/>
</g>
<g id="font_2_120">
<path transform="matrix(.001,0,0,.001,0,0)" d="M549 547 351 281 559 0H453L294 215 135 0H29L241 286 47 547H153L298 352 443 547H549Z"/>
</g>
<g id="font_2_80">
<path transform="matrix(.001,0,0,.001,0,0)" d="M197 648V374H321C367 374 402 385 427 409 452 433 465 467 465 511 465 555 452 588 427 612 402 636 367 648 321 648H197ZM98 729H321C402 729 464 710 506 673 548 636 569 582 569 511 569 439 548 384 506 348 464 311 402 293 321 293H197V0H98V729Z"/>
</g>
<g id="font_2_98">
<path transform="matrix(.001,0,0,.001,0,0)" d="M487 273C487 339 473 390 446 428 418 466 381 485 334 485 286 485 249 466 222 428 194 390 181 339 181 273 181 207 194 155 222 117 249 79 286 61 334 61 381 61 418 79 446 117 473 155 487 207 487 273ZM181 464C199 496 223 520 252 536 281 552 316 560 356 560 422 560 476 533 518 481 559 428 580 359 580 273 580 187 559 117 518 65 476 13 422-13 356-13 316-13 281-5 252 10 223 25 199 49 181 82V0H91V760H181V464Z"/>
</g>
<g id="font_2_100">
<path transform="matrix(.001,0,0,.001,0,0)" d="M454 464V760H544V0H454V82C435 49 411 25 382 10 353-5 319-13 279-13 213-13 159 13 117 65 75 117 55 187 55 273 55 359 75 428 117 481 159 533 213 560 279 560 319 560 353 552 382 536 411 520 435 496 454 464ZM148 273C148 207 161 155 188 117 215 79 252 61 300 61 348 61 385 79 413 117 440 155 454 207 454 273 454 339 440 390 413 428 385 466 348 485 300 485 252 485 215 466 188 428 161 390 148 339 148 273Z"/>
</g>
<g id="font_2_77">
<path transform="matrix(.001,0,0,.001,0,0)" d="M98 729H245L431 233 618 729H765V0H669V640L481 140H382L194 640V0H98V729Z"/>
</g>
<g id="font_2_177">
<path transform="matrix(.001,0,0,.001,0,0)" d="M460 627V438H732V355H460V166H378V355H106V438H378V627H460ZM106 83H732V0H106V83Z"/>
</g>
<g id="font_2_118">
<path transform="matrix(.001,0,0,.001,0,0)" d="M30 547H125L296 88 467 547H562L357 0H235L30 547Z"/>
</g>
</defs>
<path transform="matrix(1,0,0,-1,0,288)" d="M0 0H468V288H0Z" fill="#ffffff"/>
<path transform="matrix(1,0,0,-1,0,288)" d="M47.378126 41.14375H457.2V277.2H47.378126Z" fill="#ffffff"/>
<g clip-path="url(#clip_1)">
<path transform="matrix(1,0,0,-1,0,288)" d="M-294.1401 66.8633V66.8633H-266.6365-239.13289-212.2347-185.33652-158.43831-131.54012-104.64189-77.743679-50.84544-23.947207 2.951041 29.849289L56.74755 62.214368 83.64581 79.51792 110.54408 219.37134 137.44235 193.09168 164.34066 126.66337 191.23894 158.01837 218.13724 209.43645 245.03554 196.09563 271.93385 205.92139 298.83213 214.40488 325.7304 168.79383 352.62867 82.49647 379.52693 60.992189 406.4252 66.8633H433.32344 460.22169 487.11994 514.0181 540.9164 567.8146 594.71279 621.611 648.50918 675.40737 702.91098 730.4146 702.91098 675.40737 648.50918 621.611 594.71279 567.8146 540.9164 514.0181 487.11994 460.22169 433.32344 406.4252L379.52693 73.83681 352.62867 91.19477 325.7304 200.0977 298.83213 225.22347 271.93385 217.3665 245.03554 209.34111 218.13724 241.5739 191.23894 171.75319 164.34066 161.94152 137.44235 207.27918 110.54408 241.20786 83.64581 84.41934 56.74755 68.88057 29.849289 66.8633H2.951041-23.947207-50.84544-77.743679-104.64189-131.54012-158.43831-185.33652-212.2347-239.13289-266.6365-294.1401Z" fill="#ffa500" fill-opacity=".5"/>
</g>
<path transform="matrix(1,0,0,-1,0,288)" d="M81.529949 41.14375V37.64375"/>
<path transform="matrix(1,0,0,-1,0,288)" stroke-width=".8" stroke-linecap="butt" stroke-linejoin="round" fill="none" stroke="#000000" d="M81.529949 41.14375V37.64375"/>
<use data-text="2" xlink:href="#font_2_50" transform="matrix(10,0,0,-10,79.36198,261.45)"/>
<use data-text="0" xlink:href="#font_2_48" transform="matrix(10,0,0,-10,85.72198,261.45)"/>
<g clip-path="url(#clip_3)">
<path transform="matrix(.01,0,0,-.01,70.98307,261.45)" d="M106 355H732V272H106V355Z"/>
</g>
<path transform="matrix(1,0,0,-1,0,288)" d="M149.83359 41.14375V37.64375"/>
<path transform="matrix(1,0,0,-1,0,288)" stroke-width=".8" stroke-linecap="butt" stroke-linejoin="round" fill="none" stroke="#000000" d="M149.83359 41.14375V37.64375"/>
<use data-text="1" xlink:href="#font_2_49" transform="matrix(10,0,0,-10,147.66562,261.45)"/>
<use data-text="0" xlink:href="#font_2_48" transform="matrix(10,0,0,-10,154.02562,261.45)"/>
<g clip-path="url(#clip_4)">
<path transform="matrix(.01,0,0,-.01,139.28672,261.45)" d="M106 355H732V272H106V355Z"/>
</g>
<path transform="matrix(1,0,0,-1,0,288)" d="M218.13724 41.14375V37.64375"/>
<path transform="matrix(1,0,0,-1,0,288)" stroke-width=".8" stroke-linecap="butt" stroke-linejoin="round" fill="none" stroke="#000000" d="M218.13724 41.14375V37.64375"/>
<use data-text="0" xlink:href="#font_2_48" transform="matrix(10,0,0,-10,214.95755,261.45)"/>
<path transform="matrix(1,0,0,-1,0,288)" d="M286.4409 41.14375V37.64375"/>
<path transform="matrix(1,0,0,-1,0,288)" stroke-width=".8" stroke-linecap="butt" stroke-linejoin="round" fill="none" stroke="#000000" d="M286.4409 41.14375V37.64375"/>
<use data-text="1" xlink:href="#font_2_49" transform="matrix(10,0,0,-10,280.0815,261.45)"/>
<use data-text="0" xlink:href="#font_2_48" transform="matrix(10,0,0,-10,286.44154,261.45)"/>
<path transform="matrix(1,0,0,-1,0,288)" d="M354.74455 41.14375V37.64375"/>
<path transform="matrix(1,0,0,-1,0,288)" stroke-width=".8" stroke-linecap="butt" stroke-linejoin="round" fill="none" stroke="#000000" d="M354.74455 41.14375V37.64375"/>
<use data-text="2" xlink:href="#font_2_50" transform="matrix(10,0,0,-10,348.38517,261.45)"/>
<use data-text="0" xlink:href="#font_2_48" transform="matrix(10,0,0,-10,354.74519,261.45)"/>
<path transform="matrix(1,0,0,-1,0,288)" d="M423.0482 41.14375V37.64375"/>
<path transform="matrix(1,0,0,-1,0,288)" stroke-width=".8" stroke-linecap="butt" stroke-linejoin="round" fill="none" stroke="#000000" d="M423.0482 41.14375V37.64375"/>
<use data-text="3" xlink:href="#font_2_51" transform="matrix(10,0,0,-10,416.6888,261.45)"/>
<use data-text="0" xlink:href="#font_2_48" transform="matrix(10,0,0,-10,423.04884,261.45)"/>
<use data-text="D" xlink:href="#font_2_68" transform="matrix(10,0,0,-10,188.60157,275.1219)"/>
<use data-text="i" xlink:href="#font_2_105" transform="matrix(10,0,0,-10,196.30156,275.1219)"/>
<use data-text="s" xlink:href="#font_2_115" transform="matrix(10,0,0,-10,199.08156,275.1219)"/>
<use data-text="t" xlink:href="#font_2_116" transform="matrix(10,0,0,-10,204.29157,275.1219)"/>
<use data-text="a" xlink:href="#font_2_97" transform="matrix(10,0,0,-10,208.21157,275.1219)"/>
<use data-text="n" xlink:href="#font_2_110" transform="matrix(10,0,0,-10,214.34157,275.1219)"/>
<use data-text="c" xlink:href="#font_2_99" transform="matrix(10,0,0,-10,220.68157,275.1219)"/>
<use data-text="e" xlink:href="#font_2_101" transform="matrix(10,0,0,-10,226.18157,275.1219)"/>
<use data-text=" " xlink:href="#font_2_32" transform="matrix(10,0,0,-10,232.33158,275.1219)"/>
<use data-text="a" xlink:href="#font_2_97" transform="matrix(10,0,0,-10,235.51157,275.1219)"/>
<use data-text="l" xlink:href="#font_2_108" transform="matrix(10,0,0,-10,241.64157,275.1219)"/>
<use data-text="o" xlink:href="#font_2_111" transform="matrix(10,0,0,-10,244.42157,275.1219)"/>
<use data-text="n" xlink:href="#font_2_110" transform="matrix(10,0,0,-10,250.54157,275.1219)"/>
<use data-text="g" xlink:href="#font_2_103" transform="matrix(10,0,0,-10,256.88157,275.1219)"/>
<use data-text=" " xlink:href="#font_2_32" transform="matrix(10,0,0,-10,263.23158,275.1219)"/>
<use data-text="s" xlink:href="#font_2_115" transform="matrix(10,0,0,-10,266.41157,275.1219)"/>
<use data-text="t" xlink:href="#font_2_116" transform="matrix(10,0,0,-10,271.62156,275.1219)"/>
<use data-text="r" xlink:href="#font_2_114" transform="matrix(10,0,0,-10,275.54158,275.1219)"/>
<use data-text="i" xlink:href="#font_2_105" transform="matrix(10,0,0,-10,279.65156,275.1219)"/>
<use data-text="k" xlink:href="#font_2_107" transform="matrix(10,0,0,-10,282.43156,275.1219)"/>
<use data-text="e" xlink:href="#font_2_101" transform="matrix(10,0,0,-10,287.8778,275.1219)"/>
<use data-text="," xlink:href="#font_2_44" transform="matrix(10,0,0,-10,294.0278,275.1219)"/>
<use data-text=" " xlink:href="#font_2_32" transform="matrix(10,0,0,-10,297.20783,275.1219)"/>
<use data-text="k" xlink:href="#font_2_107" transform="matrix(10,0,0,-10,300.38783,275.1219)"/>
<use data-text="m" xlink:href="#font_2_109" transform="matrix(10,0,0,-10,306.1778,275.1219)"/>
<path transform="matrix(1,0,0,-1,0,288)" d="M47.378126 66.8633H43.878126"/>
<path transform="matrix(1,0,0,-1,0,288)" stroke-width=".8" stroke-linecap="butt" stroke-linejoin="round" fill="none" stroke="#000000" d="M47.378126 66.8633H43.878126"/>
<use data-text="0" xlink:href="#font_2_48" transform="matrix(10,0,0,-10,24.471875,224.93358)"/>
<use data-text="." xlink:href="#font_2_46" transform="matrix(10,0,0,-10,30.831875,224.93358)"/>
<use data-text="0" xlink:href="#font_2_48" transform="matrix(10,0,0,-10,34.011877,224.93358)"/>
<path transform="matrix(1,0,0,-1,0,288)" d="M47.378126 111.95617H43.878126"/>
<path transform="matrix(1,0,0,-1,0,288)" stroke-width=".8" stroke-linecap="butt" stroke-linejoin="round" fill="none" stroke="#000000" d="M47.378126 111.95617H43.878126"/>
<use data-text="0" xlink:href="#font_2_48" transform="matrix(10,0,0,-10,24.471875,179.8407)"/>
<use data-text="." xlink:href="#font_2_46" transform="matrix(10,0,0,-10,30.831875,179.8407)"/>
<use data-text="2" xlink:href="#font_2_50" transform="matrix(10,0,0,-10,34.011877,179.8407)"/>
<path transform="matrix(1,0,0,-1,0,288)" d="M47.378126 157.04904H43.878126"/>
<path transform="matrix(1,0,0,-1,0,288)" stroke-width=".8" stroke-linecap="butt" stroke-linejoin="round" fill="none" stroke="#000000" d="M47.378126 157.04904H43.878126"/>
<use data-text="0" xlink:href="#font_2_48" transform="matrix(10,0,0,-10,24.471875,134.74784)"/>
<use data-text="." xlink:href="#font_2_46" transform="matrix(10,0,0,-10,30.831875,134.74784)"/>
<use data-text="4" xlink:href="#font_2_52" transform="matrix(10,0,0,-10,34.011877,134.74784)"/>
<path transform="matrix(1,0,0,-1,0,288)" d="M47.378126 202.1419H43.878126"/>
<path transform="matrix(1,0,0,-1,0,288)" stroke-width=".8" stroke-linecap="butt" stroke-linejoin="round" fill="none" stroke="#000000" d="M47.378126 202.1419H43.878126"/>
<use data-text="0" xlink:href="#font_2_48" transform="matrix(10,0,0,-10,24.471875,89.65497)"/>
<use data-text="." xlink:href="#font_2_46" transform="matrix(10,0,0,-10,30.831875,89.65497)"/>
<use data-text="6" xlink:href="#font_2_54" transform="matrix(10,0,0,-10,34.011877,89.65497)"/>
<path transform="matrix(1,0,0,-1,0,288)" d="M47.378126 247.23477H43.878126"/>
<path transform="matrix(1,0,0,-1,0,288)" stroke-width=".8" stroke-linecap="butt" stroke-linejoin="round" fill="none" stroke="#000000" d="M47.378126 247.23477H43.878126"/>
<use data-text="0" xlink:href="#font_2_48" transform="matrix(10,0,0,-10,24.471875,44.562105)"/>
<use data-text="." xlink:href="#font_2_46" transform="matrix(10,0,0,-10,30.831875,44.562105)"/>
<use data-text="8" xlink:href="#font_2_56" transform="matrix(10,0,0,-10,34.011877,44.562105)"/>
<use data-text="L" xlink:href="#font_2_76" transform="matrix(0,-10,-10,-0,18.39375,174.3125)"/>
<use data-text="e" xlink:href="#font_2_101" transform="matrix(0,-10,-10,-0,18.39375,168.91437)"/>
<use data-text="f" xlink:href="#font_2_102" transform="matrix(0,-10,-10,-0,18.39375,162.76438)"/>
<use data-text="t" xlink:href="#font_2_116" transform="matrix(0,-10,-10,-0,18.39375,159.41625)"/>
<use data-text="-" xlink:href="#font_2_45" transform="matrix(0,-10,-10,-0,18.39375,155.49625)"/>
<use data-text="l" xlink:href="#font_2_108" transform="matrix(0,-10,-10,-0,18.39375,151.88625)"/>
<use data-text="a" xlink:href="#font_2_97" transform="matrix(0,-10,-10,-0,18.39375,149.10625)"/>
<use data-text="t" xlink:href="#font_2_116" transform="matrix(0,-10,-10,-0,18.39375,142.97624)"/>
<use data-text="e" xlink:href="#font_2_101" transform="matrix(0,-10,-10,-0,18.39375,139.05625)"/>
<use data-text="r" xlink:href="#font_2_114" transform="matrix(0,-10,-10,-0,18.39375,132.90625)"/>
<use data-text="a" xlink:href="#font_2_97" transform="matrix(0,-10,-10,-0,18.39375,128.79624)"/>
<use data-text="l" xlink:href="#font_2_108" transform="matrix(0,-10,-10,-0,18.39375,122.666248)"/>
<use data-text=" " xlink:href="#font_2_32" transform="matrix(0,-10,-10,-0,18.39375,119.886249)"/>
<use data-text="s" xlink:href="#font_2_115" transform="matrix(0,-10,-10,-0,18.39375,116.70624)"/>
<use data-text="l" xlink:href="#font_2_108" transform="matrix(0,-10,-10,-0,18.39375,111.49625)"/>
<use data-text="i" xlink:href="#font_2_105" transform="matrix(0,-10,-10,-0,18.39375,108.71624)"/>
<use data-text="p" xlink:href="#font_2_112" transform="matrix(0,-10,-10,-0,18.39375,105.93624)"/>
<use data-text="," xlink:href="#font_2_44" transform="matrix(0,-10,-10,-0,18.39375,99.58624)"/>
<use data-text=" " xlink:href="#font_2_32" transform="matrix(0,-10,-10,-0,18.39375,96.40624)"/>
<use data-text="m" xlink:href="#font_2_109" transform="matrix(0,-10,-10,-0,18.39375,93.22624)"/>
<g clip-path="url(#clip_5)">
<path transform="matrix(1,0,0,-1,0,288)" stroke-width="2" stroke-linecap="square" stroke-linejoin="round" fill="none" stroke="#929292" d="M81.529949 66.8633H82.89602L83.579059 67.31423 84.26209 72.04898 85.62817 84.44952 86.99424 98.42831 88.36031 110.37792 89.04335 115.11267 89.72639 118.7201 91.09246 124.13124 91.7755 126.836818 92.458538 130.21878 94.507648 143.74665 95.190677 146.67768 95.87371 147.57953 96.55675 147.35407 97.239788 147.57953 97.92282 149.38326 98.60586 153.4416 99.288898 159.98007 100.65497 176.2135 102.02104 192.22148 102.70408 197.85808 103.387119 201.01459 104.07015 201.24005 104.75319 199.88727 105.436229 199.21088 106.11926 201.24005 106.8023 207.10213 108.8514 233.70691 109.53445 239.79445 110.217479 243.17642 110.90051 244.5292 111.58355 243.85282 112.26659 242.0491 113.63266 236.86342 114.3157 235.05971H114.99873L115.68177 236.63796 116.36481 239.79445 117.047847 244.75467 118.41392 257.38069 119.096958 262.11543 119.77999 263.69367 120.46303 261.21357 121.146068 255.57697 122.51214 242.95096 123.195178 239.56899 123.878208 237.76528 124.56125 237.08889 125.24428 236.63796 125.927318 235.96157 126.61035 235.05971 127.29339 234.83425 127.976428 235.7361 128.65947 238.2162 130.02555 244.98014 130.70858 247.6857 131.3916 248.36209 132.07465 247.46024 132.75768 244.98014 133.44072 240.6963 136.17287 218.6008 136.8559 216.34616 137.53894 215.4443 138.22197 215.66977H138.90502L139.58805 215.21884 140.27109 214.09152 140.95412 213.18967 141.63716 212.51326 143.00324 212.06233 143.68627 210.93502 144.36931 208.00399 145.05234 202.8183 147.10144 182.07558 147.78449 176.88991 149.15056 168.32225 149.83359 163.13658 151.8827 142.61933 152.56574 137.88457 153.24878 135.40447 153.93181 134.95354 154.61486 135.40447 155.29788 135.62993 155.98093 135.179 156.66396 134.27715 157.347 133.82622 158.03003 134.50261 158.71308 136.98271 160.07915 143.29572 160.76218 145.55036 161.44522 146.22675 162.12825 145.55036 163.49433 142.61933 164.17736 141.04108 164.8604 140.1392 165.54343 139.68828 166.22647 139.91374 166.9095 141.04108 168.27558 143.74665 168.95862 144.6485 169.64165 145.09943 171.00772 144.6485H171.69077L172.3738 144.87397 174.42292 146.90314 175.10594 147.35407 175.78899 147.57953 176.47202 148.03047 177.15505 148.93233 179.20417 152.76522 179.88719 153.4416 180.57024 152.99068 181.93631 151.6379 182.61934 151.41243 183.30239 152.31429 183.98542 153.66707 184.66846 154.56893H185.35149L186.03453 152.99068 187.4006 148.03047 188.08364 146.45221 188.76668 146.67768 189.4497 148.4814 190.13275 151.41243 191.49883 159.07822 192.18186 163.13658 192.86489 166.51854 193.54793 169.2241 194.23096 170.5769 195.59703 171.92969 196.28008 172.83155 196.9631 174.63526 197.64615 176.88991 200.3783 187.26126 203.79347 197.63262 206.52562 206.6512 207.8917 209.58223 208.57472 210.25862 210.62384 211.6114 211.30687 211.83687H211.98992L212.67295 211.6114 213.35599 210.93502 214.03902 209.58223 214.72206 207.77852 215.40509 205.2984 217.45421 195.8289 218.13724 193.79973 218.82028 193.12334 219.50331 193.3488 220.18636 194.70159 220.86939 196.73076 223.60153 206.42574 224.9676 209.35677 226.33368 212.06233 229.06583 219.9536 229.74886 220.85546 231.11493 221.30638 231.79798 221.75731 232.481 222.65917 233.84708 226.04113 235.8962 232.80506 236.57923 233.93238 237.26226 233.70691 237.9453 231.9032 239.31137 225.81566 239.9944 223.56102 240.67745 222.88463 241.36048 223.11009 242.04352 223.78649H242.72655L243.40959 222.65917 245.4587 217.24802 246.14174 216.57163 247.50782 215.66977 248.19084 214.76792 248.87389 212.73874 250.23996 207.55306 250.92299 205.2984 251.60604 203.94562 252.28907 203.26923 252.97209 202.1419 253.65514 200.78913 255.70424 193.12334 256.38728 192.22148 257.0703 193.3488 257.75337 195.8289 258.4364 198.75995 259.11943 201.01459 259.80247 202.1419H260.4855L261.85157 200.78913 262.5346 200.3382 263.21766 200.11273H263.9007L264.5837 200.78913 265.26676 201.69098 266.63285 205.07294 267.31587 207.10213 268.68196 212.06233 270.73106 221.30638 272.0971 227.84485 272.78016 230.55042 273.4632 232.57959 276.19535 238.66713 276.8784 240.01992H277.5614L278.24446 238.2162 278.9275 233.93238 281.65965 210.25862 282.34269 206.6512 283.0257 204.17108 283.70875 202.8183H284.39179L285.0748 203.72016 285.75785 205.52388 286.4409 208.68038 287.12394 212.51326 288.49 220.85546 289.17304 223.78649 289.85609 225.13927 291.22215 226.49205 291.90519 228.29578 292.58824 232.12866 293.95429 243.17642 295.32038 254.22417 296.0034 258.508 296.68644 261.6645 297.36949 263.69367 298.0525 264.59553 298.73554 264.37007 299.41859 263.69367 300.10163 262.7918 300.78465 262.11543 301.46769 260.9881 302.15074 259.6353 302.83378 257.1552 303.51679 253.54778 304.19984 249.0385 305.56593 236.63796 307.61503 215.4443 308.29808 209.8077 308.98109 205.74935 309.66413 203.04376 311.0302 198.75995 312.39628 192.89788 313.0793 188.83951 314.44538 178.91909 315.81147 167.64586 316.49449 162.46019 317.17753 158.40183 317.86058 155.4708 318.5436 153.89253H319.22663L319.90968 155.01985 320.5927 156.59812 321.27577 157.72544 321.95878 156.82358 322.6418 153.4416 323.32487 148.25594 324.69093 136.75725 325.37397 132.47342 326.057 129.31693 328.1061 122.77846 328.78916 120.97475 329.47218 119.621959H330.1552L330.83827 120.97475 332.2043 125.25857 332.88737 127.06228 333.5704 127.51321H334.93647L335.6195 128.64054 336.30256 131.12064 336.9856 134.95354 339.71775 152.76522 340.40077 155.69626 341.0838 157.49997H341.76686L342.4499 155.92173 343.1329 152.76522 343.81596 147.805 344.499 141.492 346.5481 119.621959 347.23115 113.75989 348.5972 105.86863 349.28025 103.16306 351.32936 97.07552 352.0124 94.144489 352.69544 90.08613 353.37846 84.44952 354.0615 77.00919 354.74455 66.8633"/>
</g>
<g clip-path="url(#clip_6)">
<path transform="matrix(1,0,0,-1,0,288)" stroke-width="2" stroke-linecap="square" stroke-linejoin="round" fill="none" stroke="#000000" d="M-1 66.8633 60.109838 66.77067H66.8344L73.55897 67.01769 80.28353 67.51174 83.64581 67.8514 87.008098 86.221637 90.370388 105.62609 93.732669 126.064769 97.09495 147.53766 100.45724 170.04479 103.81952 193.58612 107.1818 218.16168 110.54408 243.77147 113.90637 243.74448 117.268657 242.72017 120.630939 240.69857 123.99322 237.67966 127.35551 233.66344 130.71779 228.64992 134.08008 222.6391 137.44235 215.63097 140.80464 195.02878 144.16693 177.64337 147.52922 163.47475 150.8915 152.52288 154.25379 144.78777 157.61608 140.26943 160.97837 138.96787 164.34066 140.88306 171.06522 145.71164 177.7898 150.10953 184.51436 154.07675 191.23894 157.61328 194.60123 172.98018 197.96352 185.25 201.3258 194.42276 204.6881 200.49843 208.05037 203.47702 211.41266 203.35852 214.77495 200.14296 218.13724 193.83032 221.49953 203.71627 224.86182 211.6495 228.2241 217.63005 231.5864 221.6579 234.94869 223.73303 238.31096 223.85549 241.67325 222.02524 245.03554 218.24228 248.39783 208.91252 251.76012 202.56478 255.1224 199.19904 258.48469 198.8153 261.847 201.41359 265.20927 206.9939 268.57154 215.5562 271.93385 227.10051 275.2961 213.72888 278.65843 205.50821 282.0207 202.43848 285.38298 204.5197 288.74528 211.75186 292.10755 224.13498 295.46986 241.66904 298.83213 264.35408 305.5567 227.80789 312.28126 193.37889 319.00584 161.06705 322.3681 145.70505 325.7304 130.87235 329.09269 142.82718 332.45497 149.92568 335.81724 152.16783 339.17955 149.55364 342.5418 142.08312 345.90409 129.75624 349.2664 112.57304 352.62867 90.53349 355.99095 82.396869 359.35325 75.739627 362.7155 70.56177 366.0778 66.8633 369.4401 64.64422 372.80238 63.904527 376.16465 64.64422 379.52693 66.8633H469"/>
</g>
<g clip-path="url(#clip_7)">
<path transform="matrix(1,0,0,-1,0,288)" stroke-width="2" stroke-linecap="square" stroke-linejoin="round" fill="none" stroke="#ffa500" d="M-1 66.8633H2.951041 29.849289L56.74755 65.54747 83.64581 81.96863 110.54408 230.2896 137.44235 200.18543 164.34066 144.30245 191.23894 164.88578 218.13724 225.50518 245.03554 202.71837 271.93385 211.64394 298.83213 219.81417 325.7304 184.44577 352.62867 86.84562 379.52693 67.4145 406.4252 66.8633H433.32344 460.22169 469"/>
</g>
<g clip-path="url(#clip_8)">
<path transform="matrix(1,0,0,-1,0,288)" stroke-width="1" stroke-linecap="butt" stroke-dasharray="3.7,1.6" stroke-linejoin="round" fill="none" stroke="#ffa500" d="M-1 66.8633H2.951041 29.849289L56.74755 58.719736 83.64581 75.39538 110.54408 195.99884 137.44235 177.6408 164.34066 101.50851 191.23894 151.9389 218.13724 184.16469 245.03554 186.06446 271.93385 198.0111 298.83213 207.96378 325.7304 135.83606 352.62867 76.94299 379.52693 51.87358 406.4252 66.8633H433.32344 460.22169 469"/>
</g>
<g clip-path="url(#clip_9)">
<path transform="matrix(1,0,0,-1,0,288)" stroke-width="1" stroke-linecap="butt" stroke-dasharray="3.7,1.6" stroke-linejoin="round" fill="none" stroke="#ffa500" d="M-1 66.8633H2.951041 29.849289L56.74755 75.17897 83.64581 87.296649 110.54408 252.76338 137.44235 221.19544 164.34066 188.05931 191.23894 188.98584 218.13724 266.47019 245.03554 221.24188 271.93385 223.52849 298.83213 231.26189 325.7304 211.26457 352.62867 96.12904 379.52693 81.34237 406.4252 66.8633H433.32344 460.22169 469"/>
</g>
<path transform="matrix(1,0,0,-1,0,288)" stroke-width=".8" stroke-linecap="square" stroke-miterlimit="10" stroke-linejoin="miter" fill="none" stroke="#000000" d="M47.378126 41.14375V277.2"/>
<path transform="matrix(1,0,0,-1,0,288)" stroke-width=".8" stroke-linecap="square" stroke-miterlimit="10" stroke-linejoin="miter" fill="none" stroke="#000000" d="M47.378126 41.14375H457.2"/>
<g>
<path transform="matrix(1,0,0,-1,0,288)" d="M338.2 195.84062H450.2C451.53334 195.84062 452.2 196.5073 452.2 197.84062V270.2C452.2 271.53334 451.53334 272.2 450.2 272.2H338.2C336.86668 272.2 336.2 271.53334 336.2 270.2V197.84062C336.2 196.5073 336.86668 195.84062 338.2 195.84062Z" fill="#ffffff" fill-opacity=".8"/>
<path transform="matrix(1,0,0,-1,0,288)" stroke-width="1" stroke-linecap="butt" stroke-miterlimit="10" stroke-linejoin="miter" fill="none" stroke="#d5d6d5" stroke-opacity=".8" d="M338.2 195.84062H450.2C451.53334 195.84062 452.2 196.5073 452.2 197.84062V270.2C452.2 271.53334 451.53334 272.2 450.2 272.2H338.2C336.86668 272.2 336.2 271.53334 336.2 270.2V197.84062C336.2 196.5073 336.86668 195.84062 338.2 195.84062Z"/>
</g>
<path transform="matrix(1,0,0,-1,0,288)" stroke-width="2" stroke-linecap="square" stroke-linejoin="round" fill="none" stroke="#929292" d="M340.2 264.10627H350.2 360.2"/>
<use data-text="E" xlink:href="#font_2_69" transform="matrix(10,0,0,-10,368.2,27.393738)"/>
<use data-text="x" xlink:href="#font_2_120" transform="matrix(10,0,0,-10,374.52003,27.393738)"/>
<use data-text="a" xlink:href="#font_2_97" transform="matrix(10,0,0,-10,380.44,27.393738)"/>
<use data-text="c" xlink:href="#font_2_99" transform="matrix(10,0,0,-10,386.57,27.393738)"/>
<use data-text="t" xlink:href="#font_2_116" transform="matrix(10,0,0,-10,392.07,27.393738)"/>
<use data-text=" " xlink:href="#font_2_32" transform="matrix(10,0,0,-10,395.99003,27.393738)"/>
<use data-text="s" xlink:href="#font_2_115" transform="matrix(10,0,0,-10,399.17,27.393738)"/>
<use data-text="l" xlink:href="#font_2_108" transform="matrix(10,0,0,-10,404.38,27.393738)"/>
<use data-text="i" xlink:href="#font_2_105" transform="matrix(10,0,0,-10,407.16,27.393738)"/>
<use data-text="p" xlink:href="#font_2_112" transform="matrix(10,0,0,-10,409.94,27.393738)"/>
<path transform="matrix(1,0,0,-1,0,288)" stroke-width="2" stroke-linecap="square" stroke-linejoin="round" fill="none" stroke="#000000" d="M340.2 249.43437H350.2 360.2"/>
<use data-text="P" xlink:href="#font_2_80" transform="matrix(10,0,0,-10,368.2,42.065629)"/>
<use data-text="r" xlink:href="#font_2_114" transform="matrix(10,0,0,-10,374.05815,42.065629)"/>
<use data-text="e" xlink:href="#font_2_101" transform="matrix(10,0,0,-10,377.9494,42.065629)"/>
<use data-text="s" xlink:href="#font_2_115" transform="matrix(10,0,0,-10,384.0994,42.065629)"/>
<use data-text="c" xlink:href="#font_2_99" transform="matrix(10,0,0,-10,389.3094,42.065629)"/>
<use data-text="r" xlink:href="#font_2_114" transform="matrix(10,0,0,-10,394.8094,42.065629)"/>
<use data-text="i" xlink:href="#font_2_105" transform="matrix(10,0,0,-10,398.91938,42.065629)"/>
<use data-text="b" xlink:href="#font_2_98" transform="matrix(10,0,0,-10,401.6994,42.065629)"/>
<use data-text="e" xlink:href="#font_2_101" transform="matrix(10,0,0,-10,408.04939,42.065629)"/>
<use data-text="d" xlink:href="#font_2_100" transform="matrix(10,0,0,-10,414.1994,42.065629)"/>
<use data-text=" " xlink:href="#font_2_32" transform="matrix(10,0,0,-10,420.54939,42.065629)"/>
<use data-text="s" xlink:href="#font_2_115" transform="matrix(10,0,0,-10,423.72938,42.065629)"/>
<use data-text="l" xlink:href="#font_2_108" transform="matrix(10,0,0,-10,428.9394,42.065629)"/>
<use data-text="i" xlink:href="#font_2_105" transform="matrix(10,0,0,-10,431.7194,42.065629)"/>
<use data-text="p" xlink:href="#font_2_112" transform="matrix(10,0,0,-10,434.4994,42.065629)"/>
<path transform="matrix(1,0,0,-1,0,288)" stroke-width="2" stroke-linecap="square" stroke-linejoin="round" fill="none" stroke="#ffa500" d="M340.2 234.7625H350.2 360.2"/>
<use data-text="M" xlink:href="#font_2_77" transform="matrix(10,0,0,-10,368.2,56.737504)"/>
<use data-text="o" xlink:href="#font_2_111" transform="matrix(10,0,0,-10,376.83003,56.737504)"/>
<use data-text="d" xlink:href="#font_2_100" transform="matrix(10,0,0,-10,382.95,56.737504)"/>
<use data-text="e" xlink:href="#font_2_101" transform="matrix(10,0,0,-10,389.30003,56.737504)"/>
<use data-text="l" xlink:href="#font_2_108" transform="matrix(10,0,0,-10,395.45,56.737504)"/>
<use data-text=" " xlink:href="#font_2_32" transform="matrix(10,0,0,-10,398.23,56.737504)"/>
<use data-text="m" xlink:href="#font_2_109" transform="matrix(10,0,0,-10,401.41,56.737504)"/>
<use data-text="e" xlink:href="#font_2_101" transform="matrix(10,0,0,-10,411.15003,56.737504)"/>
<use data-text="d" xlink:href="#font_2_100" transform="matrix(10,0,0,-10,417.30003,56.737504)"/>
<use data-text="i" xlink:href="#font_2_105" transform="matrix(10,0,0,-10,423.65003,56.737504)"/>
<use data-text="a" xlink:href="#font_2_97" transform="matrix(10,0,0,-10,426.43003,56.737504)"/>
<use data-text="n" xlink:href="#font_2_110" transform="matrix(10,0,0,-10,432.56,56.737504)"/>
<path transform="matrix(1,0,0,-1,0,288)" d="M340.2 216.59062H360.2V223.59062H340.2Z" fill="#ffa500" fill-opacity=".5"/>
<use data-text="m" xlink:href="#font_2_109" transform="matrix(10,0,0,-10,368.2,71.00313)"/>
<use data-text="e" xlink:href="#font_2_101" transform="matrix(10,0,0,-10,377.94123,71.00313)"/>
<use data-text="d" xlink:href="#font_2_100" transform="matrix(10,0,0,-10,384.09358,71.00313)"/>
<use data-text="i" xlink:href="#font_2_105" transform="matrix(10,0,0,-10,390.44123,71.00313)"/>
<use data-text="a" xlink:href="#font_2_97" transform="matrix(10,0,0,-10,393.21955,71.00313)"/>
<use data-text="n" xlink:href="#font_2_110" transform="matrix(10,0,0,-10,399.34748,71.00313)"/>
<use data-text="&#x00b1;" xlink:href="#font_2_177" transform="matrix(10,0,0,-10,405.68537,71.00313)"/>
<use data-text="s" xlink:href="#font_2_115" transform="matrix(10,0,0,-10,414.06428,71.00313)"/>
<use data-text="t" xlink:href="#font_2_116" transform="matrix(10,0,0,-10,419.27424,71.00313)"/>
<use data-text="d" xlink:href="#font_2_100" transform="matrix(10,0,0,-10,423.19514,71.00313)"/>
<use data-text="d" xlink:href="#font_2_100" transform="matrix(10,0,0,-10,429.5428,71.00313)"/>
<use data-text="e" xlink:href="#font_2_101" transform="matrix(10,0,0,-10,435.89045,71.00313)"/>
<use data-text="v" xlink:href="#font_2_118" transform="matrix(10,0,0,-10,442.0428,71.00313)"/>
<path transform="matrix(1,0,0,-1,0,288)" stroke-width="1" stroke-linecap="butt" stroke-dasharray="3.7,1.6" stroke-linejoin="round" fill="none" stroke="#ffa500" d="M340.2 205.41875H350.2 360.2"/>
<use data-text="m" xlink:href="#font_2_109" transform="matrix(10,0,0,-10,368.2,86.08125)"/>
<use data-text="i" xlink:href="#font_2_105" transform="matrix(10,0,0,-10,377.94,86.08125)"/>
<use data-text="n" xlink:href="#font_2_110" transform="matrix(10,0,0,-10,380.72,86.08125)"/>
<use data-text="-" xlink:href="#font_2_45" transform="matrix(10,0,0,-10,387.06,86.08125)"/>
<use data-text="m" xlink:href="#font_2_109" transform="matrix(10,0,0,-10,390.67,86.08125)"/>
<use data-text="a" xlink:href="#font_2_97" transform="matrix(10,0,0,-10,400.41,86.08125)"/>
<use data-text="x" xlink:href="#font_2_120" transform="matrix(10,0,0,-10,406.54,86.08125)"/>
</svg>
