<svg xmlns="http://www.w3.org/2000/svg" xmlns:xlink="http://www.w3.org/1999/xlink" version="1.1" width="468" height="288" viewBox="0 0 468 288">
<defs>
<g id="font_1_50">
<path transform="matrix(.001,0,0,.001,0,0)" d="M192 83H536V0H73V83C110 121 161 173 226 239 290 304 331 346 348 365 380 400 402 430 414 455 426 479 433 504 433 528 433 566 419 598 392 622 365 646 330 659 286 659 255 659 222 653 188 643 154 632 117 616 78 594V694C118 710 155 722 189 730 223 738 255 742 284 742 359 742 419 723 464 685 509 647 532 597 532 534 532 504 526 475 515 449 504 422 484 390 454 354 446 344 420 317 376 272 332 227 271 164 192 83Z"/>
</g>
<g id="font_1_48">
<path transform="matrix(.001,0,0,.001,0,0)" d="M318 664C267 664 229 639 203 589 177 539 165 464 165 364 165 264 177 189 203 139 229 89 267 64 318 64 369 64 407 89 433 139 458 189 471 264 471 364 471 464 458 539 433 589 407 639 369 664 318 664ZM318 742C399 742 461 709 505 645 548 580 570 486 570 364 570 241 548 147 505 83 461 19 399-13 317-13 235-13 173 19 130 83 87 147 66 241 66 364 66 486 87 580 130 645 173 709 236 742 318 742Z"/>
</g>
<clipPath id="clip_2">
<path transform="matrix(.01,0,0,-.01,70.98307,261.45)" d="M-1021-463H1794V1233H-1021Z"/>
</clipPath>
<g id="font_1_49">
<path transform="matrix(.001,0,0,.001,0,0)" d="M124 83H285V639L110 604V694L284 729H383V83H544V0H124V83Z"/>
</g>
<clipPath id="clip_3">
<path transform="matrix(.01,0,0,-.01,139.28672,261.45)" d="M-1021-463H1794V1233H-1021Z"/>
</clipPath>
<g id="font_1_51">
<path transform="matrix(.001,0,0,.001,0,0)" d="M406 393C453 383 490 362 516 330 542 298 556 258 556 212 556 140 531 84 482 45 432 6 362-13 271-13 240-13 208-10 176-4 144 1 110 10 76 22V117C103 101 133 89 166 81 198 73 232 69 268 69 330 69 377 81 409 105 441 129 458 165 458 212 458 254 443 288 413 312 383 336 341 349 287 349H202V430H291C339 430 376 439 402 459 428 478 441 506 441 543 441 580 427 609 401 629 374 649 336 659 287 659 260 659 231 656 200 650 169 644 135 635 98 623V711C135 721 170 729 203 734 235 739 266 742 296 742 370 742 429 725 473 691 517 657 539 611 539 553 539 513 527 479 504 451 481 423 448 403 406 393Z"/>
</g>
<g id="font_1_68">
<path transform="matrix(.001,0,0,.001,0,0)" d="M197 648V81H316C416 81 490 103 537 149 583 195 607 267 607 365 607 463 583 534 537 580 490 625 416 648 316 648H197ZM98 729H301C442 729 546 699 612 641 678 582 711 490 711 365 711 239 677 147 611 88 545 29 441 0 301 0H98V729Z"/>
</g>
<g id="font_1_105">
<path transform="matrix(.001,0,0,.001,0,0)" d="M94 547H184V0H94V547ZM94 760H184V646H94V760Z"/>
</g>
<g id="font_1_115">
<path transform="matrix(.001,0,0,.001,0,0)" d="M443 531V446C417 458 391 468 364 475 336 481 308 485 279 485 234 485 200 478 178 464 156 450 145 430 145 403 145 382 153 366 169 354 185 342 217 330 265 320L296 313C360 299 405 279 432 255 458 230 472 195 472 151 472 100 452 60 412 31 372 1 316-13 246-13 216-13 186-10 154-5 122 0 89 8 54 20V113C87 95 120 82 152 74 184 65 216 61 248 61 290 61 323 68 346 82 368 96 380 117 380 144 380 168 371 187 355 200 339 213 303 226 247 238L216 245C160 257 119 275 95 299 70 323 58 356 58 399 58 450 76 490 112 518 148 546 200 560 268 560 301 560 332 557 362 552 391 547 418 540 443 531Z"/>
</g>
<g id="font_1_116">
<path transform="matrix(.001,0,0,.001,0,0)" d="M183 702V547H368V477H183V180C183 135 189 106 201 94 213 81 238 75 276 75H368V0H276C206 0 158 13 132 39 106 65 93 112 93 180V477H27V547H93V702H183Z"/>
</g>
<g id="font_1_97">
<path transform="matrix(.001,0,0,.001,0,0)" d="M343 275C270 275 220 266 192 250 164 233 150 205 150 165 150 133 160 107 181 89 202 70 231 61 267 61 317 61 357 78 387 114 417 149 432 196 432 255V275H343ZM522 312V0H432V83C411 49 385 25 355 10 325-5 287-13 243-13 187-13 142 2 109 33 76 64 60 106 60 159 60 220 80 266 122 298 163 329 224 345 306 345H432V354C432 395 418 427 391 450 364 472 326 484 277 484 245 484 215 480 185 472 155 464 127 453 100 439V522C132 534 164 544 195 550 226 556 256 560 286 560 365 560 424 539 463 498 502 457 522 395 522 312Z"/>
</g>
<g id="font_1_110">
<path transform="matrix(.001,0,0,.001,0,0)" d="M549 330V0H459V327C459 379 448 417 428 443 408 469 378 482 338 482 289 482 251 466 223 435 195 404 181 362 181 309V0H91V547H181V462C202 494 227 519 257 535 286 551 320 560 358 560 420 560 468 540 500 501 532 462 549 405 549 330Z"/>
</g>
<g id="font_1_99">
<path transform="matrix(.001,0,0,.001,0,0)" d="M488 526V442C462 456 437 466 411 473 385 480 360 484 334 484 276 484 230 465 198 428 166 391 150 339 150 273 150 206 166 154 198 117 230 80 276 62 334 62 360 62 385 65 411 72 437 79 462 90 488 104V21C462 9 436 0 410-5 383-10 354-13 324-13 242-13 176 12 128 64 79 115 55 185 55 273 55 362 79 432 128 483 177 534 244 560 330 560 358 560 385 557 411 551 437 545 463 537 488 526Z"/>
</g>
<g id="font_1_101">
<path transform="matrix(.001,0,0,.001,0,0)" d="M562 296V252H149C153 190 171 142 205 110 238 78 284 62 344 62 378 62 412 66 444 74 476 82 509 95 541 113V28C509 14 476 3 442-3 408-9 373-13 339-13 251-13 182 12 131 62 80 112 55 181 55 268 55 357 79 428 127 481 175 533 241 560 323 560 397 560 455 536 498 489 540 441 562 377 562 296ZM472 322C471 371 457 410 431 440 404 469 368 484 324 484 274 484 234 469 204 441 174 413 156 373 152 322H472Z"/>
</g>
<g id="font_1_32">
</g>
<g id="font_1_108">
<path transform="matrix(.001,0,0,.001,0,0)" d="M94 760H184V0H94V760Z"/>
</g>
<g id="font_1_111">
<path transform="matrix(.001,0,0,.001,0,0)" d="M306 484C258 484 220 465 192 427 164 389 150 338 150 273 150 207 163 156 191 118 219 80 257 62 306 62 354 62 392 80 420 118 448 156 462 207 462 273 462 337 448 389 420 427 392 465 354 484 306 484ZM306 560C384 560 445 534 490 484 534 433 557 363 557 273 557 183 534 113 490 63 445 12 384-13 306-13 227-13 165 12 121 63 77 113 55 183 55 273 55 363 77 433 121 484 165 534 227 560 306 560Z"/>
</g>
<g id="font_1_103">
<path transform="matrix(.001,0,0,.001,0,0)" d="M454 280C454 344 440 395 414 431 387 467 349 485 301 485 253 485 215 467 188 431 161 395 148 344 148 280 148 215 161 165 188 129 215 93 253 75 301 75 349 75 387 93 414 129 440 165 454 215 454 280ZM544 68C544-24 523-93 482-139 440-184 377-207 292-207 260-207 231-204 203-200 175-195 147-188 121-178V-91C147-105 173-115 199-122 225-129 251-133 278-133 336-133 380-117 410-87 439-56 454-10 454 52V96C435 64 411 40 382 24 353 8 319 0 279 0 211 0 157 25 116 76 75 127 55 195 55 280 55 364 75 432 116 483 157 534 211 560 279 560 319 560 353 552 382 536 411 520 435 496 454 464V547H544V68Z"/>
</g>
<g id="font_1_114">
<path transform="matrix(.001,0,0,.001,0,0)" d="M411 463C401 469 390 473 378 476 366 478 353 480 339 480 288 480 249 463 222 430 194 397 181 350 181 288V0H91V547H181V462C199 495 224 520 254 536 284 552 321 560 365 560 371 560 378 559 386 559 393 558 401 557 411 555V463Z"/>
</g>
<g id="font_1_107">
<path transform="matrix(.001,0,0,.001,0,0)" d="M91 760H181V311L449 547H564L274 291 576 0H459L181 267V0H91V760Z"/>
</g>
<g id="font_1_44">
<path transform="matrix(.001,0,0,.001,0,0)" d="M117 124H220V40L140-115H77L117 40V124Z"/>
</g>
<g id="font_1_109">
<path transform="matrix(.001,0,0,.001,0,0)" d="M520 442C542 482 569 511 600 531 631 550 668 560 711 560 767 560 811 540 842 500 873 460 889 403 889 330V0H799V327C799 379 789 418 771 444 752 469 724 482 686 482 639 482 602 466 575 435 548 404 535 362 535 309V0H445V327C445 379 435 418 417 444 398 469 369 482 331 482 285 482 248 466 221 435 194 404 181 362 181 309V0H91V547H181V462C201 495 226 520 255 536 283 552 317 560 357 560 397 560 430 550 458 530 486 510 506 480 520 442Z"/>
</g>
<g id="font_1_46">
<path transform="matrix(.001,0,0,.001,0,0)" d="M107 124H210V0H107V124Z"/>
</g>
<g id="font_1_52">
<path transform="matrix(.001,0,0,.001,0,0)" d="M378 643 129 254H378V643ZM352 729H476V254H580V172H476V0H378V172H49V267L352 729Z"/>
</g>
<g id="font_1_54">
<path transform="matrix(.001,0,0,.001,0,0)" d="M330 404C286 404 251 388 225 358 199 328 186 286 186 234 186 181 199 139 225 109 251 79 286 64 330 64 374 64 409 79 435 109 461 139 474 181 474 234 474 286 461 328 435 358 409 388 374 404 330 404ZM526 713V623C501 635 476 644 451 650 425 656 400 659 376 659 310 659 260 637 226 593 192 549 172 482 168 394 187 422 211 444 240 459 269 474 301 482 336 482 409 482 467 459 509 415 551 371 573 310 573 234 573 159 550 99 506 54 462 9 403-13 330-13 246-13 181 19 137 83 92 147 70 241 70 364 70 479 97 571 152 639 206 707 280 742 372 742 396 742 421 739 447 735 472 730 498 723 526 713Z"/>
</g>
<g id="font_1_56">
<path transform="matrix(.001,0,0,.001,0,0)" d="M318 346C271 346 234 333 207 308 180 283 167 249 167 205 167 161 180 126 207 101 234 76 271 64 318 64 364 64 401 76 428 102 455 127 469 161 469 205 469 249 455 283 429 308 402 333 365 346 318 346ZM219 388C177 398 144 418 120 447 96 476 85 511 85 553 85 611 105 657 147 691 188 725 245 742 318 742 390 742 447 725 489 691 530 657 551 611 551 553 551 511 539 476 515 447 491 418 459 398 417 388 464 377 501 355 528 323 554 291 568 251 568 205 568 134 546 80 503 43 459 5 397-13 317-13 237-13 175 5 132 43 89 80 68 134 68 205 68 251 81 291 108 323 134 355 171 377 219 388ZM183 544C183 506 194 476 218 455 242 434 275 424 318 424 360 424 393 434 417 455 441 476 453 506 453 544 453 582 441 611 417 632 393 653 360 664 318 664 275 664 242 653 218 632 194 611 183 582 183 544Z"/>
</g>
<g id="font_1_76">
<path transform="matrix(.001,0,0,.001,0,0)" d="M98 729H197V83H552V0H98V729Z"/>
</g>
<g id="font_1_102">
<path transform="matrix(.001,0,0,.001,0,0)" d="M371 760V685H285C253 685 230 678 218 665 205 652 199 629 199 595V547H347V477H199V0H109V477H23V547H109V585C109 645 123 690 151 718 179 746 224 760 286 760H371Z"/>
</g>
<g id="font_1_45">
<path transform="matrix(.001,0,0,.001,0,0)" d="M49 314H312V234H49V314Z"/>
</g>
<g id="font_1_112">
<path transform="matrix(.001,0,0,.001,0,0)" d="M181 82V-207H91V547H181V464C199 496 223 520 252 536 281 552 316 560 356 560 422 560 476 533 518 481 559 428 580 359 580 273 580 187 559 117 518 65 476 13 422-13 356-13 316-13 281-5 252 10 223 25 199 49 181 82ZM487 273C487 339 473 390 446 428 418 466 381 485 334 485 286 485 249 466 222 428 194 390 181 339 181 273 181 207 194 155 222 117 249 79 286 61 334 61 381 61 418 79 446 117 473 155 487 207 487 273Z"/>
</g>
<clipPath id="clip_4">
<path transform="matrix(1,0,0,-1,0,288)" d="M47.378126 41.14375H457.19999V277.19999H47.378126Z"/>
</clipPath>
<clipPath id="clip_5">
<path transform="matrix(1,0,0,-1,0,288)" d="M47.378126 41.14375H457.19999V277.19999H47.378126Z"/>
</clipPath>
<clipPath id="clip_6">
<path transform="matrix(1,0,0,-1,0,288)" d="M47.378126 41.14375H457.19999V277.19999H47.378126Z"/>
</clipPath>
<clipPath id="clip_7">
<path transform="matrix(1,0,0,-1,0,288)" d="M47.378126 41.14375H457.19999V277.19999H47.378126Z"/>
</clipPath>
<clipPath id="clip_8">
<path transform="matrix(1,0,0,-1,0,288)" d="M47.378126 41.14375H457.19999V277.19999H47.378126Z"/>
</clipPath>
<g id="font_1_69">
<path transform="matrix(.001,0,0,.001,0,0)" d="M98 729H559V646H197V430H544V347H197V83H568V0H98V729Z"/>
</g>
<g id="font_1_120">
<path transform="matrix(.001,0,0,.001,0,0)" d="M549 547 351 281 559 0H453L294 215 135 0H29L241 286 47 547H153L298 352 443 547H549Z"/>
</g>
<g id="font_1_80">
<path transform="matrix(.001,0,0,.001,0,0)" d="M197 648V374H321C367 374 402 385 427 409 452 433 465 467 465 511 465 555 452 588 427 612 402 636 367 648 321 648H197ZM98 729H321C402 729 464 710 506 673 548 636 569 582 569 511 569 439 548 384 506 348 464 311 402 293 321 293H197V0H98V729Z"/>
</g>
<g id="font_1_98">
<path transform="matrix(.001,0,0,.001,0,0)" d="M487 273C487 339 473 390 446 428 418 466 381 485 334 485 286 485 249 466 222 428 194 390 181 339 181 273 181 207 194 155 222 117 249 79 286 61 334 61 381 61 418 79 446 117 473 155 487 207 487 273ZM181 464C199 496 223 520 252 536 281 552 316 560 356 560 422 560 476 533 518 481 559 428 580 359 580 273 580 187 559 117 518 65 476 13 422-13 356-13 316-13 281-5 252 10 223 25 199 49 181 82V0H91V760H181V464Z"/>
</g>
<g id="font_1_100">
<path transform="matrix(.001,0,0,.001,0,0)" d="M454 464V760H544V0H454V82C435 49 411 25 382 10 353-5 319-13 279-13 213-13 159 13 117 65 75 117 55 187 55 273 55 359 75 428 117 481 159 533 213 560 279 560 319 560 353 552 382 536 411 520 435 496 454 464ZM148 273C148 207 161 155 188 117 215 79 252 61 300 61 348 61 385 79 413 117 440 155 454 207 454 273 454 339 440 390 413 428 385 466 348 485 300 485 252 485 215 466 188 428 161 390 148 339 148 273Z"/>
</g>
<g id="font_1_77">
<path transform="matrix(.001,0,0,.001,0,0)" d="M98 729H245L431 233 618 729H765V0H669V640L481 140H382L194 640V0H98V729Z"/>
</g>
<g id="font_1_121">
<path transform="matrix(.001,0,0,.001,0,0)" d="M322-50C296-114 271-157 247-177 223-197 191-207 151-207H79V-132H132C156-132 175-126 189-114 203-102 218-75 235-31L251 9 30 547H125L296 119 467 547H562L322-50Z"/>
</g>
<g id="font_1_61">
<path transform="matrix(.001,0,0,.001,0,0)" d="M106 454H732V372H106V454ZM106 255H732V172H106V255Z"/>
</g>
</defs>
<path transform="matrix(1,0,0,-1,0,288)" d="M0 0H468V288H0Z" fill="#ffffff"/>
<path transform="matrix(1,0,0,-1,0,288)" d="M47.378126 41.14375H457.2V277.2H47.378126Z" fill="#ffffff"/>
<path transform="matrix(1,0,0,-1,0,288)" d="M81.529949 41.14375V37.64375"/>
<path transform="matrix(1,0,0,-1,0,288)" stroke-width=".8" stroke-linecap="butt" stroke-linejoin="round" fill="none" stroke="#000000" d="M81.529949 41.14375V37.64375"/>
<use data-text="2" xlink:href="#font_1_50" transform="matrix(10,0,0,-10,79.36198,261.45)"/>
<use data-text="0" xlink:href="#font_1_48" transform="matrix(10,0,0,-10,85.72198,261.45)"/>
<g clip-path="url(#clip_2)">
<path transform="matrix(.01,0,0,-.01,70.98307,261.45)" d="M106 355H732V272H106V355Z"/>
</g>
<path transform="matrix(1,0,0,-1,0,288)" d="M149.83359 41.14375V37.64375"/>
<path transform="matrix(1,0,0,-1,0,288)" stroke-width=".8" stroke-linecap="butt" stroke-linejoin="round" fill="none" stroke="#000000" d="M149.83359 41.14375V37.64375"/>
<use data-text="1" xlink:href="#font_1_49" transform="matrix(10,0,0,-10,147.66562,261.45)"/>
<use data-text="0" xlink:href="#font_1_48" transform="matrix(10,0,0,-10,154.02562,261.45)"/>
<g clip-path="url(#clip_3)">
<path transform="matrix(.01,0,0,-.01,139.28672,261.45)" d="M106 355H732V272H106V355Z"/>
</g>
<path transform="matrix(1,0,0,-1,0,288)" d="M218.13724 41.14375V37.64375"/>
<path transform="matrix(1,0,0,-1,0,288)" stroke-width=".8" stroke-linecap="butt" stroke-linejoin="round" fill="none" stroke="#000000" d="M218.13724 41.14375V37.64375"/>
<use data-text="0" xlink:href="#font_1_48" transform="matrix(10,0,0,-10,214.95755,261.45)"/>
<path transform="matrix(1,0,0,-1,0,288)" d="M286.4409 41.14375V37.64375"/>
<path transform="matrix(1,0,0,-1,0,288)" stroke-width=".8" stroke-linecap="butt" stroke-linejoin="round" fill="none" stroke="#000000" d="M286.4409 41.14375V37.64375"/>
<use data-text="1" xlink:href="#font_1_49" transform="matrix(10,0,0,-10,280.0815,261.45)"/>
<use data-text="0" xlink:href="#font_1_48" transform="matrix(10,0,0,-10,286.44154,261.45)"/>
<path transform="matrix(1,0,0,-1,0,288)" d="M354.74455 41.14375V37.64375"/>
<path transform="matrix(1,0,0,-1,0,288)" stroke-width=".8" stroke-linecap="butt" stroke-linejoin="round" fill="none" stroke="#000000" d="M354.74455 41.14375V37.64375"/>
<use data-text="2" xlink:href="#font_1_50" transform="matrix(10,0,0,-10,348.38517,261.45)"/>
<use data-text="0" xlink:href="#font_1_48" transform="matrix(10,0,0,-10,354.74519,261.45)"/>
<path transform="matrix(1,0,0,-1,0,288)" d="M423.0482 41.14375V37.64375"/>
<path transform="matrix(1,0,0,-1,0,288)" stroke-width=".8" stroke-linecap="butt" stroke-linejoin="round" fill="none" stroke="#000000" d="M423.0482 41.14375V37.64375"/>
<use data-text="3" xlink:href="#font_1_51" transform="matrix(10,0,0,-10,416.6888,261.45)"/>
<use data-text="0" xlink:href="#font_1_48" transform="matrix(10,0,0,-10,423.04884,261.45)"/>
<use data-text="D" xlink:href="#font_1_68" transform="matrix(10,0,0,-10,188.60157,275.1219)"/>
<use data-text="i" xlink:href="#font_1_105" transform="matrix(10,0,0,-10,196.30156,275.1219)"/>
<use data-text="s" xlink:href="#font_1_115" transform="matrix(10,0,0,-10,199.08156,275.1219)"/>
<use data-text="t" xlink:href="#font_1_116" transform="matrix(10,0,0,-10,204.29157,275.1219)"/>
<use data-text="a" xlink:href="#font_1_97" transform="matrix(10,0,0,-10,208.21157,275.1219)"/>
<use data-text="n" xlink:href="#font_1_110" transform="matrix(10,0,0,-10,214.34157,275.1219)"/>
<use data-text="c" xlink:href="#font_1_99" transform="matrix(10,0,0,-10,220.68157,275.1219)"/>
<use data-text="e" xlink:href="#font_1_101" transform="matrix(10,0,0,-10,226.18157,275.1219)"/>
<use data-text=" " xlink:href="#font_1_32" transform="matrix(10,0,0,-10,232.33158,275.1219)"/>
<use data-text="a" xlink:href="#font_1_97" transform="matrix(10,0,0,-10,235.51157,275.1219)"/>
<use data-text="l" xlink:href="#font_1_108" transform="matrix(10,0,0,-10,241.64157,275.1219)"/>
<use data-text="o" xlink:href="#font_1_111" transform="matrix(10,0,0,-10,244.42157,275.1219)"/>
<use data-text="n" xlink:href="#font_1_110" transform="matrix(10,0,0,-10,250.54157,275.1219)"/>
<use data-text="g" xlink:href="#font_1_103" transform="matrix(10,0,0,-10,256.88157,275.1219)"/>
<use data-text=" " xlink:href="#font_1_32" transform="matrix(10,0,0,-10,263.23158,275.1219)"/>
<use data-text="s" xlink:href="#font_1_115" transform="matrix(10,0,0,-10,266.41157,275.1219)"/>
<use data-text="t" xlink:href="#font_1_116" transform="matrix(10,0,0,-10,271.62156,275.1219)"/>
<use data-text="r" xlink:href="#font_1_114" transform="matrix(10,0,0,-10,275.54158,275.1219)"/>
<use data-text="i" xlink:href="#font_1_105" transform="matrix(10,0,0,-10,279.65156,275.1219)"/>
<use data-text="k" xlink:href="#font_1_107" transform="matrix(10,0,0,-10,282.43156,275.1219)"/>
<use data-text="e" xlink:href="#font_1_101" transform="matrix(10,0,0,-10,287.8778,275.1219)"/>
<use data-text="," xlink:href="#font_1_44" transform="matrix(10,0,0,-10,294.0278,275.1219)"/>
<use data-text=" " xlink:href="#font_1_32" transform="matrix(10,0,0,-10,297.20783,275.1219)"/>
<use data-text="k" xlink:href="#font_1_107" transform="matrix(10,0,0,-10,300.38783,275.1219)"/>
<use data-text="m" xlink:href="#font_1_109" transform="matrix(10,0,0,-10,306.1778,275.1219)"/>
<path transform="matrix(1,0,0,-1,0,288)" d="M47.378126 55.082105H43.878126"/>
<path transform="matrix(1,0,0,-1,0,288)" stroke-width=".8" stroke-linecap="butt" stroke-linejoin="round" fill="none" stroke="#000000" d="M47.378126 55.082105H43.878126"/>
<use data-text="0" xlink:href="#font_1_48" transform="matrix(10,0,0,-10,24.471875,236.71477)"/>
<use data-text="." xlink:href="#font_1_46" transform="matrix(10,0,0,-10,30.831875,236.71477)"/>
<use data-text="0" xlink:href="#font_1_48" transform="matrix(10,0,0,-10,34.011877,236.71477)"/>
<path transform="matrix(1,0,0,-1,0,288)" d="M47.378126 103.289188H43.878126"/>
<path transform="matrix(1,0,0,-1,0,288)" stroke-width=".8" stroke-linecap="butt" stroke-linejoin="round" fill="none" stroke="#000000" d="M47.378126 103.289188H43.878126"/>
<use data-text="0" xlink:href="#font_1_48" transform="matrix(10,0,0,-10,24.471875,188.50769)"/>
<use data-text="." xlink:href="#font_1_46" transform="matrix(10,0,0,-10,30.831875,188.50769)"/>
<use data-text="2" xlink:href="#font_1_50" transform="matrix(10,0,0,-10,34.011877,188.50769)"/>
<path transform="matrix(1,0,0,-1,0,288)" d="M47.378126 151.49628H43.878126"/>
<path transform="matrix(1,0,0,-1,0,288)" stroke-width=".8" stroke-linecap="butt" stroke-linejoin="round" fill="none" stroke="#000000" d="M47.378126 151.49628H43.878126"/>
<use data-text="0" xlink:href="#font_1_48" transform="matrix(10,0,0,-10,24.471875,140.3006)"/>
<use data-text="." xlink:href="#font_1_46" transform="matrix(10,0,0,-10,30.831875,140.3006)"/>
<use data-text="4" xlink:href="#font_1_52" transform="matrix(10,0,0,-10,34.011877,140.3006)"/>
<path transform="matrix(1,0,0,-1,0,288)" d="M47.378126 199.70336H43.878126"/>
<path transform="matrix(1,0,0,-1,0,288)" stroke-width=".8" stroke-linecap="butt" stroke-linejoin="round" fill="none" stroke="#000000" d="M47.378126 199.70336H43.878126"/>
<use data-text="0" xlink:href="#font_1_48" transform="matrix(10,0,0,-10,24.471875,92.09352)"/>
<use data-text="." xlink:href="#font_1_46" transform="matrix(10,0,0,-10,30.831875,92.09352)"/>
<use data-text="6" xlink:href="#font_1_54" transform="matrix(10,0,0,-10,34.011877,92.09352)"/>
<path transform="matrix(1,0,0,-1,0,288)" d="M47.378126 247.91045H43.878126"/>
<path transform="matrix(1,0,0,-1,0,288)" stroke-width=".8" stroke-linecap="butt" stroke-linejoin="round" fill="none" stroke="#000000" d="M47.378126 247.91045H43.878126"/>
<use data-text="0" xlink:href="#font_1_48" transform="matrix(10,0,0,-10,24.471875,43.88643)"/>
<use data-text="." xlink:href="#font_1_46" transform="matrix(10,0,0,-10,30.831875,43.88643)"/>
<use data-text="8" xlink:href="#font_1_56" transform="matrix(10,0,0,-10,34.011877,43.88643)"/>
<use data-text="L" xlink:href="#font_1_76" transform="matrix(0,-10,-10,-0,18.39375,174.3125)"/>
<use data-text="e" xlink:href="#font_1_101" transform="matrix(0,-10,-10,-0,18.39375,168.91437)"/>
<use data-text="f" xlink:href="#font_1_102" transform="matrix(0,-10,-10,-0,18.39375,162.76438)"/>
<use data-text="t" xlink:href="#font_1_116" transform="matrix(0,-10,-10,-0,18.39375,159.41625)"/>
<use data-text="-" xlink:href="#font_1_45" transform="matrix(0,-10,-10,-0,18.39375,155.49625)"/>
<use data-text="l" xlink:href="#font_1_108" transform="matrix(0,-10,-10,-0,18.39375,151.88625)"/>
<use data-text="a" xlink:href="#font_1_97" transform="matrix(0,-10,-10,-0,18.39375,149.10625)"/>
<use data-text="t" xlink:href="#font_1_116" transform="matrix(0,-10,-10,-0,18.39375,142.97624)"/>
<use data-text="e" xlink:href="#font_1_101" transform="matrix(0,-10,-10,-0,18.39375,139.05625)"/>
<use data-text="r" xlink:href="#font_1_114" transform="matrix(0,-10,-10,-0,18.39375,132.90625)"/>
<use data-text="a" xlink:href="#font_1_97" transform="matrix(0,-10,-10,-0,18.39375,128.79624)"/>
<use data-text="l" xlink:href="#font_1_108" transform="matrix(0,-10,-10,-0,18.39375,122.666248)"/>
<use data-text=" " xlink:href="#font_1_32" transform="matrix(0,-10,-10,-0,18.39375,119.886249)"/>
<use data-text="s" xlink:href="#font_1_115" transform="matrix(0,-10,-10,-0,18.39375,116.70624)"/>
<use data-text="l" xlink:href="#font_1_108" transform="matrix(0,-10,-10,-0,18.39375,111.49625)"/>
<use data-text="i" xlink:href="#font_1_105" transform="matrix(0,-10,-10,-0,18.39375,108.71624)"/>
<use data-text="p" xlink:href="#font_1_112" transform="matrix(0,-10,-10,-0,18.39375,105.93624)"/>
<use data-text="," xlink:href="#font_1_44" transform="matrix(0,-10,-10,-0,18.39375,99.58624)"/>
<use data-text=" " xlink:href="#font_1_32" transform="matrix(0,-10,-10,-0,18.39375,96.40624)"/>
<use data-text="m" xlink:href="#font_1_109" transform="matrix(0,-10,-10,-0,18.39375,93.22624)"/>
<g clip-path="url(#clip_4)">
<path transform="matrix(1,0,0,-1,0,288)" stroke-width="2" stroke-linecap="square" stroke-linejoin="round" fill="none" stroke="#929292" d="M81.529949 55.082105H82.89602L83.579059 55.564176 84.26209 60.62592 85.62817 73.882869 86.99424 88.827068 88.36031 101.60194 89.04335 106.66368 89.72639 110.52025 91.09246 116.3051 91.7755 119.197528 92.458538 122.81306 94.507648 137.27518 95.190677 140.40865 95.87371 141.37279 96.55675 141.13175 97.239788 141.37279 97.92282 143.30107 98.60586 147.63971 99.288898 154.62973 100.65497 171.98429 102.02104 189.0978 102.70408 195.12369 103.387119 198.49819 104.07015 198.73921 104.75319 197.293 105.436229 196.5699 106.11926 198.73921 106.8023 205.00614 108.8514 233.44832 109.53445 239.95627 110.217479 243.57181 110.90051 245.01802 111.58355 244.2949 112.26659 242.36663 113.63266 236.82282 114.3157 234.89453H114.99873L115.68177 236.58177 116.36481 239.95627 117.047847 245.25905 118.41392 258.75706 119.096958 263.8188 119.77999 265.50605 120.46303 262.85466 121.146068 256.82878 122.51214 243.33077 123.195178 239.71524 123.878208 237.78696 124.56125 237.06385 125.24428 236.58177 125.927318 235.85868 126.61035 234.89453 127.29339 234.65349 127.976428 235.61763 128.65947 238.26903 130.02555 245.50009 130.70858 248.39252 131.3916 249.11562 132.07465 248.15148 132.75768 245.50009 133.44072 240.92041 136.17287 217.29895 136.8559 214.8886 137.53894 213.92446 138.22197 214.16548H138.90502L139.58805 213.68341 140.27109 212.47824 140.95412 211.5141 141.63716 210.79099 143.00324 210.30892 143.68627 209.10375 144.36931 205.97028 145.05234 200.42647 147.10144 178.2512 147.78449 172.7074 149.15056 163.54805 149.83359 158.00423 151.8827 136.07 152.56574 131.00826 153.24878 128.35688 153.93181 127.8748 154.61486 128.35688 155.29788 128.5979 155.98093 128.11583 156.66396 127.151699 157.347 126.669628 158.03003 127.39273 158.71308 130.04412 160.07915 136.7931 160.76218 139.20346 161.44522 139.92658 162.12825 139.20346 163.49433 136.07 164.17736 134.38275 164.8604 133.41861 165.54343 132.93654 166.22647 133.17758 166.9095 134.38275 168.27558 137.27518 168.95862 138.23932 169.64165 138.72139 171.00772 138.23932H171.69077L172.3738 138.48036 174.42292 140.64968 175.10594 141.13175 175.78899 141.37279 176.47202 141.85486 177.15505 142.819 179.20417 146.9166 179.88719 147.63971 180.57024 147.15764 181.93631 145.71143 182.61934 145.47039 183.30239 146.43453 183.98542 147.88074 184.66846 148.84488H185.35149L186.03453 147.15764 187.4006 141.85486 188.08364 140.1676 188.76668 140.40865 189.4497 142.33693 190.13275 145.47039 191.49883 153.66559 192.18186 158.00423 192.86489 161.61977 193.54793 164.51219 194.23096 165.9584 195.59703 167.40462 196.28008 168.36876 196.9631 170.29705 197.64615 172.7074 200.3783 183.79502 203.79347 194.88265 206.52562 204.52407 207.8917 207.65753 208.57472 208.38063 210.62384 209.82685 211.30687 210.06789H211.98992L212.67295 209.82685 213.35599 209.10375 214.03902 207.65753 214.72206 205.72925 215.40509 203.07785 217.45421 192.95436 218.13724 190.78505 218.82028 190.06194 219.50331 190.30298 220.18636 191.74919 220.86939 193.9185 223.60153 204.28304 224.9676 207.41649 226.33368 210.30892 229.06583 218.74517 229.74886 219.7093 231.11493 220.19138 231.79798 220.67345 232.481 221.63759 233.84708 225.25312 235.8962 232.48418 236.57923 233.68935 237.26226 233.44832 237.9453 231.52004 239.31137 225.01207 239.9944 222.60173 240.67745 221.87862 241.36048 222.11966 242.04352 222.84276H242.72655L243.40959 221.63759 245.4587 215.85274 246.14174 215.12963 247.50782 214.16548 248.19084 213.20134 248.87389 211.03203 250.23996 205.4882 250.92299 203.07785 251.60604 201.63164 252.28907 200.90854 252.97209 199.70336 253.65514 198.25714 255.70424 190.06194 256.38728 189.0978 257.0703 190.30298 257.75337 192.95436 258.4364 196.08783 259.11943 198.49819 259.80247 199.70336H260.4855L261.85157 198.25714 262.5346 197.77507 263.21766 197.53404H263.9007L264.5837 198.25714 265.26676 199.22129 266.63285 202.83683 267.31587 205.00614 268.68196 210.30892 270.73106 220.19138 272.0971 227.1814 272.78016 230.07382 273.4632 232.24314 276.19535 238.7511 276.8784 240.19731H277.5614L278.24446 238.26903 278.9275 233.68935 281.65965 208.38063 282.34269 204.52407 283.0257 201.87268 283.70875 200.42647H284.39179L285.0748 201.39061 285.75785 203.3189 286.4409 206.69339 287.12394 210.79099 288.49 219.7093 289.17304 222.84276 289.85609 224.28897 291.22215 225.73519 291.90519 227.66347 292.58824 231.76107 293.95429 243.57181 295.32038 255.38254 296.0034 259.96223 296.68644 263.3367 297.36949 265.50605 298.0525 266.47019 298.73554 266.22914 299.41859 265.50605 300.10163 264.5419 300.78465 263.8188 301.46769 262.61363 302.15074 261.1674 302.83378 258.516 303.51679 254.65944 304.19984 249.83873 305.56593 236.58177 307.61503 213.92446 308.29808 207.89856 308.98109 203.55992 309.66413 200.6675 311.0302 196.08783 312.39628 189.8209 313.0793 185.48227 314.44538 174.87671 315.81147 162.82494 316.49449 157.28113 317.17753 152.94249 317.86058 149.80902 318.5436 148.12178H319.22663L319.90968 149.32695 320.5927 151.0142 321.27577 152.21938 321.95878 151.25524 322.6418 147.63971 323.32487 142.09589 324.69093 129.80309 325.37397 125.22341 326.057 121.848918 328.1061 114.85889 328.78916 112.9306 329.47218 111.48439H330.1552L330.83827 112.9306 332.2043 117.51028 332.88737 119.43856 333.5704 119.92063H334.93647L335.6195 121.12581 336.30256 123.7772 336.9856 127.8748 339.71775 146.9166 340.40077 150.05007 341.0838 151.97835H341.76686L342.4499 150.29109 343.1329 146.9166 343.81596 141.61382 344.499 134.86483 346.5481 111.48439 347.23115 105.21747 348.5972 96.781238 349.28025 93.88881 351.32936 87.38085 352.0124 84.24739 352.69544 79.90875 353.37846 73.882869 354.0615 65.928699 354.74455 55.082105"/>
</g>
<g clip-path="url(#clip_5)">
<path transform="matrix(1,0,0,-1,0,288)" stroke-width="2" stroke-linecap="square" stroke-linejoin="round" fill="none" stroke="#000000" d="M-1 55.082105 60.109838 54.98307H66.8344L73.55897 55.247159 80.28353 55.77533 83.64581 56.138448 87.008098 75.777378 90.370388 96.52194 93.732669 118.37216 97.09495 141.32802 100.45724 165.38954 103.81952 190.55669 107.1818 216.8295 110.54408 244.20795 113.90637 244.1791 117.268657 243.08405 120.630939 240.92284 123.99322 237.69542 127.35551 233.40184 130.71779 228.04207 134.08008 221.61612 137.44235 214.124 140.80464 192.09899 144.16693 173.51291 147.52922 158.36576 150.8915 146.65752 154.25379 138.38822 157.61608 133.55783 160.97837 132.16637 164.34066 134.21384 171.06522 139.37589 177.7898 144.07752 184.51436 148.31871 191.23894 152.09949 194.60123 168.52767 197.96352 181.64487 201.3258 191.4511 204.6881 197.94637 208.05037 201.13068 211.41266 201.004 214.77495 197.56636 218.13724 190.81775 221.49953 201.38645 224.86182 209.86757 228.2241 216.26114 231.5864 220.56716 234.94869 222.78562 238.31096 222.91652 241.67325 220.95987 245.03554 216.91567 248.39783 206.94158 251.76012 200.15543 255.1224 196.55725 258.48469 196.14702 261.847 198.92475 265.20927 204.89043 268.57154 214.04407 271.93385 226.38567 275.2961 212.09056 278.65843 203.30214 282.0207 200.02042 285.38298 202.24536 288.74528 209.977 292.10755 223.21532 295.46986 241.96033 298.83213 266.212 305.5567 227.14189 312.28126 190.33515 319.00584 155.79177 322.3681 139.36884 325.7304 123.51176 329.09269 136.29222 332.45497 143.88095 335.81724 146.27796 339.17955 143.48323 342.5418 135.49677 345.90409 122.31858 349.2664 103.94866 352.62867 80.38702 355.99095 71.68845 359.35325 64.57144 362.7155 59.035997 366.0778 55.082105 369.4401 52.709768 372.80238 51.91899 376.16465 52.709768 379.52693 55.082105H469"/>
</g>
<g clip-path="url(#clip_6)">
<path transform="matrix(1,0,0,-1,0,288)" stroke-width="1.5" stroke-linecap="butt" stroke-dasharray="5.55,2.4" stroke-linejoin="round" fill="none" stroke="#ffa500" d="M-1 55.082105H2.951043 29.849293L56.74754 51.87358 83.64579 71.048839 110.544109 229.51625 137.44235 198.50127 164.34066 135.53156 191.23894 160.62957 218.13724 223.4077 245.03554 199.68689 271.93385 209.28041 298.83213 218.17478 325.73039 175.0516 352.6287 76.08434 379.52696 55.762289 406.4252 55.082105H433.32344 460.22169 469"/>
</g>
<g clip-path="url(#clip_7)">
<path transform="matrix(1,0,0,-1,0,288)" stroke-width="1.5" stroke-linecap="butt" stroke-dasharray="5.55,2.4" stroke-linejoin="round" fill="none" stroke="#800080" d="M-1 55.082105H2.951043 29.849293L56.74754 52.504617 83.64579 73.44648 110.544109 220.21564 137.44235 188.70024 164.34066 144.84117 191.23894 164.87464 218.13724 211.6567 245.03554 200.46881 271.93385 210.94625 298.83213 209.91548 325.73039 172.1486 352.6287 78.94079 379.52696 56.910074 406.4252 55.082105H433.32344 460.22169 469"/>
</g>
<g clip-path="url(#clip_8)">
<path transform="matrix(1,0,0,-1,0,288)" stroke-width="1.5" stroke-linecap="butt" stroke-dasharray="5.55,2.4" stroke-linejoin="round" fill="none" stroke="#ff0000" d="M-1 55.082105H2.951043 29.849293L56.74754 59.856306 83.64579 87.3519 110.544109 158.65247 137.44235 152.22556 164.34066 148.41997 191.23894 164.64713 218.13724 169.1764 245.03554 173.50748 271.93385 206.55588 298.83213 161.61661 325.73039 137.5753 352.6287 92.184139 379.52696 68.933528 406.4252 55.082105H433.32344 460.22169 469"/>
</g>
<path transform="matrix(1,0,0,-1,0,288)" stroke-width=".8" stroke-linecap="square" stroke-miterlimit="10" stroke-linejoin="miter" fill="none" stroke="#000000" d="M47.378126 41.14375V277.2"/>
<path transform="matrix(1,0,0,-1,0,288)" stroke-width=".8" stroke-linecap="square" stroke-miterlimit="10" stroke-linejoin="miter" fill="none" stroke="#000000" d="M47.378126 41.14375H457.2"/>
<g>
<path transform="matrix(1,0,0,-1,0,288)" d="M316.7469 195.84062H450.2C451.53334 195.84062 452.2 196.5073 452.2 197.84062V270.2C452.2 271.53334 451.53334 272.2 450.2 272.2H316.7469C315.41355 272.2 314.7469 271.53334 314.7469 270.2V197.84062C314.7469 196.5073 315.41355 195.84062 316.7469 195.84062Z" fill="#ffffff" fill-opacity=".8"/>
<path transform="matrix(1,0,0,-1,0,288)" stroke-width="1" stroke-linecap="butt" stroke-miterlimit="10" stroke-linejoin="miter" fill="none" stroke="#d5d6d5" stroke-opacity=".8" d="M316.7469 195.84062H450.2C451.53334 195.84062 452.2 196.5073 452.2 197.84062V270.2C452.2 271.53334 451.53334 272.2 450.2 272.2H316.7469C315.41355 272.2 314.7469 271.53334 314.7469 270.2V197.84062C314.7469 196.5073 315.41355 195.84062 316.7469 195.84062Z"/>
</g>
<path transform="matrix(1,0,0,-1,0,288)" stroke-width="2" stroke-linecap="square" stroke-linejoin="round" fill="none" stroke="#929292" d="M318.7469 264.10627H328.7469 338.7469"/>
<use data-text="E" xlink:href="#font_1_69" transform="matrix(10,0,0,-10,346.7469,27.393738)"/>
<use data-text="x" xlink:href="#font_1_120" transform="matrix(10,0,0,-10,353.0669,27.393738)"/>
<use data-text="a" xlink:href="#font_1_97" transform="matrix(10,0,0,-10,358.98689,27.393738)"/>
<use data-text="c" xlink:href="#font_1_99" transform="matrix(10,0,0,-10,365.11689,27.393738)"/>
<use data-text="t" xlink:href="#font_1_116" transform="matrix(10,0,0,-10,370.61689,27.393738)"/>
<use data-text=" " xlink:href="#font_1_32" transform="matrix(10,0,0,-10,374.5369,27.393738)"/>
<use data-text="s" xlink:href="#font_1_115" transform="matrix(10,0,0,-10,377.7169,27.393738)"/>
<use data-text="l" xlink:href="#font_1_108" transform="matrix(10,0,0,-10,382.92689,27.393738)"/>
<use data-text="i" xlink:href="#font_1_105" transform="matrix(10,0,0,-10,385.70689,27.393738)"/>
<use data-text="p" xlink:href="#font_1_112" transform="matrix(10,0,0,-10,388.48689,27.393738)"/>
<path transform="matrix(1,0,0,-1,0,288)" stroke-width="2" stroke-linecap="square" stroke-linejoin="round" fill="none" stroke="#000000" d="M318.7469 249.43437H328.7469 338.7469"/>
<use data-text="P" xlink:href="#font_1_80" transform="matrix(10,0,0,-10,346.7469,42.065629)"/>
<use data-text="r" xlink:href="#font_1_114" transform="matrix(10,0,0,-10,352.605,42.065629)"/>
<use data-text="e" xlink:href="#font_1_101" transform="matrix(10,0,0,-10,356.49629,42.065629)"/>
<use data-text="s" xlink:href="#font_1_115" transform="matrix(10,0,0,-10,362.64628,42.065629)"/>
<use data-text="c" xlink:href="#font_1_99" transform="matrix(10,0,0,-10,367.85627,42.065629)"/>
<use data-text="r" xlink:href="#font_1_114" transform="matrix(10,0,0,-10,373.35627,42.065629)"/>
<use data-text="i" xlink:href="#font_1_105" transform="matrix(10,0,0,-10,377.46626,42.065629)"/>
<use data-text="b" xlink:href="#font_1_98" transform="matrix(10,0,0,-10,380.24629,42.065629)"/>
<use data-text="e" xlink:href="#font_1_101" transform="matrix(10,0,0,-10,386.59626,42.065629)"/>
<use data-text="d" xlink:href="#font_1_100" transform="matrix(10,0,0,-10,392.74629,42.065629)"/>
<use data-text=" " xlink:href="#font_1_32" transform="matrix(10,0,0,-10,399.09626,42.065629)"/>
<use data-text="s" xlink:href="#font_1_115" transform="matrix(10,0,0,-10,402.27626,42.065629)"/>
<use data-text="l" xlink:href="#font_1_108" transform="matrix(10,0,0,-10,407.48628,42.065629)"/>
<use data-text="i" xlink:href="#font_1_105" transform="matrix(10,0,0,-10,410.26628,42.065629)"/>
<use data-text="p" xlink:href="#font_1_112" transform="matrix(10,0,0,-10,413.04627,42.065629)"/>
<path transform="matrix(1,0,0,-1,0,288)" stroke-width="1.5" stroke-linecap="butt" stroke-dasharray="5.55,2.4" stroke-linejoin="round" fill="none" stroke="#ffa500" d="M318.7469 234.7625H328.7469 338.7469"/>
<use data-text="M" xlink:href="#font_1_77" transform="matrix(10,0,0,-10,346.7469,56.737504)"/>
<use data-text="o" xlink:href="#font_1_111" transform="matrix(10,0,0,-10,355.3769,56.737504)"/>
<use data-text="d" xlink:href="#font_1_100" transform="matrix(10,0,0,-10,361.4969,56.737504)"/>
<use data-text="e" xlink:href="#font_1_101" transform="matrix(10,0,0,-10,367.8469,56.737504)"/>
<use data-text="l" xlink:href="#font_1_108" transform="matrix(10,0,0,-10,373.9969,56.737504)"/>
<use data-text=" " xlink:href="#font_1_32" transform="matrix(10,0,0,-10,376.7769,56.737504)"/>
<use data-text="p" xlink:href="#font_1_112" transform="matrix(10,0,0,-10,379.95689,56.737504)"/>
<use data-text="e" xlink:href="#font_1_101" transform="matrix(10,0,0,-10,386.3069,56.737504)"/>
<use data-text="n" xlink:href="#font_1_110" transform="matrix(10,0,0,-10,392.45689,56.737504)"/>
<use data-text="a" xlink:href="#font_1_97" transform="matrix(10,0,0,-10,398.79689,56.737504)"/>
<use data-text="l" xlink:href="#font_1_108" transform="matrix(10,0,0,-10,404.92689,56.737504)"/>
<use data-text="t" xlink:href="#font_1_116" transform="matrix(10,0,0,-10,407.70689,56.737504)"/>
<use data-text="y" xlink:href="#font_1_121" transform="matrix(10,0,0,-10,411.6269,56.737504)"/>
<use data-text="=" xlink:href="#font_1_61" transform="matrix(10,0,0,-10,417.54689,56.737504)"/>
<use data-text="0" xlink:href="#font_1_48" transform="matrix(10,0,0,-10,425.92689,56.737504)"/>
<use data-text="." xlink:href="#font_1_46" transform="matrix(10,0,0,-10,432.28688,56.737504)"/>
<use data-text="0" xlink:href="#font_1_48" transform="matrix(10,0,0,-10,435.4669,56.737504)"/>
<use data-text="2" xlink:href="#font_1_50" transform="matrix(10,0,0,-10,441.82688,56.737504)"/>
<path transform="matrix(1,0,0,-1,0,288)" stroke-width="1.5" stroke-linecap="butt" stroke-dasharray="5.55,2.4" stroke-linejoin="round" fill="none" stroke="#800080" d="M318.7469 220.09062H328.7469 338.7469"/>
<use data-text="M" xlink:href="#font_1_77" transform="matrix(10,0,0,-10,346.7469,71.40938)"/>
<use data-text="o" xlink:href="#font_1_111" transform="matrix(10,0,0,-10,355.3769,71.40938)"/>
<use data-text="d" xlink:href="#font_1_100" transform="matrix(10,0,0,-10,361.4969,71.40938)"/>
<use data-text="e" xlink:href="#font_1_101" transform="matrix(10,0,0,-10,367.8469,71.40938)"/>
<use data-text="l" xlink:href="#font_1_108" transform="matrix(10,0,0,-10,373.9969,71.40938)"/>
<use data-text=" " xlink:href="#font_1_32" transform="matrix(10,0,0,-10,376.7769,71.40938)"/>
<use data-text="p" xlink:href="#font_1_112" transform="matrix(10,0,0,-10,379.95689,71.40938)"/>
<use data-text="e" xlink:href="#font_1_101" transform="matrix(10,0,0,-10,386.3069,71.40938)"/>
<use data-text="n" xlink:href="#font_1_110" transform="matrix(10,0,0,-10,392.45689,71.40938)"/>
<use data-text="a" xlink:href="#font_1_97" transform="matrix(10,0,0,-10,398.79689,71.40938)"/>
<use data-text="l" xlink:href="#font_1_108" transform="matrix(10,0,0,-10,404.92689,71.40938)"/>
<use data-text="t" xlink:href="#font_1_116" transform="matrix(10,0,0,-10,407.70689,71.40938)"/>
<use data-text="y" xlink:href="#font_1_121" transform="matrix(10,0,0,-10,411.6269,71.40938)"/>
<use data-text="=" xlink:href="#font_1_61" transform="matrix(10,0,0,-10,417.54689,71.40938)"/>
<use data-text="0" xlink:href="#font_1_48" transform="matrix(10,0,0,-10,425.92689,71.40938)"/>
<use data-text="." xlink:href="#font_1_46" transform="matrix(10,0,0,-10,432.28688,71.40938)"/>
<use data-text="1" xlink:href="#font_1_49" transform="matrix(10,0,0,-10,435.4669,71.40938)"/>
<path transform="matrix(1,0,0,-1,0,288)" stroke-width="1.5" stroke-linecap="butt" stroke-dasharray="5.55,2.4" stroke-linejoin="round" fill="none" stroke="#ff0000" d="M318.7469 205.41875H328.7469 338.7469"/>
<use data-text="M" xlink:href="#font_1_77" transform="matrix(10,0,0,-10,346.7469,86.08125)"/>
<use data-text="o" xlink:href="#font_1_111" transform="matrix(10,0,0,-10,355.3769,86.08125)"/>
<use data-text="d" xlink:href="#font_1_100" transform="matrix(10,0,0,-10,361.4969,86.08125)"/>
<use data-text="e" xlink:href="#font_1_101" transform="matrix(10,0,0,-10,367.8469,86.08125)"/>
<use data-text="l" xlink:href="#font_1_108" transform="matrix(10,0,0,-10,373.9969,86.08125)"/>
<use data-text=" " xlink:href="#font_1_32" transform="matrix(10,0,0,-10,376.7769,86.08125)"/>
<use data-text="p" xlink:href="#font_1_112" transform="matrix(10,0,0,-10,379.95689,86.08125)"/>
<use data-text="e" xlink:href="#font_1_101" transform="matrix(10,0,0,-10,386.3069,86.08125)"/>
<use data-text="n" xlink:href="#font_1_110" transform="matrix(10,0,0,-10,392.45689,86.08125)"/>
<use data-text="a" xlink:href="#font_1_97" transform="matrix(10,0,0,-10,398.79689,86.08125)"/>
<use data-text="l" xlink:href="#font_1_108" transform="matrix(10,0,0,-10,404.92689,86.08125)"/>
<use data-text="t" xlink:href="#font_1_116" transform="matrix(10,0,0,-10,407.70689,86.08125)"/>
<use data-text="y" xlink:href="#font_1_121" transform="matrix(10,0,0,-10,411.6269,86.08125)"/>
<use data-text="=" xlink:href="#font_1_61" transform="matrix(10,0,0,-10,417.54689,86.08125)"/>
<use data-text="0" xlink:href="#font_1_48" transform="matrix(10,0,0,-10,425.92689,86.08125)"/>
<use data-text="." xlink:href="#font_1_46" transform="matrix(10,0,0,-10,432.28688,86.08125)"/>
<use data-text="4" xlink:href="#font_1_52" transform="matrix(10,0,0,-10,435.4669,86.08125)"/>
</svg>
