<?xml version="1.0" encoding="UTF-8" standalone="no"?>
<!DOCTYPE svg PUBLIC "-//W3C//DTD SVG 1.1//EN" "http://www.w3.org/Graphics/SVG/1.1/DTD/svg11.dtd">
<svg xmlns="http://www.w3.org/2000/svg" xmlns:xlink="http://www.w3.org/1999/xlink" version="1.1" width="504pt" height="252pt" viewBox="0 0 504 252">
<g enable-background="new">
<path transform="matrix(1,0,0,-1,0,252)" d="M 0 0 L 504 0 L 504 252 L 0 252 Z " fill="#ffffff"/>
<path transform="matrix(1,0,0,-1,0,252)" d="M 47.378126 41.14375 L 493.2 41.14375 L 493.2 241.2 L 47.378126 241.2 Z " fill="#ffffff"/>
<path transform="matrix(1,0,0,-1,0,252)" d="M 91.96031 41.14375 L 91.96031 37.64375 "/>
<path transform="matrix(1,0,0,-1,0,252)" stroke-width=".8" stroke-linecap="butt" stroke-linejoin="round" fill="none" stroke="#000000" d="M 91.96031 41.14375 L 91.96031 37.64375 "/>
<symbol id="font_0_32">
<path transform="matrix(.001,0,0,.001,-.07300001,0)" d="M 192 83 L 536 83 L 536 0 L 73 0 L 73 83 C 110 121 161 173 226 239 C 290 304 331 346 348 365 C 380 400 402 430 414 455 C 426 479 433 504 433 528 C 433 566 419 598 392 622 C 365 646 330 659 286 659 C 255 659 222 653 188 643 C 154 632 117 616 78 594 L 78 694 C 118 710 155 722 189 730 C 223 738 255 742 284 742 C 359 742 419 723 464 685 C 509 647 532 597 532 534 C 532 504 526 475 515 449 C 504 422 484 390 454 354 C 446 344 420 317 376 272 C 332 227 271 164 192 83 Z "/>
</symbol>
<symbol id="font_0_30">
<path transform="matrix(.001,0,0,.001,-.066,.013)" d="M 318 664 C 267 664 229 639 203 589 C 177 539 165 464 165 364 C 165 264 177 189 203 139 C 229 89 267 64 318 64 C 369 64 407 89 433 139 C 458 189 471 264 471 364 C 471 464 458 539 433 589 C 407 639 369 664 318 664 Z M 318 742 C 399 742 461 709 505 645 C 548 580 570 486 570 364 C 570 241 548 147 505 83 C 461 19 399 -13 317 -13 C 235 -13 173 19 130 83 C 87 147 66 241 66 364 C 66 486 87 580 130 645 C 173 709 236 742 318 742 Z "/>
</symbol>
<use xlink:href="#font_0_32" transform="matrix(10,0,0,-10,90.52235,225.45)"/>
<use xlink:href="#font_0_30" transform="matrix(10,0,0,-10,96.81235,225.58)"/>
<clipPath id="cp1">
<path transform="matrix(.01,0,0,-.01,81.41344,225.45)" d="M -1021 -463 L 1794 -463 L 1794 1233 L -1021 1233 Z "/>
</clipPath>
<g clip-path="url(#cp1)">
<path transform="matrix(.01,0,0,-.01,81.41344,225.45)" d="M 106 355 L 732 355 L 732 272 L 106 272 L 106 355 Z "/>
</g>
<path transform="matrix(1,0,0,-1,0,252)" d="M 181.12468 41.14375 L 181.12468 37.64375 "/>
<path transform="matrix(1,0,0,-1,0,252)" stroke-width=".8" stroke-linecap="butt" stroke-linejoin="round" fill="none" stroke="#000000" d="M 181.12468 41.14375 L 181.12468 37.64375 "/>
<symbol id="font_0_31">
<path transform="matrix(.001,0,0,.001,-.11000001,0)" d="M 124 83 L 285 83 L 285 639 L 110 604 L 110 694 L 284 729 L 383 729 L 383 83 L 544 83 L 544 0 L 124 0 L 124 83 Z "/>
</symbol>
<use xlink:href="#font_0_31" transform="matrix(10,0,0,-10,180.05672,225.45)"/>
<use xlink:href="#font_0_30" transform="matrix(10,0,0,-10,185.97672,225.58)"/>
<clipPath id="cp2">
<path transform="matrix(.01,0,0,-.01,170.5778,225.45)" d="M -1021 -463 L 1794 -463 L 1794 1233 L -1021 1233 Z "/>
</clipPath>
<g clip-path="url(#cp2)">
<path transform="matrix(.01,0,0,-.01,170.5778,225.45)" d="M 106 355 L 732 355 L 732 272 L 106 272 L 106 355 Z "/>
</g>
<path transform="matrix(1,0,0,-1,0,252)" d="M 270.28907 41.14375 L 270.28907 37.64375 "/>
<path transform="matrix(1,0,0,-1,0,252)" stroke-width=".8" stroke-linecap="butt" stroke-linejoin="round" fill="none" stroke="#000000" d="M 270.28907 41.14375 L 270.28907 37.64375 "/>
<use xlink:href="#font_0_30" transform="matrix(10,0,0,-10,267.76939,225.58)"/>
<path transform="matrix(1,0,0,-1,0,252)" d="M 359.45344 41.14375 L 359.45344 37.64375 "/>
<path transform="matrix(1,0,0,-1,0,252)" stroke-width=".8" stroke-linecap="butt" stroke-linejoin="round" fill="none" stroke="#000000" d="M 359.45344 41.14375 L 359.45344 37.64375 "/>
<use xlink:href="#font_0_31" transform="matrix(10,0,0,-10,354.19407,225.45)"/>
<use xlink:href="#font_0_30" transform="matrix(10,0,0,-10,360.11405,225.58)"/>
<path transform="matrix(1,0,0,-1,0,252)" d="M 448.6178 41.14375 L 448.6178 37.64375 "/>
<path transform="matrix(1,0,0,-1,0,252)" stroke-width=".8" stroke-linecap="butt" stroke-linejoin="round" fill="none" stroke="#000000" d="M 448.6178 41.14375 L 448.6178 37.64375 "/>
<use xlink:href="#font_0_32" transform="matrix(10,0,0,-10,442.98844,225.45)"/>
<use xlink:href="#font_0_30" transform="matrix(10,0,0,-10,449.2784,225.58)"/>
<symbol id="font_0_44">
<path transform="matrix(.001,0,0,.001,-.098000008,0)" d="M 197 648 L 197 81 L 316 81 C 416 81 490 103 537 149 C 583 195 607 267 607 365 C 607 463 583 534 537 580 C 490 625 416 648 316 648 L 197 648 Z M 98 729 L 301 729 C 442 729 546 699 612 641 C 678 582 711 490 711 365 C 711 239 677 147 611 88 C 545 29 441 0 301 0 L 98 0 L 98 729 Z "/>
</symbol>
<symbol id="font_0_69">
<path transform="matrix(.001,0,0,.001,-.094000007,0)" d="M 94 547 L 184 547 L 184 0 L 94 0 L 94 547 Z M 94 760 L 184 760 L 184 646 L 94 646 L 94 760 Z "/>
</symbol>
<symbol id="font_0_73">
<path transform="matrix(.001,0,0,.001,-.054,.013)" d="M 443 531 L 443 446 C 417 458 391 468 364 475 C 336 481 308 485 279 485 C 234 485 200 478 178 464 C 156 450 145 430 145 403 C 145 382 153 366 169 354 C 185 342 217 330 265 320 L 296 313 C 360 299 405 279 432 255 C 458 230 472 195 472 151 C 472 100 452 60 412 31 C 372 1 316 -13 246 -13 C 216 -13 186 -10 154 -5 C 122 0 89 8 54 20 L 54 113 C 87 95 120 82 152 74 C 184 65 216 61 248 61 C 290 61 323 68 346 82 C 368 96 380 117 380 144 C 380 168 371 187 355 200 C 339 213 303 226 247 238 L 216 245 C 160 257 119 275 95 299 C 70 323 58 356 58 399 C 58 450 76 490 112 518 C 148 546 200 560 268 560 C 301 560 332 557 362 552 C 391 547 418 540 443 531 Z "/>
</symbol>
<symbol id="font_0_74">
<path transform="matrix(.001,0,0,.001,-.027,0)" d="M 183 702 L 183 547 L 368 547 L 368 477 L 183 477 L 183 180 C 183 135 189 106 201 94 C 213 81 238 75 276 75 L 368 75 L 368 0 L 276 0 C 206 0 158 13 132 39 C 106 65 93 112 93 180 L 93 477 L 27 477 L 27 547 L 93 547 L 93 702 L 183 702 Z "/>
</symbol>
<symbol id="font_0_61">
<path transform="matrix(.001,0,0,.001,-.060000004,.013)" d="M 343 275 C 270 275 220 266 192 250 C 164 233 150 205 150 165 C 150 133 160 107 181 89 C 202 70 231 61 267 61 C 317 61 357 78 387 114 C 417 149 432 196 432 255 L 432 275 L 343 275 Z M 522 312 L 522 0 L 432 0 L 432 83 C 411 49 385 25 355 10 C 325 -5 287 -13 243 -13 C 187 -13 142 2 109 33 C 76 64 60 106 60 159 C 60 220 80 266 122 298 C 163 329 224 345 306 345 L 432 345 L 432 354 C 432 395 418 427 391 450 C 364 472 326 484 277 484 C 245 484 215 480 185 472 C 155 464 127 453 100 439 L 100 522 C 132 534 164 544 195 550 C 226 556 256 560 286 560 C 365 560 424 539 463 498 C 502 457 522 395 522 312 Z "/>
</symbol>
<symbol id="font_0_6e">
<path transform="matrix(.001,0,0,.001,-.091000009,0)" d="M 549 330 L 549 0 L 459 0 L 459 327 C 459 379 448 417 428 443 C 408 469 378 482 338 482 C 289 482 251 466 223 435 C 195 404 181 362 181 309 L 181 0 L 91 0 L 91 547 L 181 547 L 181 462 C 202 494 227 519 257 535 C 286 551 320 560 358 560 C 420 560 468 540 500 501 C 532 462 549 405 549 330 Z "/>
</symbol>
<symbol id="font_0_63">
<path transform="matrix(.001,0,0,.001,-.055000005,.013)" d="M 488 526 L 488 442 C 462 456 437 466 411 473 C 385 480 360 484 334 484 C 276 484 230 465 198 428 C 166 391 150 339 150 273 C 150 206 166 154 198 117 C 230 80 276 62 334 62 C 360 62 385 65 411 72 C 437 79 462 90 488 104 L 488 21 C 462 9 436 0 410 -5 C 383 -10 354 -13 324 -13 C 242 -13 176 12 128 64 C 79 115 55 185 55 273 C 55 362 79 432 128 483 C 177 534 244 560 330 560 C 358 560 385 557 411 551 C 437 545 463 537 488 526 Z "/>
</symbol>
<symbol id="font_0_65">
<path transform="matrix(.001,0,0,.001,-.055000005,.013)" d="M 562 296 L 562 252 L 149 252 C 153 190 171 142 205 110 C 238 78 284 62 344 62 C 378 62 412 66 444 74 C 476 82 509 95 541 113 L 541 28 C 509 14 476 3 442 -3 C 408 -9 373 -13 339 -13 C 251 -13 182 12 131 62 C 80 112 55 181 55 268 C 55 357 79 428 127 481 C 175 533 241 560 323 560 C 397 560 455 536 498 489 C 540 441 562 377 562 296 Z M 472 322 C 471 371 457 410 431 440 C 404 469 368 484 324 484 C 274 484 234 469 204 441 C 174 413 156 373 152 322 L 472 322 Z "/>
</symbol>
<symbol id="font_0_20">
</symbol>
<symbol id="font_0_6c">
<path transform="matrix(.001,0,0,.001,-.094000007,0)" d="M 94 760 L 184 760 L 184 0 L 94 0 L 94 760 Z "/>
</symbol>
<symbol id="font_0_6f">
<path transform="matrix(.001,0,0,.001,-.055000005,.013)" d="M 306 484 C 258 484 220 465 192 427 C 164 389 150 338 150 273 C 150 207 163 156 191 118 C 219 80 257 62 306 62 C 354 62 392 80 420 118 C 448 156 462 207 462 273 C 462 337 448 389 420 427 C 392 465 354 484 306 484 Z M 306 560 C 384 560 445 534 490 484 C 534 433 557 363 557 273 C 557 183 534 113 490 63 C 445 12 384 -13 306 -13 C 227 -13 165 12 121 63 C 77 113 55 183 55 273 C 55 363 77 433 121 484 C 165 534 227 560 306 560 Z "/>
</symbol>
<symbol id="font_0_67">
<path transform="matrix(.001,0,0,.001,-.055000005,.20700002)" d="M 454 280 C 454 344 440 395 414 431 C 387 467 349 485 301 485 C 253 485 215 467 188 431 C 161 395 148 344 148 280 C 148 215 161 165 188 129 C 215 93 253 75 301 75 C 349 75 387 93 414 129 C 440 165 454 215 454 280 Z M 544 68 C 544 -24 523 -93 482 -139 C 440 -184 377 -207 292 -207 C 260 -207 231 -204 203 -200 C 175 -195 147 -188 121 -178 L 121 -91 C 147 -105 173 -115 199 -122 C 225 -129 251 -133 278 -133 C 336 -133 380 -117 410 -87 C 439 -56 454 -10 454 52 L 454 96 C 435 64 411 40 382 24 C 353 8 319 0 279 0 C 211 0 157 25 116 76 C 75 127 55 195 55 280 C 55 364 75 432 116 483 C 157 534 211 560 279 560 C 319 560 353 552 382 536 C 411 520 435 496 454 464 L 454 547 L 544 547 L 544 68 Z "/>
</symbol>
<symbol id="font_0_53">
<path transform="matrix(.001,0,0,.001,-.066,.013)" d="M 535 705 L 535 609 C 497 627 462 640 429 649 C 395 657 363 662 333 662 C 279 662 237 651 208 631 C 179 610 165 580 165 542 C 165 510 174 485 194 469 C 213 452 250 439 304 429 L 364 417 C 437 403 491 378 526 343 C 561 307 579 260 579 201 C 579 130 555 77 508 41 C 460 5 391 -13 300 -13 C 265 -13 228 -9 189 -2 C 150 5 110 16 69 32 L 69 134 C 109 111 148 94 186 83 C 224 71 262 66 300 66 C 356 66 399 77 430 99 C 460 121 476 152 476 194 C 476 230 465 258 443 278 C 421 298 385 313 335 323 L 275 335 C 201 349 148 372 115 404 C 82 435 66 478 66 534 C 66 598 88 649 134 686 C 179 723 242 742 322 742 C 356 742 390 739 426 733 C 461 727 497 717 535 705 Z "/>
</symbol>
<symbol id="font_0_72">
<path transform="matrix(.001,0,0,.001,-.091000009,0)" d="M 411 463 C 401 469 390 473 378 476 C 366 478 353 480 339 480 C 288 480 249 463 222 430 C 194 397 181 350 181 288 L 181 0 L 91 0 L 91 547 L 181 547 L 181 462 C 199 495 224 520 254 536 C 284 552 321 560 365 560 C 371 560 378 559 386 559 C 393 558 401 557 411 555 L 411 463 Z "/>
</symbol>
<symbol id="font_0_6b">
<path transform="matrix(.001,0,0,.001,-.091000009,0)" d="M 91 760 L 181 760 L 181 311 L 449 547 L 564 547 L 274 291 L 576 0 L 459 0 L 181 267 L 181 0 L 91 0 L 91 760 Z "/>
</symbol>
<symbol id="font_0_28">
<path transform="matrix(.001,0,0,.001,-.086,.13100001)" d="M 310 759 C 266 683 234 609 213 536 C 191 463 181 389 181 314 C 181 238 191 164 213 91 C 234 17 266 -56 310 -131 L 232 -131 C 183 -54 146 20 122 94 C 98 168 86 241 86 314 C 86 386 98 459 122 533 C 146 607 182 682 232 759 L 310 759 Z "/>
</symbol>
<symbol id="font_0_6d">
<path transform="matrix(.001,0,0,.001,-.091000009,0)" d="M 520 442 C 542 482 569 511 600 531 C 631 550 668 560 711 560 C 767 560 811 540 842 500 C 873 460 889 403 889 330 L 889 0 L 799 0 L 799 327 C 799 379 789 418 771 444 C 752 469 724 482 686 482 C 639 482 602 466 575 435 C 548 404 535 362 535 309 L 535 0 L 445 0 L 445 327 C 445 379 435 418 417 444 C 398 469 369 482 331 482 C 285 482 248 466 221 435 C 194 404 181 362 181 309 L 181 0 L 91 0 L 91 547 L 181 547 L 181 462 C 201 495 226 520 255 536 C 283 552 317 560 357 560 C 397 560 430 550 458 530 C 486 510 506 480 520 442 Z "/>
</symbol>
<symbol id="font_0_29">
<path transform="matrix(.001,0,0,.001,-.080000009,.13100001)" d="M 80 759 L 158 759 C 206 682 243 607 267 533 C 291 459 304 386 304 314 C 304 241 291 168 267 94 C 243 20 206 -54 158 -131 L 80 -131 C 123 -56 155 17 177 91 C 198 164 209 238 209 314 C 209 389 198 463 177 536 C 155 609 123 683 80 759 Z "/>
</symbol>
<use xlink:href="#font_0_44" transform="matrix(10,0,0,-10,204.70656,239.12187)"/>
<use xlink:href="#font_0_69" transform="matrix(10,0,0,-10,212.36656,239.12187)"/>
<use xlink:href="#font_0_73" transform="matrix(10,0,0,-10,214.74655,239.25188)"/>
<use xlink:href="#font_0_74" transform="matrix(10,0,0,-10,219.68657,239.12187)"/>
<use xlink:href="#font_0_61" transform="matrix(10,0,0,-10,223.93657,239.25188)"/>
<use xlink:href="#font_0_6e" transform="matrix(10,0,0,-10,230.37657,239.12187)"/>
<use xlink:href="#font_0_63" transform="matrix(10,0,0,-10,236.35657,239.25188)"/>
<use xlink:href="#font_0_65" transform="matrix(10,0,0,-10,241.85657,239.25188)"/>
<use xlink:href="#font_0_20" transform="matrix(10,0,0,-10,247.45658,239.12187)"/>
<use xlink:href="#font_0_61" transform="matrix(10,0,0,-10,251.23657,239.25188)"/>
<use xlink:href="#font_0_6c" transform="matrix(10,0,0,-10,257.70658,239.12187)"/>
<use xlink:href="#font_0_6f" transform="matrix(10,0,0,-10,260.09657,239.25188)"/>
<use xlink:href="#font_0_6e" transform="matrix(10,0,0,-10,266.57658,239.12187)"/>
<use xlink:href="#font_0_67" transform="matrix(10,0,0,-10,272.55656,241.19188)"/>
<use xlink:href="#font_0_20" transform="matrix(10,0,0,-10,278.35658,239.12187)"/>
<use xlink:href="#font_0_53" transform="matrix(10,0,0,-10,282.19657,239.25188)"/>
<use xlink:href="#font_0_74" transform="matrix(10,0,0,-10,288.15657,239.12187)"/>
<use xlink:href="#font_0_72" transform="matrix(10,0,0,-10,292.71656,239.12187)"/>
<use xlink:href="#font_0_69" transform="matrix(10,0,0,-10,296.85658,239.12187)"/>
<use xlink:href="#font_0_6b" transform="matrix(10,0,0,-10,299.60658,239.12187)"/>
<use xlink:href="#font_0_65" transform="matrix(10,0,0,-10,304.6928,239.25188)"/>
<use xlink:href="#font_0_20" transform="matrix(10,0,0,-10,310.29283,239.12187)"/>
<use xlink:href="#font_0_28" transform="matrix(10,0,0,-10,314.3328,240.43187)"/>
<use xlink:href="#font_0_6b" transform="matrix(10,0,0,-10,318.2828,239.12187)"/>
<use xlink:href="#font_0_6d" transform="matrix(10,0,0,-10,324.0728,239.12187)"/>
<use xlink:href="#font_0_29" transform="matrix(10,0,0,-10,333.70283,240.43187)"/>
<path transform="matrix(1,0,0,-1,0,252)" d="M 47.378126 50.237218 L 43.878126 50.237218 "/>
<path transform="matrix(1,0,0,-1,0,252)" stroke-width=".8" stroke-linecap="butt" stroke-linejoin="round" fill="none" stroke="#000000" d="M 47.378126 50.237218 L 43.878126 50.237218 "/>
<symbol id="font_0_2e">
<path transform="matrix(.001,0,0,.001,-.10700001,0)" d="M 107 124 L 210 124 L 210 0 L 107 0 L 107 124 Z "/>
</symbol>
<use xlink:href="#font_0_30" transform="matrix(10,0,0,-10,25.131875,205.68967)"/>
<use xlink:href="#font_0_2e" transform="matrix(10,0,0,-10,31.901875,205.55966)"/>
<use xlink:href="#font_0_30" transform="matrix(10,0,0,-10,34.671876,205.68967)"/>
<path transform="matrix(1,0,0,-1,0,252)" d="M 47.378126 72.97088 L 43.878126 72.97088 "/>
<path transform="matrix(1,0,0,-1,0,252)" stroke-width=".8" stroke-linecap="butt" stroke-linejoin="round" fill="none" stroke="#000000" d="M 47.378126 72.97088 L 43.878126 72.97088 "/>
<use xlink:href="#font_0_30" transform="matrix(10,0,0,-10,25.131875,182.956)"/>
<use xlink:href="#font_0_2e" transform="matrix(10,0,0,-10,31.901875,182.82599)"/>
<use xlink:href="#font_0_31" transform="matrix(10,0,0,-10,35.111875,182.82599)"/>
<path transform="matrix(1,0,0,-1,0,252)" d="M 47.378126 95.704547 L 43.878126 95.704547 "/>
<path transform="matrix(1,0,0,-1,0,252)" stroke-width=".8" stroke-linecap="butt" stroke-linejoin="round" fill="none" stroke="#000000" d="M 47.378126 95.704547 L 43.878126 95.704547 "/>
<use xlink:href="#font_0_30" transform="matrix(10,0,0,-10,25.131875,160.22234)"/>
<use xlink:href="#font_0_2e" transform="matrix(10,0,0,-10,31.901875,160.09233)"/>
<use xlink:href="#font_0_32" transform="matrix(10,0,0,-10,34.741876,160.09233)"/>
<path transform="matrix(1,0,0,-1,0,252)" d="M 47.378126 118.43821 L 43.878126 118.43821 "/>
<path transform="matrix(1,0,0,-1,0,252)" stroke-width=".8" stroke-linecap="butt" stroke-linejoin="round" fill="none" stroke="#000000" d="M 47.378126 118.43821 L 43.878126 118.43821 "/>
<symbol id="font_0_33">
<path transform="matrix(.001,0,0,.001,-.076000008,.013)" d="M 406 393 C 453 383 490 362 516 330 C 542 298 556 258 556 212 C 556 140 531 84 482 45 C 432 6 362 -13 271 -13 C 240 -13 208 -10 176 -4 C 144 1 110 10 76 22 L 76 117 C 103 101 133 89 166 81 C 198 73 232 69 268 69 C 330 69 377 81 409 105 C 441 129 458 165 458 212 C 458 254 443 288 413 312 C 383 336 341 349 287 349 L 202 349 L 202 430 L 291 430 C 339 430 376 439 402 459 C 428 478 441 506 441 543 C 441 580 427 609 401 629 C 374 649 336 659 287 659 C 260 659 231 656 200 650 C 169 644 135 635 98 623 L 98 711 C 135 721 170 729 203 734 C 235 739 266 742 296 742 C 370 742 429 725 473 691 C 517 657 539 611 539 553 C 539 513 527 479 504 451 C 481 423 448 403 406 393 Z "/>
</symbol>
<use xlink:href="#font_0_30" transform="matrix(10,0,0,-10,25.131875,137.48868)"/>
<use xlink:href="#font_0_2e" transform="matrix(10,0,0,-10,31.901875,137.35868)"/>
<use xlink:href="#font_0_33" transform="matrix(10,0,0,-10,34.771875,137.48868)"/>
<path transform="matrix(1,0,0,-1,0,252)" d="M 47.378126 141.17188 L 43.878126 141.17188 "/>
<path transform="matrix(1,0,0,-1,0,252)" stroke-width=".8" stroke-linecap="butt" stroke-linejoin="round" fill="none" stroke="#000000" d="M 47.378126 141.17188 L 43.878126 141.17188 "/>
<symbol id="font_0_34">
<path transform="matrix(.001,0,0,.001,-.049000004,0)" d="M 378 643 L 129 254 L 378 254 L 378 643 Z M 352 729 L 476 729 L 476 254 L 580 254 L 580 172 L 476 172 L 476 0 L 378 0 L 378 172 L 49 172 L 49 267 L 352 729 Z "/>
</symbol>
<use xlink:href="#font_0_30" transform="matrix(10,0,0,-10,25.131875,114.755)"/>
<use xlink:href="#font_0_2e" transform="matrix(10,0,0,-10,31.901875,114.625)"/>
<use xlink:href="#font_0_34" transform="matrix(10,0,0,-10,34.501878,114.625)"/>
<path transform="matrix(1,0,0,-1,0,252)" d="M 47.378126 163.90554 L 43.878126 163.90554 "/>
<path transform="matrix(1,0,0,-1,0,252)" stroke-width=".8" stroke-linecap="butt" stroke-linejoin="round" fill="none" stroke="#000000" d="M 47.378126 163.90554 L 43.878126 163.90554 "/>
<symbol id="font_0_35">
<path transform="matrix(.001,0,0,.001,-.07700001,.013)" d="M 108 729 L 495 729 L 495 646 L 198 646 L 198 467 C 212 472 227 476 241 478 C 255 480 270 482 284 482 C 365 482 429 459 477 415 C 525 370 549 310 549 234 C 549 155 524 94 475 51 C 426 8 357 -13 269 -13 C 238 -13 207 -10 175 -6 C 143 -1 111 6 77 17 L 77 116 C 106 100 136 88 168 80 C 199 72 232 69 267 69 C 323 69 368 83 401 113 C 433 143 450 183 450 234 C 450 284 433 324 401 354 C 368 384 323 399 267 399 C 241 399 214 396 188 390 C 162 384 135 375 108 363 L 108 729 Z "/>
</symbol>
<use xlink:href="#font_0_30" transform="matrix(10,0,0,-10,25.131875,92.02134)"/>
<use xlink:href="#font_0_2e" transform="matrix(10,0,0,-10,31.901875,91.89134)"/>
<use xlink:href="#font_0_35" transform="matrix(10,0,0,-10,34.781877,92.02134)"/>
<path transform="matrix(1,0,0,-1,0,252)" d="M 47.378126 186.6392 L 43.878126 186.6392 "/>
<path transform="matrix(1,0,0,-1,0,252)" stroke-width=".8" stroke-linecap="butt" stroke-linejoin="round" fill="none" stroke="#000000" d="M 47.378126 186.6392 L 43.878126 186.6392 "/>
<symbol id="font_0_36">
<path transform="matrix(.001,0,0,.001,-.07,.013)" d="M 330 404 C 286 404 251 388 225 358 C 199 328 186 286 186 234 C 186 181 199 139 225 109 C 251 79 286 64 330 64 C 374 64 409 79 435 109 C 461 139 474 181 474 234 C 474 286 461 328 435 358 C 409 388 374 404 330 404 Z M 526 713 L 526 623 C 501 635 476 644 451 650 C 425 656 400 659 376 659 C 310 659 260 637 226 593 C 192 549 172 482 168 394 C 187 422 211 444 240 459 C 269 474 301 482 336 482 C 409 482 467 459 509 415 C 551 371 573 310 573 234 C 573 159 550 99 506 54 C 462 9 403 -13 330 -13 C 246 -13 181 19 137 83 C 92 147 70 241 70 364 C 70 479 97 571 152 639 C 206 707 280 742 372 742 C 396 742 421 739 447 735 C 472 730 498 723 526 713 Z "/>
</symbol>
<use xlink:href="#font_0_30" transform="matrix(10,0,0,-10,25.131875,69.28767)"/>
<use xlink:href="#font_0_2e" transform="matrix(10,0,0,-10,31.901875,69.15767)"/>
<use xlink:href="#font_0_36" transform="matrix(10,0,0,-10,34.711877,69.28767)"/>
<path transform="matrix(1,0,0,-1,0,252)" d="M 47.378126 209.37287 L 43.878126 209.37287 "/>
<path transform="matrix(1,0,0,-1,0,252)" stroke-width=".8" stroke-linecap="butt" stroke-linejoin="round" fill="none" stroke="#000000" d="M 47.378126 209.37287 L 43.878126 209.37287 "/>
<symbol id="font_0_37">
<path transform="matrix(.001,0,0,.001,-.082,0)" d="M 82 729 L 551 729 L 551 687 L 286 0 L 183 0 L 432 646 L 82 646 L 82 729 Z "/>
</symbol>
<use xlink:href="#font_0_30" transform="matrix(10,0,0,-10,25.131875,46.554014)"/>
<use xlink:href="#font_0_2e" transform="matrix(10,0,0,-10,31.901875,46.42401)"/>
<use xlink:href="#font_0_37" transform="matrix(10,0,0,-10,34.831876,46.42401)"/>
<path transform="matrix(1,0,0,-1,0,252)" d="M 47.378126 232.10654 L 43.878126 232.10654 "/>
<path transform="matrix(1,0,0,-1,0,252)" stroke-width=".8" stroke-linecap="butt" stroke-linejoin="round" fill="none" stroke="#000000" d="M 47.378126 232.10654 L 43.878126 232.10654 "/>
<symbol id="font_0_38">
<path transform="matrix(.001,0,0,.001,-.068,.013)" d="M 318 346 C 271 346 234 333 207 308 C 180 283 167 249 167 205 C 167 161 180 126 207 101 C 234 76 271 64 318 64 C 364 64 401 76 428 102 C 455 127 469 161 469 205 C 469 249 455 283 429 308 C 402 333 365 346 318 346 Z M 219 388 C 177 398 144 418 120 447 C 96 476 85 511 85 553 C 85 611 105 657 147 691 C 188 725 245 742 318 742 C 390 742 447 725 489 691 C 530 657 551 611 551 553 C 551 511 539 476 515 447 C 491 418 459 398 417 388 C 464 377 501 355 528 323 C 554 291 568 251 568 205 C 568 134 546 80 503 43 C 459 5 397 -13 317 -13 C 237 -13 175 5 132 43 C 89 80 68 134 68 205 C 68 251 81 291 108 323 C 134 355 171 377 219 388 Z M 183 544 C 183 506 194 476 218 455 C 242 434 275 424 318 424 C 360 424 393 434 417 455 C 441 476 453 506 453 544 C 453 582 441 611 417 632 C 393 653 360 664 318 664 C 275 664 242 653 218 632 C 194 611 183 582 183 544 Z "/>
</symbol>
<use xlink:href="#font_0_30" transform="matrix(10,0,0,-10,25.131875,23.820338)"/>
<use xlink:href="#font_0_2e" transform="matrix(10,0,0,-10,31.901875,23.690339)"/>
<use xlink:href="#font_0_38" transform="matrix(10,0,0,-10,34.691877,23.820338)"/>
<symbol id="font_0_4c">
<path transform="matrix(.001,0,0,.001,-.098000008,0)" d="M 98 729 L 197 729 L 197 83 L 552 83 L 552 0 L 98 0 L 98 729 Z "/>
</symbol>
<symbol id="font_0_66">
<path transform="matrix(.001,0,0,.001,-.023000002,0)" d="M 371 760 L 371 685 L 285 685 C 253 685 230 678 218 665 C 205 652 199 629 199 595 L 199 547 L 347 547 L 347 477 L 199 477 L 199 0 L 109 0 L 109 477 L 23 477 L 23 547 L 109 547 L 109 585 C 109 645 123 690 151 718 C 179 746 224 760 286 760 L 371 760 Z "/>
</symbol>
<symbol id="font_0_2d">
<path transform="matrix(.001,0,0,.001,-.049000004,-.23400001)" d="M 49 314 L 312 314 L 312 234 L 49 234 L 49 314 Z "/>
</symbol>
<symbol id="font_0_70">
<path transform="matrix(.001,0,0,.001,-.091000009,.20700002)" d="M 181 82 L 181 -207 L 91 -207 L 91 547 L 181 547 L 181 464 C 199 496 223 520 252 536 C 281 552 316 560 356 560 C 422 560 476 533 518 481 C 559 428 580 359 580 273 C 580 187 559 117 518 65 C 476 13 422 -13 356 -13 C 316 -13 281 -5 252 10 C 223 25 199 49 181 82 Z M 487 273 C 487 339 473 390 446 428 C 418 466 381 485 334 485 C 286 485 249 466 222 428 C 194 390 181 339 181 273 C 181 207 194 155 222 117 C 249 79 286 61 334 61 C 381 61 418 79 446 117 C 473 155 487 207 487 273 Z "/>
</symbol>
<use xlink:href="#font_0_4c" transform="matrix(0,-10,-10,-0,18.39375,158.2075)"/>
<use xlink:href="#font_0_65" transform="matrix(0,-10,-10,-0,18.523749,153.23937)"/>
<use xlink:href="#font_0_66" transform="matrix(0,-10,-10,-0,18.39375,147.40938)"/>
<use xlink:href="#font_0_74" transform="matrix(0,-10,-10,-0,18.39375,144.02124)"/>
<use xlink:href="#font_0_2d" transform="matrix(0,-10,-10,-0,16.05375,139.88124)"/>
<use xlink:href="#font_0_6c" transform="matrix(0,-10,-10,-0,18.39375,135.82125)"/>
<use xlink:href="#font_0_61" transform="matrix(0,-10,-10,-0,18.523749,133.38124)"/>
<use xlink:href="#font_0_74" transform="matrix(0,-10,-10,-0,18.39375,127.581249)"/>
<use xlink:href="#font_0_65" transform="matrix(0,-10,-10,-0,18.523749,123.38124)"/>
<use xlink:href="#font_0_72" transform="matrix(0,-10,-10,-0,18.39375,116.87124)"/>
<use xlink:href="#font_0_61" transform="matrix(0,-10,-10,-0,18.523749,113.07124)"/>
<use xlink:href="#font_0_6c" transform="matrix(0,-10,-10,-0,18.39375,106.60124)"/>
<use xlink:href="#font_0_20" transform="matrix(0,-10,-10,-0,18.39375,104.761249)"/>
<use xlink:href="#font_0_53" transform="matrix(0,-10,-10,-0,18.523749,100.921237)"/>
<use xlink:href="#font_0_6c" transform="matrix(0,-10,-10,-0,18.39375,94.29124)"/>
<use xlink:href="#font_0_69" transform="matrix(0,-10,-10,-0,18.39375,91.51124)"/>
<use xlink:href="#font_0_70" transform="matrix(0,-10,-10,-0,20.463749,88.76124)"/>
<use xlink:href="#font_0_20" transform="matrix(0,-10,-10,-0,18.39375,83.32124)"/>
<use xlink:href="#font_0_28" transform="matrix(0,-10,-10,-0,19.703749,79.28124)"/>
<use xlink:href="#font_0_6d" transform="matrix(0,-10,-10,-0,18.39375,75.33124)"/>
<use xlink:href="#font_0_29" transform="matrix(0,-10,-10,-0,19.703749,65.70124)"/>
<clipPath id="cp3">
<path transform="matrix(1,0,0,-1,0,252)" d="M 47.378126 41.14375 L 493.19999 41.14375 L 493.19999 241.2 L 47.378126 241.2 Z "/>
</clipPath>
<g clip-path="url(#cp3)">
<path transform="matrix(1,0,0,-1,0,252)" stroke-width="2" stroke-linecap="square" stroke-linejoin="round" fill="none" stroke="#000000" d="M -1 50.237218 L .020647 50.237218 L 35.707395 50.237218 L 72.15437 50.237218 L 107.8166 50.237218 L 144.28398 72.97088 L 179.92987 118.43821 L 216.4095 232.10654 L 252.04721 186.6392 L 288.5309 186.6392 L 324.1686 95.704547 L 360.64826 141.17188 L 396.29414 118.43821 L 432.76155 50.237218 L 468.42378 50.237218 L 504.87074 50.237218 L 505 50.237218 "/>
</g>
<path transform="matrix(1,0,0,-1,0,252)" stroke-width=".8" stroke-linecap="square" stroke-miterlimit="10" stroke-linejoin="miter" fill="none" stroke="#000000" d="M 47.378126 41.14375 L 47.378126 241.2 "/>
<path transform="matrix(1,0,0,-1,0,252)" stroke-width=".8" stroke-linecap="square" stroke-miterlimit="10" stroke-linejoin="miter" fill="none" stroke="#000000" d="M 493.2 41.14375 L 493.2 241.2 "/>
<path transform="matrix(1,0,0,-1,0,252)" stroke-width=".8" stroke-linecap="square" stroke-miterlimit="10" stroke-linejoin="miter" fill="none" stroke="#000000" d="M 47.378126 41.14375 L 493.2 41.14375 "/>
<path transform="matrix(1,0,0,-1,0,252)" stroke-width=".8" stroke-linecap="square" stroke-miterlimit="10" stroke-linejoin="miter" fill="none" stroke="#000000" d="M 47.378126 241.2 L 493.2 241.2 "/>
</g>
</svg>
