<?xml version="1.0" encoding="UTF-8" standalone="no"?>
<!DOCTYPE svg PUBLIC "-//W3C//DTD SVG 1.1//EN" "http://www.w3.org/Graphics/SVG/1.1/DTD/svg11.dtd">
<svg xmlns="http://www.w3.org/2000/svg" xmlns:xlink="http://www.w3.org/1999/xlink" version="1.1" width="504pt" height="180pt" viewBox="0 0 504 180">
<g enable-background="new">
<path transform="matrix(1,0,0,-1,0,180)" d="M 0 0 L 504 0 L 504 180 L 0 180 Z " fill="#ffffff"/>
<path transform="matrix(1,0,0,-1,0,180)" d="M 40.32 32.4 L 239.7287 32.4 L 239.7287 172.8 L 40.32 172.8 Z " fill="#ffffff"/>
<path transform="matrix(1,0,0,-1,0,180)" d="M 68.90906 32.4 L 68.90906 28.9 "/>
<path transform="matrix(1,0,0,-1,0,180)" stroke-width=".8" stroke-linecap="butt" stroke-linejoin="round" fill="none" stroke="#000000" d="M 68.90906 32.4 L 68.90906 28.9 "/>
<symbol id="font_0_74">
<path transform="matrix(.001,0,0,.001,-.064,0)" d="M 423 547 L 409 477 L 230 477 L 172 180 C 170 169 168 160 167 152 C 166 144 166 139 166 135 C 166 114 172 99 185 89 C 197 79 217 75 245 75 L 336 75 L 321 0 L 235 0 C 181 0 141 10 115 31 C 89 52 76 84 76 126 C 76 133 76 141 77 150 C 78 159 80 169 82 180 L 140 477 L 64 477 L 78 547 L 153 547 L 183 702 L 273 702 L 243 547 L 423 547 Z "/>
</symbol>
<use xlink:href="#font_0_74" transform="matrix(10,0,0,-10,65.54906,161.5375)"/>
<symbol id="font_0_72">
<path transform="matrix(.001,0,0,.001,-.035,0)" d="M 446 464 C 436 468 426 472 414 475 C 402 477 390 479 377 479 C 329 479 287 460 251 424 C 215 388 192 339 180 279 L 125 0 L 35 0 L 142 547 L 232 547 L 215 462 C 238 493 266 517 300 534 C 333 551 368 560 406 560 C 415 560 424 559 434 558 C 444 557 453 555 463 553 L 446 464 Z "/>
</symbol>
<use xlink:href="#font_0_72" transform="matrix(7,0,0,-7,69.07496,163.17813)"/>
<path transform="matrix(1,0,0,-1,0,180)" d="M 104.645389 32.4 L 104.645389 28.9 "/>
<path transform="matrix(1,0,0,-1,0,180)" stroke-width=".8" stroke-linecap="butt" stroke-linejoin="round" fill="none" stroke="#000000" d="M 104.645389 32.4 L 104.645389 28.9 "/>
<use xlink:href="#font_0_74" transform="matrix(10,0,0,-10,87.285388,161.5375)"/>
<use xlink:href="#font_0_72" transform="matrix(7,0,0,-7,90.81129,163.17813)"/>
<symbol id="font_1_2b">
<path transform="matrix(.001,0,0,.001,-.106000009,0)" d="M 460 627 L 460 355 L 732 355 L 732 272 L 460 272 L 460 0 L 378 0 L 378 272 L 106 272 L 106 355 L 378 355 L 378 627 L 460 627 Z "/>
</symbol>
<use xlink:href="#font_1_2b" transform="matrix(10,0,0,-10,96.72589,161.5375)"/>
<use xlink:href="#font_0_74" transform="matrix(10,0,0,-10,106.63304,161.5375)"/>
<symbol id="font_0_61">
<path transform="matrix(.001,0,0,.001,-.041,.013)" d="M 537 312 L 476 0 L 386 0 L 403 83 C 376 50 346 26 312 10 C 278 -5 241 -13 200 -13 C 153 -13 115 1 85 29 C 55 57 41 93 41 138 C 41 202 66 252 117 289 C 168 326 238 345 328 345 L 453 345 L 458 369 C 458 371 459 374 459 377 C 459 380 460 385 460 392 C 460 421 448 444 424 460 C 400 476 367 484 325 484 C 295 484 265 480 235 472 C 204 464 172 453 140 439 L 156 522 C 190 534 223 544 255 550 C 287 556 319 560 349 560 C 413 560 462 546 496 518 C 530 490 547 449 547 396 C 547 385 546 372 544 358 C 542 343 540 328 537 312 Z M 440 275 L 350 275 C 276 275 222 265 187 245 C 151 225 134 195 134 154 C 134 125 143 102 161 86 C 179 70 204 62 236 62 C 284 62 327 79 363 114 C 399 149 424 196 436 255 L 440 275 Z "/>
</symbol>
<symbol id="font_0_63">
<path transform="matrix(.001,0,0,.001,-.046000005,.013)" d="M 536 526 L 518 437 C 496 452 473 464 449 472 C 425 480 400 484 374 484 C 345 484 318 479 292 469 C 266 459 244 444 227 426 C 199 397 177 364 162 326 C 146 288 139 248 139 208 C 139 158 151 122 176 98 C 200 74 238 62 288 62 C 312 62 339 65 367 73 C 395 80 424 91 454 107 L 437 18 C 411 7 384 0 356 -5 C 328 -10 300 -13 272 -13 C 199 -13 143 5 104 41 C 65 77 46 128 46 196 C 46 252 56 304 76 352 C 96 400 127 443 167 481 C 194 507 226 526 263 540 C 299 553 340 560 384 560 C 409 560 434 557 459 551 C 484 545 510 537 536 526 Z "/>
</symbol>
<use xlink:href="#font_0_61" transform="matrix(7,0,0,-7,110.20094,163.26914)"/>
<use xlink:href="#font_0_63" transform="matrix(7,0,0,-7,114.52549,163.26914)"/>
<use xlink:href="#font_0_63" transform="matrix(7,0,0,-7,118.37412,163.26914)"/>
<path transform="matrix(1,0,0,-1,0,180)" d="M 176.11804 32.4 L 176.11804 28.9 "/>
<path transform="matrix(1,0,0,-1,0,180)" stroke-width=".8" stroke-linecap="butt" stroke-linejoin="round" fill="none" stroke="#000000" d="M 176.11804 32.4 L 176.11804 28.9 "/>
<use xlink:href="#font_0_74" transform="matrix(10,0,0,-10,153.75804,161.5375)"/>
<symbol id="font_0_69">
<path transform="matrix(.001,0,0,.001,-.035,0)" d="M 183 760 L 273 760 L 251 646 L 161 646 L 183 760 Z M 142 547 L 232 547 L 125 0 L 35 0 L 142 547 Z "/>
</symbol>
<symbol id="font_0_73">
<path transform="matrix(.001,0,0,.001,-.011000001,.013)" d="M 500 531 L 483 446 C 459 458 433 468 407 475 C 381 481 354 485 326 485 C 278 485 241 477 214 461 C 187 445 174 423 174 395 C 174 363 205 338 269 321 C 273 319 277 318 279 318 L 308 309 C 368 292 408 274 428 256 C 448 238 458 213 458 182 C 458 124 435 77 389 41 C 343 5 282 -13 208 -13 C 179 -13 149 -10 117 -5 C 85 0 49 8 11 20 L 29 113 C 61 95 94 82 126 74 C 158 65 188 61 218 61 C 262 61 297 70 325 89 C 352 108 366 132 366 161 C 366 192 330 217 258 237 L 249 239 L 218 247 C 172 259 138 274 117 294 C 96 314 86 339 86 370 C 86 428 107 475 151 509 C 195 543 254 560 330 560 C 360 560 389 557 417 552 C 445 547 472 540 500 531 Z "/>
</symbol>
<symbol id="font_0_65">
<path transform="matrix(.001,0,0,.001,-.046000005,.013)" d="M 481 322 C 481 327 482 332 483 338 C 483 344 484 349 484 355 C 484 395 472 426 449 449 C 425 472 394 484 354 484 C 309 484 270 469 236 441 C 202 413 176 373 158 322 L 481 322 Z M 559 252 L 141 252 C 139 239 137 229 137 222 C 136 215 136 209 136 204 C 136 158 150 123 178 99 C 206 74 245 62 296 62 C 334 62 371 66 406 75 C 441 83 474 96 504 114 L 487 25 C 454 11 420 2 386 -4 C 352 -10 317 -13 282 -13 C 206 -13 147 5 107 41 C 66 77 46 128 46 195 C 46 251 56 304 76 353 C 96 402 126 446 166 485 C 191 509 221 527 256 540 C 291 553 328 560 368 560 C 430 560 479 541 516 504 C 552 467 571 417 571 355 C 571 340 570 324 568 307 C 566 289 563 271 559 252 Z "/>
</symbol>
<use xlink:href="#font_0_72" transform="matrix(7,0,0,-7,157.28394,163.17813)"/>
<use xlink:href="#font_0_69" transform="matrix(7,0,0,-7,160.16187,163.17813)"/>
<use xlink:href="#font_0_73" transform="matrix(7,0,0,-7,161.93869,163.26914)"/>
<use xlink:href="#font_0_65" transform="matrix(7,0,0,-7,165.83068,163.26914)"/>
<use xlink:href="#font_0_74" transform="matrix(10,0,0,-10,183.00414,161.5375)"/>
<use xlink:href="#font_0_61" transform="matrix(7,0,0,-7,186.57204,163.26914)"/>
<use xlink:href="#font_0_63" transform="matrix(7,0,0,-7,190.89659,163.26914)"/>
<use xlink:href="#font_0_63" transform="matrix(7,0,0,-7,194.74523,163.26914)"/>
<clipPath id="cp2">
<path transform="matrix(.01,0,0,-.01,172.03699,161.5375)" d="M -1021 -463 L 1794 -463 L 1794 1233 L -1021 1233 Z "/>
</clipPath>
<g clip-path="url(#cp2)">
<path transform="matrix(.01,0,0,-.01,172.03699,161.5375)" d="M 106 355 L 732 355 L 732 272 L 106 272 L 106 355 Z "/>
</g>
<path transform="matrix(1,0,0,-1,0,180)" d="M 211.85436 32.4 L 211.85436 28.9 "/>
<path transform="matrix(1,0,0,-1,0,180)" stroke-width=".8" stroke-linecap="butt" stroke-linejoin="round" fill="none" stroke="#000000" d="M 211.85436 32.4 L 211.85436 28.9 "/>
<use xlink:href="#font_0_74" transform="matrix(10,0,0,-10,203.99436,161.5375)"/>
<use xlink:href="#font_0_72" transform="matrix(7,0,0,-7,207.52025,163.17813)"/>
<use xlink:href="#font_0_69" transform="matrix(7,0,0,-7,210.39818,163.17813)"/>
<use xlink:href="#font_0_73" transform="matrix(7,0,0,-7,212.175,163.26914)"/>
<use xlink:href="#font_0_65" transform="matrix(7,0,0,-7,216.06699,163.26914)"/>
<symbol id="font_1_54">
<path transform="matrix(.001,0,0,.001,.002,0)" d="M -2 729 L 614 729 L 614 646 L 355 646 L 355 0 L 256 0 L 256 646 L -2 646 L -2 729 Z "/>
</symbol>
<symbol id="font_1_69">
<path transform="matrix(.001,0,0,.001,-.094000007,0)" d="M 94 547 L 184 547 L 184 0 L 94 0 L 94 547 Z M 94 760 L 184 760 L 184 646 L 94 646 L 94 760 Z "/>
</symbol>
<symbol id="font_1_6d">
<path transform="matrix(.001,0,0,.001,-.091000009,0)" d="M 520 442 C 542 482 569 511 600 531 C 631 550 668 560 711 560 C 767 560 811 540 842 500 C 873 460 889 403 889 330 L 889 0 L 799 0 L 799 327 C 799 379 789 418 771 444 C 752 469 724 482 686 482 C 639 482 602 466 575 435 C 548 404 535 362 535 309 L 535 0 L 445 0 L 445 327 C 445 379 435 418 417 444 C 398 469 369 482 331 482 C 285 482 248 466 221 435 C 194 404 181 362 181 309 L 181 0 L 91 0 L 91 547 L 181 547 L 181 462 C 201 495 226 520 255 536 C 283 552 317 560 357 560 C 397 560 430 550 458 530 C 486 510 506 480 520 442 Z "/>
</symbol>
<symbol id="font_1_65">
<path transform="matrix(.001,0,0,.001,-.055000005,.013)" d="M 562 296 L 562 252 L 149 252 C 153 190 171 142 205 110 C 238 78 284 62 344 62 C 378 62 412 66 444 74 C 476 82 509 95 541 113 L 541 28 C 509 14 476 3 442 -3 C 408 -9 373 -13 339 -13 C 251 -13 182 12 131 62 C 80 112 55 181 55 268 C 55 357 79 428 127 481 C 175 533 241 560 323 560 C 397 560 455 536 498 489 C 540 441 562 377 562 296 Z M 472 322 C 471 371 457 410 431 440 C 404 469 368 484 324 484 C 274 484 234 469 204 441 C 174 413 156 373 152 322 L 472 322 Z "/>
</symbol>
<use xlink:href="#font_1_54" transform="matrix(10,0,0,-10,127.73091,176.19376)"/>
<use xlink:href="#font_1_69" transform="matrix(10,0,0,-10,134.50403,176.19376)"/>
<use xlink:href="#font_1_6d" transform="matrix(10,0,0,-10,137.25405,176.19376)"/>
<use xlink:href="#font_1_65" transform="matrix(10,0,0,-10,146.63404,176.32376)"/>
<path transform="matrix(1,0,0,-1,0,180)" d="M 40.32 32.4 L 36.82 32.4 "/>
<path transform="matrix(1,0,0,-1,0,180)" stroke-width=".8" stroke-linecap="butt" stroke-linejoin="round" fill="none" stroke="#000000" d="M 40.32 32.4 L 36.82 32.4 "/>
<symbol id="font_1_30">
<path transform="matrix(.001,0,0,.001,-.066,.013)" d="M 318 664 C 267 664 229 639 203 589 C 177 539 165 464 165 364 C 165 264 177 189 203 139 C 229 89 267 64 318 64 C 369 64 407 89 433 139 C 458 189 471 264 471 364 C 471 464 458 539 433 589 C 407 639 369 664 318 664 Z M 318 742 C 399 742 461 709 505 645 C 548 580 570 486 570 364 C 570 241 548 147 505 83 C 461 19 399 -13 317 -13 C 235 -13 173 19 130 83 C 87 147 66 241 66 364 C 66 486 87 580 130 645 C 173 709 236 742 318 742 Z "/>
</symbol>
<symbol id="font_1_2e">
<path transform="matrix(.001,0,0,.001,-.10700001,0)" d="M 107 124 L 210 124 L 210 0 L 107 0 L 107 124 Z "/>
</symbol>
<use xlink:href="#font_1_30" transform="matrix(10,0,0,-10,18.07375,151.52689)"/>
<use xlink:href="#font_1_2e" transform="matrix(10,0,0,-10,24.84375,151.39688)"/>
<use xlink:href="#font_1_30" transform="matrix(10,0,0,-10,27.61375,151.52689)"/>
<path transform="matrix(1,0,0,-1,0,180)" d="M 40.32 60.48 L 36.82 60.48 "/>
<path transform="matrix(1,0,0,-1,0,180)" stroke-width=".8" stroke-linecap="butt" stroke-linejoin="round" fill="none" stroke="#000000" d="M 40.32 60.48 L 36.82 60.48 "/>
<symbol id="font_1_32">
<path transform="matrix(.001,0,0,.001,-.07300001,0)" d="M 192 83 L 536 83 L 536 0 L 73 0 L 73 83 C 110 121 161 173 226 239 C 290 304 331 346 348 365 C 380 400 402 430 414 455 C 426 479 433 504 433 528 C 433 566 419 598 392 622 C 365 646 330 659 286 659 C 255 659 222 653 188 643 C 154 632 117 616 78 594 L 78 694 C 118 710 155 722 189 730 C 223 738 255 742 284 742 C 359 742 419 723 464 685 C 509 647 532 597 532 534 C 532 504 526 475 515 449 C 504 422 484 390 454 354 C 446 344 420 317 376 272 C 332 227 271 164 192 83 Z "/>
</symbol>
<use xlink:href="#font_1_30" transform="matrix(10,0,0,-10,18.07375,123.44688)"/>
<use xlink:href="#font_1_2e" transform="matrix(10,0,0,-10,24.84375,123.31688)"/>
<use xlink:href="#font_1_32" transform="matrix(10,0,0,-10,27.68375,123.31688)"/>
<path transform="matrix(1,0,0,-1,0,180)" d="M 40.32 88.56 L 36.82 88.56 "/>
<path transform="matrix(1,0,0,-1,0,180)" stroke-width=".8" stroke-linecap="butt" stroke-linejoin="round" fill="none" stroke="#000000" d="M 40.32 88.56 L 36.82 88.56 "/>
<symbol id="font_1_34">
<path transform="matrix(.001,0,0,.001,-.049000004,0)" d="M 378 643 L 129 254 L 378 254 L 378 643 Z M 352 729 L 476 729 L 476 254 L 580 254 L 580 172 L 476 172 L 476 0 L 378 0 L 378 172 L 49 172 L 49 267 L 352 729 Z "/>
</symbol>
<use xlink:href="#font_1_30" transform="matrix(10,0,0,-10,18.07375,95.366878)"/>
<use xlink:href="#font_1_2e" transform="matrix(10,0,0,-10,24.84375,95.23688)"/>
<use xlink:href="#font_1_34" transform="matrix(10,0,0,-10,27.44375,95.23688)"/>
<path transform="matrix(1,0,0,-1,0,180)" d="M 40.32 116.64 L 36.82 116.64 "/>
<path transform="matrix(1,0,0,-1,0,180)" stroke-width=".8" stroke-linecap="butt" stroke-linejoin="round" fill="none" stroke="#000000" d="M 40.32 116.64 L 36.82 116.64 "/>
<symbol id="font_1_36">
<path transform="matrix(.001,0,0,.001,-.07,.013)" d="M 330 404 C 286 404 251 388 225 358 C 199 328 186 286 186 234 C 186 181 199 139 225 109 C 251 79 286 64 330 64 C 374 64 409 79 435 109 C 461 139 474 181 474 234 C 474 286 461 328 435 358 C 409 388 374 404 330 404 Z M 526 713 L 526 623 C 501 635 476 644 451 650 C 425 656 400 659 376 659 C 310 659 260 637 226 593 C 192 549 172 482 168 394 C 187 422 211 444 240 459 C 269 474 301 482 336 482 C 409 482 467 459 509 415 C 551 371 573 310 573 234 C 573 159 550 99 506 54 C 462 9 403 -13 330 -13 C 246 -13 181 19 137 83 C 92 147 70 241 70 364 C 70 479 97 571 152 639 C 206 707 280 742 372 742 C 396 742 421 739 447 735 C 472 730 498 723 526 713 Z "/>
</symbol>
<use xlink:href="#font_1_30" transform="matrix(10,0,0,-10,18.07375,67.28687)"/>
<use xlink:href="#font_1_2e" transform="matrix(10,0,0,-10,24.84375,67.156879)"/>
<use xlink:href="#font_1_36" transform="matrix(10,0,0,-10,27.653752,67.28687)"/>
<path transform="matrix(1,0,0,-1,0,180)" d="M 40.32 144.72 L 36.82 144.72 "/>
<path transform="matrix(1,0,0,-1,0,180)" stroke-width=".8" stroke-linecap="butt" stroke-linejoin="round" fill="none" stroke="#000000" d="M 40.32 144.72 L 36.82 144.72 "/>
<symbol id="font_1_38">
<path transform="matrix(.001,0,0,.001,-.068,.013)" d="M 318 346 C 271 346 234 333 207 308 C 180 283 167 249 167 205 C 167 161 180 126 207 101 C 234 76 271 64 318 64 C 364 64 401 76 428 102 C 455 127 469 161 469 205 C 469 249 455 283 429 308 C 402 333 365 346 318 346 Z M 219 388 C 177 398 144 418 120 447 C 96 476 85 511 85 553 C 85 611 105 657 147 691 C 188 725 245 742 318 742 C 390 742 447 725 489 691 C 530 657 551 611 551 553 C 551 511 539 476 515 447 C 491 418 459 398 417 388 C 464 377 501 355 528 323 C 554 291 568 251 568 205 C 568 134 546 80 503 43 C 459 5 397 -13 317 -13 C 237 -13 175 5 132 43 C 89 80 68 134 68 205 C 68 251 81 291 108 323 C 134 355 171 377 219 388 Z M 183 544 C 183 506 194 476 218 455 C 242 434 275 424 318 424 C 360 424 393 434 417 455 C 441 476 453 506 453 544 C 453 582 441 611 417 632 C 393 653 360 664 318 664 C 275 664 242 653 218 632 C 194 611 183 582 183 544 Z "/>
</symbol>
<use xlink:href="#font_1_30" transform="matrix(10,0,0,-10,18.07375,39.206876)"/>
<use xlink:href="#font_1_2e" transform="matrix(10,0,0,-10,24.84375,39.076875)"/>
<use xlink:href="#font_1_38" transform="matrix(10,0,0,-10,27.63375,39.206876)"/>
<path transform="matrix(1,0,0,-1,0,180)" d="M 40.32 172.8 L 36.82 172.8 "/>
<path transform="matrix(1,0,0,-1,0,180)" stroke-width=".8" stroke-linecap="butt" stroke-linejoin="round" fill="none" stroke="#000000" d="M 40.32 172.8 L 36.82 172.8 "/>
<symbol id="font_1_31">
<path transform="matrix(.001,0,0,.001,-.11000001,0)" d="M 124 83 L 285 83 L 285 639 L 110 604 L 110 694 L 284 729 L 383 729 L 383 83 L 544 83 L 544 0 L 124 0 L 124 83 Z "/>
</symbol>
<use xlink:href="#font_1_31" transform="matrix(10,0,0,-10,18.51375,10.996872)"/>
<use xlink:href="#font_1_2e" transform="matrix(10,0,0,-10,24.84375,10.996872)"/>
<use xlink:href="#font_1_30" transform="matrix(10,0,0,-10,27.61375,11.126872)"/>
<symbol id="font_1_53">
<path transform="matrix(.001,0,0,.001,-.066,.013)" d="M 535 705 L 535 609 C 497 627 462 640 429 649 C 395 657 363 662 333 662 C 279 662 237 651 208 631 C 179 610 165 580 165 542 C 165 510 174 485 194 469 C 213 452 250 439 304 429 L 364 417 C 437 403 491 378 526 343 C 561 307 579 260 579 201 C 579 130 555 77 508 41 C 460 5 391 -13 300 -13 C 265 -13 228 -9 189 -2 C 150 5 110 16 69 32 L 69 134 C 109 111 148 94 186 83 C 224 71 262 66 300 66 C 356 66 399 77 430 99 C 460 121 476 152 476 194 C 476 230 465 258 443 278 C 421 298 385 313 335 323 L 275 335 C 201 349 148 372 115 404 C 82 435 66 478 66 534 C 66 598 88 649 134 686 C 179 723 242 742 322 742 C 356 742 390 739 426 733 C 461 727 497 717 535 705 Z "/>
</symbol>
<symbol id="font_1_6c">
<path transform="matrix(.001,0,0,.001,-.094000007,0)" d="M 94 760 L 184 760 L 184 0 L 94 0 L 94 760 Z "/>
</symbol>
<symbol id="font_1_70">
<path transform="matrix(.001,0,0,.001,-.091000009,.20700002)" d="M 181 82 L 181 -207 L 91 -207 L 91 547 L 181 547 L 181 464 C 199 496 223 520 252 536 C 281 552 316 560 356 560 C 422 560 476 533 518 481 C 559 428 580 359 580 273 C 580 187 559 117 518 65 C 476 13 422 -13 356 -13 C 316 -13 281 -5 252 10 C 223 25 199 49 181 82 Z M 487 273 C 487 339 473 390 446 428 C 418 466 381 485 334 485 C 286 485 249 466 222 428 C 194 390 181 339 181 273 C 181 207 194 155 222 117 C 249 79 286 61 334 61 C 381 61 418 79 446 117 C 473 155 487 207 487 273 Z "/>
</symbol>
<use xlink:href="#font_1_53" transform="matrix(0,-10,-10,-0,11.465625,85.865)"/>
<use xlink:href="#font_1_6c" transform="matrix(0,-10,-10,-0,11.335625,79.235)"/>
<use xlink:href="#font_1_69" transform="matrix(0,-10,-10,-0,11.335625,76.455)"/>
<use xlink:href="#font_1_70" transform="matrix(0,-10,-10,-0,13.405624,73.704998)"/>
<clipPath id="cp3">
<path transform="matrix(1,0,0,-1,0,180)" d="M 40.32 32.4 L 239.7287 32.4 L 239.7287 172.79999 L 40.32 172.79999 Z "/>
</clipPath>
<g clip-path="url(#cp3)">
<path transform="matrix(1,0,0,-1,0,180)" stroke-width="2" stroke-linecap="square" stroke-linejoin="round" fill="none" stroke="#0000ff" d="M 40.32 32.4 L 73.91215 32.485616 L 76.77105 32.73222 L 78.91523 33.084905 L 81.05941 33.626287 L 83.20359 34.3968 L 85.34777 35.436883 L 87.49195 36.78647 L 89.63613 38.455549 L 91.78031 40.407667 L 94.63921 43.3809 L 97.49812 46.6896 L 101.78648 52.071977 L 116.79574 71.712 L 182.55057 157.64205 L 186.1242 161.81909 L 188.98311 164.79233 L 191.12729 166.74446 L 193.27147 168.41353 L 195.41565 169.76313 L 197.55983 170.8032 L 199.70401 171.57372 L 201.84819 172.1151 L 204.70709 172.5504 L 207.56601 172.74608 L 212.56909 172.8 L 239.7287 172.8 "/>
</g>
<path transform="matrix(1,0,0,-1,0,180)" stroke-width=".8" stroke-linecap="square" stroke-miterlimit="10" stroke-linejoin="miter" fill="none" stroke="#000000" d="M 40.32 32.4 L 40.32 172.8 "/>
<path transform="matrix(1,0,0,-1,0,180)" stroke-width=".8" stroke-linecap="square" stroke-miterlimit="10" stroke-linejoin="miter" fill="none" stroke="#000000" d="M 239.7287 32.4 L 239.7287 172.8 "/>
<path transform="matrix(1,0,0,-1,0,180)" stroke-width=".8" stroke-linecap="square" stroke-miterlimit="10" stroke-linejoin="miter" fill="none" stroke="#000000" d="M 40.32 32.4 L 239.7287 32.4 "/>
<path transform="matrix(1,0,0,-1,0,180)" stroke-width=".8" stroke-linecap="square" stroke-miterlimit="10" stroke-linejoin="miter" fill="none" stroke="#000000" d="M 40.32 172.8 L 239.7287 172.8 "/>
<path transform="matrix(1,0,0,-1,0,180)" d="M 299.5513 32.4 L 498.96 32.4 L 498.96 172.8 L 299.5513 172.8 Z " fill="#ffffff"/>
<path transform="matrix(1,0,0,-1,0,180)" d="M 328.14036 32.4 L 328.14036 28.9 "/>
<path transform="matrix(1,0,0,-1,0,180)" stroke-width=".8" stroke-linecap="butt" stroke-linejoin="round" fill="none" stroke="#000000" d="M 328.14036 32.4 L 328.14036 28.9 "/>
<use xlink:href="#font_0_74" transform="matrix(10,0,0,-10,324.78038,161.5375)"/>
<use xlink:href="#font_0_72" transform="matrix(7,0,0,-7,328.30625,163.17813)"/>
<path transform="matrix(1,0,0,-1,0,180)" d="M 363.87669 32.4 L 363.87669 28.9 "/>
<path transform="matrix(1,0,0,-1,0,180)" stroke-width=".8" stroke-linecap="butt" stroke-linejoin="round" fill="none" stroke="#000000" d="M 363.87669 32.4 L 363.87669 28.9 "/>
<use xlink:href="#font_0_74" transform="matrix(10,0,0,-10,346.5167,161.5375)"/>
<use xlink:href="#font_0_72" transform="matrix(7,0,0,-7,350.04258,163.17813)"/>
<use xlink:href="#font_1_2b" transform="matrix(10,0,0,-10,355.95719,161.5375)"/>
<use xlink:href="#font_0_74" transform="matrix(10,0,0,-10,365.86436,161.5375)"/>
<use xlink:href="#font_0_61" transform="matrix(7,0,0,-7,369.43223,163.26914)"/>
<use xlink:href="#font_0_63" transform="matrix(7,0,0,-7,373.75679,163.26914)"/>
<use xlink:href="#font_0_63" transform="matrix(7,0,0,-7,377.6054,163.26914)"/>
<path transform="matrix(1,0,0,-1,0,180)" d="M 435.34934 32.4 L 435.34934 28.9 "/>
<path transform="matrix(1,0,0,-1,0,180)" stroke-width=".8" stroke-linecap="butt" stroke-linejoin="round" fill="none" stroke="#000000" d="M 435.34934 32.4 L 435.34934 28.9 "/>
<use xlink:href="#font_0_74" transform="matrix(10,0,0,-10,412.98936,161.5375)"/>
<use xlink:href="#font_0_72" transform="matrix(7,0,0,-7,416.51524,163.17813)"/>
<use xlink:href="#font_0_69" transform="matrix(7,0,0,-7,419.39317,163.17813)"/>
<use xlink:href="#font_0_73" transform="matrix(7,0,0,-7,421.16999,163.26914)"/>
<use xlink:href="#font_0_65" transform="matrix(7,0,0,-7,425.06196,163.26914)"/>
<use xlink:href="#font_0_74" transform="matrix(10,0,0,-10,442.23545,161.5375)"/>
<use xlink:href="#font_0_61" transform="matrix(7,0,0,-7,445.8033,163.26914)"/>
<use xlink:href="#font_0_63" transform="matrix(7,0,0,-7,450.12788,163.26914)"/>
<use xlink:href="#font_0_63" transform="matrix(7,0,0,-7,453.9765,163.26914)"/>
<clipPath id="cp4">
<path transform="matrix(.01,0,0,-.01,431.26829,161.5375)" d="M -1021 -463 L 1794 -463 L 1794 1233 L -1021 1233 Z "/>
</clipPath>
<g clip-path="url(#cp4)">
<path transform="matrix(.01,0,0,-.01,431.26829,161.5375)" d="M 106 355 L 732 355 L 732 272 L 106 272 L 106 355 Z "/>
</g>
<path transform="matrix(1,0,0,-1,0,180)" d="M 471.08567 32.4 L 471.08567 28.9 "/>
<path transform="matrix(1,0,0,-1,0,180)" stroke-width=".8" stroke-linecap="butt" stroke-linejoin="round" fill="none" stroke="#000000" d="M 471.08567 32.4 L 471.08567 28.9 "/>
<use xlink:href="#font_0_74" transform="matrix(10,0,0,-10,463.22569,161.5375)"/>
<use xlink:href="#font_0_72" transform="matrix(7,0,0,-7,466.75157,163.17813)"/>
<use xlink:href="#font_0_69" transform="matrix(7,0,0,-7,469.6295,163.17813)"/>
<use xlink:href="#font_0_73" transform="matrix(7,0,0,-7,471.4063,163.26914)"/>
<use xlink:href="#font_0_65" transform="matrix(7,0,0,-7,475.29829,163.26914)"/>
<use xlink:href="#font_1_54" transform="matrix(10,0,0,-10,386.96223,176.19376)"/>
<use xlink:href="#font_1_69" transform="matrix(10,0,0,-10,393.73533,176.19376)"/>
<use xlink:href="#font_1_6d" transform="matrix(10,0,0,-10,396.48536,176.19376)"/>
<use xlink:href="#font_1_65" transform="matrix(10,0,0,-10,405.86534,176.32376)"/>
<path transform="matrix(1,0,0,-1,0,180)" d="M 299.5513 32.4 L 296.0513 32.4 "/>
<path transform="matrix(1,0,0,-1,0,180)" stroke-width=".8" stroke-linecap="butt" stroke-linejoin="round" fill="none" stroke="#000000" d="M 299.5513 32.4 L 296.0513 32.4 "/>
<use xlink:href="#font_1_30" transform="matrix(10,0,0,-10,277.30506,151.52689)"/>
<use xlink:href="#font_1_2e" transform="matrix(10,0,0,-10,284.07508,151.39688)"/>
<use xlink:href="#font_1_30" transform="matrix(10,0,0,-10,286.84507,151.52689)"/>
<path transform="matrix(1,0,0,-1,0,180)" d="M 299.5513 53.46 L 296.0513 53.46 "/>
<path transform="matrix(1,0,0,-1,0,180)" stroke-width=".8" stroke-linecap="butt" stroke-linejoin="round" fill="none" stroke="#000000" d="M 299.5513 53.46 L 296.0513 53.46 "/>
<use xlink:href="#font_1_30" transform="matrix(10,0,0,-10,277.30506,130.46689)"/>
<use xlink:href="#font_1_2e" transform="matrix(10,0,0,-10,284.07508,130.33689)"/>
<use xlink:href="#font_1_31" transform="matrix(10,0,0,-10,287.28507,130.33689)"/>
<path transform="matrix(1,0,0,-1,0,180)" d="M 299.5513 74.52 L 296.0513 74.52 "/>
<path transform="matrix(1,0,0,-1,0,180)" stroke-width=".8" stroke-linecap="butt" stroke-linejoin="round" fill="none" stroke="#000000" d="M 299.5513 74.52 L 296.0513 74.52 "/>
<use xlink:href="#font_1_30" transform="matrix(10,0,0,-10,277.30506,109.406879)"/>
<use xlink:href="#font_1_2e" transform="matrix(10,0,0,-10,284.07508,109.27688)"/>
<use xlink:href="#font_1_32" transform="matrix(10,0,0,-10,286.91508,109.27688)"/>
<path transform="matrix(1,0,0,-1,0,180)" d="M 299.5513 95.58 L 296.0513 95.58 "/>
<path transform="matrix(1,0,0,-1,0,180)" stroke-width=".8" stroke-linecap="butt" stroke-linejoin="round" fill="none" stroke="#000000" d="M 299.5513 95.58 L 296.0513 95.58 "/>
<symbol id="font_1_33">
<path transform="matrix(.001,0,0,.001,-.076000008,.013)" d="M 406 393 C 453 383 490 362 516 330 C 542 298 556 258 556 212 C 556 140 531 84 482 45 C 432 6 362 -13 271 -13 C 240 -13 208 -10 176 -4 C 144 1 110 10 76 22 L 76 117 C 103 101 133 89 166 81 C 198 73 232 69 268 69 C 330 69 377 81 409 105 C 441 129 458 165 458 212 C 458 254 443 288 413 312 C 383 336 341 349 287 349 L 202 349 L 202 430 L 291 430 C 339 430 376 439 402 459 C 428 478 441 506 441 543 C 441 580 427 609 401 629 C 374 649 336 659 287 659 C 260 659 231 656 200 650 C 169 644 135 635 98 623 L 98 711 C 135 721 170 729 203 734 C 235 739 266 742 296 742 C 370 742 429 725 473 691 C 517 657 539 611 539 553 C 539 513 527 479 504 451 C 481 423 448 403 406 393 Z "/>
</symbol>
<use xlink:href="#font_1_30" transform="matrix(10,0,0,-10,277.30506,88.34687)"/>
<use xlink:href="#font_1_2e" transform="matrix(10,0,0,-10,284.07508,88.21687)"/>
<use xlink:href="#font_1_33" transform="matrix(10,0,0,-10,286.94508,88.34687)"/>
<path transform="matrix(1,0,0,-1,0,180)" d="M 299.5513 116.64 L 296.0513 116.64 "/>
<path transform="matrix(1,0,0,-1,0,180)" stroke-width=".8" stroke-linecap="butt" stroke-linejoin="round" fill="none" stroke="#000000" d="M 299.5513 116.64 L 296.0513 116.64 "/>
<use xlink:href="#font_1_30" transform="matrix(10,0,0,-10,277.30506,67.28687)"/>
<use xlink:href="#font_1_2e" transform="matrix(10,0,0,-10,284.07508,67.156879)"/>
<use xlink:href="#font_1_34" transform="matrix(10,0,0,-10,286.67506,67.156879)"/>
<path transform="matrix(1,0,0,-1,0,180)" d="M 299.5513 137.7 L 296.0513 137.7 "/>
<path transform="matrix(1,0,0,-1,0,180)" stroke-width=".8" stroke-linecap="butt" stroke-linejoin="round" fill="none" stroke="#000000" d="M 299.5513 137.7 L 296.0513 137.7 "/>
<symbol id="font_1_35">
<path transform="matrix(.001,0,0,.001,-.07700001,.013)" d="M 108 729 L 495 729 L 495 646 L 198 646 L 198 467 C 212 472 227 476 241 478 C 255 480 270 482 284 482 C 365 482 429 459 477 415 C 525 370 549 310 549 234 C 549 155 524 94 475 51 C 426 8 357 -13 269 -13 C 238 -13 207 -10 175 -6 C 143 -1 111 6 77 17 L 77 116 C 106 100 136 88 168 80 C 199 72 232 69 267 69 C 323 69 368 83 401 113 C 433 143 450 183 450 234 C 450 284 433 324 401 354 C 368 384 323 399 267 399 C 241 399 214 396 188 390 C 162 384 135 375 108 363 L 108 729 Z "/>
</symbol>
<use xlink:href="#font_1_30" transform="matrix(10,0,0,-10,277.30506,46.22688)"/>
<use xlink:href="#font_1_2e" transform="matrix(10,0,0,-10,284.07508,46.096879)"/>
<use xlink:href="#font_1_35" transform="matrix(10,0,0,-10,286.95506,46.22688)"/>
<path transform="matrix(1,0,0,-1,0,180)" d="M 299.5513 158.76 L 296.0513 158.76 "/>
<path transform="matrix(1,0,0,-1,0,180)" stroke-width=".8" stroke-linecap="butt" stroke-linejoin="round" fill="none" stroke="#000000" d="M 299.5513 158.76 L 296.0513 158.76 "/>
<use xlink:href="#font_1_30" transform="matrix(10,0,0,-10,277.30506,25.16688)"/>
<use xlink:href="#font_1_2e" transform="matrix(10,0,0,-10,284.07508,25.03688)"/>
<use xlink:href="#font_1_36" transform="matrix(10,0,0,-10,286.88508,25.16688)"/>
<symbol id="font_1_20">
</symbol>
<symbol id="font_1_52">
<path transform="matrix(.001,0,0,.001,-.098000008,0)" d="M 444 342 C 465 334 486 319 506 296 C 526 272 546 240 566 199 L 666 0 L 560 0 L 467 187 C 443 235 419 268 397 284 C 374 300 343 308 304 308 L 197 308 L 197 0 L 98 0 L 98 729 L 321 729 C 404 729 466 711 507 677 C 548 642 569 589 569 519 C 569 473 558 434 537 404 C 515 374 484 353 444 342 Z M 197 648 L 197 389 L 321 389 C 368 389 404 400 428 422 C 452 444 465 476 465 519 C 465 561 452 593 428 615 C 404 637 368 648 321 648 L 197 648 Z "/>
</symbol>
<symbol id="font_1_61">
<path transform="matrix(.001,0,0,.001,-.060000004,.013)" d="M 343 275 C 270 275 220 266 192 250 C 164 233 150 205 150 165 C 150 133 160 107 181 89 C 202 70 231 61 267 61 C 317 61 357 78 387 114 C 417 149 432 196 432 255 L 432 275 L 343 275 Z M 522 312 L 522 0 L 432 0 L 432 83 C 411 49 385 25 355 10 C 325 -5 287 -13 243 -13 C 187 -13 142 2 109 33 C 76 64 60 106 60 159 C 60 220 80 266 122 298 C 163 329 224 345 306 345 L 432 345 L 432 354 C 432 395 418 427 391 450 C 364 472 326 484 277 484 C 245 484 215 480 185 472 C 155 464 127 453 100 439 L 100 522 C 132 534 164 544 195 550 C 226 556 256 560 286 560 C 365 560 424 539 463 498 C 502 457 522 395 522 312 Z "/>
</symbol>
<symbol id="font_1_74">
<path transform="matrix(.001,0,0,.001,-.027,0)" d="M 183 702 L 183 547 L 368 547 L 368 477 L 183 477 L 183 180 C 183 135 189 106 201 94 C 213 81 238 75 276 75 L 368 75 L 368 0 L 276 0 C 206 0 158 13 132 39 C 106 65 93 112 93 180 L 93 477 L 27 477 L 27 547 L 93 547 L 93 702 L 183 702 Z "/>
</symbol>
<use xlink:href="#font_1_53" transform="matrix(0,-10,-10,-0,270.69694,98.91187)"/>
<use xlink:href="#font_1_6c" transform="matrix(0,-10,-10,-0,270.56694,92.281879)"/>
<use xlink:href="#font_1_69" transform="matrix(0,-10,-10,-0,270.56694,89.50188)"/>
<use xlink:href="#font_1_70" transform="matrix(0,-10,-10,-0,272.63694,86.75187)"/>
<use xlink:href="#font_1_20" transform="matrix(0,-10,-10,-0,270.56694,81.311878)"/>
<use xlink:href="#font_1_52" transform="matrix(0,-10,-10,-0,270.56694,77.15187)"/>
<use xlink:href="#font_1_61" transform="matrix(0,-10,-10,-0,270.69694,70.80062)"/>
<use xlink:href="#font_1_74" transform="matrix(0,-10,-10,-0,270.56694,65.000629)"/>
<use xlink:href="#font_1_65" transform="matrix(0,-10,-10,-0,270.69694,60.800626)"/>
<clipPath id="cp5">
<path transform="matrix(1,0,0,-1,0,180)" d="M 299.5513 32.4 L 498.96 32.4 L 498.96 172.79999 L 299.5513 172.79999 Z "/>
</clipPath>
<g clip-path="url(#cp5)">
<path transform="matrix(1,0,0,-1,0,180)" stroke-width="2" stroke-linecap="square" stroke-linejoin="round" fill="none" stroke="#0000ff" d="M 299.5513 32.4 L 328.14036 32.41872 L 328.8551 32.54976 L 329.56983 32.88672 L 330.28456 33.44832 L 330.99928 34.23456 L 331.714 35.24544 L 332.4287 36.48096 L 333.8582 39.62592 L 335.28764 43.66944 L 336.71708 48.61152 L 338.14656 54.45216 L 339.576 61.19136 L 341.00544 68.82912 L 342.4349 77.36544 L 344.57908 91.85472 L 348.86744 123.22944 L 351.01164 136.37088 L 352.44108 144.00864 L 353.8705 150.74784 L 355.29997 156.58849 L 356.72944 161.53057 L 358.15888 165.57408 L 359.58833 168.71904 L 360.30308 169.95456 L 361.0178 170.96544 L 361.7325 171.75168 L 362.44725 172.31328 L 363.16197 172.65024 L 364.59144 172.8 L 435.34934 172.78128 L 436.06407 172.65024 L 436.7788 172.31328 L 437.49354 171.75168 L 438.20826 170.96544 L 438.92298 169.95456 L 439.6377 168.71904 L 441.06715 165.57408 L 442.4966 161.53057 L 443.92607 156.58849 L 445.3555 150.74784 L 446.78498 144.00864 L 448.21443 136.37088 L 449.64387 127.83456 L 451.78807 113.34528 L 456.07643 81.97056 L 458.22059 68.82912 L 459.65007 61.19136 L 461.0795 54.45216 L 462.50895 48.61152 L 463.93843 43.66944 L 465.36787 39.62592 L 466.7973 36.48096 L 467.51203 35.24544 L 468.22676 34.23456 L 468.9415 33.44832 L 469.65623 32.88672 L 470.37095 32.54976 L 471.80039 32.4 L 498.96 32.4 "/>
</g>
<path transform="matrix(1,0,0,-1,0,180)" stroke-width=".8" stroke-linecap="square" stroke-miterlimit="10" stroke-linejoin="miter" fill="none" stroke="#000000" d="M 299.5513 32.4 L 299.5513 172.8 "/>
<path transform="matrix(1,0,0,-1,0,180)" stroke-width=".8" stroke-linecap="square" stroke-miterlimit="10" stroke-linejoin="miter" fill="none" stroke="#000000" d="M 498.96 32.4 L 498.96 172.8 "/>
<path transform="matrix(1,0,0,-1,0,180)" stroke-width=".8" stroke-linecap="square" stroke-miterlimit="10" stroke-linejoin="miter" fill="none" stroke="#000000" d="M 299.5513 32.4 L 498.96 32.4 "/>
<path transform="matrix(1,0,0,-1,0,180)" stroke-width=".8" stroke-linecap="square" stroke-miterlimit="10" stroke-linejoin="miter" fill="none" stroke="#000000" d="M 299.5513 172.8 L 498.96 172.8 "/>
</g>
</svg>
