<?xml version="1.0" encoding="UTF-8" standalone="no"?>
<!DOCTYPE svg PUBLIC "-//W3C//DTD SVG 1.1//EN" "http://www.w3.org/Graphics/SVG/1.1/DTD/svg11.dtd">
<svg xmlns="http://www.w3.org/2000/svg" xmlns:xlink="http://www.w3.org/1999/xlink" version="1.1" width="392.28pt" height="244.26pt" viewBox="0 0 392.28 244.26">
<g enable-background="new">
<path transform="matrix(.1,0,0,-.1,0,244.26)" d="M 1877.04 233.715 L 3475.29 815.434 L 3475.29 2091.04 L 1877.04 1509.32 Z " fill="#cceeff"/>
<path transform="matrix(.1,0,0,-.1,0,244.26)" stroke-width="9.9628" stroke-linecap="butt" stroke-miterlimit="10" stroke-linejoin="miter" fill="none" stroke="#1f6e96" d="M 1877.04 233.715 L 3475.29 815.434 L 3475.29 2091.04 L 1877.04 1509.32 Z "/>
<path transform="matrix(.1,0,0,-.1,0,244.26)" d="M 492.918 580.332 L 1877.04 233.715 L 1877.04 1509.32 L 492.918 1855.94 Z " fill="#cceeff"/>
<path transform="matrix(.1,0,0,-.1,0,244.26)" stroke-width="9.9628" stroke-linecap="butt" stroke-miterlimit="10" stroke-linejoin="miter" fill="none" stroke="#1f6e96" d="M 492.918 580.332 L 1877.04 233.715 L 1877.04 1509.32 L 492.918 1855.94 Z "/>
<path transform="matrix(.1,0,0,-.1,0,244.26)" d="M 1877.04 1509.32 L 3475.29 2091.04 L 2091.16 2437.66 L 492.918 1855.94 Z " fill="#cceeff"/>
<path transform="matrix(.1,0,0,-.1,0,244.26)" stroke-width="9.9628" stroke-linecap="butt" stroke-miterlimit="10" stroke-linejoin="miter" fill="none" stroke="#1f6e96" d="M 1877.04 1509.32 L 3475.29 2091.04 L 2091.16 2437.66 L 492.918 1855.94 Z "/>
<path transform="matrix(.1,0,0,-.1,0,244.26)" stroke-width="9.9628" stroke-linecap="butt" stroke-dasharray="29.8883,29.8883" stroke-miterlimit="10" stroke-linejoin="miter" fill="none" stroke="#1f6e96" d="M 3475.29 815.434 L 2091.16 1162.05 L 492.918 580.332 "/>
<path transform="matrix(.1,0,0,-.1,0,244.26)" stroke-width="9.9628" stroke-linecap="butt" stroke-dasharray="29.8883,29.8883" stroke-miterlimit="10" stroke-linejoin="miter" fill="none" stroke="#1f6e96" d="M 2091.16 1162.05 L 2091.16 2437.66 "/>
<path transform="matrix(.1,0,0,-.1,0,244.26)" stroke-width="9.9628" stroke-linecap="butt" stroke-miterlimit="10" stroke-linejoin="miter" fill="none" stroke="#808080" d="M 1946.25 216.383 L 3624.75 827.316 "/>
<path transform="matrix(.1,0,0,-.1,0,244.26)" d="M 3682.75 848.426 C 3675.05 847.422 3640.46 845.027 3617.33 847.703 L 3632.17 806.93 C 3648.18 823.848 3676.21 844.242 3682.75 848.426 " fill="#808080"/>
<path transform="matrix(.1,0,0,-.1,0,244.26)" stroke-width="9.96265" stroke-linecap="butt" stroke-miterlimit="10" stroke-linejoin="miter" fill="none" stroke="#808080" d="M 3682.75 848.426 C 3675.05 847.422 3640.46 845.027 3617.33 847.703 L 3632.17 806.93 C 3648.18 823.848 3676.21 844.242 3682.75 848.426 Z "/>
<symbol id="font_0_1">
<path d="M .33900003 .272 L .51500007 .54 L .347 .54 L .26000003 .377 L .172 .54 L .0040000008 .54 L .18 .272 L 0 0 L .16800002 0 L .26000003 .16800002 L .351 0 L .51900008 0 L .33900003 .272 Z "/>
</symbol>
<use xlink:href="#font_0_1" transform="matrix(9.4645,0,0,-9.4645,373.93644,161.1491)" fill="#808080"/>
<path transform="matrix(.1,0,0,-.1,0,244.26)" stroke-width="9.9628" stroke-linecap="butt" stroke-miterlimit="10" stroke-linejoin="miter" fill="none" stroke="#808080" d="M 1946.25 216.383 L 1980.84 207.719 "/>
<symbol id="font_1_11">
<path d="M .238 .072 L 0 .072 L 0 0 L .238 0 L .238 .072 Z "/>
</symbol>
<symbol id="font_1_14">
<path d="M .455 .54700008 C .43800003 .66300007 .36200003 .73200008 .254 .73200008 C .17600002 .73200008 .106000009 .694 .06400001 .63100007 C .02 .56200006 0 .47500003 0 .34600003 C 0 .22700002 .018000003 .15100001 .060000007 .08800001 C .098000008 .031000004 .16000001 0 .23800002 0 C .373 0 .47 .10000001 .47 .23900001 C .47 .37100003 .38 .46400003 .253 .46400003 C .18300002 .46400003 .128 .43700005 .09 .38500003 C .091000009 .558 .14700002 .65400007 .24800001 .65400007 C .31 .65400007 .35300002 .615 .367 .54700008 L .455 .54700008 M .24200003 .386 C .327 .386 .38 .32700003 .38 .23200001 C .38 .143 .32 .07800001 .23900001 .07800001 C .157 .07800001 .09500001 .146 .09500001 .23700002 C .09500001 .32500003 .15500002 .386 .24200003 .386 Z "/>
</symbol>
<symbol id="font_1_12">
<path d="M .10400001 .104 L 0 .104 L 0 0 L .10400001 0 L .10400001 .104 Z "/>
</symbol>
<symbol id="font_1_13">
<path d="M .23200001 .73200008 C .16600001 .73200008 .106000009 .703 .069000009 .65400007 C .022999999 .592 0 .49700005 0 .36600004 C 0 .127 .08 0 .23200001 0 C .382 0 .46400003 .127 .46400003 .36 C .46400003 .49800004 .442 .59000006 .395 .65400007 C .358 .70400008 .299 .73200008 .23200001 .73200008 M .23200001 .65400007 C .327 .65400007 .374 .558 .374 .36800004 C .374 .16700001 .328 .073 .23 .073 C .13700001 .073 .09 .171 .09 .365 C .09 .559 .13700001 .65400007 .23200001 .65400007 Z "/>
</symbol>
<symbol id="font_1_f">
<path d="M .083000008 .72900006 L 0 .72900006 L 0 0 L .083000008 0 L .083000008 .20400001 L .16400002 .284 L .34100003 0 L .44400005 0 L .23000002 .34300003 L .41200004 .52400007 L .305 .52400007 L .083000008 .30200003 L .083000008 .72900006 Z "/>
</symbol>
<symbol id="font_1_10">
<path d="M 0 .52400007 L 0 0 L .084000017 0 L .084000017 .32900004 C .084000017 .40500004 .139 .46600003 .20700002 .46600003 C .26900003 .46600003 .30400003 .42800004 .30400003 .36100004 L .30400003 0 L .38800005 0 L .38800005 .32900004 C .38800005 .40500004 .44300003 .46600003 .51100006 .46600003 C .572 .46600003 .60800006 .42700003 .60800006 .36100004 L .60800006 0 L .69200006 0 L .69200006 .393 C .69200006 .48700003 .638 .53900006 .54 .53900006 C .47000004 .53900006 .42800004 .518 .37900005 .45900003 C .34800003 .51500007 .30600003 .53900006 .23800004 .53900006 C .16800002 .53900006 .122 .513 .077 .45000003 L .077 .52400007 L 0 .52400007 Z "/>
</symbol>
<use xlink:href="#font_1_11" transform="matrix(8.893789,3.237139,3.237139,-8.893789,201.56003,225.88919)" fill="#808080"/>
<use xlink:href="#font_1_14" transform="matrix(8.893789,3.237139,3.237139,-8.893789,203.64362,229.29651)" fill="#808080"/>
<use xlink:href="#font_1_12" transform="matrix(8.893789,3.237139,3.237139,-8.893789,209.05434,231.03424)" fill="#808080"/>
<use xlink:href="#font_1_13" transform="matrix(8.893789,3.237139,3.237139,-8.893789,211.06104,231.99629)" fill="#808080"/>
<use xlink:href="#font_1_f" transform="matrix(8.893789,3.237139,3.237139,-8.893789,217.69925,234.1808)" fill="#808080"/>
<use xlink:href="#font_1_10" transform="matrix(8.893789,3.237139,3.237139,-8.893789,222.25287,235.83821)" fill="#808080"/>
<path transform="matrix(.1,0,0,-.1,0,244.26)" stroke-width="9.9628" stroke-linecap="butt" stroke-miterlimit="10" stroke-linejoin="miter" fill="none" stroke="#808080" d="M 3544.5 798.102 L 3579.09 789.438 "/>
<use xlink:href="#font_1_14" transform="matrix(8.893789,3.237139,3.237139,-8.893789,360.50498,170.04785)" fill="#808080"/>
<use xlink:href="#font_1_12" transform="matrix(8.893789,3.237139,3.237139,-8.893789,365.9157,171.78557)" fill="#808080"/>
<use xlink:href="#font_1_13" transform="matrix(8.893789,3.237139,3.237139,-8.893789,367.9224,172.74762)" fill="#808080"/>
<use xlink:href="#font_1_f" transform="matrix(8.893789,3.237139,3.237139,-8.893789,374.5605,174.93209)" fill="#808080"/>
<use xlink:href="#font_1_10" transform="matrix(8.893789,3.237139,3.237139,-8.893789,379.1141,176.5895)" fill="#808080"/>
<path transform="matrix(.1,0,0,-.1,0,244.26)" stroke-width="9.9628" stroke-linecap="butt" stroke-miterlimit="10" stroke-linejoin="miter" fill="none" stroke="#808080" d="M 1797.12 204.625 L 356.723 565.34 "/>
<path transform="matrix(.1,0,0,-.1,0,244.26)" d="M 296.852 580.332 C 303.797 576.852 333.785 559.465 351.453 544.297 L 361.992 586.387 C 339.262 581.332 304.617 580.129 296.852 580.332 " fill="#808080"/>
<path transform="matrix(.1,0,0,-.1,0,244.26)" stroke-width="9.96257" stroke-linecap="butt" stroke-miterlimit="10" stroke-linejoin="miter" fill="none" stroke="#808080" d="M 296.852 580.332 C 303.797 576.852 333.785 559.465 351.453 544.297 L 361.992 586.387 C 339.262 581.332 304.617 580.129 296.852 580.332 Z "/>
<symbol id="font_0_2">
<path d="M .38500003 .75900009 L .273 .366 L .154 .75900009 L 0 .75900009 L .201 .19700001 L .201 .19600001 L .201 .19300002 C .201 .142 .163 .10300001 .114 .10300001 C .103 .10300001 .095 .10400001 .077 .109000008 L .077 .004000008 C .098000008 .001000002 .11 0 .127 0 C .162 0 .20400001 .0069999995 .22800002 .017000005 C .26700003 .033000009 .284 .05600001 .307 .120000008 L .52900007 .75900009 L .38500003 .75900009 Z "/>
</symbol>
<use xlink:href="#font_0_2" transform="matrix(9.4645,0,0,-9.4645,24.91408,182.39482)" fill="#808080"/>
<path transform="matrix(.1,0,0,-.1,0,244.26)" stroke-width="9.9628" stroke-linecap="butt" stroke-miterlimit="10" stroke-linejoin="miter" fill="none" stroke="#808080" d="M 1797.12 204.625 L 1757.18 190.086 "/>
<use xlink:href="#font_1_11" transform="matrix(8.893789,-3.237139,-3.237139,-8.893789,144.3992,237.78675)" fill="#808080"/>
<use xlink:href="#font_1_14" transform="matrix(8.893789,-3.237139,-3.237139,-8.893789,148.18553,239.05754)" fill="#808080"/>
<use xlink:href="#font_1_12" transform="matrix(8.893789,-3.237139,-3.237139,-8.893789,153.44734,236.9107)" fill="#808080"/>
<use xlink:href="#font_1_13" transform="matrix(8.893789,-3.237139,-3.237139,-8.893789,155.60295,236.35778)" fill="#808080"/>
<use xlink:href="#font_1_f" transform="matrix(8.893789,-3.237139,-3.237139,-8.893789,162.09226,233.76415)" fill="#808080"/>
<use xlink:href="#font_1_10" transform="matrix(8.893789,-3.237139,-3.237139,-8.893789,166.64588,232.10675)" fill="#808080"/>
<path transform="matrix(.1,0,0,-.1,0,244.26)" stroke-width="9.9628" stroke-linecap="butt" stroke-miterlimit="10" stroke-linejoin="miter" fill="none" stroke="#808080" d="M 413 551.246 L 373.055 536.707 "/>
<use xlink:href="#font_1_14" transform="matrix(8.893789,-3.237139,-3.237139,-8.893789,9.7748579,204.39644)" fill="#808080"/>
<use xlink:href="#font_1_12" transform="matrix(8.893789,-3.237139,-3.237139,-8.893789,15.036677,202.24962)" fill="#808080"/>
<use xlink:href="#font_1_13" transform="matrix(8.893789,-3.237139,-3.237139,-8.893789,17.192278,201.69667)" fill="#808080"/>
<use xlink:href="#font_1_f" transform="matrix(8.893789,-3.237139,-3.237139,-8.893789,23.68147,199.1031)" fill="#808080"/>
<use xlink:href="#font_1_10" transform="matrix(8.893789,-3.237139,-3.237139,-8.893789,28.235093,197.4457)" fill="#808080"/>
<path transform="matrix(.1,0,0,-.1,0,244.26)" stroke-width="9.9628" stroke-linecap="butt" stroke-miterlimit="10" stroke-linejoin="miter" fill="none" stroke="#808080" d="M 413 551.246 L 413 1912.26 "/>
<path transform="matrix(.1,0,0,-.1,0,244.26)" d="M 413 1973.98 C 411.309 1966.4 401.73 1933.08 391.305 1912.26 L 434.695 1912.26 C 424.27 1933.08 414.691 1966.4 413 1973.98 " fill="#808080"/>
<path transform="matrix(.1,0,0,-.1,0,244.26)" stroke-width="9.9628" stroke-linecap="butt" stroke-miterlimit="10" stroke-linejoin="miter" fill="none" stroke="#808080" d="M 413 1973.98 C 411.309 1966.4 401.73 1933.08 391.305 1912.26 L 434.695 1912.26 C 424.27 1933.08 414.691 1966.4 413 1973.98 Z "/>
<symbol id="font_0_3">
<path d="M .43800003 .54 L .018 .54 L .018 .42700003 L .26700003 .42700003 L 0 .113000009 L 0 0 L .44700004 0 L .44700004 .113000009 L .17300001 .113000009 L .43800003 .42700003 L .43800003 .54 Z "/>
</symbol>
<use xlink:href="#font_0_3" transform="matrix(9.4645,0,0,-9.4645,39.134656,41.21199)" fill="#808080"/>
<path transform="matrix(.1,0,0,-.1,0,244.26)" stroke-width="9.9628" stroke-linecap="butt" stroke-miterlimit="10" stroke-linejoin="miter" fill="none" stroke="#808080" d="M 413 551.246 L 373.055 536.707 "/>
<symbol id="font_1_15">
<path d="M .015000001 .185 C .031999999 .069000009 .10800001 0 .216 0 C .29400004 0 .365 .038000004 .40600003 .101 C .45100004 .17 .47100003 .25700004 .47100003 .386 C .47100003 .505 .453 .58100005 .411 .64400008 C .37200005 .70100006 .31 .73200008 .23200001 .73200008 C .097 .73200008 0 .632 0 .49300004 C 0 .36100004 .09 .268 .21800001 .268 C .28500004 .268 .334 .29200004 .38 .347 C .379 .17400001 .323 .07800001 .22200002 .07800001 C .16000001 .07800001 .117 .117000009 .103 .185 L .015000001 .185 M .23100002 .65500006 C .31300003 .65500006 .375 .587 .375 .49500004 C .375 .40800003 .314 .34600003 .228 .34600003 C .143 .34600003 .09 .40500004 .09 .5 C .09 .59000006 .15 .65500006 .23100002 .65500006 Z "/>
</symbol>
<use xlink:href="#font_1_11" transform="matrix(9.4645,0,0,-9.4645,3.589277,191.65761)" fill="#808080"/>
<use xlink:href="#font_1_15" transform="matrix(9.4645,0,0,-9.4645,6.66524,194.14678)" fill="#808080"/>
<use xlink:href="#font_1_12" transform="matrix(9.4645,0,0,-9.4645,12.391264,193.9291)" fill="#808080"/>
<use xlink:href="#font_1_13" transform="matrix(9.4645,0,0,-9.4645,14.605957,194.14678)" fill="#808080"/>
<use xlink:href="#font_1_f" transform="matrix(9.4645,0,0,-9.4645,21.59075,193.9291)" fill="#808080"/>
<use xlink:href="#font_1_10" transform="matrix(9.4645,0,0,-9.4645,26.436575,193.9291)" fill="#808080"/>
<path transform="matrix(.1,0,0,-.1,0,244.26)" stroke-width="9.9628" stroke-linecap="butt" stroke-miterlimit="10" stroke-linejoin="miter" fill="none" stroke="#808080" d="M 413 1826.85 L 373.055 1812.31 "/>
<use xlink:href="#font_1_13" transform="matrix(9.4645,0,0,-9.4645,6.7128336,66.58768)" fill="#808080"/>
<use xlink:href="#font_1_12" transform="matrix(9.4645,0,0,-9.4645,12.391535,66.369998)" fill="#808080"/>
<use xlink:href="#font_1_13" transform="matrix(9.4645,0,0,-9.4645,14.606228,66.58768)" fill="#808080"/>
<use xlink:href="#font_1_f" transform="matrix(9.4645,0,0,-9.4645,21.591134,66.369998)" fill="#808080"/>
<use xlink:href="#font_1_10" transform="matrix(9.4645,0,0,-9.4645,26.436959,66.369998)" fill="#808080"/>
<symbol id="font_1_9">
<path d="M 0 .75200006 L 0 .023000002 L .075 .023000002 L .075 .09 C .11500001 .029000003 .16800002 0 .24100001 0 C .37900005 0 .469 .113000009 .469 .287 C .469 .45700003 .38300003 .56200006 .24500002 .56200006 C .17300001 .56200006 .12200001 .535 .083000008 .476 L .083000008 .75200006 L 0 .75200006 M .22900002 .48400004 C .32200004 .48400004 .38200004 .40300004 .38200004 .27800004 C .38200004 .15900001 .32000003 .07800001 .22900002 .07800001 C .141 .07800001 .083000008 .158 .083000008 .28100003 C .083000008 .404 .141 .48400004 .22900002 .48400004 Z "/>
</symbol>
<symbol id="font_1_2">
<path d="M .23600002 .56200006 C .089 .56200006 0 .45700003 0 .28100003 C 0 .105000007 .088 0 .237 0 C .384 0 .47400005 .105000007 .47400005 .277 C .47400005 .45800004 .387 .56200006 .23600002 .56200006 M .237 .485 C .331 .485 .387 .40800003 .387 .27800004 C .387 .155 .329 .07700001 .237 .07700001 C .14400001 .07700001 .087 .15400002 .087 .28100003 C .087 .407 .14400001 .485 .237 .485 Z "/>
</symbol>
<symbol id="font_1_6">
<path d="M .41700004 .023000002 L .41700004 .54700008 L .33400003 .54700008 L .33400003 .25 C .33400003 .143 .27800004 .073 .19100002 .073 C .125 .073 .083 .113000009 .083 .17600002 L .083 .54700008 L 0 .54700008 L 0 .143 C 0 .056 .065000008 0 .167 0 C .24400002 0 .293 .027000003 .342 .09600001 L .342 .023000002 L .41700004 .023000002 Z "/>
</symbol>
<symbol id="font_1_1">
<path d="M 0 .52400007 L 0 0 L .084000017 0 L .084000017 .289 C .084000017 .39600004 .14000002 .46600003 .22600001 .46600003 C .29200004 .46600003 .33400003 .42600004 .33400003 .363 L .33400003 0 L .41700004 0 L .41700004 .39600004 C .41700004 .483 .35200004 .53900006 .25100003 .53900006 C .17300001 .53900006 .123 .509 .077 .43600003 L .077 .52400007 L 0 .52400007 Z "/>
</symbol>
<symbol id="font_1_c">
<path d="M .46900005 .75200006 L .38600005 .75200006 L .38600005 .48100005 C .351 .53400006 .29500003 .56200006 .22500003 .56200006 C .089 .56200006 0 .453 0 .286 C 0 .109000008 .087000008 0 .22800002 0 C .3 0 .35000003 .027000003 .39500005 .09200001 L .39500005 .023000002 L .46900005 .023000002 L .46900005 .75200006 M .23900002 .48400004 C .32900004 .48400004 .38600005 .404 .38600005 .279 C .38600005 .158 .328 .07800001 .24000001 .07800001 C .148 .07800001 .087000008 .15900001 .087000008 .28100003 C .087000008 .40300004 .148 .48400004 .23900002 .48400004 Z "/>
</symbol>
<symbol id="font_1_7">
<path d="M .49300004 .072000008 C .48400004 .07000001 .48000003 .07000001 .47500003 .07000001 C .44600005 .07000001 .43000005 .08500001 .43000005 .11100001 L .43000005 .41900004 C .43000005 .512 .36200003 .56200006 .23300001 .56200006 C .157 .56200006 .094000007 .54 .059 .50100007 C .035000005 .47400005 .024999999 .44400005 .023000002 .39200003 L .107 .39200003 C .114 .45600004 .15200001 .485 .23000002 .485 C .305 .485 .34700004 .45700003 .34700004 .407 L .34700004 .38500003 C .34700004 .35000003 .32600004 .335 .26000003 .32700003 C .14200002 .312 .124000009 .30800004 .092 .29500003 C .031000004 .27 0 .223 0 .155 C 0 .060000004 .066 0 .17200002 0 C .238 0 .291 .023000002 .35000003 .07700001 C .35600005 .024000003 .38200004 0 .43600003 0 C .45300005 0 .46600003 .0020000004 .49300004 .0090000019 L .49300004 .072000008 M .34700004 .18800001 C .34700004 .16000001 .33900003 .143 .314 .120000008 C .28000004 .089 .23900002 .073 .19 .073 C .125 .073 .087000008 .104 .087000008 .157 C .087000008 .21200001 .124000009 .24000001 .21300003 .25300003 C .30100004 .26500003 .31900005 .269 .34700004 .282 L .34700004 .18800001 Z "/>
</symbol>
<symbol id="font_1_4">
<path d="M 0 .52400007 L 0 0 L .08400001 0 L .08400001 .272 C .08400001 .347 .103 .39600004 .143 .425 C .169 .44400005 .194 .45000003 .252 .45100004 L .252 .536 C .238 .53800007 .231 .53900006 .22 .53900006 C .16600001 .53900006 .125 .507 .07700001 .42900003 L .07700001 .52400007 L 0 .52400007 Z "/>
</symbol>
<symbol id="font_1_a">
<path d="M .368 .74200007 L .22300002 .33400003 L .089 .74200007 L 0 .74200007 L .17700002 .216 L .14500001 .13300002 C .13200002 .096 .113 .082 .078 .082 C .066 .082 .052 .08400001 .034 .088 L .034 .012999997 C .051 .003999993 .068 0 .09 0 C .117000009 0 .14600002 .009000003 .16800002 .025000006 C .19400002 .044 .20900002 .066 .22500001 .108 L .458 .74200007 L .368 .74200007 Z "/>
</symbol>
<use xlink:href="#font_1_9" transform="matrix(9.142045,2.4496029,2.4496029,-9.142045,87.57523,134.16555)" fill="#6100ad"/>
<use xlink:href="#font_1_2" transform="matrix(9.142045,2.4496029,2.4496029,-9.142045,92.49365,135.48342)" fill="#6100ad"/>
<use xlink:href="#font_1_6" transform="matrix(9.142045,2.4496029,2.4496029,-9.142045,97.84175,136.91645)" fill="#6100ad"/>
<use xlink:href="#font_1_1" transform="matrix(9.142045,2.4496029,2.4496029,-9.142045,103.02678,138.08042)" fill="#6100ad"/>
<use xlink:href="#font_1_c" transform="matrix(9.142045,2.4496029,2.4496029,-9.142045,107.65116,139.54486)" fill="#6100ad"/>
<use xlink:href="#font_1_7" transform="matrix(9.142045,2.4496029,2.4496029,-9.142045,112.88041,140.94603)" fill="#6100ad"/>
<use xlink:href="#font_1_4" transform="matrix(9.142045,2.4496029,2.4496029,-9.142045,118.26656,142.16388)" fill="#6100ad"/>
<use xlink:href="#font_1_a" transform="matrix(9.142045,2.4496029,2.4496029,-9.142045,120.6031,144.92601)" fill="#6100ad"/>
<path transform="matrix(.1,0,0,-.1,0,244.26)" stroke-width="3.98002" stroke-linecap="butt" stroke-miterlimit="10" stroke-linejoin="miter" fill="none" stroke="#6100ad" d="M 1261.25 1001.96 L 1288.68 994.617 "/>
<symbol id="font_1_8">
<path d="M .27500005 .27100004 L .45100004 .52400007 L .35700003 .52400007 L .231 .33400003 L .105000007 .52400007 L .01 .52400007 L .185 .26700003 L 0 0 L .095 0 L .228 .201 L .35900004 0 L .45600004 0 L .27500005 .27100004 Z "/>
</symbol>
<symbol id="font_1_d">
<path d="M .47300003 .25700004 C .47300003 .337 .46700005 .38500003 .45200003 .42400003 C .41800005 .51 .33800004 .56200006 .24 .56200006 C .094 .56200006 0 .45000003 0 .27800004 C 0 .106000009 .091000009 0 .23800002 0 C .35800005 0 .44100005 .068 .46200005 .18200001 L .37800003 .18200001 C .35500003 .113000009 .30800004 .07700001 .24100001 .07700001 C .18800001 .07700001 .143 .101 .114999998 .14500001 C .095 .17500001 .088 .20500002 .087 .25700004 L .47300003 .25700004 M .089 .32500003 C .096 .42200003 .155 .485 .23900001 .485 C .32100005 .485 .38400004 .41700004 .38400004 .33100004 C .38400004 .32900004 .38400004 .32700003 .38300003 .32500003 L .089 .32500003 Z "/>
</symbol>
<symbol id="font_1_e">
<path d="M .38300003 .74200007 L .38300003 .666 C .341 .72800007 .29 .757 .223 .757 C .09 .757 0 .64100006 0 .47100003 C 0 .38500003 .023 .315 .06600001 .26500003 C .105000007 .22100002 .16100002 .19500001 .216 .19500001 C .282 .19500001 .328 .223 .375 .289 L .375 .26200003 C .375 .19100002 .366 .148 .345 .119 C .323 .088 .28 .07000001 .22900002 .07000001 C .19100002 .07000001 .157 .08 .134 .098000008 C .11500001 .113000009 .10700001 .127 .10200001 .158 L .017000003 .158 C .026000003 .059 .103 0 .22600003 0 C .304 0 .371 .025000006 .405 .067 C .44500003 .115 .46 .18100001 .46 .30400003 L .46 .74200007 L .38300003 .74200007 M .23200001 .68 C .322 .68 .375 .60400006 .375 .47300006 C .375 .34800003 .321 .272 .23300003 .272 C .142 .272 .087000008 .34900005 .087000008 .476 C .087000008 .602 .143 .68 .23200001 .68 Z "/>
</symbol>
<use xlink:href="#font_1_8" transform="matrix(9.142045,2.4496029,2.4496029,-9.142045,128.9714,145.03214)" fill="#6100ad"/>
<use xlink:href="#font_1_1" transform="matrix(9.142045,2.4496029,2.4496029,-9.142045,134.02696,146.38678)" fill="#6100ad"/>
<use xlink:href="#font_1_d" transform="matrix(9.142045,2.4496029,2.4496029,-9.142045,138.77935,147.88553)" fill="#6100ad"/>
<use xlink:href="#font_1_e" transform="matrix(9.142045,2.4496029,2.4496029,-9.142045,143.28409,151.00325)" fill="#6100ad"/>
<use xlink:href="#font_1_9" transform="matrix(9.142045,2.4496029,2.4496029,-9.142045,247.64325,76.10138)" fill="#6100ad"/>
<use xlink:href="#font_1_2" transform="matrix(9.142045,2.4496029,2.4496029,-9.142045,252.56166,77.41927)" fill="#6100ad"/>
<use xlink:href="#font_1_6" transform="matrix(9.142045,2.4496029,2.4496029,-9.142045,257.9098,78.852298)" fill="#6100ad"/>
<use xlink:href="#font_1_1" transform="matrix(9.142045,2.4496029,2.4496029,-9.142045,263.09483,80.01626)" fill="#6100ad"/>
<use xlink:href="#font_1_c" transform="matrix(9.142045,2.4496029,2.4496029,-9.142045,267.7192,81.48073)" fill="#6100ad"/>
<use xlink:href="#font_1_7" transform="matrix(9.142045,2.4496029,2.4496029,-9.142045,272.94847,82.881908)" fill="#6100ad"/>
<use xlink:href="#font_1_4" transform="matrix(9.142045,2.4496029,2.4496029,-9.142045,278.3346,84.09976)" fill="#6100ad"/>
<use xlink:href="#font_1_a" transform="matrix(9.142045,2.4496029,2.4496029,-9.142045,280.67115,86.86189)" fill="#6100ad"/>
<path transform="matrix(.1,0,0,-.1,0,244.26)" stroke-width="3.98002" stroke-linecap="butt" stroke-miterlimit="10" stroke-linejoin="miter" fill="none" stroke="#6100ad" d="M 2861.93 1582.61 L 2889.36 1575.26 "/>
<symbol id="font_1_3">
<path d="M 0 0 L .08400001 0 L .08400001 .273 C .128 .21900001 .177 .19500001 .24500002 .19500001 C .38000003 .19500001 .469 .30400003 .469 .47100003 C .469 .647 .38300003 .757 .244 .757 C .17300001 .757 .116 .725 .07700001 .66300007 L .07700001 .74200007 L 0 .74200007 L 0 0 M .23 .679 C .32200004 .679 .38200004 .59800007 .38200004 .47300006 C .38200004 .35400004 .32100005 .273 .23 .273 C .142 .273 .08400001 .35300002 .08400001 .476 C .08400001 .59900006 .142 .679 .23 .679 Z "/>
</symbol>
<symbol id="font_1_5">
<path d="M .404 .40100003 C .403 .50400009 .335 .56200006 .21400002 .56200006 C .092 .56200006 .013 .499 .013 .402 C .013 .32000003 .055 .28100003 .17900002 .25100003 L .257 .23200001 C .315 .21800001 .338 .19700001 .338 .15900001 C .338 .11000001 .289 .07700001 .21599999 .07700001 C .171 .07700001 .13300002 .09 .11200001 .112 C .099 .127 .093 .142 .08800001 .179 L 0 .179 C .0040000008 .058000003 .072000008 0 .20900002 0 C .34100003 0 .425 .065000008 .425 .16600001 C .425 .24400002 .381 .287 .277 .312 L .197 .33100004 C .12900001 .347 .1 .36900003 .1 .40600003 C .1 .45400004 .143 .485 .211 .485 C .278 .485 .314 .45600004 .316 .40100003 L .404 .40100003 Z "/>
</symbol>
<use xlink:href="#font_1_8" transform="matrix(9.142045,2.4496029,2.4496029,-9.142045,289.03944,86.967639)" fill="#6100ad"/>
<use xlink:href="#font_1_3" transform="matrix(9.142045,2.4496029,2.4496029,-9.142045,293.41468,90.27605)" fill="#6100ad"/>
<use xlink:href="#font_1_2" transform="matrix(9.142045,2.4496029,2.4496029,-9.142045,298.81077,89.81124)" fill="#6100ad"/>
<use xlink:href="#font_1_5" transform="matrix(9.142045,2.4496029,2.4496029,-9.142045,303.87547,91.16833)" fill="#6100ad"/>
<use xlink:href="#font_1_9" transform="matrix(8.893789,-3.237139,-3.237139,-8.893789,239.06572,141.16275)" fill="#6100ad"/>
<use xlink:href="#font_1_2" transform="matrix(8.893789,-3.237139,-3.237139,-8.893789,243.85059,139.42116)" fill="#6100ad"/>
<use xlink:href="#font_1_6" transform="matrix(8.893789,-3.237139,-3.237139,-8.893789,249.05345,137.52744)" fill="#6100ad"/>
<use xlink:href="#font_1_1" transform="matrix(8.893789,-3.237139,-3.237139,-8.893789,253.9684,135.50685)" fill="#6100ad"/>
<use xlink:href="#font_1_c" transform="matrix(8.893789,-3.237139,-3.237139,-8.893789,258.5965,134.05399)" fill="#6100ad"/>
<use xlink:href="#font_1_7" transform="matrix(8.893789,-3.237139,-3.237139,-8.893789,263.68376,132.20235)" fill="#6100ad"/>
<use xlink:href="#font_1_4" transform="matrix(8.893789,-3.237139,-3.237139,-8.893789,268.79438,130.11054)" fill="#6100ad"/>
<use xlink:href="#font_1_a" transform="matrix(8.893789,-3.237139,-3.237139,-8.893789,272.29267,131.03295)" fill="#6100ad"/>
<path transform="matrix(.1,0,0,-.1,0,244.26)" stroke-width="3.98004" stroke-linecap="butt" stroke-miterlimit="10" stroke-linejoin="miter" fill="none" stroke="#6100ad" d="M 2763.21 1171.01 L 2789.89 1180.72 "/>
<use xlink:href="#font_1_a" transform="matrix(8.893789,-3.237139,-3.237139,-8.893789,279.94059,128.2491)" fill="#6100ad"/>
<use xlink:href="#font_1_1" transform="matrix(8.893789,-3.237139,-3.237139,-8.893789,284.12648,124.52982)" fill="#6100ad"/>
<use xlink:href="#font_1_d" transform="matrix(8.893789,-3.237139,-3.237139,-8.893789,288.87907,123.03165)" fill="#6100ad"/>
<use xlink:href="#font_1_e" transform="matrix(8.893789,-3.237139,-3.237139,-8.893789,294.35743,123.00169)" fill="#6100ad"/>
<use xlink:href="#font_1_9" transform="matrix(8.893789,-3.237139,-3.237139,-8.893789,100.9173,106.44861)" fill="#6100ad"/>
<use xlink:href="#font_1_2" transform="matrix(8.893789,-3.237139,-3.237139,-8.893789,105.702159,104.70702)" fill="#6100ad"/>
<use xlink:href="#font_1_6" transform="matrix(8.893789,-3.237139,-3.237139,-8.893789,110.90502,102.81329)" fill="#6100ad"/>
<use xlink:href="#font_1_1" transform="matrix(8.893789,-3.237139,-3.237139,-8.893789,115.819988,100.7927)" fill="#6100ad"/>
<use xlink:href="#font_1_c" transform="matrix(8.893789,-3.237139,-3.237139,-8.893789,120.44806,99.33984)" fill="#6100ad"/>
<use xlink:href="#font_1_7" transform="matrix(8.893789,-3.237139,-3.237139,-8.893789,125.5353,97.4882)" fill="#6100ad"/>
<use xlink:href="#font_1_4" transform="matrix(8.893789,-3.237139,-3.237139,-8.893789,130.64594,95.396389)" fill="#6100ad"/>
<use xlink:href="#font_1_a" transform="matrix(8.893789,-3.237139,-3.237139,-8.893789,134.14421,96.31879)" fill="#6100ad"/>
<path transform="matrix(.1,0,0,-.1,0,244.26)" stroke-width="3.98004" stroke-linecap="butt" stroke-miterlimit="10" stroke-linejoin="miter" fill="none" stroke="#6100ad" d="M 1381.73 1518.16 L 1408.41 1527.87 "/>
<use xlink:href="#font_1_a" transform="matrix(8.893789,-3.237139,-3.237139,-8.893789,141.79257,93.535099)" fill="#6100ad"/>
<use xlink:href="#font_1_3" transform="matrix(8.893789,-3.237139,-3.237139,-8.893789,146.54186,91.80646)" fill="#6100ad"/>
<use xlink:href="#font_1_2" transform="matrix(8.893789,-3.237139,-3.237139,-8.893789,150.69548,88.33059)" fill="#6100ad"/>
<use xlink:href="#font_1_5" transform="matrix(8.893789,-3.237139,-3.237139,-8.893789,155.62264,86.53722)" fill="#6100ad"/>
<use xlink:href="#font_1_9" transform="matrix(8.893789,-3.237139,-3.237139,-8.893789,169.86016,187.61142)" fill="#6100ad"/>
<use xlink:href="#font_1_2" transform="matrix(8.893789,-3.237139,-3.237139,-8.893789,174.64502,185.86981)" fill="#6100ad"/>
<use xlink:href="#font_1_6" transform="matrix(8.893789,-3.237139,-3.237139,-8.893789,179.84789,183.9761)" fill="#6100ad"/>
<use xlink:href="#font_1_1" transform="matrix(8.893789,-3.237139,-3.237139,-8.893789,184.76284,181.9555)" fill="#6100ad"/>
<use xlink:href="#font_1_c" transform="matrix(8.893789,-3.237139,-3.237139,-8.893789,189.39092,180.50266)" fill="#6100ad"/>
<use xlink:href="#font_1_7" transform="matrix(8.893789,-3.237139,-3.237139,-8.893789,194.47817,178.651)" fill="#6100ad"/>
<use xlink:href="#font_1_4" transform="matrix(8.893789,-3.237139,-3.237139,-8.893789,199.58879,176.5592)" fill="#6100ad"/>
<use xlink:href="#font_1_a" transform="matrix(8.893789,-3.237139,-3.237139,-8.893789,203.08707,177.4816)" fill="#6100ad"/>
<path transform="matrix(.1,0,0,-.1,0,244.26)" stroke-width="3.98004" stroke-linecap="butt" stroke-miterlimit="10" stroke-linejoin="miter" fill="none" stroke="#6100ad" d="M 2071.15 706.523 L 2097.83 716.234 "/>
<symbol id="font_1_b">
<path d="M .41200004 .52400007 L .021 .52400007 L .021 .45100004 L .31300003 .45100004 L 0 .075 L 0 0 L .42600004 0 L .42600004 .07300001 L .100999999 .07300001 L .41200004 .45000003 L .41200004 .52400007 Z "/>
</symbol>
<use xlink:href="#font_1_b" transform="matrix(8.893789,-3.237139,-3.237139,-8.893789,210.12772,172.72374)" fill="#6100ad"/>
<use xlink:href="#font_1_1" transform="matrix(8.893789,-3.237139,-3.237139,-8.893789,214.92147,170.97895)" fill="#6100ad"/>
<use xlink:href="#font_1_d" transform="matrix(8.893789,-3.237139,-3.237139,-8.893789,219.67406,169.48075)" fill="#6100ad"/>
<use xlink:href="#font_1_e" transform="matrix(8.893789,-3.237139,-3.237139,-8.893789,225.15242,169.4508)" fill="#6100ad"/>
<use xlink:href="#font_1_9" transform="matrix(8.893789,-3.237139,-3.237139,-8.893789,170.12346,59.999647)" fill="#6100ad"/>
<use xlink:href="#font_1_2" transform="matrix(8.893789,-3.237139,-3.237139,-8.893789,174.90833,58.258066)" fill="#6100ad"/>
<use xlink:href="#font_1_6" transform="matrix(8.893789,-3.237139,-3.237139,-8.893789,180.11119,56.364339)" fill="#6100ad"/>
<use xlink:href="#font_1_1" transform="matrix(8.893789,-3.237139,-3.237139,-8.893789,185.02614,54.343744)" fill="#6100ad"/>
<use xlink:href="#font_1_c" transform="matrix(8.893789,-3.237139,-3.237139,-8.893789,189.65422,52.890886)" fill="#6100ad"/>
<use xlink:href="#font_1_7" transform="matrix(8.893789,-3.237139,-3.237139,-8.893789,194.74147,51.039239)" fill="#6100ad"/>
<use xlink:href="#font_1_4" transform="matrix(8.893789,-3.237139,-3.237139,-8.893789,199.8521,48.94743)" fill="#6100ad"/>
<use xlink:href="#font_1_a" transform="matrix(8.893789,-3.237139,-3.237139,-8.893789,203.35037,49.86983)" fill="#6100ad"/>
<path transform="matrix(.1,0,0,-.1,0,244.26)" stroke-width="3.98004" stroke-linecap="butt" stroke-miterlimit="10" stroke-linejoin="miter" fill="none" stroke="#6100ad" d="M 2073.79 1982.64 L 2100.46 1992.35 "/>
<use xlink:href="#font_1_b" transform="matrix(8.893789,-3.237139,-3.237139,-8.893789,210.39072,45.11164)" fill="#6100ad"/>
<use xlink:href="#font_1_3" transform="matrix(8.893789,-3.237139,-3.237139,-8.893789,215.74787,45.357458)" fill="#6100ad"/>
<use xlink:href="#font_1_2" transform="matrix(8.893789,-3.237139,-3.237139,-8.893789,219.90149,41.881586)" fill="#6100ad"/>
<use xlink:href="#font_1_5" transform="matrix(8.893789,-3.237139,-3.237139,-8.893789,224.82865,40.088209)" fill="#6100ad"/>
</g>
</svg>
