<?xml version="1.0" encoding="UTF-8" standalone="no"?>
<!DOCTYPE svg PUBLIC "-//W3C//DTD SVG 1.1//EN" "http://www.w3.org/Graphics/SVG/1.1/DTD/svg11.dtd">
<svg xmlns="http://www.w3.org/2000/svg" xmlns:xlink="http://www.w3.org/1999/xlink" version="1.1" width="320.93pt" height="236.33pt" viewBox="0 0 320.93 236.33">
<g enable-background="new">
<path transform="matrix(.1,0,0,-.1,0,236.33)" d="M 1497.6 154.375 L 3095.84 736.094 L 3095.84 2011.7 L 1497.6 1429.98 Z " fill="#cceeff"/>
<path transform="matrix(.1,0,0,-.1,0,236.33)" stroke-width="9.9628" stroke-linecap="butt" stroke-miterlimit="10" stroke-linejoin="miter" fill="none" stroke="#1f6e96" d="M 1497.6 154.375 L 3095.84 736.094 L 3095.84 2011.7 L 1497.6 1429.98 Z "/>
<path transform="matrix(.1,0,0,-.1,0,236.33)" d="M 113.477 500.992 L 1497.6 154.375 L 1497.6 1429.98 L 113.477 1776.6 Z " fill="#cceeff"/>
<path transform="matrix(.1,0,0,-.1,0,236.33)" stroke-width="9.9628" stroke-linecap="butt" stroke-miterlimit="10" stroke-linejoin="miter" fill="none" stroke="#1f6e96" d="M 113.477 500.992 L 1497.6 154.375 L 1497.6 1429.98 L 113.477 1776.6 Z "/>
<path transform="matrix(.1,0,0,-.1,0,236.33)" d="M 1497.6 1429.98 L 3095.84 2011.7 L 1711.72 2358.32 L 113.477 1776.6 Z " fill="#cceeff"/>
<path transform="matrix(.1,0,0,-.1,0,236.33)" stroke-width="9.9628" stroke-linecap="butt" stroke-miterlimit="10" stroke-linejoin="miter" fill="none" stroke="#1f6e96" d="M 1497.6 1429.98 L 3095.84 2011.7 L 1711.72 2358.32 L 113.477 1776.6 Z "/>
<path transform="matrix(.1,0,0,-.1,0,236.33)" stroke-width="9.9628" stroke-linecap="butt" stroke-dasharray="29.8883,29.8883" stroke-miterlimit="10" stroke-linejoin="miter" fill="none" stroke="#1f6e96" d="M 3095.84 736.094 L 1711.72 1082.71 L 113.477 500.992 "/>
<path transform="matrix(.1,0,0,-.1,0,236.33)" stroke-width="9.9628" stroke-linecap="butt" stroke-dasharray="29.8883,29.8883" stroke-miterlimit="10" stroke-linejoin="miter" fill="none" stroke="#1f6e96" d="M 1711.72 1082.71 L 1711.72 2358.32 "/>
<path transform="matrix(.1,0,0,-.1,0,236.33)" stroke-width="19.9255" stroke-linecap="butt" stroke-miterlimit="10" stroke-linejoin="miter" fill="none" stroke="#6100ad" d="M 805.539 965.488 L 561.699 876.734 "/>
<path transform="matrix(.1,0,0,-.1,0,236.33)" d="M 524.711 863.273 C 529.656 863.816 551.91 864.801 566.879 862.508 L 556.523 890.961 C 546.531 879.582 528.848 866.035 524.711 863.273 " fill="#6100ad"/>
<path transform="matrix(.1,0,0,-.1,0,236.33)" stroke-width="17.9323" stroke-linecap="butt" stroke-miterlimit="10" stroke-linejoin="miter" fill="none" stroke="#6100ad" d="M 524.711 863.273 C 529.656 863.816 551.91 864.801 566.879 862.508 L 556.523 890.961 C 546.531 879.582 528.848 866.035 524.711 863.273 Z "/>
<symbol id="font_0_1">
<path d="M .321 .067 C .33200003 .026 .367 0 .41 0 C .44500003 0 .468 .023000002 .484 .055000005 C .50100007 .091000009 .51400008 .15200001 .51400008 .15400002 C .51400008 .16400002 .50500008 .16400002 .50200006 .16400002 C .492 .16400002 .49100004 .16000001 .488 .14600002 C .474 .09 .455 .022000002 .41300003 .022000002 C .39200003 .022000002 .382 .035 .382 .068 C .382 .09 .394 .13700001 .402 .17200002 L .43 .28000004 C .433 .29500003 .44300003 .33300004 .447 .34800003 C .45200003 .37100003 .462 .40900005 .462 .41500003 C .462 .43300004 .448 .44200004 .433 .44200004 C .428 .44200004 .402 .441 .394 .40700004 C .375 .33400003 .331 .15900001 .319 .106000009 C .318 .102000009 .278 .022000002 .20500002 .022000002 C .15300001 .022000002 .143 .067 .143 .104 C .143 .16000001 .171 .23900002 .19700001 .30800004 C .209 .33800004 .21400002 .35200004 .21400002 .37100003 C .21400002 .41600005 .18200001 .45300005 .13200002 .45300005 C .037 .45300005 0 .30800004 0 .29900003 C 0 .28900004 .01 .28900004 .012 .28900004 C .022000002 .28900004 .023 .291 .028000003 .307 C .053000004 .39400003 .091000009 .43100003 .12900001 .43100003 C .13800001 .43100003 .15400002 .43000005 .15400002 .39800004 C .15400002 .374 .143 .34500004 .13700001 .33 C .10000001 .23100002 .079 .16900002 .079 .120000008 C .079 .025000003 .148 0 .202 0 C .268 0 .304 .045 .321 .067 Z "/>
</symbol>
<use xlink:href="#font_0_1" transform="matrix(9.36185,-3.4075025,-3.4075025,-9.36185,6.339836,169.20607)" fill="#6100ad"/>
<symbol id="font_1_1">
<path d="M .201 .116000007 C .19100002 .082 .15800002 .028 .107 .028 C .10400001 .028 .07400001 .028 .053000004 .042000005 C .094000007 .055000005 .09700001 .091 .09700001 .097 C .09700001 .119 .080000009 .134 .057000005 .134 C .029000007 .134 0 .11 0 .073 C 0 .023000002 .056 0 .10500001 0 C .15100003 0 .192 .029000003 .21700001 .071 C .241 .018000002 .296 0 .336 0 C .451 0 .512 .125 .512 .15300001 C .512 .16600001 .49900005 .16600001 .49600003 .16600001 C .48200003 .16600001 .48100005 .16100002 .47700004 .14900002 C .456 .08 .39600004 .028 .34 .028 C .3 .028 .279 .055000005 .279 .093 C .279 .119 .303 .21000001 .331 .321 C .351 .398 .39600004 .423 .42900003 .423 C .43100003 .423 .46200005 .423 .483 .409 C .451 .4 .439 .372 .439 .354 C .439 .33200003 .456 .317 .479 .317 C .50200006 .317 .535 .336 .535 .37800003 C .535 .43400003 .47100006 .451 .43100003 .451 C .381 .451 .34100003 .418 .319 .38 C .301 .421 .255 .451 .199 .451 C .087000008 .451 .023000002 .328 .023000002 .298 C .023000002 .285 .037 .285 .040000008 .285 C .053000004 .285 .054000006 .289 .059000009 .30200003 C .084 .38 .14700002 .423 .19600001 .423 C .229 .423 .256 .405 .256 .357 C .256 .337 .24400002 .287 .23500002 .25300003 L .201 .116000007 Z "/>
</symbol>
<use xlink:href="#font_1_1" transform="matrix(6.5532758,-2.3852449,-2.3852449,-6.5532758,12.23961,168.60643)" fill="#6100ad"/>
<symbol id="font_2_2">
<path d="M .63100007 .19400002 C .646 .19400002 .665 .19400002 .665 .214 C .665 .23400001 .646 .23400001 .632 .23400001 L .033 .23400001 C .019000002 .23400001 0 .23400001 0 .214 C 0 .19400002 .019000002 .19400002 .034 .19400002 L .63100007 .19400002 M .632 0 C .646 0 .665 0 .665 .02000001 C .665 .040000008 .646 .040000008 .63100007 .040000008 L .034 .040000008 C .019000002 .040000008 0 .040000008 0 .02000001 C 0 0 .019000002 0 .033 0 L .632 0 Z "/>
</symbol>
<use xlink:href="#font_2_2" transform="matrix(9.36185,-3.4075025,-3.4075025,-9.36185,18.774966,163.15346)" fill="#6100ad"/>
<symbol id="font_3_1">
<path d="M .57600006 0 C .59300008 0 .611 0 .611 .019999996 C .611 .040000008 .59300008 .040000008 .57600006 .040000008 L .035000005 .040000008 C .018 .040000008 0 .040000008 0 .019999996 C 0 0 .018 0 .035000005 0 L .57600006 0 Z "/>
</symbol>
<use xlink:href="#font_3_1" transform="matrix(9.36185,-3.4075025,-3.4075025,-9.36185,28.578892,158.55664)" fill="#6100ad"/>
<use xlink:href="#font_0_1" transform="matrix(9.36185,-3.4075025,-3.4075025,-9.36185,36.176557,158.34638)" fill="#6100ad"/>
<symbol id="font_4_1">
<path d="M .46400006 .33900003 C .46400006 .44900004 .45100004 .528 .40500004 .598 C .374 .644 .31200005 .684 .23200001 .684 C 0 .684 0 .41100005 0 .33900003 C 0 .26700003 0 0 .23200001 0 C .46400006 0 .46400006 .26700003 .46400006 .33900003 M .23200001 .028 C .186 .028 .125 .055 .105000007 .13700001 C .091000009 .19600001 .091000009 .27800004 .091000009 .35200004 C .091000009 .42500005 .091000009 .50100007 .106000009 .556 C .127 .635 .19100002 .656 .23200001 .656 C .286 .656 .338 .623 .356 .565 C .37200005 .51100006 .37300004 .43900005 .37300004 .35200004 C .37300004 .27800004 .37300004 .20400001 .36 .141 C .34000004 .050000006 .272 .028 .23200001 .028 Z "/>
</symbol>
<use xlink:href="#font_4_1" transform="matrix(6.5532758,-2.3852449,-2.3852449,-6.5532758,42.125974,157.80263)" fill="#6100ad"/>
<path transform="matrix(.1,0,0,-.1,0,236.33)" stroke-width="19.9255" stroke-linecap="butt" stroke-miterlimit="10" stroke-linejoin="miter" fill="none" stroke="#6100ad" d="M 2403.78 1547.21 L 2647.62 1635.96 "/>
<path transform="matrix(.1,0,0,-.1,0,236.33)" d="M 2684.61 1649.42 C 2679.66 1648.88 2657.41 1647.89 2642.44 1650.18 L 2652.8 1621.73 C 2662.79 1633.11 2680.47 1646.66 2684.61 1649.42 " fill="#6100ad"/>
<path transform="matrix(.1,0,0,-.1,0,236.33)" stroke-width="17.9323" stroke-linecap="butt" stroke-miterlimit="10" stroke-linejoin="miter" fill="none" stroke="#6100ad" d="M 2684.61 1649.42 C 2679.66 1648.88 2657.41 1647.89 2642.44 1650.18 L 2652.8 1621.73 C 2662.79 1633.11 2680.47 1646.66 2684.61 1649.42 Z "/>
<use xlink:href="#font_0_1" transform="matrix(9.36185,-3.4075025,-3.4075025,-9.36185,277.292,70.58717)" fill="#6100ad"/>
<use xlink:href="#font_1_1" transform="matrix(6.5532758,-2.3852449,-2.3852449,-6.5532758,283.1914,69.98704)" fill="#6100ad"/>
<symbol id="font_2_3">
<path d="M .35300002 .31300003 L .632 .31300003 C .646 .31300003 .665 .31300003 .665 .333 C .665 .35300002 .646 .35300002 .632 .35300002 L .35300002 .35300002 L .35300002 .633 C .35300002 .647 .35300002 .666 .33300004 .666 C .31300003 .666 .31300003 .647 .31300003 .633 L .31300003 .35300002 L .033 .35300002 C .019000002 .35300002 0 .35300002 0 .333 C 0 .31300003 .019000002 .31300003 .033 .31300003 L .31300003 .31300003 L .31300003 .033000005 C .31300003 .019000002 .31300003 0 .33300004 0 C .35300002 0 .35300002 .019000002 .35300002 .033000005 L .35300002 .31300003 Z "/>
</symbol>
<use xlink:href="#font_2_2" transform="matrix(9.36185,-3.4075025,-3.4075025,-9.36185,289.72709,64.53406)" fill="#6100ad"/>
<use xlink:href="#font_2_3" transform="matrix(9.36185,-3.4075025,-3.4075025,-9.36185,300.34748,62.958528)" fill="#6100ad"/>
<use xlink:href="#font_0_1" transform="matrix(9.36185,-3.4075025,-3.4075025,-9.36185,307.12855,59.727018)" fill="#6100ad"/>
<use xlink:href="#font_4_1" transform="matrix(6.5532758,-2.3852449,-2.3852449,-6.5532758,313.07749,59.18303)" fill="#6100ad"/>
<path transform="matrix(.1,0,0,-.1,0,236.33)" stroke-width="19.9255" stroke-linecap="butt" stroke-miterlimit="10" stroke-linejoin="miter" fill="none" stroke="#6100ad" d="M 2375 1063.44 L 2573.56 1013.71 "/>
<path transform="matrix(.1,0,0,-.1,0,236.33)" d="M 2336.82 1073 C 2341.22 1070.68 2360.21 1059.04 2371.32 1048.75 L 2378.68 1078.12 C 2364.03 1074.29 2341.79 1072.97 2336.82 1073 " fill="#6100ad"/>
<path transform="matrix(.1,0,0,-.1,0,236.33)" stroke-width="17.9322" stroke-linecap="butt" stroke-miterlimit="10" stroke-linejoin="miter" fill="none" stroke="#6100ad" d="M 2336.82 1073 C 2341.22 1070.68 2360.21 1059.04 2371.32 1048.75 L 2378.68 1078.12 C 2364.03 1074.29 2341.79 1072.97 2336.82 1073 Z "/>
<use xlink:href="#font_0_1" transform="matrix(9.623173,2.5785206,2.5785206,-9.623173,261.2317,137.64264)" fill="#6100ad"/>
<symbol id="font_1_2">
<path d="M .50900009 .58100005 C .513 .595 .513 .597 .513 .60300007 C .513 .623 .49700005 .63500007 .48000003 .63500007 C .46900005 .63500007 .45000003 .63000008 .43900005 .611 C .43600003 .605 .42800004 .573 .42300005 .55300006 L .40200005 .47000004 C .39600004 .44600005 .36500005 .32000003 .36200003 .30900003 C .36100004 .30900003 .31700004 .22200002 .23900001 .22200002 C .171 .22200002 .171 .287 .171 .305 C .171 .35900004 .194 .42200003 .22400002 .499 C .23600002 .531 .24100001 .54300007 .24100001 .56 C .24100001 .60800006 .2 .64500007 .146 .64500007 C .045000007 .64500007 0 .509 0 .49200005 C 0 .47900004 .014000002 .47900004 .017 .47900004 C .031 .47900004 .032 .48400004 .035 .495 C .060000007 .578 .103 .61700007 .143 .61700007 C .16000001 .61700007 .168 .606 .168 .582 C .168 .559 .15900001 .537 .154 .52400007 C .106000009 .402 .096 .365 .096 .321 C .096 .30400003 .096 .25700004 .135 .22500001 C .16600001 .19900002 .20800002 .194 .235 .194 C .27500005 .194 .31100003 .209 .34400005 .23900001 C .33100004 .18400002 .32000003 .142 .27800004 .09200001 C .25100003 .061000006 .21100001 .027999998 .158 .027999998 C .15100001 .027999998 .104 .027999998 .083000008 .061000006 C .13700001 .067 .13700001 .11500001 .13700001 .116000007 C .13700001 .148 .107999999 .15400002 .098000008 .15400002 C .073 .15400002 .040000004 .134 .040000004 .08800001 C .040000004 .037 .088 0 .15900001 0 C .26000003 0 .38300003 .07800001 .41400004 .20300001 L .50900009 .58100005 Z "/>
</symbol>
<use xlink:href="#font_1_2" transform="matrix(6.7362039,1.8049599,1.8049599,-6.7362039,266.05244,141.84134)" fill="#6100ad"/>
<use xlink:href="#font_2_2" transform="matrix(9.623173,2.5785206,2.5785206,-9.623173,274.67103,139.75856)" fill="#6100ad"/>
<use xlink:href="#font_2_3" transform="matrix(9.623173,2.5785206,2.5785206,-9.623173,284.2742,144.55954)" fill="#6100ad"/>
<use xlink:href="#font_0_1" transform="matrix(9.623173,2.5785206,2.5785206,-9.623173,291.68284,145.80208)" fill="#6100ad"/>
<symbol id="font_4_2">
<path d="M .22600001 .63600006 C .22600001 .66300007 .224 .66400006 .19600001 .66400006 C .132 .601 .041 .6 0 .6 L 0 .564 C .023999997 .564 .09000001 .564 .14500001 .592 L .14500001 .082 C .14500001 .049000004 .14500001 .036000004 .04500001 .036000004 L .0069999995 .036000004 L .0069999995 0 C .024999999 .001 .148 .004 .185 .004 C .21600002 .004 .34200005 .001 .36400003 0 L .36400003 .036000004 L .32600004 .036000004 C .22600001 .036000004 .22600001 .049000004 .22600001 .082 L .22600001 .63600006 Z "/>
</symbol>
<use xlink:href="#font_4_2" transform="matrix(6.7362039,1.8049599,1.8049599,-6.7362039,297.28828,148.73812)" fill="#6100ad"/>
<path transform="matrix(.1,0,0,-.1,0,236.33)" stroke-width="19.9255" stroke-linecap="butt" stroke-miterlimit="10" stroke-linejoin="miter" fill="none" stroke="#6100ad" d="M 834.316 1449.26 L 635.758 1498.98 "/>
<path transform="matrix(.1,0,0,-.1,0,236.33)" d="M 872.504 1439.7 C 868.102 1442.02 849.113 1453.66 837.996 1463.94 L 830.641 1434.57 C 845.289 1438.4 867.527 1439.73 872.504 1439.7 " fill="#6100ad"/>
<path transform="matrix(.1,0,0,-.1,0,236.33)" stroke-width="17.9322" stroke-linecap="butt" stroke-miterlimit="10" stroke-linejoin="miter" fill="none" stroke="#6100ad" d="M 872.504 1439.7 C 868.102 1442.02 849.113 1453.66 837.996 1463.94 L 830.641 1434.57 C 845.289 1438.4 867.527 1439.73 872.504 1439.7 Z "/>
<use xlink:href="#font_0_1" transform="matrix(9.623173,2.5785206,2.5785206,-9.623173,19.159708,76.17563)" fill="#6100ad"/>
<use xlink:href="#font_1_2" transform="matrix(6.7362039,1.8049599,1.8049599,-6.7362039,23.979264,80.37316)" fill="#6100ad"/>
<use xlink:href="#font_2_2" transform="matrix(9.623173,2.5785206,2.5785206,-9.623173,32.59826,78.29155)" fill="#6100ad"/>
<use xlink:href="#font_3_1" transform="matrix(9.623173,2.5785206,2.5785206,-9.623173,43.26559,80.14938)" fill="#6100ad"/>
<use xlink:href="#font_0_1" transform="matrix(9.623173,2.5785206,2.5785206,-9.623173,49.609727,84.33499)" fill="#6100ad"/>
<use xlink:href="#font_4_2" transform="matrix(6.7362039,1.8049599,1.8049599,-6.7362039,55.215135,87.27024)" fill="#6100ad"/>
<path transform="matrix(.1,0,0,-.1,0,236.33)" stroke-width="9.9628" stroke-linecap="butt" stroke-miterlimit="10" stroke-linejoin="miter" fill="none" stroke="#3b7d08" d="M 1811.87 217.738 C 1811.87 245.914 1790.41 260.941 1763.93 251.305 C 1737.45 241.672 1715.99 211.02 1715.99 182.844 C 1715.99 154.668 1737.45 139.641 1763.93 149.277 C 1790.41 158.914 1811.87 189.563 1811.87 217.738 Z M 1763.93 200.293 "/>
<clipPath id="cp5">
<path transform="matrix(.1,0,0,-.1,0,236.33)" d="M 1870.51 186.066 L 1657.44 108.516 L 1657.44 23.4883 L 1870.51 101.039 Z "/>
</clipPath>
<g clip-path="url(#cp5)">
<symbol id="pac6">
<g clip-path="url(#cp7)">
<path transform="matrix(.1,0,0,-.1,-.00390625,236.33391)" stroke-width="3.985" stroke-linecap="butt" stroke-miterlimit="10" stroke-linejoin="miter" fill="none" stroke="#3b7d08" d="M 0 0 L 30.8828 30.8828 "/>
</g>
</symbol>
<pattern id="pa6" patternUnits="userSpaceOnUse" patternContentUnits="userSpaceOnUse" x="0" y="0" width="2.98883" height="2.98883">
<clipPath id="cp8">
<path d="M -.99628 -.99628 L 3.9851 -.99628 L 3.9851 3.9851 L -.99628 3.9851 Z"/>
</clipPath>
<g clip-path="url(#cp8)">
<g transform="matrix(1,0,0,-1,.00390625,236.33391)">
<use x="0" y="0" xlink:href="#pac6"/>
<use x="0" y="-2.98883" xlink:href="#pac6"/>
<use x="-2.98883" y="0" xlink:href="#pac6"/>
<use x="-2.98883" y="-2.98883" xlink:href="#pac6"/>
</g>
</g>
</pattern>
<clipPath id="cp7">
<path transform="matrix(.1,0,0,-.1,-.00390625,236.33391)" d="M -10 -10 L -10 40 L 40 40 L 40 -10 Z "/>
</clipPath>
<rect transform="matrix(1,0,0,-1,-.00390625,236.33391)" fill="url(#pa6)" x="165.74791" y="2.3527375" width="21.307007" height="16.257767"/>
</g>
<path transform="matrix(.1,0,0,-.1,0,236.33)" stroke-width="9.9628" stroke-linecap="butt" stroke-miterlimit="10" stroke-linejoin="miter" fill="none" stroke="#3b7d08" d="M 2344.53 411.602 C 2344.53 439.777 2323.07 454.805 2296.59 445.168 C 2270.12 435.535 2248.66 404.883 2248.66 376.707 C 2248.66 348.535 2270.12 333.504 2296.59 343.141 C 2323.07 352.777 2344.53 383.426 2344.53 411.602 Z M 2296.59 394.156 "/>
<clipPath id="cp9">
<path transform="matrix(.1,0,0,-.1,0,236.33)" d="M 2403.26 379.973 L 2190.19 302.422 L 2190.19 217.395 L 2403.26 294.945 Z "/>
</clipPath>
<g clip-path="url(#cp9)">
<symbol id="pac10">
<g clip-path="url(#cp11)">
<path transform="matrix(.1,0,0,-.1,-.00390625,236.33391)" stroke-width="3.985" stroke-linecap="butt" stroke-miterlimit="10" stroke-linejoin="miter" fill="none" stroke="#3b7d08" d="M 0 0 L 30.8828 30.8828 "/>
</g>
</symbol>
<pattern id="pa10" patternUnits="userSpaceOnUse" patternContentUnits="userSpaceOnUse" x="0" y="0" width="2.98883" height="2.98883">
<clipPath id="cp12">
<path d="M -.99628 -.99628 L 3.9851 -.99628 L 3.9851 3.9851 L -.99628 3.9851 Z"/>
</clipPath>
<g clip-path="url(#cp12)">
<g transform="matrix(1,0,0,-1,.00390625,236.33391)">
<use x="0" y="0" xlink:href="#pac10"/>
<use x="0" y="-2.98883" xlink:href="#pac10"/>
<use x="-2.98883" y="0" xlink:href="#pac10"/>
<use x="-2.98883" y="-2.98883" xlink:href="#pac10"/>
</g>
</g>
</pattern>
<clipPath id="cp11">
<path transform="matrix(.1,0,0,-.1,-.00390625,236.33391)" d="M -10 -10 L -10 40 L 40 40 L 40 -10 Z "/>
</clipPath>
<rect transform="matrix(1,0,0,-1,-.00390625,236.33391)" fill="url(#pa10)" x="219.0229" y="21.743409" width="21.307007" height="16.257798"/>
</g>
<path transform="matrix(.1,0,0,-.1,0,236.33)" stroke-width="9.9628" stroke-linecap="butt" stroke-miterlimit="10" stroke-linejoin="miter" fill="none" stroke="#3b7d08" d="M 2877.19 605.465 C 2877.19 633.641 2855.73 648.668 2829.25 639.031 C 2802.78 629.398 2781.32 598.746 2781.32 570.57 C 2781.32 542.398 2802.78 527.367 2829.25 537.004 C 2855.73 546.641 2877.19 577.289 2877.19 605.465 Z M 2829.25 588.02 "/>
<clipPath id="cp13">
<path transform="matrix(.1,0,0,-.1,0,236.33)" d="M 2936 573.879 L 2722.94 496.328 L 2722.94 411.301 L 2936 488.852 Z "/>
</clipPath>
<g clip-path="url(#cp13)">
<symbol id="pac14">
<g clip-path="url(#cp15)">
<path transform="matrix(.1,0,0,-.1,-.00390625,236.33391)" stroke-width="3.985" stroke-linecap="butt" stroke-miterlimit="10" stroke-linejoin="miter" fill="none" stroke="#3b7d08" d="M 0 0 L 30.8828 30.8828 "/>
</g>
</symbol>
<pattern id="pa14" patternUnits="userSpaceOnUse" patternContentUnits="userSpaceOnUse" x="0" y="0" width="2.98883" height="2.98883">
<clipPath id="cp16">
<path d="M -.99628 -.99628 L 3.9851 -.99628 L 3.9851 3.9851 L -.99628 3.9851 Z"/>
</clipPath>
<g clip-path="url(#cp16)">
<g transform="matrix(1,0,0,-1,.00390625,236.33391)">
<use x="0" y="0" xlink:href="#pac14"/>
<use x="0" y="-2.98883" xlink:href="#pac14"/>
<use x="-2.98883" y="0" xlink:href="#pac14"/>
<use x="-2.98883" y="-2.98883" xlink:href="#pac14"/>
</g>
</g>
</pattern>
<clipPath id="cp15">
<path transform="matrix(.1,0,0,-.1,-.00390625,236.33391)" d="M -10 -10 L -10 40 L 40 40 L 40 -10 Z "/>
</clipPath>
<rect transform="matrix(1,0,0,-1,-.00390625,236.33391)" fill="url(#pa14)" x="272.2979" y="41.134004" width="21.306" height="16.257813"/>
</g>
<path transform="matrix(.1,0,0,-.1,0,236.33)" stroke-width="9.9628" stroke-linecap="butt" stroke-miterlimit="10" stroke-linejoin="miter" fill="none" stroke="#3b7d08" d="M 1225.43 171.344 C 1225.43 199.52 1244.02 217.707 1266.94 211.965 C 1289.87 206.223 1308.46 178.727 1308.46 150.551 C 1308.46 122.379 1289.87 104.191 1266.94 109.934 C 1244.02 115.676 1225.43 143.172 1225.43 171.344 Z M 1266.94 160.949 "/>
<clipPath id="cp17">
<path transform="matrix(.1,0,0,-.1,0,236.33)" d="M 1174.65 131.211 L 1359.17 85.0039 L 1359.17 -.0234375 L 1174.65 46.1836 Z "/>
</clipPath>
<g clip-path="url(#cp17)">
<symbol id="pac18">
<g clip-path="url(#cp19)">
<path transform="matrix(.1,0,0,-.1,-.00390625,236.33391)" stroke-width="3.985" stroke-linecap="butt" stroke-miterlimit="10" stroke-linejoin="miter" fill="none" stroke="#3b7d08" d="M 0 0 L 30.8828 30.8828 "/>
</g>
</symbol>
<pattern id="pa18" patternUnits="userSpaceOnUse" patternContentUnits="userSpaceOnUse" x="0" y="0" width="2.98883" height="2.98883">
<clipPath id="cp20">
<path d="M -.99628 -.99628 L 3.9851 -.99628 L 3.9851 3.9851 L -.99628 3.9851 Z"/>
</clipPath>
<g clip-path="url(#cp20)">
<g transform="matrix(1,0,0,-1,.00390625,236.33391)">
<use x="0" y="0" xlink:href="#pac18"/>
<use x="0" y="-2.98883" xlink:href="#pac18"/>
<use x="-2.98883" y="0" xlink:href="#pac18"/>
<use x="-2.98883" y="-2.98883" xlink:href="#pac18"/>
</g>
</g>
</pattern>
<clipPath id="cp19">
<path transform="matrix(.1,0,0,-.1,-.00390625,236.33391)" d="M -10 -10 L -10 40 L 40 40 L 40 -10 Z "/>
</clipPath>
<rect transform="matrix(1,0,0,-1,-.00390625,236.33391)" fill="url(#pa18)" x="117.46891" y=".0015563965" width="18.452004" height="13.123444"/>
</g>
<path transform="matrix(.1,0,0,-.1,0,236.33)" stroke-width="9.9628" stroke-linecap="butt" stroke-miterlimit="10" stroke-linejoin="miter" fill="none" stroke="#3b7d08" d="M 764.137 286.867 C 764.137 315.043 782.723 333.227 805.648 327.484 C 828.578 321.742 847.164 294.25 847.164 266.074 C 847.164 237.898 828.578 219.715 805.648 225.457 C 782.723 231.199 764.137 258.691 764.137 286.867 Z M 805.648 276.473 "/>
<clipPath id="cp21">
<path transform="matrix(.1,0,0,-.1,0,236.33)" d="M 713.277 246.75 L 897.797 200.543 L 897.797 115.516 L 713.277 161.723 Z "/>
</clipPath>
<g clip-path="url(#cp21)">
<symbol id="pac22">
<g clip-path="url(#cp23)">
<path transform="matrix(.1,0,0,-.1,-.00390625,236.33391)" stroke-width="3.985" stroke-linecap="butt" stroke-miterlimit="10" stroke-linejoin="miter" fill="none" stroke="#3b7d08" d="M 0 0 L 30.8828 30.8828 "/>
</g>
</symbol>
<pattern id="pa22" patternUnits="userSpaceOnUse" patternContentUnits="userSpaceOnUse" x="0" y="0" width="2.98883" height="2.98883">
<clipPath id="cp24">
<path d="M -.99628 -.99628 L 3.9851 -.99628 L 3.9851 3.9851 L -.99628 3.9851 Z"/>
</clipPath>
<g clip-path="url(#cp24)">
<g transform="matrix(1,0,0,-1,.00390625,236.33391)">
<use x="0" y="0" xlink:href="#pac22"/>
<use x="0" y="-2.98883" xlink:href="#pac22"/>
<use x="-2.98883" y="0" xlink:href="#pac22"/>
<use x="-2.98883" y="-2.98883" xlink:href="#pac22"/>
</g>
</g>
</pattern>
<clipPath id="cp23">
<path transform="matrix(.1,0,0,-.1,-.00390625,236.33391)" d="M -10 -10 L -10 40 L 40 40 L 40 -10 Z "/>
</clipPath>
<rect transform="matrix(1,0,0,-1,-.00390625,236.33391)" fill="url(#pa22)" x="71.331607" y="11.555511" width="18.452004" height="13.123398"/>
</g>
<path transform="matrix(.1,0,0,-.1,0,236.33)" stroke-width="9.9628" stroke-linecap="butt" stroke-miterlimit="10" stroke-linejoin="miter" fill="none" stroke="#3b7d08" d="M 302.844 402.391 C 302.844 430.566 321.43 448.75 344.355 443.008 C 367.285 437.266 385.871 409.773 385.871 381.598 C 385.871 353.422 367.285 335.238 344.355 340.98 C 321.43 346.723 302.844 374.215 302.844 402.391 Z M 344.355 391.992 "/>
<clipPath id="cp25">
<path transform="matrix(.1,0,0,-.1,0,236.33)" d="M 251.902 362.293 L 436.426 316.082 L 436.426 231.055 L 251.902 277.262 Z "/>
</clipPath>
<g clip-path="url(#cp25)">
<symbol id="pac26">
<g clip-path="url(#cp27)">
<path transform="matrix(.1,0,0,-.1,-.00390625,236.33391)" stroke-width="3.985" stroke-linecap="butt" stroke-miterlimit="10" stroke-linejoin="miter" fill="none" stroke="#3b7d08" d="M 0 0 L 30.8828 30.8828 "/>
</g>
</symbol>
<pattern id="pa26" patternUnits="userSpaceOnUse" patternContentUnits="userSpaceOnUse" x="0" y="0" width="2.98883" height="2.98883">
<clipPath id="cp28">
<path d="M -.99628 -.99628 L 3.9851 -.99628 L 3.9851 3.9851 L -.99628 3.9851 Z"/>
</clipPath>
<g clip-path="url(#cp28)">
<g transform="matrix(1,0,0,-1,.00390625,236.33391)">
<use x="0" y="0" xlink:href="#pac26"/>
<use x="0" y="-2.98883" xlink:href="#pac26"/>
<use x="-2.98883" y="0" xlink:href="#pac26"/>
<use x="-2.98883" y="-2.98883" xlink:href="#pac26"/>
</g>
</g>
</pattern>
<clipPath id="cp27">
<path transform="matrix(.1,0,0,-.1,-.00390625,236.33391)" d="M -10 -10 L -10 40 L 40 40 L 40 -10 Z "/>
</clipPath>
<rect transform="matrix(1,0,0,-1,-.00390625,236.33391)" fill="url(#pa26)" x="25.194106" y="23.109406" width="18.452403" height="13.123795"/>
</g>
<use xlink:href="#font_0_1" transform="matrix(9.9626,0,0,-9.9626,215.68091,228.39545)" fill="#6100ad"/>
<symbol id="font_1_3">
<path d="M .10700001 .098000008 C .133 .124000009 .15100001 .143 .23600002 .21100001 C .25700004 .22800002 .33200003 .28800003 .361 .316 C .422 .37600003 .46000005 .42700003 .46000005 .439 C .46000005 .451 .44700004 .451 .44300003 .451 C .43400003 .451 .431 .449 .426 .441 C .39500005 .395 .374 .38 .35000003 .38 C .338 .38 .323 .381 .29299999 .41 C .259 .444 .237 .451 .214 .451 C .134 .451 .08 .364 .08 .334 C .08 .32500003 .09 .322 .097 .322 C .109 .322 .111 .32500003 .11500001 .336 C .13000001 .37100003 .186 .373 .202 .373 C .22500001 .373 .251 .367 .265 .364 C .32 .352 .32700003 .352 .352 .352 C .32600004 .32500003 .30800004 .307 .21300002 .23100002 C .135 .16900002 .10800001 .14400001 .089 .124000009 C .029 .065000008 0 .021000002 0 .012000001 C 0 0 .012999997 0 .016999998 0 C .027000003 0 .029 .0020000004 .034 .010000001 C .061000006 .048000006 .09200001 .071 .126 .071 C .13800001 .071 .15300001 .07 .18 .045 C .21100001 .015000001 .23100002 0 .263 0 C .37 0 .43700005 .12100001 .43700005 .15500002 C .43700005 .16700001 .426 .16800002 .42000003 .16800002 C .408 .16800002 .40600003 .16300002 .402 .15200001 C .38300003 .102000009 .324 .078 .27500005 .078 C .25200004 .078 .22700002 .083000008 .202 .089 C .156 .099 .148 .099 .13000001 .099 C .128 .099 .113000009 .099 .10700001 .098000008 Z "/>
</symbol>
<use xlink:href="#font_1_3" transform="matrix(6.9738,0,0,-6.9738,221.5213,229.84973)" fill="#6100ad"/>
<symbol id="font_2_1">
<path d="M .421 .34200005 C .421 .42200003 .416 .50200006 .381 .57600006 C .335 .67200008 .25300003 .688 .211 .688 C .15100001 .688 .07800001 .66200008 .037000006 .56900009 C .0050000029 .5 0 .42200003 0 .34200005 C 0 .26700003 .0040000008 .177 .045000007 .101 C .088 .020000002 .161 0 .21000001 0 C .264 0 .34 .021000002 .384 .116000007 C .416 .185 .421 .263 .421 .34200005 M .21000001 .022000002 C .171 .022000002 .112 .047000003 .094 .143 C .083000008 .20300001 .083000008 .29500003 .083000008 .35400004 C .083000008 .41800005 .083000008 .48400004 .091000009 .53800007 C .11 .65700009 .185 .66600009 .21000001 .66600009 C .243 .66600009 .30900003 .64800009 .328 .549 C .338 .49300004 .338 .41700004 .338 .35400004 C .338 .279 .338 .21100001 .32700003 .147 C .312 .052 .255 .022000002 .21000001 .022000002 Z "/>
</symbol>
<use xlink:href="#font_2_2" transform="matrix(9.9626,0,0,-9.9626,229.01084,226.96083)" fill="#6100ad"/>
<use xlink:href="#font_2_1" transform="matrix(9.9626,0,0,-9.9626,239.35982,228.50504)" fill="#6100ad"/>
</g>
</svg>
