<?xml version="1.0" encoding="UTF-8" standalone="no"?>
<!DOCTYPE svg PUBLIC "-//W3C//DTD SVG 1.1//EN" "http://www.w3.org/Graphics/SVG/1.1/DTD/svg11.dtd">
<svg xmlns="http://www.w3.org/2000/svg" xmlns:xlink="http://www.w3.org/1999/xlink" version="1.1" width="299.23pt" height="236.33pt" viewBox="0 0 299.23 236.33">
<g enable-background="new">
<path transform="matrix(.1,0,0,-.1,0,236.33)" d="M 1389.09 154.375 L 2987.34 736.094 L 2987.34 2011.7 L 1389.09 1429.98 Z " fill="#cceeff"/>
<path transform="matrix(.1,0,0,-.1,0,236.33)" stroke-width="9.9628" stroke-linecap="butt" stroke-miterlimit="10" stroke-linejoin="miter" fill="none" stroke="#1f6e96" d="M 1389.09 154.375 L 2987.34 736.094 L 2987.34 2011.7 L 1389.09 1429.98 Z "/>
<path transform="matrix(.1,0,0,-.1,0,236.33)" d="M 4.96484 500.992 L 1389.09 154.375 L 1389.09 1429.98 L 4.96484 1776.6 Z " fill="#cceeff"/>
<path transform="matrix(.1,0,0,-.1,0,236.33)" stroke-width="9.9628" stroke-linecap="butt" stroke-miterlimit="10" stroke-linejoin="miter" fill="none" stroke="#1f6e96" d="M 4.96484 500.992 L 1389.09 154.375 L 1389.09 1429.98 L 4.96484 1776.6 Z "/>
<path transform="matrix(.1,0,0,-.1,0,236.33)" d="M 1389.09 1429.98 L 2987.34 2011.7 L 1603.21 2358.32 L 4.96484 1776.6 Z " fill="#cceeff"/>
<path transform="matrix(.1,0,0,-.1,0,236.33)" stroke-width="9.9628" stroke-linecap="butt" stroke-miterlimit="10" stroke-linejoin="miter" fill="none" stroke="#1f6e96" d="M 1389.09 1429.98 L 2987.34 2011.7 L 1603.21 2358.32 L 4.96484 1776.6 Z "/>
<path transform="matrix(.1,0,0,-.1,0,236.33)" stroke-width="9.9628" stroke-linecap="butt" stroke-dasharray="29.8883,29.8883" stroke-miterlimit="10" stroke-linejoin="miter" fill="none" stroke="#1f6e96" d="M 2987.34 736.094 L 1603.21 1082.71 L 4.96484 500.992 "/>
<path transform="matrix(.1,0,0,-.1,0,236.33)" stroke-width="9.9628" stroke-linecap="butt" stroke-dasharray="29.8883,29.8883" stroke-miterlimit="10" stroke-linejoin="miter" fill="none" stroke="#1f6e96" d="M 1603.21 1082.71 L 1603.21 2358.32 "/>
<path transform="matrix(.1,0,0,-.1,0,236.33)" stroke-width="19.9255" stroke-linecap="butt" stroke-miterlimit="10" stroke-linejoin="miter" fill="none" stroke="#6100ad" d="M 558.605 1000.15 L 757.168 950.422 "/>
<path transform="matrix(.1,0,0,-.1,0,236.33)" d="M 795.355 940.863 C 790.953 943.18 771.961 954.828 760.844 965.109 L 753.492 935.738 C 768.141 939.57 790.379 940.891 795.355 940.863 " fill="#6100ad"/>
<path transform="matrix(.1,0,0,-.1,0,236.33)" stroke-width="17.9322" stroke-linecap="butt" stroke-miterlimit="10" stroke-linejoin="miter" fill="none" stroke="#6100ad" d="M 795.355 940.863 C 790.953 943.18 771.961 954.828 760.844 965.109 L 753.492 935.738 C 768.141 939.57 790.379 940.891 795.355 940.863 Z "/>
<symbol id="font_0_4">
<path d="M .321 .067 C .33200003 .026 .367 0 .41 0 C .44500003 0 .468 .023000002 .484 .055000005 C .50100007 .091000009 .51400008 .15200001 .51400008 .15400002 C .51400008 .16400002 .50500008 .16400002 .50200006 .16400002 C .492 .16400002 .49100004 .16000001 .488 .14600002 C .474 .09 .455 .022000002 .41300003 .022000002 C .39200003 .022000002 .382 .035 .382 .068 C .382 .09 .394 .13700001 .402 .17200002 L .43 .28000004 C .433 .29500003 .44300003 .33300004 .447 .34800003 C .45200003 .37100003 .462 .40900005 .462 .41500003 C .462 .43300004 .448 .44200004 .433 .44200004 C .428 .44200004 .402 .441 .394 .40700004 C .375 .33400003 .331 .15900001 .319 .106000009 C .318 .102000009 .278 .022000002 .20500002 .022000002 C .15300001 .022000002 .143 .067 .143 .104 C .143 .16000001 .171 .23900002 .19700001 .30800004 C .209 .33800004 .21400002 .35200004 .21400002 .37100003 C .21400002 .41600005 .18200001 .45300005 .13200002 .45300005 C .037 .45300005 0 .30800004 0 .29900003 C 0 .28900004 .01 .28900004 .012 .28900004 C .022000002 .28900004 .023 .291 .028000003 .307 C .053000004 .39400003 .091000009 .43100003 .12900001 .43100003 C .13800001 .43100003 .15400002 .43000005 .15400002 .39800004 C .15400002 .374 .143 .34500004 .13700001 .33 C .10000001 .23100002 .079 .16900002 .079 .120000008 C .079 .025000003 .148 0 .202 0 C .268 0 .304 .045 .321 .067 Z "/>
</symbol>
<use xlink:href="#font_0_4" transform="matrix(9.623173,2.5785206,2.5785206,-9.623173,14.838208,138.15363)" fill="#6100ad"/>
<symbol id="font_1_2">
<path d="M .201 .116000007 C .19100002 .082 .15800002 .028 .107 .028 C .10400001 .028 .07400001 .028 .053000004 .042000005 C .094000007 .055000005 .09700001 .091 .09700001 .097 C .09700001 .119 .080000009 .134 .057000005 .134 C .029000007 .134 0 .11 0 .073 C 0 .023000002 .056 0 .10500001 0 C .15100003 0 .192 .029000003 .21700001 .071 C .241 .018000002 .296 0 .336 0 C .451 0 .512 .125 .512 .15300001 C .512 .16600001 .49900005 .16600001 .49600003 .16600001 C .48200003 .16600001 .48100005 .16100002 .47700004 .14900002 C .456 .08 .39600004 .028 .34 .028 C .3 .028 .279 .055000005 .279 .093 C .279 .119 .303 .21000001 .331 .321 C .351 .398 .39600004 .423 .42900003 .423 C .43100003 .423 .46200005 .423 .483 .409 C .451 .4 .439 .372 .439 .354 C .439 .33200003 .456 .317 .479 .317 C .50200006 .317 .535 .336 .535 .37800003 C .535 .43400003 .47100006 .451 .43100003 .451 C .381 .451 .34100003 .418 .319 .38 C .301 .421 .255 .451 .199 .451 C .087000008 .451 .023000002 .328 .023000002 .298 C .023000002 .285 .037 .285 .040000008 .285 C .053000004 .285 .054000006 .289 .059000009 .30200003 C .084 .38 .14700002 .423 .19600001 .423 C .229 .423 .256 .405 .256 .357 C .256 .337 .24400002 .287 .23500002 .25300003 L .201 .116000007 Z "/>
</symbol>
<use xlink:href="#font_1_2" transform="matrix(6.7362039,1.8049599,1.8049599,-6.7362039,20.015059,141.04615)" fill="#6100ad"/>
<symbol id="font_2_4">
<path d="M .63100007 .19400002 C .646 .19400002 .665 .19400002 .665 .214 C .665 .23400001 .646 .23400001 .632 .23400001 L .033 .23400001 C .019000002 .23400001 0 .23400001 0 .214 C 0 .19400002 .019000002 .19400002 .034 .19400002 L .63100007 .19400002 M .632 0 C .646 0 .665 0 .665 .02000001 C .665 .040000008 .646 .040000008 .63100007 .040000008 L .034 .040000008 C .019000002 .040000008 0 .040000008 0 .02000001 C 0 0 .019000002 0 .033 0 L .632 0 Z "/>
</symbol>
<use xlink:href="#font_2_4" transform="matrix(9.623173,2.5785206,2.5785206,-9.623173,28.495915,140.32814)" fill="#6100ad"/>
<symbol id="font_0_5">
<path d="M .33300004 .38900004 C .31500004 .42600004 .286 .45300005 .24100001 .45300005 C .124 .45300005 0 .30600003 0 .16000001 C 0 .06600001 .055000005 0 .133 0 C .153 0 .20300001 .0040000008 .263 .075 C .27100004 .033000005 .30600003 0 .35400004 0 C .38900004 0 .41200004 .023000002 .42800004 .055000005 C .44500003 .091000009 .45800004 .15200001 .45800004 .15400002 C .45800004 .16400002 .44900004 .16400002 .44600005 .16400002 C .43600003 .16400002 .43500004 .16000001 .43200005 .14600002 C .41500003 .081 .397 .022000002 .35600005 .022000002 C .32900004 .022000002 .32600004 .048 .32600004 .068 C .32600004 .09 .32800005 .098000008 .33900003 .14200002 C .35000003 .18400002 .35200004 .19400002 .36100004 .23200003 L .397 .37200005 C .40400005 .40000005 .40400005 .40200005 .40400005 .40600003 C .40400005 .42300005 .39200003 .43300004 .37500004 .43300004 C .35100005 .43300004 .33600004 .411 .33300004 .38900004 M .26800005 .13000001 C .263 .112 .263 .11000001 .24800001 .093 C .20400001 .038000004 .163 .022000002 .135 .022000002 C .08499999 .022000002 .07100001 .077 .07100001 .116000007 C .07100001 .16600001 .103 .28900004 .126 .335 C .157 .39400003 .202 .43100003 .242 .43100003 C .307 .43100003 .32100005 .34900005 .32100005 .34300003 C .32100005 .337 .31900005 .33100004 .31800003 .32600004 L .26800005 .13000001 Z "/>
</symbol>
<symbol id="font_0_8">
<path d="M .45700003 .586 C .461 .6 .461 .602 .461 .609 C .461 .62700006 .447 .63600006 .432 .63600006 C .42200003 .63600006 .40600003 .63 .397 .615 C .395 .61 .387 .579 .38300003 .561 C .37600003 .535 .36900003 .508 .363 .48100005 L .318 .301 C .314 .286 .271 .21600002 .20500002 .21600002 C .15400002 .21600002 .143 .26000003 .143 .29700003 C .143 .34300003 .16000001 .40500004 .194 .49300004 C .21000001 .53400006 .21400002 .545 .21400002 .56500008 C .21400002 .61 .18200001 .6470001 .13200002 .6470001 C .037 .6470001 0 .50200006 0 .49300004 C 0 .48300005 .01 .48300005 .012 .48300005 C .022000002 .48300005 .023 .485 .028000003 .50100007 C .055000009 .595 .095000009 .625 .12900001 .625 C .13700001 .625 .15400002 .625 .15400002 .59300008 C .15400002 .568 .14400001 .54200008 .13700001 .523 C .097 .41700004 .079 .36 .079 .31300003 C .079 .224 .142 .194 .201 .194 C .24000003 .194 .274 .21100001 .30200003 .23900002 C .289 .187 .277 .13800001 .237 .08500001 C .21100001 .051 .17300001 .022 .127 .022 C .113000009 .022 .068 .025000006 .051000008 .06400001 C .067 .06400001 .080000009 .06400001 .094000007 .076000008 C .104 .08500001 .11400001 .098000008 .11400001 .117000009 C .11400001 .148 .087000008 .15200001 .07700001 .15200001 C .054000006 .15200001 .021 .136 .021 .087000008 C .021 .037 .065000008 0 .127 0 C .23 0 .333 .091000009 .361 .20400001 L .45700003 .586 Z "/>
</symbol>
<use xlink:href="#font_0_5" transform="matrix(9.623173,2.5785206,2.5785206,-9.623173,38.129186,144.3946)" fill="#6100ad"/>
<use xlink:href="#font_0_8" transform="matrix(9.623173,2.5785206,2.5785206,-9.623173,42.60991,147.59615)" fill="#6100ad"/>
<symbol id="font_2_7">
<path d="M .35300002 .31300003 L .632 .31300003 C .646 .31300003 .665 .31300003 .665 .333 C .665 .35300002 .646 .35300002 .632 .35300002 L .35300002 .35300002 L .35300002 .633 C .35300002 .647 .35300002 .666 .33300004 .666 C .31300003 .666 .31300003 .647 .31300003 .633 L .31300003 .35300002 L .033 .35300002 C .019000002 .35300002 0 .35300002 0 .333 C 0 .31300003 .019000002 .31300003 .033 .31300003 L .31300003 .31300003 L .31300003 .033000005 C .31300003 .019000002 .31300003 0 .33300004 0 C .35300002 0 .35300002 .019000002 .35300002 .033000005 L .35300002 .31300003 Z "/>
</symbol>
<use xlink:href="#font_2_7" transform="matrix(9.623173,2.5785206,2.5785206,-9.623173,50.38611,148.42145)" fill="#6100ad"/>
<symbol id="font_0_7">
<path d="M .192 .694 C .192 .695 .192 .705 .179 .705 C .156 .705 .083000008 .697 .057 .695 C .049 .694 .038 .693 .038 .675 C .038 .663 .047000003 .663 .062000004 .663 C .11 .663 .112 .656 .112 .646 C .112 .639 .103 .605 .098000008 .584 L .015999999 .25800003 C .0040000008 .20800002 0 .19200002 0 .15700002 C 0 .062000004 .053 0 .127 0 C .24500002 0 .36800004 .14900002 .36800004 .293 C .36800004 .38400004 .31500004 .45300005 .235 .45300005 C .18900001 .45300005 .148 .42400003 .118 .39300005 L .192 .694 M .098000008 .316 C .104 .33800004 .104 .34000004 .113000009 .351 C .162 .41600005 .207 .43100003 .233 .43100003 C .26900003 .43100003 .29600004 .40100003 .29600004 .337 C .29600004 .27800004 .263 .16300002 .24500002 .12500002 C .212 .058000003 .16600001 .022000002 .127 .022000002 C .092999998 .022000002 .060000007 .049000004 .060000007 .123 C .060000007 .14200002 .060000007 .16100002 .076000008 .22400002 L .098000008 .316 Z "/>
</symbol>
<symbol id="font_0_2">
<path d="M .18300002 .411 L .277 .411 C .29700003 .411 .307 .411 .307 .43100003 C .307 .44200004 .29700003 .44200004 .279 .44200004 L .19100002 .44200004 C .227 .584 .23200003 .60400006 .23200003 .61 C .23200003 .62700006 .22000002 .637 .20300001 .637 C .2 .637 .172 .636 .163 .601 L .124 .44200004 L .030000002 .44200004 C .009999998 .44200004 0 .44200004 0 .42300005 C 0 .411 .007999999 .411 .028 .411 L .11600001 .411 C .044 .127 .04 .11000001 .04 .092 C .04 .038000004 .078 0 .132 0 C .234 0 .291 .14600002 .291 .15400002 C .291 .16400002 .28300003 .16400002 .279 .16400002 C .27 .16400002 .26900003 .16100002 .264 .15000002 C .22100002 .046 .16800002 .022000002 .134 .022000002 C .113000009 .022000002 .103 .035 .103 .068 C .103 .092 .105000007 .09900001 .109 .116000007 L .18300002 .411 Z "/>
</symbol>
<symbol id="font_0_3">
<path d="M .72400006 .606 C .73300006 .642 .7350001 .652 .8080001 .652 C .83400008 .652 .84200009 .652 .84200009 .67200008 C .84200009 .683 .8310001 .683 .82800009 .683 C .8000001 .683 .72800007 .68 .70000007 .68 C .67100009 .68 .6000001 .683 .57100006 .683 C .5630001 .683 .55200007 .683 .55200007 .66300007 C .55200007 .652 .56100007 .652 .58000007 .652 C .5820001 .652 .6010001 .652 .61800006 .65000006 C .63600006 .648 .64500007 .647 .64500007 .634 C .64500007 .63000008 .64400008 .628 .64100006 .615 L .58100005 .37100003 L .27600003 .37100003 L .335 .606 C .344 .642 .347 .652 .41900004 .652 C .44500003 .652 .453 .652 .453 .67200008 C .453 .683 .44200004 .683 .439 .683 C .411 .683 .33900003 .68 .31100003 .68 C .282 .68 .211 .683 .18200001 .683 C .17400001 .683 .163 .683 .163 .66300007 C .163 .652 .172 .652 .191 .652 C .193 .652 .21200001 .652 .229 .65000006 C .24700001 .648 .256 .647 .256 .634 C .256 .63000008 .255 .62700006 .252 .615 L .118 .078 C .107999999 .039 .106000009 .031000002 .026999999 .031000002 C .009 .031000002 0 .031000002 0 .011000001 C 0 0 .012000002 0 .014000002 0 C .042 0 .113000009 .003 .141 .003 C .162 .003 .184 .002 .20500002 .002 C .227 .002 .24900002 0 .27 0 C .278 0 .29000003 0 .29000003 .020000002 C .29000003 .031000002 .28100003 .031000002 .26200003 .031000002 C .225 .031000002 .19700001 .031000002 .19700001 .049000004 C .19700001 .055000005 .199 .060000004 .2 .066 L .268 .34 L .5730001 .34 C .5310001 .17400001 .5080001 .079 .50400009 .064 C .49400006 .032 .475 .031000002 .41300003 .031000002 C .398 .031000002 .38900004 .031000002 .38900004 .011000001 C .38900004 0 .40100003 0 .40300004 0 C .43100003 0 .50200006 .003 .53000006 .003 C .55100008 .003 .5730001 .002 .59400007 .002 C .61600008 .002 .6380001 0 .65900006 0 C .66700008 0 .6790001 0 .6790001 .020000002 C .6790001 .031000002 .6700001 .031000002 .6510001 .031000002 C .6140001 .031000002 .586 .031000002 .586 .049000004 C .586 .055000005 .58800008 .060000004 .58900007 .066 L .72400006 .606 Z "/>
</symbol>
<use xlink:href="#font_0_7" transform="matrix(9.623173,2.5785206,2.5785206,-9.623173,60.10785,150.28377)" fill="#6100ad"/>
<use xlink:href="#font_0_2" transform="matrix(9.623173,2.5785206,2.5785206,-9.623173,64.007167,151.32859)" fill="#6100ad"/>
<use xlink:href="#font_0_8" transform="matrix(9.623173,2.5785206,2.5785206,-9.623173,67.0396,154.14206)" fill="#6100ad"/>
<use xlink:href="#font_0_3" transform="matrix(9.623173,2.5785206,2.5785206,-9.623173,72.729167,153.55217)" fill="#6100ad"/>
<symbol id="font_2_5">
<path d="M .23200003 .00999999 C .23200003 .012999982 .23200003 .014999986 .215 .03199999 C .09 .15799999 .058 .347 .058 .5 C .058 .674 .096 .84800007 .21900001 .97300007 C .23200003 .985 .23200003 .98700007 .23200003 .99 C .23200003 .99700006 .22800002 1 .222 1 C .21200001 1 .12200001 .93200007 .06299999 .805 C .012000002 .69500008 0 .584 0 .5 C 0 .422 .011 .301 .066 .188 C .126 .065 .21200001 0 .222 0 C .22800002 0 .23200003 .0029999912 .23200003 .00999999 Z "/>
</symbol>
<use xlink:href="#font_2_5" transform="matrix(9.623173,2.5785206,2.5785206,-9.623173,81.441539,158.46518)" fill="#6100ad"/>
<use xlink:href="#font_0_2" transform="matrix(9.623173,2.5785206,2.5785206,-9.623173,85.06946,156.9722)" fill="#6100ad"/>
<symbol id="font_3_1">
<path d="M .57600006 0 C .59300008 0 .611 0 .611 .019999996 C .611 .040000008 .59300008 .040000008 .57600006 .040000008 L .035000005 .040000008 C .018 .040000008 0 .040000008 0 .019999996 C 0 0 .018 0 .035000005 0 L .57600006 0 Z "/>
</symbol>
<use xlink:href="#font_3_1" transform="matrix(9.623173,2.5785206,2.5785206,-9.623173,91.88115,156.31169)" fill="#6100ad"/>
<symbol id="font_2_2">
<path d="M .205 .64000007 C .205 .66400006 .205 .666 .18200003 .666 C .120000008 .60200008 .032000007 .60200008 0 .60200008 L 0 .57100006 C .020000004 .57100006 .07900001 .57100006 .13100001 .597 L .13100001 .079 C .13100001 .043 .128 .031000002 .038000004 .031000002 L .0060000049 .031000002 L .0060000049 0 C .04100001 .003 .128 .003 .168 .003 C .20800002 .003 .29500003 .003 .33000005 0 L .33000005 .031000002 L .29800005 .031000002 C .20800002 .031000002 .205 .042000005 .205 .079 L .205 .64000007 Z "/>
</symbol>
<use xlink:href="#font_2_2" transform="matrix(9.623173,2.5785206,2.5785206,-9.623173,100.96925,161.11908)" fill="#6100ad"/>
<symbol id="font_0_1">
<path d="M .059000009 .07000001 C .056 .055000005 .050000006 .032 .050000006 .027000003 C .050000006 .009000001 .064 0 .079 0 C .091000009 0 .10900001 .008000001 .11600001 .028 C .118 .032 .15200001 .16800002 .156 .18600002 C .164 .21900001 .18200001 .28900004 .18800001 .316 C .19200002 .32900004 .22000002 .37600003 .244 .39800004 C .252 .40500004 .281 .43100003 .324 .43100003 C .35 .43100003 .365 .41900004 .366 .41900004 C .336 .41400004 .314 .39000003 .314 .36400003 C .314 .34800003 .325 .32900004 .352 .32900004 C .379 .32900004 .407 .35200004 .407 .388 C .407 .42300005 .375 .45300005 .324 .45300005 C .259 .45300005 .21500002 .404 .19600001 .37600003 C .18800001 .42100004 .15200001 .45300005 .105000007 .45300005 C .059000009 .45300005 .040000008 .41400004 .031000002 .39600004 C .013000002 .36200003 0 .30200003 0 .29900003 C 0 .28900004 .01 .28900004 .012 .28900004 C .022000002 .28900004 .023 .29000003 .029000001 .31200005 C .046000005 .38300003 .06600001 .43100003 .10200001 .43100003 C .119 .43100003 .133 .42300005 .133 .38500003 C .133 .36400003 .13000001 .35300002 .11700001 .30100004 L .059000009 .07000001 Z "/>
</symbol>
<use xlink:href="#font_0_8" transform="matrix(9.623173,2.5785206,2.5785206,-9.623173,104.67456,164.2263)" fill="#6100ad"/>
<use xlink:href="#font_0_1" transform="matrix(9.623173,2.5785206,2.5785206,-9.623173,110.23962,163.71652)" fill="#6100ad"/>
<symbol id="font_2_6">
<path d="M .232 .5 C .232 .578 .22100002 .699 .16600001 .81200006 C .106 .93500009 .020000004 1 .009999998 1 C .0040000008 1 0 .99600008 0 .99 C 0 .98700007 0 .985 .019000002 .967 C .117000009 .86800006 .174 .709 .174 .5 C .174 .329 .137 .153 .012999997 .026999996 C 0 .014999986 0 .012999982 0 .00999999 C 0 .003999993 .0040000008 0 .009999998 0 C .020000004 0 .11000001 .06799999 .169 .195 C .22 .305 .232 .416 .232 .5 Z "/>
</symbol>
<use xlink:href="#font_2_6" transform="matrix(9.623173,2.5785206,2.5785206,-9.623173,114.49989,167.32312)" fill="#6100ad"/>
<use xlink:href="#font_0_4" transform="matrix(9.623173,2.5785206,2.5785206,-9.623173,11.416991,149.61373)" fill="#6100ad"/>
<symbol id="font_1_3">
<path d="M .50900009 .58100005 C .513 .595 .513 .597 .513 .60300007 C .513 .623 .49700005 .63500007 .48000003 .63500007 C .46900005 .63500007 .45000003 .63000008 .43900005 .611 C .43600003 .605 .42800004 .573 .42300005 .55300006 L .40200005 .47000004 C .39600004 .44600005 .36500005 .32000003 .36200003 .30900003 C .36100004 .30900003 .31700004 .22200002 .23900001 .22200002 C .171 .22200002 .171 .287 .171 .305 C .171 .35900004 .194 .42200003 .22400002 .499 C .23600002 .531 .24100001 .54300007 .24100001 .56 C .24100001 .60800006 .2 .64500007 .146 .64500007 C .045000007 .64500007 0 .509 0 .49200005 C 0 .47900004 .014000002 .47900004 .017 .47900004 C .031 .47900004 .032 .48400004 .035 .495 C .060000007 .578 .103 .61700007 .143 .61700007 C .16000001 .61700007 .168 .606 .168 .582 C .168 .559 .15900001 .537 .154 .52400007 C .106000009 .402 .096 .365 .096 .321 C .096 .30400003 .096 .25700004 .135 .22500001 C .16600001 .19900002 .20800002 .194 .235 .194 C .27500005 .194 .31100003 .209 .34400005 .23900001 C .33100004 .18400002 .32000003 .142 .27800004 .09200001 C .25100003 .061000006 .21100001 .027999998 .158 .027999998 C .15100001 .027999998 .104 .027999998 .083000008 .061000006 C .13700001 .067 .13700001 .11500001 .13700001 .116000007 C .13700001 .148 .107999999 .15400002 .098000008 .15400002 C .073 .15400002 .040000004 .134 .040000004 .08800001 C .040000004 .037 .088 0 .15900001 0 C .26000003 0 .38300003 .07800001 .41400004 .20300001 L .50900009 .58100005 Z "/>
</symbol>
<use xlink:href="#font_1_3" transform="matrix(6.7362039,1.8049599,1.8049599,-6.7362039,16.23694,153.81125)" fill="#6100ad"/>
<use xlink:href="#font_2_4" transform="matrix(9.623173,2.5785206,2.5785206,-9.623173,24.855555,151.72924)" fill="#6100ad"/>
<symbol id="font_0_6">
<path d="M .305 .31300003 C .311 .33900003 .334 .43100003 .404 .43100003 C .409 .43100003 .433 .43100003 .454 .418 C .426 .41300003 .40600003 .388 .40600003 .36400003 C .40600003 .34800003 .417 .32900004 .444 .32900004 C .46600003 .32900004 .498 .34700004 .498 .38700003 C .498 .43900005 .439 .45300005 .405 .45300005 C .347 .45300005 .312 .40000005 .3 .37700004 C .275 .44300003 .221 .45300005 .19200002 .45300005 C .08800001 .45300005 .031000002 .32400004 .031000002 .29900003 C .031000002 .28900004 .041 .28900004 .043000007 .28900004 C .051000008 .28900004 .054000006 .291 .056 .3 C .09 .40600003 .156 .43100003 .19000001 .43100003 C .209 .43100003 .244 .42200003 .244 .36400003 C .244 .33300004 .22700002 .26600004 .19000001 .126 C .17400001 .064 .13900002 .022000002 .095000009 .022000002 C .08900001 .022000002 .06600001 .022000002 .045 .035 C .07000001 .040000004 .09200001 .061 .09200001 .089 C .09200001 .116000007 .07000001 .124000009 .055000009 .124000009 C .025 .124000009 0 .098000008 0 .06600001 C 0 .020000002 .050000006 0 .094000007 0 C .16000001 0 .19600001 .07000001 .19900002 .076000008 C .21100001 .039 .24700003 0 .307 0 C .41 0 .467 .12900001 .467 .15400002 C .467 .16400002 .458 .16400002 .455 .16400002 C .446 .16400002 .444 .16000001 .442 .15300001 C .409 .046 .341 .022000002 .30900003 .022000002 C .27 .022000002 .254 .054 .254 .08800001 C .254 .11000001 .26 .13200002 .271 .17600002 L .305 .31300003 Z "/>
</symbol>
<use xlink:href="#font_0_5" transform="matrix(9.623173,2.5785206,2.5785206,-9.623173,34.488149,155.79552)" fill="#6100ad"/>
<use xlink:href="#font_0_6" transform="matrix(9.623173,2.5785206,2.5785206,-9.623173,39.469106,157.13016)" fill="#6100ad"/>
<use xlink:href="#font_2_7" transform="matrix(9.623173,2.5785206,2.5785206,-9.623173,47.181478,159.93929)" fill="#6100ad"/>
<use xlink:href="#font_0_7" transform="matrix(9.623173,2.5785206,2.5785206,-9.623173,56.903947,161.80182)" fill="#6100ad"/>
<use xlink:href="#font_0_2" transform="matrix(9.623173,2.5785206,2.5785206,-9.623173,60.803266,162.84662)" fill="#6100ad"/>
<use xlink:href="#font_0_6" transform="matrix(9.623173,2.5785206,2.5785206,-9.623173,64.33593,163.79322)" fill="#6100ad"/>
<use xlink:href="#font_0_3" transform="matrix(9.623173,2.5785206,2.5785206,-9.623173,69.960178,165.18675)" fill="#6100ad"/>
<use xlink:href="#font_2_5" transform="matrix(9.623173,2.5785206,2.5785206,-9.623173,78.67443,170.10025)" fill="#6100ad"/>
<use xlink:href="#font_0_2" transform="matrix(9.623173,2.5785206,2.5785206,-9.623173,82.301158,168.60697)" fill="#6100ad"/>
<use xlink:href="#font_3_1" transform="matrix(9.623173,2.5785206,2.5785206,-9.623173,89.11404,167.94678)" fill="#6100ad"/>
<use xlink:href="#font_2_2" transform="matrix(9.623173,2.5785206,2.5785206,-9.623173,98.20131,172.75395)" fill="#6100ad"/>
<use xlink:href="#font_0_8" transform="matrix(9.623173,2.5785206,2.5785206,-9.623173,101.90662,175.86116)" fill="#6100ad"/>
<use xlink:href="#font_0_1" transform="matrix(9.623173,2.5785206,2.5785206,-9.623173,107.47167,175.35138)" fill="#6100ad"/>
<use xlink:href="#font_2_6" transform="matrix(9.623173,2.5785206,2.5785206,-9.623173,111.73282,178.95822)" fill="#6100ad"/>
<path transform="matrix(.1,0,0,-.1,0,236.33)" stroke-width="19.9255" stroke-linecap="butt" stroke-miterlimit="10" stroke-linejoin="miter" fill="none" stroke="#6100ad" d="M 2433.69 1512.54 L 2235.13 1562.27 "/>
<path transform="matrix(.1,0,0,-.1,0,236.33)" d="M 2196.95 1571.83 C 2201.35 1569.51 2220.34 1557.87 2231.45 1547.59 L 2238.81 1576.96 C 2224.16 1573.13 2201.92 1571.8 2196.95 1571.83 " fill="#6100ad"/>
<path transform="matrix(.1,0,0,-.1,0,236.33)" stroke-width="17.9322" stroke-linecap="butt" stroke-miterlimit="10" stroke-linejoin="miter" fill="none" stroke="#6100ad" d="M 2196.95 1571.83 C 2201.35 1569.51 2220.34 1557.87 2231.45 1547.59 L 2238.81 1576.96 C 2224.16 1573.13 2201.92 1571.8 2196.95 1571.83 Z "/>
<use xlink:href="#font_0_4" transform="matrix(9.623173,2.5785206,2.5785206,-9.623173,174.6607,79.982639)" fill="#6100ad"/>
<use xlink:href="#font_1_2" transform="matrix(6.7362039,1.8049599,1.8049599,-6.7362039,179.83834,82.875148)" fill="#6100ad"/>
<use xlink:href="#font_2_4" transform="matrix(9.623173,2.5785206,2.5785206,-9.623173,188.31919,82.15715)" fill="#6100ad"/>
<use xlink:href="#font_0_5" transform="matrix(9.623173,2.5785206,2.5785206,-9.623173,197.95178,86.22341)" fill="#6100ad"/>
<use xlink:href="#font_0_8" transform="matrix(9.623173,2.5785206,2.5785206,-9.623173,202.4325,89.42496)" fill="#6100ad"/>
<use xlink:href="#font_2_7" transform="matrix(9.623173,2.5785206,2.5785206,-9.623173,210.2087,90.25027)" fill="#6100ad"/>
<use xlink:href="#font_0_7" transform="matrix(9.623173,2.5785206,2.5785206,-9.623173,219.93117,92.11277)" fill="#6100ad"/>
<use xlink:href="#font_0_2" transform="matrix(9.623173,2.5785206,2.5785206,-9.623173,223.83048,93.15759)" fill="#6100ad"/>
<use xlink:href="#font_0_8" transform="matrix(9.623173,2.5785206,2.5785206,-9.623173,226.8629,95.97107)" fill="#6100ad"/>
<use xlink:href="#font_0_3" transform="matrix(9.623173,2.5785206,2.5785206,-9.623173,232.55245,95.38119)" fill="#6100ad"/>
<use xlink:href="#font_2_5" transform="matrix(9.623173,2.5785206,2.5785206,-9.623173,241.26457,100.294109)" fill="#6100ad"/>
<use xlink:href="#font_0_2" transform="matrix(9.623173,2.5785206,2.5785206,-9.623173,244.89167,98.80092)" fill="#6100ad"/>
<use xlink:href="#font_3_1" transform="matrix(9.623173,2.5785206,2.5785206,-9.623173,251.70456,98.14073)" fill="#6100ad"/>
<use xlink:href="#font_2_2" transform="matrix(9.623173,2.5785206,2.5785206,-9.623173,260.79194,102.947917)" fill="#6100ad"/>
<use xlink:href="#font_0_8" transform="matrix(9.623173,2.5785206,2.5785206,-9.623173,264.49726,106.055149)" fill="#6100ad"/>
<use xlink:href="#font_0_1" transform="matrix(9.623173,2.5785206,2.5785206,-9.623173,270.0623,105.545368)" fill="#6100ad"/>
<use xlink:href="#font_2_6" transform="matrix(9.623173,2.5785206,2.5785206,-9.623173,274.32337,109.15217)" fill="#6100ad"/>
<use xlink:href="#font_0_4" transform="matrix(9.623173,2.5785206,2.5785206,-9.623173,171.24039,91.44295)" fill="#6100ad"/>
<use xlink:href="#font_1_3" transform="matrix(6.7362039,1.8049599,1.8049599,-6.7362039,176.05995,95.64048)" fill="#6100ad"/>
<use xlink:href="#font_2_4" transform="matrix(9.623173,2.5785206,2.5785206,-9.623173,184.67856,93.55847)" fill="#6100ad"/>
<use xlink:href="#font_0_5" transform="matrix(9.623173,2.5785206,2.5785206,-9.623173,194.31116,97.62473)" fill="#6100ad"/>
<use xlink:href="#font_0_6" transform="matrix(9.623173,2.5785206,2.5785206,-9.623173,199.2921,98.95938)" fill="#6100ad"/>
<use xlink:href="#font_2_7" transform="matrix(9.623173,2.5785206,2.5785206,-9.623173,207.00438,101.7685)" fill="#6100ad"/>
<use xlink:href="#font_0_7" transform="matrix(9.623173,2.5785206,2.5785206,-9.623173,216.7273,103.63113)" fill="#6100ad"/>
<use xlink:href="#font_0_2" transform="matrix(9.623173,2.5785206,2.5785206,-9.623173,220.6266,104.67595)" fill="#6100ad"/>
<use xlink:href="#font_0_6" transform="matrix(9.623173,2.5785206,2.5785206,-9.623173,224.15926,105.62253)" fill="#6100ad"/>
<use xlink:href="#font_0_3" transform="matrix(9.623173,2.5785206,2.5785206,-9.623173,229.7835,107.016078)" fill="#6100ad"/>
<use xlink:href="#font_2_5" transform="matrix(9.623173,2.5785206,2.5785206,-9.623173,238.49729,111.92944)" fill="#6100ad"/>
<use xlink:href="#font_0_2" transform="matrix(9.623173,2.5785206,2.5785206,-9.623173,242.12438,110.43626)" fill="#6100ad"/>
<use xlink:href="#font_3_1" transform="matrix(9.623173,2.5785206,2.5785206,-9.623173,248.93689,109.77597)" fill="#6100ad"/>
<use xlink:href="#font_2_2" transform="matrix(9.623173,2.5785206,2.5785206,-9.623173,258.02537,114.58345)" fill="#6100ad"/>
<use xlink:href="#font_0_8" transform="matrix(9.623173,2.5785206,2.5785206,-9.623173,261.73078,117.690708)" fill="#6100ad"/>
<use xlink:href="#font_0_1" transform="matrix(9.623173,2.5785206,2.5785206,-9.623173,267.2958,117.180919)" fill="#6100ad"/>
<use xlink:href="#font_2_6" transform="matrix(9.623173,2.5785206,2.5785206,-9.623173,271.556,120.7875)" fill="#6100ad"/>
<path transform="matrix(.1,0,0,-.1,0,236.33)" stroke-width="19.9255" stroke-linecap="butt" stroke-miterlimit="10" stroke-linejoin="miter" fill="none" stroke="#6100ad" d="M 2348.05 1141.21 L 2104.21 1052.46 "/>
<path transform="matrix(.1,0,0,-.1,0,236.33)" d="M 2067.22 1039 C 2072.16 1039.54 2094.42 1040.53 2109.39 1038.23 L 2099.03 1066.69 C 2089.04 1055.31 2071.36 1041.76 2067.22 1039 " fill="#6100ad"/>
<path transform="matrix(.1,0,0,-.1,0,236.33)" stroke-width="17.9323" stroke-linecap="butt" stroke-miterlimit="10" stroke-linejoin="miter" fill="none" stroke="#6100ad" d="M 2067.22 1039 C 2072.16 1039.54 2094.42 1040.53 2109.39 1038.23 L 2099.03 1066.69 C 2089.04 1055.31 2071.36 1041.76 2067.22 1039 Z "/>
<symbol id="font_0_a">
<path d="M .267 .38500003 L .435 .38500003 C .448 .38500003 .48400004 .38500003 .48400004 .419 C .48400004 .44300003 .463 .44300003 .444 .44300003 L .16400002 .44300003 C .14400001 .44300003 .105 .44300003 .061000006 .396 C .028000003 .36 0 .312 0 .306 C 0 .305 0 .296 .012 .296 C .020000002 .296 .022000002 .3 .028000003 .308 C .077 .38500003 .13400002 .38500003 .15500002 .38500003 L .23800002 .38500003 L .14000002 .064 C .136 .052 .13000001 .031000002 .13000001 .027 C .13000001 .016 .13700001 0 .15900001 0 C .19200002 0 .19700001 .028 .20000002 .043 L .267 .38500003 Z "/>
</symbol>
<use xlink:href="#font_0_a" transform="matrix(9.36185,-3.4075025,-3.4075025,-9.36185,166.44766,159.58354)" fill="#6100ad"/>
<symbol id="font_1_1">
<path d="M .204 .405 L .30600003 .405 C .32500003 .405 .33800004 .405 .33800004 .42700003 C .33800004 .441 .32500003 .441 .30800004 .441 L .21300003 .441 L .25000004 .58900007 C .25100003 .59400007 .25300003 .59900006 .25300003 .60300007 C .25300003 .621 .23900002 .635 .21900001 .635 C .194 .635 .17900002 .61800006 .17200002 .592 C .16500002 .56700006 .178 .615 .134 .441 L .031999999 .441 C .013 .441 0 .441 0 .419 C 0 .405 .011999998 .405 .030000002 .405 L .125 .405 L .066 .16900002 C .060000004 .14400001 .051 .108 .051 .095 C .051 .036000004 .101 0 .15799999 0 C .26900003 0 .33200003 .14000002 .33200003 .15300001 C .33200003 .16600001 .31900005 .16600001 .316 .16600001 C .30400003 .16600001 .30300004 .16400002 .29500003 .14700002 C .26700003 .084 .21600002 .028 .16100002 .028 C .14000002 .028 .12600002 .041 .12600002 .077 C .12600002 .087000008 .13 .108 .132 .118 L .204 .405 Z "/>
</symbol>
<use xlink:href="#font_1_1" transform="matrix(6.5532758,-2.3852449,-2.3852449,-6.5532758,171.05609,159.44264)" fill="#6100ad"/>
<use xlink:href="#font_2_4" transform="matrix(9.36185,-3.4075025,-3.4075025,-9.36185,176.21407,154.49137)" fill="#6100ad"/>
<use xlink:href="#font_3_1" transform="matrix(9.36185,-3.4075025,-3.4075025,-9.36185,186.01837,149.8944)" fill="#6100ad"/>
<symbol id="font_2_3">
<path d="M .07700001 .07700001 L .18300002 .18 C .33900003 .31800003 .39900003 .372 .39900003 .47200004 C .39900003 .586 .30900003 .666 .18700002 .666 C .074 .666 0 .574 0 .485 C 0 .42900003 .05 .42900003 .053000008 .42900003 C .07000001 .42900003 .105000007 .441 .105000007 .48200003 C .105000007 .508 .08700001 .53400006 .052000006 .53400006 C .044000005 .53400006 .042000008 .53400006 .039 .53300008 C .062000004 .59800007 .11600001 .63500007 .17400001 .63500007 C .26500003 .63500007 .308 .554 .308 .47200004 C .308 .39200003 .25800003 .31300003 .20300003 .25100003 L .011000004 .037 C 0 .026 0 .024 0 0 L .37100003 0 L .39900003 .17400001 L .374 .17400001 C .36900003 .14400001 .36200003 .1 .352 .085 C .345 .07700001 .279 .07700001 .257 .07700001 L .07700001 .07700001 Z "/>
</symbol>
<use xlink:href="#font_2_3" transform="matrix(9.36185,-3.4075025,-3.4075025,-9.36185,193.77481,149.50972)" fill="#6100ad"/>
<symbol id="font_0_9">
<path d="M .201 .56700006 C .20600002 .588 .216 .62600007 .216 .63100007 C .216 .648 .20400001 .65800008 .187 .65800008 C .18400002 .65800008 .156 .657 .147 .62200006 L .0029999987 .042999999 C 0 .031000004 0 .029 0 .026999996 C 0 .0119999949 .011 0 .028 0 C .049000004 0 .061000006 .017999992 .063 .020999998 C .067 .030000002 .080000009 .082 .118 .236 C .15 .209 .19500001 .205 .215 .205 C .28500004 .205 .324 .25 .34800003 .278 C .35700003 .23300001 .39400003 .205 .43800003 .205 C .47300003 .205 .49600003 .228 .5120001 .26000003 C .52900007 .296 .54200008 .357 .54200008 .35900004 C .54200008 .36900003 .533 .36900003 .53 .36900003 C .52 .36900003 .51900008 .365 .51600006 .351 C .49900005 .286 .48100005 .22700002 .44000004 .22700002 C .41300003 .22700002 .41000004 .25300003 .41000004 .273 C .41000004 .29500003 .42200003 .342 .43 .37700004 L .45800004 .485 C .46100004 .5 .47100006 .53800007 .475 .55300006 C .48000006 .57600006 .49000005 .614 .49000005 .62 C .49000005 .638 .47600005 .647 .46100004 .647 C .45600004 .647 .43 .646 .42200003 .61200007 L .37500004 .425 C .363 .375 .35200004 .333 .349 .323 C .34800003 .31800003 .3 .22700002 .21900001 .22700002 C .16900002 .22700002 .14500001 .26000003 .14500001 .314 C .14500001 .343 .15200001 .371 .15900001 .39900003 L .201 .56700006 Z "/>
</symbol>
<use xlink:href="#font_0_9" transform="matrix(9.36185,-3.4075025,-3.4075025,-9.36185,199.00405,149.89647)" fill="#6100ad"/>
<use xlink:href="#font_2_5" transform="matrix(9.36185,-3.4075025,-3.4075025,-9.36185,205.40686,147.92646)" fill="#6100ad"/>
<use xlink:href="#font_0_5" transform="matrix(9.36185,-3.4075025,-3.4075025,-9.36185,207.68152,144.56462)" fill="#6100ad"/>
<use xlink:href="#font_2_7" transform="matrix(9.36185,-3.4075025,-3.4075025,-9.36185,215.10562,142.62577)" fill="#6100ad"/>
<use xlink:href="#font_0_7" transform="matrix(9.36185,-3.4075025,-3.4075025,-9.36185,224.13739,138.57506)" fill="#6100ad"/>
<use xlink:href="#font_0_2" transform="matrix(9.36185,-3.4075025,-3.4075025,-9.36185,227.93082,137.19435)" fill="#6100ad"/>
<use xlink:href="#font_0_3" transform="matrix(9.36185,-3.4075025,-3.4075025,-9.36185,231.42368,135.8064)" fill="#6100ad"/>
<use xlink:href="#font_2_5" transform="matrix(9.36185,-3.4075025,-3.4075025,-9.36185,241.3795,134.83322)" fill="#6100ad"/>
<use xlink:href="#font_0_2" transform="matrix(9.36185,-3.4075025,-3.4075025,-9.36185,243.49501,131.52933)" fill="#6100ad"/>
<use xlink:href="#font_3_1" transform="matrix(9.36185,-3.4075025,-3.4075025,-9.36185,248.69605,127.08116)" fill="#6100ad"/>
<use xlink:href="#font_2_2" transform="matrix(9.36185,-3.4075025,-3.4075025,-9.36185,258.89845,125.80619)" fill="#6100ad"/>
<use xlink:href="#font_0_8" transform="matrix(9.36185,-3.4075025,-3.4075025,-9.36185,263.71574,126.22624)" fill="#6100ad"/>
<use xlink:href="#font_0_1" transform="matrix(9.36185,-3.4075025,-3.4075025,-9.36185,267.98167,122.61674)" fill="#6100ad"/>
<use xlink:href="#font_2_6" transform="matrix(9.36185,-3.4075025,-3.4075025,-9.36185,273.54136,123.12704)" fill="#6100ad"/>
<use xlink:href="#font_2_6" transform="matrix(9.36185,-3.4075025,-3.4075025,-9.36185,277.18217,121.80186)" fill="#6100ad"/>
<path transform="matrix(.1,0,0,-.1,0,236.33)" stroke-width="19.9255" stroke-linecap="butt" stroke-miterlimit="10" stroke-linejoin="miter" fill="none" stroke="#6100ad" d="M 644.254 1371.48 L 888.09 1460.23 "/>
<path transform="matrix(.1,0,0,-.1,0,236.33)" d="M 925.082 1473.7 C 920.137 1473.15 897.883 1472.16 882.914 1474.46 L 893.27 1446 C 903.262 1457.38 920.945 1470.93 925.082 1473.7 " fill="#6100ad"/>
<path transform="matrix(.1,0,0,-.1,0,236.33)" stroke-width="17.9323" stroke-linecap="butt" stroke-miterlimit="10" stroke-linejoin="miter" fill="none" stroke="#6100ad" d="M 925.082 1473.7 C 920.137 1473.15 897.883 1472.16 882.914 1474.46 L 893.27 1446 C 903.262 1457.38 920.945 1470.93 925.082 1473.7 Z "/>
<use xlink:href="#font_0_a" transform="matrix(9.36185,-3.4075025,-3.4075025,-9.36185,28.03666,124.92234)" fill="#6100ad"/>
<use xlink:href="#font_1_1" transform="matrix(6.5532758,-2.3852449,-2.3852449,-6.5532758,32.64559,124.78136)" fill="#6100ad"/>
<use xlink:href="#font_2_4" transform="matrix(9.36185,-3.4075025,-3.4075025,-9.36185,37.803064,119.830059)" fill="#6100ad"/>
<use xlink:href="#font_3_1" transform="matrix(9.36185,-3.4075025,-3.4075025,-9.36185,47.60737,115.2331)" fill="#6100ad"/>
<use xlink:href="#font_2_3" transform="matrix(9.36185,-3.4075025,-3.4075025,-9.36185,55.3638,114.84843)" fill="#6100ad"/>
<use xlink:href="#font_0_9" transform="matrix(9.36185,-3.4075025,-3.4075025,-9.36185,60.594186,115.23474)" fill="#6100ad"/>
<use xlink:href="#font_2_5" transform="matrix(9.36185,-3.4075025,-3.4075025,-9.36185,66.996997,113.26473)" fill="#6100ad"/>
<use xlink:href="#font_0_5" transform="matrix(9.36185,-3.4075025,-3.4075025,-9.36185,69.270618,109.90328)" fill="#6100ad"/>
<use xlink:href="#font_2_7" transform="matrix(9.36185,-3.4075025,-3.4075025,-9.36185,76.694599,107.96446)" fill="#6100ad"/>
<use xlink:href="#font_0_7" transform="matrix(9.36185,-3.4075025,-3.4075025,-9.36185,85.72752,103.91333)" fill="#6100ad"/>
<use xlink:href="#font_0_2" transform="matrix(9.36185,-3.4075025,-3.4075025,-9.36185,89.52095,102.5326)" fill="#6100ad"/>
<use xlink:href="#font_0_3" transform="matrix(9.36185,-3.4075025,-3.4075025,-9.36185,93.01382,101.14467)" fill="#6100ad"/>
<use xlink:href="#font_2_5" transform="matrix(9.36185,-3.4075025,-3.4075025,-9.36185,102.969638,100.1715)" fill="#6100ad"/>
<use xlink:href="#font_0_2" transform="matrix(9.36185,-3.4075025,-3.4075025,-9.36185,105.083988,96.86802)" fill="#6100ad"/>
<use xlink:href="#font_3_1" transform="matrix(9.36185,-3.4075025,-3.4075025,-9.36185,110.28619,92.41943)" fill="#6100ad"/>
<use xlink:href="#font_2_2" transform="matrix(9.36185,-3.4075025,-3.4075025,-9.36185,120.48744,91.1449)" fill="#6100ad"/>
<use xlink:href="#font_0_8" transform="matrix(9.36185,-3.4075025,-3.4075025,-9.36185,125.30553,91.56465)" fill="#6100ad"/>
<use xlink:href="#font_0_1" transform="matrix(9.36185,-3.4075025,-3.4075025,-9.36185,129.57144,87.955158)" fill="#6100ad"/>
<use xlink:href="#font_2_6" transform="matrix(9.36185,-3.4075025,-3.4075025,-9.36185,135.1303,88.46575)" fill="#6100ad"/>
<use xlink:href="#font_2_6" transform="matrix(9.36185,-3.4075025,-3.4075025,-9.36185,138.77112,87.14057)" fill="#6100ad"/>
<path transform="matrix(.1,0,0,-.1,0,236.33)" stroke-width="9.9628" stroke-linecap="butt" stroke-miterlimit="10" stroke-linejoin="miter" fill="none" stroke="#3b7d08" d="M 1703.36 217.738 C 1703.36 245.914 1681.89 260.941 1655.42 251.305 C 1628.95 241.672 1607.48 211.02 1607.48 182.844 C 1607.48 154.668 1628.95 139.641 1655.42 149.277 C 1681.89 158.914 1703.36 189.563 1703.36 217.738 Z M 1655.42 200.293 "/>
<clipPath id="cp4">
<path transform="matrix(.1,0,0,-.1,0,236.33)" d="M 1762 186.066 L 1548.93 108.516 L 1548.93 23.4883 L 1762 101.039 Z "/>
</clipPath>
<g clip-path="url(#cp4)">
<symbol id="pac5">
<g clip-path="url(#cp6)">
<path transform="matrix(.1,0,0,-.1,-.00390625,236.33391)" stroke-width="3.985" stroke-linecap="butt" stroke-miterlimit="10" stroke-linejoin="miter" fill="none" stroke="#3b7d08" d="M 0 0 L 30.8828 30.8828 "/>
</g>
</symbol>
<pattern id="pa5" patternUnits="userSpaceOnUse" patternContentUnits="userSpaceOnUse" x="0" y="0" width="2.98883" height="2.98883">
<clipPath id="cp7">
<path d="M -.99628 -.99628 L 3.9851 -.99628 L 3.9851 3.9851 L -.99628 3.9851 Z"/>
</clipPath>
<g clip-path="url(#cp7)">
<g transform="matrix(1,0,0,-1,.00390625,236.33391)">
<use x="0" y="0" xlink:href="#pac5"/>
<use x="0" y="-2.98883" xlink:href="#pac5"/>
<use x="-2.98883" y="0" xlink:href="#pac5"/>
<use x="-2.98883" y="-2.98883" xlink:href="#pac5"/>
</g>
</g>
</pattern>
<clipPath id="cp6">
<path transform="matrix(.1,0,0,-.1,-.00390625,236.33391)" d="M -10 -10 L -10 40 L 40 40 L 40 -10 Z "/>
</clipPath>
<rect transform="matrix(1,0,0,-1,-.00390625,236.33391)" fill="url(#pa5)" x="154.89691" y="2.3527375" width="21.306992" height="16.257767"/>
</g>
<path transform="matrix(.1,0,0,-.1,0,236.33)" stroke-width="9.9628" stroke-linecap="butt" stroke-miterlimit="10" stroke-linejoin="miter" fill="none" stroke="#3b7d08" d="M 2236.02 411.602 C 2236.02 439.777 2214.56 454.805 2188.08 445.168 C 2161.61 435.535 2140.14 404.883 2140.14 376.707 C 2140.14 348.535 2161.61 333.504 2188.08 343.141 C 2214.56 352.777 2236.02 383.426 2236.02 411.602 Z M 2188.08 394.156 "/>
<clipPath id="cp8">
<path transform="matrix(.1,0,0,-.1,0,236.33)" d="M 2294.75 379.973 L 2081.68 302.422 L 2081.68 217.395 L 2294.75 294.945 Z "/>
</clipPath>
<g clip-path="url(#cp8)">
<symbol id="pac9">
<g clip-path="url(#cp10)">
<path transform="matrix(.1,0,0,-.1,-.00390625,236.33391)" stroke-width="3.985" stroke-linecap="butt" stroke-miterlimit="10" stroke-linejoin="miter" fill="none" stroke="#3b7d08" d="M 0 0 L 30.8828 30.8828 "/>
</g>
</symbol>
<pattern id="pa9" patternUnits="userSpaceOnUse" patternContentUnits="userSpaceOnUse" x="0" y="0" width="2.98883" height="2.98883">
<clipPath id="cp11">
<path d="M -.99628 -.99628 L 3.9851 -.99628 L 3.9851 3.9851 L -.99628 3.9851 Z"/>
</clipPath>
<g clip-path="url(#cp11)">
<g transform="matrix(1,0,0,-1,.00390625,236.33391)">
<use x="0" y="0" xlink:href="#pac9"/>
<use x="0" y="-2.98883" xlink:href="#pac9"/>
<use x="-2.98883" y="0" xlink:href="#pac9"/>
<use x="-2.98883" y="-2.98883" xlink:href="#pac9"/>
</g>
</g>
</pattern>
<clipPath id="cp10">
<path transform="matrix(.1,0,0,-.1,-.00390625,236.33391)" d="M -10 -10 L -10 40 L 40 40 L 40 -10 Z "/>
</clipPath>
<rect transform="matrix(1,0,0,-1,-.00390625,236.33391)" fill="url(#pa9)" x="208.1719" y="21.743409" width="21.307007" height="16.257798"/>
</g>
<path transform="matrix(.1,0,0,-.1,0,236.33)" stroke-width="9.9628" stroke-linecap="butt" stroke-miterlimit="10" stroke-linejoin="miter" fill="none" stroke="#3b7d08" d="M 2768.68 605.465 C 2768.68 633.641 2747.22 648.668 2720.75 639.031 C 2694.27 629.398 2672.81 598.746 2672.81 570.57 C 2672.81 542.398 2694.27 527.367 2720.75 537.004 C 2747.22 546.641 2768.68 577.289 2768.68 605.465 Z M 2720.75 588.02 "/>
<clipPath id="cp12">
<path transform="matrix(.1,0,0,-.1,0,236.33)" d="M 2827.5 573.879 L 2614.43 496.328 L 2614.43 411.301 L 2827.5 488.852 Z "/>
</clipPath>
<g clip-path="url(#cp12)">
<symbol id="pac13">
<g clip-path="url(#cp14)">
<path transform="matrix(.1,0,0,-.1,-.00390625,236.33391)" stroke-width="3.985" stroke-linecap="butt" stroke-miterlimit="10" stroke-linejoin="miter" fill="none" stroke="#3b7d08" d="M 0 0 L 30.8828 30.8828 "/>
</g>
</symbol>
<pattern id="pa13" patternUnits="userSpaceOnUse" patternContentUnits="userSpaceOnUse" x="0" y="0" width="2.98883" height="2.98883">
<clipPath id="cp15">
<path d="M -.99628 -.99628 L 3.9851 -.99628 L 3.9851 3.9851 L -.99628 3.9851 Z"/>
</clipPath>
<g clip-path="url(#cp15)">
<g transform="matrix(1,0,0,-1,.00390625,236.33391)">
<use x="0" y="0" xlink:href="#pac13"/>
<use x="0" y="-2.98883" xlink:href="#pac13"/>
<use x="-2.98883" y="0" xlink:href="#pac13"/>
<use x="-2.98883" y="-2.98883" xlink:href="#pac13"/>
</g>
</g>
</pattern>
<clipPath id="cp14">
<path transform="matrix(.1,0,0,-.1,-.00390625,236.33391)" d="M -10 -10 L -10 40 L 40 40 L 40 -10 Z "/>
</clipPath>
<rect transform="matrix(1,0,0,-1,-.00390625,236.33391)" fill="url(#pa13)" x="261.4469" y="41.134004" width="21.307007" height="16.257813"/>
</g>
<path transform="matrix(.1,0,0,-.1,0,236.33)" stroke-width="9.9628" stroke-linecap="butt" stroke-miterlimit="10" stroke-linejoin="miter" fill="none" stroke="#3b7d08" d="M 1116.92 171.344 C 1116.92 199.52 1135.5 217.707 1158.43 211.965 C 1181.36 206.223 1199.95 178.727 1199.95 150.551 C 1199.95 122.379 1181.36 104.191 1158.43 109.934 C 1135.5 115.676 1116.92 143.172 1116.92 171.344 Z M 1158.43 160.949 "/>
<clipPath id="cp16">
<path transform="matrix(.1,0,0,-.1,0,236.33)" d="M 1066.14 131.211 L 1250.66 85.0039 L 1250.66 -.0234375 L 1066.14 46.1836 Z "/>
</clipPath>
<g clip-path="url(#cp16)">
<symbol id="pac17">
<g clip-path="url(#cp18)">
<path transform="matrix(.1,0,0,-.1,-.00390625,236.33391)" stroke-width="3.985" stroke-linecap="butt" stroke-miterlimit="10" stroke-linejoin="miter" fill="none" stroke="#3b7d08" d="M 0 0 L 30.8828 30.8828 "/>
</g>
</symbol>
<pattern id="pa17" patternUnits="userSpaceOnUse" patternContentUnits="userSpaceOnUse" x="0" y="0" width="2.98883" height="2.98883">
<clipPath id="cp19">
<path d="M -.99628 -.99628 L 3.9851 -.99628 L 3.9851 3.9851 L -.99628 3.9851 Z"/>
</clipPath>
<g clip-path="url(#cp19)">
<g transform="matrix(1,0,0,-1,.00390625,236.33391)">
<use x="0" y="0" xlink:href="#pac17"/>
<use x="0" y="-2.98883" xlink:href="#pac17"/>
<use x="-2.98883" y="0" xlink:href="#pac17"/>
<use x="-2.98883" y="-2.98883" xlink:href="#pac17"/>
</g>
</g>
</pattern>
<clipPath id="cp18">
<path transform="matrix(.1,0,0,-.1,-.00390625,236.33391)" d="M -10 -10 L -10 40 L 40 40 L 40 -10 Z "/>
</clipPath>
<rect transform="matrix(1,0,0,-1,-.00390625,236.33391)" fill="url(#pa17)" x="106.61791" y=".0015563965" width="18.451996" height="13.123444"/>
</g>
<path transform="matrix(.1,0,0,-.1,0,236.33)" stroke-width="9.9628" stroke-linecap="butt" stroke-miterlimit="10" stroke-linejoin="miter" fill="none" stroke="#3b7d08" d="M 655.625 286.867 C 655.625 315.043 674.211 333.227 697.141 327.484 C 720.066 321.742 738.656 294.25 738.656 266.074 C 738.656 237.898 720.066 219.715 697.141 225.457 C 674.211 231.199 655.625 258.691 655.625 286.867 Z M 697.141 276.473 "/>
<clipPath id="cp20">
<path transform="matrix(.1,0,0,-.1,0,236.33)" d="M 604.766 246.75 L 789.289 200.543 L 789.289 115.516 L 604.766 161.723 Z "/>
</clipPath>
<g clip-path="url(#cp20)">
<symbol id="pac21">
<g clip-path="url(#cp22)">
<path transform="matrix(.1,0,0,-.1,-.00390625,236.33391)" stroke-width="3.985" stroke-linecap="butt" stroke-miterlimit="10" stroke-linejoin="miter" fill="none" stroke="#3b7d08" d="M 0 0 L 30.8828 30.8828 "/>
</g>
</symbol>
<pattern id="pa21" patternUnits="userSpaceOnUse" patternContentUnits="userSpaceOnUse" x="0" y="0" width="2.98883" height="2.98883">
<clipPath id="cp23">
<path d="M -.99628 -.99628 L 3.9851 -.99628 L 3.9851 3.9851 L -.99628 3.9851 Z"/>
</clipPath>
<g clip-path="url(#cp23)">
<g transform="matrix(1,0,0,-1,.00390625,236.33391)">
<use x="0" y="0" xlink:href="#pac21"/>
<use x="0" y="-2.98883" xlink:href="#pac21"/>
<use x="-2.98883" y="0" xlink:href="#pac21"/>
<use x="-2.98883" y="-2.98883" xlink:href="#pac21"/>
</g>
</g>
</pattern>
<clipPath id="cp22">
<path transform="matrix(.1,0,0,-.1,-.00390625,236.33391)" d="M -10 -10 L -10 40 L 40 40 L 40 -10 Z "/>
</clipPath>
<rect transform="matrix(1,0,0,-1,-.00390625,236.33391)" fill="url(#pa21)" x="60.480508" y="11.555511" width="18.452301" height="13.123398"/>
</g>
<path transform="matrix(.1,0,0,-.1,0,236.33)" stroke-width="9.9628" stroke-linecap="butt" stroke-miterlimit="10" stroke-linejoin="miter" fill="none" stroke="#3b7d08" d="M 194.332 402.391 C 194.332 430.566 212.918 448.75 235.848 443.008 C 258.773 437.266 277.359 409.773 277.359 381.598 C 277.359 353.422 258.773 335.238 235.848 340.98 C 212.918 346.723 194.332 374.215 194.332 402.391 Z M 235.848 391.992 "/>
<clipPath id="cp24">
<path transform="matrix(.1,0,0,-.1,0,236.33)" d="M 143.395 362.293 L 327.914 316.082 L 327.914 231.055 L 143.395 277.262 Z "/>
</clipPath>
<g clip-path="url(#cp24)">
<symbol id="pac25">
<g clip-path="url(#cp26)">
<path transform="matrix(.1,0,0,-.1,-.00390625,236.33391)" stroke-width="3.985" stroke-linecap="butt" stroke-miterlimit="10" stroke-linejoin="miter" fill="none" stroke="#3b7d08" d="M 0 0 L 30.8828 30.8828 "/>
</g>
</symbol>
<pattern id="pa25" patternUnits="userSpaceOnUse" patternContentUnits="userSpaceOnUse" x="0" y="0" width="2.98883" height="2.98883">
<clipPath id="cp27">
<path d="M -.99628 -.99628 L 3.9851 -.99628 L 3.9851 3.9851 L -.99628 3.9851 Z"/>
</clipPath>
<g clip-path="url(#cp27)">
<g transform="matrix(1,0,0,-1,.00390625,236.33391)">
<use x="0" y="0" xlink:href="#pac25"/>
<use x="0" y="-2.98883" xlink:href="#pac25"/>
<use x="-2.98883" y="0" xlink:href="#pac25"/>
<use x="-2.98883" y="-2.98883" xlink:href="#pac25"/>
</g>
</g>
</pattern>
<clipPath id="cp26">
<path transform="matrix(.1,0,0,-.1,-.00390625,236.33391)" d="M -10 -10 L -10 40 L 40 40 L 40 -10 Z "/>
</clipPath>
<rect transform="matrix(1,0,0,-1,-.00390625,236.33391)" fill="url(#pa25)" x="14.343407" y="23.109406" width="18.4519" height="13.123795"/>
</g>
<use xlink:href="#font_0_4" transform="matrix(9.9626,0,0,-9.9626,204.82991,228.39545)" fill="#6100ad"/>
<symbol id="font_1_4">
<path d="M .10700001 .098000008 C .133 .124000009 .15100001 .143 .23600002 .21100001 C .25700004 .22800002 .33200003 .28800003 .361 .316 C .422 .37600003 .46000005 .42700003 .46000005 .439 C .46000005 .451 .44700004 .451 .44300003 .451 C .43400003 .451 .431 .449 .426 .441 C .39500005 .395 .374 .38 .35000003 .38 C .338 .38 .323 .381 .29299999 .41 C .259 .444 .237 .451 .214 .451 C .134 .451 .08 .364 .08 .334 C .08 .32500003 .09 .322 .097 .322 C .109 .322 .111 .32500003 .11500001 .336 C .13000001 .37100003 .186 .373 .202 .373 C .22500001 .373 .251 .367 .265 .364 C .32 .352 .32700003 .352 .352 .352 C .32600004 .32500003 .30800004 .307 .21300002 .23100002 C .135 .16900002 .10800001 .14400001 .089 .124000009 C .029 .065000008 0 .021000002 0 .012000001 C 0 0 .012999997 0 .016999998 0 C .027000003 0 .029 .0020000004 .034 .010000001 C .061000006 .048000006 .09200001 .071 .126 .071 C .13800001 .071 .15300001 .07 .18 .045 C .21100001 .015000001 .23100002 0 .263 0 C .37 0 .43700005 .12100001 .43700005 .15500002 C .43700005 .16700001 .426 .16800002 .42000003 .16800002 C .408 .16800002 .40600003 .16300002 .402 .15200001 C .38300003 .102000009 .324 .078 .27500005 .078 C .25200004 .078 .22700002 .083000008 .202 .089 C .156 .099 .148 .099 .13000001 .099 C .128 .099 .113000009 .099 .10700001 .098000008 Z "/>
</symbol>
<use xlink:href="#font_1_4" transform="matrix(6.9738,0,0,-6.9738,210.66953,229.84973)" fill="#6100ad"/>
<symbol id="font_2_1">
<path d="M .421 .34200005 C .421 .42200003 .416 .50200006 .381 .57600006 C .335 .67200008 .25300003 .688 .211 .688 C .15100001 .688 .07800001 .66200008 .037000006 .56900009 C .0050000029 .5 0 .42200003 0 .34200005 C 0 .26700003 .0040000008 .177 .045000007 .101 C .088 .020000002 .161 0 .21000001 0 C .264 0 .34 .021000002 .384 .116000007 C .416 .185 .421 .263 .421 .34200005 M .21000001 .022000002 C .171 .022000002 .112 .047000003 .094 .143 C .083000008 .20300001 .083000008 .29500003 .083000008 .35400004 C .083000008 .41800005 .083000008 .48400004 .091000009 .53800007 C .11 .65700009 .185 .66600009 .21000001 .66600009 C .243 .66600009 .30900003 .64800009 .328 .549 C .338 .49300004 .338 .41700004 .338 .35400004 C .338 .279 .338 .21100001 .32700003 .147 C .312 .052 .255 .022000002 .21000001 .022000002 Z "/>
</symbol>
<use xlink:href="#font_2_4" transform="matrix(9.9626,0,0,-9.9626,218.15984,226.96083)" fill="#6100ad"/>
<use xlink:href="#font_2_1" transform="matrix(9.9626,0,0,-9.9626,228.50882,228.50504)" fill="#6100ad"/>
</g>
</svg>
