<?xml version="1.0" encoding="UTF-8" standalone="no"?>
<!DOCTYPE svg PUBLIC "-//W3C//DTD SVG 1.1//EN" "http://www.w3.org/Graphics/SVG/1.1/DTD/svg11.dtd">
<svg xmlns="http://www.w3.org/2000/svg" xmlns:xlink="http://www.w3.org/1999/xlink" version="1.1" width="255.442pt" height="121.966pt" viewBox="0 0 255.442 121.966">
<g enable-background="new">
<path transform="matrix(1,0,0,-1,42.681,103.503009)" stroke-width=".99628" stroke-linecap="butt" stroke-miterlimit="10" stroke-linejoin="miter" fill="none" stroke="#1f6e96" d="M 0 0 L 170.08092 0 L 170.08092 85.04045 L 0 85.04045 L 0 0 "/>
<symbol id="font_0_1">
<path d="M .22700002 .008000001 C .22700002 .011000007 .22700002 .013000011 .21000003 .030000002 C .11 .13100001 .054000006 .296 .054000006 .5 C .054000006 .694 .10100001 .86100009 .21700002 .9790001 C .22700002 .98800006 .22700002 .99 .22700002 .99300006 C .22700002 .9990001 .22200002 1.001 .21800001 1.001 C .205 1.001 .12300001 .929 .074 .8310001 C .023000002 .73 0 .623 0 .5 C 0 .411 .013999999 .29200004 .066 .18500002 C .125 .06500001 .207 0 .21800001 0 C .22200002 0 .22700002 .002000004 .22700002 .008000001 Z "/>
</symbol>
<use xlink:href="#font_0_1" transform="matrix(11.9552,0,0,-11.9552,4.325609,118.82376)"/>
<symbol id="font_1_2">
<path d="M .44600005 .418 C .41400004 .412 .402 .388 .402 .36900003 C .402 .345 .42100004 .337 .43500004 .337 C .46500004 .337 .486 .363 .486 .39000003 C .486 .432 .43800003 .451 .39600004 .451 C .335 .451 .30100004 .391 .29200004 .372 C .26900003 .447 .20700002 .451 .18900001 .451 C .087 .451 .033000005 .32 .033000005 .298 C .033000005 .294 .037000006 .289 .044000005 .289 C .052000006 .289 .054 .29500003 .056000007 .299 C .09 .41 .157 .43100003 .18600002 .43100003 C .231 .43100003 .24000001 .389 .24000001 .365 C .24000001 .343 .23400003 .32 .222 .272 L .18800001 .135 C .17300001 .075 .14400001 .020000002 .091000009 .020000002 C .08600001 .020000002 .061 .020000002 .040000004 .033000005 C .076000008 .040000004 .08400001 .07 .08400001 .082 C .08400001 .102000009 .069000009 .114 .05 .114 C .026 .114 0 .093 0 .061000006 C 0 .019000002 .047000003 0 .09 0 C .13800001 0 .172 .038000004 .19300002 .079 C .20900002 .020000002 .259 0 .296 0 C .39800004 0 .45200003 .13100001 .45200003 .15300001 C .45200003 .158 .448 .16200002 .44200004 .16200002 C .43300004 .16200002 .432 .157 .42900003 .14900002 C .402 .061000006 .344 .020000002 .29900003 .020000002 C .26400004 .020000002 .245 .046000005 .245 .087000008 C .245 .109000008 .24900002 .125 .26500003 .19100002 L .3 .327 C .31500004 .387 .349 .43100003 .395 .43100003 C .397 .43100003 .425 .43100003 .44600005 .418 Z "/>
</symbol>
<use xlink:href="#font_1_2" transform="matrix(11.9552,0,0,-11.9552,8.041744,115.94256)"/>
<symbol id="font_2_1">
<path d="M .448 .34 C .448 .44700004 .437 .512 .404 .57600006 C .36 .66400006 .279 .68600007 .224 .68600007 C .09800001 .68600007 .052 .59200009 .038000004 .56400009 C .0020000004 .49100004 0 .39200003 0 .34 C 0 .27400003 .0030000024 .17300001 .051000008 .09300001 C .09700001 .019000002 .171 0 .224 0 C .272 0 .358 .0150000019 .40800003 .11400001 C .44500003 .186 .448 .275 .448 .34 M .224 .028 C .19 .028 .121 .044000005 .1 .149 C .08900001 .206 .08900001 .3 .08900001 .35200004 C .08900001 .421 .08900001 .49100004 .1 .54600009 C .121 .64800009 .199 .65800008 .224 .65800008 C .25800003 .65800008 .32700003 .64100006 .347 .5500001 C .359 .49500004 .359 .42000003 .359 .35200004 C .359 .293 .359 .20300001 .347 .147 C .326 .042000005 .257 .028 .224 .028 Z "/>
</symbol>
<use xlink:href="#font_2_1" transform="matrix(7.9701,0,0,-7.9701,14.685772,117.78338)"/>
<symbol id="font_1_1">
<path d="M .108 .18900001 C .108 .24700001 .08900001 .29000003 .048 .29000003 C .016000003 .29000003 0 .264 0 .24200002 C 0 .22 .015000001 .193 .049000004 .193 C .062 .193 .07300001 .197 .08200001 .206 C .084 .208 .085 .208 .086 .208 C .08800001 .208 .08800001 .194 .08800001 .18900001 C .08800001 .156 .08200001 .091 .024000004 .025999994 C .012999997 .013999999 .012999997 .0119999949 .012999997 .00999999 C .012999997 .004999995 .018 0 .023000002 0 C .031000004 0 .108 .074 .108 .18900001 Z "/>
</symbol>
<symbol id="font_1_3">
<path d="M .23600002 .09200001 C .20900002 .054000006 .17000002 .019999996 .121 .019999996 C .109000008 .019999996 .061000006 .022 .046000005 .068 C .049000004 .067 .053999999 .067 .056 .067 C .086 .067 .106 .093 .106 .116000007 C .106 .139 .087000008 .14700002 .072000008 .14700002 C .056 .14700002 .021 .135 .021 .086 C .021 .034999998 .064 0 .121 0 C .22100002 0 .322 .09200001 .35 .20300001 L .448 .59300008 C .449 .59800007 .451 .60400006 .451 .61 C .451 .62500008 .439 .63500007 .42400003 .63500007 C .41500003 .63500007 .39400003 .63100007 .386 .601 L .312 .307 C .307 .289 .307 .287 .299 .27600003 C .279 .24800001 .246 .21400002 .19800002 .21400002 C .14200002 .21400002 .13700001 .26900003 .13700001 .296 C .13700001 .35300002 .16400002 .43 .19100002 .50200006 C .20200002 .531 .20800002 .545 .20800002 .56500008 C .20800002 .60700008 .17800002 .64500007 .12900001 .64500007 C .037 .64500007 0 .5 0 .49200005 C 0 .48800005 .0040000008 .48300005 .011000002 .48300005 C .020000002 .48300005 .021 .48700006 .025 .50100007 C .049000004 .58500006 .087000008 .62500008 .12600002 .62500008 C .135 .62500008 .15200001 .62500008 .15200001 .592 C .15200001 .56600007 .14100002 .537 .12600002 .499 C .077 .36800004 .077 .33500005 .077 .31100003 C .077 .216 .14500001 .194 .19500003 .194 C .22400002 .194 .26 .20300001 .29500003 .24000001 L .296 .23900001 C .28100003 .18 .271 .141 .23600002 .09200001 Z "/>
</symbol>
<use xlink:href="#font_1_1" transform="matrix(11.9552,0,0,-11.9552,20.131102,118.130359)"/>
<use xlink:href="#font_1_3" transform="matrix(11.9552,0,0,-11.9552,24.662123,118.26186)"/>
<use xlink:href="#font_2_1" transform="matrix(7.9701,0,0,-7.9701,30.369774,117.78338)"/>
<symbol id="font_0_2">
<path d="M .227 .5 C .227 .57600006 .21700001 .70000007 .161 .816 C .102 .9360001 .02 1.001 .009 1.001 C .004999999 1.001 0 .9990001 0 .99300006 C 0 .99 0 .98800006 .017 .9710001 C .117 .87 .17300001 .70500007 .17300001 .50100007 C .17300001 .307 .126 .14000002 .010000002 .022 C 0 .013000011 0 .011000007 0 .008000001 C 0 .002000004 .004999999 0 .009 0 C .022000004 0 .104 .07200001 .153 .17000002 C .204 .272 .227 .38000003 .227 .5 Z "/>
</symbol>
<use xlink:href="#font_0_2" transform="matrix(11.9552,0,0,-11.9552,35.432535,118.82376)"/>
<use xlink:href="#font_0_1" transform="matrix(11.9552,0,0,-11.9552,217.28562,118.82376)"/>
<use xlink:href="#font_1_2" transform="matrix(11.9552,0,0,-11.9552,221.00075,115.94256)"/>
<symbol id="font_2_2">
<path d="M .21800001 .637 C .21800001 .66400006 .216 .665 .18900003 .665 C .14800002 .625 .09500001 .601 0 .601 L 0 .568 C .027000003 .568 .081 .568 .13900002 .595 L .13900002 .082 C .13900002 .045 .136 .033 .04100001 .033 L .0060000049 .033 L .0060000049 0 C .047000007 .003 .13300002 .003 .17800002 .003 C .223 .003 .31 .003 .351 0 L .351 .033 L .31600005 .033 C .221 .033 .21800001 .045 .21800001 .082 L .21800001 .637 Z "/>
</symbol>
<use xlink:href="#font_2_2" transform="matrix(7.9701,0,0,-7.9701,228.08313,117.616008)"/>
<use xlink:href="#font_1_1" transform="matrix(11.9552,0,0,-11.9552,233.0911,118.130359)"/>
<use xlink:href="#font_1_3" transform="matrix(11.9552,0,0,-11.9552,237.62212,118.26186)"/>
<use xlink:href="#font_2_1" transform="matrix(7.9701,0,0,-7.9701,243.32877,117.78338)"/>
<use xlink:href="#font_0_2" transform="matrix(11.9552,0,0,-11.9552,248.39253,118.82376)"/>
<use xlink:href="#font_0_1" transform="matrix(11.9552,0,0,-11.9552,217.28562,15.1217579)"/>
<use xlink:href="#font_1_2" transform="matrix(11.9552,0,0,-11.9552,221.00075,12.240554)"/>
<use xlink:href="#font_2_2" transform="matrix(7.9701,0,0,-7.9701,228.08313,13.914001)"/>
<use xlink:href="#font_1_1" transform="matrix(11.9552,0,0,-11.9552,233.0911,14.428356)"/>
<use xlink:href="#font_1_3" transform="matrix(11.9552,0,0,-11.9552,237.62212,14.559863)"/>
<use xlink:href="#font_2_2" transform="matrix(7.9701,0,0,-7.9701,243.76714,13.914001)"/>
<use xlink:href="#font_0_2" transform="matrix(11.9552,0,0,-11.9552,248.39253,15.1217579)"/>
<use xlink:href="#font_0_1" transform="matrix(11.9552,0,0,-11.9552,4.325609,15.1217579)"/>
<use xlink:href="#font_1_2" transform="matrix(11.9552,0,0,-11.9552,8.041744,12.240554)"/>
<use xlink:href="#font_2_1" transform="matrix(7.9701,0,0,-7.9701,14.685772,14.081373)"/>
<use xlink:href="#font_1_1" transform="matrix(11.9552,0,0,-11.9552,20.131102,14.428356)"/>
<use xlink:href="#font_1_3" transform="matrix(11.9552,0,0,-11.9552,24.662123,14.559863)"/>
<use xlink:href="#font_2_2" transform="matrix(7.9701,0,0,-7.9701,30.808129,13.914001)"/>
<use xlink:href="#font_0_2" transform="matrix(11.9552,0,0,-11.9552,35.432535,15.1217579)"/>
<path transform="matrix(1,0,0,-1,42.681,103.503009)" stroke-width="1.59404" stroke-linecap="butt" stroke-miterlimit="10" stroke-linejoin="miter" fill="none" stroke="#c90003" d="M 170.08092 14.17339 L 191.61324 14.17339 "/>
<path transform="matrix(1,0,0,-1,234.29424,89.32961)" d="M 6.81448 0 C 4.79533 .37857 1.51433 1.51433 -.75716 2.83936 L -.75716 -2.83936 C 1.51433 -1.51433 4.79533 -.37857 6.81448 0 " fill="#c90003"/>
<path transform="matrix(1,0,0,-1,42.681,103.503009)" stroke-width="1.59404" stroke-linecap="butt" stroke-miterlimit="10" stroke-linejoin="miter" fill="none" stroke="#c90003" d="M 170.08092 28.34679 L 191.61324 28.34679 "/>
<path transform="matrix(1,0,0,-1,234.29424,75.15622)" d="M 6.81448 0 C 4.79533 .37857 1.51433 1.51433 -.75716 2.83936 L -.75716 -2.83936 C 1.51433 -1.51433 4.79533 -.37857 6.81448 0 " fill="#c90003"/>
<path transform="matrix(1,0,0,-1,42.681,103.503009)" stroke-width="1.59404" stroke-linecap="butt" stroke-miterlimit="10" stroke-linejoin="miter" fill="none" stroke="#c90003" d="M 170.08092 42.52019 L 191.61324 42.52019 "/>
<path transform="matrix(1,0,0,-1,234.29424,60.982816)" d="M 6.81448 0 C 4.79533 .37857 1.51433 1.51433 -.75716 2.83936 L -.75716 -2.83936 C 1.51433 -1.51433 4.79533 -.37857 6.81448 0 " fill="#c90003"/>
<path transform="matrix(1,0,0,-1,42.681,103.503009)" stroke-width="1.59404" stroke-linecap="butt" stroke-miterlimit="10" stroke-linejoin="miter" fill="none" stroke="#c90003" d="M 170.08092 56.69359 L 191.61324 56.69359 "/>
<path transform="matrix(1,0,0,-1,234.29424,46.809419)" d="M 6.81448 0 C 4.79533 .37857 1.51433 1.51433 -.75716 2.83936 L -.75716 -2.83936 C 1.51433 -1.51433 4.79533 -.37857 6.81448 0 " fill="#c90003"/>
<path transform="matrix(1,0,0,-1,42.681,103.503009)" stroke-width="1.59404" stroke-linecap="butt" stroke-miterlimit="10" stroke-linejoin="miter" fill="none" stroke="#c90003" d="M 170.08092 70.86697 L 191.61324 70.86697 "/>
<path transform="matrix(1,0,0,-1,234.29424,32.63604)" d="M 6.81448 0 C 4.79533 .37857 1.51433 1.51433 -.75716 2.83936 L -.75716 -2.83936 C 1.51433 -1.51433 4.79533 -.37857 6.81448 0 " fill="#c90003"/>
<symbol id="font_3_1">
<path d="M .267 .38500003 L .435 .38500003 C .448 .38500003 .48400004 .38500003 .48400004 .419 C .48400004 .44300003 .463 .44300003 .444 .44300003 L .16400002 .44300003 C .14400001 .44300003 .105 .44300003 .061000006 .396 C .028000003 .36 0 .312 0 .306 C 0 .305 0 .296 .012 .296 C .020000002 .296 .022000002 .3 .028000003 .308 C .077 .38500003 .13400002 .38500003 .15500002 .38500003 L .23800002 .38500003 L .14000002 .064 C .136 .052 .13000001 .031000002 .13000001 .027 C .13000001 .016 .13700001 0 .15900001 0 C .19200002 0 .19700001 .028 .20000002 .043 L .267 .38500003 Z "/>
</symbol>
<use xlink:href="#font_3_1" transform="matrix(9.9626,0,0,-9.9626,242.633,62.500558)" fill="#c90003"/>
<symbol id="font_4_1">
<path d="M .46400006 .33900003 C .46400006 .44900004 .45100004 .528 .40500004 .598 C .374 .644 .31200005 .684 .23200001 .684 C 0 .684 0 .41100005 0 .33900003 C 0 .26700003 0 0 .23200001 0 C .46400006 0 .46400006 .26700003 .46400006 .33900003 M .23200001 .028 C .186 .028 .125 .055 .105000007 .13700001 C .091000009 .19600001 .091000009 .27800004 .091000009 .35200004 C .091000009 .42500005 .091000009 .50100007 .106000009 .556 C .127 .635 .19100002 .656 .23200001 .656 C .286 .656 .338 .623 .356 .565 C .37200005 .51100006 .37300004 .43900005 .37300004 .35200004 C .37300004 .27800004 .37300004 .20400001 .36 .141 C .34000004 .050000006 .272 .028 .23200001 .028 Z "/>
</symbol>
<use xlink:href="#font_4_1" transform="matrix(6.9738,0,0,-6.9738,247.08164,64.01448)" fill="#c90003"/>
<path transform="matrix(1,0,0,-1,42.681,103.503009)" stroke-width=".99628" stroke-linecap="butt" stroke-miterlimit="10" stroke-linejoin="miter" fill="none" stroke="#f58000" d="M 32.59882 -4.53549 C 32.59882 -2.18715 30.69514 -.28348 28.3468 -.28348 C 25.99846 -.28348 24.09479 -2.18715 24.09479 -4.53549 C 24.09479 -6.88383 25.99846 -8.78749 28.3468 -8.78749 C 30.69514 -8.78749 32.59882 -6.88383 32.59882 -4.53549 Z M 28.3468 -4.53549 "/>
<clipPath id="cp5">
<path transform="matrix(1,0,0,-1,42.681,103.503009)" d="M 17.00804 -17.49088 L 39.685564 -17.49088 L 39.685564 -8.986779 L 17.00804 -8.986779 Z "/>
</clipPath>
<g clip-path="url(#cp5)">
<symbol id="pac6" style="overflow:visible">
<path transform="matrix(1,0,0,-1,0,121.966)" stroke-width=".3985" stroke-linecap="butt" stroke-miterlimit="10" stroke-linejoin="miter" fill="none" stroke="#f58000" d="M 0 0 L 3.08846 3.08846 "/>
</symbol>
<pattern id="pa6" patternUnits="userSpaceOnUse" patternContentUnits="userSpaceOnUse" x="0" y="0" width="2.98883" height="2.98883">
<clipPath id="cp7">
<path d="M -.99628 -.99628 L 3.9851 -.99628 L 3.9851 3.9851 L -.99628 3.9851 Z"/>
</clipPath>
<g clip-path="url(#cp7)">
<g transform="matrix(1,0,0,-1,-0,121.966)">
<use x="0" y="0" xlink:href="#pac6"/>
<use x="0" y="-2.98883" xlink:href="#pac6"/>
<use x="-2.98883" y="0" xlink:href="#pac6"/>
<use x="-2.98883" y="-2.98883" xlink:href="#pac6"/>
</g>
</g>
</pattern>
<rect transform="matrix(1,0,0,-1,0,121.966)" fill="url(#pa6)" x="59.68904" y=".9721222" width="22.67752" height="8.504097"/>
</g>
<path transform="matrix(1,0,0,-1,42.681,103.503009)" stroke-width=".99628" stroke-linecap="butt" stroke-miterlimit="10" stroke-linejoin="miter" fill="none" stroke="#f58000" d="M 17.00809 -8.7875 L 39.68553 -8.7875 "/>
<path transform="matrix(1,0,0,-1,42.681,103.503009)" stroke-width=".99628" stroke-linecap="butt" stroke-miterlimit="10" stroke-linejoin="miter" fill="none" stroke="#f58000" d="M 89.29245 -4.53549 C 89.29245 -2.18715 87.38878 -.28348 85.04044 -.28348 C 82.6921 -.28348 80.78842 -2.18715 80.78842 -4.53549 C 80.78842 -6.88383 82.6921 -8.78749 85.04044 -8.78749 C 87.38878 -8.78749 89.29245 -6.88383 89.29245 -4.53549 Z M 85.04044 -4.53549 "/>
<clipPath id="cp8">
<path transform="matrix(1,0,0,-1,42.681,103.503009)" d="M 73.70168 -17.49088 L 96.3792 -17.49088 L 96.3792 -8.986779 L 73.70168 -8.986779 Z "/>
</clipPath>
<g clip-path="url(#cp8)">
<symbol id="pac9" style="overflow:visible">
<path transform="matrix(1,0,0,-1,0,121.966)" stroke-width=".3985" stroke-linecap="butt" stroke-miterlimit="10" stroke-linejoin="miter" fill="none" stroke="#f58000" d="M 0 0 L 3.08846 3.08846 "/>
</symbol>
<pattern id="pa9" patternUnits="userSpaceOnUse" patternContentUnits="userSpaceOnUse" x="0" y="0" width="2.98883" height="2.98883">
<clipPath id="cp10">
<path d="M -.99628 -.99628 L 3.9851 -.99628 L 3.9851 3.9851 L -.99628 3.9851 Z"/>
</clipPath>
<g clip-path="url(#cp10)">
<g transform="matrix(1,0,0,-1,-0,121.966)">
<use x="0" y="0" xlink:href="#pac9"/>
<use x="0" y="-2.98883" xlink:href="#pac9"/>
<use x="-2.98883" y="0" xlink:href="#pac9"/>
<use x="-2.98883" y="-2.98883" xlink:href="#pac9"/>
</g>
</g>
</pattern>
<rect transform="matrix(1,0,0,-1,0,121.966)" fill="url(#pa9)" x="116.38268" y=".9721222" width="22.677529" height="8.504097"/>
</g>
<path transform="matrix(1,0,0,-1,42.681,103.503009)" stroke-width=".99628" stroke-linecap="butt" stroke-miterlimit="10" stroke-linejoin="miter" fill="none" stroke="#f58000" d="M 73.70172 -8.7875 L 96.37917 -8.7875 "/>
<path transform="matrix(1,0,0,-1,42.681,103.503009)" stroke-width=".99628" stroke-linecap="butt" stroke-miterlimit="10" stroke-linejoin="miter" fill="none" stroke="#f58000" d="M 145.98609 -4.53549 C 145.98609 -2.18715 144.08242 -.28348 141.73407 -.28348 C 139.38573 -.28348 137.48207 -2.18715 137.48207 -4.53549 C 137.48207 -6.88383 139.38573 -8.78749 141.73407 -8.78749 C 144.08242 -8.78749 145.98609 -6.88383 145.98609 -4.53549 Z M 141.73407 -4.53549 "/>
<clipPath id="cp11">
<path transform="matrix(1,0,0,-1,42.681,103.503009)" d="M 130.39531 -17.49088 L 153.07283 -17.49088 L 153.07283 -8.986779 L 130.39531 -8.986779 Z "/>
</clipPath>
<g clip-path="url(#cp11)">
<symbol id="pac12" style="overflow:visible">
<path transform="matrix(1,0,0,-1,0,121.966)" stroke-width=".3985" stroke-linecap="butt" stroke-miterlimit="10" stroke-linejoin="miter" fill="none" stroke="#f58000" d="M 0 0 L 3.08846 3.08846 "/>
</symbol>
<pattern id="pa12" patternUnits="userSpaceOnUse" patternContentUnits="userSpaceOnUse" x="0" y="0" width="2.98883" height="2.98883">
<clipPath id="cp13">
<path d="M -.99628 -.99628 L 3.9851 -.99628 L 3.9851 3.9851 L -.99628 3.9851 Z"/>
</clipPath>
<g clip-path="url(#cp13)">
<g transform="matrix(1,0,0,-1,-0,121.966)">
<use x="0" y="0" xlink:href="#pac12"/>
<use x="0" y="-2.98883" xlink:href="#pac12"/>
<use x="-2.98883" y="0" xlink:href="#pac12"/>
<use x="-2.98883" y="-2.98883" xlink:href="#pac12"/>
</g>
</g>
</pattern>
<rect transform="matrix(1,0,0,-1,0,121.966)" fill="url(#pa12)" x="173.07631" y=".9721222" width="22.67752" height="8.504097"/>
</g>
<path transform="matrix(1,0,0,-1,42.681,103.503009)" stroke-width=".99628" stroke-linecap="butt" stroke-miterlimit="10" stroke-linejoin="miter" fill="none" stroke="#f58000" d="M 130.39536 -8.7875 L 153.0728 -8.7875 "/>
<path transform="matrix(1,0,0,-1,42.681,103.503009)" stroke-width=".99628" stroke-linecap="butt" stroke-miterlimit="10" stroke-linejoin="miter" fill="none" stroke="#f58000" d="M -.28348 28.3468 C -.28348 30.69514 -2.18715 32.59882 -4.53549 32.59882 C -6.88383 32.59882 -8.78749 30.69514 -8.78749 28.3468 C -8.78749 25.99846 -6.88383 24.09479 -4.53549 24.09479 C -2.18715 24.09479 -.28348 25.99846 -.28348 28.3468 Z M -4.53549 28.3468 "/>
<clipPath id="cp14">
<path transform="matrix(1,0,0,-1,42.681,103.503009)" d="M -17.49088 17.00804 L -8.986779 17.00804 L -8.986779 39.685564 L -17.49088 39.685564 Z "/>
</clipPath>
<g clip-path="url(#cp14)">
<symbol id="pac15" style="overflow:visible">
<path transform="matrix(1,0,0,-1,0,121.966)" stroke-width=".3985" stroke-linecap="butt" stroke-miterlimit="10" stroke-linejoin="miter" fill="none" stroke="#f58000" d="M 0 0 L 3.08846 3.08846 "/>
</symbol>
<pattern id="pa15" patternUnits="userSpaceOnUse" patternContentUnits="userSpaceOnUse" x="0" y="0" width="2.98883" height="2.98883">
<clipPath id="cp16">
<path d="M -.99628 -.99628 L 3.9851 -.99628 L 3.9851 3.9851 L -.99628 3.9851 Z"/>
</clipPath>
<g clip-path="url(#cp16)">
<g transform="matrix(1,0,0,-1,-0,121.966)">
<use x="0" y="0" xlink:href="#pac15"/>
<use x="0" y="-2.98883" xlink:href="#pac15"/>
<use x="-2.98883" y="0" xlink:href="#pac15"/>
<use x="-2.98883" y="-2.98883" xlink:href="#pac15"/>
</g>
</g>
</pattern>
<rect transform="matrix(1,0,0,-1,0,121.966)" fill="url(#pa15)" x="25.19012" y="35.47104" width="8.504101" height="22.67752"/>
</g>
<path transform="matrix(1,0,0,-1,42.681,103.503009)" stroke-width=".99628" stroke-linecap="butt" stroke-miterlimit="10" stroke-linejoin="miter" fill="none" stroke="#f58000" d="M -8.7875 17.00809 L -8.7875 39.68553 "/>
<path transform="matrix(1,0,0,-1,42.681,103.503009)" stroke-width=".99628" stroke-linecap="butt" stroke-miterlimit="10" stroke-linejoin="miter" fill="none" stroke="#f58000" d="M -.28348 56.69362 C -.28348 59.04195 -2.18715 60.94562 -4.53549 60.94562 C -6.88383 60.94562 -8.78749 59.04195 -8.78749 56.69362 C -8.78749 54.34528 -6.88383 52.4416 -4.53549 52.4416 C -2.18715 52.4416 -.28348 54.34528 -.28348 56.69362 Z M -4.53549 56.69362 "/>
<clipPath id="cp17">
<path transform="matrix(1,0,0,-1,42.681,103.503009)" d="M -17.49088 45.35486 L -8.986779 45.35486 L -8.986779 68.03238 L -17.49088 68.03238 Z "/>
</clipPath>
<g clip-path="url(#cp17)">
<symbol id="pac18" style="overflow:visible">
<path transform="matrix(1,0,0,-1,0,121.966)" stroke-width=".3985" stroke-linecap="butt" stroke-miterlimit="10" stroke-linejoin="miter" fill="none" stroke="#f58000" d="M 0 0 L 3.08846 3.08846 "/>
</symbol>
<pattern id="pa18" patternUnits="userSpaceOnUse" patternContentUnits="userSpaceOnUse" x="0" y="0" width="2.98883" height="2.98883">
<clipPath id="cp19">
<path d="M -.99628 -.99628 L 3.9851 -.99628 L 3.9851 3.9851 L -.99628 3.9851 Z"/>
</clipPath>
<g clip-path="url(#cp19)">
<g transform="matrix(1,0,0,-1,-0,121.966)">
<use x="0" y="0" xlink:href="#pac18"/>
<use x="0" y="-2.98883" xlink:href="#pac18"/>
<use x="-2.98883" y="0" xlink:href="#pac18"/>
<use x="-2.98883" y="-2.98883" xlink:href="#pac18"/>
</g>
</g>
</pattern>
<rect transform="matrix(1,0,0,-1,0,121.966)" fill="url(#pa18)" x="25.19012" y="63.817857" width="8.504101" height="22.67752"/>
</g>
<path transform="matrix(1,0,0,-1,42.681,103.503009)" stroke-width=".99628" stroke-linecap="butt" stroke-miterlimit="10" stroke-linejoin="miter" fill="none" stroke="#f58000" d="M -8.7875 45.3549 L -8.7875 68.03235 "/>
</g>
</svg>
