<?xml version="1.0" encoding="utf-8"?>
<!-- Generator: Adobe Illustrator 25.4.1, SVG Export Plug-In . SVG Version: 6.00 Build 0)  -->
<svg version="1.1" id="Layer_1" xmlns="http://www.w3.org/2000/svg" xmlns:xlink="http://www.w3.org/1999/xlink" x="0px" y="0px"
	 viewBox="0 0 303 195" style="enable-background:new 0 0 303 195;" xml:space="preserve">
<style type="text/css">
	.st0{font-family:'Times-Bold';}
	.st1{font-size:18px;}
	.st2{fill:none;stroke:#000000;stroke-width:0.45;stroke-miterlimit:10;}
	.st3{font-family:'Times-Roman';}
	.st4{font-size:12px;}
	.st5{font-size:9px;}
	
		.st6{clip-path:url(#SVGID_00000056399845265953307150000009246784436715821998_);fill:none;stroke:#000000;stroke-width:0.9;stroke-miterlimit:10;}
	.st7{fill-rule:evenodd;clip-rule:evenodd;}
	
		.st8{clip-path:url(#SVGID_00000099625145222154040860000000070134071425299360_);fill:none;stroke:#000000;stroke-width:0.9;stroke-miterlimit:10;}
	.st9{fill:none;stroke:#87CFFF;stroke-width:0.45;stroke-miterlimit:10;}
	.st10{letter-spacing:7;}
</style>
<text transform="matrix(1 0 0 1 288.7001 90.7999)" class="st0 st1">N</text>
<line class="st2" x1="9.7" y1="36.8" x2="0.7" y2="45.8"/>
<line class="st2" x1="9.7" y1="50.3" x2="0.7" y2="59.3"/>
<line class="st2" x1="9.7" y1="63.8" x2="0.7" y2="72.8"/>
<line class="st2" x1="9.7" y1="18.8" x2="9.7" y2="72.8"/>
<circle class="st2" cx="18.7" cy="44.72" r="10.08"/>
<line class="st2" x1="9.7" y1="113.3" x2="0.7" y2="122.3"/>
<line class="st2" x1="9.7" y1="126.8" x2="0.7" y2="135.8"/>
<line class="st2" x1="9.7" y1="140.3" x2="0.7" y2="149.3"/>
<line class="st2" x1="9.7" y1="153.8" x2="0.7" y2="162.8"/>
<line class="st2" x1="9.7" y1="108.8" x2="9.7" y2="162.8"/>
<circle class="st2" cx="18.7" cy="134.72" r="10.08"/>
<line class="st2" x1="180.7" y1="185.3" x2="189.7" y2="194.3"/>
<line class="st2" x1="194.2" y1="185.3" x2="203.2" y2="194.3"/>
<line class="st2" x1="207.7" y1="185.3" x2="216.7" y2="194.3"/>
<line class="st2" x1="221.2" y1="185.3" x2="230.2" y2="194.3"/>
<line class="st2" x1="176.2" y1="185.3" x2="230.2" y2="185.3"/>
<circle class="st2" cx="202.12" cy="176.3" r="10.08"/>
<line class="st2" x1="54.7" y1="185.3" x2="63.7" y2="194.3"/>
<line class="st2" x1="68.2" y1="185.3" x2="77.2" y2="194.3"/>
<line class="st2" x1="81.7" y1="185.3" x2="90.7" y2="194.3"/>
<line class="st2" x1="95.2" y1="185.3" x2="104.2" y2="194.3"/>
<line class="st2" x1="50.2" y1="185.3" x2="104.2" y2="185.3"/>
<circle class="st2" cx="76.12" cy="176.3" r="10.08"/>
<text transform="matrix(1 0 0 1 32.1997 176.2998)" class="st3 st4">, y</text>
<text transform="matrix(1 0 0 1 43 179.6602)" class="st3 st5">0</text>
<text transform="matrix(1 0 0 1 14.1997 176.2998)" class="st3 st4">(x</text>
<text transform="matrix(1 0 0 1 24.0996 179.6602)" class="st3 st5">0</text>
<text transform="matrix(1 0 0 1 50.1997 176.2998)" class="st3 st4">)</text>
<g>
	<defs>
		<path id="SVGID_1_" d="M283.36,48.5h10.74v-5.4h-10.74l9,2.7L283.36,48.5z M0,0v195h303V0H0z"/>
	</defs>
	<clipPath id="SVGID_00000067225734706771438150000000703068717199963299_">
		<use xlink:href="#SVGID_1_"  style="overflow:visible;"/>
	</clipPath>
	
		<line style="clip-path:url(#SVGID_00000067225734706771438150000000703068717199963299_);fill:none;stroke:#000000;stroke-width:0.9;stroke-miterlimit:10;" x1="248.2" y1="45.8" x2="293.2" y2="45.8"/>
</g>
<polyline class="st7" points="283.36,48.5 292.36,45.8 283.36,43.1 285.16,45.8 283.36,48.5 "/>
<polygon class="st2" points="283.36,48.5 292.36,45.8 283.36,43.1 285.16,45.8 "/>
<g>
	<defs>
		<path id="SVGID_00000093874494439762271530000009955166943027303565_" d="M283.36,138.5h10.74v-5.4h-10.74l9,2.7L283.36,138.5z
			 M0,0v195h303V0H0z"/>
	</defs>
	<clipPath id="SVGID_00000128486080912806032470000009163566718823052678_">
		<use xlink:href="#SVGID_00000093874494439762271530000009955166943027303565_"  style="overflow:visible;"/>
	</clipPath>
	
		<line style="clip-path:url(#SVGID_00000128486080912806032470000009163566718823052678_);fill:none;stroke:#000000;stroke-width:0.9;stroke-miterlimit:10;" x1="248.2" y1="135.8" x2="293.2" y2="135.8"/>
</g>
<polyline class="st7" points="283.36,138.5 292.36,135.8 283.36,133.1 285.16,135.8 283.36,138.5 "/>
<polygon class="st2" points="283.36,138.5 292.36,135.8 283.36,133.1 285.16,135.8 "/>
<rect x="32.2" y="18.8" class="st9" width="216" height="144"/>
<text transform="matrix(1 0 0 1 225.7001 9.7999)"><tspan x="0" y="0" class="st3 st4">(</tspan><tspan x="4" y="0" class="st3 st4 st10">x</tspan><tspan x="17.99" y="0" class="st3 st4">, y</tspan></text>
<text transform="matrix(1 0 0 1 235.5995 13.1602)" class="st3 st5">1</text>
<text transform="matrix(1 0 0 1 261.7001 9.7999)" class="st3 st4">)</text>
<text transform="matrix(1 0 0 1 254.4999 13.1602)" class="st3 st5">1</text>
<line class="st2" x1="9.7" y1="23.3" x2="0.7" y2="32.3"/>
</svg>
