<?xml version="1.0" encoding="UTF-8" standalone="no"?>
<!-- Created with Inkscape (http://www.inkscape.org/) -->

<svg
   xmlns:dc="http://purl.org/dc/elements/1.1/"
   xmlns:cc="http://creativecommons.org/ns#"
   xmlns:rdf="http://www.w3.org/1999/02/22-rdf-syntax-ns#"
   xmlns:svg="http://www.w3.org/2000/svg"
   xmlns="http://www.w3.org/2000/svg"
   xmlns:xlink="http://www.w3.org/1999/xlink"
   xmlns:sodipodi="http://sodipodi.sourceforge.net/DTD/sodipodi-0.dtd"
   xmlns:inkscape="http://www.inkscape.org/namespaces/inkscape"
   width="337.5"
   height="270"
   id="svg2"
   sodipodi:version="0.32"
   inkscape:version="0.48.1 r9760"
   version="1.0"
   sodipodi:docname="refinement2x.svg"
   inkscape:output_extension="org.inkscape.output.svg.inkscape"
   inkscape:export-filename="/home/brad/pubs/presentations/CIG/diagrams/workflow.png"
   inkscape:export-xdpi="90"
   inkscape:export-ydpi="90">
  <defs
     id="defs4">
    <marker
       inkscape:stockid="Arrow2Lend"
       orient="auto"
       refY="0"
       refX="0"
       id="Arrow2Lend"
       style="overflow:visible">
      <path
         id="path3450"
         style="font-size:12px;fill-rule:evenodd;stroke-width:0.625;stroke-linejoin:round"
         d="M 8.7185878,4.0337352 -2.2072895,0.01601326 8.7185884,-4.0017078 c -1.7454984,2.3720609 -1.7354408,5.6174519 -6e-7,8.035443 z"
         transform="matrix(-1.1,0,0,-1.1,-1.1,0)"
         inkscape:connector-curvature="0" />
    </marker>
    <marker
       inkscape:stockid="Arrow2Mend"
       orient="auto"
       refY="0"
       refX="0"
       id="Arrow2Mend"
       style="overflow:visible">
      <path
         id="path3456"
         style="font-size:12px;fill-rule:evenodd;stroke-width:0.625;stroke-linejoin:round"
         d="M 8.7185878,4.0337352 -2.2072895,0.01601326 8.7185884,-4.0017078 c -1.7454984,2.3720609 -1.7354408,5.6174519 -6e-7,8.035443 z"
         transform="scale(-0.6,-0.6)"
         inkscape:connector-curvature="0" />
    </marker>
    <marker
       inkscape:stockid="Arrow1Mend"
       orient="auto"
       refY="0"
       refX="0"
       id="Arrow1Mend"
       style="overflow:visible">
      <path
         id="path3438"
         d="M 0,0 5,-5 -12.5,0 5,5 0,0 z"
         style="fill-rule:evenodd;stroke:#000000;stroke-width:1pt;marker-start:none"
         transform="matrix(-0.4,0,0,-0.4,-4,0)"
         inkscape:connector-curvature="0" />
    </marker>
    <marker
       inkscape:stockid="Arrow1Lend"
       orient="auto"
       refY="0"
       refX="0"
       id="Arrow1Lend"
       style="overflow:visible">
      <path
         id="path3432"
         d="M 0,0 5,-5 -12.5,0 5,5 0,0 z"
         style="fill-rule:evenodd;stroke:#000000;stroke-width:1pt;marker-start:none"
         transform="matrix(-0.8,0,0,-0.8,-10,0)"
         inkscape:connector-curvature="0" />
    </marker>
    <inkscape:perspective
       sodipodi:type="inkscape:persp3d"
       inkscape:vp_x="0 : 526.18109 : 1"
       inkscape:vp_y="0 : 1000 : 0"
       inkscape:vp_z="744.09448 : 526.18109 : 1"
       inkscape:persp3d-origin="372.04724 : 350.78739 : 1"
       id="perspective10" />
  </defs>
  <sodipodi:namedview
     id="base"
     pagecolor="#ffffff"
     bordercolor="#666666"
     borderopacity="1.0"
     gridtolerance="10000"
     guidetolerance="10000"
     objecttolerance="10000"
     inkscape:pageopacity="0.0"
     inkscape:pageshadow="2"
     inkscape:zoom="0.81212121"
     inkscape:cx="303.16713"
     inkscape:cy="67.58551"
     inkscape:document-units="pt"
     inkscape:current-layer="layer1"
     showgrid="true"
     inkscape:object-nodes="true"
     inkscape:object-paths="true"
     inkscape:snap-bbox="true"
     inkscape:bbox-paths="true"
     inkscape:bbox-nodes="true"
     inkscape:window-width="1207"
     inkscape:window-height="853"
     inkscape:window-x="65"
     inkscape:window-y="65"
     inkscape:window-maximized="0"
     units="in">
    <inkscape:grid
       type="xygrid"
       id="grid2383"
       visible="true"
       enabled="true"
       empspacing="5"
       snapvisiblegridlinesonly="true"
       units="pt"
       spacingx="2pt"
       spacingy="2pt" />
  </sodipodi:namedview>
  <metadata
     id="metadata7">
    <rdf:RDF>
      <cc:Work
         rdf:about="">
        <dc:format>image/svg+xml</dc:format>
        <dc:type
           rdf:resource="http://purl.org/dc/dcmitype/StillImage" />
      </cc:Work>
    </rdf:RDF>
  </metadata>
  <g
     inkscape:groupmode="layer"
     id="layer2"
     inkscape:label="connections"
     style="display:inline"
     transform="translate(0,-495)">
    <g
       inkscape:groupmode="layer"
       id="layer5"
       inkscape:label="cells"
       style="display:inline">
      <path
         style="fill:none;stroke:#1e6e96;stroke-width:1.875;stroke-linecap:butt;stroke-linejoin:round;stroke-miterlimit:4;stroke-opacity:1;stroke-dasharray:none"
         d="m 62.5,7.5 -50,100 100,-50 -50,-50"
         id="path3142"
         inkscape:connector-curvature="0"
         sodipodi:nodetypes="cccc"
         transform="translate(0,495)" />
      <path
         style="fill:none;stroke:#6101af;stroke-width:1.25;stroke-linecap:butt;stroke-linejoin:round;stroke-miterlimit:4;stroke-opacity:1;stroke-dasharray:none"
         d="m 37.5,57.5 25,25 25,-50 -50,25"
         id="path3146"
         inkscape:connector-curvature="0"
         transform="translate(0,495)" />
      <path
         sodipodi:nodetypes="ccccc"
         inkscape:connector-curvature="0"
         id="path4028"
         d="m 12.5,727.5 110,0 -10,-100 -75,20 z"
         style="fill:none;stroke:#1e6e96;stroke-width:1.875;stroke-linecap:butt;stroke-linejoin:round;stroke-miterlimit:4;stroke-opacity:1;stroke-dasharray:none" />
      <path
         style="fill:none;stroke:#6101af;stroke-width:1px;stroke-linecap:butt;stroke-linejoin:miter;stroke-opacity:1"
         d="m 25,192.5 92.5,-10"
         id="path4040"
         inkscape:connector-curvature="0"
         transform="translate(0,495)"
         sodipodi:nodetypes="cc" />
      <path
         style="fill:none;stroke:#6101af;stroke-width:1px;stroke-linecap:butt;stroke-linejoin:miter;stroke-opacity:1"
         d="m 75,142.5 -5,90"
         id="path4042"
         inkscape:connector-curvature="0"
         transform="translate(0,495)"
         sodipodi:nodetypes="cc" />
      <path
         style="fill:none;stroke:#1e6e96;stroke-width:1.875;stroke-linecap:butt;stroke-linejoin:round;stroke-miterlimit:4;stroke-opacity:1;stroke-dasharray:none"
         d="m 234.99652,500 -50,75 60,37.5 -10,-112.5 50,62.5 -40,50"
         id="path4058"
         inkscape:connector-curvature="0"
         sodipodi:nodetypes="cccccc" />
      <path
         style="fill:none;stroke:#1e6e96;stroke-width:1.875;stroke-linecap:butt;stroke-linejoin:miter;stroke-miterlimit:4;stroke-opacity:1;stroke-dasharray:3.75, 3.75;stroke-dashoffset:0"
         d="m 184.99652,575 100,-12.5"
         id="path4066"
         inkscape:connector-curvature="0"
         sodipodi:nodetypes="cc" />
      <path
         inkscape:connector-curvature="0"
         id="path4076"
         d="m 214.99652,592.5 52.5,-7.5 -30,-17.5 -25,25"
         style="fill:none;stroke:#6101af;stroke-width:1.25;stroke-linecap:butt;stroke-linejoin:round;stroke-miterlimit:4;stroke-opacity:1;stroke-dasharray:3.75, 1.25;stroke-dashoffset:0"
         sodipodi:nodetypes="cccc" />
      <path
         sodipodi:nodetypes="cccc"
         style="fill:none;stroke:#6101af;stroke-width:1.25;stroke-linecap:butt;stroke-linejoin:round;stroke-miterlimit:4;stroke-opacity:1;stroke-dasharray:3.75, 1.25;stroke-dashoffset:0"
         d="m 209.99652,537.5 27.5,30 20,-40 -47.5,10"
         id="path4078"
         inkscape:connector-curvature="0" />
      <path
         inkscape:connector-curvature="0"
         id="path4080"
         d="m 239.99652,557.5 27.5,27.5 -10,-57.5 -17.5,30"
         style="fill:none;stroke:#6101af;stroke-width:1.25;stroke-linecap:butt;stroke-linejoin:round;stroke-miterlimit:4;stroke-opacity:1;stroke-dasharray:none;stroke-dashoffset:0"
         sodipodi:nodetypes="cccc" />
      <path
         sodipodi:nodetypes="cccc"
         style="fill:none;stroke:#6101af;stroke-width:1.25;stroke-linecap:butt;stroke-linejoin:round;stroke-miterlimit:4;stroke-opacity:1;stroke-dasharray:none;stroke-dashoffset:0"
         d="m 212.49652,592.5 27.5,-35 -30,-20 2.5,55"
         id="path4082"
         inkscape:connector-curvature="0" />
      <path
         style="fill:none;stroke:#6101af;stroke-width:1.25;stroke-linecap:butt;stroke-linejoin:miter;stroke-miterlimit:4;stroke-opacity:1;stroke-dasharray:3.75, 1.25;stroke-dashoffset:0"
         d="m 239.99652,557.5 -2.5,10"
         id="path4084"
         inkscape:connector-curvature="0" />
      <path
         style="fill:none;stroke:#1e6e96;stroke-width:1.875;stroke-linecap:butt;stroke-linejoin:round;stroke-miterlimit:4;stroke-opacity:1;stroke-dasharray:none"
         d="m 197.49652,737.5 75,0 0,-62.5 -75,0 z"
         id="path4098"
         inkscape:connector-curvature="0"
         sodipodi:nodetypes="ccccc" />
      <path
         style="fill:none;stroke:#1e6e96;stroke-width:1.875;stroke-linecap:butt;stroke-linejoin:miter;stroke-miterlimit:4;stroke-opacity:1;stroke-dasharray:none"
         d="m 197.49652,675 37.5,-25 75,0 0,62.5 -37.5,25"
         id="path4102"
         inkscape:connector-curvature="0" />
      <path
         style="fill:none;stroke:#1e6e96;stroke-width:1.875;stroke-linecap:butt;stroke-linejoin:miter;stroke-miterlimit:4;stroke-opacity:1;stroke-dasharray:none"
         d="m 272.49652,675 37.5,-25"
         id="path4104"
         inkscape:connector-curvature="0" />
      <path
         style="fill:none;stroke:#1e6e96;stroke-width:1.875;stroke-linecap:butt;stroke-linejoin:miter;stroke-miterlimit:4;stroke-opacity:1;stroke-dasharray:5.625, 1.875;stroke-dashoffset:0"
         d="m 234.99652,650 0,62.5 75,0"
         id="path4106"
         inkscape:connector-curvature="0" />
      <path
         style="fill:none;stroke:#1e6e96;stroke-width:1.875;stroke-linecap:butt;stroke-linejoin:miter;stroke-miterlimit:4;stroke-opacity:1;stroke-dasharray:5.625, 1.875;stroke-dashoffset:0"
         d="m 234.99652,712.5 -37.5,25"
         id="path4108"
         inkscape:connector-curvature="0" />
      <path
         style="fill:none;stroke:#6101af;stroke-width:1.25;stroke-linecap:butt;stroke-linejoin:miter;stroke-miterlimit:4;stroke-opacity:1;stroke-dasharray:none"
         d="m 197.49652,705 75,0 37.5,-25"
         id="path4110"
         inkscape:connector-curvature="0" />
      <path
         style="fill:none;stroke:#6101af;stroke-width:1.25;stroke-linecap:butt;stroke-linejoin:miter;stroke-miterlimit:4;stroke-opacity:1;stroke-dasharray:3.75, 1.25;stroke-dashoffset:0"
         d="m 309.99652,680 -75,0 -37.5,25"
         id="path4112"
         inkscape:connector-curvature="0" />
      <path
         style="fill:none;stroke:#6101af;stroke-width:1.25;stroke-linecap:butt;stroke-linejoin:miter;stroke-miterlimit:4;stroke-opacity:1;stroke-dasharray:3.75, 1.25;stroke-dashoffset:0"
         d="m 272.49652,650 0,62.5 -37.5,25"
         id="path4114"
         inkscape:connector-curvature="0" />
      <path
         style="fill:none;stroke:#6101af;stroke-width:1.25;stroke-linecap:butt;stroke-linejoin:miter;stroke-miterlimit:4;stroke-opacity:1;stroke-dasharray:3.75, 1.25;stroke-dashoffset:0"
         d="m 214.99652,662.5 0,62.5 75,0"
         id="path4118"
         inkscape:connector-curvature="0" />
      <path
         style="fill:none;stroke:#6101af;stroke-width:1.25;stroke-linecap:butt;stroke-linejoin:miter;stroke-miterlimit:4;stroke-opacity:1;stroke-dasharray:none"
         d="m 289.99652,725 0,-62.5 -75,0"
         id="path4120"
         inkscape:connector-curvature="0" />
      <path
         style="fill:none;stroke:#6101af;stroke-width:1.25;stroke-linecap:butt;stroke-linejoin:miter;stroke-miterlimit:4;stroke-opacity:1;stroke-dasharray:none"
         d="m 272.49652,650 -37.5,25 0,62.5"
         id="path4122"
         inkscape:connector-curvature="0" />
      <path
         style="fill:none;stroke:#6101af;stroke-width:1.25;stroke-linecap:butt;stroke-linejoin:miter;stroke-miterlimit:4;stroke-opacity:1;stroke-dasharray:3.75, 1.25;stroke-dashoffset:0"
         d="m 214.99652,692.5 75,0"
         id="path4124"
         inkscape:connector-curvature="0" />
      <path
         style="fill:none;stroke:#6101af;stroke-width:1.25;stroke-linecap:butt;stroke-linejoin:miter;stroke-miterlimit:4;stroke-opacity:1;stroke-dasharray:3.75, 1.25;stroke-dashoffset:0"
         d="m 272.49652,680 -37.5,25"
         id="path4126"
         inkscape:connector-curvature="0" />
    </g>
    <g
       inkscape:groupmode="layer"
       id="layer1"
       inkscape:label="nodes"
       style="display:inline">
      <path
         sodipodi:type="arc"
         style="fill:#f67f00;stroke:none;display:inline"
         id="path3150"
         sodipodi:cx="25"
         sodipodi:cy="5"
         sodipodi:rx="2.5"
         sodipodi:ry="2.5"
         d="m 27.5,5 a 2.5,2.5 0 1 1 -0.0035,-0.1317976 L 25,5 z"
         transform="translate(37.5,497.5)"
         sodipodi:start="0"
         sodipodi:end="6.2304418" />
      <path
         sodipodi:end="6.2304418"
         sodipodi:start="0"
         transform="translate(37.5,497.5)"
         d="m 27.5,5 a 2.5,2.5 0 1 1 -0.0035,-0.1317976 L 25,5 z"
         sodipodi:ry="2.5"
         sodipodi:rx="2.5"
         sodipodi:cy="5"
         sodipodi:cx="25"
         id="path3990"
         style="fill:#f67f00;stroke:none;display:inline"
         sodipodi:type="arc" />
      <use
         x="0"
         y="0"
         xlink:href="#path3990"
         id="use3992"
         transform="translate(50,50)"
         width="495"
         height="270" />
      <use
         x="0"
         y="0"
         xlink:href="#use3992"
         id="use3994"
         transform="translate(-100,50)"
         width="495"
         height="270" />
      <path
         sodipodi:type="arc"
         style="fill:#60cc0e;stroke:none"
         id="path3998"
         sodipodi:cx="27.5"
         sodipodi:cy="67.5"
         sodipodi:rx="2.5"
         sodipodi:ry="2.5"
         d="m 30,67.5 a 2.5,2.5 0 1 1 -0.0035,-0.131798 L 27.5,67.5 z"
         transform="translate(10,485)"
         sodipodi:start="0"
         sodipodi:end="6.2304418" />
      <path
         sodipodi:end="6.2304418"
         sodipodi:start="0"
         transform="translate(35,510)"
         d="m 30,67.5 a 2.5,2.5 0 1 1 -0.0035,-0.131798 L 27.5,67.5 z"
         sodipodi:ry="2.5"
         sodipodi:rx="2.5"
         sodipodi:cy="67.5"
         sodipodi:cx="27.5"
         id="path4000"
         style="fill:#60cc0e;stroke:none"
         sodipodi:type="arc" />
      <path
         sodipodi:end="6.2304418"
         sodipodi:start="0"
         transform="translate(60,460)"
         d="m 30,67.5 a 2.5,2.5 0 1 1 -0.0035,-0.131798 L 27.5,67.5 z"
         sodipodi:ry="2.5"
         sodipodi:rx="2.5"
         sodipodi:cy="67.5"
         sodipodi:cx="27.5"
         id="path4004"
         style="fill:#60cc0e;stroke:none"
         sodipodi:type="arc" />
      <use
         x="0"
         y="0"
         xlink:href="#use3994"
         id="use4030"
         transform="translate(25,45)"
         width="495"
         height="270" />
      <use
         height="270"
         width="495"
         transform="translate(100.00348,25.131798)"
         id="use4032"
         xlink:href="#use3994"
         y="0"
         x="0" />
      <use
         x="0"
         y="0"
         xlink:href="#use3994"
         id="use4034"
         transform="translate(110,125)"
         width="495"
         height="270" />
      <use
         height="270"
         width="495"
         transform="translate(0,125)"
         id="use4036"
         xlink:href="#use3994"
         y="0"
         x="0" />
      <path
         sodipodi:type="arc"
         style="fill:#60cc0e;stroke:none"
         id="path4046"
         sodipodi:cx="27.5"
         sodipodi:cy="67.5"
         sodipodi:rx="2.5"
         sodipodi:ry="2.5"
         d="m 30,67.5 a 2.5,2.5 0 1 1 -6.42e-4,-0.05665"
         transform="translate(47.5,570)"
         sodipodi:start="0"
         sodipodi:end="6.2605245"
         sodipodi:open="true"
         inkscape:transform-center-y="2.5" />
      <path
         sodipodi:end="6.2304418"
         sodipodi:start="0"
         transform="translate(90,610)"
         d="m 30,67.5 a 2.5,2.5 0 1 1 -0.0035,-0.131798 L 27.5,67.5 z"
         sodipodi:ry="2.5"
         sodipodi:rx="2.5"
         sodipodi:cy="67.5"
         sodipodi:cx="27.5"
         id="path4048"
         style="fill:#60cc0e;stroke:none"
         sodipodi:type="arc" />
      <path
         sodipodi:type="arc"
         style="fill:#60cc0e;stroke:none"
         id="path4050"
         sodipodi:cx="27.5"
         sodipodi:cy="67.5"
         sodipodi:rx="2.5"
         sodipodi:ry="2.5"
         d="m 30,67.5 a 2.5,2.5 0 1 1 -0.0035,-0.131798 L 27.5,67.5 z"
         transform="translate(45,615)"
         sodipodi:start="0"
         sodipodi:end="6.2304418" />
      <path
         sodipodi:end="6.2681659"
         sodipodi:start="0"
         transform="translate(-2.5,620)"
         d="m 30,67.5 a 2.5,2.5 0 1 1 -2.82e-4,-0.03755 L 27.5,67.5 z"
         sodipodi:ry="2.5"
         sodipodi:rx="2.5"
         sodipodi:cy="67.5"
         sodipodi:cx="27.5"
         id="path4052"
         style="fill:#60cc0e;stroke:none"
         sodipodi:type="arc" />
      <path
         sodipodi:type="arc"
         style="fill:#60cc0e;stroke:none"
         id="path4054"
         sodipodi:cx="27.5"
         sodipodi:cy="67.5"
         sodipodi:rx="2.5"
         sodipodi:ry="2.5"
         d="m 30,67.5 a 2.5,2.5 0 1 1 -0.0035,-0.131798 L 27.5,67.5 z"
         transform="translate(42.5,660)"
         sodipodi:start="0"
         sodipodi:end="6.2304418" />
      <path
         sodipodi:type="arc"
         style="fill:#f67f00;stroke:none;display:inline"
         id="path4068"
         sodipodi:cx="25"
         sodipodi:cy="5"
         sodipodi:rx="2.5"
         sodipodi:ry="2.5"
         d="m 27.5,5 a 2.5,2.5 0 1 1 -0.0035,-0.1317976 L 25,5 z"
         transform="translate(160,570.1318)"
         sodipodi:start="0"
         sodipodi:end="6.2304418" />
      <path
         sodipodi:end="6.2304418"
         sodipodi:start="0"
         transform="translate(209.99652,495)"
         d="m 27.5,5 a 2.5,2.5 0 1 1 -0.0035,-0.1317976 L 25,5 z"
         sodipodi:ry="2.5"
         sodipodi:rx="2.5"
         sodipodi:cy="5"
         sodipodi:cx="25"
         id="path4070"
         style="fill:#f67f00;stroke:none;display:inline"
         sodipodi:type="arc" />
      <path
         sodipodi:type="arc"
         style="fill:#f67f00;stroke:none;display:inline"
         id="path4072"
         sodipodi:cx="25"
         sodipodi:cy="5"
         sodipodi:rx="2.5"
         sodipodi:ry="2.5"
         d="m 27.5,5 a 2.5,2.5 0 1 1 -0.0035,-0.1317976 L 25,5 z"
         transform="translate(259.99652,557.5)"
         sodipodi:start="0"
         sodipodi:end="6.2304418" />
      <path
         sodipodi:end="6.2304418"
         sodipodi:start="0"
         transform="translate(219.99652,607.5)"
         d="m 27.5,5 a 2.5,2.5 0 1 1 -0.0035,-0.1317976 L 25,5 z"
         sodipodi:ry="2.5"
         sodipodi:rx="2.5"
         sodipodi:cy="5"
         sodipodi:cx="25"
         id="path4074"
         style="fill:#f67f00;stroke:none;display:inline"
         sodipodi:type="arc" />
      <path
         sodipodi:type="arc"
         style="fill:#60cc0e;stroke:none"
         id="path4086"
         sodipodi:cx="27.5"
         sodipodi:cy="67.5"
         sodipodi:rx="2.5"
         sodipodi:ry="2.5"
         d="m 30,67.5 a 2.5,2.5 0 1 1 -0.0035,-0.131798 L 27.5,67.5 z"
         transform="translate(182.49652,470)"
         sodipodi:start="0"
         sodipodi:end="6.2304418" />
      <path
         sodipodi:end="6.2304418"
         sodipodi:start="0"
         transform="translate(229.99652,460)"
         d="m 30,67.5 a 2.5,2.5 0 1 1 -0.0035,-0.131798 L 27.5,67.5 z"
         sodipodi:ry="2.5"
         sodipodi:rx="2.5"
         sodipodi:cy="67.5"
         sodipodi:cx="27.5"
         id="path4088"
         style="fill:#60cc0e;stroke:none"
         sodipodi:type="arc" />
      <path
         sodipodi:type="arc"
         style="fill:#60cc0e;stroke:none"
         id="path4090"
         sodipodi:cx="27.5"
         sodipodi:cy="67.5"
         sodipodi:rx="2.5"
         sodipodi:ry="2.5"
         d="m 30,67.5 a 2.5,2.5 0 1 1 -0.0035,-0.131798 L 27.5,67.5 z"
         transform="translate(239.99652,517.5)"
         sodipodi:start="0"
         sodipodi:end="6.2304418" />
      <path
         sodipodi:end="6.2304418"
         sodipodi:start="0"
         transform="translate(184.99652,525)"
         d="m 30,67.5 a 2.5,2.5 0 1 1 -0.0035,-0.131798 L 27.5,67.5 z"
         sodipodi:ry="2.5"
         sodipodi:rx="2.5"
         sodipodi:cy="67.5"
         sodipodi:cx="27.5"
         id="path4092"
         style="fill:#60cc0e;stroke:none"
         sodipodi:type="arc" />
      <path
         sodipodi:type="arc"
         style="fill:#60cc0e;stroke:none"
         id="path4094"
         sodipodi:cx="27.5"
         sodipodi:cy="67.5"
         sodipodi:rx="2.5"
         sodipodi:ry="2.5"
         d="m 30,67.5 a 2.5,2.5 0 1 1 -0.0035,-0.131798 L 27.5,67.5 z"
         transform="translate(209.99652,500)"
         sodipodi:start="0"
         sodipodi:end="6.2304418" />
      <path
         sodipodi:end="6.2304418"
         sodipodi:start="0"
         transform="translate(212.5,490.1318)"
         d="m 30,67.5 a 2.5,2.5 0 1 1 -0.0035,-0.131798 L 27.5,67.5 z"
         sodipodi:ry="2.5"
         sodipodi:rx="2.5"
         sodipodi:cy="67.5"
         sodipodi:cx="27.5"
         id="path4096"
         style="fill:#60cc0e;stroke:none"
         sodipodi:type="arc" />
      <path
         sodipodi:type="arc"
         style="fill:#f67f00;stroke:none;display:inline"
         id="path4128"
         sodipodi:cx="25"
         sodipodi:cy="5"
         sodipodi:rx="2.5"
         sodipodi:ry="2.5"
         d="m 27.5,5 a 2.5,2.5 0 1 1 -0.0035,-0.1317976 L 25,5 z"
         transform="translate(209.99652,645)"
         sodipodi:start="0"
         sodipodi:end="6.2304418" />
      <path
         sodipodi:end="6.2304418"
         sodipodi:start="0"
         transform="translate(285,645.1318)"
         d="m 27.5,5 a 2.5,2.5 0 1 1 -0.0035,-0.1317976 L 25,5 z"
         sodipodi:ry="2.5"
         sodipodi:rx="2.5"
         sodipodi:cy="5"
         sodipodi:cx="25"
         id="path4130"
         style="fill:#f67f00;stroke:none;display:inline"
         sodipodi:type="arc" />
      <path
         sodipodi:type="arc"
         style="fill:#f67f00;stroke:none;display:inline"
         id="path4132"
         sodipodi:cx="25"
         sodipodi:cy="5"
         sodipodi:rx="2.5"
         sodipodi:ry="2.5"
         d="m 27.5,5 a 2.5,2.5 0 1 1 -0.0035,-0.1317976 L 25,5 z"
         transform="translate(285,645.1318)"
         sodipodi:start="0"
         sodipodi:end="6.2304418" />
      <path
         sodipodi:end="6.2304418"
         sodipodi:start="0"
         transform="translate(284.99652,707.5)"
         d="m 27.5,5 a 2.5,2.5 0 1 1 -0.0035,-0.1317976 L 25,5 z"
         sodipodi:ry="2.5"
         sodipodi:rx="2.5"
         sodipodi:cy="5"
         sodipodi:cx="25"
         id="path4134"
         style="fill:#f67f00;stroke:none;display:inline"
         sodipodi:type="arc" />
      <path
         sodipodi:type="arc"
         style="fill:#f67f00;stroke:none;display:inline"
         id="path4136"
         sodipodi:cx="25"
         sodipodi:cy="5"
         sodipodi:rx="2.5"
         sodipodi:ry="2.5"
         d="m 27.5,5 a 2.5,2.5 0 1 1 -0.0035,-0.1317976 L 25,5 z"
         transform="translate(172.49652,732.5)"
         sodipodi:start="0"
         sodipodi:end="6.2304418" />
      <path
         sodipodi:end="6.2304418"
         sodipodi:start="0"
         transform="translate(210,707.6318)"
         d="m 27.5,5 a 2.5,2.5 0 1 1 -0.0035,-0.1317976 L 25,5 z"
         sodipodi:ry="2.5"
         sodipodi:rx="2.5"
         sodipodi:cy="5"
         sodipodi:cx="25"
         id="path4138"
         style="fill:#f67f00;stroke:none;display:inline"
         sodipodi:type="arc" />
      <path
         sodipodi:type="arc"
         style="fill:#f67f00;stroke:none;display:inline"
         id="path4140"
         sodipodi:cx="25"
         sodipodi:cy="5"
         sodipodi:rx="2.5"
         sodipodi:ry="2.5"
         d="m 27.5,5 a 2.5,2.5 0 1 1 -0.0035,-0.1317976 L 25,5 z"
         transform="translate(247.49652,732.5)"
         sodipodi:start="0"
         sodipodi:end="6.2304418" />
      <path
         sodipodi:end="6.2304418"
         sodipodi:start="0"
         transform="translate(247.49652,670)"
         d="m 27.5,5 a 2.5,2.5 0 1 1 -0.0035,-0.1317976 L 25,5 z"
         sodipodi:ry="2.5"
         sodipodi:rx="2.5"
         sodipodi:cy="5"
         sodipodi:cx="25"
         id="path4142"
         style="fill:#f67f00;stroke:none;display:inline"
         sodipodi:type="arc" />
      <path
         sodipodi:type="arc"
         style="fill:#f67f00;stroke:none;display:inline"
         id="path4144"
         sodipodi:cx="25"
         sodipodi:cy="5"
         sodipodi:rx="2.5"
         sodipodi:ry="2.5"
         d="m 27.5,5 a 2.5,2.5 0 1 1 -0.0035,-0.1317976 L 25,5 z"
         transform="translate(247.49652,670)"
         sodipodi:start="0"
         sodipodi:end="6.2304418" />
      <path
         sodipodi:end="6.2304418"
         sodipodi:start="0"
         transform="translate(172.49652,670)"
         d="m 27.5,5 a 2.5,2.5 0 1 1 -0.0035,-0.1317976 L 25,5 z"
         sodipodi:ry="2.5"
         sodipodi:rx="2.5"
         sodipodi:cy="5"
         sodipodi:cx="25"
         id="path4146"
         style="fill:#f67f00;stroke:none;display:inline"
         sodipodi:type="arc" />
      <path
         sodipodi:type="arc"
         style="fill:#60cc0e;stroke:none"
         id="path4148"
         sodipodi:cx="27.5"
         sodipodi:cy="67.5"
         sodipodi:rx="2.5"
         sodipodi:ry="2.5"
         d="m 30,67.5 a 2.5,2.5 0 1 1 -0.0035,-0.131798 L 27.5,67.5 z"
         transform="translate(187.49652,595)"
         sodipodi:start="0"
         sodipodi:end="6.2304418" />
      <path
         sodipodi:end="6.2304418"
         sodipodi:start="0"
         transform="translate(244.99652,582.5)"
         d="m 30,67.5 a 2.5,2.5 0 1 1 -0.0035,-0.131798 L 27.5,67.5 z"
         sodipodi:ry="2.5"
         sodipodi:rx="2.5"
         sodipodi:cy="67.5"
         sodipodi:cx="27.5"
         id="path4150"
         style="fill:#60cc0e;stroke:none"
         sodipodi:type="arc" />
      <path
         sodipodi:type="arc"
         style="fill:#60cc0e;stroke:none"
         id="path4152"
         sodipodi:cx="27.5"
         sodipodi:cy="67.5"
         sodipodi:rx="2.5"
         sodipodi:ry="2.5"
         d="m 30,67.5 a 2.5,2.5 0 1 1 -0.0035,-0.131798 L 27.5,67.5 z"
         transform="translate(262.49652,595)"
         sodipodi:start="0"
         sodipodi:end="6.2304418" />
      <path
         sodipodi:end="6.2304418"
         sodipodi:start="0"
         transform="translate(207.49652,607.5)"
         d="m 30,67.5 a 2.5,2.5 0 1 1 -0.0035,-0.131798 L 27.5,67.5 z"
         sodipodi:ry="2.5"
         sodipodi:rx="2.5"
         sodipodi:cy="67.5"
         sodipodi:cx="27.5"
         id="path4154"
         style="fill:#60cc0e;stroke:none"
         sodipodi:type="arc" />
      <path
         sodipodi:type="arc"
         style="fill:#60cc0e;stroke:none"
         id="path4156"
         sodipodi:cx="27.5"
         sodipodi:cy="67.5"
         sodipodi:rx="2.5"
         sodipodi:ry="2.5"
         d="m 30,67.5 a 2.5,2.5 0 1 1 -0.0035,-0.131798 L 27.5,67.5 z"
         transform="translate(227.49652,595)"
         sodipodi:start="0"
         sodipodi:end="6.2304418" />
      <path
         sodipodi:end="6.2304418"
         sodipodi:start="0"
         transform="translate(262.49652,625)"
         d="m 30,67.5 a 2.5,2.5 0 1 1 -0.0035,-0.131798 L 27.5,67.5 z"
         sodipodi:ry="2.5"
         sodipodi:rx="2.5"
         sodipodi:cy="67.5"
         sodipodi:cx="27.5"
         id="path4158"
         style="fill:#60cc0e;stroke:none"
         sodipodi:type="arc" />
      <path
         sodipodi:type="arc"
         style="fill:#60cc0e;stroke:none"
         id="path4160"
         sodipodi:cx="27.5"
         sodipodi:cy="67.5"
         sodipodi:rx="2.5"
         sodipodi:ry="2.5"
         d="m 30,67.5 a 2.5,2.5 0 1 1 -0.0035,-0.131798 L 27.5,67.5 z"
         transform="translate(282.5,612.6318)"
         sodipodi:start="0"
         sodipodi:end="6.2304418" />
      <path
         sodipodi:end="6.2304418"
         sodipodi:start="0"
         transform="translate(262.49652,657.5)"
         d="m 30,67.5 a 2.5,2.5 0 1 1 -0.0035,-0.131798 L 27.5,67.5 z"
         sodipodi:ry="2.5"
         sodipodi:rx="2.5"
         sodipodi:cy="67.5"
         sodipodi:cx="27.5"
         id="path4162"
         style="fill:#60cc0e;stroke:none"
         sodipodi:type="arc" />
      <path
         sodipodi:type="arc"
         style="fill:#60cc0e;stroke:none"
         id="path4164"
         sodipodi:cx="27.5"
         sodipodi:cy="67.5"
         sodipodi:rx="2.5"
         sodipodi:ry="2.5"
         d="m 30,67.5 a 2.5,2.5 0 1 1 -0.0035,-0.131798 L 27.5,67.5 z"
         transform="translate(244.99652,637.5)"
         sodipodi:start="0"
         sodipodi:end="6.2304418" />
      <path
         sodipodi:end="6.2304418"
         sodipodi:start="0"
         transform="translate(207.49652,670)"
         d="m 30,67.5 a 2.5,2.5 0 1 1 -0.0035,-0.131798 L 27.5,67.5 z"
         sodipodi:ry="2.5"
         sodipodi:rx="2.5"
         sodipodi:cy="67.5"
         sodipodi:cx="27.5"
         id="path4166"
         style="fill:#60cc0e;stroke:none"
         sodipodi:type="arc" />
      <path
         sodipodi:type="arc"
         style="fill:#60cc0e;stroke:none"
         id="path4168"
         sodipodi:cx="27.5"
         sodipodi:cy="67.5"
         sodipodi:rx="2.5"
         sodipodi:ry="2.5"
         d="m 30,67.5 a 2.5,2.5 0 1 1 -0.0035,-0.131798 L 27.5,67.5 z"
         transform="translate(224.99652,625)"
         sodipodi:start="0"
         sodipodi:end="6.2304418" />
      <path
         sodipodi:end="6.2304418"
         sodipodi:start="0"
         transform="translate(169.99652,637.5)"
         d="m 30,67.5 a 2.5,2.5 0 1 1 -0.0035,-0.131798 L 27.5,67.5 z"
         sodipodi:ry="2.5"
         sodipodi:rx="2.5"
         sodipodi:cy="67.5"
         sodipodi:cx="27.5"
         id="path4170"
         style="fill:#60cc0e;stroke:none"
         sodipodi:type="arc" />
      <path
         sodipodi:type="arc"
         style="fill:#60cc0e;stroke:none"
         id="path4172"
         sodipodi:cx="27.5"
         sodipodi:cy="67.5"
         sodipodi:rx="2.5"
         sodipodi:ry="2.5"
         d="m 30,67.5 a 2.5,2.5 0 1 1 -0.0035,-0.131798 L 27.5,67.5 z"
         transform="translate(187.49652,657.5)"
         sodipodi:start="0"
         sodipodi:end="6.2304418" />
      <path
         sodipodi:end="6.2304418"
         sodipodi:start="0"
         transform="translate(187.49652,625)"
         d="m 30,67.5 a 2.5,2.5 0 1 1 -0.0035,-0.131798 L 27.5,67.5 z"
         sodipodi:ry="2.5"
         sodipodi:rx="2.5"
         sodipodi:cy="67.5"
         sodipodi:cx="27.5"
         id="path4174"
         style="fill:#60cc0e;stroke:none"
         sodipodi:type="arc" />
      <path
         sodipodi:type="arc"
         style="fill:#60cc0e;stroke:none"
         id="path4176"
         sodipodi:cx="27.5"
         sodipodi:cy="67.5"
         sodipodi:rx="2.5"
         sodipodi:ry="2.5"
         d="m 30,67.5 a 2.5,2.5 0 1 1 -0.0035,-0.131798 L 27.5,67.5 z"
         transform="translate(207.5,612.6318)"
         sodipodi:start="0"
         sodipodi:end="6.2304418" />
      <path
         sodipodi:end="6.2304418"
         sodipodi:start="0"
         transform="translate(207.49652,637.5)"
         d="m 30,67.5 a 2.5,2.5 0 1 1 -0.0035,-0.131798 L 27.5,67.5 z"
         sodipodi:ry="2.5"
         sodipodi:rx="2.5"
         sodipodi:cy="67.5"
         sodipodi:cx="27.5"
         id="path4178"
         style="fill:#60cc0e;stroke:none"
         sodipodi:type="arc" />
      <path
         sodipodi:type="arc"
         style="fill:#60cc0e;stroke:none"
         id="path4180"
         sodipodi:cx="27.5"
         sodipodi:cy="67.5"
         sodipodi:rx="2.5"
         sodipodi:ry="2.5"
         d="m 30,67.5 a 2.5,2.5 0 1 1 -0.0035,-0.131798 L 27.5,67.5 z"
         transform="translate(245,612.6318)"
         sodipodi:start="0"
         sodipodi:end="6.2304418" />
      <path
         sodipodi:end="6.2304418"
         sodipodi:start="0"
         transform="translate(244.99652,645)"
         d="m 30,67.5 a 2.5,2.5 0 1 1 -0.0035,-0.131798 L 27.5,67.5 z"
         sodipodi:ry="2.5"
         sodipodi:rx="2.5"
         sodipodi:cy="67.5"
         sodipodi:cx="27.5"
         id="path4182"
         style="fill:#60cc0e;stroke:none"
         sodipodi:type="arc" />
      <path
         sodipodi:type="arc"
         style="fill:#60cc0e;stroke:none"
         id="path4184"
         sodipodi:cx="27.5"
         sodipodi:cy="67.5"
         sodipodi:rx="2.5"
         sodipodi:ry="2.5"
         d="m 30,67.5 a 2.5,2.5 0 1 1 -0.0035,-0.131798 L 27.5,67.5 z"
         transform="translate(227.49652,657.5)"
         sodipodi:start="0"
         sodipodi:end="6.2304418" />
    </g>
  </g>
</svg>
