<svg xmlns="http://www.w3.org/2000/svg" xmlns:xlink="http://www.w3.org/1999/xlink" version="1.1" width="352.424" height="243.428" viewBox="0 0 352.424 243.428">
<defs>
<path id="font_1_2" d="M.35499574 .27201844 .5309906 .54003909H.36299134L.27598573 .37701417 .18798828 .54003909H.019989014L.19599915 .27201844 .015991211 0H.18399048L.27598573 .16799927 .36698915 0H.5349884L.35499574 .27201844Z"/>
<path id="font_2_3" d="M.2749939 .7089844C.20899964 .7089844 .14898682 .6799774 .11199951 .63098147 .06599426 .5689392 .042999269 .4738617 .042999269 .34277345 .042999269 .10359192 .12298584-.0234375 .2749939-.0234375 .4249878-.0234375 .5069885 .10359192 .5069885 .33676148 .5069885 .47486878 .4850006 .5669403 .43798829 .63098147 .40098573 .68096926 .34199525 .7089844 .2749939 .7089844M.2749939 .63098147C.36999513 .63098147 .4169922 .5349121 .4169922 .34477235 .4169922 .14363098 .37098695 .049560548 .272995 .049560548 .17999268 .049560548 .1329956 .14762879 .1329956 .34176637 .1329956 .53590396 .17999268 .63098147 .2749939 .63098147Z"/>
<path id="font_2_2" d="M.19099427 .10398865H.08699036V0H.19099427V.10398865Z"/>
<path id="font_2_16" d="M.14099121 .7285156H.057998659V0H.14099121V.20385742L.22200012 .28381349 .39898683 0H.5019989L.28799439 .34277345 .46998597 .52363589H.36299134L.14099121 .30178834V.7285156Z"/>
<path id="font_2_18" d="M.069992069 .52441409V0H.1539917V.32925416C.1539917 .40504457 .20899964 .4660492 .2769928 .4660492 .33898927 .4660492 .37399293 .4280548 .37399293 .3610382V0H.45799256V.32904054C.45799256 .40504457 .5130005 .4660492 .58099368 .4660492 .6419983 .4660492 .6779938 .42704774 .6779938 .3610382V0H.7619934V.3930359C.7619934 .48706056 .70799258 .5390625 .6100006 .5390625 .5399933 .5390625 .49798585 .51805117 .44898988 .4590454 .41799928 .5150604 .37599183 .5390625 .30799867 .5390625 .23799134 .5390625 .19198609 .5130615 .14698792 .45005799V.52441409H.069992069Z"/>
<path id="font_2_4" d="M.5059967 .08699036H.1329956C.14199829 .14498902 .17399597 .18199158 .26098634 .23298645L.36099244 .2869873C.45999146 .34098817 .5109863 .4139862 .5109863 .50097659 .5109863 .5599823 .4869995 .614975 .44499208 .65296939 .40299989 .690979 .35099793 .7089844 .28399659 .7089844 .19400025 .7089844 .1269989 .67697146 .08799744 .6169739 .06298828 .5789795 .051986696 .53497317 .049987794 .46298219H.13798523C.14099121 .5109863 .14698792 .539978 .15899658 .562973 .18199158 .6059723 .22799683 .63197329 .2809906 .63197329 .36099244 .63197329 .42099 .5749817 .42099 .49897767 .42099 .4429779 .3880005 .394989 .32499696 .35897828L.23298645 .30699159C.084991458 .22299195 .041992189 .1559906 .033996583 0H.5059967V.08699036Z"/>
<path id="font_1_1" d="M.3939972 .54003909 .28199769 .1468811 .16299439 .54003909H.008987427L.20999146-.02218628V-.0231781-.026184082C.20999146-.07720947 .17199707-.11621094 .12298584-.11621094 .11199951-.11621094 .10398865-.115219119 .085998538-.11021423V-.21522522C.10699463-.21821594 .11898804-.21922302 .13598633-.21922302 .17098999-.21922302 .21299744-.21221924 .23699951-.20222473 .27598573-.18621826 .29299928-.16322327 .31599427-.09921265L.5379944 .54003909H.3939972Z"/>
<path id="font_2_1" d="M.28399659 .31222535H.04598999V.24023438H.28399659V.31222535Z"/>
<path id="font_2_9" d="M.47099305 .34791566C.46699525 .39897157 .45599366 .4320221 .43598939 .46105958 .3999939 .51005557 .33699037 .5390625 .2639923 .5390625 .12298584 .5390625 .0309906 .4270172 .0309906 .25279237 .0309906 .08358765 .12098694-.0234375 .2630005-.0234375 .3880005-.0234375 .46699525 .05155945 .47698976 .17970276H.3929901C.3789978 .09561157 .33599855 .05355835 .2649994 .05355835 .17298889 .05355835 .117996219 .12864685 .117996219 .25279237 .117996219 .3839569 .17199707 .4620514 .2630005 .4620514 .33299256 .4620514 .3769989 .42100526 .3869934 .34791566H.47099305Z"/>
<path id="font_2_22" d="M.068984989 .52441409V0H.15299988V.27220155C.15299988 .34727479 .17199707 .39631654 .21199036 .42533876 .23799134 .4443512 .2630005 .45036317 .32099916 .45135499V.5364075C.30699159 .5380554 .2999878 .5390625 .2889862 .5390625 .23498535 .5390625 .19400025 .50704959 .1459961 .42904664V.52441409H.068984989Z"/>
<path id="font_2_25" d="M.48199464-.00044250489V.52441409H.39898683V.22688294C.39898683 .11968994 .34298707 .049560548 .2559967 .049560548 .18998719 .049560548 .147995 .08963013 .147995 .15275574V.52441409H.06498718V.11968994C.06498718 .032562257 .12998963-.0234375 .23199463-.0234375 .30899049-.0234375 .35798646 .0035552979 .40699769 .07260132V-.00044250489H.48199464Z"/>
<path id="font_2_23" d="M.43798829 .37794496C.43699647 .48104859 .36898805 .5390625 .24798584 .5390625 .12599182 .5390625 .04699707 .47605897 .04699707 .37895204 .04699707 .29685975 .08898926 .25779725 .21299744 .22776795L.29100038 .20874024C.34899903 .19473267 .37199403 .17370606 .37199403 .13565064 .37199403 .08659363 .32299806 .05355835 .25 .05355835 .20498657 .05355835 .16699219 .0665741 .1459961 .08859253 .1329956 .10362244 .1269989 .118637088 .12199402 .15568543H.033996583C.037994386 .034561159 .10598755-.0234375 .24299622-.0234375 .375-.0234375 .45899964 .041549684 .45899964 .14266968 .45899964 .22076416 .4149933 .2638092 .31098939 .28884889L.23098755 .30786134C.16299439 .32388307 .13398743 .34591676 .13398743 .3829651 .13398743 .431015 .1769867 .4620514 .24499512 .4620514 .31199647 .4620514 .34799195 .43301393 .34999085 .37794496H.43798829Z"/>
<path id="font_2_24" d="M.2539978 .52441409H.16799927V.66841128H.084991458V.52441409H.01399231V.45640565H.084991458V.059570314C.084991458 .0065612795 .12098694-.0234375 .18598938-.0234375 .20599365-.0234375 .22599793-.021438599 .2539978-.016448975V.05355835C.24299622 .05055237 .22999573 .049560548 .21398926 .049560548 .17799378 .049560548 .16799927 .059570314 .16799927 .09664917V.45640565H.2539978V.52441409Z"/>
<path id="font_2_7" d="M.5349884 .048553468C.526001 .046554567 .5219879 .046554567 .5169983 .046554567 .48799134 .046554567 .47200013 .061569215 .47200013 .08760071V.39598084C.47200013 .48905946 .4039917 .5390625 .2749939 .5390625 .19898987 .5390625 .13598633 .5170593 .100997928 .47805787 .07699585 .45103456 .066986087 .42100526 .06498718 .36894227H.14898682C.1559906 .43301393 .19400025 .4620514 .27198792 .4620514 .34700013 .4620514 .3889923 .434021 .3889923 .3839569V.36193849C.3889923 .32688905 .36799623 .3118744 .3019867 .30386354 .18399048 .28884889 .1659851 .28483583 .13398743 .27182008 .07299805 .24679566 .041992189 .19973755 .041992189 .13165283 .041992189 .03656006 .10798645-.0234375 .21398926-.0234375 .27999879-.0234375 .33299256-.00044250489 .3919983 .05355835 .397995 .0005493164 .42399598-.0234375 .47799684-.0234375 .49499513-.0234375 .5079956-.021438599 .5349884-.014450073V.048553468M.3889923 .16468811C.3889923 .13665772 .3809967 .119644168 .35598756 .09661865 .32199098 .06556702 .2809906 .049560548 .23199463 .049560548 .16699219 .049560548 .1289978 .080596927 .1289978 .13365174 .1289978 .1887207 .1659851 .2167511 .25498963 .22976685 .34298707 .24179077 .36099244 .24578858 .3889923 .25880433V.16468811Z"/>
<path id="font_2_13" d="M.4119873 .52404788V.44804383C.36999513 .51005557 .31900025 .5390625 .2519989 .5390625 .11898804 .5390625 .0289917 .42300416 .0289917 .25279237 .0289917 .16668701 .051986696 .09660339 .09498596 .046554567 .13398743 .0025482178 .18998719-.0234375 .24499512-.0234375 .31098939-.0234375 .35699464 .004562378 .4039917 .0705719V.043548585C.4039917-.027450562 .394989-.07044983 .37399293-.09944153 .35198976-.13044739 .30899049-.1484375 .2579956-.1484375 .21998596-.1484375 .18598938-.138443 .16299439-.12043762 .14399719-.10543823 .13598633-.09144592 .1309967-.060440065H.04598999C.054992677-.15943909 .13198853-.21844483 .25498963-.21844483 .33299256-.21844483 .3999939-.19345093 .43399049-.15144348 .47399903-.10343933 .4889984-.03744507 .4889984 .08560181V.52404788H.4119873M.26098634 .4620514C.35099793 .4620514 .4039917 .3859558 .4039917 .25480653 .4039917 .12965393 .34999085 .05355835 .2619934 .05355835 .17098999 .05355835 .115997318 .13064575 .115997318 .25779725 .115997318 .3839569 .17199707 .4620514 .26098634 .4620514Z"/>
<path id="font_2_11" d="M.5130005 .23374939C.5130005 .31376649 .5069885 .36186219 .49198915 .40093995 .45799256 .48706056 .37799073 .5390625 .27999879 .5390625 .13398743 .5390625 .039993287 .4269867 .039993287 .25474549 .039993287 .08258057 .1309967-.0234375 .27799989-.0234375 .397995-.0234375 .48098756 .044555665 .5019989 .15867615H.41799928C.394989 .08959961 .34799195 .05355835 .2809906 .05355835 .22799683 .05355835 .18299866 .07757568 .15499878 .12162781 .1349945 .1516571 .12799073 .18170166 .1269989 .23374939H.5130005M.1289978 .3017578C.13598633 .39894105 .19499207 .4620514 .2789917 .4620514 .36099244 .4620514 .42399598 .3939209 .42399598 .30775453 .42399598 .30575563 .42399598 .3037567 .4229889 .3017578H.1289978Z"/>
<path id="font_2_26" d="M.2849884 0 .48599244 .52441409H.3919983L.24398804 .09906006 .10398865 .52441409H.009994507L.19400025 0H.2849884Z"/>
<path id="font_2_20" d="M.27198792 .5390625C.125 .5390625 .035995485 .434021 .035995485 .25779725 .035995485 .081588748 .12399292-.0234375 .272995-.0234375 .41999818-.0234375 .5099945 .081588748 .5099945 .25379945 .5099945 .43502809 .4229889 .5390625 .27198792 .5390625M.272995 .4620514C.36698915 .4620514 .4229889 .384964 .4229889 .25480653 .4229889 .13165283 .36499024 .05355835 .272995 .05355835 .17999268 .05355835 .12298584 .13064575 .12298584 .25779725 .12298584 .3839569 .17999268 .4620514 .272995 .4620514Z"/>
<path id="font_2_15" d="M.1499939 .5235901H.066986087V0H.1499939V.5235901M.1499939 .7285156H.06599426V.62350466H.1499939V.7285156Z"/>
<path id="font_2_8" d="M.053985597 .7285156V-.00044250489H.1289978V.0665741C.16899109 .005554199 .22200012-.0234375 .29499818-.0234375 .43299867-.0234375 .522995 .08959961 .522995 .2638092 .522995 .434021 .43699647 .5390625 .29899598 .5390625 .22698975 .5390625 .17599488 .51205447 .13699341 .4530487V.7285156H.053985597M.2829895 .46105958C.37599183 .46105958 .43598939 .3799591 .43598939 .25480653 .43598939 .13565064 .37399293 .05455017 .2829895 .05455017 .19499207 .05455017 .13699341 .13465882 .13699341 .25779725 .13699341 .38095094 .19499207 .46105958 .2829895 .46105958Z"/>
<path id="font_2_19" d="M.069992069 .52441409V0H.1539917V.2892151C.1539917 .39604188 .20999146 .4660492 .29599 .4660492 .3619995 .4660492 .4039917 .42604066 .4039917 .3630371V0H.4869995V.39604188C.4869995 .4830475 .42199708 .5390625 .32099916 .5390625 .24299622 .5390625 .19299317 .50904849 .14698792 .43605042V.52441409H.069992069Z"/>
<path id="font_2_10" d="M.49499513 .7285156H.4119873V.4580536C.3769989 .51104739 .32099916 .5390625 .25099183 .5390625 .114990238 .5390625 .025985718 .43000794 .025985718 .26280213 .025985718 .08558655 .11299133-.0234375 .2539978-.0234375 .32598878-.0234375 .37599183 .0035552979 .42099 .068573V-.00044250489H.49499513V.7285156M.2649994 .46105958C.35499574 .46105958 .4119873 .38095094 .4119873 .25579835 .4119873 .13465882 .35398866 .05455017 .2659912 .05455017 .17399597 .05455017 .11299133 .13565064 .11299133 .25779725 .11299133 .3799591 .17399597 .46105958 .2649994 .46105958Z"/>
<path id="font_2_29" d="M.3880005 .52441409 .24299622 .11628723 .10899353 .52441409H.019989014L.19699097-.001739502 .16499329-.08476257C.1519928-.121780399 .1329956-.13578797 .09799194-.13578797 .085998538-.13578797 .07199097-.1337738 .053985597-.129776V-.20478821C.070999149-.21377564 .08799744-.21777344 .10998535-.21777344 .13699341-.21777344 .1659851-.20878601 .18798828-.19277954 .21398926-.17378235 .22898865-.15177918 .24499512-.10977173L.47799684 .52441409H.3880005Z"/>
<path id="font_2_28" d="M.2919922 .27120973 .46798707 .52441409H.37399293L.24798584 .33425904 .12199402 .52441409H.026992798L.20199585 .26719667 .016998291 0H.11199951L.24499512 .20114136 .37599183 0H.47299195L.2919922 .27120973Z"/>
<path id="font_2_21" d="M.053985597-.21824646H.13798523V.05455017C.18199158 .0005493164 .23098755-.0234375 .29899598-.0234375 .43399049-.0234375 .522995 .08558655 .522995 .25279237 .522995 .4290161 .43699647 .5390625 .2979889 .5390625 .22698975 .5390625 .16999817 .50704959 .1309967 .44503785V.52404788H.053985597V-.21824646M.28399659 .46105958C.37599183 .46105958 .43598939 .3799591 .43598939 .25480653 .43598939 .13565064 .375 .05455017 .28399659 .05455017 .19599915 .05455017 .13798523 .13465882 .13798523 .25779725 .13798523 .38095094 .19599915 .46105958 .28399659 .46105958Z"/>
<path id="font_2_30" d="M.25698854 .52441409H.16999817V.6064148C.16999817 .64141848 .18998719 .65940859 .22799683 .65940859 .23498535 .65940859 .23799134 .65940859 .25698854 .65841677V.727417C.23799134 .7314148 .22698975 .7324219 .20999146 .7324219 .1329956 .7324219 .08699036 .6884155 .08699036 .6134186V.52441409H.016998291V.45640565H.08699036V0H.16999817V.45640565H.25698854V.52441409M.42999269 .7285156H.34700013V0H.42999269V.7285156Z"/>
<path id="font_2_27" d="M.55400088 0 .70799258 .52441409H.6139984L.5099945 .11607361 .40699769 .52441409H.30499269L.20498657 .11607361 .09799194 .52441409H.005996704L.1579895 0H.2519989L.35299684 .41133119 .45899964 0H.55400088Z"/>
</defs>
<path transform="matrix(1,0,0,-1,176.477,121.673999)" d="M-85.04317-85.04317H85.04317V85.04317H-85.04317Z" fill="#cceeff"/>
<path transform="matrix(1,0,0,-1,176.477,121.673999)" stroke-width=".99628" stroke-linecap="butt" stroke-miterlimit="10" stroke-linejoin="miter" fill="none" stroke="#1f6e96" d="M-85.04317-85.04317H85.04317V85.04317H-85.04317Z"/>
<path transform="matrix(1,0,0,-1,176.477,121.673999)" d="M42.52063-28.34767C42.52063-23.65091 23.48378-19.84355 0-19.84355-23.48378-19.84355-42.52063-23.65091-42.52063-28.34767-42.52063-33.04443-23.48378-36.85179 0-36.85179 23.48378-36.85179 42.52063-33.04443 42.52063-28.34767ZM0-28.34767" fill="#ff4040"/>
<path transform="matrix(1,0,0,-1,176.477,121.673999)" stroke-width=".3985" stroke-linecap="butt" stroke-miterlimit="10" stroke-linejoin="miter" fill="none" stroke="#ff4040" d="M42.52063-28.34767C42.52063-23.65091 23.48378-19.84355 0-19.84355-23.48378-19.84355-42.52063-23.65091-42.52063-28.34767-42.52063-33.04443-23.48378-36.85179 0-36.85179 23.48378-36.85179 42.52063-33.04443 42.52063-28.34767ZM0-28.34767"/>
<path transform="matrix(1,0,0,-1,176.477,121.673999)" d="M-4.2511-85.04317V-36.85251L-38.63162-29.21211C-40.78-28.7347-40.77214-27.99779-38.61404-27.56616L-3.90752-20.62431C-1.74942-20.1927 1.74942-20.1927 3.90752-20.62431L38.61404-27.56616C40.77214-27.99779 40.78-28.7347 38.63162-29.21211L4.2511-36.85251V-85.04317Z" fill="#ff4040"/>
<path transform="matrix(1,0,0,-1,176.477,121.673999)" stroke-width=".3985" stroke-linecap="butt" stroke-miterlimit="10" stroke-linejoin="miter" fill="none" stroke="#ff4040" d="M-4.2511-85.04317V-36.85251L-38.63162-29.21211C-40.78-28.7347-40.77214-27.99779-38.61404-27.56616L-3.90752-20.62431C-1.74942-20.1927 1.74942-20.1927 3.90752-20.62431L38.61404-27.56616C40.77214-27.99779 40.78-28.7347 38.63162-29.21211L4.2511-36.85251V-85.04317Z"/>
<path transform="matrix(1,0,0,-1,176.477,121.673999)" stroke-width="1.99255" stroke-linecap="butt" stroke-miterlimit="10" stroke-linejoin="miter" fill="none" stroke="#6100ad" d="M-4.2511-85.04317H4.2511"/>
<path transform="matrix(1,0,0,-1,176.477,121.673999)" stroke-width=".99628" stroke-linecap="butt" stroke-miterlimit="10" stroke-linejoin="miter" fill="none" stroke="#929292" d="M-85.04317-93.54782H85.07947"/>
<path transform="matrix(1,0,0,-1,261.55647,215.22182)" d="M6.17204 0C5.4141 .16904 2.08237 1.12698 0 2.16945V-2.16945C2.08237-1.12698 5.4141-.16904 6.17204 0Z" fill="#929292"/>
<path transform="matrix(1,0,0,-1,261.55647,215.22182)" stroke-width=".99628" stroke-linecap="butt" stroke-miterlimit="10" stroke-linejoin="miter" fill="none" stroke="#929292" d="M6.17204 0C5.4141 .16904 2.08237 1.12698 0 2.16945V-2.16945C2.08237-1.12698 5.4141-.16904 6.17204 0Z"/>
<use data-text="x" xlink:href="#font_1_2" transform="matrix(9.4645,0,0,-9.4645,273.378,217.738)" fill="#929292"/>
<path transform="matrix(1,0,0,-1,176.477,121.673999)" stroke-width=".99628" stroke-linecap="butt" stroke-miterlimit="10" stroke-linejoin="miter" fill="none" stroke="#929292" d="M-85.04317-93.54782V-97.79883"/>
<use data-text="0" xlink:href="#font_2_3" transform="matrix(9.4645,0,0,-9.4645,77.761,229.962)" fill="#929292"/>
<use data-text="." xlink:href="#font_2_2" transform="matrix(9.4645,0,0,-9.4645,83.02326,229.962)" fill="#929292"/>
<use data-text="0" xlink:href="#font_2_3" transform="matrix(9.4645,0,0,-9.4645,85.654399,229.962)" fill="#929292"/>
<use data-text="k" xlink:href="#font_2_16" transform="matrix(9.4645,0,0,-9.4645,92.49723,229.962)" fill="#929292"/>
<use data-text="m" xlink:href="#font_2_18" transform="matrix(9.4645,0,0,-9.4645,97.22948,229.962)" fill="#929292"/>
<path transform="matrix(1,0,0,-1,176.477,121.673999)" stroke-width=".99628" stroke-linecap="butt" stroke-miterlimit="10" stroke-linejoin="miter" fill="none" stroke="#929292" d="M85.03938-93.54782V-97.79883"/>
<use data-text="2" xlink:href="#font_2_4" transform="matrix(9.4645,0,0,-9.4645,245.21,229.962)" fill="#929292"/>
<use data-text="0" xlink:href="#font_2_3" transform="matrix(9.4645,0,0,-9.4645,250.47228,229.962)" fill="#929292"/>
<use data-text="." xlink:href="#font_2_2" transform="matrix(9.4645,0,0,-9.4645,255.73455,229.962)" fill="#929292"/>
<use data-text="0" xlink:href="#font_2_3" transform="matrix(9.4645,0,0,-9.4645,258.36567,229.962)" fill="#929292"/>
<use data-text="k" xlink:href="#font_2_16" transform="matrix(9.4645,0,0,-9.4645,265.2085,229.962)" fill="#929292"/>
<use data-text="m" xlink:href="#font_2_18" transform="matrix(9.4645,0,0,-9.4645,269.94075,229.962)" fill="#929292"/>
<path transform="matrix(1,0,0,-1,176.477,121.673999)" stroke-width=".99628" stroke-linecap="butt" stroke-miterlimit="10" stroke-linejoin="miter" fill="none" stroke="#929292" d="M-93.54782-85.04317V85.07947"/>
<path transform="matrix(0,-1,-1,-0,82.929187,36.59453)" d="M6.17204 0C5.4141 .16904 2.08237 1.12698 0 2.16945V-2.16945C2.08237-1.12698 5.4141-.16904 6.17204 0Z" fill="#929292"/>
<path transform="matrix(0,-1,-1,-0,82.929187,36.59453)" stroke-width=".99628" stroke-linecap="butt" stroke-miterlimit="10" stroke-linejoin="miter" fill="none" stroke="#929292" d="M6.17204 0C5.4141 .16904 2.08237 1.12698 0 2.16945V-2.16945C2.08237-1.12698 5.4141-.16904 6.17204 0Z"/>
<use data-text="y" xlink:href="#font_1_1" transform="matrix(9.4645,0,0,-9.4645,80.299,22.781006)" fill="#929292"/>
<path transform="matrix(1,0,0,-1,176.477,121.673999)" stroke-width=".99628" stroke-linecap="butt" stroke-miterlimit="10" stroke-linejoin="miter" fill="none" stroke="#929292" d="M-93.54782-85.04317H-97.79883"/>
<use data-text="-" xlink:href="#font_2_1" transform="matrix(9.4645,0,0,-9.4645,39.264009,210.057)" fill="#929292"/>
<use data-text="2" xlink:href="#font_2_4" transform="matrix(9.4645,0,0,-9.4645,42.415689,210.057)" fill="#929292"/>
<use data-text="0" xlink:href="#font_2_3" transform="matrix(9.4645,0,0,-9.4645,47.67795,210.057)" fill="#929292"/>
<use data-text="." xlink:href="#font_2_2" transform="matrix(9.4645,0,0,-9.4645,52.940217,210.057)" fill="#929292"/>
<use data-text="0" xlink:href="#font_2_3" transform="matrix(9.4645,0,0,-9.4645,55.571348,210.057)" fill="#929292"/>
<use data-text="k" xlink:href="#font_2_16" transform="matrix(9.4645,0,0,-9.4645,62.41418,210.057)" fill="#929292"/>
<use data-text="m" xlink:href="#font_2_18" transform="matrix(9.4645,0,0,-9.4645,67.14643,210.057)" fill="#929292"/>
<path transform="matrix(1,0,0,-1,176.477,121.673999)" stroke-width=".99628" stroke-linecap="butt" stroke-miterlimit="10" stroke-linejoin="miter" fill="none" stroke="#929292" d="M-93.54782 85.03938H-97.79883"/>
<use data-text="0" xlink:href="#font_2_3" transform="matrix(9.4645,0,0,-9.4645,47.67801,39.977006)" fill="#929292"/>
<use data-text="." xlink:href="#font_2_2" transform="matrix(9.4645,0,0,-9.4645,52.940275,39.977006)" fill="#929292"/>
<use data-text="0" xlink:href="#font_2_3" transform="matrix(9.4645,0,0,-9.4645,55.571405,39.977006)" fill="#929292"/>
<use data-text="k" xlink:href="#font_2_16" transform="matrix(9.4645,0,0,-9.4645,62.414239,39.977006)" fill="#929292"/>
<use data-text="m" xlink:href="#font_2_18" transform="matrix(9.4645,0,0,-9.4645,67.14649,39.977006)" fill="#929292"/>
<use data-text="c" xlink:href="#font_2_9" transform="matrix(9.4645,0,0,-9.4645,166.15001,82.244)" fill="#6100ad"/>
<use data-text="r" xlink:href="#font_2_22" transform="matrix(9.4645,0,0,-9.4645,170.88227,82.244)" fill="#6100ad"/>
<use data-text="u" xlink:href="#font_2_25" transform="matrix(9.4645,0,0,-9.4645,174.1759,82.244)" fill="#6100ad"/>
<use data-text="s" xlink:href="#font_2_23" transform="matrix(9.4645,0,0,-9.4645,179.43817,82.244)" fill="#6100ad"/>
<use data-text="t" xlink:href="#font_2_24" transform="matrix(9.4645,0,0,-9.4645,184.17043,82.244)" fill="#6100ad"/>
<use data-text="m" xlink:href="#font_2_18" transform="matrix(9.4645,0,0,-9.4645,140.957,152.387)" fill="#ffffff"/>
<use data-text="a" xlink:href="#font_2_7" transform="matrix(9.4645,0,0,-9.4645,148.84093,152.387)" fill="#ffffff"/>
<use data-text="g" xlink:href="#font_2_13" transform="matrix(9.4645,0,0,-9.4645,154.1032,152.387)" fill="#ffffff"/>
<use data-text="m" xlink:href="#font_2_18" transform="matrix(9.4645,0,0,-9.4645,159.36547,152.387)" fill="#ffffff"/>
<use data-text="a" xlink:href="#font_2_7" transform="matrix(9.4645,0,0,-9.4645,167.24939,152.387)" fill="#ffffff"/>
<use data-text="r" xlink:href="#font_2_22" transform="matrix(9.4645,0,0,-9.4645,175.14279,152.387)" fill="#ffffff"/>
<use data-text="e" xlink:href="#font_2_11" transform="matrix(9.4645,0,0,-9.4645,178.29447,152.387)" fill="#ffffff"/>
<use data-text="s" xlink:href="#font_2_23" transform="matrix(9.4645,0,0,-9.4645,183.55673,152.387)" fill="#ffffff"/>
<use data-text="e" xlink:href="#font_2_11" transform="matrix(9.4645,0,0,-9.4645,188.28899,152.387)" fill="#ffffff"/>
<use data-text="r" xlink:href="#font_2_22" transform="matrix(9.4645,0,0,-9.4645,193.55126,152.387)" fill="#ffffff"/>
<use data-text="v" xlink:href="#font_2_26" transform="matrix(9.4645,0,0,-9.4645,196.98686,152.387)" fill="#ffffff"/>
<use data-text="o" xlink:href="#font_2_20" transform="matrix(9.4645,0,0,-9.4645,201.4825,152.387)" fill="#ffffff"/>
<use data-text="i" xlink:href="#font_2_15" transform="matrix(9.4645,0,0,-9.4645,206.74477,152.387)" fill="#ffffff"/>
<use data-text="r" xlink:href="#font_2_22" transform="matrix(9.4645,0,0,-9.4645,208.84589,152.387)" fill="#ffffff"/>
<use data-text="b" xlink:href="#font_2_8" transform="matrix(9.4645,0,0,-9.4645,3.154007,124.04199)" fill="#6100ad"/>
<use data-text="o" xlink:href="#font_2_20" transform="matrix(9.4645,0,0,-9.4645,8.416269,124.04199)" fill="#6100ad"/>
<use data-text="u" xlink:href="#font_2_25" transform="matrix(9.4645,0,0,-9.4645,13.678533,124.04199)" fill="#6100ad"/>
<use data-text="n" xlink:href="#font_2_19" transform="matrix(9.4645,0,0,-9.4645,18.940796,124.04199)" fill="#6100ad"/>
<use data-text="d" xlink:href="#font_2_10" transform="matrix(9.4645,0,0,-9.4645,24.203059,124.04199)" fill="#6100ad"/>
<use data-text="a" xlink:href="#font_2_7" transform="matrix(9.4645,0,0,-9.4645,29.46532,124.04199)" fill="#6100ad"/>
<use data-text="r" xlink:href="#font_2_22" transform="matrix(9.4645,0,0,-9.4645,34.727586,124.04199)" fill="#6100ad"/>
<use data-text="y" xlink:href="#font_2_29" transform="matrix(9.4645,0,0,-9.4645,38.1632,124.04199)" fill="#6100ad"/>
<path transform="matrix(1,0,0,-1,43.46301,123.842998)" stroke-width=".398" stroke-linecap="butt" stroke-miterlimit="10" stroke-linejoin="miter" fill="none" stroke="#6100ad" d="M0 0H2.839"/>
<use data-text="x" xlink:href="#font_2_28" transform="matrix(9.4645,0,0,-9.4645,46.302007,124.04199)" fill="#6100ad"/>
<use data-text="n" xlink:href="#font_2_19" transform="matrix(9.4645,0,0,-9.4645,51.034257,124.04199)" fill="#6100ad"/>
<use data-text="e" xlink:href="#font_2_11" transform="matrix(9.4645,0,0,-9.4645,56.29652,124.04199)" fill="#6100ad"/>
<use data-text="g" xlink:href="#font_2_13" transform="matrix(9.4645,0,0,-9.4645,61.558786,124.04199)" fill="#6100ad"/>
<path transform="matrix(1,0,0,-1,176.477,121.673999)" stroke-width="1.99255" stroke-linecap="butt" stroke-miterlimit="10" stroke-linejoin="miter" fill="none" stroke="#6100ad" d="M-106.30586 6.19965C-89.24371 9.21132-102.10533-3.0103-92.99039-1.40305"/>
<path transform="matrix(.9848,-.17363,-.17363,-.9848,83.4866,123.07706)" d="M3.93657 0C3.45314 .11797 1.32814 .78648 0 1.51398V-1.51398C1.32814-.78648 3.45314-.11797 3.93657 0Z" fill="#6100ad"/>
<path transform="matrix(.9848,-.17363,-.17363,-.9848,83.4866,123.07706)" stroke-width="1.79326" stroke-linecap="butt" stroke-miterlimit="10" stroke-linejoin="miter" fill="none" stroke="#6100ad" d="M3.93657 0C3.45314 .11797 1.32814 .78648 0 1.51398V-1.51398C1.32814-.78648 3.45314-.11797 3.93657 0Z"/>
<use data-text="b" xlink:href="#font_2_8" transform="matrix(9.4645,0,0,-9.4645,286.133,124.08199)" fill="#6100ad"/>
<use data-text="o" xlink:href="#font_2_20" transform="matrix(9.4645,0,0,-9.4645,291.39527,124.08199)" fill="#6100ad"/>
<use data-text="u" xlink:href="#font_2_25" transform="matrix(9.4645,0,0,-9.4645,296.65754,124.08199)" fill="#6100ad"/>
<use data-text="n" xlink:href="#font_2_19" transform="matrix(9.4645,0,0,-9.4645,301.9198,124.08199)" fill="#6100ad"/>
<use data-text="d" xlink:href="#font_2_10" transform="matrix(9.4645,0,0,-9.4645,307.18208,124.08199)" fill="#6100ad"/>
<use data-text="a" xlink:href="#font_2_7" transform="matrix(9.4645,0,0,-9.4645,312.44435,124.08199)" fill="#6100ad"/>
<use data-text="r" xlink:href="#font_2_22" transform="matrix(9.4645,0,0,-9.4645,317.7066,124.08199)" fill="#6100ad"/>
<use data-text="y" xlink:href="#font_2_29" transform="matrix(9.4645,0,0,-9.4645,321.1422,124.08199)" fill="#6100ad"/>
<path transform="matrix(1,0,0,-1,326.442,123.882999)" stroke-width=".398" stroke-linecap="butt" stroke-miterlimit="10" stroke-linejoin="miter" fill="none" stroke="#6100ad" d="M0 0H2.839"/>
<use data-text="x" xlink:href="#font_2_28" transform="matrix(9.4645,0,0,-9.4645,329.281,124.08199)" fill="#6100ad"/>
<use data-text="p" xlink:href="#font_2_21" transform="matrix(9.4645,0,0,-9.4645,334.01325,124.08199)" fill="#6100ad"/>
<use data-text="o" xlink:href="#font_2_20" transform="matrix(9.4645,0,0,-9.4645,339.2755,124.08199)" fill="#6100ad"/>
<use data-text="s" xlink:href="#font_2_23" transform="matrix(9.4645,0,0,-9.4645,344.53779,124.08199)" fill="#6100ad"/>
<path transform="matrix(1,0,0,-1,176.477,121.673999)" stroke-width="1.99255" stroke-linecap="butt" stroke-miterlimit="10" stroke-linejoin="miter" fill="none" stroke="#6100ad" d="M106.30586-6.15993C89.24371-9.16835 102.10533 3.00653 92.99039 1.39928"/>
<path transform="matrix(-.9848,.17363,.17363,.9848,269.4674,120.274707)" d="M3.93657 0C3.45314 .11797 1.32814 .78648 0 1.51398V-1.51398C1.32814-.78648 3.45314-.11797 3.93657 0Z" fill="#6100ad"/>
<path transform="matrix(-.9848,.17363,.17363,.9848,269.4674,120.274707)" stroke-width="1.79326" stroke-linecap="butt" stroke-miterlimit="10" stroke-linejoin="miter" fill="none" stroke="#6100ad" d="M3.93657 0C3.45314 .11797 1.32814 .78648 0 1.51398V-1.51398C1.32814-.78648 3.45314-.11797 3.93657 0Z"/>
<use data-text="b" xlink:href="#font_2_8" transform="matrix(9.4645,0,0,-9.4645,102.122,238.168)" fill="#6100ad"/>
<use data-text="o" xlink:href="#font_2_20" transform="matrix(9.4645,0,0,-9.4645,107.38426,238.168)" fill="#6100ad"/>
<use data-text="u" xlink:href="#font_2_25" transform="matrix(9.4645,0,0,-9.4645,112.64652,238.168)" fill="#6100ad"/>
<use data-text="n" xlink:href="#font_2_19" transform="matrix(9.4645,0,0,-9.4645,117.90878,238.168)" fill="#6100ad"/>
<use data-text="d" xlink:href="#font_2_10" transform="matrix(9.4645,0,0,-9.4645,123.17104,238.168)" fill="#6100ad"/>
<use data-text="a" xlink:href="#font_2_7" transform="matrix(9.4645,0,0,-9.4645,128.4333,238.168)" fill="#6100ad"/>
<use data-text="r" xlink:href="#font_2_22" transform="matrix(9.4645,0,0,-9.4645,133.69557,238.168)" fill="#6100ad"/>
<use data-text="y" xlink:href="#font_2_29" transform="matrix(9.4645,0,0,-9.4645,137.13118,238.168)" fill="#6100ad"/>
<path transform="matrix(1,0,0,-1,142.43,237.96799)" stroke-width=".398" stroke-linecap="butt" stroke-miterlimit="10" stroke-linejoin="miter" fill="none" stroke="#6100ad" d="M0 0H2.839"/>
<use data-text="y" xlink:href="#font_2_29" transform="matrix(9.4645,0,0,-9.4645,145.27,238.168)" fill="#6100ad"/>
<use data-text="n" xlink:href="#font_2_19" transform="matrix(9.4645,0,0,-9.4645,150.00226,238.168)" fill="#6100ad"/>
<use data-text="e" xlink:href="#font_2_11" transform="matrix(9.4645,0,0,-9.4645,155.26453,238.168)" fill="#6100ad"/>
<use data-text="g" xlink:href="#font_2_13" transform="matrix(9.4645,0,0,-9.4645,160.5268,238.168)" fill="#6100ad"/>
<path transform="matrix(1,0,0,-1,176.477,121.673999)" stroke-width="1.99255" stroke-linecap="butt" stroke-miterlimit="10" stroke-linejoin="miter" fill="none" stroke="#6100ad" d="M-43.90329-106.30586C-46.79431-89.9102-39.6316-101.43883-41.12135-92.99039"/>
<path transform="matrix(-.17363,-.9848,-.9848,.17363,135.35567,214.6644)" d="M3.93657 0C3.45314 .11797 1.32814 .78648 0 1.51398V-1.51398C1.32814-.78648 3.45314-.11797 3.93657 0Z" fill="#6100ad"/>
<path transform="matrix(-.17363,-.9848,-.9848,.17363,135.35567,214.6644)" stroke-width="1.79326" stroke-linecap="butt" stroke-miterlimit="10" stroke-linejoin="miter" fill="none" stroke="#6100ad" d="M3.93657 0C3.45314 .11797 1.32814 .78648 0 1.51398V-1.51398C1.32814-.78648 3.45314-.11797 3.93657 0Z"/>
<use data-text="b" xlink:href="#font_2_8" transform="matrix(9.4645,0,0,-9.4645,144.90702,9.992996)" fill="#6100ad"/>
<use data-text="o" xlink:href="#font_2_20" transform="matrix(9.4645,0,0,-9.4645,150.16928,9.992996)" fill="#6100ad"/>
<use data-text="u" xlink:href="#font_2_25" transform="matrix(9.4645,0,0,-9.4645,155.43155,9.992996)" fill="#6100ad"/>
<use data-text="n" xlink:href="#font_2_19" transform="matrix(9.4645,0,0,-9.4645,160.69382,9.992996)" fill="#6100ad"/>
<use data-text="d" xlink:href="#font_2_10" transform="matrix(9.4645,0,0,-9.4645,165.95609,9.992996)" fill="#6100ad"/>
<use data-text="a" xlink:href="#font_2_7" transform="matrix(9.4645,0,0,-9.4645,171.21836,9.992996)" fill="#6100ad"/>
<use data-text="r" xlink:href="#font_2_22" transform="matrix(9.4645,0,0,-9.4645,176.48062,9.992996)" fill="#6100ad"/>
<use data-text="y" xlink:href="#font_2_29" transform="matrix(9.4645,0,0,-9.4645,179.91623,9.992996)" fill="#6100ad"/>
<path transform="matrix(1,0,0,-1,185.21602,9.792999)" stroke-width=".398" stroke-linecap="butt" stroke-miterlimit="10" stroke-linejoin="miter" fill="none" stroke="#6100ad" d="M0 0H2.839"/>
<use data-text="y" xlink:href="#font_2_29" transform="matrix(9.4645,0,0,-9.4645,188.05501,9.992996)" fill="#6100ad"/>
<use data-text="p" xlink:href="#font_2_21" transform="matrix(9.4645,0,0,-9.4645,192.78726,9.992996)" fill="#6100ad"/>
<use data-text="o" xlink:href="#font_2_20" transform="matrix(9.4645,0,0,-9.4645,198.04953,9.992996)" fill="#6100ad"/>
<use data-text="s" xlink:href="#font_2_23" transform="matrix(9.4645,0,0,-9.4645,203.3118,9.992996)" fill="#6100ad"/>
<path transform="matrix(1,0,0,-1,176.477,121.673999)" stroke-width="1.99255" stroke-linecap="butt" stroke-miterlimit="10" stroke-linejoin="miter" fill="none" stroke="#6100ad" d="M1.37082 106.30586C4.26186 89.9102-2.89279 101.43883-1.40305 92.99039"/>
<path transform="matrix(.17363,.9848,.9848,-.17363,175.07395,28.683594)" d="M3.93657 0C3.45314 .11797 1.32814 .78648 0 1.51398V-1.51398C1.32814-.78648 3.45314-.11797 3.93657 0Z" fill="#6100ad"/>
<path transform="matrix(.17363,.9848,.9848,-.17363,175.07395,28.683594)" stroke-width="1.79326" stroke-linecap="butt" stroke-miterlimit="10" stroke-linejoin="miter" fill="none" stroke="#6100ad" d="M3.93657 0C3.45314 .11797 1.32814 .78648 0 1.51398V-1.51398C1.32814-.78648 3.45314-.11797 3.93657 0Z"/>
<use data-text="i" xlink:href="#font_2_15" transform="matrix(9.4645,0,0,-9.4645,181.462,238.24399)" fill="#6100ad"/>
<use data-text="n" xlink:href="#font_2_19" transform="matrix(9.4645,0,0,-9.4645,183.56313,238.24399)" fill="#6100ad"/>
<use data-text="f" xlink:href="#font_2_30" transform="matrix(9.4645,0,0,-9.4645,188.8254,238.24399)" fill="#6100ad"/>
<use data-text="o" xlink:href="#font_2_20" transform="matrix(9.4645,0,0,-9.4645,193.55765,238.24399)" fill="#6100ad"/>
<use data-text="w" xlink:href="#font_2_27" transform="matrix(9.4645,0,0,-9.4645,198.67795,238.24399)" fill="#6100ad"/>
<path transform="matrix(1,0,0,-1,176.477,121.673999)" stroke-width="1.99255" stroke-linecap="butt" stroke-miterlimit="10" stroke-linejoin="miter" fill="none" stroke="#6100ad" d="M14.50307-106.30586C7.62633-87.4144 6.87599-103.93463 2.75996-92.62627"/>
<path transform="matrix(-.34201,-.93968,-.93968,.34201,179.23699,214.30028)" d="M3.93657 0C3.45314 .11797 1.32814 .78648 0 1.51398V-1.51398C1.32814-.78648 3.45314-.11797 3.93657 0Z" fill="#6100ad"/>
<path transform="matrix(-.34201,-.93968,-.93968,.34201,179.23699,214.30028)" stroke-width="1.79326" stroke-linecap="butt" stroke-miterlimit="10" stroke-linejoin="miter" fill="none" stroke="#6100ad" d="M3.93657 0C3.45314 .11797 1.32814 .78648 0 1.51398V-1.51398C1.32814-.78648 3.45314-.11797 3.93657 0Z"/>
</svg>
