<?xml version="1.0" encoding="UTF-8" standalone="no"?>
<!DOCTYPE svg PUBLIC "-//W3C//DTD SVG 1.1//EN" "http://www.w3.org/Graphics/SVG/1.1/DTD/svg11.dtd">
<svg xmlns="http://www.w3.org/2000/svg" xmlns:xlink="http://www.w3.org/1999/xlink" version="1.1" width="352.42pt" height="243.43pt" viewBox="0 0 352.42 243.43">
<g enable-background="new">
<path transform="matrix(.1,0,0,-.1,0,243.43)" d="M 914.34 367.109 L 2615.2 367.109 L 2615.2 2067.969 L 914.34 2067.969 Z " fill="#cceeff"/>
<path transform="matrix(.1,0,0,-.1,0,243.43)" stroke-width="9.9628" stroke-linecap="butt" stroke-miterlimit="10" stroke-linejoin="miter" fill="none" stroke="#1f6e96" d="M 914.34 367.109 L 2615.2 367.109 L 2615.2 2067.969 L 914.34 2067.969 Z "/>
<path transform="matrix(.1,0,0,-.1,0,243.43)" d="M 2189.98 934.063 C 2189.98 981.031 1999.61 1019.11 1764.77 1019.11 C 1529.93 1019.11 1339.56 981.031 1339.56 934.063 C 1339.56 887.098 1529.93 849.023 1764.77 849.023 C 1999.61 849.023 2189.98 887.098 2189.98 934.063 Z M 1764.77 934.063 " fill="#ff4040"/>
<path transform="matrix(.1,0,0,-.1,0,243.43)" stroke-width="3.985" stroke-linecap="butt" stroke-miterlimit="10" stroke-linejoin="miter" fill="none" stroke="#ff4040" d="M 2189.98 934.063 C 2189.98 981.031 1999.61 1019.11 1764.77 1019.11 C 1529.93 1019.11 1339.56 981.031 1339.56 934.063 C 1339.56 887.098 1529.93 849.023 1764.77 849.023 C 1999.61 849.023 2189.98 887.098 2189.98 934.063 Z M 1764.77 934.063 "/>
<path transform="matrix(.1,0,0,-.1,0,243.43)" d="M 1722.26 367.109 L 1722.26 849.016 L 1378.45 925.418 C 1356.97 930.191 1357.05 937.563 1378.63 941.879 L 1725.7 1011.3 C 1747.28 1015.61 1782.27 1015.61 1803.84 1011.3 L 2150.91 941.879 C 2172.49 937.563 2172.57 930.191 2151.09 925.418 L 1807.28 849.016 L 1807.28 367.109 Z " fill="#ff4040"/>
<path transform="matrix(.1,0,0,-.1,0,243.43)" stroke-width="3.985" stroke-linecap="butt" stroke-miterlimit="10" stroke-linejoin="miter" fill="none" stroke="#ff4040" d="M 1722.26 367.109 L 1722.26 849.016 L 1378.45 925.418 C 1356.97 930.191 1357.05 937.563 1378.63 941.879 L 1725.7 1011.3 C 1747.28 1015.61 1782.27 1015.61 1803.84 1011.3 L 2150.91 941.879 C 2172.49 937.563 2172.57 930.191 2151.09 925.418 L 1807.28 849.016 L 1807.28 367.109 Z "/>
<path transform="matrix(.1,0,0,-.1,0,243.43)" stroke-width="19.9255" stroke-linecap="butt" stroke-miterlimit="10" stroke-linejoin="miter" fill="none" stroke="#6100ad" d="M 1722.26 367.109 L 1807.28 367.109 "/>
<path transform="matrix(.1,0,0,-.1,0,243.43)" stroke-width="9.9628" stroke-linecap="butt" stroke-miterlimit="10" stroke-linejoin="miter" fill="none" stroke="#929292" d="M 914.34 282.063 L 2615.57 282.063 "/>
<path transform="matrix(.1,0,0,-.1,0,243.43)" d="M 2677.29 282.063 C 2669.71 283.754 2636.39 293.332 2615.57 303.758 L 2615.57 260.367 C 2636.39 270.793 2669.71 280.371 2677.29 282.063 Z " fill="#929292"/>
<path transform="matrix(.1,0,0,-.1,0,243.43)" stroke-width="9.9628" stroke-linecap="butt" stroke-miterlimit="10" stroke-linejoin="miter" fill="none" stroke="#929292" d="M 2677.29 282.063 C 2669.71 283.754 2636.39 293.332 2615.57 303.758 L 2615.57 260.367 C 2636.39 270.793 2669.71 280.371 2677.29 282.063 Z "/>
<symbol id="font_0_1">
<path d="M .33900003 .272 L .51500007 .54 L .347 .54 L .26000003 .377 L .172 .54 L .0040000008 .54 L .18 .272 L 0 0 L .16800002 0 L .26000003 .16800002 L .351 0 L .51900008 0 L .33900003 .272 Z "/>
</symbol>
<use xlink:href="#font_0_1" transform="matrix(9.4645,0,0,-9.4645,273.52943,217.74019)" fill="#929292"/>
<path transform="matrix(.1,0,0,-.1,0,243.43)" stroke-width="9.9628" stroke-linecap="butt" stroke-miterlimit="10" stroke-linejoin="miter" fill="none" stroke="#929292" d="M 914.34 282.063 L 914.34 239.551 "/>
<symbol id="font_1_18">
<path d="M .23200001 .73200008 C .16600001 .73200008 .106000009 .703 .069000009 .65400007 C .022999999 .592 0 .49700005 0 .36600004 C 0 .127 .08 0 .23200001 0 C .382 0 .46400003 .127 .46400003 .36 C .46400003 .49800004 .442 .59000006 .395 .65400007 C .358 .70400008 .299 .73200008 .23200001 .73200008 M .23200001 .65400007 C .327 .65400007 .374 .558 .374 .36800004 C .374 .16700001 .328 .073 .23 .073 C .13700001 .073 .09 .171 .09 .365 C .09 .559 .13700001 .65400007 .23200001 .65400007 Z "/>
</symbol>
<symbol id="font_1_17">
<path d="M .10400001 .104 L 0 .104 L 0 0 L .10400001 0 L .10400001 .104 Z "/>
</symbol>
<symbol id="font_1_13">
<path d="M .083000008 .72900006 L 0 .72900006 L 0 0 L .083000008 0 L .083000008 .20400001 L .16400002 .284 L .34100003 0 L .44400005 0 L .23000002 .34300003 L .41200004 .52400007 L .305 .52400007 L .083000008 .30200003 L .083000008 .72900006 Z "/>
</symbol>
<symbol id="font_1_14">
<path d="M 0 .52400007 L 0 0 L .084000017 0 L .084000017 .32900004 C .084000017 .40500004 .139 .46600003 .20700002 .46600003 C .26900003 .46600003 .30400003 .42800004 .30400003 .36100004 L .30400003 0 L .38800005 0 L .38800005 .32900004 C .38800005 .40500004 .44300003 .46600003 .51100006 .46600003 C .572 .46600003 .60800006 .42700003 .60800006 .36100004 L .60800006 0 L .69200006 0 L .69200006 .393 C .69200006 .48700003 .638 .53900006 .54 .53900006 C .47000004 .53900006 .42800004 .518 .37900005 .45900003 C .34800003 .51500007 .30600003 .53900006 .23800004 .53900006 C .16800002 .53900006 .122 .513 .077 .45000003 L .077 .52400007 L 0 .52400007 Z "/>
</symbol>
<use xlink:href="#font_1_18" transform="matrix(9.4645,0,0,-9.4645,78.16788,230.18167)" fill="#929292"/>
<use xlink:href="#font_1_17" transform="matrix(9.4645,0,0,-9.4645,83.84657,229.96399)" fill="#929292"/>
<use xlink:href="#font_1_18" transform="matrix(9.4645,0,0,-9.4645,86.06127,230.18167)" fill="#929292"/>
<use xlink:href="#font_1_13" transform="matrix(9.4645,0,0,-9.4645,93.046169,229.96399)" fill="#929292"/>
<use xlink:href="#font_1_14" transform="matrix(9.4645,0,0,-9.4645,97.89199,229.96399)" fill="#929292"/>
<path transform="matrix(.1,0,0,-.1,0,243.43)" stroke-width="9.9628" stroke-linecap="butt" stroke-miterlimit="10" stroke-linejoin="miter" fill="none" stroke="#929292" d="M 2615.16 282.063 L 2615.16 239.551 "/>
<symbol id="font_1_19">
<path d="M .47200004 .087000008 L .099 .087000008 C .108 .14500001 .14000002 .18200001 .227 .23300001 L .32700003 .287 C .426 .34100003 .47700004 .41400004 .47700004 .50100007 C .47700004 .56 .453 .615 .411 .65300008 C .36900003 .69100007 .317 .70900008 .25 .70900008 C .16 .70900008 .093 .67700007 .054000006 .61700007 C .029 .57900008 .018 .535 .015999999 .46300004 L .10400001 .46300004 C .107 .51100006 .113 .54 .125 .563 C .148 .606 .194 .632 .24700001 .632 C .32700003 .632 .38700003 .57500007 .38700003 .499 C .38700003 .44300003 .354 .395 .291 .35900004 L .199 .307 C .051 .223 .008000001 .156 0 0 L .47200004 0 L .47200004 .087000008 Z "/>
</symbol>
<use xlink:href="#font_1_19" transform="matrix(9.4645,0,0,-9.4645,245.5318,229.96399)" fill="#929292"/>
<use xlink:href="#font_1_18" transform="matrix(9.4645,0,0,-9.4645,250.87924,230.18167)" fill="#929292"/>
<use xlink:href="#font_1_17" transform="matrix(9.4645,0,0,-9.4645,256.55796,229.96399)" fill="#929292"/>
<use xlink:href="#font_1_18" transform="matrix(9.4645,0,0,-9.4645,258.77265,230.18167)" fill="#929292"/>
<use xlink:href="#font_1_13" transform="matrix(9.4645,0,0,-9.4645,265.7574,229.96399)" fill="#929292"/>
<use xlink:href="#font_1_14" transform="matrix(9.4645,0,0,-9.4645,270.60319,229.96399)" fill="#929292"/>
<path transform="matrix(.1,0,0,-.1,0,243.43)" stroke-width="9.9628" stroke-linecap="butt" stroke-miterlimit="10" stroke-linejoin="miter" fill="none" stroke="#929292" d="M 829.293 367.109 L 829.293 2068.34 "/>
<path transform="matrix(.1,0,0,-.1,0,243.43)" d="M 829.293 2130.05 C 827.602 2122.48 818.023 2089.16 807.598 2068.34 L 850.984 2068.34 C 840.563 2089.16 830.98 2122.48 829.293 2130.05 Z " fill="#929292"/>
<path transform="matrix(.1,0,0,-.1,0,243.43)" stroke-width="9.9628" stroke-linecap="butt" stroke-miterlimit="10" stroke-linejoin="miter" fill="none" stroke="#929292" d="M 829.293 2130.05 C 827.602 2122.48 818.023 2089.16 807.598 2068.34 L 850.984 2068.34 C 840.563 2089.16 830.98 2122.48 829.293 2130.05 Z "/>
<symbol id="font_0_2">
<path d="M .38500003 .75900009 L .273 .366 L .154 .75900009 L 0 .75900009 L .201 .19700001 L .201 .19600001 L .201 .19300002 C .201 .142 .163 .10300001 .114 .10300001 C .103 .10300001 .095 .10400001 .077 .109000008 L .077 .004000008 C .098000008 .001000002 .11 0 .127 0 C .162 0 .20400001 .0069999995 .22800002 .017000005 C .26700003 .033000009 .284 .05600001 .307 .120000008 L .52900007 .75900009 L .38500003 .75900009 Z "/>
</symbol>
<use xlink:href="#font_0_2" transform="matrix(9.4645,0,0,-9.4645,80.38398,24.855715)" fill="#929292"/>
<path transform="matrix(.1,0,0,-.1,0,243.43)" stroke-width="9.9628" stroke-linecap="butt" stroke-miterlimit="10" stroke-linejoin="miter" fill="none" stroke="#929292" d="M 829.293 367.109 L 786.781 367.109 "/>
<symbol id="font_1_16">
<path d="M .238 .072 L 0 .072 L 0 0 L .238 0 L .238 .072 Z "/>
</symbol>
<use xlink:href="#font_1_16" transform="matrix(9.4645,0,0,-9.4645,39.699468,207.78742)" fill="#929292"/>
<use xlink:href="#font_1_19" transform="matrix(9.4645,0,0,-9.4645,42.73757,210.0589)" fill="#929292"/>
<use xlink:href="#font_1_18" transform="matrix(9.4645,0,0,-9.4645,48.08502,210.27658)" fill="#929292"/>
<use xlink:href="#font_1_17" transform="matrix(9.4645,0,0,-9.4645,53.763719,210.0589)" fill="#929292"/>
<use xlink:href="#font_1_18" transform="matrix(9.4645,0,0,-9.4645,55.978414,210.27658)" fill="#929292"/>
<use xlink:href="#font_1_13" transform="matrix(9.4645,0,0,-9.4645,62.963048,210.0589)" fill="#929292"/>
<use xlink:href="#font_1_14" transform="matrix(9.4645,0,0,-9.4645,67.80887,210.0589)" fill="#929292"/>
<path transform="matrix(.1,0,0,-.1,0,243.43)" stroke-width="9.9628" stroke-linecap="butt" stroke-miterlimit="10" stroke-linejoin="miter" fill="none" stroke="#929292" d="M 829.293 2067.93 L 786.781 2067.93 "/>
<use xlink:href="#font_1_18" transform="matrix(9.4645,0,0,-9.4645,48.085077,40.19667)" fill="#929292"/>
<use xlink:href="#font_1_17" transform="matrix(9.4645,0,0,-9.4645,53.763776,39.97899)" fill="#929292"/>
<use xlink:href="#font_1_18" transform="matrix(9.4645,0,0,-9.4645,55.97847,40.19667)" fill="#929292"/>
<use xlink:href="#font_1_13" transform="matrix(9.4645,0,0,-9.4645,62.963369,39.97899)" fill="#929292"/>
<use xlink:href="#font_1_14" transform="matrix(9.4645,0,0,-9.4645,67.80919,39.97899)" fill="#929292"/>
<symbol id="font_1_e">
<path d="M .44000004 .37100003 C .43600003 .42200003 .42500005 .455 .40500004 .48400004 C .36900003 .53300008 .30600003 .56200006 .233 .56200006 C .092 .56200006 0 .45000003 0 .27600003 C 0 .10700001 .09 0 .23200001 0 C .35700003 0 .43600003 .075 .44600005 .20300001 L .36200003 .20300001 C .34800003 .119 .30500005 .07700001 .23400001 .07700001 C .142 .07700001 .087000008 .15200001 .087000008 .27600003 C .087000008 .407 .141 .485 .23200001 .485 C .30200003 .485 .34600003 .44400005 .35600005 .37100003 L .44000004 .37100003 Z "/>
</symbol>
<symbol id="font_1_4">
<path d="M 0 .52400007 L 0 0 L .08400001 0 L .08400001 .272 C .08400001 .347 .103 .39600004 .143 .425 C .169 .44400005 .194 .45000003 .252 .45100004 L .252 .536 C .238 .53800007 .231 .53900006 .22 .53900006 C .16600001 .53900006 .125 .507 .07700001 .42900003 L .07700001 .52400007 L 0 .52400007 Z "/>
</symbol>
<symbol id="font_1_7">
<path d="M .41700004 .023000002 L .41700004 .54700008 L .33400003 .54700008 L .33400003 .25 C .33400003 .143 .27800004 .073 .19100002 .073 C .125 .073 .083 .113000009 .083 .17600002 L .083 .54700008 L 0 .54700008 L 0 .143 C 0 .056 .065000008 0 .167 0 C .24400002 0 .293 .027000003 .342 .09600001 L .342 .023000002 L .41700004 .023000002 Z "/>
</symbol>
<symbol id="font_1_5">
<path d="M .404 .40100003 C .403 .50400009 .335 .56200006 .21400002 .56200006 C .092 .56200006 .013 .499 .013 .402 C .013 .32000003 .055 .28100003 .17900002 .25100003 L .257 .23200001 C .315 .21800001 .338 .19700001 .338 .15900001 C .338 .11000001 .289 .07700001 .21599999 .07700001 C .171 .07700001 .13300002 .09 .11200001 .112 C .099 .127 .093 .142 .08800001 .179 L 0 .179 C .0040000008 .058000003 .072000008 0 .20900002 0 C .34100003 0 .425 .065000008 .425 .16600001 C .425 .24400002 .381 .287 .277 .312 L .197 .33100004 C .12900001 .347 .1 .36900003 .1 .40600003 C .1 .45400004 .143 .485 .211 .485 C .278 .485 .314 .45600004 .316 .40100003 L .404 .40100003 Z "/>
</symbol>
<symbol id="font_1_6">
<path d="M .24000001 .54700008 L .15400002 .54700008 L .15400002 .69100007 L .071 .69100007 L .071 .54700008 L 0 .54700008 L 0 .47900004 L .071 .47900004 L .071 .083000008 C .071 .030000002 .10700001 0 .172 0 C .19200002 0 .21200001 .0020000004 .24000001 .007000001 L .24000001 .07700001 C .22900002 .074 .216 .073 .20000002 .073 C .164 .073 .15400002 .083000008 .15400002 .120000008 L .15400002 .47900004 L .24000001 .47900004 L .24000001 .54700008 Z "/>
</symbol>
<use xlink:href="#font_1_e" transform="matrix(9.4645,0,0,-9.4645,166.44339,82.46367)" fill="#6100ad"/>
<use xlink:href="#font_1_4" transform="matrix(9.4645,0,0,-9.4645,171.5353,82.24599)" fill="#6100ad"/>
<use xlink:href="#font_1_7" transform="matrix(9.4645,0,0,-9.4645,174.79097,82.46367)" fill="#6100ad"/>
<use xlink:href="#font_1_5" transform="matrix(9.4645,0,0,-9.4645,179.75984,82.46367)" fill="#6100ad"/>
<use xlink:href="#font_1_6" transform="matrix(9.4645,0,0,-9.4645,184.30281,82.46367)" fill="#6100ad"/>
<symbol id="font_1_a">
<path d="M .49300004 .072000008 C .48400004 .07000001 .48000003 .07000001 .47500003 .07000001 C .44600005 .07000001 .43000005 .08500001 .43000005 .11100001 L .43000005 .41900004 C .43000005 .512 .36200003 .56200006 .23300001 .56200006 C .157 .56200006 .094000007 .54 .059 .50100007 C .035000005 .47400005 .024999999 .44400005 .023000002 .39200003 L .107 .39200003 C .114 .45600004 .15200001 .485 .23000002 .485 C .305 .485 .34700004 .45700003 .34700004 .407 L .34700004 .38500003 C .34700004 .35000003 .32600004 .335 .26000003 .32700003 C .14200002 .312 .124000009 .30800004 .092 .29500003 C .031000004 .27 0 .223 0 .155 C 0 .060000004 .066 0 .17200002 0 C .238 0 .291 .023000002 .35000003 .07700001 C .35600005 .024000003 .38200004 0 .43600003 0 C .45300005 0 .46600003 .0020000004 .49300004 .0090000019 L .49300004 .072000008 M .34700004 .18800001 C .34700004 .16000001 .33900003 .143 .314 .120000008 C .28000004 .089 .23900002 .073 .19 .073 C .125 .073 .087000008 .104 .087000008 .157 C .087000008 .21200001 .124000009 .24000001 .21300003 .25300003 C .30100004 .26500003 .31900005 .269 .34700004 .282 L .34700004 .18800001 Z "/>
</symbol>
<symbol id="font_1_11">
<path d="M .38300003 .74200007 L .38300003 .666 C .341 .72800007 .29 .757 .223 .757 C .09 .757 0 .64100006 0 .47100003 C 0 .38500003 .023 .315 .06600001 .26500003 C .105000007 .22100002 .16100002 .19500001 .216 .19500001 C .282 .19500001 .328 .223 .375 .289 L .375 .26200003 C .375 .19100002 .366 .148 .345 .119 C .323 .088 .28 .07000001 .22900002 .07000001 C .19100002 .07000001 .157 .08 .134 .098000008 C .11500001 .113000009 .10700001 .127 .10200001 .158 L .017000003 .158 C .026000003 .059 .103 0 .22600003 0 C .304 0 .371 .025000006 .405 .067 C .44500003 .115 .46 .18100001 .46 .30400003 L .46 .74200007 L .38300003 .74200007 M .23200001 .68 C .322 .68 .375 .60400006 .375 .47300006 C .375 .34800003 .321 .272 .23300003 .272 C .142 .272 .087000008 .34900005 .087000008 .476 C .087000008 .602 .143 .68 .23200001 .68 Z "/>
</symbol>
<symbol id="font_1_10">
<path d="M .47300003 .25700004 C .47300003 .337 .46700005 .38500003 .45200003 .42400003 C .41800005 .51 .33800004 .56200006 .24 .56200006 C .094 .56200006 0 .45000003 0 .27800004 C 0 .106000009 .091000009 0 .23800002 0 C .35800005 0 .44100005 .068 .46200005 .18200001 L .37800003 .18200001 C .35500003 .113000009 .30800004 .07700001 .24100001 .07700001 C .18800001 .07700001 .143 .101 .114999998 .14500001 C .095 .17500001 .088 .20500002 .087 .25700004 L .47300003 .25700004 M .089 .32500003 C .096 .42200003 .155 .485 .23900001 .485 C .32100005 .485 .38400004 .41700004 .38400004 .33100004 C .38400004 .32900004 .38400004 .32700003 .38300003 .32500003 L .089 .32500003 Z "/>
</symbol>
<symbol id="font_1_8">
<path d="M .27500005 0 L .47600005 .52400007 L .38200004 .52400007 L .23400001 .09900001 L .094000007 .52400007 L 0 .52400007 L .184 0 L .27500005 0 Z "/>
</symbol>
<symbol id="font_1_2">
<path d="M .23600002 .56200006 C .089 .56200006 0 .45700003 0 .28100003 C 0 .105000007 .088 0 .237 0 C .384 0 .47400005 .105000007 .47400005 .277 C .47400005 .45800004 .387 .56200006 .23600002 .56200006 M .237 .485 C .331 .485 .387 .40800003 .387 .27800004 C .387 .155 .329 .07700001 .237 .07700001 C .14400001 .07700001 .087 .15400002 .087 .28100003 C .087 .407 .14400001 .485 .237 .485 Z "/>
</symbol>
<symbol id="font_1_12">
<path d="M .08400001 .52400007 L .001000002 .52400007 L .001000002 0 L .08400001 0 L .08400001 .52400007 M .08400001 .72900006 L 0 .72900006 L 0 .624 L .08400001 .624 L .08400001 .72900006 Z "/>
</symbol>
<use xlink:href="#font_1_14" transform="matrix(9.4645,0,0,-9.4645,141.61952,152.38899)" fill="#ffffff"/>
<use xlink:href="#font_1_a" transform="matrix(9.4645,0,0,-9.4645,149.23844,152.60668)" fill="#ffffff"/>
<use xlink:href="#font_1_11" transform="matrix(9.4645,0,0,-9.4645,154.37767,154.45226)" fill="#ffffff"/>
<use xlink:href="#font_1_14" transform="matrix(9.4645,0,0,-9.4645,160.02799,152.38899)" fill="#ffffff"/>
<use xlink:href="#font_1_a" transform="matrix(9.4645,0,0,-9.4645,167.6469,152.60668)" fill="#ffffff"/>
<use xlink:href="#font_1_4" transform="matrix(9.4645,0,0,-9.4645,175.79599,152.38899)" fill="#ffffff"/>
<use xlink:href="#font_1_10" transform="matrix(9.4645,0,0,-9.4645,178.6732,152.60668)" fill="#ffffff"/>
<use xlink:href="#font_1_5" transform="matrix(9.4645,0,0,-9.4645,183.87868,152.60668)" fill="#ffffff"/>
<use xlink:href="#font_1_10" transform="matrix(9.4645,0,0,-9.4645,188.66773,152.60668)" fill="#ffffff"/>
<use xlink:href="#font_1_4" transform="matrix(9.4645,0,0,-9.4645,194.20446,152.38899)" fill="#ffffff"/>
<use xlink:href="#font_1_8" transform="matrix(9.4645,0,0,-9.4645,197.08174,152.38899)" fill="#ffffff"/>
<use xlink:href="#font_1_2" transform="matrix(9.4645,0,0,-9.4645,201.82353,152.60668)" fill="#ffffff"/>
<use xlink:href="#font_1_12" transform="matrix(9.4645,0,0,-9.4645,207.36974,152.38899)" fill="#ffffff"/>
<use xlink:href="#font_1_4" transform="matrix(9.4645,0,0,-9.4645,209.49924,152.38899)" fill="#ffffff"/>
<symbol id="font_1_c">
<path d="M 0 .75200006 L 0 .023000002 L .075 .023000002 L .075 .09 C .11500001 .029000003 .16800002 0 .24100001 0 C .37900005 0 .469 .113000009 .469 .287 C .469 .45700003 .38300003 .56200006 .24500002 .56200006 C .17300001 .56200006 .12200001 .535 .083000008 .476 L .083000008 .75200006 L 0 .75200006 M .22900002 .48400004 C .32200004 .48400004 .38200004 .40300004 .38200004 .27800004 C .38200004 .15900001 .32000003 .07800001 .22900002 .07800001 C .141 .07800001 .083000008 .158 .083000008 .28100003 C .083000008 .404 .141 .48400004 .22900002 .48400004 Z "/>
</symbol>
<symbol id="font_1_1">
<path d="M 0 .52400007 L 0 0 L .084000017 0 L .084000017 .289 C .084000017 .39600004 .14000002 .46600003 .22600001 .46600003 C .29200004 .46600003 .33400003 .42600004 .33400003 .363 L .33400003 0 L .41700004 0 L .41700004 .39600004 C .41700004 .483 .35200004 .53900006 .25100003 .53900006 C .17300001 .53900006 .123 .509 .077 .43600003 L .077 .52400007 L 0 .52400007 Z "/>
</symbol>
<symbol id="font_1_f">
<path d="M .46900005 .75200006 L .38600005 .75200006 L .38600005 .48100005 C .351 .53400006 .29500003 .56200006 .22500003 .56200006 C .089 .56200006 0 .453 0 .286 C 0 .109000008 .087000008 0 .22800002 0 C .3 0 .35000003 .027000003 .39500005 .09200001 L .39500005 .023000002 L .46900005 .023000002 L .46900005 .75200006 M .23900002 .48400004 C .32900004 .48400004 .38600005 .404 .38600005 .279 C .38600005 .158 .328 .07800001 .24000001 .07800001 C .148 .07800001 .087000008 .15900001 .087000008 .28100003 C .087000008 .40300004 .148 .48400004 .23900002 .48400004 Z "/>
</symbol>
<symbol id="font_1_d">
<path d="M .368 .74200007 L .22300002 .33400003 L .089 .74200007 L 0 .74200007 L .17700002 .216 L .14500001 .13300002 C .13200002 .096 .113 .082 .078 .082 C .066 .082 .052 .08400001 .034 .088 L .034 .012999997 C .051 .003999993 .068 0 .09 0 C .117000009 0 .14600002 .009000003 .16800002 .025000006 C .19400002 .044 .20900002 .066 .22500001 .108 L .458 .74200007 L .368 .74200007 Z "/>
</symbol>
<use xlink:href="#font_1_c" transform="matrix(9.4645,0,0,-9.4645,3.6649929,124.26167)" fill="#6100ad"/>
<use xlink:href="#font_1_2" transform="matrix(9.4645,0,0,-9.4645,8.756895,124.26167)" fill="#6100ad"/>
<use xlink:href="#font_1_7" transform="matrix(9.4645,0,0,-9.4645,14.293629,124.26167)" fill="#6100ad"/>
<use xlink:href="#font_1_1" transform="matrix(9.4645,0,0,-9.4645,19.603215,124.04399)" fill="#6100ad"/>
<use xlink:href="#font_1_f" transform="matrix(9.4645,0,0,-9.4645,24.449038,124.26167)" fill="#6100ad"/>
<use xlink:href="#font_1_a" transform="matrix(9.4645,0,0,-9.4645,29.862732,124.26167)" fill="#6100ad"/>
<use xlink:href="#font_1_4" transform="matrix(9.4645,0,0,-9.4645,35.380537,124.04399)" fill="#6100ad"/>
<use xlink:href="#font_1_d" transform="matrix(9.4645,0,0,-9.4645,38.352575,126.107257)" fill="#6100ad"/>
<path transform="matrix(.1,0,0,-.1,0,243.43)" stroke-width="3.98" stroke-linecap="butt" stroke-miterlimit="10" stroke-linejoin="miter" fill="none" stroke="#6100ad" d="M 434.629 1195.85 L 463.02 1195.85 "/>
<symbol id="font_1_b">
<path d="M .27500005 .27100004 L .45100004 .52400007 L .35700003 .52400007 L .231 .33400003 L .105000007 .52400007 L .01 .52400007 L .185 .26700003 L 0 0 L .095 0 L .228 .201 L .35900004 0 L .45600004 0 L .27500005 .27100004 Z "/>
</symbol>
<use xlink:href="#font_1_b" transform="matrix(9.4645,0,0,-9.4645,46.462896,124.04399)" fill="#6100ad"/>
<use xlink:href="#font_1_1" transform="matrix(9.4645,0,0,-9.4645,51.696763,124.04399)" fill="#6100ad"/>
<use xlink:href="#font_1_10" transform="matrix(9.4645,0,0,-9.4645,56.67509,124.26167)" fill="#6100ad"/>
<use xlink:href="#font_1_11" transform="matrix(9.4645,0,0,-9.4645,61.83325,126.107257)" fill="#6100ad"/>
<path transform="matrix(.1,0,0,-.1,0,243.43)" stroke-width="19.9255" stroke-linecap="butt" stroke-miterlimit="10" stroke-linejoin="miter" fill="none" stroke="#6100ad" d="M 701.711 1279.54 C 872.332 1309.65 743.715 1187.44 834.867 1203.51 "/>
<path transform="matrix(.1,0,0,-.1,0,243.43)" d="M 873.633 1210.34 C 868.668 1210.67 846.578 1213.56 832.238 1218.42 L 837.496 1188.6 C 849.313 1198.07 869.078 1208.34 873.633 1210.34 Z " fill="#6100ad"/>
<path transform="matrix(.1,0,0,-.1,0,243.43)" stroke-width="17.9324" stroke-linecap="butt" stroke-miterlimit="10" stroke-linejoin="miter" fill="none" stroke="#6100ad" d="M 873.633 1210.34 C 868.668 1210.67 846.578 1213.56 832.238 1218.42 L 837.496 1188.6 C 849.313 1198.07 869.078 1208.34 873.633 1210.34 Z "/>
<use xlink:href="#font_1_c" transform="matrix(9.4645,0,0,-9.4645,286.64408,124.301677)" fill="#6100ad"/>
<use xlink:href="#font_1_2" transform="matrix(9.4645,0,0,-9.4645,291.736,124.301677)" fill="#6100ad"/>
<use xlink:href="#font_1_7" transform="matrix(9.4645,0,0,-9.4645,297.27275,124.301677)" fill="#6100ad"/>
<use xlink:href="#font_1_1" transform="matrix(9.4645,0,0,-9.4645,302.5823,124.08399)" fill="#6100ad"/>
<use xlink:href="#font_1_f" transform="matrix(9.4645,0,0,-9.4645,307.42814,124.301677)" fill="#6100ad"/>
<use xlink:href="#font_1_a" transform="matrix(9.4645,0,0,-9.4645,312.84187,124.301677)" fill="#6100ad"/>
<use xlink:href="#font_1_4" transform="matrix(9.4645,0,0,-9.4645,318.35966,124.08399)" fill="#6100ad"/>
<use xlink:href="#font_1_d" transform="matrix(9.4645,0,0,-9.4645,321.3317,126.147258)" fill="#6100ad"/>
<path transform="matrix(.1,0,0,-.1,0,243.43)" stroke-width="3.98" stroke-linecap="butt" stroke-miterlimit="10" stroke-linejoin="miter" fill="none" stroke="#6100ad" d="M 3264.42 1195.45 L 3292.81 1195.45 "/>
<symbol id="font_1_3">
<path d="M 0 0 L .08400001 0 L .08400001 .273 C .128 .21900001 .177 .19500001 .24500002 .19500001 C .38000003 .19500001 .469 .30400003 .469 .47100003 C .469 .647 .38300003 .757 .244 .757 C .17300001 .757 .116 .725 .07700001 .66300007 L .07700001 .74200007 L 0 .74200007 L 0 0 M .23 .679 C .32200004 .679 .38200004 .59800007 .38200004 .47300006 C .38200004 .35400004 .32100005 .273 .23 .273 C .142 .273 .08400001 .35300002 .08400001 .476 C .08400001 .59900006 .142 .679 .23 .679 Z "/>
</symbol>
<use xlink:href="#font_1_b" transform="matrix(9.4645,0,0,-9.4645,329.4419,124.08399)" fill="#6100ad"/>
<use xlink:href="#font_1_3" transform="matrix(9.4645,0,0,-9.4645,334.52433,126.147258)" fill="#6100ad"/>
<use xlink:href="#font_1_2" transform="matrix(9.4645,0,0,-9.4645,339.61625,124.301677)" fill="#6100ad"/>
<use xlink:href="#font_1_5" transform="matrix(9.4645,0,0,-9.4645,344.8596,124.301677)" fill="#6100ad"/>
<path transform="matrix(.1,0,0,-.1,0,243.43)" stroke-width="19.9255" stroke-linecap="butt" stroke-miterlimit="10" stroke-linejoin="miter" fill="none" stroke="#6100ad" d="M 2827.83 1155.94 C 2657.21 1125.86 2785.82 1247.61 2694.68 1231.53 "/>
<path transform="matrix(.1,0,0,-.1,0,243.43)" d="M 2655.91 1224.7 C 2660.87 1224.38 2682.96 1221.48 2697.3 1216.63 L 2692.05 1246.44 C 2680.23 1236.97 2660.46 1226.7 2655.91 1224.7 Z " fill="#6100ad"/>
<path transform="matrix(.1,0,0,-.1,0,243.43)" stroke-width="17.9324" stroke-linecap="butt" stroke-miterlimit="10" stroke-linejoin="miter" fill="none" stroke="#6100ad" d="M 2655.91 1224.7 C 2660.87 1224.38 2682.96 1221.48 2697.3 1216.63 L 2692.05 1246.44 C 2680.23 1236.97 2660.46 1226.7 2655.91 1224.7 Z "/>
<use xlink:href="#font_1_c" transform="matrix(9.4645,0,0,-9.4645,102.63309,238.38751)" fill="#6100ad"/>
<use xlink:href="#font_1_2" transform="matrix(9.4645,0,0,-9.4645,107.72498,238.38751)" fill="#6100ad"/>
<use xlink:href="#font_1_7" transform="matrix(9.4645,0,0,-9.4645,113.26172,238.38751)" fill="#6100ad"/>
<use xlink:href="#font_1_1" transform="matrix(9.4645,0,0,-9.4645,118.5713,238.16983)" fill="#6100ad"/>
<use xlink:href="#font_1_f" transform="matrix(9.4645,0,0,-9.4645,123.41712,238.38751)" fill="#6100ad"/>
<use xlink:href="#font_1_a" transform="matrix(9.4645,0,0,-9.4645,128.83081,238.38751)" fill="#6100ad"/>
<use xlink:href="#font_1_4" transform="matrix(9.4645,0,0,-9.4645,134.34862,238.16983)" fill="#6100ad"/>
<use xlink:href="#font_1_d" transform="matrix(9.4645,0,0,-9.4645,137.32065,240.2331)" fill="#6100ad"/>
<path transform="matrix(.1,0,0,-.1,0,243.43)" stroke-width="3.98" stroke-linecap="butt" stroke-miterlimit="10" stroke-linejoin="miter" fill="none" stroke="#6100ad" d="M 1424.3 54.6016 L 1452.69 54.6016 "/>
<use xlink:href="#font_1_d" transform="matrix(9.4645,0,0,-9.4645,145.45929,240.2331)" fill="#6100ad"/>
<use xlink:href="#font_1_1" transform="matrix(9.4645,0,0,-9.4645,150.66478,238.16983)" fill="#6100ad"/>
<use xlink:href="#font_1_10" transform="matrix(9.4645,0,0,-9.4645,155.64311,238.38751)" fill="#6100ad"/>
<use xlink:href="#font_1_11" transform="matrix(9.4645,0,0,-9.4645,160.80127,240.2331)" fill="#6100ad"/>
<path transform="matrix(.1,0,0,-.1,0,243.43)" stroke-width="19.9255" stroke-linecap="butt" stroke-miterlimit="10" stroke-linejoin="miter" fill="none" stroke="#6100ad" d="M 1325.74 154.48 C 1296.83 318.438 1368.45 203.152 1353.55 287.637 "/>
<path transform="matrix(.1,0,0,-.1,0,243.43)" d="M 1346.72 326.402 C 1346.4 321.438 1343.5 299.352 1338.65 285.008 L 1368.46 290.266 C 1359 302.082 1348.72 321.848 1346.72 326.402 Z " fill="#6100ad"/>
<path transform="matrix(.1,0,0,-.1,0,243.43)" stroke-width="17.9324" stroke-linecap="butt" stroke-miterlimit="10" stroke-linejoin="miter" fill="none" stroke="#6100ad" d="M 1346.72 326.402 C 1346.4 321.438 1343.5 299.352 1338.65 285.008 L 1368.46 290.266 C 1359 302.082 1348.72 321.848 1346.72 326.402 Z "/>
<use xlink:href="#font_1_c" transform="matrix(9.4645,0,0,-9.4645,145.41808,10.212679)" fill="#6100ad"/>
<use xlink:href="#font_1_2" transform="matrix(9.4645,0,0,-9.4645,150.51,10.212679)" fill="#6100ad"/>
<use xlink:href="#font_1_7" transform="matrix(9.4645,0,0,-9.4645,156.04673,10.212679)" fill="#6100ad"/>
<use xlink:href="#font_1_1" transform="matrix(9.4645,0,0,-9.4645,161.35633,9.994995)" fill="#6100ad"/>
<use xlink:href="#font_1_f" transform="matrix(9.4645,0,0,-9.4645,166.20215,10.212679)" fill="#6100ad"/>
<use xlink:href="#font_1_a" transform="matrix(9.4645,0,0,-9.4645,171.61585,10.212679)" fill="#6100ad"/>
<use xlink:href="#font_1_4" transform="matrix(9.4645,0,0,-9.4645,177.13365,9.994995)" fill="#6100ad"/>
<use xlink:href="#font_1_d" transform="matrix(9.4645,0,0,-9.4645,180.10569,12.058256)" fill="#6100ad"/>
<path transform="matrix(.1,0,0,-.1,0,243.43)" stroke-width="3.98" stroke-linecap="butt" stroke-miterlimit="10" stroke-linejoin="miter" fill="none" stroke="#6100ad" d="M 1852.16 2336.35 L 1880.55 2336.35 "/>
<use xlink:href="#font_1_d" transform="matrix(9.4645,0,0,-9.4645,188.24428,12.058256)" fill="#6100ad"/>
<use xlink:href="#font_1_3" transform="matrix(9.4645,0,0,-9.4645,193.29833,12.058256)" fill="#6100ad"/>
<use xlink:href="#font_1_2" transform="matrix(9.4645,0,0,-9.4645,198.39025,10.212679)" fill="#6100ad"/>
<use xlink:href="#font_1_5" transform="matrix(9.4645,0,0,-9.4645,203.63358,10.212679)" fill="#6100ad"/>
<path transform="matrix(.1,0,0,-.1,0,243.43)" stroke-width="19.9255" stroke-linecap="butt" stroke-miterlimit="10" stroke-linejoin="miter" fill="none" stroke="#6100ad" d="M 1778.48 2280.6 C 1807.39 2116.64 1735.84 2231.93 1750.74 2147.45 "/>
<path transform="matrix(.1,0,0,-.1,0,243.43)" d="M 1757.57 2108.68 C 1757.9 2113.64 1760.79 2135.73 1765.65 2150.07 L 1735.83 2144.82 C 1745.3 2133 1755.57 2113.23 1757.57 2108.68 Z " fill="#6100ad"/>
<path transform="matrix(.1,0,0,-.1,0,243.43)" stroke-width="17.9324" stroke-linecap="butt" stroke-miterlimit="10" stroke-linejoin="miter" fill="none" stroke="#6100ad" d="M 1757.57 2108.68 C 1757.9 2113.64 1760.79 2135.73 1765.65 2150.07 L 1735.83 2144.82 C 1745.3 2133 1755.57 2113.23 1757.57 2108.68 Z "/>
<symbol id="font_1_15">
<path d="M .24 .52400007 L .153 .52400007 L .153 .606 C .153 .64100006 .17300001 .65900006 .21100001 .65900006 C .21800001 .65900006 .221 .65900006 .24 .65800008 L .24 .72700008 C .221 .731 .21000001 .73200008 .193 .73200008 C .116 .73200008 .07000001 .688 .07000001 .61300006 L .07000001 .52400007 L 0 .52400007 L 0 .45600004 L .07000001 .45600004 L .07000001 0 L .153 0 L .153 .45600004 L .24 .45600004 L .24 .52400007 M .41300003 .72900006 L .33 .72900006 L .33 0 L .41300003 0 L .41300003 .72900006 Z "/>
</symbol>
<symbol id="font_1_9">
<path d="M .54800006 0 L .702 .52400007 L .60800006 .52400007 L .50400009 .116000007 L .401 .52400007 L .299 .52400007 L .19900002 .116000007 L .09200001 .52400007 L 0 .52400007 L .15200001 0 L .246 0 L .347 .411 L .453 0 L .54800006 0 Z "/>
</symbol>
<use xlink:href="#font_1_12" transform="matrix(9.4645,0,0,-9.4645,182.08667,238.24602)" fill="#6100ad"/>
<use xlink:href="#font_1_1" transform="matrix(9.4645,0,0,-9.4645,184.22565,238.24602)" fill="#6100ad"/>
<use xlink:href="#font_1_15" transform="matrix(9.4645,0,0,-9.4645,188.9863,238.24602)" fill="#6100ad"/>
<use xlink:href="#font_1_2" transform="matrix(9.4645,0,0,-9.4645,193.89838,238.4637)" fill="#6100ad"/>
<use xlink:href="#font_1_9" transform="matrix(9.4645,0,0,-9.4645,198.73484,238.24602)" fill="#6100ad"/>
<path transform="matrix(.1,0,0,-.1,0,243.43)" stroke-width="19.9255" stroke-linecap="butt" stroke-miterlimit="10" stroke-linejoin="miter" fill="none" stroke="#6100ad" d="M 1909.8 154.48 C 1841.04 343.395 1833.53 178.195 1792.37 291.277 "/>
<path transform="matrix(.1,0,0,-.1,0,243.43)" d="M 1778.91 328.27 C 1779.45 323.32 1780.44 301.066 1778.14 286.098 L 1806.6 296.457 C 1795.22 306.449 1781.67 324.129 1778.91 328.27 Z " fill="#6100ad"/>
<path transform="matrix(.1,0,0,-.1,0,243.43)" stroke-width="17.9323" stroke-linecap="butt" stroke-miterlimit="10" stroke-linejoin="miter" fill="none" stroke="#6100ad" d="M 1778.91 328.27 C 1779.45 323.32 1780.44 301.066 1778.14 286.098 L 1806.6 296.457 C 1795.22 306.449 1781.67 324.129 1778.91 328.27 Z "/>
</g>
</svg>
