<?xml version="1.0" encoding="UTF-8" standalone="no"?>
<!DOCTYPE svg PUBLIC "-//W3C//DTD SVG 1.1//EN" "http://www.w3.org/Graphics/SVG/1.1/DTD/svg11.dtd">
<svg xmlns="http://www.w3.org/2000/svg" xmlns:xlink="http://www.w3.org/1999/xlink" version="1.1" width="247.9pt" height="242.75pt" viewBox="0 0 247.9 242.75">
<g enable-background="new">
<path transform="matrix(.1,0,0,-.1,0,242.75)" d="M 389.059 365.43 L 2089.919 365.43 L 2089.919 2066.29 L 389.059 2066.29 Z " fill="#cceeff"/>
<path transform="matrix(.1,0,0,-.1,0,242.75)" stroke-width="9.9628" stroke-linecap="butt" stroke-miterlimit="10" stroke-linejoin="miter" fill="none" stroke="#1f6e96" d="M 389.059 365.43 L 2089.919 365.43 L 2089.919 2066.29 L 389.059 2066.29 Z "/>
<path transform="matrix(.1,0,0,-.1,0,242.75)" d="M 1664.7 932.383 C 1664.7 979.352 1474.33 1017.43 1239.49 1017.43 C 1004.65 1017.43 814.285 979.352 814.285 932.383 C 814.285 885.414 1004.65 847.344 1239.49 847.344 C 1474.33 847.344 1664.7 885.414 1664.7 932.383 Z M 1239.49 932.383 " fill="#ff4040"/>
<path transform="matrix(.1,0,0,-.1,0,242.75)" stroke-width="3.985" stroke-linecap="butt" stroke-miterlimit="10" stroke-linejoin="miter" fill="none" stroke="#ff4040" d="M 1664.7 932.383 C 1664.7 979.352 1474.33 1017.43 1239.49 1017.43 C 1004.65 1017.43 814.285 979.352 814.285 932.383 C 814.285 885.414 1004.65 847.344 1239.49 847.344 C 1474.33 847.344 1664.7 885.414 1664.7 932.383 Z M 1239.49 932.383 "/>
<path transform="matrix(.1,0,0,-.1,0,242.75)" d="M 1196.98 365.43 L 1196.98 847.336 L 853.176 923.738 C 831.691 928.512 831.77 935.883 853.352 940.199 L 1200.41 1009.62 C 1222 1013.93 1256.98 1013.93 1278.57 1009.62 L 1625.63 940.199 C 1647.21 935.883 1647.29 928.512 1625.8 923.738 L 1282 847.336 L 1282 365.43 Z " fill="#ff4040"/>
<path transform="matrix(.1,0,0,-.1,0,242.75)" stroke-width="3.985" stroke-linecap="butt" stroke-miterlimit="10" stroke-linejoin="miter" fill="none" stroke="#ff4040" d="M 1196.98 365.43 L 1196.98 847.336 L 853.176 923.738 C 831.691 928.512 831.77 935.883 853.352 940.199 L 1200.41 1009.62 C 1222 1013.93 1256.98 1013.93 1278.57 1009.62 L 1625.63 940.199 C 1647.21 935.883 1647.29 928.512 1625.8 923.738 L 1282 847.336 L 1282 365.43 Z "/>
<path transform="matrix(.1,0,0,-.1,0,242.75)" stroke-width="19.9255" stroke-linecap="butt" stroke-miterlimit="10" stroke-linejoin="miter" fill="none" stroke="#6100ad" d="M 1196.98 365.43 L 1282 365.43 "/>
<path transform="matrix(.1,0,0,-.1,0,242.75)" stroke-width="9.9628" stroke-linecap="butt" stroke-miterlimit="10" stroke-linejoin="miter" fill="none" stroke="#3b7d08" d="M 389.059 790.637 C 389.059 808.234 374.789 822.504 357.188 822.504 C 339.586 822.504 325.32 808.234 325.32 790.637 C 325.32 773.035 339.586 758.766 357.188 758.766 C 374.789 758.766 389.059 773.035 389.059 790.637 Z M 357.188 790.637 "/>
<clipPath id="cp0">
<path transform="matrix(.1,0,0,-.1,0,242.75)" d="M 238.258 677.246 L 323.301 677.246 L 323.301 904.02297 L 238.258 904.02297 Z "/>
</clipPath>
<g clip-path="url(#cp0)">
<symbol id="pac1" style="overflow:visible">
<g clip-path="url(#cp2)">
<path transform="matrix(.1,0,0,-.1,-.00390625,242.7539)" stroke-width="3.985" stroke-linecap="butt" stroke-miterlimit="10" stroke-linejoin="miter" fill="none" stroke="#3b7d08" d="M 0 0 L 30.8828 30.8828 "/>
</g>
</symbol>
<pattern id="pa1" patternUnits="userSpaceOnUse" patternContentUnits="userSpaceOnUse" x="0" y="0" width="2.98883" height="2.98883">
<clipPath id="cp3">
<path d="M -.99628 -.99628 L 3.9851 -.99628 L 3.9851 3.9851 L -.99628 3.9851 Z"/>
</clipPath>
<g clip-path="url(#cp3)">
<g transform="matrix(1,0,0,-1,.00390625,242.7539)">
<use x="0" y="0" xlink:href="#pac1"/>
<use x="0" y="-2.98883" xlink:href="#pac1"/>
<use x="-2.98883" y="0" xlink:href="#pac1"/>
<use x="-2.98883" y="-2.98883" xlink:href="#pac1"/>
</g>
</g>
</pattern>
<clipPath id="cp2">
<path transform="matrix(.1,0,0,-.1,-.00390625,242.7539)" d="M -10 -10 L -10 40 L 40 40 L 40 -10 Z "/>
</clipPath>
<rect transform="matrix(1,0,0,-1,-.00390625,242.7539)" fill="url(#pa1)" x="23.829707" y="67.728519" width="8.504301" height="22.677689"/>
</g>
<path transform="matrix(.1,0,0,-.1,0,242.75)" stroke-width="9.9628" stroke-linecap="butt" stroke-miterlimit="10" stroke-linejoin="miter" fill="none" stroke="#3b7d08" d="M 389.059 1641.05 C 389.059 1658.65 374.789 1672.92 357.188 1672.92 C 339.586 1672.92 325.32 1658.65 325.32 1641.05 C 325.32 1623.45 339.586 1609.18 357.188 1609.18 C 374.789 1609.18 389.059 1623.45 389.059 1641.05 Z M 357.188 1641.05 "/>
<clipPath id="cp4">
<path transform="matrix(.1,0,0,-.1,0,242.75)" d="M 238.258 1527.66 L 323.301 1527.66 L 323.301 1754.433 L 238.258 1754.433 Z "/>
</clipPath>
<g clip-path="url(#cp4)">
<symbol id="pac5" style="overflow:visible">
<g clip-path="url(#cp6)">
<path transform="matrix(.1,0,0,-.1,-.00390625,242.7539)" stroke-width="3.985" stroke-linecap="butt" stroke-miterlimit="10" stroke-linejoin="miter" fill="none" stroke="#3b7d08" d="M 0 0 L 30.8828 30.8828 "/>
</g>
</symbol>
<pattern id="pa5" patternUnits="userSpaceOnUse" patternContentUnits="userSpaceOnUse" x="0" y="0" width="2.98883" height="2.98883">
<clipPath id="cp7">
<path d="M -.99628 -.99628 L 3.9851 -.99628 L 3.9851 3.9851 L -.99628 3.9851 Z"/>
</clipPath>
<g clip-path="url(#cp7)">
<g transform="matrix(1,0,0,-1,.00390625,242.7539)">
<use x="0" y="0" xlink:href="#pac5"/>
<use x="0" y="-2.98883" xlink:href="#pac5"/>
<use x="-2.98883" y="0" xlink:href="#pac5"/>
<use x="-2.98883" y="-2.98883" xlink:href="#pac5"/>
</g>
</g>
</pattern>
<clipPath id="cp6">
<path transform="matrix(.1,0,0,-.1,-.00390625,242.7539)" d="M -10 -10 L -10 40 L 40 40 L 40 -10 Z "/>
</clipPath>
<rect transform="matrix(1,0,0,-1,-.00390625,242.7539)" fill="url(#pa5)" x="23.829707" y="152.76992" width="8.504301" height="22.677292"/>
</g>
<symbol id="font_8_3">
<path d="M .321 .067 C .33200003 .026 .367 0 .41 0 C .44500003 0 .468 .023000002 .484 .055000005 C .50100007 .091000009 .51400008 .15200001 .51400008 .15400002 C .51400008 .16400002 .50500008 .16400002 .50200006 .16400002 C .492 .16400002 .49100004 .16000001 .488 .14600002 C .474 .09 .455 .022000002 .41300003 .022000002 C .39200003 .022000002 .382 .035 .382 .068 C .382 .09 .394 .13700001 .402 .17200002 L .43 .28000004 C .433 .29500003 .44300003 .33300004 .447 .34800003 C .45200003 .37100003 .462 .40900005 .462 .41500003 C .462 .43300004 .448 .44200004 .433 .44200004 C .428 .44200004 .402 .441 .394 .40700004 C .375 .33400003 .331 .15900001 .319 .106000009 C .318 .102000009 .278 .022000002 .20500002 .022000002 C .15300001 .022000002 .143 .067 .143 .104 C .143 .16000001 .171 .23900002 .19700001 .30800004 C .209 .33800004 .21400002 .35200004 .21400002 .37100003 C .21400002 .41600005 .18200001 .45300005 .13200002 .45300005 C .037 .45300005 0 .30800004 0 .29900003 C 0 .28900004 .01 .28900004 .012 .28900004 C .022000002 .28900004 .023 .291 .028000003 .307 C .053000004 .39400003 .091000009 .43100003 .12900001 .43100003 C .13800001 .43100003 .15400002 .43000005 .15400002 .39800004 C .15400002 .374 .143 .34500004 .13700001 .33 C .10000001 .23100002 .079 .16900002 .079 .120000008 C .079 .025000003 .148 0 .202 0 C .268 0 .304 .045 .321 .067 Z "/>
</symbol>
<use xlink:href="#font_8_3" transform="matrix(9.9626,0,0,-9.9626,3.4428254,123.73859)" fill="#6100ad"/>
<symbol id="font_9_1">
<path d="M .201 .116000007 C .19100002 .082 .15800002 .028 .107 .028 C .10400001 .028 .07400001 .028 .053000004 .042000005 C .094000007 .055000005 .09700001 .091 .09700001 .097 C .09700001 .119 .080000009 .134 .057000005 .134 C .029000007 .134 0 .11 0 .073 C 0 .023000002 .056 0 .10500001 0 C .15100003 0 .192 .029000003 .21700001 .071 C .241 .018000002 .296 0 .336 0 C .451 0 .512 .125 .512 .15300001 C .512 .16600001 .49900005 .16600001 .49600003 .16600001 C .48200003 .16600001 .48100005 .16100002 .47700004 .14900002 C .456 .08 .39600004 .028 .34 .028 C .3 .028 .279 .055000005 .279 .093 C .279 .119 .303 .21000001 .331 .321 C .351 .398 .39600004 .423 .42900003 .423 C .43100003 .423 .46200005 .423 .483 .409 C .451 .4 .439 .372 .439 .354 C .439 .33200003 .456 .317 .479 .317 C .50200006 .317 .535 .336 .535 .37800003 C .535 .43400003 .47100006 .451 .43100003 .451 C .381 .451 .34100003 .418 .319 .38 C .301 .421 .255 .451 .199 .451 C .087000008 .451 .023000002 .328 .023000002 .298 C .023000002 .285 .037 .285 .040000008 .285 C .053000004 .285 .054000006 .289 .059000009 .30200003 C .084 .38 .14700002 .423 .19600001 .423 C .229 .423 .256 .405 .256 .357 C .256 .337 .24400002 .287 .23500002 .25300003 L .201 .116000007 Z "/>
</symbol>
<use xlink:href="#font_9_1" transform="matrix(6.9738,0,0,-6.9738,9.192562,125.19366)" fill="#6100ad"/>
<symbol id="font_a_1">
<path d="M .63100007 .19400002 C .646 .19400002 .665 .19400002 .665 .214 C .665 .23400001 .646 .23400001 .632 .23400001 L .033 .23400001 C .019000002 .23400001 0 .23400001 0 .214 C 0 .19400002 .019000002 .19400002 .034 .19400002 L .63100007 .19400002 M .632 0 C .646 0 .665 0 .665 .02000001 C .665 .040000008 .646 .040000008 .63100007 .040000008 L .034 .040000008 C .019000002 .040000008 0 .040000008 0 .02000001 C 0 0 .019000002 0 .033 0 L .632 0 Z "/>
</symbol>
<symbol id="font_a_4">
<path d="M .421 .34200005 C .421 .42200003 .416 .50200006 .381 .57600006 C .335 .67200008 .25300003 .688 .211 .688 C .15100001 .688 .07800001 .66200008 .037000006 .56900009 C .0050000029 .5 0 .42200003 0 .34200005 C 0 .26700003 .0040000008 .177 .045000007 .101 C .088 .020000002 .161 0 .21000001 0 C .264 0 .34 .021000002 .384 .116000007 C .416 .185 .421 .263 .421 .34200005 M .21000001 .022000002 C .171 .022000002 .112 .047000003 .094 .143 C .083000008 .20300001 .083000008 .29500003 .083000008 .35400004 C .083000008 .41800005 .083000008 .48400004 .091000009 .53800007 C .11 .65700009 .185 .66600009 .21000001 .66600009 C .243 .66600009 .30900003 .64800009 .328 .549 C .338 .49300004 .338 .41700004 .338 .35400004 C .338 .279 .338 .21100001 .32700003 .147 C .312 .052 .255 .022000002 .21000001 .022000002 Z "/>
</symbol>
<use xlink:href="#font_a_1" transform="matrix(9.9626,0,0,-9.9626,17.198925,122.30397)" fill="#6100ad"/>
<use xlink:href="#font_a_4" transform="matrix(9.9626,0,0,-9.9626,27.547926,123.848178)" fill="#6100ad"/>
<path transform="matrix(.1,0,0,-.1,0,242.75)" stroke-width="9.9628" stroke-linecap="butt" stroke-miterlimit="10" stroke-linejoin="miter" fill="none" stroke="#3b7d08" d="M 2153.66 790.637 C 2153.66 808.234 2139.39 822.504 2121.79 822.504 C 2104.19 822.504 2089.92 808.234 2089.92 790.637 C 2089.92 773.035 2104.19 758.766 2121.79 758.766 C 2139.39 758.766 2153.66 773.035 2153.66 790.637 Z M 2121.79 790.637 "/>
<clipPath id="cp11">
<path transform="matrix(.1,0,0,-.1,0,242.75)" d="M 2155.68 677.246 L 2240.723 677.246 L 2240.723 904.02297 L 2155.68 904.02297 Z "/>
</clipPath>
<g clip-path="url(#cp11)">
<symbol id="pac12" style="overflow:visible">
<g clip-path="url(#cp13)">
<path transform="matrix(.1,0,0,-.1,-.00390625,242.7539)" stroke-width="3.985" stroke-linecap="butt" stroke-miterlimit="10" stroke-linejoin="miter" fill="none" stroke="#3b7d08" d="M 0 0 L 30.8828 30.8828 "/>
</g>
</symbol>
<pattern id="pa12" patternUnits="userSpaceOnUse" patternContentUnits="userSpaceOnUse" x="0" y="0" width="2.98883" height="2.98883">
<clipPath id="cp14">
<path d="M -.99628 -.99628 L 3.9851 -.99628 L 3.9851 3.9851 L -.99628 3.9851 Z"/>
</clipPath>
<g clip-path="url(#cp14)">
<g transform="matrix(1,0,0,-1,.00390625,242.7539)">
<use x="0" y="0" xlink:href="#pac12"/>
<use x="0" y="-2.98883" xlink:href="#pac12"/>
<use x="-2.98883" y="0" xlink:href="#pac12"/>
<use x="-2.98883" y="-2.98883" xlink:href="#pac12"/>
</g>
</g>
</pattern>
<clipPath id="cp13">
<path transform="matrix(.1,0,0,-.1,-.00390625,242.7539)" d="M -10 -10 L -10 40 L 40 40 L 40 -10 Z "/>
</clipPath>
<rect transform="matrix(1,0,0,-1,-.00390625,242.7539)" fill="url(#pa12)" x="215.5719" y="67.728519" width="8.504303" height="22.677689"/>
</g>
<path transform="matrix(.1,0,0,-.1,0,242.75)" stroke-width="9.9628" stroke-linecap="butt" stroke-miterlimit="10" stroke-linejoin="miter" fill="none" stroke="#3b7d08" d="M 2153.66 1641.05 C 2153.66 1658.65 2139.39 1672.92 2121.79 1672.92 C 2104.19 1672.92 2089.92 1658.65 2089.92 1641.05 C 2089.92 1623.45 2104.19 1609.18 2121.79 1609.18 C 2139.39 1609.18 2153.66 1623.45 2153.66 1641.05 Z M 2121.79 1641.05 "/>
<clipPath id="cp15">
<path transform="matrix(.1,0,0,-.1,0,242.75)" d="M 2155.68 1527.66 L 2240.723 1527.66 L 2240.723 1754.433 L 2155.68 1754.433 Z "/>
</clipPath>
<g clip-path="url(#cp15)">
<symbol id="pac16" style="overflow:visible">
<g clip-path="url(#cp17)">
<path transform="matrix(.1,0,0,-.1,-.00390625,242.7539)" stroke-width="3.985" stroke-linecap="butt" stroke-miterlimit="10" stroke-linejoin="miter" fill="none" stroke="#3b7d08" d="M 0 0 L 30.8828 30.8828 "/>
</g>
</symbol>
<pattern id="pa16" patternUnits="userSpaceOnUse" patternContentUnits="userSpaceOnUse" x="0" y="0" width="2.98883" height="2.98883">
<clipPath id="cp18">
<path d="M -.99628 -.99628 L 3.9851 -.99628 L 3.9851 3.9851 L -.99628 3.9851 Z"/>
</clipPath>
<g clip-path="url(#cp18)">
<g transform="matrix(1,0,0,-1,.00390625,242.7539)">
<use x="0" y="0" xlink:href="#pac16"/>
<use x="0" y="-2.98883" xlink:href="#pac16"/>
<use x="-2.98883" y="0" xlink:href="#pac16"/>
<use x="-2.98883" y="-2.98883" xlink:href="#pac16"/>
</g>
</g>
</pattern>
<clipPath id="cp17">
<path transform="matrix(.1,0,0,-.1,-.00390625,242.7539)" d="M -10 -10 L -10 40 L 40 40 L 40 -10 Z "/>
</clipPath>
<rect transform="matrix(1,0,0,-1,-.00390625,242.7539)" fill="url(#pa16)" x="215.5719" y="152.76992" width="8.504303" height="22.677292"/>
</g>
<use xlink:href="#font_8_3" transform="matrix(9.9626,0,0,-9.9626,216.04792,123.73859)" fill="#6100ad"/>
<use xlink:href="#font_9_1" transform="matrix(6.9738,0,0,-6.9738,221.79688,125.19366)" fill="#6100ad"/>
<use xlink:href="#font_a_1" transform="matrix(9.9626,0,0,-9.9626,229.80284,122.30397)" fill="#6100ad"/>
<use xlink:href="#font_a_4" transform="matrix(9.9626,0,0,-9.9626,240.15183,123.848178)" fill="#6100ad"/>
<path transform="matrix(.1,0,0,-.1,0,242.75)" stroke-width="9.9628" stroke-linecap="butt" stroke-miterlimit="10" stroke-linejoin="miter" fill="none" stroke="#3b7d08" d="M 846.133 333.559 C 846.133 351.16 831.867 365.43 814.266 365.43 C 796.664 365.43 782.395 351.16 782.395 333.559 C 782.395 315.957 796.664 301.688 814.266 301.688 C 831.867 301.688 846.133 315.957 846.133 333.559 Z M 814.266 333.559 "/>
<clipPath id="cp19">
<path transform="matrix(.1,0,0,-.1,0,242.75)" d="M 700.879 214.629 L 927.65206 214.629 L 927.65206 299.672 L 700.879 299.672 Z "/>
</clipPath>
<g clip-path="url(#cp19)">
<symbol id="pac20" style="overflow:visible">
<g clip-path="url(#cp21)">
<path transform="matrix(.1,0,0,-.1,-.00390625,242.7539)" stroke-width="3.985" stroke-linecap="butt" stroke-miterlimit="10" stroke-linejoin="miter" fill="none" stroke="#3b7d08" d="M 0 0 L 30.8828 30.8828 "/>
</g>
</symbol>
<pattern id="pa20" patternUnits="userSpaceOnUse" patternContentUnits="userSpaceOnUse" x="0" y="0" width="2.98883" height="2.98883">
<clipPath id="cp22">
<path d="M -.99628 -.99628 L 3.9851 -.99628 L 3.9851 3.9851 L -.99628 3.9851 Z"/>
</clipPath>
<g clip-path="url(#cp22)">
<g transform="matrix(1,0,0,-1,.00390625,242.7539)">
<use x="0" y="0" xlink:href="#pac20"/>
<use x="0" y="-2.98883" xlink:href="#pac20"/>
<use x="-2.98883" y="0" xlink:href="#pac20"/>
<use x="-2.98883" y="-2.98883" xlink:href="#pac20"/>
</g>
</g>
</pattern>
<clipPath id="cp21">
<path transform="matrix(.1,0,0,-.1,-.00390625,242.7539)" d="M -10 -10 L -10 40 L 40 40 L 40 -10 Z "/>
</clipPath>
<rect transform="matrix(1,0,0,-1,-.00390625,242.7539)" fill="url(#pa20)" x="70.09181" y="21.466813" width="22.6773" height="8.504288"/>
</g>
<path transform="matrix(.1,0,0,-.1,0,242.75)" stroke-width="9.9628" stroke-linecap="butt" stroke-miterlimit="10" stroke-linejoin="miter" fill="none" stroke="#3b7d08" d="M 1696.55 333.559 C 1696.55 351.16 1682.28 365.43 1664.68 365.43 C 1647.07 365.43 1632.81 351.16 1632.81 333.559 C 1632.81 315.957 1647.07 301.688 1664.68 301.688 C 1682.28 301.688 1696.55 315.957 1696.55 333.559 Z M 1664.68 333.559 "/>
<clipPath id="cp23">
<path transform="matrix(.1,0,0,-.1,0,242.75)" d="M 1551.29 214.629 L 1778.067 214.629 L 1778.067 299.672 L 1551.29 299.672 Z "/>
</clipPath>
<g clip-path="url(#cp23)">
<symbol id="pac24" style="overflow:visible">
<g clip-path="url(#cp25)">
<path transform="matrix(.1,0,0,-.1,-.00390625,242.7539)" stroke-width="3.985" stroke-linecap="butt" stroke-miterlimit="10" stroke-linejoin="miter" fill="none" stroke="#3b7d08" d="M 0 0 L 30.8828 30.8828 "/>
</g>
</symbol>
<pattern id="pa24" patternUnits="userSpaceOnUse" patternContentUnits="userSpaceOnUse" x="0" y="0" width="2.98883" height="2.98883">
<clipPath id="cp26">
<path d="M -.99628 -.99628 L 3.9851 -.99628 L 3.9851 3.9851 L -.99628 3.9851 Z"/>
</clipPath>
<g clip-path="url(#cp26)">
<g transform="matrix(1,0,0,-1,.00390625,242.7539)">
<use x="0" y="0" xlink:href="#pac24"/>
<use x="0" y="-2.98883" xlink:href="#pac24"/>
<use x="-2.98883" y="0" xlink:href="#pac24"/>
<use x="-2.98883" y="-2.98883" xlink:href="#pac24"/>
</g>
</g>
</pattern>
<clipPath id="cp25">
<path transform="matrix(.1,0,0,-.1,-.00390625,242.7539)" d="M -10 -10 L -10 40 L 40 40 L 40 -10 Z "/>
</clipPath>
<rect transform="matrix(1,0,0,-1,-.00390625,242.7539)" fill="url(#pa24)" x="155.13292" y="21.466813" width="22.677689" height="8.504288"/>
</g>
<use xlink:href="#font_8_3" transform="matrix(9.9626,0,0,-9.9626,67.336917,229.3608)" fill="#6100ad"/>
<symbol id="font_9_2">
<path d="M .50900009 .58100005 C .513 .595 .513 .597 .513 .60300007 C .513 .623 .49700005 .63500007 .48000003 .63500007 C .46900005 .63500007 .45000003 .63000008 .43900005 .611 C .43600003 .605 .42800004 .573 .42300005 .55300006 L .40200005 .47000004 C .39600004 .44600005 .36500005 .32000003 .36200003 .30900003 C .36100004 .30900003 .31700004 .22200002 .23900001 .22200002 C .171 .22200002 .171 .287 .171 .305 C .171 .35900004 .194 .42200003 .22400002 .499 C .23600002 .531 .24100001 .54300007 .24100001 .56 C .24100001 .60800006 .2 .64500007 .146 .64500007 C .045000007 .64500007 0 .509 0 .49200005 C 0 .47900004 .014000002 .47900004 .017 .47900004 C .031 .47900004 .032 .48400004 .035 .495 C .060000007 .578 .103 .61700007 .143 .61700007 C .16000001 .61700007 .168 .606 .168 .582 C .168 .559 .15900001 .537 .154 .52400007 C .106000009 .402 .096 .365 .096 .321 C .096 .30400003 .096 .25700004 .135 .22500001 C .16600001 .19900002 .20800002 .194 .235 .194 C .27500005 .194 .31100003 .209 .34400005 .23900001 C .33100004 .18400002 .32000003 .142 .27800004 .09200001 C .25100003 .061000006 .21100001 .027999998 .158 .027999998 C .15100001 .027999998 .104 .027999998 .083000008 .061000006 C .13700001 .067 .13700001 .11500001 .13700001 .116000007 C .13700001 .148 .107999999 .15400002 .098000008 .15400002 C .073 .15400002 .040000004 .134 .040000004 .08800001 C .040000004 .037 .088 0 .15900001 0 C .26000003 0 .38300003 .07800001 .41400004 .20300001 L .50900009 .58100005 Z "/>
</symbol>
<use xlink:href="#font_9_2" transform="matrix(6.9738,0,0,-6.9738,73.078899,232.16878)" fill="#6100ad"/>
<use xlink:href="#font_a_1" transform="matrix(9.9626,0,0,-9.9626,80.86568,227.92618)" fill="#6100ad"/>
<use xlink:href="#font_a_4" transform="matrix(9.9626,0,0,-9.9626,91.21466,229.47039)" fill="#6100ad"/>
<symbol id="font_8_1">
<path d="M .07700001 .072 C .069000009 .038000004 .067 .031000004 .023000002 .031000004 C .011 .031000004 0 .031000004 0 .0119999949 C 0 .003999993 .005000001 0 .013 0 C .040000004 0 .069000009 .0029999912 .097 .0029999912 C .13000001 .0029999912 .164 0 .19600001 0 C .20100002 0 .21400002 0 .21400002 .019999996 C .21400002 .031000004 .20400001 .031000004 .19000001 .031000004 C .14 .031000004 .14 .038000004 .14 .047000007 C .14 .059 .18200001 .222 .18900001 .24700001 C .202 .21800001 .23000002 .183 .28100003 .183 C .397 .183 .522 .329 .522 .476 C .522 .57000008 .46500004 .63600006 .38900004 .63600006 C .33900003 .63600006 .291 .6 .25800003 .561 C .24800001 .615 .20500002 .63600006 .16800002 .63600006 C .12200001 .63600006 .103 .597 .094000007 .579 C .076000008 .545 .063 .485 .063 .48200003 C .063 .47200004 .073 .47200004 .075 .47200004 C .08500001 .47200004 .086 .47300003 .09200001 .49500004 C .10900001 .566 .12900001 .614 .165 .614 C .18200001 .614 .19600001 .60600009 .19600001 .568 C .19600001 .545 .19300002 .53400006 .18900001 .517 L .07700001 .072 M .25300003 .50600007 C .26000003 .533 .28700004 .561 .305 .57600006 C .34000004 .607 .36900003 .614 .386 .614 C .42600004 .614 .45000003 .579 .45000003 .52 C .45000003 .46100004 .41700004 .34600003 .39900003 .30800004 C .365 .238 .31700004 .20500002 .28 .20500002 C .21400002 .20500002 .20100002 .28800003 .20100002 .294 C .20100002 .296 .20100002 .298 .20400001 .31 L .25300003 .50600007 Z "/>
</symbol>
<use xlink:href="#font_8_1" transform="matrix(9.9626,0,0,-9.9626,111.98897,11.503957)" fill="#6100ad"/>
<use xlink:href="#font_a_1" transform="matrix(9.9626,0,0,-9.9626,120.64576,8.246187)" fill="#6100ad"/>
<use xlink:href="#font_a_4" transform="matrix(9.9626,0,0,-9.9626,130.99475,9.79039)" fill="#6100ad"/>
<path transform="matrix(.1,0,0,-.1,0,242.75)" stroke-width="19.9255" stroke-linecap="butt" stroke-miterlimit="10" stroke-linejoin="miter" fill="none" stroke="#6100ad" d="M 1252.75 2278.92 C 1281.66 2114.96 1210.56 2230.25 1225.46 2145.77 "/>
<path transform="matrix(.1,0,0,-.1,0,242.75)" d="M 1232.29 2107 C 1232.62 2111.96 1235.51 2134.05 1240.37 2148.39 L 1210.55 2143.14 C 1220.02 2131.32 1230.29 2111.55 1232.29 2107 Z " fill="#6100ad"/>
<path transform="matrix(.1,0,0,-.1,0,242.75)" stroke-width="17.9324" stroke-linecap="butt" stroke-miterlimit="10" stroke-linejoin="miter" fill="none" stroke="#6100ad" d="M 1232.29 2107 C 1232.62 2111.96 1235.51 2134.05 1240.37 2148.39 L 1210.55 2143.14 C 1220.02 2131.32 1230.29 2111.55 1232.29 2107 Z "/>
<path transform="matrix(.1,0,0,-.1,0,242.75)" stroke-width="19.9255" stroke-linecap="butt" stroke-miterlimit="10" stroke-linejoin="miter" fill="none" stroke="#6100ad" d="M 1239.49 284.73 L 1239.49 152.824 "/>
<path transform="matrix(.1,0,0,-.1,0,242.75)" d="M 1239.49 324.094 C 1238.31 319.262 1231.63 298.012 1224.35 284.73 L 1254.63 284.73 C 1247.36 298.012 1240.67 319.262 1239.49 324.094 Z " fill="#6100ad"/>
<path transform="matrix(.1,0,0,-.1,0,242.75)" stroke-width="17.9326" stroke-linecap="butt" stroke-miterlimit="10" stroke-linejoin="miter" fill="none" stroke="#6100ad" d="M 1239.49 324.094 C 1238.31 319.262 1231.63 298.012 1224.35 284.73 L 1254.63 284.73 C 1247.36 298.012 1240.67 319.262 1239.49 324.094 Z "/>
<use xlink:href="#font_8_1" transform="matrix(9.9626,0,0,-9.9626,99.171,239.59055)" fill="#6100ad"/>
<symbol id="font_a_5">
<path d="M .205 .64000007 C .205 .66400006 .205 .666 .18200003 .666 C .120000008 .60200008 .032000007 .60200008 0 .60200008 L 0 .57100006 C .020000004 .57100006 .07900001 .57100006 .13100001 .597 L .13100001 .079 C .13100001 .043 .128 .031000002 .038000004 .031000002 L .0060000049 .031000002 L .0060000049 0 C .04100001 .003 .128 .003 .168 .003 C .20800002 .003 .29500003 .003 .33000005 0 L .33000005 .031000002 L .29800005 .031000002 C .20800002 .031000002 .205 .042000005 .205 .079 L .205 .64000007 Z "/>
</symbol>
<use xlink:href="#font_a_1" transform="matrix(9.9626,0,0,-9.9626,107.82779,236.33278)" fill="#6100ad"/>
<use xlink:href="#font_a_5" transform="matrix(9.9626,0,0,-9.9626,118.674907,237.6578)" fill="#6100ad"/>
<use xlink:href="#font_a_4" transform="matrix(9.9626,0,0,-9.9626,123.15807,237.87699)" fill="#6100ad"/>
<symbol id="font_1b_2">
<path d="M .393 0 L .59800007 .611 L .59800007 0 L .68600007 0 L .68600007 .72900006 L .55700007 .72900006 L .34500004 .094000007 L .12900001 .72900006 L 0 .72900006 L 0 0 L .088 0 L .088 .611 L .29500003 0 L .393 0 Z "/>
</symbol>
<symbol id="font_1b_3">
<path d="M .09300001 .30900003 L .32200004 .30900003 C .379 .30900003 .42400003 .326 .463 .36100004 C .507 .40100003 .526 .448 .526 .51500007 C .526 .652 .445 .72900006 .301 .72900006 L 0 .72900006 L 0 0 L .09300001 0 L .09300001 .30900003 M .09300001 .39100004 L .09300001 .647 L .287 .647 C .376 .647 .42900003 .59900006 .42900003 .51900008 C .42900003 .439 .376 .39100004 .287 .39100004 L .09300001 .39100004 Z "/>
</symbol>
<symbol id="font_1b_1">
<path d="M .49300004 .072000008 C .48400004 .07000001 .48000003 .07000001 .47500003 .07000001 C .44600005 .07000001 .43000005 .08500001 .43000005 .11100001 L .43000005 .41900004 C .43000005 .512 .36200003 .56200006 .23300001 .56200006 C .157 .56200006 .094000007 .54 .059 .50100007 C .035000005 .47400005 .024999999 .44400005 .023000002 .39200003 L .107 .39200003 C .114 .45600004 .15200001 .485 .23000002 .485 C .305 .485 .34700004 .45700003 .34700004 .407 L .34700004 .38500003 C .34700004 .35000003 .32600004 .335 .26000003 .32700003 C .14200002 .312 .124000009 .30800004 .092 .29500003 C .031000004 .27 0 .223 0 .155 C 0 .060000004 .066 0 .17200002 0 C .238 0 .291 .023000002 .35000003 .07700001 C .35600005 .024000003 .38200004 0 .43600003 0 C .45300005 0 .46600003 .0020000004 .49300004 .0090000019 L .49300004 .072000008 M .34700004 .18800001 C .34700004 .16000001 .33900003 .143 .314 .120000008 C .28000004 .089 .23900002 .073 .19 .073 C .125 .073 .087000008 .104 .087000008 .157 C .087000008 .21200001 .124000009 .24000001 .21300003 .25300003 C .30100004 .26500003 .31900005 .269 .34700004 .282 L .34700004 .18800001 Z "/>
</symbol>
<use xlink:href="#font_1b_2" transform="matrix(9.4645,0,0,-9.4645,130.03592,237.6578)" fill="#6100ad"/>
<use xlink:href="#font_1b_3" transform="matrix(9.4645,0,0,-9.4645,138.07128,237.6578)" fill="#6100ad"/>
<use xlink:href="#font_1b_1" transform="matrix(9.4645,0,0,-9.4645,143.54195,237.87549)" fill="#6100ad"/>
<use xlink:href="#font_8_1" transform="matrix(9.9626,0,0,-9.9626,86.85728,108.576549)" fill="#6100ad"/>
<symbol id="font_a_2">
<path d="M .23200003 .00999999 C .23200003 .012999982 .23200003 .014999986 .215 .03199999 C .09 .15799999 .058 .347 .058 .5 C .058 .674 .096 .84800007 .21900001 .97300007 C .23200003 .985 .23200003 .98700007 .23200003 .99 C .23200003 .99700006 .22800002 1 .222 1 C .21200001 1 .12200001 .93200007 .06299999 .805 C .012000002 .69500008 0 .584 0 .5 C 0 .422 .011 .301 .066 .188 C .126 .065 .21200001 0 .222 0 C .22800002 0 .23200003 .0029999912 .23200003 .00999999 Z "/>
</symbol>
<use xlink:href="#font_a_2" transform="matrix(9.9626,0,0,-9.9626,93.174098,109.134449)" fill="#6100ad"/>
<symbol id="font_8_2">
<path d="M .18300002 .411 L .277 .411 C .29700003 .411 .307 .411 .307 .43100003 C .307 .44200004 .29700003 .44200004 .279 .44200004 L .19100002 .44200004 C .227 .584 .23200003 .60400006 .23200003 .61 C .23200003 .62700006 .22000002 .637 .20300001 .637 C .2 .637 .172 .636 .163 .601 L .124 .44200004 L .030000002 .44200004 C .009999998 .44200004 0 .44200004 0 .42300005 C 0 .411 .007999999 .411 .028 .411 L .11600001 .411 C .044 .127 .04 .11000001 .04 .092 C .04 .038000004 .078 0 .132 0 C .234 0 .291 .14600002 .291 .15400002 C .291 .16400002 .28300003 .16400002 .279 .16400002 C .27 .16400002 .26900003 .16100002 .264 .15000002 C .22100002 .046 .16800002 .022000002 .134 .022000002 C .113000009 .022000002 .103 .035 .103 .068 C .103 .092 .105000007 .09900001 .109 .116000007 L .18300002 .411 Z "/>
</symbol>
<use xlink:href="#font_8_2" transform="matrix(9.9626,0,0,-9.9626,96.29116,106.75339)" fill="#6100ad"/>
<symbol id="font_a_3">
<path d="M .232 .5 C .232 .578 .22100002 .699 .16600001 .81200006 C .106 .93500009 .020000004 1 .009999998 1 C .0040000008 1 0 .99600008 0 .99 C 0 .98700007 0 .985 .019000002 .967 C .117000009 .86800006 .174 .709 .174 .5 C .174 .329 .137 .153 .012999997 .026999996 C 0 .014999986 0 .012999982 0 .00999999 C 0 .003999993 .0040000008 0 .009999998 0 C .020000004 0 .11000001 .06799999 .169 .195 C .22 .305 .232 .416 .232 .5 Z "/>
</symbol>
<symbol id="font_a_6">
<path d="M .39900003 .223 C .39900003 .34200005 .317 .44200004 .209 .44200004 C .16100002 .44200004 .118000019 .42600004 .082 .39100004 L .082 .586 C .10200001 .58000007 .135 .573 .16700001 .573 C .29 .573 .36 .66400006 .36 .67700007 C .36 .683 .357 .688 .35 .688 C .349 .688 .347 .688 .342 .68500009 C .322 .67600008 .273 .656 .20600002 .656 C .16600001 .656 .120000008 .66300007 .073 .6840001 C .065 .68700006 .06300001 .68700006 .061000009 .68700006 C .051000004 .68700006 .051000004 .679 .051000004 .66300007 L .051000004 .36700005 C .051000004 .34900005 .051000004 .34100003 .065 .34100003 C .07200001 .34100003 .074 .34400005 .07800001 .35000003 C .08900002 .36600004 .12600002 .42000006 .207 .42000006 C .259 .42000006 .284 .37400005 .292 .35600005 C .308 .31900005 .31 .28000004 .31 .23 C .31 .19500001 .31 .135 .286 .093 C .262 .054000006 .22500001 .028 .17900002 .028 C .106000009 .028 .049000008 .08100001 .032 .14000002 C .035 .13900002 .038000008 .13800001 .049000008 .13800001 C .082 .13800001 .09900001 .163 .09900001 .187 C .09900001 .21100001 .082 .23600002 .049000008 .23600002 C .035 .23600002 0 .22900002 0 .18300002 C 0 .097 .069000009 0 .18100001 0 C .297 0 .39900003 .096 .39900003 .223 Z "/>
</symbol>
<use xlink:href="#font_a_1" transform="matrix(9.9626,0,0,-9.9626,102.984767,105.31877)" fill="#6100ad"/>
<use xlink:href="#font_a_4" transform="matrix(9.9626,0,0,-9.9626,113.333759,106.862979)" fill="#6100ad"/>
<use xlink:href="#font_a_3" transform="matrix(9.9626,0,0,-9.9626,118.494388,109.134449)" fill="#6100ad"/>
<use xlink:href="#font_a_1" transform="matrix(9.9626,0,0,-9.9626,125.12851,105.31877)" fill="#6100ad"/>
<use xlink:href="#font_a_6" transform="matrix(9.9626,0,0,-9.9626,135.57732,106.862979)" fill="#6100ad"/>
<use xlink:href="#font_1b_2" transform="matrix(9.4645,0,0,-9.4645,142.3508,106.6438)" fill="#6100ad"/>
<use xlink:href="#font_1b_3" transform="matrix(9.4645,0,0,-9.4645,150.38616,106.6438)" fill="#6100ad"/>
<use xlink:href="#font_1b_1" transform="matrix(9.4645,0,0,-9.4645,155.85683,106.86148)" fill="#6100ad"/>
</g>
</svg>
