<svg xmlns="http://www.w3.org/2000/svg" xmlns:xlink="http://www.w3.org/1999/xlink" version="1.1" width="247.897" height="242.753" viewBox="0 0 247.897 242.753">
<defs>
<clipPath id="clip_1">
<path transform="matrix(1,0,0,-1,123.949,121.16701)" d="M-91.61896-53.86128V-31.18376H-100.12306V-53.86128ZM-100.12306-31.18376"/>
</clipPath>
<g id="pattern_tile_2">
<path transform="matrix(1,0,0,-1,0,242.753)" stroke-width=".3985" stroke-linecap="butt" stroke-miterlimit="10" stroke-linejoin="miter" fill="none" stroke="#3b7d08" d="M0 0 3.08846 3.08846"/>
</g>
<pattern id="pattern_2" patternUnits="userSpaceOnUse" patternContentUnits="userSpaceOnUse" x="0" y="0" width="2.98883" height="2.98883">
<clipPath id="clip_3">
<path d="M -.99628 -.99628 L 3.9851 -.99628 L 3.9851 3.9851 L -.99628 3.9851 Z"/>
</clipPath>
<g clip-path="url(#clip_3)">
<g transform="matrix(1,0,0,-1,-0,242.753)">
<use x="0" y="0" xlink:href="#pattern_tile_2"/>
<use x="0" y="-2.98883" xlink:href="#pattern_tile_2"/>
<use x="-2.98883" y="0" xlink:href="#pattern_tile_2"/>
<use x="-2.98883" y="-2.98883" xlink:href="#pattern_tile_2"/>
</g>
</g>
</pattern>
<clipPath id="clip_4">
<path transform="matrix(1,0,0,-1,123.949,121.16701)" d="M-91.61896 31.17998V53.8575H-100.12306V31.17998ZM-100.12306 53.8575"/>
</clipPath>
<g id="pattern_tile_5">
<path transform="matrix(1,0,0,-1,0,242.753)" stroke-width=".3985" stroke-linecap="butt" stroke-miterlimit="10" stroke-linejoin="miter" fill="none" stroke="#3b7d08" d="M0 0 3.08846 3.08846"/>
</g>
<pattern id="pattern_5" patternUnits="userSpaceOnUse" patternContentUnits="userSpaceOnUse" x="0" y="0" width="2.98883" height="2.98883">
<clipPath id="clip_6">
<path d="M -.99628 -.99628 L 3.9851 -.99628 L 3.9851 3.9851 L -.99628 3.9851 Z"/>
</clipPath>
<g clip-path="url(#clip_6)">
<g transform="matrix(1,0,0,-1,-0,242.753)">
<use x="0" y="0" xlink:href="#pattern_tile_5"/>
<use x="0" y="-2.98883" xlink:href="#pattern_tile_5"/>
<use x="-2.98883" y="0" xlink:href="#pattern_tile_5"/>
<use x="-2.98883" y="-2.98883" xlink:href="#pattern_tile_5"/>
</g>
</g>
</pattern>
<path id="font_7_3" d="M.34999085 .056259157C.36099244 .015258789 .3959961-.0107421879 .43899537-.0107421879 .47399903-.0107421879 .49699403 .012252808 .5130005 .044265748 .5299988 .08027649 .54299929 .14129639 .54299929 .14329529 .54299929 .1532898 .5339966 .1532898 .5309906 .1532898 .5209961 .1532898 .519989 .14929199 .5169983 .13528443 .5029907 .07926941 .48399354 .011245728 .44198609 .011245728 .42099 .011245728 .41099549 .024261475 .41099549 .057266237 .41099549 .07926941 .4229889 .12628174 .43099977 .16130066L.45899964 .2693329C.46199037 .28433229 .47200013 .32234193 .47599793 .3373413 .48098756 .36035157 .4909973 .3983612 .4909973 .40437318 .4909973 .42237855 .47698976 .43138124 .46199037 .43138124 .45700074 .43138124 .43099977 .43037416 .4229889 .3963623 .4039917 .323349 .3600006 .14828491 .34799195 .09527588 .34700013 .091278079 .30699159 .011245728 .23399353 .011245728 .18199158 .011245728 .17199707 .056259157 .17199707 .09327698 .17199707 .14929199 .19999695 .22831726 .22599793 .29733277 .23799134 .3273468 .24299622 .34135438 .24299622 .36035157 .24299622 .405365 .21099854 .4423828 .16099549 .4423828 .06599426 .4423828 .0289917 .29733277 .0289917 .28833009 .0289917 .27833558 .038986207 .27833558 .040985109 .27833558 .050994874 .27833558 .051986696 .28033448 .056991579 .29634095 .08198547 .38336183 .11999512 .42037965 .1579895 .42037965 .16699219 .42037965 .18299866 .41937257 .18299866 .38735963 .18299866 .36335755 .17199707 .3343506 .1659851 .31933595 .1289978 .2203064 .10798645 .15829468 .10798645 .10928345 .10798645 .014251709 .1769867-.0107421879 .23098755-.0107421879 .29699708-.0107421879 .33299256 .03425598 .34999085 .056259157Z"/>
<path id="font_8_1" d="M.24899292 .10601807C.23899842 .072021488 .20599365 .018234253 .15499878 .018234253 .1519928 .018234253 .12199402 .018234253 .100997928 .03215027 .14199829 .04508972 .14498902 .08100891 .14498902 .087020877 .14498902 .10900879 .12799073 .12402344 .10499573 .12402344 .07699585 .12402344 .04798889 .10002136 .04798889 .0630188 .04798889 .01322937 .10398865-.009765625 .15299988-.009765625 .19898987-.009765625 .23999024 .019226075 .2649994 .061019899 .2889862 .008224487 .34399415-.009765625 .38398744-.009765625 .49899293-.009765625 .55999758 .11502075 .55999758 .14305115 .55999758 .15608216 .5469971 .15608216 .5439911 .15608216 .5299988 .15608216 .5289917 .15107727 .5249939 .13905335 .5039978 .07002258 .44400025 .018234253 .3880005 .018234253 .34799195 .018234253 .32699586 .04508972 .32699586 .08302307 .32699586 .10900879 .35099793 .20018006 .3789978 .31140138 .39898683 .38841249 .44400025 .4133911 .47698976 .4133911 .47898866 .4133911 .5099945 .4133911 .5309906 .39941407 .49899293 .39041139 .4869995 .3624115 .4869995 .34440614 .4869995 .32240296 .5039978 .30740357 .5269928 .30740357 .5499878 .30740357 .58299258 .32640077 .58299258 .3684082 .58299258 .4243927 .5189972 .44140626 .47898866 .44140626 .42900086 .44140626 .3889923 .4084015 .36698915 .3704071 .34899903 .4113922 .30299378 .44140626 .24699402 .44140626 .1349945 .44140626 .070999149 .31840516 .070999149 .2883606 .070999149 .27534486 .084991458 .27534486 .08799744 .27534486 .100997928 .27534486 .101989749 .27934266 .10699463 .29237367 .13198853 .3704071 .19499207 .4133911 .24398804 .4133911 .2769928 .4133911 .3039856 .395401 .3039856 .3474121 .3039856 .32740785 .2919922 .27734376 .2829895 .24327088L.24899292 .10601807Z"/>
<path id="font_9_6" d="M.68699648 .32714845C.70199587 .32714845 .72099307 .32714845 .72099307 .34713746 .72099307 .36714173 .70199587 .36714173 .6879883 .36714173H.08898926C.07499695 .36714173 .055999757 .36714173 .055999757 .34713746 .055999757 .32714845 .07499695 .32714845 .08999634 .32714845H.68699648M.6879883 .13284302C.70199587 .13284302 .72099307 .13284302 .72099307 .15284729 .72099307 .17285156 .70199587 .17285156 .68699648 .17285156H.08999634C.07499695 .17285156 .055999757 .17285156 .055999757 .15284729 .055999757 .13284302 .07499695 .13284302 .08898926 .13284302H.6879883Z"/>
<path id="font_9_3" d="M.45999146 .31976319C.45999146 .39982606 .45498658 .47988893 .41999818 .5539398 .37399293 .65000918 .2919922 .6660156 .25 .6660156 .18998719 .6660156 .116989139 .64001467 .07598877 .54693606 .04399109 .47789 .038986207 .39982606 .038986207 .31976319 .038986207 .24472046 .042999269 .15464783 .083999637 .07859802 .1269989-.0024719239 .19999695-.022460938 .24899292-.022460938 .30299378-.022460938 .3789978-.0014648438 .4229889 .09359741 .45498658 .16265869 .45999146 .2407074 .45999146 .31976319M.24899292-.00047302247C.20999146-.00047302247 .15098572 .024551392 .1329956 .12062073 .12199402 .18066406 .12199402 .2727356 .12199402 .3317871 .12199402 .39582826 .12199402 .46188355 .12998963 .5159149 .14898682 .63500979 .22399903 .64401248 .24899292 .64401248 .28199769 .64401248 .34799195 .6259918 .36698915 .52693179 .3769989 .47088624 .3769989 .39482118 .3769989 .3317871 .3769989 .25672914 .3769989 .18867493 .3659973 .12461853 .35099793 .029556275 .2939911-.00047302247 .24899292-.00047302247Z"/>
<clipPath id="clip_10">
<path transform="matrix(1,0,0,-1,123.949,121.16701)" d="M91.61896-31.18376V-53.86128H100.12306V-31.18376ZM100.12306-53.86128"/>
</clipPath>
<g id="pattern_tile_11">
<path transform="matrix(1,0,0,-1,0,242.753)" stroke-width=".3985" stroke-linecap="butt" stroke-miterlimit="10" stroke-linejoin="miter" fill="none" stroke="#3b7d08" d="M0 0 3.08846 3.08846"/>
</g>
<pattern id="pattern_11" patternUnits="userSpaceOnUse" patternContentUnits="userSpaceOnUse" x="0" y="0" width="2.98883" height="2.98883">
<clipPath id="clip_12">
<path d="M -.99628 -.99628 L 3.9851 -.99628 L 3.9851 3.9851 L -.99628 3.9851 Z"/>
</clipPath>
<g clip-path="url(#clip_12)">
<g transform="matrix(1,0,0,-1,-0,242.753)">
<use x="0" y="0" xlink:href="#pattern_tile_11"/>
<use x="0" y="-2.98883" xlink:href="#pattern_tile_11"/>
<use x="-2.98883" y="0" xlink:href="#pattern_tile_11"/>
<use x="-2.98883" y="-2.98883" xlink:href="#pattern_tile_11"/>
</g>
</g>
</pattern>
<clipPath id="clip_13">
<path transform="matrix(1,0,0,-1,123.949,121.16701)" d="M91.61896 53.8575V31.17998H100.12306V53.8575ZM100.12306 31.17998"/>
</clipPath>
<g id="pattern_tile_14">
<path transform="matrix(1,0,0,-1,0,242.753)" stroke-width=".3985" stroke-linecap="butt" stroke-miterlimit="10" stroke-linejoin="miter" fill="none" stroke="#3b7d08" d="M0 0 3.08846 3.08846"/>
</g>
<pattern id="pattern_14" patternUnits="userSpaceOnUse" patternContentUnits="userSpaceOnUse" x="0" y="0" width="2.98883" height="2.98883">
<clipPath id="clip_15">
<path d="M -.99628 -.99628 L 3.9851 -.99628 L 3.9851 3.9851 L -.99628 3.9851 Z"/>
</clipPath>
<g clip-path="url(#clip_15)">
<g transform="matrix(1,0,0,-1,-0,242.753)">
<use x="0" y="0" xlink:href="#pattern_tile_14"/>
<use x="0" y="-2.98883" xlink:href="#pattern_tile_14"/>
<use x="-2.98883" y="0" xlink:href="#pattern_tile_14"/>
<use x="-2.98883" y="-2.98883" xlink:href="#pattern_tile_14"/>
</g>
</g>
</pattern>
<clipPath id="clip_16">
<path transform="matrix(1,0,0,-1,123.949,121.16701)" d="M-53.86128-100.12306H-31.183758V-91.618968H-53.86128Z"/>
</clipPath>
<g id="pattern_tile_17">
<path transform="matrix(1,0,0,-1,0,242.753)" stroke-width=".3985" stroke-linecap="butt" stroke-miterlimit="10" stroke-linejoin="miter" fill="none" stroke="#3b7d08" d="M0 0 3.08846 3.08846"/>
</g>
<pattern id="pattern_17" patternUnits="userSpaceOnUse" patternContentUnits="userSpaceOnUse" x="0" y="0" width="2.98883" height="2.98883">
<clipPath id="clip_18">
<path d="M -.99628 -.99628 L 3.9851 -.99628 L 3.9851 3.9851 L -.99628 3.9851 Z"/>
</clipPath>
<g clip-path="url(#clip_18)">
<g transform="matrix(1,0,0,-1,-0,242.753)">
<use x="0" y="0" xlink:href="#pattern_tile_17"/>
<use x="0" y="-2.98883" xlink:href="#pattern_tile_17"/>
<use x="-2.98883" y="0" xlink:href="#pattern_tile_17"/>
<use x="-2.98883" y="-2.98883" xlink:href="#pattern_tile_17"/>
</g>
</g>
</pattern>
<clipPath id="clip_19">
<path transform="matrix(1,0,0,-1,123.949,121.16701)" d="M31.17998-100.12306H53.8575V-91.618968H31.17998Z"/>
</clipPath>
<g id="pattern_tile_20">
<path transform="matrix(1,0,0,-1,0,242.753)" stroke-width=".3985" stroke-linecap="butt" stroke-miterlimit="10" stroke-linejoin="miter" fill="none" stroke="#3b7d08" d="M0 0 3.08846 3.08846"/>
</g>
<pattern id="pattern_20" patternUnits="userSpaceOnUse" patternContentUnits="userSpaceOnUse" x="0" y="0" width="2.98883" height="2.98883">
<clipPath id="clip_21">
<path d="M -.99628 -.99628 L 3.9851 -.99628 L 3.9851 3.9851 L -.99628 3.9851 Z"/>
</clipPath>
<g clip-path="url(#clip_21)">
<g transform="matrix(1,0,0,-1,-0,242.753)">
<use x="0" y="0" xlink:href="#pattern_tile_20"/>
<use x="0" y="-2.98883" xlink:href="#pattern_tile_20"/>
<use x="-2.98883" y="0" xlink:href="#pattern_tile_20"/>
<use x="-2.98883" y="-2.98883" xlink:href="#pattern_tile_20"/>
</g>
</g>
</pattern>
<path id="font_8_2" d="M.55599978 .37738038C.55999758 .39138795 .55999758 .39338685 .55999758 .3993988 .55999758 .41940309 .5439911 .43139649 .5269928 .43139649 .5159912 .43139649 .49699403 .4263916 .48599244 .4073944 .48298646 .4013977 .47499085 .36938478 .46998597 .34936524L.44898988 .2663269C.44299317 .24232483 .4119873 .11627197 .40899659 .105270389 .4079895 .105270389 .3639984 .018234253 .28599549 .018234253 .21798706 .018234253 .21798706 .08325195 .21798706 .101257327 .21798706 .1552887 .24099732 .2183075 .2709961 .29534913 .2829895 .32736207 .28799439 .33937074 .28799439 .35636903 .28799439 .40438844 .24699402 .44140626 .19299317 .44140626 .09199524 .44140626 .04699707 .3053589 .04699707 .28834535 .04699707 .27534486 .06098938 .27534486 .06399536 .27534486 .07798767 .27534486 .07899475 .28033448 .08198547 .29135133 .10699463 .3743744 .1499939 .4133911 .18998719 .4133911 .20698548 .4133911 .21499634 .40238954 .21499634 .37838746 .21499634 .3553772 .20599365 .33335877 .20098877 .32035829 .15299988 .19830323 .14299011 .1612854 .14299011 .117263797 .14299011 .1002655 .14299011 .053237916 .18199158 .021224976 .21299744-.004776001 .25498963-.009765625 .28199769-.009765625 .32199098-.009765625 .35798646 .0052337648 .3909912 .035232545 .37799073-.01977539 .36698915-.061782838 .32499696-.11178589 .2979889-.14279175 .2579956-.17610169 .20498657-.17610169 .19799805-.17610169 .15098572-.17610169 .12998963-.14279175 .18399048-.13679505 .18399048-.08879089 .18399048-.08778381 .18399048-.055786134 .15499878-.04978943 .14498902-.04978943 .11999512-.04978943 .08699036-.0697937 .08699036-.11578369 .08699036-.1670227 .1349945-.20410156 .20599365-.20410156 .30699159-.20410156 .42999269-.12579346 .46099855-.00077819827L.55599978 .37738038Z"/>
<path id="font_7_1" d="M.04499817-.122177127C.036987306-.15631104 .034988405-.16334534-.009002686-.16334534-.021011353-.16334534-.03201294-.16334534-.03201294-.18234253-.03201294-.19033814-.027008057-.19433594-.019012452-.19433594 .0079956059-.19433594 .036987306-.19134522 .06498718-.19134522 .09799194-.19134522 .13198853-.19433594 .1639862-.19433594 .16899109-.19433594 .18199158-.19433594 .18199158-.17434693 .18199158-.16334534 .17199707-.16334534 .1579895-.16334534 .10798645-.16334534 .10798645-.15631104 .10798645-.14727783 .10798645-.13523865 .1499939 .028259278 .15699768 .053268434 .16999817 .024261475 .19799805-.0107421879 .24899292-.0107421879 .36499024-.0107421879 .48999024 .13528443 .48999024 .28233338 .48999024 .37635804 .43299867 .4423828 .35699464 .4423828 .30699159 .4423828 .25898744 .40637208 .22599793 .36735536 .21598816 .42137147 .17298889 .4423828 .13598633 .4423828 .08999634 .4423828 .070999149 .4033661 .06199646 .38536073 .04399109 .35134889 .0309906 .29133607 .0309906 .28833009 .0309906 .27833558 .040985109 .27833558 .042999269 .27833558 .052993776 .27833558 .053985597 .2793274 .05999756 .30133058 .07699585 .37236024 .09700012 .42037965 .1329956 .42037965 .1499939 .42037965 .1639862 .41236878 .1639862 .37435914 .1639862 .35134889 .16099549 .3403473 .15699768 .323349L.04499817-.122177127M.22099304 .3123474C.22799683 .33935548 .25498963 .36735536 .272995 .38235475 .30799867 .41337586 .33699037 .42037965 .35398866 .42037965 .3939972 .42037965 .41799928 .38536073 .41799928 .32633973 .41799928 .26733399 .3849945 .15229798 .36698915 .11428833 .33299256 .044265748 .2849884 .011245728 .24798584 .011245728 .18199158 .011245728 .16899109 .0942688 .16899109 .10028076 .16899109 .10227966 .16899109 .104278568 .17199707 .11628723L.22099304 .3123474Z"/>
<path id="font_9_4" d="M.2939911 .64004519C.2939911 .66400149 .2939911 .6660156 .2709961 .6660156 .20899964 .60227969 .12098694 .60227969 .08898926 .60227969V.57128909C.10899353 .57128909 .16799927 .57128909 .21998596 .5972748V.07902527C.21998596 .042999269 .21699524 .0309906 .1269989 .0309906H.09498596V0C.12998963 .0029907227 .21699524 .0029907227 .25698854 .0029907227 .29699708 .0029907227 .38398744 .0029907227 .4189911 0V.0309906H.3869934C.29699708 .0309906 .2939911 .041992189 .2939911 .07902527V.64004519Z"/>
<path id="font_22_5" d="M.46798707 0 .6729889 .61058047V0H.7609863V.7285156H.6319885L.41999818 .093948367 .20399475 .7285156H.07499695V0H.16299439V.61058047L.36999513 0H.46798707Z"/>
<path id="font_22_6" d="M.18399048 .30862428H.41299439C.46998597 .30862428 .5149994 .32562257 .55400088 .36061097 .59799197 .4006195 .61698916 .44758607 .61698916 .5145569 .61698916 .6515045 .5359955 .7285156 .3919983 .7285156H.09098816V0H.18399048V.30862428M.18399048 .390625V.6465149H.37799073C.46699525 .6465149 .519989 .598526 .519989 .51856997 .519989 .43859864 .46699525 .390625 .37799073 .390625H.18399048Z"/>
<path id="font_22_7" d="M.5349884 .048553468C.526001 .046554567 .5219879 .046554567 .5169983 .046554567 .48799134 .046554567 .47200013 .061569215 .47200013 .08760071V.39598084C.47200013 .48905946 .4039917 .5390625 .2749939 .5390625 .19898987 .5390625 .13598633 .5170593 .100997928 .47805787 .07699585 .45103456 .066986087 .42100526 .06498718 .36894227H.14898682C.1559906 .43301393 .19400025 .4620514 .27198792 .4620514 .34700013 .4620514 .3889923 .434021 .3889923 .3839569V.36193849C.3889923 .32688905 .36799623 .3118744 .3019867 .30386354 .18399048 .28884889 .1659851 .28483583 .13398743 .27182008 .07299805 .24679566 .041992189 .19973755 .041992189 .13165283 .041992189 .03656006 .10798645-.0234375 .21398926-.0234375 .27999879-.0234375 .33299256-.00044250489 .3919983 .05355835 .397995 .0005493164 .42399598-.0234375 .47799684-.0234375 .49499513-.0234375 .5079956-.021438599 .5349884-.014450073V.048553468M.3889923 .16468811C.3889923 .13665772 .3809967 .119644168 .35598756 .09661865 .32199098 .06556702 .2809906 .049560548 .23199463 .049560548 .16699219 .049560548 .1289978 .080596927 .1289978 .13365174 .1289978 .1887207 .1659851 .2167511 .25498963 .22976685 .34298707 .24179077 .36099244 .24578858 .3889923 .25880433V.16468811Z"/>
<path id="font_9_1" d="M.33099366-.2400055C.33099366-.23701477 .33099366-.23500061 .31399537-.21800232 .18899536-.0920105 .15699768 .09700012 .15699768 .25 .15699768 .42399598 .19499207 .59799197 .31799317 .72299197 .33099366 .73498538 .33099366 .7369995 .33099366 .73999026 .33099366 .746994 .32699586 .75 .32099916 .75 .31098939 .75 .22099304 .6819916 .1619873 .5549927 .11099243 .44499208 .09899902 .33399964 .09899902 .25 .09899902 .17199707 .10998535 .050994874 .16499329-.06201172 .22499085-.18501282 .31098939-.25 .32099916-.25 .32699586-.25 .33099366-.24700928 .33099366-.2400055Z"/>
<path id="font_7_2" d="M.20599365 .3996582H.2999878C.31999208 .3996582 .32998658 .3996582 .32998658 .41966249 .32998658 .43066407 .31999208 .43066407 .3019867 .43066407H.21398926C.25 .5724945 .25498963 .59246829 .25498963 .59846499 .25498963 .61546328 .24299622 .62545779 .22599793 .62545779 .22299195 .62545779 .19499207 .62446597 .18598938 .58947756L.14698792 .43066407H.052993776C.032989503 .43066407 .022994996 .43066407 .022994996 .4116516 .022994996 .3996582 .0309906 .3996582 .050994874 .3996582H.13899231C.066986087 .11608887 .06298828 .099121097 .06298828 .08114624 .06298828 .02722168 .100997928-.0107421879 .15499878-.0107421879 .25698854-.0107421879 .31399537 .13505554 .31399537 .14305115 .31399537 .1530304 .30599977 .1530304 .3019867 .1530304 .29299928 .1530304 .2919922 .15003968 .2869873 .13905335 .24398804 .035217287 .19099427 .011245728 .15699768 .011245728 .13598633 .011245728 .12599182 .024230957 .12599182 .057174684 .12599182 .08114624 .12799073 .088134769 .13198853 .10510254L.20599365 .3996582Z"/>
<path id="font_9_2" d="M.2889862 .25C.2889862 .32798768 .27799989 .44898988 .22299195 .56199648 .16299439 .68499758 .07699585 .75 .066986087 .75 .06098938 .75 .056991579 .74598696 .056991579 .73999026 .056991579 .7369995 .056991579 .73498538 .07598877 .71699526 .17399597 .6179962 .23098755 .45899964 .23098755 .25 .23098755 .07899475 .19400025-.09700012 .069992069-.2230072 .056991579-.23500061 .056991579-.23701477 .056991579-.2400055 .056991579-.2460022 .06098938-.25 .066986087-.25 .07699585-.25 .16699219-.18200684 .22599793-.055007936 .2769928 .054992677 .2889862 .16600037 .2889862 .25Z"/>
<path id="font_9_5" d="M.44898988 .20022583C.44898988 .3193512 .36698915 .41944886 .25898744 .41944886 .21099854 .41944886 .16799927 .40345765 .13198853 .36842347V.5637665C.1519928 .5577698 .18499756 .55078127 .21699524 .55078127 .33999635 .55078127 .4099884 .6417694 .4099884 .6547699 .4099884 .6607666 .40699769 .6657715 .3999939 .6657715 .39898683 .6657715 .39698792 .6657715 .3919983 .66278079 .37199403 .6537781 .32299806 .6337738 .2559967 .6337738 .21598816 .6337738 .16999817 .6407776 .12298584 .6617737 .114990238 .66477969 .11299133 .66477969 .11099243 .66477969 .100997928 .66477969 .100997928 .6567688 .100997928 .6407776V.34439088C.100997928 .32637025 .100997928 .31835938 .114990238 .31835938 .12199402 .31835938 .12399292 .32136537 .12799073 .32736207 .13899231 .3433838 .17599488 .39746095 .25698854 .39746095 .30899049 .39746095 .33399964 .35139466 .34199525 .33337403 .35798646 .29632569 .3600006 .25727845 .3600006 .20722962 .3600006 .17222595 .3600006 .11222839 .33599855 .07035828 .31199647 .031463624 .2749939 .0055389406 .22898865 .0055389406 .1559906 .0055389406 .09899902 .058380128 .08198547 .11723328 .084991458 .1162262 .08799744 .115234378 .09899902 .115234378 .13198853 .115234378 .14898682 .14022827 .14898682 .16423035 .14898682 .18823242 .13198853 .21322632 .09899902 .21322632 .084991458 .21322632 .049987794 .20622254 .049987794 .16023255 .049987794 .07434082 .11898804-.022460938 .23098755-.022460938 .34700013-.022460938 .44898988 .073349 .44898988 .20022583Z"/>
</defs>
<path transform="matrix(1,0,0,-1,123.949,121.16701)" d="M-85.04317-85.04317H85.04317V85.04317H-85.04317Z" fill="#cceeff"/>
<path transform="matrix(1,0,0,-1,123.949,121.16701)" stroke-width=".99628" stroke-linecap="butt" stroke-miterlimit="10" stroke-linejoin="miter" fill="none" stroke="#1f6e96" d="M-85.04317-85.04317H85.04317V85.04317H-85.04317Z"/>
<path transform="matrix(1,0,0,-1,123.949,121.16701)" d="M42.52063-28.34767C42.52063-23.65091 23.48378-19.84355 0-19.84355-23.48378-19.84355-42.52063-23.65091-42.52063-28.34767-42.52063-33.04443-23.48378-36.85179 0-36.85179 23.48378-36.85179 42.52063-33.04443 42.52063-28.34767ZM0-28.34767" fill="#ff4040"/>
<path transform="matrix(1,0,0,-1,123.949,121.16701)" stroke-width=".3985" stroke-linecap="butt" stroke-miterlimit="10" stroke-linejoin="miter" fill="none" stroke="#ff4040" d="M42.52063-28.34767C42.52063-23.65091 23.48378-19.84355 0-19.84355-23.48378-19.84355-42.52063-23.65091-42.52063-28.34767-42.52063-33.04443-23.48378-36.85179 0-36.85179 23.48378-36.85179 42.52063-33.04443 42.52063-28.34767ZM0-28.34767"/>
<path transform="matrix(1,0,0,-1,123.949,121.16701)" d="M-4.2511-85.04317V-36.85251L-38.63162-29.21211C-40.78-28.7347-40.77214-27.99779-38.61404-27.56616L-3.90752-20.62431C-1.74942-20.1927 1.74942-20.1927 3.90752-20.62431L38.61404-27.56616C40.77214-27.99779 40.78-28.7347 38.63162-29.21211L4.2511-36.85251V-85.04317Z" fill="#ff4040"/>
<path transform="matrix(1,0,0,-1,123.949,121.16701)" stroke-width=".3985" stroke-linecap="butt" stroke-miterlimit="10" stroke-linejoin="miter" fill="none" stroke="#ff4040" d="M-4.2511-85.04317V-36.85251L-38.63162-29.21211C-40.78-28.7347-40.77214-27.99779-38.61404-27.56616L-3.90752-20.62431C-1.74942-20.1927 1.74942-20.1927 3.90752-20.62431L38.61404-27.56616C40.77214-27.99779 40.78-28.7347 38.63162-29.21211L4.2511-36.85251V-85.04317Z"/>
<path transform="matrix(1,0,0,-1,123.949,121.16701)" stroke-width="1.99255" stroke-linecap="butt" stroke-miterlimit="10" stroke-linejoin="miter" fill="none" stroke="#6100ad" d="M-4.2511-85.04317H4.2511"/>
<path transform="matrix(1,0,0,-1,123.949,121.16701)" stroke-width=".99628" stroke-linecap="butt" stroke-miterlimit="10" stroke-linejoin="miter" fill="none" stroke="#3b7d08" d="M-85.04317-42.52252C-85.04317-40.76239-86.47-39.33557-88.23013-39.33557-89.99026-39.33557-91.41708-40.76239-91.41708-42.52252-91.41708-44.28265-89.99026-45.70949-88.23013-45.70949-86.47-45.70949-85.04317-44.28265-85.04317-42.52252ZM-88.23013-42.52252"/>
<g clip-path="url(#clip_1)">
<rect transform="matrix(1,0,0,-1,0,242.753)" fill="url(#pattern_2)" x="23.825936" y="67.72472" width="8.504105" height="22.67752"/>
</g>
<path transform="matrix(1,0,0,-1,123.949,121.16701)" stroke-width=".99628" stroke-linecap="butt" stroke-miterlimit="10" stroke-linejoin="miter" fill="none" stroke="#3b7d08" d="M-85.04317 42.51874C-85.04317 44.27887-86.47 45.7057-88.23013 45.7057-89.99026 45.7057-91.41708 44.27887-91.41708 42.51874-91.41708 40.7586-89.99026 39.33179-88.23013 39.33179-86.47 39.33179-85.04317 40.7586-85.04317 42.51874ZM-88.23013 42.51874"/>
<g clip-path="url(#clip_4)">
<rect transform="matrix(1,0,0,-1,0,242.753)" fill="url(#pattern_5)" x="23.825936" y="152.76598" width="8.504105" height="22.67752"/>
</g>
<use data-text="u" xlink:href="#font_7_3" transform="matrix(9.9626,0,0,-9.9626,3.1539994,123.632)" fill="#6100ad"/>
<use data-text="x" xlink:href="#font_8_1" transform="matrix(6.9738,0,0,-6.9738,8.857999,125.12701)" fill="#6100ad"/>
<use data-text="=" xlink:href="#font_9_6" transform="matrix(9.9626,0,0,-9.9626,16.640999,123.632)" fill="#6100ad"/>
<use data-text="0" xlink:href="#font_9_3" transform="matrix(9.9626,0,0,-9.9626,27.161507,123.632)" fill="#6100ad"/>
<path transform="matrix(1,0,0,-1,123.949,121.16701)" stroke-width=".99628" stroke-linecap="butt" stroke-miterlimit="10" stroke-linejoin="miter" fill="none" stroke="#3b7d08" d="M91.41708-42.52252C91.41708-40.76239 89.99026-39.33557 88.23013-39.33557 86.47-39.33557 85.04317-40.76239 85.04317-42.52252 85.04317-44.28265 86.47-45.70949 88.23013-45.70949 89.99026-45.70949 91.41708-44.28265 91.41708-42.52252ZM88.23013-42.52252"/>
<g clip-path="url(#clip_10)">
<rect transform="matrix(1,0,0,-1,0,242.753)" fill="url(#pattern_11)" x="215.56797" y="67.72472" width="8.504089" height="22.67752"/>
</g>
<path transform="matrix(1,0,0,-1,123.949,121.16701)" stroke-width=".99628" stroke-linecap="butt" stroke-miterlimit="10" stroke-linejoin="miter" fill="none" stroke="#3b7d08" d="M91.41708 42.51874C91.41708 44.27887 89.99026 45.7057 88.23013 45.7057 86.47 45.7057 85.04317 44.27887 85.04317 42.51874 85.04317 40.7586 86.47 39.33179 88.23013 39.33179 89.99026 39.33179 91.41708 40.7586 91.41708 42.51874ZM88.23013 42.51874"/>
<g clip-path="url(#clip_13)">
<rect transform="matrix(1,0,0,-1,0,242.753)" fill="url(#pattern_14)" x="215.56797" y="152.76598" width="8.504089" height="22.67752"/>
</g>
<use data-text="u" xlink:href="#font_7_3" transform="matrix(9.9626,0,0,-9.9626,215.759,123.632)" fill="#6100ad"/>
<use data-text="x" xlink:href="#font_8_1" transform="matrix(6.9738,0,0,-6.9738,221.462,125.12701)" fill="#6100ad"/>
<use data-text="=" xlink:href="#font_9_6" transform="matrix(9.9626,0,0,-9.9626,229.24501,123.632)" fill="#6100ad"/>
<use data-text="0" xlink:href="#font_9_3" transform="matrix(9.9626,0,0,-9.9626,239.76552,123.632)" fill="#6100ad"/>
<path transform="matrix(1,0,0,-1,123.949,121.16701)" stroke-width=".99628" stroke-linecap="butt" stroke-miterlimit="10" stroke-linejoin="miter" fill="none" stroke="#3b7d08" d="M-39.33557-88.23013C-39.33557-86.47-40.76239-85.04317-42.52252-85.04317-44.28265-85.04317-45.70949-86.47-45.70949-88.23013-45.70949-89.99026-44.28265-91.41708-42.52252-91.41708-40.76239-91.41708-39.33557-89.99026-39.33557-88.23013ZM-42.52252-88.23013"/>
<g clip-path="url(#clip_16)">
<rect transform="matrix(1,0,0,-1,0,242.753)" fill="url(#pattern_17)" x="70.08772" y="21.462937" width="22.67752" height="8.504089"/>
</g>
<path transform="matrix(1,0,0,-1,123.949,121.16701)" stroke-width=".99628" stroke-linecap="butt" stroke-miterlimit="10" stroke-linejoin="miter" fill="none" stroke="#3b7d08" d="M45.7057-88.23013C45.7057-86.47 44.27887-85.04317 42.51874-85.04317 40.7586-85.04317 39.33179-86.47 39.33179-88.23013 39.33179-89.99026 40.7586-91.41708 42.51874-91.41708 44.27887-91.41708 45.7057-89.99026 45.7057-88.23013ZM42.51874-88.23013"/>
<g clip-path="url(#clip_19)">
<rect transform="matrix(1,0,0,-1,0,242.753)" fill="url(#pattern_20)" x="155.12899" y="21.462937" width="22.677506" height="8.504089"/>
</g>
<use data-text="u" xlink:href="#font_7_3" transform="matrix(9.9626,0,0,-9.9626,67.048,229.254)" fill="#6100ad"/>
<use data-text="y" xlink:href="#font_8_2" transform="matrix(6.9738,0,0,-6.9738,72.751,230.749)" fill="#6100ad"/>
<use data-text="=" xlink:href="#font_9_6" transform="matrix(9.9626,0,0,-9.9626,80.308,229.254)" fill="#6100ad"/>
<use data-text="0" xlink:href="#font_9_3" transform="matrix(9.9626,0,0,-9.9626,90.8285,229.254)" fill="#6100ad"/>
<use data-text="p" xlink:href="#font_7_1" transform="matrix(9.9626,0,0,-9.9626,112.308,9.574005)" fill="#6100ad"/>
<use data-text="=" xlink:href="#font_9_6" transform="matrix(9.9626,0,0,-9.9626,120.088,9.574005)" fill="#6100ad"/>
<use data-text="0" xlink:href="#font_9_3" transform="matrix(9.9626,0,0,-9.9626,130.6085,9.574005)" fill="#6100ad"/>
<path transform="matrix(1,0,0,-1,123.949,121.16701)" stroke-width="1.99255" stroke-linecap="butt" stroke-miterlimit="10" stroke-linejoin="miter" fill="none" stroke="#6100ad" d="M1.32588 106.30586C4.21725 89.9102-2.89279 101.43883-1.40305 92.99039"/>
<path transform="matrix(.17363,.9848,.9848,-.17363,122.54594,28.176606)" d="M3.93657 0C3.45314 .11797 1.32814 .78648 0 1.51398V-1.51398C1.32814-.78648 3.45314-.11797 3.93657 0Z" fill="#6100ad"/>
<path transform="matrix(.17363,.9848,.9848,-.17363,122.54594,28.176606)" stroke-width="1.79326" stroke-linecap="butt" stroke-miterlimit="10" stroke-linejoin="miter" fill="none" stroke="#6100ad" d="M3.93657 0C3.45314 .11797 1.32814 .78648 0 1.51398V-1.51398C1.32814-.78648 3.45314-.11797 3.93657 0Z"/>
<path transform="matrix(1,0,0,-1,123.949,121.16701)" stroke-width="1.99255" stroke-linecap="butt" stroke-miterlimit="10" stroke-linejoin="miter" fill="none" stroke="#6100ad" d="M0-93.11304V-106.3035"/>
<path transform="matrix(0,-1,-1,-0,123.949,214.28005)" d="M3.93657 0C3.45314 .11797 1.32814 .78648 0 1.51398V-1.51398C1.32814-.78648 3.45314-.11797 3.93657 0Z" fill="#6100ad"/>
<path transform="matrix(0,-1,-1,-0,123.949,214.28005)" stroke-width="1.79326" stroke-linecap="butt" stroke-miterlimit="10" stroke-linejoin="miter" fill="none" stroke="#6100ad" d="M3.93657 0C3.45314 .11797 1.32814 .78648 0 1.51398V-1.51398C1.32814-.78648 3.45314-.11797 3.93657 0Z"/>
<use data-text="p" xlink:href="#font_7_1" transform="matrix(9.9626,0,0,-9.9626,99.49,237.66101)" fill="#6100ad"/>
<use data-text="=" xlink:href="#font_9_6" transform="matrix(9.9626,0,0,-9.9626,107.27,237.66101)" fill="#6100ad"/>
<use data-text="1" xlink:href="#font_9_4" transform="matrix(9.9626,0,0,-9.9626,117.7905,237.66101)" fill="#6100ad"/>
<use data-text="0" xlink:href="#font_9_3" transform="matrix(9.9626,0,0,-9.9626,122.7718,237.66101)" fill="#6100ad"/>
<use data-text="M" xlink:href="#font_22_5" transform="matrix(9.4645,0,0,-9.4645,129.32599,237.66101)" fill="#6100ad"/>
<use data-text="P" xlink:href="#font_22_6" transform="matrix(9.4645,0,0,-9.4645,137.20992,237.66101)" fill="#6100ad"/>
<use data-text="a" xlink:href="#font_22_7" transform="matrix(9.4645,0,0,-9.4645,143.14415,237.66101)" fill="#6100ad"/>
<use data-text="p" xlink:href="#font_7_1" transform="matrix(9.9626,0,0,-9.9626,87.175998,106.647)" fill="#6100ad"/>
<use data-text="(" xlink:href="#font_9_1" transform="matrix(9.9626,0,0,-9.9626,92.187999,106.647)" fill="#6100ad"/>
<use data-text="t" xlink:href="#font_7_2" transform="matrix(9.9626,0,0,-9.9626,96.062,106.647)" fill="#6100ad"/>
<use data-text="=" xlink:href="#font_9_6" transform="matrix(9.9626,0,0,-9.9626,102.426998,106.647)" fill="#6100ad"/>
<use data-text="0" xlink:href="#font_9_3" transform="matrix(9.9626,0,0,-9.9626,112.947498,106.647)" fill="#6100ad"/>
<use data-text=")" xlink:href="#font_9_2" transform="matrix(9.9626,0,0,-9.9626,117.928798,106.647)" fill="#6100ad"/>
<use data-text="=" xlink:href="#font_9_6" transform="matrix(9.9626,0,0,-9.9626,124.573848,106.647)" fill="#6100ad"/>
<use data-text="5" xlink:href="#font_9_5" transform="matrix(9.9626,0,0,-9.9626,135.08438,106.647)" fill="#6100ad"/>
<use data-text="M" xlink:href="#font_22_5" transform="matrix(9.4645,0,0,-9.4645,141.64099,106.647)" fill="#6100ad"/>
<use data-text="P" xlink:href="#font_22_6" transform="matrix(9.4645,0,0,-9.4645,149.52494,106.647)" fill="#6100ad"/>
<use data-text="a" xlink:href="#font_22_7" transform="matrix(9.4645,0,0,-9.4645,155.45917,106.647)" fill="#6100ad"/>
</svg>
