<?xml version="1.0" encoding="UTF-8" standalone="no"?>
<!DOCTYPE svg PUBLIC "-//W3C//DTD SVG 1.1//EN" "http://www.w3.org/Graphics/SVG/1.1/DTD/svg11.dtd">
<svg xmlns="http://www.w3.org/2000/svg" xmlns:xlink="http://www.w3.org/1999/xlink" version="1.1" width="440pt" height="279pt" viewBox="0 0 440 279">
<g enable-background="new">
<clipPath id="cp0">
<path transform="matrix(.12,0,0,-.12,0,279)" d="M 0 0 L 3666.07 0 L 3666.07 2321.46 L 0 2321.46 Z "/>
</clipPath>
<g clip-path="url(#cp0)">
<path transform="matrix(.12,0,0,-.12,0,279)" d="M 2865.21 1206.69 L 2852.98 1205.25 L 2841.5 1201.67 L 2830.73 1195.93 L 2822.09 1188.73 L 2814.93 1180.13 L 2809.18 1169.33 L 2805.57 1157.85 L 2804.14 1145.64 L 2804.14 474.766 L 2805.57 462.559 L 2809.18 451.059 L 2814.93 440.301 L 2822.09 431.676 L 2830.73 423.766 L 2841.5 418.75 L 2852.98 415.148 L 2865.21 413.707 L 3605.02 413.707 L 3617.23 415.148 L 3628.71 418.75 L 3639.51 423.766 L 3648.12 431.676 L 3656.02 440.301 L 3661.04 451.059 L 3664.64 462.559 L 3666.07 474.766 L 3666.07 1145.64 L 3664.64 1157.85 L 3661.04 1169.33 L 3656.02 1180.13 L 3648.12 1188.73 L 3639.51 1195.93 L 3628.71 1201.67 L 3617.23 1205.25 L 3605.02 1206.69 L 2865.21 1206.69 " fill="#8d959b" fill-rule="evenodd"/>
<path transform="matrix(.12,0,0,-.12,0,279)" d="M 2853.71 1218.18 L 2841.5 1216.75 L 2830.01 1213.15 L 2819.21 1207.4 L 2810.62 1200.23 L 2803.42 1191.61 L 2797.68 1180.83 L 2794.08 1169.33 L 2792.66 1157.13 L 2792.66 486.258 L 2794.08 474.051 L 2797.68 462.559 L 2803.42 451.793 L 2810.62 443.168 L 2819.21 435.258 L 2830.01 430.234 L 2841.5 426.66 L 2853.71 425.207 L 3593.52 425.207 L 3605.74 426.66 L 3617.23 430.234 L 3628.01 435.258 L 3636.62 443.168 L 3644.52 451.793 L 3649.56 462.559 L 3653.15 474.051 L 3654.58 486.258 L 3654.58 1157.13 L 3653.15 1169.33 L 3649.56 1180.83 L 3644.52 1191.61 L 3636.62 1200.23 L 3628.01 1207.4 L 3617.23 1213.15 L 3605.74 1216.75 L 3593.52 1218.18 L 2853.71 1218.18 " fill="#cacfe9" fill-rule="evenodd"/>
<symbol id="font_1_e">
<path d="M .32100005 .104 C .29800005 .083000008 .26900003 .072000008 .235 .072000008 C .192 .072000008 .157 .08800001 .13 .119 C .103 .15100001 .09 .20100002 .09 .27100004 C .09 .34000004 .104 .39000003 .132 .42100004 C .15900001 .45300005 .19500001 .46900005 .24 .46900005 C .26900003 .46900005 .29400004 .46000005 .31500004 .44300003 C .33500005 .42500005 .35000003 .39900003 .35800005 .36400003 L .44300003 .37700004 C .43300004 .42900003 .41000004 .47000004 .37400005 .49800004 C .33800004 .527 .29200004 .541 .23600002 .541 C .192 .541 .15 .531 .112 .51 C .075 .48900003 .046 .45700003 .028 .41500003 C .009 .37300004 0 .32400004 0 .26900003 C 0 .18200001 .022 .116000007 .065 .069000009 C .107999999 .023000002 .165 0 .23600002 0 C .29200004 0 .34000004 .017 .37900005 .05 C .41700004 .08400001 .44200004 .13000001 .45100004 .18900001 L .36500005 .20100002 C .35900004 .15700002 .344 .12500002 .32100005 .104 Z "/>
</symbol>
<symbol id="font_1_2">
<path d="M .067 .07000001 C .11200001 .023000002 .171 0 .24300003 0 C .28900004 0 .33 .011000001 .36900003 .032 C .40700004 .053000004 .43600003 .082 .45600004 .12100001 C .476 .15900001 .48600007 .21100001 .48600007 .27800004 C .48600007 .36 .46300004 .42400003 .41800005 .47100003 C .37300004 .518 .31500004 .541 .24300003 .541 C .17900002 .541 .125 .522 .080000009 .48300005 C .027000003 .43700005 0 .36600004 0 .27 C 0 .18300002 .022000004 .116000007 .067 .07000001 M .134 .41900004 C .16300002 .45200003 .199 .46800003 .24300003 .46800003 C .28700004 .46800003 .323 .45200003 .35200004 .41900004 C .38100005 .38600005 .39600004 .337 .39600004 .27300004 C .39600004 .20500002 .38100005 .15500002 .35200004 .12200001 C .323 .089 .28700004 .072000008 .24300003 .072000008 C .199 .072000008 .16300002 .08800001 .134 .12100001 C .10500001 .15400002 .09 .20400001 .09 .27 C .09 .33600004 .10500001 .38600005 .134 .41900004 Z "/>
</symbol>
<symbol id="font_1_16">
<path d="M .088000018 0 L .088000018 .26900003 C .088000018 .316 .09300001 .35200004 .10200001 .377 C .112 .402 .127 .42100004 .14800002 .43400003 C .16900002 .44700004 .19200002 .45400004 .216 .45400004 C .24900003 .45400004 .272 .44400005 .287 .425 C .301 .40500004 .30800004 .37600003 .30800004 .337 L .30800004 0 L .39600004 0 L .39600004 .30100004 C .39600004 .35500003 .40800006 .393 .43200005 .418 C .45600004 .44200004 .48700006 .45400004 .52300009 .45400004 C .544 .45400004 .56100007 .44900004 .57600006 .44000004 C .591 .43 .60200008 .418 .60700008 .402 C .61300006 .38700003 .61600008 .36200003 .61600008 .32700003 L .61600008 0 L .70400008 0 L .70400008 .356 C .70400008 .41500003 .69000008 .45900003 .66200008 .48700003 C .63500007 .51600006 .595 .53000006 .54300007 .53000006 C .47700007 .53000006 .42400003 .5 .38200004 .439 C .37200005 .46800003 .35500003 .49 .33000005 .50600007 C .306 .522 .274 .53000006 .23600002 .53000006 C .202 .53000006 .17100002 .522 .14400001 .507 C .11700001 .49100004 .09500001 .47100003 .07900001 .446 L .07900001 .51900008 L 0 .51900008 L 0 0 L .088000018 0 Z "/>
</symbol>
<symbol id="font_1_3">
<path d="M .088000018 0 L .088000018 .25300003 C .103000018 .23400001 .12200001 .21900001 .14500001 .20600002 C .16900002 .19400002 .19500001 .18800001 .22400002 .18800001 C .264 .18800001 .30200006 .19900002 .33900006 .22200002 C .375 .24400002 .402 .277 .421 .319 C .44000007 .36200003 .45000006 .40900005 .45000006 .462 C .45000006 .512 .44100005 .55700007 .42400003 .59900006 C .407 .64000007 .38100005 .67200008 .34800006 .69500008 C .314 .71800008 .27500005 .72900006 .23 .72900006 C .19700001 .72900006 .16800002 .722 .14400001 .70900008 C .120000008 .69600006 .09900001 .67600008 .08000001 .65000006 L .08000001 .71800008 L 0 .71800008 L 0 0 L .088000018 0 M .12300001 .60800006 C .15200001 .64300009 .18500002 .66 .22200002 .66 C .26 .66 .292 .64400008 .319 .61100009 C .34600003 .578 .36 .52900007 .36 .463 C .36 .393 .34600003 .342 .31800003 .30900003 C .291 .27600003 .25700004 .26000003 .21800001 .26000003 C .18 .26000003 .14700002 .27600003 .120000008 .30800004 C .09300001 .34000004 .08000001 .38900004 .08000001 .45500005 C .08000001 .522 .09400001 .573 .12300001 .60800006 Z "/>
</symbol>
<symbol id="font_1_1">
<path d="M .088000018 0 L .088000018 .28300003 C .088000018 .35000003 .10200001 .395 .12900001 .418 C .15600002 .44200004 .18800001 .45400004 .22500001 .45400004 C .24900003 .45400004 .269 .44900004 .286 .43800003 C .30400003 .42800004 .31600005 .41300003 .323 .39600004 C .33000005 .37800003 .333 .351 .333 .31500004 L .333 0 L .421 0 L .421 .319 C .421 .35900004 .41900004 .388 .416 .404 C .411 .42900003 .402 .45100004 .389 .469 C .37600006 .48700003 .356 .50200006 .33000005 .513 C .30400003 .52400007 .27500005 .53000006 .244 .53000006 C .172 .53000006 .11700001 .50200006 .07900001 .44500003 L .07900001 .51900008 L 0 .51900008 L 0 0 L .088000018 0 Z "/>
</symbol>
<symbol id="font_1_10">
<path d="M .32900004 .098000008 C .30600003 .080000009 .279 .072000008 .24700001 .072000008 C .20300001 .072000008 .16700001 .087000008 .13800001 .117000009 C .10900001 .14800002 .09300001 .19100002 .09 .24800003 L .477 .24800003 C .477 .25800003 .477 .26600004 .477 .27100004 C .477 .35700003 .455 .42300005 .411 .47000004 C .367 .517 .31100003 .541 .24200002 .541 C .17000002 .541 .112 .517 .067 .46900005 C .022000004 .42100004 0 .35300002 0 .26600004 C 0 .18200001 .022000004 .117000009 .067 .07000001 C .111 .023000002 .171 0 .24700001 0 C .307 0 .356 .015000001 .395 .044 C .43300004 .07300001 .46 .11400001 .47400005 .16700001 L .38300003 .17900002 C .37 .14200002 .35200004 .115 .32900004 .098000008 M .141 .42800004 C .16800002 .45500005 .202 .46900005 .24200002 .46900005 C .287 .46900005 .323 .45200003 .351 .418 C .36900003 .39600004 .38000003 .36400003 .38400004 .32000003 L .095 .32000003 C .098000008 .365 .113000009 .40100003 .141 .42800004 Z "/>
</symbol>
<symbol id="font_1_6">
<path d="M .20300001 .082 C .19000001 .082 .18 .08400001 .17300001 .088 C .16600001 .092 .161 .098000008 .158 .105000007 C .155 .113000009 .15300001 .12900001 .15300001 .154 L .15300001 .45800004 L .241 .45800004 L .241 .5260001 L .15300001 .5260001 L .15300001 .7070001 L .065 .65400007 L .065 .5260001 L 0 .5260001 L 0 .45800004 L .065 .45800004 L .065 .15900001 C .065 .106000009 .069 .071 .076000008 .055 C .083000008 .038000004 .095000009 .025000003 .113000009 .015000001 C .13000001 .005 .155 0 .187 0 C .20600002 0 .22800002 .0019999999 .25300003 .008 L .241 .085 C .22500001 .083000008 .21200001 .082 .20300001 .082 Z "/>
</symbol>
<use xlink:href="#font_1_e" transform="matrix(11.032695,0,0,-11.032695,361.33119,171.55339)" fill="#8d959b"/>
<use xlink:href="#font_1_2" transform="matrix(11.032695,0,0,-11.032695,366.7703,171.55339)" fill="#8d959b"/>
<use xlink:href="#font_1_16" transform="matrix(11.032695,0,0,-11.032695,373.26856,171.43204)" fill="#8d959b"/>
<use xlink:href="#font_1_3" transform="matrix(11.032695,0,0,-11.032695,382.4588,173.62755)" fill="#8d959b"/>
<use xlink:href="#font_1_2" transform="matrix(11.032695,0,0,-11.032695,388.2289,171.55339)" fill="#8d959b"/>
<use xlink:href="#font_1_1" transform="matrix(11.032695,0,0,-11.032695,394.72718,171.43204)" fill="#8d959b"/>
<use xlink:href="#font_1_10" transform="matrix(11.032695,0,0,-11.032695,400.5414,171.55339)" fill="#8d959b"/>
<use xlink:href="#font_1_1" transform="matrix(11.032695,0,0,-11.032695,406.9955,171.43204)" fill="#8d959b"/>
<use xlink:href="#font_1_6" transform="matrix(11.032695,0,0,-11.032695,412.57807,171.50926)" fill="#8d959b"/>
<path transform="matrix(.12,0,0,-.12,0,279)" d="M 2838.62 861.918 L 3631.604 861.918 L 3631.604 999.83206 L 2838.62 999.83206 Z " fill="#8d959b" fill-rule="evenodd"/>
<path transform="matrix(.12,0,0,-.12,0,279)" d="M 2827.12 873.398 L 3620.104 873.398 L 3620.104 1011.324 L 2827.12 1011.324 Z " fill="#6f7eab" fill-rule="evenodd"/>
<use xlink:href="#font_1_e" transform="matrix(11.032695,0,0,-11.032695,359.95118,170.1744)" fill="#ffffff"/>
<use xlink:href="#font_1_2" transform="matrix(11.032695,0,0,-11.032695,365.3903,170.1744)" fill="#ffffff"/>
<use xlink:href="#font_1_16" transform="matrix(11.032695,0,0,-11.032695,371.88856,170.05304)" fill="#ffffff"/>
<use xlink:href="#font_1_3" transform="matrix(11.032695,0,0,-11.032695,381.0788,172.24855)" fill="#ffffff"/>
<use xlink:href="#font_1_2" transform="matrix(11.032695,0,0,-11.032695,386.8489,170.1744)" fill="#ffffff"/>
<use xlink:href="#font_1_1" transform="matrix(11.032695,0,0,-11.032695,393.34718,170.05304)" fill="#ffffff"/>
<use xlink:href="#font_1_10" transform="matrix(11.032695,0,0,-11.032695,399.1614,170.1744)" fill="#ffffff"/>
<use xlink:href="#font_1_1" transform="matrix(11.032695,0,0,-11.032695,405.6155,170.05304)" fill="#ffffff"/>
<use xlink:href="#font_1_6" transform="matrix(11.032695,0,0,-11.032695,411.19807,170.13027)" fill="#ffffff"/>
<symbol id="font_1_c">
<path d="M .081999998 .076000008 C .117000009 .025000003 .16499999 0 .22600001 0 C .28700004 0 .34000004 .024 .38400004 .07300001 C .42800004 .12100001 .45000006 .19000001 .45000006 .27800004 C .45000006 .316 .44500006 .351 .43400003 .38400004 C .42400003 .41600005 .41000004 .44400005 .39100004 .46800003 C .37300004 .49100004 .34900005 .509 .321 .522 C .29200004 .535 .26200003 .541 .23000002 .541 C .17300001 .541 .125 .518 .08800001 .47100003 L .08800001 .727 L 0 .727 L 0 .011000001 L .081999998 .011000001 L .081999998 .076000008 M .123 .41900004 C .151 .45200003 .18400002 .46900005 .222 .46900005 C .26000003 .46900005 .293 .45300005 .32000003 .42100004 C .34700004 .38900004 .36 .33900003 .36 .27100004 C .36 .20500002 .34600003 .15500002 .31800003 .12200001 C .29000003 .089 .25700004 .072000008 .21900001 .072000008 C .171 .072000008 .134 .095000009 .106 .14000002 C .08900001 .16700001 .08100001 .21200001 .08100001 .27400003 C .08100001 .337 .095000009 .38600005 .123 .41900004 Z "/>
</symbol>
<symbol id="font_1_13">
<path d="M .088000018 .61600008 L .088000018 .716 L 0 .716 L 0 .61600008 L .088000018 .61600008 M .088000018 0 L .088000018 .51900008 L 0 .51900008 L 0 0 L .088000018 0 Z "/>
</symbol>
<symbol id="font_1_f">
<path d="M .45000003 .011000001 L .45000003 .727 L .36200003 .727 L .36200003 .46900005 C .34700004 .49100004 .32700003 .508 .30200003 .521 C .27800004 .534 .25000004 .541 .21900001 .541 C .176 .541 .13800001 .53000006 .10300001 .507 C .069000009 .48500005 .043000007 .45300005 .026000005 .411 C .009000003 .36900003 0 .32200004 0 .27 C 0 .21700002 .010000002 .17000002 .029000003 .12900001 C .048 .089 .07400001 .057000005 .109000008 .034 C .144 .011000001 .18200001 0 .22300002 0 C .28700004 0 .33500005 .026 .36800004 .077 L .36800004 .011000001 L .45000003 .011000001 M .12900001 .42000003 C .15600002 .45200003 .18800003 .46800003 .22800002 .46800003 C .26800005 .46800003 .30100004 .45100004 .32900004 .418 C .35600005 .38500003 .37000004 .33300004 .37000004 .26200003 C .37000004 .19800002 .35700003 .15000002 .33 .119 C .30300004 .08800001 .27 .072000008 .231 .072000008 C .19300002 .072000008 .16 .08800001 .132 .12100001 C .10400001 .15400002 .09 .20300001 .09 .27 C .09 .33800004 .10300001 .388 .12900001 .42000003 Z "/>
</symbol>
<symbol id="font_1_12">
<path d="M .073 .041999997 C .111 .013999999 .161 0 .22300002 0 C .275 0 .319 .010000005 .354 .029 C .39000003 .048999996 .416 .075 .432 .109000008 C .44900004 .143 .45700003 .2 .45700003 .28100003 L .45700003 .7290001 L .37600003 .7290001 L .37600003 .665 C .33600004 .71500006 .286 .74 .225 .74 C .179 .74 .139 .7290001 .105000007 .70600005 C .07100001 .683 .045000007 .651 .027000003 .609 C .009 .56700006 0 .522 0 .47200004 C 0 .40000005 .02 .33900003 .059000005 .287 C .098000008 .236 .153 .21000001 .224 .21000001 C .282 .21000001 .33 .23300001 .368 .278 C .368 .22100002 .36600004 .18300002 .36200003 .16600001 C .354 .136 .33900003 .11400001 .317 .097 C .29500003 .081 .263 .073 .222 .073 C .184 .073 .155 .081 .133 .097 C .117 .109000008 .10700001 .12900001 .103 .155 L .018 .16700001 C .017 .111 .035 .069000009 .073 .041999997 M .131 .619 C .158 .651 .192 .66700008 .231 .66700008 C .271 .66700008 .305 .651 .333 .619 C .361 .587 .375 .53900006 .375 .47500003 C .375 .40900005 .361 .361 .33400003 .33 C .307 .298 .273 .28300003 .232 .28300003 C .192 .28300003 .158 .29900003 .131 .33 C .104 .361 .09 .41000004 .09 .47800002 C .09 .541 .104 .58800008 .131 .619 Z "/>
</symbol>
<symbol id="font_1_5">
<path d="M .068 .042000005 C .103 .014 .154 0 .22200002 0 C .263 0 .29900003 .0070000009 .33100004 .021000002 C .36400003 .035 .38800005 .055000005 .40500004 .081 C .42200003 .107 .43100003 .134 .43100003 .16400002 C .43100003 .19400002 .42400003 .21900001 .41000004 .23900002 C .39600004 .259 .37600003 .27400003 .35200004 .28500004 C .32700003 .29500003 .28400005 .30900003 .22200002 .32600004 C .179 .337 .15300001 .34500004 .14400001 .34800003 C .12900001 .35400004 .118 .36200003 .111 .37100003 C .104 .38000003 .10000001 .39100004 .10000001 .40200005 C .10000001 .42000003 .109 .43600003 .126 .44900004 C .143 .46200005 .172 .46900005 .21200001 .46900005 C .246 .46900005 .272 .46100004 .29100005 .44600005 C .31000004 .43100003 .32100005 .41000004 .32500003 .38300003 L .41100005 .395 C .40500004 .42900003 .39500005 .45500005 .38100005 .47600005 C .36600004 .49600003 .34300003 .512 .31300003 .523 C .28200004 .535 .246 .541 .20600002 .541 C .179 .541 .15300001 .537 .13000001 .531 C .106000009 .524 .088 .515 .074 .505 C .056 .49200005 .041 .47600005 .031000002 .45600004 C .020000002 .43600003 .015000002 .41500003 .015000002 .39200003 C .015000002 .367 .021 .34300003 .034 .32200004 C .047 .30100004 .066 .28500004 .091000009 .27300004 C .116 .261 .16000001 .24700003 .22500001 .23100002 C .272 .21900001 .30200003 .20900002 .31500004 .20100002 C .33200003 .19000001 .34100003 .17400001 .34100003 .15400002 C .34100003 .13200002 .33100004 .113000009 .31200005 .097 C .29200004 .080000009 .26200003 .072000008 .22200002 .072000008 C .18100001 .072000008 .15 .081 .128 .1 C .106000009 .11800001 .092 .14500001 .087000008 .18000002 L 0 .16600001 C .01 .111 .031999999 .07000001 .068 .042000005 Z "/>
</symbol>
<use xlink:href="#font_1_c" transform="matrix(11.032695,0,0,-11.032695,368.417,196.37619)" fill="#8d959b"/>
<use xlink:href="#font_1_13" transform="matrix(11.032695,0,0,-11.032695,374.5622,196.25484)" fill="#8d959b"/>
<use xlink:href="#font_1_1" transform="matrix(11.032695,0,0,-11.032695,377.01145,196.25484)" fill="#8d959b"/>
<use xlink:href="#font_1_f" transform="matrix(11.032695,0,0,-11.032695,382.78157,196.37619)" fill="#8d959b"/>
<use xlink:href="#font_1_13" transform="matrix(11.032695,0,0,-11.032695,389.27983,196.25484)" fill="#8d959b"/>
<use xlink:href="#font_1_1" transform="matrix(11.032695,0,0,-11.032695,391.72908,196.25484)" fill="#8d959b"/>
<use xlink:href="#font_1_12" transform="matrix(11.032695,0,0,-11.032695,397.48817,198.5717)" fill="#8d959b"/>
<use xlink:href="#font_1_5" transform="matrix(11.032695,0,0,-11.032695,403.61128,196.37619)" fill="#8d959b"/>
<path transform="matrix(.12,0,0,-.12,0,279)" d="M 2838.62 655.051 L 3631.604 655.051 L 3631.604 792.97708 L 2838.62 792.97708 Z " fill="#8d959b" fill-rule="evenodd"/>
<path transform="matrix(.12,0,0,-.12,0,279)" d="M 2827.12 666.543 L 3620.104 666.543 L 3620.104 804.45706 L 2827.12 804.45706 Z " fill="#00a6b6" fill-rule="evenodd"/>
<use xlink:href="#font_1_c" transform="matrix(11.032695,0,0,-11.032695,367.03498,194.9972)" fill="#ffffff"/>
<use xlink:href="#font_1_13" transform="matrix(11.032695,0,0,-11.032695,373.18019,194.87584)" fill="#ffffff"/>
<use xlink:href="#font_1_1" transform="matrix(11.032695,0,0,-11.032695,375.62944,194.87584)" fill="#ffffff"/>
<use xlink:href="#font_1_f" transform="matrix(11.032695,0,0,-11.032695,381.39955,194.9972)" fill="#ffffff"/>
<use xlink:href="#font_1_13" transform="matrix(11.032695,0,0,-11.032695,387.8978,194.87584)" fill="#ffffff"/>
<use xlink:href="#font_1_1" transform="matrix(11.032695,0,0,-11.032695,390.34706,194.87584)" fill="#ffffff"/>
<use xlink:href="#font_1_12" transform="matrix(11.032695,0,0,-11.032695,396.10615,197.1927)" fill="#ffffff"/>
<use xlink:href="#font_1_5" transform="matrix(11.032695,0,0,-11.032695,402.22929,194.9972)" fill="#ffffff"/>
<symbol id="font_1_15">
<path d="M .08800001 0 L .08800001 .716 L 0 .716 L 0 0 L .08800001 0 Z "/>
</symbol>
<symbol id="font_1_4">
<path d="M .08800001 0 L .08800001 .27100004 C .08800001 .30800004 .093 .342 .10300001 .374 C .109000008 .39400003 .12 .41000004 .13499999 .42200003 C .15 .43300004 .16800002 .439 .187 .439 C .208 .439 .229 .43300004 .25100003 .42100004 L .282 .50200006 C .25100003 .521 .22100002 .53000006 .192 .53000006 C .171 .53000006 .15200001 .52400007 .13499999 .512 C .11800001 .50100007 .099 .476 .079 .439 L .079 .51900008 L 0 .51900008 L 0 0 L .08800001 0 Z "/>
</symbol>
<symbol id="font_1_a">
<path d="M .386 .011000001 L .478 .011000001 C .467 .031000004 .46 .052 .456 .074 C .453 .095000009 .451 .14700002 .451 .22800002 L .451 .34500004 C .451 .38400004 .45000003 .411 .447 .42600004 C .441 .45000003 .432 .47000004 .419 .48600004 C .40600003 .50200006 .386 .515 .358 .525 C .33 .536 .294 .541 .25 .541 C .20500002 .541 .16600001 .535 .13200002 .523 C .098000008 .51 .072 .49300004 .054 .47000004 C .036000004 .448 .023000002 .418 .015000001 .381 L .10100001 .36900003 C .110000018 .40600003 .12500002 .43200005 .14500001 .44600005 C .165 .46100004 .19500001 .46800003 .237 .46800003 C .281 .46800003 .315 .45800004 .337 .43800003 C .354 .42400003 .36200003 .39900003 .36200003 .36300005 C .36200003 .36 .36200003 .35200004 .36200003 .34000004 C .328 .328 .276 .31800003 .20400001 .31000004 C .17000002 .30600003 .14400001 .30100004 .126 .29700003 C .103000018 .29000003 .082 .28100003 .06300001 .268 C .044000005 .25500003 .029000003 .23800002 .017 .21700002 C .006000001 .19700001 0 .17300001 0 .14800002 C 0 .105000007 .015000001 .069000009 .046 .042000005 C .07700001 .014 .12100001 0 .17800002 0 C .21200001 0 .24500002 .0060000007 .275 .017 C .305 .029000003 .336 .048 .36900003 .076000008 C .372 .051000004 .377 .030000002 .386 .011000001 M .36200003 .23900002 C .36200003 .20000002 .357 .17100002 .347 .15200001 C .335 .126 .316 .106000009 .289 .091000009 C .263 .076000008 .23300003 .069000009 .19900002 .069000009 C .164 .069000009 .13800001 .077 .12100001 .092 C .103000018 .108 .09400001 .127 .09400001 .15100001 C .09400001 .16600001 .098000008 .18000002 .106000009 .19200002 C .11400001 .20500002 .126 .21400002 .141 .22000002 C .156 .22700002 .18200001 .23300003 .21800001 .23800002 C .282 .24700003 .33 .25800003 .36200003 .27100004 L .36200003 .23900002 Z "/>
</symbol>
<symbol id="font_1_d">
<path d="M .103 0 C .131 0 .155 .0069999995 .17500001 .019999996 C .19600001 .033999996 .214 .055000009 .229 .08400001 C .241 .105000007 .257 .14400001 .279 .201 L .47500003 .7290001 L .38700003 .7290001 L .27600003 .426 C .26200003 .388 .25 .34900005 .24000001 .31 C .229 .351 .216 .39100004 .202 .42900003 L .094000007 .7290001 L 0 .7290001 L .19700001 .208 C .193 .199 .19100002 .192 .18900001 .187 C .177 .15200001 .16800002 .13 .162 .12100001 C .155 .109000008 .14500001 .1 .133 .094000007 C .12200001 .087000008 .106000009 .08400001 .086 .08400001 C .072000008 .08400001 .055 .087000008 .036 .092 L .046000005 .0109999929 C .067 .003999993 .086 0 .103 0 Z "/>
</symbol>
<use xlink:href="#font_1_15" transform="matrix(11.032695,0,0,-11.032695,373.92195,221.07892)" fill="#8d959b"/>
<use xlink:href="#font_1_13" transform="matrix(11.032695,0,0,-11.032695,376.39326,221.07892)" fill="#8d959b"/>
<use xlink:href="#font_1_c" transform="matrix(11.032695,0,0,-11.032695,378.83149,221.20027)" fill="#8d959b"/>
<use xlink:href="#font_1_4" transform="matrix(11.032695,0,0,-11.032695,384.96568,221.07892)" fill="#8d959b"/>
<use xlink:href="#font_1_a" transform="matrix(11.032695,0,0,-11.032695,388.3196,221.20027)" fill="#8d959b"/>
<use xlink:href="#font_1_4" transform="matrix(11.032695,0,0,-11.032695,394.77375,221.07892)" fill="#8d959b"/>
<use xlink:href="#font_1_d" transform="matrix(11.032695,0,0,-11.032695,397.907,223.39579)" fill="#8d959b"/>
<path transform="matrix(.12,0,0,-.12,0,279)" d="M 2838.62 448.191 L 3631.604 448.191 L 3631.604 586.089 L 2838.62 586.089 Z " fill="#8d959b" fill-rule="evenodd"/>
<path transform="matrix(.12,0,0,-.12,0,279)" d="M 2827.12 459.699 L 3620.104 459.699 L 3620.104 597.59 L 2827.12 597.59 Z " fill="#0081b4" fill-rule="evenodd"/>
<use xlink:href="#font_1_15" transform="matrix(11.032695,0,0,-11.032695,372.54194,219.69892)" fill="#ffffff"/>
<use xlink:href="#font_1_13" transform="matrix(11.032695,0,0,-11.032695,375.01325,219.69892)" fill="#ffffff"/>
<use xlink:href="#font_1_c" transform="matrix(11.032695,0,0,-11.032695,377.45149,219.82027)" fill="#ffffff"/>
<use xlink:href="#font_1_4" transform="matrix(11.032695,0,0,-11.032695,383.58567,219.69892)" fill="#ffffff"/>
<use xlink:href="#font_1_a" transform="matrix(11.032695,0,0,-11.032695,386.9396,219.82027)" fill="#ffffff"/>
<use xlink:href="#font_1_4" transform="matrix(11.032695,0,0,-11.032695,393.39375,219.69892)" fill="#ffffff"/>
<use xlink:href="#font_1_d" transform="matrix(11.032695,0,0,-11.032695,396.527,222.01578)" fill="#ffffff"/>
<symbol id="font_1_b">
<path d="M .10700001 0 L .246 .19800002 L .271 .16000001 L .378 0 L .485 0 L .297 .26900003 L .47300003 .51900008 L .366 .51900008 L .28 .397 C .268 .38000003 .255 .36100004 .24000001 .34 C .23100002 .35500003 .21900001 .374 .20400001 .39600004 L .12200001 .51900008 L .014000001 .51900008 L .19000001 .26900003 L 0 0 L .10700001 0 Z "/>
</symbol>
<use xlink:href="#font_1_10" transform="matrix(12.411796,0,0,-12.411796,344.71409,147.5206)" fill="#1f7bc0"/>
<use xlink:href="#font_1_b" transform="matrix(12.411796,0,0,-12.411796,351.2303,147.38407)" fill="#1f7bc0"/>
<use xlink:href="#font_1_6" transform="matrix(12.411796,0,0,-12.411796,357.5603,147.47095)" fill="#1f7bc0"/>
<use xlink:href="#font_1_10" transform="matrix(12.411796,0,0,-12.411796,361.27143,147.5206)" fill="#1f7bc0"/>
<use xlink:href="#font_1_1" transform="matrix(12.411796,0,0,-12.411796,368.53236,147.38407)" fill="#1f7bc0"/>
<use xlink:href="#font_1_5" transform="matrix(12.411796,0,0,-12.411796,374.9989,147.5206)" fill="#1f7bc0"/>
<use xlink:href="#font_1_13" transform="matrix(12.411796,0,0,-12.411796,381.63923,147.38407)" fill="#1f7bc0"/>
<use xlink:href="#font_1_2" transform="matrix(12.411796,0,0,-12.411796,383.98506,147.5206)" fill="#1f7bc0"/>
<use xlink:href="#font_1_1" transform="matrix(12.411796,0,0,-12.411796,391.29563,147.38407)" fill="#1f7bc0"/>
<path transform="matrix(.12,0,0,-.12,0,279)" d="M 72.5469 1172.21 L 60.332 1170.79 L 48.8398 1167.19 L 38.0664 1161.44 L 29.4531 1154.26 L 22.2656 1145.64 L 16.5195 1134.86 L 12.9258 1123.37 L 11.4922 1111.17 L 11.4922 440.301 L 12.9258 428.074 L 16.5195 416.59 L 22.2656 405.824 L 29.4531 397.191 L 38.0664 389.301 L 48.8398 384.266 L 60.332 380.684 L 72.5469 379.234 L 812.367 379.234 L 824.578 380.684 L 836.074 384.266 L 846.852 389.301 L 855.465 397.191 L 863.367 405.824 L 868.398 416.59 L 871.984 428.074 L 873.434 440.301 L 873.434 1111.17 L 871.984 1123.37 L 868.398 1134.86 L 863.367 1145.64 L 855.465 1154.26 L 846.852 1161.44 L 836.074 1167.19 L 824.578 1170.79 L 812.367 1172.21 L 72.5469 1172.21 " fill="#8d959b" fill-rule="evenodd"/>
<path transform="matrix(.12,0,0,-.12,0,279)" d="M 61.0508 1183.71 L 48.8398 1182.27 L 37.3477 1178.68 L 26.5742 1172.93 L 17.957 1165.75 L 10.7734 1157.13 L 5.03125 1146.35 L 1.43359 1134.86 L 0 1122.65 L 0 451.793 L 1.43359 439.574 L 5.03125 428.074 L 10.7734 417.309 L 17.957 408.699 L 26.5742 400.793 L 37.3477 395.758 L 48.8398 392.168 L 61.0508 390.734 L 800.871 390.734 L 813.09 392.168 L 824.578 395.758 L 835.359 400.793 L 843.977 408.699 L 851.875 417.309 L 856.898 428.074 L 860.5 439.574 L 861.934 451.793 L 861.934 1122.65 L 860.5 1134.86 L 856.898 1146.35 L 851.875 1157.13 L 843.977 1165.75 L 835.359 1172.93 L 824.578 1178.68 L 813.09 1182.27 L 800.871 1183.71 L 61.0508 1183.71 " fill="#cacfe9" fill-rule="evenodd"/>
<use xlink:href="#font_1_e" transform="matrix(11.032695,0,0,-11.032695,26.212697,175.6904)" fill="#8d959b"/>
<use xlink:href="#font_1_2" transform="matrix(11.032695,0,0,-11.032695,31.651816,175.6904)" fill="#8d959b"/>
<use xlink:href="#font_1_16" transform="matrix(11.032695,0,0,-11.032695,38.150075,175.56905)" fill="#8d959b"/>
<use xlink:href="#font_1_3" transform="matrix(11.032695,0,0,-11.032695,47.34031,177.76456)" fill="#8d959b"/>
<use xlink:href="#font_1_2" transform="matrix(11.032695,0,0,-11.032695,53.11041,175.6904)" fill="#8d959b"/>
<use xlink:href="#font_1_1" transform="matrix(11.032695,0,0,-11.032695,59.60867,175.56905)" fill="#8d959b"/>
<use xlink:href="#font_1_10" transform="matrix(11.032695,0,0,-11.032695,65.4229,175.6904)" fill="#8d959b"/>
<use xlink:href="#font_1_1" transform="matrix(11.032695,0,0,-11.032695,71.87702,175.56905)" fill="#8d959b"/>
<use xlink:href="#font_1_6" transform="matrix(11.032695,0,0,-11.032695,77.459568,175.64627)" fill="#8d959b"/>
<path transform="matrix(.12,0,0,-.12,0,279)" d="M 45.9688 827.449 L 838.9488 827.449 L 838.9488 965.359 L 45.9688 965.359 Z " fill="#8d959b" fill-rule="evenodd"/>
<path transform="matrix(.12,0,0,-.12,0,279)" d="M 34.4766 838.941 L 827.44967 838.941 L 827.44967 976.839 L 34.4766 976.839 Z " fill="#6f7eab" fill-rule="evenodd"/>
<use xlink:href="#font_1_e" transform="matrix(11.032695,0,0,-11.032695,24.834097,174.3124)" fill="#ffffff"/>
<use xlink:href="#font_1_2" transform="matrix(11.032695,0,0,-11.032695,30.273215,174.3124)" fill="#ffffff"/>
<use xlink:href="#font_1_16" transform="matrix(11.032695,0,0,-11.032695,36.771474,174.19104)" fill="#ffffff"/>
<use xlink:href="#font_1_3" transform="matrix(11.032695,0,0,-11.032695,45.961709,176.38655)" fill="#ffffff"/>
<use xlink:href="#font_1_2" transform="matrix(11.032695,0,0,-11.032695,51.731809,174.3124)" fill="#ffffff"/>
<use xlink:href="#font_1_1" transform="matrix(11.032695,0,0,-11.032695,58.23007,174.19104)" fill="#ffffff"/>
<use xlink:href="#font_1_10" transform="matrix(11.032695,0,0,-11.032695,64.0443,174.3124)" fill="#ffffff"/>
<use xlink:href="#font_1_1" transform="matrix(11.032695,0,0,-11.032695,70.49842,174.19104)" fill="#ffffff"/>
<use xlink:href="#font_1_6" transform="matrix(11.032695,0,0,-11.032695,76.08096,174.26827)" fill="#ffffff"/>
<use xlink:href="#font_1_c" transform="matrix(11.032695,0,0,-11.032695,33.29711,200.51439)" fill="#8d959b"/>
<use xlink:href="#font_1_13" transform="matrix(11.032695,0,0,-11.032695,39.442327,200.39304)" fill="#8d959b"/>
<use xlink:href="#font_1_1" transform="matrix(11.032695,0,0,-11.032695,41.891584,200.39304)" fill="#8d959b"/>
<use xlink:href="#font_1_f" transform="matrix(11.032695,0,0,-11.032695,47.661687,200.51439)" fill="#8d959b"/>
<use xlink:href="#font_1_13" transform="matrix(11.032695,0,0,-11.032695,54.159944,200.39304)" fill="#8d959b"/>
<use xlink:href="#font_1_1" transform="matrix(11.032695,0,0,-11.032695,56.609205,200.39304)" fill="#8d959b"/>
<use xlink:href="#font_1_12" transform="matrix(11.032695,0,0,-11.032695,62.36827,202.7099)" fill="#8d959b"/>
<use xlink:href="#font_1_5" transform="matrix(11.032695,0,0,-11.032695,68.49141,200.51439)" fill="#8d959b"/>
<path transform="matrix(.12,0,0,-.12,0,279)" d="M 45.9688 620.574 L 838.9488 620.574 L 838.9488 758.49197 L 45.9688 758.49197 Z " fill="#8d959b" fill-rule="evenodd"/>
<path transform="matrix(.12,0,0,-.12,0,279)" d="M 34.4766 632.074 L 827.44967 632.074 L 827.44967 769.984 L 34.4766 769.984 Z " fill="#00a6b6" fill-rule="evenodd"/>
<use xlink:href="#font_1_c" transform="matrix(11.032695,0,0,-11.032695,31.919013,199.13529)" fill="#ffffff"/>
<use xlink:href="#font_1_13" transform="matrix(11.032695,0,0,-11.032695,38.064226,199.01393)" fill="#ffffff"/>
<use xlink:href="#font_1_1" transform="matrix(11.032695,0,0,-11.032695,40.513486,199.01393)" fill="#ffffff"/>
<use xlink:href="#font_1_f" transform="matrix(11.032695,0,0,-11.032695,46.283586,199.13529)" fill="#ffffff"/>
<use xlink:href="#font_1_13" transform="matrix(11.032695,0,0,-11.032695,52.78184,199.01393)" fill="#ffffff"/>
<use xlink:href="#font_1_1" transform="matrix(11.032695,0,0,-11.032695,55.231103,199.01393)" fill="#ffffff"/>
<use xlink:href="#font_1_12" transform="matrix(11.032695,0,0,-11.032695,60.99017,201.3308)" fill="#ffffff"/>
<use xlink:href="#font_1_5" transform="matrix(11.032695,0,0,-11.032695,67.11331,199.13529)" fill="#ffffff"/>
<symbol id="font_1_7">
<path d="M .42000003 .011000001 L .42000003 .53000006 L .33200003 .53000006 L .33200003 .25300003 C .33200003 .20800002 .32700003 .17500001 .31800003 .15100001 C .308 .128 .292 .11000001 .269 .096 C .24599999 .083000008 .22100002 .076000008 .195 .076000008 C .16800002 .076000008 .146 .083000008 .12799999 .096 C .11100001 .109000008 .099 .127 .093 .15000002 C .09000001 .16600001 .08800001 .19700001 .08800001 .24300002 L .08800001 .53000006 L 0 .53000006 L 0 .20900002 C 0 .17100002 .0019999967 .14400001 .0050000029 .127 C .011 .101 .020000004 .079 .031999999 .062000004 C .045 .044 .065000008 .029000003 .091 .018000002 C .11800001 .0060000007 .146 0 .17700002 0 C .24599999 0 .301 .029000003 .34100003 .08800001 L .34100003 .011000001 L .42000003 .011000001 Z "/>
</symbol>
<symbol id="font_1_17">
<path d="M -2147483500 -2147483500 Z "/>
</symbol>
<use xlink:href="#font_1_e" transform="matrix(11.032695,0,0,-11.032695,22.247998,225.33838)" fill="#8d959b"/>
<use xlink:href="#font_1_7" transform="matrix(11.032695,0,0,-11.032695,28.02913,225.33838)" fill="#8d959b"/>
<use xlink:href="#font_1_5" transform="matrix(11.032695,0,0,-11.032695,33.79923,225.33838)" fill="#8d959b"/>
<use xlink:href="#font_1_6" transform="matrix(11.032695,0,0,-11.032695,39.150087,225.29425)" fill="#8d959b"/>
<use xlink:href="#font_1_2" transform="matrix(11.032695,0,0,-11.032695,42.404729,225.33838)" fill="#8d959b"/>
<use xlink:href="#font_1_16" transform="matrix(11.032695,0,0,-11.032695,48.90299,225.21703)" fill="#8d959b"/>
<use xlink:href="#font_1_17" transform="matrix(11.032695,0,0,-11.032695,23692530000,-23692530000)" fill="#8d959b"/>
<use xlink:href="#font_1_e" transform="matrix(11.032695,0,0,-11.032695,60.87346,225.33838)" fill="#8d959b"/>
<use xlink:href="#font_1_2" transform="matrix(11.032695,0,0,-11.032695,66.312587,225.33838)" fill="#8d959b"/>
<use xlink:href="#font_1_f" transform="matrix(11.032695,0,0,-11.032695,72.44676,225.33838)" fill="#8d959b"/>
<use xlink:href="#font_1_10" transform="matrix(11.032695,0,0,-11.032695,78.62507,225.33838)" fill="#8d959b"/>
<path transform="matrix(.12,0,0,-.12,0,279)" d="M 45.9688 413.707 L 838.9488 413.707 L 838.9488 551.633 L 45.9688 551.633 Z " fill="#8d959b" fill-rule="evenodd"/>
<path transform="matrix(.12,0,0,-.12,0,279)" d="M 34.4766 425.207 L 827.44967 425.207 L 827.44967 563.117 L 34.4766 563.117 Z " fill="#0081b4" fill-rule="evenodd"/>
<use xlink:href="#font_1_e" transform="matrix(11.032695,0,0,-11.032695,20.8685,223.95748)" fill="#ffffff"/>
<use xlink:href="#font_1_7" transform="matrix(11.032695,0,0,-11.032695,26.649632,223.95748)" fill="#ffffff"/>
<use xlink:href="#font_1_5" transform="matrix(11.032695,0,0,-11.032695,32.41973,223.95748)" fill="#ffffff"/>
<use xlink:href="#font_1_6" transform="matrix(11.032695,0,0,-11.032695,37.770589,223.91335)" fill="#ffffff"/>
<use xlink:href="#font_1_2" transform="matrix(11.032695,0,0,-11.032695,41.025236,223.95748)" fill="#ffffff"/>
<use xlink:href="#font_1_16" transform="matrix(11.032695,0,0,-11.032695,47.52349,223.83612)" fill="#ffffff"/>
<use xlink:href="#font_1_17" transform="matrix(11.032695,0,0,-11.032695,23692530000,-23692530000)" fill="#ffffff"/>
<use xlink:href="#font_1_e" transform="matrix(11.032695,0,0,-11.032695,59.493967,223.95748)" fill="#ffffff"/>
<use xlink:href="#font_1_2" transform="matrix(11.032695,0,0,-11.032695,64.93308,223.95748)" fill="#ffffff"/>
<use xlink:href="#font_1_f" transform="matrix(11.032695,0,0,-11.032695,71.06726,223.95748)" fill="#ffffff"/>
<use xlink:href="#font_1_10" transform="matrix(11.032695,0,0,-11.032695,77.24557,223.95748)" fill="#ffffff"/>
<use xlink:href="#font_1_e" transform="matrix(12.411796,0,0,-12.411796,9.632407,151.65659)" fill="#1f7bc0"/>
<use xlink:href="#font_1_2" transform="matrix(12.411796,0,0,-12.411796,15.751422,151.65659)" fill="#1f7bc0"/>
<use xlink:href="#font_1_4" transform="matrix(12.411796,0,0,-12.411796,23.049559,151.52005)" fill="#1f7bc0"/>
<use xlink:href="#font_1_10" transform="matrix(12.411796,0,0,-12.411796,26.835156,151.65659)" fill="#1f7bc0"/>
<path transform="matrix(.12,0,0,-.12,0,279)" d="M 1226.1 1689.38 L 1217.48 1688.66 L 1209.57 1685.79 L 1202.4 1682.19 L 1195.93 1677.17 L 1190.9 1670.7 L 1187.31 1663.51 L 1184.43 1655.62 L 1183.71 1647 L 1183.71 1180.13 L 1184.43 1171.48 L 1187.31 1163.6 L 1190.9 1156.4 L 1195.93 1149.95 L 1202.4 1144.93 L 1209.57 1141.32 L 1217.48 1138.45 L 1226.1 1137.73 L 2348.04 1137.73 L 2356.65 1138.45 L 2364.57 1141.32 L 2371.75 1144.93 L 2378.21 1149.95 L 2383.23 1156.4 L 2386.83 1163.6 L 2389.7 1171.48 L 2390.43 1180.13 L 2390.43 1647 L 2389.7 1655.62 L 2386.83 1663.51 L 2383.23 1670.7 L 2378.21 1677.17 L 2371.75 1682.19 L 2364.57 1685.79 L 2356.65 1688.66 L 2348.04 1689.38 L 1226.1 1689.38 " fill="#8d959b" fill-rule="evenodd"/>
<path transform="matrix(.12,0,0,-.12,0,279)" d="M 1214.61 1700.87 L 1205.99 1700.15 L 1198.09 1697.28 L 1190.9 1693.69 L 1184.43 1688.66 L 1179.41 1682.19 L 1175.82 1675.01 L 1172.94 1667.11 L 1172.23 1658.49 L 1172.23 1191.61 L 1172.94 1182.99 L 1175.82 1175.09 L 1179.41 1167.91 L 1184.43 1161.44 L 1190.9 1156.4 L 1198.09 1152.82 L 1205.99 1149.95 L 1214.61 1149.23 L 2336.54 1149.23 L 2345.16 1149.95 L 2353.07 1152.82 L 2360.25 1156.4 L 2366.72 1161.44 L 2371.75 1167.91 L 2375.33 1175.09 L 2378.21 1182.99 L 2378.92 1191.61 L 2378.92 1658.49 L 2378.21 1667.11 L 2375.33 1675.01 L 2371.75 1682.19 L 2366.72 1688.66 L 2360.25 1693.69 L 2353.07 1697.28 L 2345.16 1700.15 L 2336.54 1700.87 L 1214.61 1700.87 " fill="#93caee" fill-rule="evenodd"/>
<symbol id="font_1_11">
<path d="M .16600001 0 L .16600001 .45100004 L .266 .45100004 L .266 .51900008 L .165 .51900008 L .165 .56700006 C .165 .59800007 .171 .619 .18200001 .63000008 C .193 .64100006 .21200001 .647 .238 .647 C .255 .647 .272 .64500007 .29000003 .642 L .303 .71900007 C .273 .725 .24600002 .72800007 .221 .72800007 C .183 .72800007 .153 .721 .132 .707 C .11 .693 .096 .674 .087 .652 C .081 .63500007 .078 .609 .078 .574 L .078 .51900008 L 0 .51900008 L 0 .45100004 L .078 .45100004 L .078 0 L .16600001 0 Z "/>
</symbol>
<use xlink:href="#font_1_11" transform="matrix(11.032695,0,0,-11.032695,164.03823,113.51007)" fill="#8d959b"/>
<use xlink:href="#font_1_a" transform="matrix(11.032695,0,0,-11.032695,167.40319,113.63143)" fill="#8d959b"/>
<use xlink:href="#font_1_e" transform="matrix(11.032695,0,0,-11.032695,173.58152,113.63143)" fill="#8d959b"/>
<use xlink:href="#font_1_13" transform="matrix(11.032695,0,0,-11.032695,179.3847,113.51007)" fill="#8d959b"/>
<use xlink:href="#font_1_15" transform="matrix(11.032695,0,0,-11.032695,181.81189,113.51007)" fill="#8d959b"/>
<use xlink:href="#font_1_13" transform="matrix(11.032695,0,0,-11.032695,184.28324,113.51007)" fill="#8d959b"/>
<use xlink:href="#font_1_6" transform="matrix(11.032695,0,0,-11.032695,186.18087,113.5873)" fill="#8d959b"/>
<use xlink:href="#font_1_d" transform="matrix(11.032695,0,0,-11.032695,189.24796,115.826938)" fill="#8d959b"/>
<path transform="matrix(.12,0,0,-.12,0,279)" d="M 1218.19 1344.61 L 1769.823 1344.61 L 1769.823 1482.5079 L 1218.19 1482.5079 Z " fill="#8d959b" fill-rule="evenodd"/>
<path transform="matrix(.12,0,0,-.12,0,279)" d="M 1206.7 1356.09 L 1758.341 1356.09 L 1758.341 1494 L 1206.7 1494 Z " fill="#6f7eab" fill-rule="evenodd"/>
<use xlink:href="#font_1_11" transform="matrix(11.032695,0,0,-11.032695,162.65923,112.13107)" fill="#ffffff"/>
<use xlink:href="#font_1_a" transform="matrix(11.032695,0,0,-11.032695,166.02419,112.25243)" fill="#ffffff"/>
<use xlink:href="#font_1_e" transform="matrix(11.032695,0,0,-11.032695,172.20252,112.25243)" fill="#ffffff"/>
<use xlink:href="#font_1_13" transform="matrix(11.032695,0,0,-11.032695,178.0057,112.13107)" fill="#ffffff"/>
<use xlink:href="#font_1_15" transform="matrix(11.032695,0,0,-11.032695,180.43289,112.13107)" fill="#ffffff"/>
<use xlink:href="#font_1_13" transform="matrix(11.032695,0,0,-11.032695,182.90424,112.13107)" fill="#ffffff"/>
<use xlink:href="#font_1_6" transform="matrix(11.032695,0,0,-11.032695,184.80187,112.208309)" fill="#ffffff"/>
<use xlink:href="#font_1_d" transform="matrix(11.032695,0,0,-11.032695,187.86896,114.44794)" fill="#ffffff"/>
<symbol id="font_1_9">
<path d="M .25 0 L .35500003 .39900003 L .37600003 .31100003 L .458 0 L .549 0 L .7120001 .51900008 L .62700006 .51900008 L .53700008 .21900001 L .507 .119 L .48200003 .21800001 L .40300004 .51900008 L .31300003 .51900008 L .231 .215 C .214 .149 .20500002 .11400001 .20400001 .108 L .175 .22000002 L .09200001 .51900008 L 0 .51900008 L .157 0 L .25 0 Z "/>
</symbol>
<symbol id="font_1_14">
<path d="M .088000018 0 L .088000018 .20600002 L .149 .26500003 L .32100005 0 L .43 0 L .21200003 .326 L .41000004 .51900008 L .296 .51900008 L .088000018 .30800004 L .088000018 .716 L 0 .716 L 0 0 L .088000018 0 Z "/>
</symbol>
<use xlink:href="#font_1_11" transform="matrix(12.411796,0,0,-12.411796,151.12165,89.46307)" fill="#1f7bc0"/>
<use xlink:href="#font_1_4" transform="matrix(12.411796,0,0,-12.411796,155.26718,89.46307)" fill="#1f7bc0"/>
<use xlink:href="#font_1_a" transform="matrix(12.411796,0,0,-12.411796,159.04038,89.5996)" fill="#1f7bc0"/>
<use xlink:href="#font_1_16" transform="matrix(12.411796,0,0,-12.411796,166.31368,89.46307)" fill="#1f7bc0"/>
<use xlink:href="#font_1_10" transform="matrix(12.411796,0,0,-12.411796,176.29277,89.5996)" fill="#1f7bc0"/>
<use xlink:href="#font_1_9" transform="matrix(12.411796,0,0,-12.411796,182.75931,89.46307)" fill="#1f7bc0"/>
<use xlink:href="#font_1_2" transform="matrix(12.411796,0,0,-12.411796,192.1054,89.5996)" fill="#1f7bc0"/>
<use xlink:href="#font_1_4" transform="matrix(12.411796,0,0,-12.411796,199.40352,89.46307)" fill="#1f7bc0"/>
<use xlink:href="#font_1_14" transform="matrix(12.411796,0,0,-12.411796,203.54906,89.46307)" fill="#1f7bc0"/>
<use xlink:href="#font_1_11" transform="matrix(11.032695,0,0,-11.032695,234.3712,113.51007)" fill="#8d959b"/>
<use xlink:href="#font_1_a" transform="matrix(11.032695,0,0,-11.032695,237.73618,113.63143)" fill="#8d959b"/>
<use xlink:href="#font_1_e" transform="matrix(11.032695,0,0,-11.032695,243.91449,113.63143)" fill="#8d959b"/>
<use xlink:href="#font_1_13" transform="matrix(11.032695,0,0,-11.032695,249.71768,113.51007)" fill="#8d959b"/>
<use xlink:href="#font_1_15" transform="matrix(11.032695,0,0,-11.032695,252.14487,113.51007)" fill="#8d959b"/>
<use xlink:href="#font_1_13" transform="matrix(11.032695,0,0,-11.032695,254.61621,113.51007)" fill="#8d959b"/>
<use xlink:href="#font_1_6" transform="matrix(11.032695,0,0,-11.032695,256.5138,113.5873)" fill="#8d959b"/>
<use xlink:href="#font_1_d" transform="matrix(11.032695,0,0,-11.032695,259.58088,115.826938)" fill="#8d959b"/>
<path transform="matrix(.12,0,0,-.12,0,279)" d="M 1804.31 1344.61 L 2355.943 1344.61 L 2355.943 1482.5079 L 1804.31 1482.5079 Z " fill="#8d959b" fill-rule="evenodd"/>
<path transform="matrix(.12,0,0,-.12,0,279)" d="M 1792.82 1356.09 L 2344.453 1356.09 L 2344.453 1494 L 1792.82 1494 Z " fill="#6f7eab" fill-rule="evenodd"/>
<use xlink:href="#font_1_11" transform="matrix(11.032695,0,0,-11.032695,232.9932,112.13107)" fill="#ffffff"/>
<use xlink:href="#font_1_a" transform="matrix(11.032695,0,0,-11.032695,236.35817,112.25243)" fill="#ffffff"/>
<use xlink:href="#font_1_e" transform="matrix(11.032695,0,0,-11.032695,242.53649,112.25243)" fill="#ffffff"/>
<use xlink:href="#font_1_13" transform="matrix(11.032695,0,0,-11.032695,248.33969,112.13107)" fill="#ffffff"/>
<use xlink:href="#font_1_15" transform="matrix(11.032695,0,0,-11.032695,250.76688,112.13107)" fill="#ffffff"/>
<use xlink:href="#font_1_13" transform="matrix(11.032695,0,0,-11.032695,253.23822,112.13107)" fill="#ffffff"/>
<use xlink:href="#font_1_6" transform="matrix(11.032695,0,0,-11.032695,255.13585,112.208309)" fill="#ffffff"/>
<use xlink:href="#font_1_d" transform="matrix(11.032695,0,0,-11.032695,258.2029,114.44794)" fill="#ffffff"/>
<use xlink:href="#font_1_11" transform="matrix(11.032695,0,0,-11.032695,234.3712,134.19707)" fill="#8d959b"/>
<use xlink:href="#font_1_a" transform="matrix(11.032695,0,0,-11.032695,237.73618,134.31842)" fill="#8d959b"/>
<use xlink:href="#font_1_e" transform="matrix(11.032695,0,0,-11.032695,243.91449,134.31842)" fill="#8d959b"/>
<use xlink:href="#font_1_13" transform="matrix(11.032695,0,0,-11.032695,249.71768,134.19707)" fill="#8d959b"/>
<use xlink:href="#font_1_15" transform="matrix(11.032695,0,0,-11.032695,252.14487,134.19707)" fill="#8d959b"/>
<use xlink:href="#font_1_13" transform="matrix(11.032695,0,0,-11.032695,254.61621,134.19707)" fill="#8d959b"/>
<use xlink:href="#font_1_6" transform="matrix(11.032695,0,0,-11.032695,256.5138,134.27429)" fill="#8d959b"/>
<use xlink:href="#font_1_d" transform="matrix(11.032695,0,0,-11.032695,259.58088,136.51393)" fill="#8d959b"/>
<path transform="matrix(.12,0,0,-.12,0,279)" d="M 1804.31 1172.21 L 2355.943 1172.21 L 2355.943 1310.1279 L 1804.31 1310.1279 Z " fill="#8d959b" fill-rule="evenodd"/>
<path transform="matrix(.12,0,0,-.12,0,279)" d="M 1792.82 1183.71 L 2344.453 1183.71 L 2344.453 1321.6279 L 1792.82 1321.6279 Z " fill="#6f7eab" fill-rule="evenodd"/>
<use xlink:href="#font_1_11" transform="matrix(11.032695,0,0,-11.032695,232.9932,132.81707)" fill="#ffffff"/>
<use xlink:href="#font_1_a" transform="matrix(11.032695,0,0,-11.032695,236.35817,132.93842)" fill="#ffffff"/>
<use xlink:href="#font_1_e" transform="matrix(11.032695,0,0,-11.032695,242.53649,132.93842)" fill="#ffffff"/>
<use xlink:href="#font_1_13" transform="matrix(11.032695,0,0,-11.032695,248.33969,132.81707)" fill="#ffffff"/>
<use xlink:href="#font_1_15" transform="matrix(11.032695,0,0,-11.032695,250.76688,132.81707)" fill="#ffffff"/>
<use xlink:href="#font_1_13" transform="matrix(11.032695,0,0,-11.032695,253.23822,132.81707)" fill="#ffffff"/>
<use xlink:href="#font_1_6" transform="matrix(11.032695,0,0,-11.032695,255.13585,132.89429)" fill="#ffffff"/>
<use xlink:href="#font_1_d" transform="matrix(11.032695,0,0,-11.032695,258.2029,135.13393)" fill="#ffffff"/>
<use xlink:href="#font_1_11" transform="matrix(11.032695,0,0,-11.032695,164.03823,134.19707)" fill="#8d959b"/>
<use xlink:href="#font_1_a" transform="matrix(11.032695,0,0,-11.032695,167.40319,134.31842)" fill="#8d959b"/>
<use xlink:href="#font_1_e" transform="matrix(11.032695,0,0,-11.032695,173.58152,134.31842)" fill="#8d959b"/>
<use xlink:href="#font_1_13" transform="matrix(11.032695,0,0,-11.032695,179.3847,134.19707)" fill="#8d959b"/>
<use xlink:href="#font_1_15" transform="matrix(11.032695,0,0,-11.032695,181.81189,134.19707)" fill="#8d959b"/>
<use xlink:href="#font_1_13" transform="matrix(11.032695,0,0,-11.032695,184.28324,134.19707)" fill="#8d959b"/>
<use xlink:href="#font_1_6" transform="matrix(11.032695,0,0,-11.032695,186.18087,134.27429)" fill="#8d959b"/>
<use xlink:href="#font_1_d" transform="matrix(11.032695,0,0,-11.032695,189.24796,136.51393)" fill="#8d959b"/>
<path transform="matrix(.12,0,0,-.12,0,279)" d="M 1218.19 1172.21 L 1769.823 1172.21 L 1769.823 1310.1279 L 1218.19 1310.1279 Z " fill="#8d959b" fill-rule="evenodd"/>
<path transform="matrix(.12,0,0,-.12,0,279)" d="M 1206.7 1183.71 L 1758.341 1183.71 L 1758.341 1321.6279 L 1206.7 1321.6279 Z " fill="#6f7eab" fill-rule="evenodd"/>
<use xlink:href="#font_1_11" transform="matrix(11.032695,0,0,-11.032695,162.65923,132.81707)" fill="#ffffff"/>
<use xlink:href="#font_1_a" transform="matrix(11.032695,0,0,-11.032695,166.02419,132.93842)" fill="#ffffff"/>
<use xlink:href="#font_1_e" transform="matrix(11.032695,0,0,-11.032695,172.20252,132.93842)" fill="#ffffff"/>
<use xlink:href="#font_1_13" transform="matrix(11.032695,0,0,-11.032695,178.0057,132.81707)" fill="#ffffff"/>
<use xlink:href="#font_1_15" transform="matrix(11.032695,0,0,-11.032695,180.43289,132.81707)" fill="#ffffff"/>
<use xlink:href="#font_1_13" transform="matrix(11.032695,0,0,-11.032695,182.90424,132.81707)" fill="#ffffff"/>
<use xlink:href="#font_1_6" transform="matrix(11.032695,0,0,-11.032695,184.80187,132.89429)" fill="#ffffff"/>
<use xlink:href="#font_1_d" transform="matrix(11.032695,0,0,-11.032695,187.86896,135.13393)" fill="#ffffff"/>
<path transform="matrix(.12,0,0,-.12,0,279)" d="M 2865.21 2309.96 L 2852.98 2308.53 L 2841.5 2304.93 L 2830.73 2299.19 L 2822.09 2292.01 L 2814.93 2283.39 L 2809.18 2272.62 L 2805.57 2261.12 L 2804.14 2248.91 L 2804.14 1578.04 L 2805.57 1565.83 L 2809.18 1554.34 L 2814.93 1543.56 L 2822.09 1534.95 L 2830.73 1527.05 L 2841.5 1522.02 L 2852.98 1518.43 L 2865.21 1517 L 3605.02 1517 L 3617.23 1518.43 L 3628.71 1522.02 L 3639.51 1527.05 L 3648.12 1534.95 L 3656.02 1543.56 L 3661.04 1554.34 L 3664.64 1565.83 L 3666.07 1578.04 L 3666.07 2248.91 L 3664.64 2261.12 L 3661.04 2272.62 L 3656.02 2283.39 L 3648.12 2292.01 L 3639.51 2299.19 L 3628.71 2304.93 L 3617.23 2308.53 L 3605.02 2309.96 L 2865.21 2309.96 " fill="#8d959b" fill-rule="evenodd"/>
<path transform="matrix(.12,0,0,-.12,0,279)" d="M 2853.71 2321.46 L 2841.5 2320.03 L 2830.01 2316.43 L 2819.21 2310.69 L 2810.62 2303.5 L 2803.42 2294.88 L 2797.68 2284.11 L 2794.08 2272.62 L 2792.66 2260.4 L 2792.66 1589.54 L 2794.08 1577.32 L 2797.68 1565.83 L 2803.42 1555.05 L 2810.62 1546.44 L 2819.21 1538.54 L 2830.01 1533.51 L 2841.5 1529.92 L 2853.71 1528.48 L 3593.52 1528.48 L 3605.74 1529.92 L 3617.23 1533.51 L 3628.01 1538.54 L 3636.62 1546.44 L 3644.52 1555.05 L 3649.56 1565.83 L 3653.15 1577.32 L 3654.58 1589.54 L 3654.58 2260.4 L 3653.15 2272.62 L 3649.56 2284.11 L 3644.52 2294.88 L 3636.62 2303.5 L 3628.01 2310.69 L 3617.23 2316.43 L 3605.74 2320.03 L 3593.52 2321.46 L 2853.71 2321.46 " fill="#cacfe9" fill-rule="evenodd"/>
<use xlink:href="#font_1_e" transform="matrix(11.032695,0,0,-11.032695,361.33119,39.16146)" fill="#8d959b"/>
<use xlink:href="#font_1_2" transform="matrix(11.032695,0,0,-11.032695,366.7703,39.16146)" fill="#8d959b"/>
<use xlink:href="#font_1_16" transform="matrix(11.032695,0,0,-11.032695,373.26856,39.0401)" fill="#8d959b"/>
<use xlink:href="#font_1_3" transform="matrix(11.032695,0,0,-11.032695,382.4588,41.235609)" fill="#8d959b"/>
<use xlink:href="#font_1_2" transform="matrix(11.032695,0,0,-11.032695,388.2289,39.16146)" fill="#8d959b"/>
<use xlink:href="#font_1_1" transform="matrix(11.032695,0,0,-11.032695,394.72718,39.0401)" fill="#8d959b"/>
<use xlink:href="#font_1_10" transform="matrix(11.032695,0,0,-11.032695,400.5414,39.16146)" fill="#8d959b"/>
<use xlink:href="#font_1_1" transform="matrix(11.032695,0,0,-11.032695,406.9955,39.0401)" fill="#8d959b"/>
<use xlink:href="#font_1_6" transform="matrix(11.032695,0,0,-11.032695,412.57807,39.11733)" fill="#8d959b"/>
<path transform="matrix(.12,0,0,-.12,0,279)" d="M 2838.62 1965.19 L 3631.604 1965.19 L 3631.604 2103.0999 L 2838.62 2103.0999 Z " fill="#8d959b" fill-rule="evenodd"/>
<path transform="matrix(.12,0,0,-.12,0,279)" d="M 2827.12 1976.69 L 3620.104 1976.69 L 3620.104 2114.604 L 2827.12 2114.604 Z " fill="#6f7eab" fill-rule="evenodd"/>
<use xlink:href="#font_1_e" transform="matrix(11.032695,0,0,-11.032695,359.95118,37.78147)" fill="#ffffff"/>
<use xlink:href="#font_1_2" transform="matrix(11.032695,0,0,-11.032695,365.3903,37.78147)" fill="#ffffff"/>
<use xlink:href="#font_1_16" transform="matrix(11.032695,0,0,-11.032695,371.88856,37.66011)" fill="#ffffff"/>
<use xlink:href="#font_1_3" transform="matrix(11.032695,0,0,-11.032695,381.0788,39.855619)" fill="#ffffff"/>
<use xlink:href="#font_1_2" transform="matrix(11.032695,0,0,-11.032695,386.8489,37.78147)" fill="#ffffff"/>
<use xlink:href="#font_1_1" transform="matrix(11.032695,0,0,-11.032695,393.34718,37.66011)" fill="#ffffff"/>
<use xlink:href="#font_1_10" transform="matrix(11.032695,0,0,-11.032695,399.1614,37.78147)" fill="#ffffff"/>
<use xlink:href="#font_1_1" transform="matrix(11.032695,0,0,-11.032695,405.6155,37.66011)" fill="#ffffff"/>
<use xlink:href="#font_1_6" transform="matrix(11.032695,0,0,-11.032695,411.19807,37.73734)" fill="#ffffff"/>
<use xlink:href="#font_1_c" transform="matrix(11.032695,0,0,-11.032695,368.417,63.98446)" fill="#8d959b"/>
<use xlink:href="#font_1_13" transform="matrix(11.032695,0,0,-11.032695,374.5622,63.8631)" fill="#8d959b"/>
<use xlink:href="#font_1_1" transform="matrix(11.032695,0,0,-11.032695,377.01145,63.8631)" fill="#8d959b"/>
<use xlink:href="#font_1_f" transform="matrix(11.032695,0,0,-11.032695,382.78157,63.98446)" fill="#8d959b"/>
<use xlink:href="#font_1_13" transform="matrix(11.032695,0,0,-11.032695,389.27983,63.8631)" fill="#8d959b"/>
<use xlink:href="#font_1_1" transform="matrix(11.032695,0,0,-11.032695,391.72908,63.8631)" fill="#8d959b"/>
<use xlink:href="#font_1_12" transform="matrix(11.032695,0,0,-11.032695,397.48817,66.17996)" fill="#8d959b"/>
<use xlink:href="#font_1_5" transform="matrix(11.032695,0,0,-11.032695,403.61128,63.98446)" fill="#8d959b"/>
<path transform="matrix(.12,0,0,-.12,0,279)" d="M 2838.62 1758.33 L 3631.604 1758.33 L 3631.604 1896.236 L 2838.62 1896.236 Z " fill="#8d959b" fill-rule="evenodd"/>
<path transform="matrix(.12,0,0,-.12,0,279)" d="M 2827.12 1769.82 L 3620.104 1769.82 L 3620.104 1907.726 L 2827.12 1907.726 Z " fill="#00a6b6" fill-rule="evenodd"/>
<use xlink:href="#font_1_c" transform="matrix(11.032695,0,0,-11.032695,367.03498,62.604455)" fill="#ffffff"/>
<use xlink:href="#font_1_13" transform="matrix(11.032695,0,0,-11.032695,373.18019,62.483095)" fill="#ffffff"/>
<use xlink:href="#font_1_1" transform="matrix(11.032695,0,0,-11.032695,375.62944,62.483095)" fill="#ffffff"/>
<use xlink:href="#font_1_f" transform="matrix(11.032695,0,0,-11.032695,381.39955,62.604455)" fill="#ffffff"/>
<use xlink:href="#font_1_13" transform="matrix(11.032695,0,0,-11.032695,387.8978,62.483095)" fill="#ffffff"/>
<use xlink:href="#font_1_1" transform="matrix(11.032695,0,0,-11.032695,390.34706,62.483095)" fill="#ffffff"/>
<use xlink:href="#font_1_12" transform="matrix(11.032695,0,0,-11.032695,396.10615,64.79996)" fill="#ffffff"/>
<use xlink:href="#font_1_5" transform="matrix(11.032695,0,0,-11.032695,402.22929,62.604455)" fill="#ffffff"/>
<use xlink:href="#font_1_e" transform="matrix(11.032695,0,0,-11.032695,357.36616,88.80744)" fill="#8d959b"/>
<use xlink:href="#font_1_7" transform="matrix(11.032695,0,0,-11.032695,363.14729,88.80744)" fill="#8d959b"/>
<use xlink:href="#font_1_5" transform="matrix(11.032695,0,0,-11.032695,368.9174,88.80744)" fill="#8d959b"/>
<use xlink:href="#font_1_6" transform="matrix(11.032695,0,0,-11.032695,374.26826,88.76331)" fill="#8d959b"/>
<use xlink:href="#font_1_2" transform="matrix(11.032695,0,0,-11.032695,377.5229,88.80744)" fill="#8d959b"/>
<use xlink:href="#font_1_16" transform="matrix(11.032695,0,0,-11.032695,384.02116,88.68608)" fill="#8d959b"/>
<use xlink:href="#font_1_17" transform="matrix(11.032695,0,0,-11.032695,23692530000,-23692530000)" fill="#8d959b"/>
<use xlink:href="#font_1_e" transform="matrix(11.032695,0,0,-11.032695,395.99165,88.80744)" fill="#8d959b"/>
<use xlink:href="#font_1_2" transform="matrix(11.032695,0,0,-11.032695,401.43077,88.80744)" fill="#8d959b"/>
<use xlink:href="#font_1_f" transform="matrix(11.032695,0,0,-11.032695,407.5649,88.80744)" fill="#8d959b"/>
<use xlink:href="#font_1_10" transform="matrix(11.032695,0,0,-11.032695,413.74324,88.80744)" fill="#8d959b"/>
<path transform="matrix(.12,0,0,-.12,0,279)" d="M 2838.62 1551.47 L 3631.604 1551.47 L 3631.604 1689.372 L 2838.62 1689.372 Z " fill="#8d959b" fill-rule="evenodd"/>
<path transform="matrix(.12,0,0,-.12,0,279)" d="M 2827.12 1562.96 L 3620.104 1562.96 L 3620.104 1700.87 L 2827.12 1700.87 Z " fill="#0081b4" fill-rule="evenodd"/>
<use xlink:href="#font_1_e" transform="matrix(11.032695,0,0,-11.032695,355.98619,87.429439)" fill="#ffffff"/>
<use xlink:href="#font_1_7" transform="matrix(11.032695,0,0,-11.032695,361.7673,87.429439)" fill="#ffffff"/>
<use xlink:href="#font_1_5" transform="matrix(11.032695,0,0,-11.032695,367.5374,87.429439)" fill="#ffffff"/>
<use xlink:href="#font_1_6" transform="matrix(11.032695,0,0,-11.032695,372.88829,87.38531)" fill="#ffffff"/>
<use xlink:href="#font_1_2" transform="matrix(11.032695,0,0,-11.032695,376.1429,87.429439)" fill="#ffffff"/>
<use xlink:href="#font_1_16" transform="matrix(11.032695,0,0,-11.032695,382.64118,87.308078)" fill="#ffffff"/>
<use xlink:href="#font_1_17" transform="matrix(11.032695,0,0,-11.032695,23692530000,-23692530000)" fill="#ffffff"/>
<use xlink:href="#font_1_e" transform="matrix(11.032695,0,0,-11.032695,394.61167,87.429439)" fill="#ffffff"/>
<use xlink:href="#font_1_2" transform="matrix(11.032695,0,0,-11.032695,400.05079,87.429439)" fill="#ffffff"/>
<use xlink:href="#font_1_f" transform="matrix(11.032695,0,0,-11.032695,406.18495,87.429439)" fill="#ffffff"/>
<use xlink:href="#font_1_10" transform="matrix(11.032695,0,0,-11.032695,412.36326,87.429439)" fill="#ffffff"/>
<symbol id="font_1_8">
<path d="M .28000004 0 L .47700004 .51900008 L .38700003 .51900008 L .27100004 .202 C .25700004 .164 .24600002 .13100001 .23900002 .104 C .22800002 .14 .21700002 .17500001 .20500002 .208 L .094000007 .51900008 L 0 .51900008 L .19600001 0 L .28000004 0 Z "/>
</symbol>
<use xlink:href="#font_1_5" transform="matrix(12.411796,0,0,-12.411796,344.63963,15.128656)" fill="#1f7bc0"/>
<use xlink:href="#font_1_10" transform="matrix(12.411796,0,0,-12.411796,350.91999,15.128656)" fill="#1f7bc0"/>
<use xlink:href="#font_1_4" transform="matrix(12.411796,0,0,-12.411796,358.1685,14.992126)" fill="#1f7bc0"/>
<use xlink:href="#font_1_8" transform="matrix(12.411796,0,0,-12.411796,361.6438,14.992126)" fill="#1f7bc0"/>
<use xlink:href="#font_1_13" transform="matrix(12.411796,0,0,-12.411796,368.51994,14.992126)" fill="#1f7bc0"/>
<use xlink:href="#font_1_e" transform="matrix(12.411796,0,0,-12.411796,370.95265,15.128656)" fill="#1f7bc0"/>
<use xlink:href="#font_1_10" transform="matrix(12.411796,0,0,-12.411796,377.1213,15.128656)" fill="#1f7bc0"/>
<path transform="matrix(.12,0,0,-.12,0,279)" d="M 2827.12 2041.33 L 2827.12 2049.95 L 2581.48 2049.95 L 2581.48 1256.98 L 2399.76 1256.98 L 2399.76 1248.35 L 2590.09 1248.35 L 2590.09 2041.33 L 2827.12 2041.33 " fill="#1f7bc0" fill-rule="evenodd"/>
<path transform="matrix(.12,0,0,-.12,0,279)" d="M 2401.18 1280.68 L 2344.45 1252.67 L 2401.18 1223.93 L 2401.18 1280.68 " fill="#1f7bc0" fill-rule="evenodd"/>
<path transform="matrix(.12,0,0,-.12,0,279)" d="M 2827.12 938.051 L 2827.12 946.684 L 2590.09 946.684 L 2590.09 1256.98 L 2399.76 1256.98 L 2399.76 1248.35 L 2581.48 1248.35 L 2581.48 938.051 L 2827.12 938.051 " fill="#1f7bc0" fill-rule="evenodd"/>
<path transform="matrix(.12,0,0,-.12,0,279)" d="M 2401.18 1280.68 L 2344.45 1252.67 L 2401.18 1223.93 L 2401.18 1280.68 " fill="#1f7bc0" fill-rule="evenodd"/>
<path transform="matrix(.12,0,0,-.12,0,279)" d="M 827.449 912.199 L 827.449 903.582 L 1021.38 903.582 L 1021.38 1248.35 L 1151.4 1248.35 L 1151.4 1256.98 L 1012.77 1256.98 L 1012.77 912.199 L 827.449 912.199 " fill="#1f7bc0" fill-rule="evenodd"/>
<path transform="matrix(.12,0,0,-.12,0,279)" d="M 1150.68 1223.93 L 1206.7 1252.67 L 1150.68 1280.68 L 1150.68 1223.93 " fill="#1f7bc0" fill-rule="evenodd"/>
<symbol id="font_2_7">
<path d="M .003000006 0 L .09100001 0 L .09100001 .25800003 C .09100001 .273 .092 .287 .094000007 .3 C .10600001 .365 .15 .41200004 .21200001 .41200004 C .224 .41200004 .23300001 .411 .24300003 .41000004 L .24300003 .492 C .23500002 .49400003 .22800002 .49500004 .21900001 .49500004 C .16 .49500004 .10600001 .45400004 .084000017 .38900004 L .08100001 .38900004 L .077 .48400004 L 0 .48400004 C .003000006 .439 .0040000008 .39000003 .0040000008 .333 L .003000006 0 Z "/>
</symbol>
<symbol id="font_2_f">
<path d="M .42400003 .23600002 C .426 .24600002 .42700006 .26 .42700006 .278 C .42700006 .367 .38600005 .50600007 .228 .50600007 C .087 .50600007 0 .391 0 .24400002 C 0 .099 .09 0 .23800002 0 C .315 0 .36900003 .017 .40000005 .031000004 L .384 .093 C .352 .08 .31300003 .069000009 .25 .069000009 C .162 .069000009 .087 .118 .085 .23700002 L .42400003 .23600002 M .086 .3 C .09300001 .361 .13100001 .44300003 .221 .44300003 C .319 .44300003 .343 .35500003 .342 .3 L .086 .3 Z "/>
</symbol>
<symbol id="font_2_6">
<path d="M .365 0 L .453 0 L .453 .549 C .453 .6 .454 .6420001 .45700003 .68200007 L .37300004 .68200007 L .37 .609 L .36800004 .609 C .34400005 .656 .29400004 .6930001 .219 .6930001 C .117 .6930001 0 .61300006 0 .43200005 C 0 .284 .09200001 .187 .20500002 .187 C .283 .187 .337 .22500001 .36300005 .272 L .365 .272 L .365 0 M .365 .39500005 C .365 .38200004 .362 .365 .35800005 .35300002 C .338 .29200004 .28900004 .25700004 .23200001 .25700004 C .135 .25700004 .089 .34000004 .089 .43700005 C .089 .546 .14400001 .623 .235 .623 C .301 .623 .347 .577 .361 .523 C .36400003 .512 .365 .49900005 .365 .48600004 L .365 .39500005 Z "/>
</symbol>
<symbol id="font_2_a">
<path d="M .40800003 .49500004 L .32000003 .49500004 L .32000003 .19900002 C .32000003 .18200001 .31700004 .16600001 .31200005 .15400002 C .29600004 .11400001 .25500003 .07300001 .19600001 .07300001 C .117000009 .07300001 .08800001 .136 .08800001 .22800002 L .08800001 .49500004 L 0 .49500004 L 0 .21200001 C 0 .043 .09100001 0 .16700003 0 C .25300003 0 .30500005 .051000004 .32700003 .09 L .32900004 .09 L .33400003 .011000001 L .41200004 .011000001 C .40900005 .049000004 .40800003 .093 .40800003 .143 L .40800003 .49500004 Z "/>
</symbol>
<symbol id="font_2_14">
<path d="M .10100001 0 L .10100001 .48400004 L .013000004 .48400004 L .013000004 0 L .10100001 0 M .056 .573 C .091000009 .573 .113000009 .59900006 .113000009 .63000008 C .113000009 .661 .091000009 .68600007 .057000005 .68600007 C .023000002 .68600007 0 .661 0 .63000008 C 0 .59900006 .022 .573 .055 .573 L .056 .573 Z "/>
</symbol>
<symbol id="font_2_18">
<path d="M .0040000008 0 L .09 0 L .09 .29200004 C .09 .307 .09200001 .32200004 .097 .335 C .111 .379 .15200001 .423 .206 .423 C .273 .423 .307 .36800004 .307 .29000003 L .307 0 L .393 0 L .393 .3 C .393 .31500004 .39600004 .33100004 .4 .344 C .416 .386 .454 .423 .505 .423 C .57500007 .423 .61 .36800004 .61 .27400003 L .61 0 L .69600006 0 L .69600006 .28500004 C .69600006 .453 .601 .49500004 .536 .49500004 C .49 .49500004 .459 .483 .43 .46100004 C .41000004 .446 .39000003 .42600004 .37500004 .39800004 L .37300004 .39800004 C .35200004 .455 .30200003 .49500004 .23700002 .49500004 C .156 .49500004 .111 .45200003 .08400001 .40600003 L .081 .40600003 L .07700001 .48400004 L 0 .48400004 C .0019999967 .44400005 .0040000008 .404 .0040000008 .35300002 L .0040000008 0 Z "/>
</symbol>
<symbol id="font_2_2">
<path d="M .0040000008 0 L .09200001 0 L .09200001 .29200004 C .09200001 .30600003 .094 .32200004 .098000008 .333 C .11400001 .38200004 .15900001 .423 .21600002 .423 C .29900003 .423 .328 .35700003 .328 .279 L .328 0 L .416 0 L .416 .289 C .416 .455 .312 .49500004 .245 .49500004 C .165 .49500004 .109 .45000003 .08500001 .40500004 L .083000008 .40500004 L .077999997 .48400004 L 0 .48400004 C .0029999987 .44400005 .0040000008 .404 .0040000008 .35300002 L .0040000008 0 Z "/>
</symbol>
<symbol id="font_2_9">
<path d="M .075 .584 L .075 .49500004 L 0 .49500004 L 0 .42800004 L .075 .42800004 L .075 .16400002 C .075 .107 .08500001 .064 .109000008 .037 C .13 .014 .163 0 .20400001 0 C .238 0 .26500003 .0060000007 .282 .012000001 L .278 .079 C .26500003 .075 .25100003 .07300001 .227 .07300001 C .178 .07300001 .161 .107 .161 .16700001 L .161 .42800004 L .287 .42800004 L .287 .49500004 L .161 .49500004 L .161 .611 L .075 .584 Z "/>
</symbol>
<use xlink:href="#font_2_7" transform="matrix(12.411796,0,0,-12.411796,198.76775,192.54984)" fill="#8d959b"/>
<use xlink:href="#font_2_f" transform="matrix(12.411796,0,0,-12.411796,202.42922,192.67395)" fill="#8d959b"/>
<use xlink:href="#font_2_6" transform="matrix(12.411796,0,0,-12.411796,208.64752,195.00737)" fill="#8d959b"/>
<use xlink:href="#font_2_a" transform="matrix(12.411796,0,0,-12.411796,216.03253,192.68637)" fill="#8d959b"/>
<use xlink:href="#font_2_14" transform="matrix(12.411796,0,0,-12.411796,222.74732,192.54984)" fill="#8d959b"/>
<use xlink:href="#font_2_7" transform="matrix(12.411796,0,0,-12.411796,225.77579,192.54984)" fill="#8d959b"/>
<use xlink:href="#font_2_f" transform="matrix(12.411796,0,0,-12.411796,229.43727,192.67395)" fill="#8d959b"/>
<use xlink:href="#font_2_18" transform="matrix(12.411796,0,0,-12.411796,236.04035,192.54984)" fill="#8d959b"/>
<use xlink:href="#font_2_f" transform="matrix(12.411796,0,0,-12.411796,246.007,192.67395)" fill="#8d959b"/>
<use xlink:href="#font_2_2" transform="matrix(12.411796,0,0,-12.411796,252.61008,192.54984)" fill="#8d959b"/>
<use xlink:href="#font_2_9" transform="matrix(12.411796,0,0,-12.411796,258.8656,192.68637)" fill="#8d959b"/>
<path transform="matrix(.12,0,0,-.12,0,279)" stroke-width="0" stroke-linecap="square" stroke-miterlimit="10" stroke-linejoin="miter" fill="none" stroke="#ffffff" d="M 2200.79 720.41 L 2200.79 720.41 "/>
<path transform="matrix(.12,0,0,-.12,0,279)" stroke-width="0" stroke-linecap="square" stroke-miterlimit="10" stroke-linejoin="miter" fill="none" stroke="#ffffff" d="M 1425.06 861.918 L 1425.06 861.918 "/>
<path transform="matrix(.12,0,0,-.12,0,279)" stroke-width="0" stroke-linecap="square" stroke-miterlimit="10" stroke-linejoin="miter" fill="none" stroke="#ffffff" d="M 2424.9 655.051 L 2424.9 655.051 "/>
<path transform="matrix(.12,0,0,-.12,0,279)" d="M 1425.06 655.051 L 2424.9002 655.051 L 2424.9002 861.918 L 1425.06 861.918 Z " fill="#8d959b" fill-rule="evenodd"/>
<path transform="matrix(.12,0,0,-.12,0,279)" d="M 1425.06 655.051 L 2424.9002 655.051 L 2424.9002 861.918 L 1425.06 861.918 Z " fill="#231f20" fill-rule="evenodd"/>
<path transform="matrix(.12,0,0,-.12,0,279)" d="M 1425.06 655.051 L 2424.9002 655.051 L 2424.9002 861.918 L 1425.06 861.918 Z " fill="#8d959b" fill-rule="evenodd"/>
<path transform="matrix(.12,0,0,-.12,0,279)" stroke-width="0" stroke-linecap="square" stroke-miterlimit="10" stroke-linejoin="miter" fill="none" stroke="#ffffff" d="M 1425.06 861.918 L 1425.06 861.918 "/>
<path transform="matrix(.12,0,0,-.12,0,279)" d="M 1413.57 666.543 L 2413.4019 666.543 L 2413.4019 873.398 L 1413.57 873.398 Z " fill="#e7e9ed" fill-rule="evenodd"/>
<use xlink:href="#font_2_7" transform="matrix(11.068995,0,0,-11.068995,197.29375,191.17084)" fill="#231f20"/>
<use xlink:href="#font_2_f" transform="matrix(11.068995,0,0,-11.068995,200.55912,191.28153)" fill="#231f20"/>
<use xlink:href="#font_2_6" transform="matrix(11.068995,0,0,-11.068995,206.10466,193.3625)" fill="#231f20"/>
<use xlink:href="#font_2_a" transform="matrix(11.068995,0,0,-11.068995,212.6907,191.2926)" fill="#231f20"/>
<use xlink:href="#font_2_14" transform="matrix(11.068995,0,0,-11.068995,218.67903,191.17084)" fill="#231f20"/>
<use xlink:href="#font_2_7" transform="matrix(11.068995,0,0,-11.068995,221.37987,191.17084)" fill="#231f20"/>
<use xlink:href="#font_2_f" transform="matrix(11.068995,0,0,-11.068995,224.64524,191.28153)" fill="#231f20"/>
<use xlink:href="#font_2_18" transform="matrix(11.068995,0,0,-11.068995,230.53394,191.17084)" fill="#231f20"/>
<use xlink:href="#font_2_f" transform="matrix(11.068995,0,0,-11.068995,239.42234,191.28153)" fill="#231f20"/>
<use xlink:href="#font_2_2" transform="matrix(11.068995,0,0,-11.068995,245.31104,191.17084)" fill="#231f20"/>
<use xlink:href="#font_2_9" transform="matrix(11.068995,0,0,-11.068995,250.88982,191.2926)" fill="#231f20"/>
<path transform="matrix(.12,0,0,-.12,0,279)" d="M 1911.33 872.691 L 1912.05 871.977 L 1912.77 871.25 L 1914.93 871.25 L 1915.64 871.977 L 1915.64 873.398 L 1907.74 1198.8 L 1907.74 1199.51 L 1907.02 1200.23 L 1906.31 1200.95 L 1905.58 1200.95 L 1904.87 1200.23 L 1904.15 1199.51 L 1903.43 1198.8 L 1903.43 1198.07 L 1911.33 872.691 " fill="#ec2752" fill-rule="evenodd"/>
<path transform="matrix(.12,0,0,-.12,0,279)" d="M 1928.57 1198.8 L 1904.87 1244.04 L 1883.32 1198.07 L 1928.57 1198.8 " fill="#ec2752" fill-rule="evenodd"/>
<symbol id="font_2_5">
<path d="M .0040000008 0 L .09200001 0 L .09200001 .263 L .094 .263 C .122999999 .21500002 .178 .187 .243 .187 C .356 .187 .463 .273 .463 .44700004 C .463 .59400007 .37500004 .6930001 .257 .6930001 C .179 .6930001 .12100001 .65900006 .085999999 .59900006 L .08400001 .59900006 L .078999999 .68200007 L 0 .68200007 C .0029999987 .63600006 .0040000008 .586 .0040000008 .52400007 L .0040000008 0 M .09200001 .47900004 C .09200001 .49000005 .095 .503 .097 .515 C .11400001 .58100005 .171 .623 .231 .623 C .324 .623 .374 .54 .374 .44300003 C .374 .33200003 .32000003 .256 .227 .256 C .165 .256 .111 .298 .096 .35900004 C .092999998 .37 .09200001 .38300003 .09200001 .39500005 L .09200001 .47900004 Z "/>
</symbol>
<symbol id="font_2_17">
<path d="M 0 0 L .08800001 0 L .08800001 .71000006 L 0 .71000006 L 0 0 Z "/>
</symbol>
<symbol id="font_2_b">
<path d="M .37900005 .30800004 C .37900005 .40500004 .34300003 .50600007 .19400002 .50600007 C .13300002 .50600007 .074 .48900003 .034000007 .46400003 L .054 .40500004 C .088 .42800004 .135 .441 .18100001 .441 C .28000004 .44200004 .291 .36900003 .291 .32900004 L .291 .31900005 C .10400002 .32000003 0 .256 0 .13900002 C 0 .069000009 .05 0 .14800002 0 C .21700001 0 .27 .034 .29600004 .072000008 L .29900003 .072000008 L .307 .011000001 L .38600005 .011000001 C .381 .044 .37900005 .085 .37900005 .127 L .37900005 .30800004 M .293 .17400001 C .293 .16500002 .29200004 .15500002 .289 .14600002 C .275 .105000007 .23400003 .065000008 .17000002 .065000008 C .12600002 .065000008 .088 .091000009 .088 .14900002 C .088 .24300002 .19700001 .26000003 .293 .25800003 L .293 .17400001 Z "/>
</symbol>
<symbol id="font_2_3">
<path d="M .23300003 0 C .348 0 .47300006 .078 .47300006 .25800003 C .47300006 .40500004 .379 .50600007 .24000003 .50600007 C .10700001 .50600007 0 .411 0 .24900002 C 0 .096 .102 0 .23200001 0 L .23300003 0 M .23400001 .06600001 C .149 .06600001 .089 .14600002 .089 .252 C .089 .344 .134 .44000004 .237 .44000004 C .34100003 .44000004 .38200004 .337 .38200004 .25500003 C .38200004 .14500001 .319 .06600001 .235 .06600001 L .23400001 .06600001 Z "/>
</symbol>
<use xlink:href="#font_2_14" transform="matrix(12.411796,0,0,-12.411796,189.67963,229.78412)" fill="#8d959b"/>
<use xlink:href="#font_2_18" transform="matrix(12.411796,0,0,-12.411796,192.6957,229.78412)" fill="#8d959b"/>
<use xlink:href="#font_2_5" transform="matrix(12.411796,0,0,-12.411796,203.04712,232.24166)" fill="#8d959b"/>
<use xlink:href="#font_2_17" transform="matrix(12.411796,0,0,-12.411796,210.15909,229.78412)" fill="#8d959b"/>
<use xlink:href="#font_2_f" transform="matrix(12.411796,0,0,-12.411796,212.62903,229.90824)" fill="#8d959b"/>
<use xlink:href="#font_2_18" transform="matrix(12.411796,0,0,-12.411796,219.2321,229.78412)" fill="#8d959b"/>
<use xlink:href="#font_2_f" transform="matrix(12.411796,0,0,-12.411796,229.19878,229.90824)" fill="#8d959b"/>
<use xlink:href="#font_2_2" transform="matrix(12.411796,0,0,-12.411796,235.80185,229.78412)" fill="#8d959b"/>
<use xlink:href="#font_2_9" transform="matrix(12.411796,0,0,-12.411796,242.05739,229.92066)" fill="#8d959b"/>
<use xlink:href="#font_2_b" transform="matrix(12.411796,0,0,-12.411796,246.3767,229.92066)" fill="#8d959b"/>
<use xlink:href="#font_2_9" transform="matrix(12.411796,0,0,-12.411796,252.14818,229.92066)" fill="#8d959b"/>
<use xlink:href="#font_2_14" transform="matrix(12.411796,0,0,-12.411796,256.77778,229.78412)" fill="#8d959b"/>
<use xlink:href="#font_2_3" transform="matrix(12.411796,0,0,-12.411796,259.40907,229.92066)" fill="#8d959b"/>
<use xlink:href="#font_2_2" transform="matrix(12.411796,0,0,-12.411796,266.6079,229.78412)" fill="#8d959b"/>
<path transform="matrix(.12,0,0,-.12,0,279)" stroke-width="0" stroke-linecap="square" stroke-miterlimit="10" stroke-linejoin="miter" fill="none" stroke="#ffffff" d="M 2275.49 410.133 L 2275.49 410.133 "/>
<path transform="matrix(.12,0,0,-.12,0,279)" stroke-width="0" stroke-linecap="square" stroke-miterlimit="10" stroke-linejoin="miter" fill="none" stroke="#ffffff" d="M 1425.06 551.633 L 1425.06 551.633 "/>
<path transform="matrix(.12,0,0,-.12,0,279)" stroke-width="0" stroke-linecap="square" stroke-miterlimit="10" stroke-linejoin="miter" fill="none" stroke="#ffffff" d="M 2424.9 344.758 L 2424.9 344.758 "/>
<path transform="matrix(.12,0,0,-.12,0,279)" d="M 1425.06 344.758 L 2424.9002 344.758 L 2424.9002 551.633 L 1425.06 551.633 Z " fill="#8d959b" fill-rule="evenodd"/>
<path transform="matrix(.12,0,0,-.12,0,279)" d="M 1425.06 344.758 L 2424.9002 344.758 L 2424.9002 551.633 L 1425.06 551.633 Z " fill="#231f20" fill-rule="evenodd"/>
<path transform="matrix(.12,0,0,-.12,0,279)" d="M 1425.06 344.758 L 2424.9002 344.758 L 2424.9002 551.633 L 1425.06 551.633 Z " fill="#8d959b" fill-rule="evenodd"/>
<path transform="matrix(.12,0,0,-.12,0,279)" stroke-width="0" stroke-linecap="square" stroke-miterlimit="10" stroke-linejoin="miter" fill="none" stroke="#ffffff" d="M 1425.06 551.633 L 1425.06 551.633 "/>
<path transform="matrix(.12,0,0,-.12,0,279)" d="M 1413.57 356.25 L 2413.4019 356.25 L 2413.4019 563.117 L 1413.57 563.117 Z " fill="#e7e9ed" fill-rule="evenodd"/>
<use xlink:href="#font_2_14" transform="matrix(11.068995,0,0,-11.068995,188.22006,228.40503)" fill="#231f20"/>
<use xlink:href="#font_2_18" transform="matrix(11.068995,0,0,-11.068995,190.90984,228.40503)" fill="#231f20"/>
<use xlink:href="#font_2_5" transform="matrix(11.068995,0,0,-11.068995,200.14139,230.5967)" fill="#231f20"/>
<use xlink:href="#font_2_17" transform="matrix(11.068995,0,0,-11.068995,206.4839,228.40503)" fill="#231f20"/>
<use xlink:href="#font_2_f" transform="matrix(11.068995,0,0,-11.068995,208.68665,228.51572)" fill="#231f20"/>
<use xlink:href="#font_2_18" transform="matrix(11.068995,0,0,-11.068995,214.57535,228.40503)" fill="#231f20"/>
<use xlink:href="#font_2_f" transform="matrix(11.068995,0,0,-11.068995,223.46376,228.51572)" fill="#231f20"/>
<use xlink:href="#font_2_2" transform="matrix(11.068995,0,0,-11.068995,229.35247,228.40503)" fill="#231f20"/>
<use xlink:href="#font_2_9" transform="matrix(11.068995,0,0,-11.068995,234.93125,228.5268)" fill="#231f20"/>
<use xlink:href="#font_2_b" transform="matrix(11.068995,0,0,-11.068995,238.78324,228.5268)" fill="#231f20"/>
<use xlink:href="#font_2_9" transform="matrix(11.068995,0,0,-11.068995,243.93032,228.5268)" fill="#231f20"/>
<use xlink:href="#font_2_14" transform="matrix(11.068995,0,0,-11.068995,248.05904,228.40503)" fill="#231f20"/>
<use xlink:href="#font_2_3" transform="matrix(11.068995,0,0,-11.068995,250.40567,228.5268)" fill="#231f20"/>
<use xlink:href="#font_2_2" transform="matrix(11.068995,0,0,-11.068995,256.82569,228.40503)" fill="#231f20"/>
<path transform="matrix(.12,0,0,-.12,0,279)" d="M 2412.68 461.125 L 2411.98 460.398 L 2411.24 459.699 L 2411.24 458.965 L 2411.98 458.25 L 2412.68 457.535 L 2414.84 457.535 L 2875.98 900.707 L 2876.69 901.426 L 2876.69 903.582 L 2875.98 904.293 L 2875.26 905.008 L 2874.54 905.008 L 2873.82 904.293 L 2412.68 461.125 " fill="#ec2752" fill-rule="evenodd"/>
<path transform="matrix(.12,0,0,-.12,0,279)" d="M 2889.62 885.625 L 2906.14 933.742 L 2858.01 917.941 L 2889.62 885.625 " fill="#ec2752" fill-rule="evenodd"/>
<path transform="matrix(.12,0,0,-.12,0,279)" d="M 536.551 1631.91 L 536.551 1632.64 L 535.832 1633.35 L 535.117 1634.07 L 534.391 1634.07 L 533.68 1633.35 L 532.961 1632.64 L 532.238 1631.91 L 532.238 1631.2 L 730.48 1145.64 L 731.203 1144.93 L 731.922 1144.2 L 734.074 1144.2 L 734.789 1144.93 L 734.789 1146.35 L 536.551 1631.91 " fill="#ec2752" fill-rule="evenodd"/>
<path transform="matrix(.12,0,0,-.12,0,279)" d="M 711.809 1138.45 L 749.871 1104.69 L 754.188 1155.69 L 711.809 1138.45 " fill="#ec2752" fill-rule="evenodd"/>
<symbol id="font_2_d">
<path d="M .365 .094000007 C .34000004 .083000008 .30700005 .071 .25700004 .071 C .16100002 .071 .089 .14000002 .089 .252 C .089 .35300002 .149 .43600003 .26 .43600003 C .30800004 .43600003 .34100003 .42400003 .362 .41300003 L .38200004 .48000003 C .35800005 .49300004 .31200005 .50600007 .26 .50600007 C .102 .50600007 0 .397 0 .24800003 C 0 .09900001 .095 0 .24100001 0 C .306 0 .357 .017 .38 .028 L .365 .094000007 Z "/>
</symbol>
<symbol id="font_2_16">
<path d="M .08800001 .71000006 L 0 .71000006 L 0 0 L .08800001 0 L .08800001 .18200001 L .13300002 .23300001 L .299 0 L .40600003 0 L .19299999 .28500004 L .38 .48400004 L .275 .48400004 L .132 .317 C .11800001 .30100004 .102000009 .279 .089999999 .26200003 L .08800001 .26200003 L .08800001 .71000006 Z "/>
</symbol>
<symbol id="font_2_11">
<path d="M .449 .56100007 C .449 .62 .45000006 .65900006 .453 .693 L .375 .693 L .37200005 .62100008 L .37 .62100008 C .348 .661 .30300004 .70400008 .219 .70400008 C .10700001 .70400008 0 .61200007 0 .448 C 0 .31300003 .086 .21100001 .20600002 .21100001 C .28100003 .21100001 .334 .24700001 .36 .292 L .362 .292 L .362 .23900001 C .362 .116000007 .296 .069000009 .20600002 .069000009 C .14600002 .069000009 .096 .087 .064 .108 L .042000005 .03999999 C .081 .013999999 .14500001 0 .20300001 0 C .264 0 .33200003 .015000001 .38 .058 C .426 .101 .449 .16800002 .449 .28 L .449 .56100007 M .361 .416 C .361 .40000005 .35900004 .38300003 .35400004 .36900003 C .33600004 .312 .287 .278 .23200001 .278 C .13800001 .278 .089 .358 .089 .45200003 C .089 .565 .149 .63600006 .23300003 .63600006 C .29800005 .63600006 .34000004 .59400007 .356 .542 C .36 .53000006 .361 .517 .361 .503 L .361 .416 Z "/>
</symbol>
<use xlink:href="#font_2_5" transform="matrix(12.411796,0,0,-12.411796,42.918699,79.16362)" fill="#8d959b"/>
<use xlink:href="#font_2_b" transform="matrix(12.411796,0,0,-12.411796,49.55901,76.84261)" fill="#8d959b"/>
<use xlink:href="#font_2_d" transform="matrix(12.411796,0,0,-12.411796,55.578729,76.84261)" fill="#8d959b"/>
<use xlink:href="#font_2_16" transform="matrix(12.411796,0,0,-12.411796,61.573625,76.706089)" fill="#8d959b"/>
<use xlink:href="#font_2_b" transform="matrix(12.411796,0,0,-12.411796,66.9231,76.84261)" fill="#8d959b"/>
<use xlink:href="#font_2_11" transform="matrix(12.411796,0,0,-12.411796,72.94283,79.30015)" fill="#8d959b"/>
<use xlink:href="#font_2_f" transform="matrix(12.411796,0,0,-12.411796,79.88103,76.8302)" fill="#8d959b"/>
<path transform="matrix(.12,0,0,-.12,0,279)" stroke-width="0" stroke-linecap="square" stroke-miterlimit="10" stroke-linejoin="miter" fill="none" stroke="#ffffff" d="M 741.262 1685.79 L 741.262 1685.79 "/>
<path transform="matrix(.12,0,0,-.12,0,279)" stroke-width="0" stroke-linecap="square" stroke-miterlimit="10" stroke-linejoin="miter" fill="none" stroke="#ffffff" d="M 114.922 1827.29 L 114.922 1827.29 "/>
<path transform="matrix(.12,0,0,-.12,0,279)" stroke-width="0" stroke-linecap="square" stroke-miterlimit="10" stroke-linejoin="miter" fill="none" stroke="#ffffff" d="M 976.852 1620.42 L 976.852 1620.42 "/>
<path transform="matrix(.12,0,0,-.12,0,279)" d="M 114.922 1620.42 L 976.852 1620.42 L 976.852 1827.2871 L 114.922 1827.2871 Z " fill="#8d959b" fill-rule="evenodd"/>
<path transform="matrix(.12,0,0,-.12,0,279)" d="M 114.922 1620.42 L 976.852 1620.42 L 976.852 1827.2871 L 114.922 1827.2871 Z " fill="#231f20" fill-rule="evenodd"/>
<path transform="matrix(.12,0,0,-.12,0,279)" d="M 114.922 1620.42 L 976.852 1620.42 L 976.852 1827.2871 L 114.922 1827.2871 Z " fill="#8d959b" fill-rule="evenodd"/>
<path transform="matrix(.12,0,0,-.12,0,279)" stroke-width="0" stroke-linecap="square" stroke-miterlimit="10" stroke-linejoin="miter" fill="none" stroke="#ffffff" d="M 114.922 1827.29 L 114.922 1827.29 "/>
<path transform="matrix(.12,0,0,-.12,0,279)" d="M 103.426 1631.91 L 965.36007 1631.91 L 965.36007 1838.785 L 103.426 1838.785 Z " fill="#e7e9ed" fill-rule="evenodd"/>
<use xlink:href="#font_2_5" transform="matrix(11.068995,0,0,-11.068995,41.447046,77.518749)" fill="#231f20"/>
<use xlink:href="#font_2_b" transform="matrix(11.068995,0,0,-11.068995,47.368955,75.448848)" fill="#231f20"/>
<use xlink:href="#font_2_d" transform="matrix(11.068995,0,0,-11.068995,52.737417,75.448848)" fill="#231f20"/>
<use xlink:href="#font_2_16" transform="matrix(11.068995,0,0,-11.068995,58.083745,75.32709)" fill="#231f20"/>
<use xlink:href="#font_2_b" transform="matrix(11.068995,0,0,-11.068995,62.854478,75.448848)" fill="#231f20"/>
<use xlink:href="#font_2_11" transform="matrix(11.068995,0,0,-11.068995,68.222949,77.64051)" fill="#231f20"/>
<use xlink:href="#font_2_f" transform="matrix(11.068995,0,0,-11.068995,74.410518,75.437778)" fill="#231f20"/>
<path transform="matrix(.12,0,0,-.12,0,279)" d="M 1412.85 457.535 L 1415 457.535 L 1415.71 458.25 L 1415.71 460.398 L 1415 461.125 L 772.145 873.398 L 771.426 874.133 L 770.707 874.133 L 769.992 873.398 L 769.273 872.691 L 768.547 871.977 L 768.547 871.25 L 769.273 870.543 L 769.992 869.824 L 1412.85 457.535 " fill="#ec2752" fill-rule="evenodd"/>
<path transform="matrix(.12,0,0,-.12,0,279)" d="M 784.352 889.926 L 734.074 894.957 L 759.938 851.859 L 784.352 889.926 " fill="#ec2752" fill-rule="evenodd"/>
<symbol id="font_2_8">
<path d="M 0 0 L .088 0 L .088 .305 L .342 .305 L .342 .377 L .088 .377 L .088 .601 L .36300005 .601 L .36300005 .674 L 0 .674 L 0 0 Z "/>
</symbol>
<symbol id="font_2_10">
<path d="M .304 0 C .47500003 0 .616 .124000009 .616 .35500003 C .616 .555 .49700005 .69600006 .312 .69600006 C .13200002 .69600006 0 .556 0 .34200005 C 0 .13800001 .12400001 0 .303 0 L .304 0 M .306 .071 C .16900002 .071 .091000009 .20200002 .091000009 .344 C .091000009 .49000005 .16300002 .625 .308 .625 C .453 .625 .523 .48500005 .523 .351 C .523 .19800002 .44500003 .071 .307 .071 L .306 .071 Z "/>
</symbol>
<symbol id="font_2_13">
<path d="M 0 0 L .087 0 L .087 .29200004 L .169 .29200004 C .248 .289 .28500004 .254 .305 .16100002 C .323 .07700001 .33800004 .019000002 .349 0 L .43900005 0 C .42600004 .026 .41000004 .091000009 .388 .185 C .37100003 .25500003 .34 .303 .289 .321 L .289 .324 C .35900004 .34800003 .416 .407 .416 .49500004 C .416 .54800006 .39600004 .59400007 .363 .623 C .321 .661 .26000003 .679 .16700001 .679 C .10800001 .679 .044 .67300006 0 .66400006 L 0 0 M .087 .60300007 C .102 .60700008 .13100001 .611 .17300001 .611 C .26500003 .611 .328 .573 .328 .48600004 C .328 .409 .26900003 .358 .176 .358 L .087 .358 L .087 .60300007 Z "/>
</symbol>
<symbol id="font_2_15">
<path d="M .20500002 0 L .293 0 L .293 .6 L .499 .6 L .499 .674 L 0 .674 L 0 .6 L .20500002 .6 L .20500002 0 Z "/>
</symbol>
<symbol id="font_2_1">
<path d="M .39900003 .21200001 L .47100003 0 L .56400009 0 L .33400003 .674 L .229 .674 L 0 0 L .09 0 L .16 .21200001 L .39900003 .21200001 M .178 .28 L .24400002 .47500003 C .257 .51600006 .268 .558 .277 .597 L .28 .597 C .29000003 .558 .3 .518 .314 .47400005 L .381 .28 L .178 .28 Z "/>
</symbol>
<symbol id="font_2_e">
<path d="M .082 0 L .082 .28800003 C .082 .4 .081 .48100005 .076000008 .56600007 L .078999999 .56700006 C .112 .49400003 .157 .41700004 .204 .342 L .418 0 L .50600007 0 L .50600007 .674 L .424 .674 L .424 .39100004 C .424 .287 .42600004 .20500002 .43400005 .115 L .43100003 .11400001 C .4 .18400002 .36 .254 .31100003 .333 L .096 .674 L 0 .674 L 0 0 L .082 0 Z "/>
</symbol>
<symbol id="font_2_1a">
<path d="M .067 0 L .347 .7250001 L .278 .7250001 L 0 0 L .067 0 Z "/>
</symbol>
<symbol id="font_2_4">
<path d="M .49300004 .102000009 C .458 .085 .404 .074 .35 .074 C .187 .074 .09200001 .17900002 .09200001 .34500004 C .09200001 .522 .19700001 .623 .35500003 .623 C .411 .623 .458 .611 .49 .595 L .512 .666 C .48900003 .67800006 .435 .69600006 .352 .69600006 C .143 .69600006 0 .554 0 .34200005 C 0 .120000008 .142 0 .33200003 0 C .414 0 .47900004 .016 .51 .032 L .49300004 .102000009 Z "/>
</symbol>
<symbol id="font_2_19">
<path d="M .226 .532 L .226 .29700003 L 0 .29700003 L 0 .23700002 L .226 .23700002 L .226 0 L .29000003 0 L .29000003 .23700002 L .51600006 .23700002 L .51600006 .29700003 L .29000003 .29700003 L .29000003 .532 L .226 .532 Z "/>
</symbol>
<use xlink:href="#font_2_8" transform="matrix(9.653586,0,0,-9.653586,89.76068,270.1228)" fill="#8d959b"/>
<use xlink:href="#font_2_10" transform="matrix(9.653586,0,0,-9.653586,94.08549,270.229)" fill="#8d959b"/>
<use xlink:href="#font_2_13" transform="matrix(9.653586,0,0,-9.653586,101.122959,270.1228)" fill="#8d959b"/>
<use xlink:href="#font_2_15" transform="matrix(9.653586,0,0,-9.653586,105.57326,270.1228)" fill="#8d959b"/>
<use xlink:href="#font_2_13" transform="matrix(9.653586,0,0,-9.653586,111.11442,270.1228)" fill="#8d959b"/>
<use xlink:href="#font_2_1" transform="matrix(9.653586,0,0,-9.653586,115.81572,270.1228)" fill="#8d959b"/>
<use xlink:href="#font_2_e" transform="matrix(9.653586,0,0,-9.653586,122.21604,270.1228)" fill="#8d959b"/>
<use xlink:href="#font_2_1a" transform="matrix(9.653586,0,0,-9.653586,127.82478,270.50895)" fill="#8d959b"/>
<use xlink:href="#font_2_4" transform="matrix(9.653586,0,0,-9.653586,131.49315,270.229)" fill="#8d959b"/>
<use xlink:href="#font_2_1a" transform="matrix(9.653586,0,0,-9.653586,136.73503,270.50895)" fill="#8d959b"/>
<use xlink:href="#font_2_4" transform="matrix(9.653586,0,0,-9.653586,140.40341,270.229)" fill="#8d959b"/>
<use xlink:href="#font_2_19" transform="matrix(9.653586,0,0,-9.653586,146.0411,270.1228)" fill="#8d959b"/>
<use xlink:href="#font_2_19" transform="matrix(9.653586,0,0,-9.653586,151.79465,270.1228)" fill="#8d959b"/>
<path transform="matrix(.12,0,0,-.12,0,279)" stroke-width="0" stroke-linecap="square" stroke-miterlimit="10" stroke-linejoin="miter" fill="none" stroke="#ffffff" d="M 1384.83 73.9766 L 1384.83 73.9766 "/>
<path transform="matrix(.12,0,0,-.12,0,279)" stroke-width="0" stroke-linecap="square" stroke-miterlimit="10" stroke-linejoin="miter" fill="none" stroke="#ffffff" d="M 701.035 206.859 L 701.035 206.859 "/>
<path transform="matrix(.12,0,0,-.12,0,279)" stroke-width="0" stroke-linecap="square" stroke-miterlimit="10" stroke-linejoin="miter" fill="none" stroke="#ffffff" d="M 1425.06 0 L 1425.06 0 "/>
<path transform="matrix(.12,0,0,-.12,0,279)" d="M 701.035 0 L 1425.058 0 L 1425.058 206.859 L 701.035 206.859 Z " fill="#8d959b" fill-rule="evenodd"/>
<path transform="matrix(.12,0,0,-.12,0,279)" d="M 701.035 0 L 1425.058 0 L 1425.058 206.859 L 701.035 206.859 Z " fill="#231f20" fill-rule="evenodd"/>
<path transform="matrix(.12,0,0,-.12,0,279)" d="M 701.035 0 L 1425.058 0 L 1425.058 206.859 L 701.035 206.859 Z " fill="#8d959b" fill-rule="evenodd"/>
<path transform="matrix(.12,0,0,-.12,0,279)" stroke-width="0" stroke-linecap="square" stroke-miterlimit="10" stroke-linejoin="miter" fill="none" stroke="#ffffff" d="M 701.035 206.859 L 701.035 206.859 "/>
<path transform="matrix(.12,0,0,-.12,0,279)" d="M 689.543 11.4922 L 1413.566 11.4922 L 1413.566 218.3512 L 689.543 218.3512 Z " fill="#e7e9ed" fill-rule="evenodd"/>
<use xlink:href="#font_2_8" transform="matrix(11.068995,0,0,-11.068995,92.20684,268.7428)" fill="#231f20"/>
<use xlink:href="#font_2_10" transform="matrix(11.068995,0,0,-11.068995,97.16575,268.86457)" fill="#231f20"/>
<use xlink:href="#font_2_13" transform="matrix(11.068995,0,0,-11.068995,105.23504,268.7428)" fill="#231f20"/>
<use xlink:href="#font_2_15" transform="matrix(11.068995,0,0,-11.068995,110.33785,268.7428)" fill="#231f20"/>
<use xlink:href="#font_2_13" transform="matrix(11.068995,0,0,-11.068995,116.69146,268.7428)" fill="#231f20"/>
<use xlink:href="#font_2_1" transform="matrix(11.068995,0,0,-11.068995,122.08206,268.7428)" fill="#231f20"/>
<use xlink:href="#font_2_e" transform="matrix(11.068995,0,0,-11.068995,129.4208,268.7428)" fill="#231f20"/>
<use xlink:href="#font_2_1a" transform="matrix(11.068995,0,0,-11.068995,135.8519,269.18556)" fill="#231f20"/>
<use xlink:href="#font_2_4" transform="matrix(11.068995,0,0,-11.068995,140.0581,268.86457)" fill="#231f20"/>
<use xlink:href="#font_2_1a" transform="matrix(11.068995,0,0,-11.068995,146.06858,269.18556)" fill="#231f20"/>
<use xlink:href="#font_2_4" transform="matrix(11.068995,0,0,-11.068995,150.27478,268.86457)" fill="#231f20"/>
<use xlink:href="#font_2_19" transform="matrix(11.068995,0,0,-11.068995,156.73908,268.7428)" fill="#231f20"/>
<use xlink:href="#font_2_19" transform="matrix(11.068995,0,0,-11.068995,163.3362,268.7428)" fill="#231f20"/>
<path transform="matrix(.12,0,0,-.12,0,279)" d="M 1050.84 216.199 L 1052.99 216.199 L 1053.71 216.91 L 1053.71 219.066 L 1052.99 219.785 L 736.227 463.273 L 735.512 463.992 L 734.789 463.992 L 734.074 463.273 L 733.359 462.559 L 732.637 461.84 L 732.637 461.125 L 733.359 460.398 L 734.074 459.699 L 1050.84 216.199 " fill="#ec2752" fill-rule="evenodd"/>
<path transform="matrix(.12,0,0,-.12,0,279)" d="M 749.871 478.367 L 699.598 488.41 L 722.582 442.449 L 749.871 478.367 " fill="#ec2752" fill-rule="evenodd"/>
<symbol id="font_2_c">
<path d="M 0 .70500007 L .178 .25800003 C .183 .24800001 .185 .24100001 .185 .23600002 C .185 .23000002 .18200001 .22400002 .178 .21500002 C .157 .17000002 .128 .136 .104 .11700001 C .078 .09400001 .049000004 .08000001 .027000003 .074000019 L .049000004 0 C .071 .004000008 .113000009 .019000009 .157 .05600001 C .21700001 .10900001 .26000003 .19400002 .323 .36 L .455 .70500007 L .36200003 .70500007 L .266 .421 C .254 .38600005 .24400002 .34900005 .23500002 .32000003 L .23300001 .32000003 C .22500001 .34900005 .21300002 .38700003 .201 .41900004 L .096 .70500007 L 0 .70500007 Z "/>
</symbol>
<symbol id="font_2_12">
<path d="M 0 0 L .08800001 0 L .08800001 .29200004 C .08800001 .30900003 .088999997 .32200004 .094000007 .33400003 C .11100001 .38200004 .155 .42200003 .21200001 .42200003 C .29500003 .42200003 .324 .35700003 .324 .27800004 L .324 0 L .412 0 L .412 .28800003 C .412 .455 .308 .49500004 .243 .49500004 C .21000001 .49500004 .17899999 .48600004 .153 .47000004 C .12600002 .45600004 .103999998 .43300004 .089999999 .40800003 L .08800001 .40800003 L .08800001 .71000006 L 0 .71000006 L 0 0 Z "/>
</symbol>
<use xlink:href="#font_2_5" transform="matrix(9.653586,0,0,-9.653586,229.594,54.82851)" fill="#8d959b"/>
<use xlink:href="#font_2_c" transform="matrix(9.653586,0,0,-9.653586,234.50768,55.05054)" fill="#8d959b"/>
<use xlink:href="#font_2_9" transform="matrix(9.653586,0,0,-9.653586,239.14139,53.02329)" fill="#8d959b"/>
<use xlink:href="#font_2_12" transform="matrix(9.653586,0,0,-9.653586,242.86768,52.9171)" fill="#8d959b"/>
<use xlink:href="#font_2_3" transform="matrix(9.653586,0,0,-9.653586,247.88755,53.02329)" fill="#8d959b"/>
<use xlink:href="#font_2_2" transform="matrix(9.653586,0,0,-9.653586,253.48662,52.9171)" fill="#8d959b"/>
<path transform="matrix(.12,0,0,-.12,0,279)" stroke-width="0" stroke-linecap="square" stroke-miterlimit="10" stroke-linejoin="miter" fill="none" stroke="#ffffff" d="M 2148.36 1884.03 L 2148.36 1884.03 "/>
<path transform="matrix(.12,0,0,-.12,0,279)" stroke-width="0" stroke-linecap="square" stroke-miterlimit="10" stroke-linejoin="miter" fill="none" stroke="#ffffff" d="M 1666.4 1999.66 L 1666.4 1999.66 "/>
<path transform="matrix(.12,0,0,-.12,0,279)" stroke-width="0" stroke-linecap="square" stroke-miterlimit="10" stroke-linejoin="miter" fill="none" stroke="#ffffff" d="M 2390.43 1827.29 L 2390.43 1827.29 "/>
<path transform="matrix(.12,0,0,-.12,0,279)" d="M 1666.4 1827.29 L 2390.427 1827.29 L 2390.427 1999.6691 L 1666.4 1999.6691 Z " fill="#8d959b" fill-rule="evenodd"/>
<path transform="matrix(.12,0,0,-.12,0,279)" d="M 1666.4 1827.29 L 2390.427 1827.29 L 2390.427 1999.6691 L 1666.4 1999.6691 Z " fill="#231f20" fill-rule="evenodd"/>
<path transform="matrix(.12,0,0,-.12,0,279)" d="M 1666.4 1827.29 L 2390.427 1827.29 L 2390.427 1999.6691 L 1666.4 1999.6691 Z " fill="#8d959b" fill-rule="evenodd"/>
<path transform="matrix(.12,0,0,-.12,0,279)" stroke-width="0" stroke-linecap="square" stroke-miterlimit="10" stroke-linejoin="miter" fill="none" stroke="#ffffff" d="M 1666.4 1999.66 L 1666.4 1999.66 "/>
<path transform="matrix(.12,0,0,-.12,0,279)" d="M 1654.91 1838.79 L 2378.918 1838.79 L 2378.918 2011.1691 L 1654.91 2011.1691 Z " fill="#e7e9ed" fill-rule="evenodd"/>
<use xlink:href="#font_2_5" transform="matrix(11.068995,0,0,-11.068995,228.31267,53.728757)" fill="#231f20"/>
<use xlink:href="#font_2_c" transform="matrix(11.068995,0,0,-11.068995,233.9468,53.98334)" fill="#231f20"/>
<use xlink:href="#font_2_9" transform="matrix(11.068995,0,0,-11.068995,239.2599,51.65885)" fill="#231f20"/>
<use xlink:href="#font_2_12" transform="matrix(11.068995,0,0,-11.068995,243.53252,51.537096)" fill="#231f20"/>
<use xlink:href="#font_2_3" transform="matrix(11.068995,0,0,-11.068995,249.2884,51.65885)" fill="#231f20"/>
<use xlink:href="#font_2_2" transform="matrix(11.068995,0,0,-11.068995,255.70842,51.537096)" fill="#231f20"/>
<path transform="matrix(.12,0,0,-.12,0,279)" d="M 2019.07 1838.06 L 2019.07 1839.49 L 2018.36 1840.21 L 2017.64 1840.93 L 2016.91 1840.93 L 2016.2 1840.21 L 2015.48 1839.49 L 2014.76 1838.79 L 1895.52 1491.13 L 1895.52 1490.42 L 1896.24 1489.69 L 1896.96 1488.98 L 1899.12 1488.98 L 1899.83 1489.69 L 1899.83 1490.42 L 2019.07 1838.06 " fill="#ec2752" fill-rule="evenodd"/>
<path transform="matrix(.12,0,0,-.12,0,279)" d="M 1876.85 1498.32 L 1883.32 1448.04 L 1919.23 1483.95 L 1876.85 1498.32 " fill="#ec2752" fill-rule="evenodd"/>
<path transform="matrix(.12,0,0,-.12,0,279)" d="M 1912.05 871.977 L 1912.77 871.25 L 1914.93 871.25 L 1915.64 871.977 L 1915.64 874.133 L 1703.02 1187.29 L 1702.31 1188.02 L 1701.59 1188.73 L 1700.88 1188.73 L 1700.16 1188.02 L 1699.44 1187.29 L 1698.71 1186.57 L 1698.71 1185.86 L 1699.44 1185.15 L 1912.05 871.977 " fill="#ec2752" fill-rule="evenodd"/>
<path transform="matrix(.12,0,0,-.12,0,279)" d="M 1720.98 1198.07 L 1676.45 1222.49 L 1683.64 1172.93 L 1720.98 1198.07 " fill="#ec2752" fill-rule="evenodd"/>
</g>
</g>
</svg>
