<?xml version="1.0" encoding="UTF-8" standalone="no"?>
<!DOCTYPE svg PUBLIC "-//W3C//DTD SVG 1.1//EN" "http://www.w3.org/Graphics/SVG/1.1/DTD/svg11.dtd">
<svg xmlns="http://www.w3.org/2000/svg" xmlns:xlink="http://www.w3.org/1999/xlink" version="1.1" width="242pt" height="194pt" viewBox="0 0 242 194">
<g enable-background="new">
<clipPath id="cp0">
<path transform="matrix(.12,0,0,-.12,0,194)" d="M 0 0 L 2016.67 0 L 2016.67 1616.67 L 0 1616.67 Z "/>
</clipPath>
<g clip-path="url(#cp0)">
<path transform="matrix(.12,0,0,-.12,0,194)" stroke-width="12.5" stroke-linecap="butt" stroke-linejoin="round" fill="none" stroke="#1e6e96" d="M 350 1583.33 L 16.668 916.668 L 683.332 1250 L 350 1583.33 "/>
<path transform="matrix(.12,0,0,-.12,0,194)" stroke-width="8.33333" stroke-linecap="butt" stroke-linejoin="round" fill="none" stroke="#6101af" d="M 183.332 1250 L 350 1083.33 L 516.668 1416.67 L 183.332 1250 "/>
<path transform="matrix(.12,0,0,-.12,0,194)" stroke-width="12.5" stroke-linecap="butt" stroke-linejoin="round" fill="none" stroke="#1e6e96" d="M 16.668 83.332 L 750 83.332 L 683.332 750 L 183.332 616.668 Z M 16.668 83.332 "/>
<path transform="matrix(.12,0,0,-.12,0,194)" stroke-width="6.66667" stroke-linecap="butt" stroke-miterlimit="4" stroke-linejoin="miter" fill="none" stroke="#6101af" d="M 100 350 L 716.668 416.668 "/>
<path transform="matrix(.12,0,0,-.12,0,194)" stroke-width="6.66667" stroke-linecap="butt" stroke-miterlimit="4" stroke-linejoin="miter" fill="none" stroke="#6101af" d="M 433.332 683.332 L 400 83.332 "/>
<path transform="matrix(.12,0,0,-.12,0,194)" stroke-width="12.5" stroke-linecap="butt" stroke-linejoin="round" fill="none" stroke="#1e6e96" d="M 1499.96 1600 L 1166.63 1100 L 1566.63 850 L 1499.96 1600 L 1833.3 1183.33 L 1566.63 850 "/>
<path transform="matrix(.12,0,0,-.12,0,194)" stroke-width="12.5" stroke-linecap="butt" stroke-dasharray="25,25" stroke-miterlimit="4" stroke-linejoin="miter" fill="none" stroke="#1e6e96" d="M 1166.63 1100 L 1833.3 1183.33 "/>
<path transform="matrix(.12,0,0,-.12,0,194)" stroke-width="8.33333" stroke-linecap="butt" stroke-dasharray="25,8.33333" stroke-linejoin="round" fill="none" stroke="#6101af" d="M 1366.63 983.332 L 1716.63 1033.33 L 1516.63 1150 L 1349.96 983.332 "/>
<path transform="matrix(.12,0,0,-.12,0,194)" stroke-width="8.33333" stroke-linecap="butt" stroke-dasharray="25,8.33333" stroke-linejoin="round" fill="none" stroke="#6101af" d="M 1333.3 1350 L 1516.63 1150 L 1649.96 1416.67 L 1333.3 1350 "/>
<path transform="matrix(.12,0,0,-.12,0,194)" stroke-width="8.33333" stroke-linecap="butt" stroke-linejoin="round" fill="none" stroke="#6101af" d="M 1533.3 1216.67 L 1716.63 1033.33 L 1649.96 1416.67 L 1533.3 1216.67 "/>
<path transform="matrix(.12,0,0,-.12,0,194)" stroke-width="8.33333" stroke-linecap="butt" stroke-linejoin="round" fill="none" stroke="#6101af" d="M 1349.96 983.332 L 1533.3 1216.67 L 1333.3 1350 L 1349.96 983.332 "/>
<path transform="matrix(.12,0,0,-.12,0,194)" stroke-width="8.33333" stroke-linecap="butt" stroke-dasharray="25,8.33333" stroke-miterlimit="4" stroke-linejoin="miter" fill="none" stroke="#6101af" d="M 1533.3 1216.67 L 1516.63 1150 "/>
<path transform="matrix(.12,0,0,-.12,0,194)" stroke-width="12.5" stroke-linecap="butt" stroke-linejoin="round" fill="none" stroke="#1e6e96" d="M 1249.96 16.668 L 1749.96 16.668 L 1749.96 433.332 L 1249.96 433.332 Z "/>
<path transform="matrix(.12,0,0,-.12,0,194)" stroke-width="12.5" stroke-linecap="butt" stroke-miterlimit="4" stroke-linejoin="miter" fill="none" stroke="#1e6e96" d="M 1249.96 433.332 L 1499.96 600 L 1999.96 600 L 1999.96 183.332 L 1749.96 16.668 "/>
<path transform="matrix(.12,0,0,-.12,0,194)" stroke-width="12.5" stroke-linecap="butt" stroke-miterlimit="4" stroke-linejoin="miter" fill="none" stroke="#1e6e96" d="M 1749.96 433.332 L 1999.96 600 "/>
<path transform="matrix(.12,0,0,-.12,0,194)" stroke-width="12.5" stroke-linecap="butt" stroke-dasharray="37.5,12.5" stroke-miterlimit="4" stroke-linejoin="miter" fill="none" stroke="#1e6e96" d="M 1499.96 600 L 1499.96 183.332 L 1999.96 183.332 "/>
<path transform="matrix(.12,0,0,-.12,0,194)" stroke-width="12.5" stroke-linecap="butt" stroke-dasharray="37.5,12.5" stroke-miterlimit="4" stroke-linejoin="miter" fill="none" stroke="#1e6e96" d="M 1499.96 183.332 L 1249.96 16.668 "/>
<path transform="matrix(.12,0,0,-.12,0,194)" stroke-width="8.33333" stroke-linecap="butt" stroke-miterlimit="4" stroke-linejoin="miter" fill="none" stroke="#6101af" d="M 1249.96 233.332 L 1749.96 233.332 L 1999.96 400 "/>
<path transform="matrix(.12,0,0,-.12,0,194)" stroke-width="8.33333" stroke-linecap="butt" stroke-dasharray="25,8.33333" stroke-miterlimit="4" stroke-linejoin="miter" fill="none" stroke="#6101af" d="M 1999.96 400 L 1499.96 400 L 1249.96 233.332 "/>
<path transform="matrix(.12,0,0,-.12,0,194)" stroke-width="8.33333" stroke-linecap="butt" stroke-dasharray="25,8.33333" stroke-miterlimit="4" stroke-linejoin="miter" fill="none" stroke="#6101af" d="M 1749.96 600 L 1749.96 183.332 L 1499.96 16.668 "/>
<path transform="matrix(.12,0,0,-.12,0,194)" stroke-width="8.33333" stroke-linecap="butt" stroke-dasharray="25,8.33333" stroke-miterlimit="4" stroke-linejoin="miter" fill="none" stroke="#6101af" d="M 1366.63 516.668 L 1366.63 100 L 1866.63 100 "/>
<path transform="matrix(.12,0,0,-.12,0,194)" stroke-width="8.33333" stroke-linecap="butt" stroke-miterlimit="4" stroke-linejoin="miter" fill="none" stroke="#6101af" d="M 1866.63 100 L 1866.63 516.668 L 1366.63 516.668 "/>
<path transform="matrix(.12,0,0,-.12,0,194)" stroke-width="8.33333" stroke-linecap="butt" stroke-miterlimit="4" stroke-linejoin="miter" fill="none" stroke="#6101af" d="M 1749.96 600 L 1499.96 433.332 L 1499.96 16.668 "/>
<path transform="matrix(.12,0,0,-.12,0,194)" stroke-width="8.33333" stroke-linecap="butt" stroke-dasharray="25,8.33333" stroke-miterlimit="4" stroke-linejoin="miter" fill="none" stroke="#6101af" d="M 1366.63 316.668 L 1866.63 316.668 "/>
<path transform="matrix(.12,0,0,-.12,0,194)" stroke-width="8.33333" stroke-linecap="butt" stroke-dasharray="25,8.33333" stroke-miterlimit="4" stroke-linejoin="miter" fill="none" stroke="#6101af" d="M 1749.96 400 L 1499.96 233.332 "/>
<path transform="matrix(.12,0,0,-.12,0,194)" d="M 366.668 1583.33 C 366.668 1574.12 359.207 1566.67 350 1566.67 C 340.793 1566.67 333.332 1574.12 333.332 1583.33 C 333.332 1592.54 340.793 1600 350 1600 C 358.852 1600 366.176 1593.07 366.633 1584.21 L 350 1583.33 Z " fill="#f67f00"/>
<path transform="matrix(.12,0,0,-.12,0,194)" d="M 366.668 1583.33 C 366.668 1574.12 359.207 1566.67 350 1566.67 C 340.793 1566.67 333.332 1574.12 333.332 1583.33 C 333.332 1592.54 340.793 1600 350 1600 C 358.852 1600 366.176 1593.07 366.633 1584.21 L 350 1583.33 Z " fill="#f67f00"/>
<path transform="matrix(.12,0,0,-.12,0,194)" d="M 700 1250 C 700 1240.79 692.543 1233.33 683.332 1233.33 C 674.125 1233.33 666.668 1240.79 666.668 1250 C 666.668 1259.21 674.125 1266.67 683.332 1266.67 C 692.184 1266.67 699.508 1259.73 699.965 1250.88 L 683.332 1250 Z " fill="#f67f00"/>
<path transform="matrix(.12,0,0,-.12,0,194)" d="M 33.332 916.668 C 33.332 907.457 25.875 900 16.668 900 C 7.45703 900 0 907.457 0 916.668 C 0 925.875 7.45703 933.332 16.668 933.332 C 25.5156 933.332 32.8398 926.398 33.3008 917.543 L 16.668 916.668 Z " fill="#f67f00"/>
<path transform="matrix(.12,0,0,-.12,0,194)" d="M 200 1250 C 200 1240.79 192.543 1233.33 183.332 1233.33 C 174.125 1233.33 166.668 1240.79 166.668 1250 C 166.668 1259.21 174.125 1266.67 183.332 1266.67 C 192.184 1266.67 199.508 1259.73 199.965 1250.88 L 183.332 1250 Z " fill="#60cc0e"/>
<path transform="matrix(.12,0,0,-.12,0,194)" d="M 366.668 1083.33 C 366.668 1074.12 359.207 1066.67 350 1066.67 C 340.793 1066.67 333.332 1074.12 333.332 1083.33 C 333.332 1092.54 340.793 1100 350 1100 C 358.852 1100 366.176 1093.07 366.633 1084.21 L 350 1083.33 Z " fill="#60cc0e"/>
<path transform="matrix(.12,0,0,-.12,0,194)" d="M 533.332 1416.67 C 533.332 1407.46 525.875 1400 516.668 1400 C 507.457 1400 500 1407.46 500 1416.67 C 500 1425.88 507.457 1433.33 516.668 1433.33 C 525.516 1433.33 532.84 1426.4 533.301 1417.54 L 516.668 1416.67 Z " fill="#60cc0e"/>
<path transform="matrix(.12,0,0,-.12,0,194)" d="M 200 616.668 C 200 607.457 192.543 600 183.332 600 C 174.125 600 166.668 607.457 166.668 616.668 C 166.668 625.875 174.125 633.332 183.332 633.332 C 192.184 633.332 199.508 626.398 199.965 617.543 L 183.332 616.668 Z " fill="#f67f00"/>
<path transform="matrix(.12,0,0,-.12,0,194)" d="M 700.035 749.125 C 700.035 739.91 692.543 732.457 683.367 732.457 C 674.148 732.457 666.699 739.91 666.699 749.125 C 666.699 758.332 674.148 765.793 683.367 765.793 C 692.215 765.793 699.543 758.852 700 750 L 683.367 749.125 Z " fill="#f67f00"/>
<path transform="matrix(.12,0,0,-.12,0,194)" d="M 766.668 83.332 C 766.668 74.125 759.207 66.668 750 66.668 C 740.793 66.668 733.332 74.125 733.332 83.332 C 733.332 92.543 740.793 100 750 100 C 758.852 100 766.176 93.0664 766.633 84.207 L 750 83.332 Z " fill="#f67f00"/>
<path transform="matrix(.12,0,0,-.12,0,194)" d="M 33.332 83.332 C 33.332 74.125 25.875 66.668 16.668 66.668 C 7.45703 66.668 0 74.125 0 83.332 C 0 92.543 7.45703 100 16.668 100 C 25.5156 100 32.8398 93.0664 33.3008 84.207 L 16.668 83.332 Z " fill="#f67f00"/>
<path transform="matrix(.12,0,0,-.12,0,194)" d="M 450 683.332 C 450 674.125 442.543 666.668 433.332 666.668 C 424.125 666.668 416.668 674.125 416.668 683.332 C 416.668 692.543 424.125 700 433.332 700 C 442.383 700 449.809 692.773 450 683.727 " fill="#60cc0e"/>
<path transform="matrix(.12,0,0,-.12,0,194)" d="M 733.332 416.668 C 733.332 407.457 725.875 400 716.668 400 C 707.457 400 700 407.457 700 416.668 C 700 425.875 707.457 433.332 716.668 433.332 C 725.516 433.332 732.84 426.398 733.301 417.543 L 716.668 416.668 Z " fill="#60cc0e"/>
<path transform="matrix(.12,0,0,-.12,0,194)" d="M 433.332 383.332 C 433.332 374.125 425.875 366.668 416.668 366.668 C 407.457 366.668 400 374.125 400 383.332 C 400 392.543 407.457 400 416.668 400 C 425.516 400 432.84 393.066 433.301 384.207 L 416.668 383.332 Z " fill="#60cc0e"/>
<path transform="matrix(.12,0,0,-.12,0,194)" d="M 116.668 350 C 116.668 340.793 109.207 333.332 100 333.332 C 90.793 333.332 83.332 340.793 83.332 350 C 83.332 359.207 90.793 366.668 100 366.668 C 109.117 366.668 116.535 359.34 116.668 350.258 L 100 350 Z " fill="#60cc0e"/>
<path transform="matrix(.12,0,0,-.12,0,194)" d="M 416.668 83.332 C 416.668 74.125 409.207 66.668 400 66.668 C 390.793 66.668 383.332 74.125 383.332 83.332 C 383.332 92.543 390.793 100 400 100 C 408.852 100 416.176 93.0664 416.633 84.207 L 400 83.332 Z " fill="#60cc0e"/>
<path transform="matrix(.12,0,0,-.12,0,194)" d="M 1183.33 1099.12 C 1183.33 1089.91 1175.88 1082.46 1166.67 1082.46 C 1157.46 1082.46 1150 1089.91 1150 1099.12 C 1150 1108.33 1157.46 1115.79 1166.67 1115.79 C 1175.52 1115.79 1182.84 1108.85 1183.3 1100 L 1166.67 1099.12 Z " fill="#f67f00"/>
<path transform="matrix(.12,0,0,-.12,0,194)" d="M 1516.63 1600 C 1516.63 1590.79 1509.18 1583.33 1499.96 1583.33 C 1490.79 1583.33 1483.3 1590.79 1483.3 1600 C 1483.3 1609.21 1490.79 1616.67 1499.96 1616.67 C 1508.85 1616.67 1516.15 1609.73 1516.63 1600.88 L 1499.96 1600 Z " fill="#f67f00"/>
<path transform="matrix(.12,0,0,-.12,0,194)" d="M 1849.96 1183.33 C 1849.96 1174.12 1842.52 1166.67 1833.3 1166.67 C 1824.12 1166.67 1816.63 1174.12 1816.63 1183.33 C 1816.63 1192.54 1824.12 1200 1833.3 1200 C 1842.18 1200 1849.48 1193.07 1849.96 1184.21 L 1833.3 1183.33 Z " fill="#f67f00"/>
<path transform="matrix(.12,0,0,-.12,0,194)" d="M 1583.3 850 C 1583.3 840.793 1575.85 833.332 1566.63 833.332 C 1557.46 833.332 1549.96 840.793 1549.96 850 C 1549.96 859.207 1557.46 866.668 1566.63 866.668 C 1575.52 866.668 1582.82 859.734 1583.3 850.875 L 1566.63 850 Z " fill="#f67f00"/>
<path transform="matrix(.12,0,0,-.12,0,194)" d="M 1349.96 1350 C 1349.96 1340.79 1342.52 1333.33 1333.3 1333.33 C 1324.12 1333.33 1316.63 1340.79 1316.63 1350 C 1316.63 1359.21 1324.12 1366.67 1333.3 1366.67 C 1342.18 1366.67 1349.48 1359.73 1349.96 1350.88 L 1333.3 1350 Z " fill="#60cc0e"/>
<path transform="matrix(.12,0,0,-.12,0,194)" d="M 1666.63 1416.67 C 1666.63 1407.46 1659.18 1400 1649.96 1400 C 1640.79 1400 1633.3 1407.46 1633.3 1416.67 C 1633.3 1425.88 1640.79 1433.33 1649.96 1433.33 C 1658.85 1433.33 1666.15 1426.4 1666.63 1417.54 L 1649.96 1416.67 Z " fill="#60cc0e"/>
<path transform="matrix(.12,0,0,-.12,0,194)" d="M 1733.3 1033.33 C 1733.3 1024.12 1725.85 1016.67 1716.63 1016.67 C 1707.46 1016.67 1699.96 1024.12 1699.96 1033.33 C 1699.96 1042.54 1707.46 1050 1716.63 1050 C 1725.52 1050 1732.82 1043.07 1733.3 1034.21 L 1716.63 1033.33 Z " fill="#60cc0e"/>
<path transform="matrix(.12,0,0,-.12,0,194)" d="M 1366.63 983.332 C 1366.63 974.125 1359.18 966.668 1349.96 966.668 C 1340.79 966.668 1333.3 974.125 1333.3 983.332 C 1333.3 992.543 1340.79 1000 1349.96 1000 C 1358.85 1000 1366.15 993.066 1366.63 984.207 L 1349.96 983.332 Z " fill="#60cc0e"/>
<path transform="matrix(.12,0,0,-.12,0,194)" d="M 1533.3 1150 C 1533.3 1140.79 1525.85 1133.33 1516.63 1133.33 C 1507.46 1133.33 1499.96 1140.79 1499.96 1150 C 1499.96 1159.21 1507.46 1166.67 1516.63 1166.67 C 1525.52 1166.67 1532.82 1159.73 1533.3 1150.88 L 1516.63 1150 Z " fill="#60cc0e"/>
<path transform="matrix(.12,0,0,-.12,0,194)" d="M 1550 1215.79 C 1550 1206.57 1542.54 1199.12 1533.33 1199.12 C 1524.12 1199.12 1516.67 1206.57 1516.67 1215.79 C 1516.67 1225 1524.12 1232.46 1533.33 1232.46 C 1542.18 1232.46 1549.51 1225.52 1549.96 1216.67 L 1533.33 1215.79 Z " fill="#60cc0e"/>
<path transform="matrix(.12,0,0,-.12,0,194)" d="M 1516.63 600 C 1516.63 590.793 1509.18 583.332 1499.96 583.332 C 1490.79 583.332 1483.3 590.793 1483.3 600 C 1483.3 609.207 1490.79 616.668 1499.96 616.668 C 1508.85 616.668 1516.15 609.734 1516.63 600.875 L 1499.96 600 Z " fill="#f67f00"/>
<path transform="matrix(.12,0,0,-.12,0,194)" d="M 2016.67 599.125 C 2016.67 589.91 2009.21 582.457 2000 582.457 C 1990.79 582.457 1983.33 589.91 1983.33 599.125 C 1983.33 608.332 1990.79 615.793 2000 615.793 C 2008.85 615.793 2016.18 608.852 2016.63 600 L 2000 599.125 Z " fill="#f67f00"/>
<path transform="matrix(.12,0,0,-.12,0,194)" d="M 2016.67 599.125 C 2016.67 589.91 2009.21 582.457 2000 582.457 C 1990.79 582.457 1983.33 589.91 1983.33 599.125 C 1983.33 608.332 1990.79 615.793 2000 615.793 C 2008.85 615.793 2016.18 608.852 2016.63 600 L 2000 599.125 Z " fill="#f67f00"/>
<path transform="matrix(.12,0,0,-.12,0,194)" d="M 2016.63 183.332 C 2016.63 174.125 2009.18 166.668 1999.96 166.668 C 1990.79 166.668 1983.3 174.125 1983.3 183.332 C 1983.3 192.543 1990.79 200 1999.96 200 C 2008.85 200 2016.15 193.066 2016.63 184.207 L 1999.96 183.332 Z " fill="#f67f00"/>
<path transform="matrix(.12,0,0,-.12,0,194)" d="M 1266.63 16.668 C 1266.63 7.45703 1259.18 0 1249.96 0 C 1240.79 0 1233.3 7.45703 1233.3 16.668 C 1233.3 25.875 1240.79 33.332 1249.96 33.332 C 1258.85 33.332 1266.15 26.3984 1266.63 17.543 L 1249.96 16.668 Z " fill="#f67f00"/>
<path transform="matrix(.12,0,0,-.12,0,194)" d="M 1516.67 182.457 C 1516.67 173.242 1509.21 165.793 1500 165.793 C 1490.79 165.793 1483.33 173.242 1483.33 182.457 C 1483.33 191.668 1490.79 199.125 1500 199.125 C 1508.85 199.125 1516.18 192.184 1516.63 183.332 L 1500 182.457 Z " fill="#f67f00"/>
<path transform="matrix(.12,0,0,-.12,0,194)" d="M 1766.63 16.668 C 1766.63 7.45703 1759.18 0 1749.96 0 C 1740.79 0 1733.3 7.45703 1733.3 16.668 C 1733.3 25.875 1740.79 33.332 1749.96 33.332 C 1758.85 33.332 1766.15 26.3984 1766.63 17.543 L 1749.96 16.668 Z " fill="#f67f00"/>
<path transform="matrix(.12,0,0,-.12,0,194)" d="M 1766.63 433.332 C 1766.63 424.125 1759.18 416.668 1749.96 416.668 C 1740.79 416.668 1733.3 424.125 1733.3 433.332 C 1733.3 442.543 1740.79 450 1749.96 450 C 1758.85 450 1766.15 443.066 1766.63 434.207 L 1749.96 433.332 Z " fill="#f67f00"/>
<path transform="matrix(.12,0,0,-.12,0,194)" d="M 1766.63 433.332 C 1766.63 424.125 1759.18 416.668 1749.96 416.668 C 1740.79 416.668 1733.3 424.125 1733.3 433.332 C 1733.3 442.543 1740.79 450 1749.96 450 C 1758.85 450 1766.15 443.066 1766.63 434.207 L 1749.96 433.332 Z " fill="#f67f00"/>
<path transform="matrix(.12,0,0,-.12,0,194)" d="M 1266.63 433.332 C 1266.63 424.125 1259.18 416.668 1249.96 416.668 C 1240.79 416.668 1233.3 424.125 1233.3 433.332 C 1233.3 442.543 1240.79 450 1249.96 450 C 1258.85 450 1266.15 443.066 1266.63 434.207 L 1249.96 433.332 Z " fill="#f67f00"/>
<path transform="matrix(.12,0,0,-.12,0,194)" d="M 1383.3 516.668 C 1383.3 507.457 1375.85 500 1366.63 500 C 1357.46 500 1349.96 507.457 1349.96 516.668 C 1349.96 525.875 1357.46 533.332 1366.63 533.332 C 1375.52 533.332 1382.82 526.398 1383.3 517.543 L 1366.63 516.668 Z " fill="#60cc0e"/>
<path transform="matrix(.12,0,0,-.12,0,194)" d="M 1766.63 600 C 1766.63 590.793 1759.18 583.332 1749.96 583.332 C 1740.79 583.332 1733.3 590.793 1733.3 600 C 1733.3 609.207 1740.79 616.668 1749.96 616.668 C 1758.85 616.668 1766.15 609.734 1766.63 600.875 L 1749.96 600 Z " fill="#60cc0e"/>
<path transform="matrix(.12,0,0,-.12,0,194)" d="M 1883.3 516.668 C 1883.3 507.457 1875.85 500 1866.63 500 C 1857.46 500 1849.96 507.457 1849.96 516.668 C 1849.96 525.875 1857.46 533.332 1866.63 533.332 C 1875.52 533.332 1882.82 526.398 1883.3 517.543 L 1866.63 516.668 Z " fill="#60cc0e"/>
<path transform="matrix(.12,0,0,-.12,0,194)" d="M 1516.63 433.332 C 1516.63 424.125 1509.18 416.668 1499.96 416.668 C 1490.79 416.668 1483.3 424.125 1483.3 433.332 C 1483.3 442.543 1490.79 450 1499.96 450 C 1508.85 450 1516.15 443.066 1516.63 434.207 L 1499.96 433.332 Z " fill="#60cc0e"/>
<path transform="matrix(.12,0,0,-.12,0,194)" d="M 1649.96 516.668 C 1649.96 507.457 1642.52 500 1633.3 500 C 1624.12 500 1616.63 507.457 1616.63 516.668 C 1616.63 525.875 1624.12 533.332 1633.3 533.332 C 1642.18 533.332 1649.48 526.398 1649.96 517.543 L 1633.3 516.668 Z " fill="#60cc0e"/>
<path transform="matrix(.12,0,0,-.12,0,194)" d="M 1883.3 316.668 C 1883.3 307.457 1875.85 300 1866.63 300 C 1857.46 300 1849.96 307.457 1849.96 316.668 C 1849.96 325.875 1857.46 333.332 1866.63 333.332 C 1875.52 333.332 1882.82 326.398 1883.3 317.543 L 1866.63 316.668 Z " fill="#60cc0e"/>
<path transform="matrix(.12,0,0,-.12,0,194)" d="M 2016.67 399.125 C 2016.67 389.91 2009.21 382.457 2000 382.457 C 1990.79 382.457 1983.33 389.91 1983.33 399.125 C 1983.33 408.332 1990.79 415.793 2000 415.793 C 2008.85 415.793 2016.18 408.852 2016.63 400 L 2000 399.125 Z " fill="#60cc0e"/>
<path transform="matrix(.12,0,0,-.12,0,194)" d="M 1883.3 100 C 1883.3 90.793 1875.85 83.332 1866.63 83.332 C 1857.46 83.332 1849.96 90.793 1849.96 100 C 1849.96 109.207 1857.46 116.668 1866.63 116.668 C 1875.52 116.668 1882.82 109.734 1883.3 100.875 L 1866.63 100 Z " fill="#60cc0e"/>
<path transform="matrix(.12,0,0,-.12,0,194)" d="M 1766.63 233.332 C 1766.63 224.125 1759.18 216.668 1749.96 216.668 C 1740.79 216.668 1733.3 224.125 1733.3 233.332 C 1733.3 242.543 1740.79 250 1749.96 250 C 1758.85 250 1766.15 243.066 1766.63 234.207 L 1749.96 233.332 Z " fill="#60cc0e"/>
<path transform="matrix(.12,0,0,-.12,0,194)" d="M 1516.63 16.668 C 1516.63 7.45703 1509.18 0 1499.96 0 C 1490.79 0 1483.3 7.45703 1483.3 16.668 C 1483.3 25.875 1490.79 33.332 1499.96 33.332 C 1508.85 33.332 1516.15 26.3984 1516.63 17.543 L 1499.96 16.668 Z " fill="#60cc0e"/>
<path transform="matrix(.12,0,0,-.12,0,194)" d="M 1633.3 316.668 C 1633.3 307.457 1625.85 300 1616.63 300 C 1607.46 300 1599.96 307.457 1599.96 316.668 C 1599.96 325.875 1607.46 333.332 1616.63 333.332 C 1625.52 333.332 1632.82 326.398 1633.3 317.543 L 1616.63 316.668 Z " fill="#60cc0e"/>
<path transform="matrix(.12,0,0,-.12,0,194)" d="M 1266.63 233.332 C 1266.63 224.125 1259.18 216.668 1249.96 216.668 C 1240.79 216.668 1233.3 224.125 1233.3 233.332 C 1233.3 242.543 1240.79 250 1249.96 250 C 1258.85 250 1266.15 243.066 1266.63 234.207 L 1249.96 233.332 Z " fill="#60cc0e"/>
<path transform="matrix(.12,0,0,-.12,0,194)" d="M 1383.3 100 C 1383.3 90.793 1375.85 83.332 1366.63 83.332 C 1357.46 83.332 1349.96 90.793 1349.96 100 C 1349.96 109.207 1357.46 116.668 1366.63 116.668 C 1375.52 116.668 1382.82 109.734 1383.3 100.875 L 1366.63 100 Z " fill="#60cc0e"/>
<path transform="matrix(.12,0,0,-.12,0,194)" d="M 1383.3 316.668 C 1383.3 307.457 1375.85 300 1366.63 300 C 1357.46 300 1349.96 307.457 1349.96 316.668 C 1349.96 325.875 1357.46 333.332 1366.63 333.332 C 1375.52 333.332 1382.82 326.398 1383.3 317.543 L 1366.63 316.668 Z " fill="#60cc0e"/>
<path transform="matrix(.12,0,0,-.12,0,194)" d="M 1516.67 399.125 C 1516.67 389.91 1509.21 382.457 1500 382.457 C 1490.79 382.457 1483.33 389.91 1483.33 399.125 C 1483.33 408.332 1490.79 415.793 1500 415.793 C 1508.85 415.793 1516.18 408.852 1516.63 400 L 1500 399.125 Z " fill="#60cc0e"/>
<path transform="matrix(.12,0,0,-.12,0,194)" d="M 1516.63 233.332 C 1516.63 224.125 1509.18 216.668 1499.96 216.668 C 1490.79 216.668 1483.3 224.125 1483.3 233.332 C 1483.3 242.543 1490.79 250 1499.96 250 C 1508.85 250 1516.15 243.066 1516.63 234.207 L 1499.96 233.332 Z " fill="#60cc0e"/>
<path transform="matrix(.12,0,0,-.12,0,194)" d="M 1766.67 399.125 C 1766.67 389.91 1759.21 382.457 1750 382.457 C 1740.79 382.457 1733.33 389.91 1733.33 399.125 C 1733.33 408.332 1740.79 415.793 1750 415.793 C 1758.85 415.793 1766.18 408.852 1766.63 400 L 1750 399.125 Z " fill="#60cc0e"/>
<path transform="matrix(.12,0,0,-.12,0,194)" d="M 1766.63 183.332 C 1766.63 174.125 1759.18 166.668 1749.96 166.668 C 1740.79 166.668 1733.3 174.125 1733.3 183.332 C 1733.3 192.543 1740.79 200 1749.96 200 C 1758.85 200 1766.15 193.066 1766.63 184.207 L 1749.96 183.332 Z " fill="#60cc0e"/>
<path transform="matrix(.12,0,0,-.12,0,194)" d="M 1649.96 100 C 1649.96 90.793 1642.52 83.332 1633.3 83.332 C 1624.12 83.332 1616.63 90.793 1616.63 100 C 1616.63 109.207 1624.12 116.668 1633.3 116.668 C 1642.18 116.668 1649.48 109.734 1649.96 100.875 L 1633.3 100 Z " fill="#60cc0e"/>
</g>
</g>
</svg>
