<svg xmlns="http://www.w3.org/2000/svg" xmlns:xlink="http://www.w3.org/1999/xlink" version="1.1" width="628.85" height="179.654" viewBox="0 0 628.85 179.654">
<defs>
<path id="font_1_2" d="M.35499574 .27201844 .5309906 .54003909H.36299134L.27598573 .37701417 .18798828 .54003909H.019989014L.19599915 .27201844 .015991211 0H.18399048L.27598573 .16799927 .36698915 0H.5349884L.35499574 .27201844Z"/>
<path id="font_2_3" d="M.2749939 .7089844C.20899964 .7089844 .14898682 .6799774 .11199951 .63098147 .06599426 .5689392 .042999269 .4738617 .042999269 .34277345 .042999269 .10359192 .12298584-.0234375 .2749939-.0234375 .4249878-.0234375 .5069885 .10359192 .5069885 .33676148 .5069885 .47486878 .4850006 .5669403 .43798829 .63098147 .40098573 .68096926 .34199525 .7089844 .2749939 .7089844M.2749939 .63098147C.36999513 .63098147 .4169922 .5349121 .4169922 .34477235 .4169922 .14363098 .37098695 .049560548 .272995 .049560548 .17999268 .049560548 .1329956 .14762879 .1329956 .34176637 .1329956 .53590396 .17999268 .63098147 .2749939 .63098147Z"/>
<path id="font_2_2" d="M.19099427 .10398865H.08699036V0H.19099427V.10398865Z"/>
<path id="font_2_20" d="M.14099121 .7285156H.057998659V0H.14099121V.20385742L.22200012 .28381349 .39898683 0H.5019989L.28799439 .34277345 .46998597 .52363589H.36299134L.14099121 .30178834V.7285156Z"/>
<path id="font_2_22" d="M.069992069 .52441409V0H.1539917V.32925416C.1539917 .40504457 .20899964 .4660492 .2769928 .4660492 .33898927 .4660492 .37399293 .4280548 .37399293 .3610382V0H.45799256V.32904054C.45799256 .40504457 .5130005 .4660492 .58099368 .4660492 .6419983 .4660492 .6779938 .42704774 .6779938 .3610382V0H.7619934V.3930359C.7619934 .48706056 .70799258 .5390625 .6100006 .5390625 .5399933 .5390625 .49798585 .51805117 .44898988 .4590454 .41799928 .5150604 .37599183 .5390625 .30799867 .5390625 .23799134 .5390625 .19198609 .5130615 .14698792 .45005799V.52441409H.069992069Z"/>
<path id="font_2_4" d="M.25898744 .5049896V0H.34700013V.70899966H.2889862C.2579956 .59999087 .23799134 .58499148 .101989749 .56799319V.5049896H.25898744Z"/>
<path id="font_2_7" d="M.47599793 .7089844H.10998535L.056991579 .32273866H.13798523C.1789856 .3717804 .21299744 .38879396 .2679901 .38879396 .36299134 .38879396 .4229889 .32374574 .4229889 .2186737 .4229889 .11659241 .3639984 .05455017 .2679901 .05455017 .19099427 .05455017 .14399719 .09358215 .12298584 .17364502H.034988405C.04699707 .115600589 .056991579 .08758545 .07798767 .061553956 .117996219 .0075531008 .18998719-.0234375 .269989-.0234375 .41299439-.0234375 .5130005 .080566409 .5130005 .23068238 .5130005 .37077333 .41999818 .46679688 .28399659 .46679688 .23399353 .46679688 .19400025 .4537964 .15299988 .42378236L.18099976 .62197878H.47599793V.7089844Z"/>
<path id="font_1_1" d="M.3939972 .54003909 .28199769 .1468811 .16299439 .54003909H.008987427L.20999146-.02218628V-.0231781-.026184082C.20999146-.07720947 .17199707-.11621094 .12298584-.11621094 .11199951-.11621094 .10398865-.115219119 .085998538-.11021423V-.21522522C.10699463-.21821594 .11898804-.21922302 .13598633-.21922302 .17098999-.21922302 .21299744-.21221924 .23699951-.20222473 .27598573-.18621826 .29299928-.16322327 .31599427-.09921265L.5379944 .54003909H.3939972Z"/>
<path id="font_2_1" d="M.28399659 .31222535H.04598999V.24023438H.28399659V.31222535Z"/>
<path id="font_2_6" d="M.22099304 .3247528H.23199463L.2689972 .3257599C.3659973 .3257599 .41600038 .28172303 .41600038 .19665528 .41600038 .10758972 .36099244 .05455017 .2689972 .05455017 .17298889 .05455017 .12599182 .10258484 .11999512 .20567322H.03199768C.035995485 .1486206 .04598999 .11160278 .06298828 .079574588 .09899902 .011550903 .16899109-.0234375 .2659912-.0234375 .4119873-.0234375 .5059967 .063568118 .5059967 .19766236 .5059967 .28771974 .47099305 .33776856 .38598634 .36679078 .45199586 .392807 .4850006 .44284059 .4850006 .5138855 .4850006 .63597109 .4039917 .7089844 .2689972 .7089844 .12599182 .7089844 .049987794 .63098147 .04699707 .47987367H.1349945C.13598633 .52290347 .13999939 .5469208 .15098572 .56892397 .17098999 .60795596 .21499634 .63197329 .269989 .63197329 .34799195 .63197329 .394989 .5859375 .394989 .5108948 .394989 .46084596 .3769989 .4308319 .33799745 .41482545 .31399537 .40481568 .2829895 .4008026 .22099304 .3998108V.3247528Z"/>
<path id="font_2_27" d="M.43798829 .37794496C.43699647 .48104859 .36898805 .5390625 .24798584 .5390625 .12599182 .5390625 .04699707 .47605897 .04699707 .37895204 .04699707 .29685975 .08898926 .25779725 .21299744 .22776795L.29100038 .20874024C.34899903 .19473267 .37199403 .17370606 .37199403 .13565064 .37199403 .08659363 .32299806 .05355835 .25 .05355835 .20498657 .05355835 .16699219 .0665741 .1459961 .08859253 .1329956 .10362244 .1269989 .118637088 .12199402 .15568543H.033996583C.037994386 .034561159 .10598755-.0234375 .24299622-.0234375 .375-.0234375 .45899964 .041549684 .45899964 .14266968 .45899964 .22076416 .4149933 .2638092 .31098939 .28884889L.23098755 .30786134C.16299439 .32388307 .13398743 .34591676 .13398743 .3829651 .13398743 .431015 .1769867 .4620514 .24499512 .4620514 .31199647 .4620514 .34799195 .43301393 .34999085 .37794496H.43798829Z"/>
<path id="font_2_21" d="M.1519928 .7285156H.067993167V0H.1519928V.7285156Z"/>
<path id="font_2_11" d="M.5349884 .048553468C.526001 .046554567 .5219879 .046554567 .5169983 .046554567 .48799134 .046554567 .47200013 .061569215 .47200013 .08760071V.39598084C.47200013 .48905946 .4039917 .5390625 .2749939 .5390625 .19898987 .5390625 .13598633 .5170593 .100997928 .47805787 .07699585 .45103456 .066986087 .42100526 .06498718 .36894227H.14898682C.1559906 .43301393 .19400025 .4620514 .27198792 .4620514 .34700013 .4620514 .3889923 .434021 .3889923 .3839569V.36193849C.3889923 .32688905 .36799623 .3118744 .3019867 .30386354 .18399048 .28884889 .1659851 .28483583 .13398743 .27182008 .07299805 .24679566 .041992189 .19973755 .041992189 .13165283 .041992189 .03656006 .10798645-.0234375 .21398926-.0234375 .27999879-.0234375 .33299256-.00044250489 .3919983 .05355835 .397995 .0005493164 .42399598-.0234375 .47799684-.0234375 .49499513-.0234375 .5079956-.021438599 .5349884-.014450073V.048553468M.3889923 .16468811C.3889923 .13665772 .3809967 .119644168 .35598756 .09661865 .32199098 .06556702 .2809906 .049560548 .23199463 .049560548 .16699219 .049560548 .1289978 .080596927 .1289978 .13365174 .1289978 .1887207 .1659851 .2167511 .25498963 .22976685 .34298707 .24179077 .36099244 .24578858 .3889923 .25880433V.16468811Z"/>
<path id="font_2_12" d="M.053985597 .7285156V-.00044250489H.1289978V.0665741C.16899109 .005554199 .22200012-.0234375 .29499818-.0234375 .43299867-.0234375 .522995 .08959961 .522995 .2638092 .522995 .434021 .43699647 .5390625 .29899598 .5390625 .22698975 .5390625 .17599488 .51205447 .13699341 .4530487V.7285156H.053985597M.2829895 .46105958C.37599183 .46105958 .43598939 .3799591 .43598939 .25480653 .43598939 .13565064 .37399293 .05455017 .2829895 .05455017 .19499207 .05455017 .13699341 .13465882 .13699341 .25779725 .13699341 .38095094 .19499207 .46105958 .2829895 .46105958Z"/>
<path id="font_2_24" d="M.27198792 .5390625C.125 .5390625 .035995485 .434021 .035995485 .25779725 .035995485 .081588748 .12399292-.0234375 .272995-.0234375 .41999818-.0234375 .5099945 .081588748 .5099945 .25379945 .5099945 .43502809 .4229889 .5390625 .27198792 .5390625M.272995 .4620514C.36698915 .4620514 .4229889 .384964 .4229889 .25480653 .4229889 .13165283 .36499024 .05355835 .272995 .05355835 .17999268 .05355835 .12298584 .13064575 .12298584 .25779725 .12298584 .3839569 .17999268 .4620514 .272995 .4620514Z"/>
<path id="font_2_29" d="M.48199464-.00044250489V.52441409H.39898683V.22688294C.39898683 .11968994 .34298707 .049560548 .2559967 .049560548 .18998719 .049560548 .147995 .08963013 .147995 .15275574V.52441409H.06498718V.11968994C.06498718 .032562257 .12998963-.0234375 .23199463-.0234375 .30899049-.0234375 .35798646 .0035552979 .40699769 .07260132V-.00044250489H.48199464Z"/>
<path id="font_2_23" d="M.069992069 .52441409V0H.1539917V.2892151C.1539917 .39604188 .20999146 .4660492 .29599 .4660492 .3619995 .4660492 .4039917 .42604066 .4039917 .3630371V0H.4869995V.39604188C.4869995 .4830475 .42199708 .5390625 .32099916 .5390625 .24299622 .5390625 .19299317 .50904849 .14698792 .43605042V.52441409H.069992069Z"/>
<path id="font_2_14" d="M.49499513 .7285156H.4119873V.4580536C.3769989 .51104739 .32099916 .5390625 .25099183 .5390625 .114990238 .5390625 .025985718 .43000794 .025985718 .26280213 .025985718 .08558655 .11299133-.0234375 .2539978-.0234375 .32598878-.0234375 .37599183 .0035552979 .42099 .068573V-.00044250489H.49499513V.7285156M.2649994 .46105958C.35499574 .46105958 .4119873 .38095094 .4119873 .25579835 .4119873 .13465882 .35398866 .05455017 .2659912 .05455017 .17399597 .05455017 .11299133 .13565064 .11299133 .25779725 .11299133 .3799591 .17399597 .46105958 .2649994 .46105958Z"/>
<path id="font_2_26" d="M.068984989 .52441409V0H.15299988V.27220155C.15299988 .34727479 .17199707 .39631654 .21199036 .42533876 .23799134 .4443512 .2630005 .45036317 .32099916 .45135499V.5364075C.30699159 .5380554 .2999878 .5390625 .2889862 .5390625 .23498535 .5390625 .19400025 .50704959 .1459961 .42904664V.52441409H.068984989Z"/>
<path id="font_2_31" d="M.3880005 .52441409 .24299622 .11628723 .10899353 .52441409H.019989014L.19699097-.001739502 .16499329-.08476257C.1519928-.121780399 .1329956-.13578797 .09799194-.13578797 .085998538-.13578797 .07199097-.1337738 .053985597-.129776V-.20478821C.070999149-.21377564 .08799744-.21777344 .10998535-.21777344 .13699341-.21777344 .1659851-.20878601 .18798828-.19277954 .21398926-.17378235 .22898865-.15177918 .24499512-.10977173L.47799684 .52441409H.3880005Z"/>
<path id="font_2_30" d="M.2919922 .27120973 .46798707 .52441409H.37399293L.24798584 .33425904 .12199402 .52441409H.026992798L.20199585 .26719667 .016998291 0H.11199951L.24499512 .20114136 .37599183 0H.47299195L.2919922 .27120973Z"/>
<path id="font_2_15" d="M.5130005 .23374939C.5130005 .31376649 .5069885 .36186219 .49198915 .40093995 .45799256 .48706056 .37799073 .5390625 .27999879 .5390625 .13398743 .5390625 .039993287 .4269867 .039993287 .25474549 .039993287 .08258057 .1309967-.0234375 .27799989-.0234375 .397995-.0234375 .48098756 .044555665 .5019989 .15867615H.41799928C.394989 .08959961 .34799195 .05355835 .2809906 .05355835 .22799683 .05355835 .18299866 .07757568 .15499878 .12162781 .1349945 .1516571 .12799073 .18170166 .1269989 .23374939H.5130005M.1289978 .3017578C.13598633 .39894105 .19499207 .4620514 .2789917 .4620514 .36099244 .4620514 .42399598 .3939209 .42399598 .30775453 .42399598 .30575563 .42399598 .3037567 .4229889 .3017578H.1289978Z"/>
<path id="font_2_17" d="M.4119873 .52404788V.44804383C.36999513 .51005557 .31900025 .5390625 .2519989 .5390625 .11898804 .5390625 .0289917 .42300416 .0289917 .25279237 .0289917 .16668701 .051986696 .09660339 .09498596 .046554567 .13398743 .0025482178 .18998719-.0234375 .24499512-.0234375 .31098939-.0234375 .35699464 .004562378 .4039917 .0705719V.043548585C.4039917-.027450562 .394989-.07044983 .37399293-.09944153 .35198976-.13044739 .30899049-.1484375 .2579956-.1484375 .21998596-.1484375 .18598938-.138443 .16299439-.12043762 .14399719-.10543823 .13598633-.09144592 .1309967-.060440065H.04598999C.054992677-.15943909 .13198853-.21844483 .25498963-.21844483 .33299256-.21844483 .3999939-.19345093 .43399049-.15144348 .47399903-.10343933 .4889984-.03744507 .4889984 .08560181V.52404788H.4119873M.26098634 .4620514C.35099793 .4620514 .4039917 .3859558 .4039917 .25480653 .4039917 .12965393 .34999085 .05355835 .2619934 .05355835 .17098999 .05355835 .115997318 .13064575 .115997318 .25779725 .115997318 .3839569 .17199707 .4620514 .26098634 .4620514Z"/>
<path id="font_2_25" d="M.053985597-.21824646H.13798523V.05455017C.18199158 .0005493164 .23098755-.0234375 .29899598-.0234375 .43399049-.0234375 .522995 .08558655 .522995 .25279237 .522995 .4290161 .43699647 .5390625 .2979889 .5390625 .22698975 .5390625 .16999817 .50704959 .1309967 .44503785V.52404788H.053985597V-.21824646M.28399659 .46105958C.37599183 .46105958 .43598939 .3799591 .43598939 .25480653 .43598939 .13565064 .375 .05455017 .28399659 .05455017 .19599915 .05455017 .13798523 .13465882 .13798523 .25779725 .13798523 .38095094 .19599915 .46105958 .28399659 .46105958Z"/>
<path id="font_2_16" d="M.2579956 .52441409H.17098999V.6064148C.17098999 .64141848 .19099427 .65940859 .22898865 .65940859 .23599243 .65940859 .23899842 .65940859 .2579956 .65841677V.727417C.23899842 .7314148 .22799683 .7324219 .21099854 .7324219 .13398743 .7324219 .08799744 .6884155 .08799744 .6134186V.52441409H.017990113V.45640565H.08799744V0H.17098999V.45640565H.2579956V.52441409Z"/>
<path id="font_2_28" d="M.2539978 .52441409H.16799927V.66841128H.084991458V.52441409H.01399231V.45640565H.084991458V.059570314C.084991458 .0065612795 .12098694-.0234375 .18598938-.0234375 .20599365-.0234375 .22599793-.021438599 .2539978-.016448975V.05355835C.24299622 .05055237 .22999573 .049560548 .21398926 .049560548 .17799378 .049560548 .16799927 .059570314 .16799927 .09664917V.45640565H.2539978V.52441409Z"/>
<path id="font_2_5" d="M.5059967 .08699036H.1329956C.14199829 .14498902 .17399597 .18199158 .26098634 .23298645L.36099244 .2869873C.45999146 .34098817 .5109863 .4139862 .5109863 .50097659 .5109863 .5599823 .4869995 .614975 .44499208 .65296939 .40299989 .690979 .35099793 .7089844 .28399659 .7089844 .19400025 .7089844 .1269989 .67697146 .08799744 .6169739 .06298828 .5789795 .051986696 .53497317 .049987794 .46298219H.13798523C.14099121 .5109863 .14698792 .539978 .15899658 .562973 .18199158 .6059723 .22799683 .63197329 .2809906 .63197329 .36099244 .63197329 .42099 .5749817 .42099 .49897767 .42099 .4429779 .3880005 .394989 .32499696 .35897828L.23298645 .30699159C.084991458 .22299195 .041992189 .1559906 .033996583 0H.5059967V.08699036Z"/>
</defs>
<path transform="matrix(1,0,0,-1,102.065,132.31201)" d="M0 0V85.0508H425.25404V0Z" fill="#cceeff"/>
<path transform="matrix(1,0,0,-1,102.065,132.31201)" stroke-width=".99628" stroke-linecap="butt" stroke-miterlimit="10" stroke-linejoin="miter" fill="none" stroke="#1f6e96" d="M0 0V85.0508H425.25404V0Z"/>
<path transform="matrix(1,0,0,-1,102.065,132.31201)" stroke-width=".99628" stroke-linecap="butt" stroke-miterlimit="10" stroke-linejoin="miter" fill="none" stroke="#929292" d="M0-21.26268H438.0484"/>
<path transform="matrix(1,0,0,-1,540.1134,153.57469)" d="M6.17204 0C5.4141 .16904 2.08237 1.12698 0 2.16945V-2.16945C2.08237-1.12698 5.4141-.16904 6.17204 0Z" fill="#929292"/>
<path transform="matrix(1,0,0,-1,540.1134,153.57469)" stroke-width=".99628" stroke-linecap="butt" stroke-miterlimit="10" stroke-linejoin="miter" fill="none" stroke="#929292" d="M6.17204 0C5.4141 .16904 2.08237 1.12698 0 2.16945V-2.16945C2.08237-1.12698 5.4141-.16904 6.17204 0Z"/>
<use data-text="x" xlink:href="#font_1_2" transform="matrix(9.4645,0,0,-9.4645,551.93,156.09201)" fill="#929292"/>
<path transform="matrix(1,0,0,-1,102.065,132.31201)" stroke-width=".99628" stroke-linecap="butt" stroke-miterlimit="10" stroke-linejoin="miter" fill="none" stroke="#929292" d="M0-21.26268V-31.8908"/>
<use data-text="0" xlink:href="#font_2_3" transform="matrix(9.4645,0,0,-9.4645,88.39101,174.69301)" fill="#929292"/>
<use data-text="." xlink:href="#font_2_2" transform="matrix(9.4645,0,0,-9.4645,93.65327,174.69301)" fill="#929292"/>
<use data-text="0" xlink:href="#font_2_3" transform="matrix(9.4645,0,0,-9.4645,96.2844,174.69301)" fill="#929292"/>
<use data-text="k" xlink:href="#font_2_20" transform="matrix(9.4645,0,0,-9.4645,103.127239,174.69301)" fill="#929292"/>
<use data-text="m" xlink:href="#font_2_22" transform="matrix(9.4645,0,0,-9.4645,107.85949,174.69301)" fill="#929292"/>
<path transform="matrix(1,0,0,-1,102.065,132.31201)" stroke-width=".99628" stroke-linecap="butt" stroke-miterlimit="10" stroke-linejoin="miter" fill="none" stroke="#929292" d="M425.2281-21.26268V-31.8908"/>
<use data-text="1" xlink:href="#font_2_4" transform="matrix(9.4645,0,0,-9.4645,508.351,174.69301)" fill="#929292"/>
<use data-text="5" xlink:href="#font_2_7" transform="matrix(9.4645,0,0,-9.4645,513.6133,174.69301)" fill="#929292"/>
<use data-text="0" xlink:href="#font_2_3" transform="matrix(9.4645,0,0,-9.4645,518.87557,174.69301)" fill="#929292"/>
<use data-text="." xlink:href="#font_2_2" transform="matrix(9.4645,0,0,-9.4645,524.1378,174.69301)" fill="#929292"/>
<use data-text="0" xlink:href="#font_2_3" transform="matrix(9.4645,0,0,-9.4645,526.7689,174.69301)" fill="#929292"/>
<use data-text="k" xlink:href="#font_2_20" transform="matrix(9.4645,0,0,-9.4645,533.61178,174.69301)" fill="#929292"/>
<use data-text="m" xlink:href="#font_2_22" transform="matrix(9.4645,0,0,-9.4645,538.344,174.69301)" fill="#929292"/>
<path transform="matrix(1,0,0,-1,102.065,132.31201)" stroke-width=".99628" stroke-linecap="butt" stroke-miterlimit="10" stroke-linejoin="miter" fill="none" stroke="#929292" d="M-21.26268 0V97.84514"/>
<path transform="matrix(0,-1,-1,-0,80.80232,34.466875)" d="M6.17204 0C5.4141 .16904 2.08237 1.12698 0 2.16945V-2.16945C2.08237-1.12698 5.4141-.16904 6.17204 0Z" fill="#929292"/>
<path transform="matrix(0,-1,-1,-0,80.80232,34.466875)" stroke-width=".99628" stroke-linecap="butt" stroke-miterlimit="10" stroke-linejoin="miter" fill="none" stroke="#929292" d="M6.17204 0C5.4141 .16904 2.08237 1.12698 0 2.16945V-2.16945C2.08237-1.12698 5.4141-.16904 6.17204 0Z"/>
<use data-text="y" xlink:href="#font_1_1" transform="matrix(9.4645,0,0,-9.4645,78.172008,20.654023)" fill="#929292"/>
<path transform="matrix(1,0,0,-1,102.065,132.31201)" stroke-width=".99628" stroke-linecap="butt" stroke-miterlimit="10" stroke-linejoin="miter" fill="none" stroke="#929292" d="M-21.26268 0H-31.8908"/>
<use data-text="-" xlink:href="#font_2_1" transform="matrix(9.4645,0,0,-9.4645,30.760003,135.65302)" fill="#929292"/>
<use data-text="3" xlink:href="#font_2_6" transform="matrix(9.4645,0,0,-9.4645,33.911684,135.65302)" fill="#929292"/>
<use data-text="0" xlink:href="#font_2_3" transform="matrix(9.4645,0,0,-9.4645,39.173944,135.65302)" fill="#929292"/>
<use data-text="." xlink:href="#font_2_2" transform="matrix(9.4645,0,0,-9.4645,44.43621,135.65302)" fill="#929292"/>
<use data-text="0" xlink:href="#font_2_3" transform="matrix(9.4645,0,0,-9.4645,47.067338,135.65302)" fill="#929292"/>
<use data-text="k" xlink:href="#font_2_20" transform="matrix(9.4645,0,0,-9.4645,53.91017,135.65302)" fill="#929292"/>
<use data-text="m" xlink:href="#font_2_22" transform="matrix(9.4645,0,0,-9.4645,58.642427,135.65302)" fill="#929292"/>
<path transform="matrix(1,0,0,-1,102.065,132.31201)" stroke-width=".99628" stroke-linecap="butt" stroke-miterlimit="10" stroke-linejoin="miter" fill="none" stroke="#929292" d="M-21.26268 85.04561H-31.8908"/>
<use data-text="0" xlink:href="#font_2_3" transform="matrix(9.4645,0,0,-9.4645,39.173006,50.608018)" fill="#929292"/>
<use data-text="." xlink:href="#font_2_2" transform="matrix(9.4645,0,0,-9.4645,44.43527,50.608018)" fill="#929292"/>
<use data-text="0" xlink:href="#font_2_3" transform="matrix(9.4645,0,0,-9.4645,47.0664,50.608018)" fill="#929292"/>
<use data-text="k" xlink:href="#font_2_20" transform="matrix(9.4645,0,0,-9.4645,53.909235,50.608018)" fill="#929292"/>
<use data-text="m" xlink:href="#font_2_22" transform="matrix(9.4645,0,0,-9.4645,58.641485,50.608018)" fill="#929292"/>
<use data-text="s" xlink:href="#font_2_27" transform="matrix(9.4645,0,0,-9.4645,135.91101,114.39202)" fill="#6100ad"/>
<use data-text="l" xlink:href="#font_2_21" transform="matrix(9.4645,0,0,-9.4645,140.64327,114.39202)" fill="#6100ad"/>
<use data-text="a" xlink:href="#font_2_11" transform="matrix(9.4645,0,0,-9.4645,142.74439,114.39202)" fill="#6100ad"/>
<use data-text="b" xlink:href="#font_2_12" transform="matrix(9.4645,0,0,-9.4645,148.00666,114.39202)" fill="#6100ad"/>
<use data-text="b" xlink:href="#font_2_12" transform="matrix(9.4645,0,0,-9.4645,3.1539994,92.15602)" fill="#6100ad"/>
<use data-text="o" xlink:href="#font_2_24" transform="matrix(9.4645,0,0,-9.4645,8.416262,92.15602)" fill="#6100ad"/>
<use data-text="u" xlink:href="#font_2_29" transform="matrix(9.4645,0,0,-9.4645,13.678525,92.15602)" fill="#6100ad"/>
<use data-text="n" xlink:href="#font_2_23" transform="matrix(9.4645,0,0,-9.4645,18.940789,92.15602)" fill="#6100ad"/>
<use data-text="d" xlink:href="#font_2_14" transform="matrix(9.4645,0,0,-9.4645,24.20305,92.15602)" fill="#6100ad"/>
<use data-text="a" xlink:href="#font_2_11" transform="matrix(9.4645,0,0,-9.4645,29.465313,92.15602)" fill="#6100ad"/>
<use data-text="r" xlink:href="#font_2_26" transform="matrix(9.4645,0,0,-9.4645,34.727579,92.15602)" fill="#6100ad"/>
<use data-text="y" xlink:href="#font_2_31" transform="matrix(9.4645,0,0,-9.4645,38.163194,92.15602)" fill="#6100ad"/>
<path transform="matrix(1,0,0,-1,43.463,91.956027)" stroke-width=".398" stroke-linecap="butt" stroke-miterlimit="10" stroke-linejoin="miter" fill="none" stroke="#6100ad" d="M0 0H2.839"/>
<use data-text="x" xlink:href="#font_2_30" transform="matrix(9.4645,0,0,-9.4645,46.302,92.15602)" fill="#6100ad"/>
<use data-text="n" xlink:href="#font_2_23" transform="matrix(9.4645,0,0,-9.4645,51.03425,92.15602)" fill="#6100ad"/>
<use data-text="e" xlink:href="#font_2_15" transform="matrix(9.4645,0,0,-9.4645,56.296514,92.15602)" fill="#6100ad"/>
<use data-text="g" xlink:href="#font_2_17" transform="matrix(9.4645,0,0,-9.4645,61.558778,92.15602)" fill="#6100ad"/>
<path transform="matrix(1,0,0,-1,102.065,132.31201)" stroke-width="1.99255" stroke-linecap="butt" stroke-miterlimit="10" stroke-linejoin="miter" fill="none" stroke="#6100ad" d="M-31.89275 48.73094C-6.90982 53.13544-24.9829 38.11775-7.9472 41.12163"/>
<path transform="matrix(.9848,-.17363,-.17363,-.9848,94.11778,91.1904)" d="M3.93657 0C3.45314 .11797 1.32814 .78648 0 1.51398V-1.51398C1.32814-.78648 3.45314-.11797 3.93657 0Z" fill="#6100ad"/>
<path transform="matrix(.9848,-.17363,-.17363,-.9848,94.11778,91.1904)" stroke-width="1.79326" stroke-linecap="butt" stroke-miterlimit="10" stroke-linejoin="miter" fill="none" stroke="#6100ad" d="M3.93657 0C3.45314 .11797 1.32814 .78648 0 1.51398V-1.51398C1.32814-.78648 3.45314-.11797 3.93657 0Z"/>
<use data-text="b" xlink:href="#font_2_12" transform="matrix(9.4645,0,0,-9.4645,282.84303,174.39402)" fill="#6100ad"/>
<use data-text="o" xlink:href="#font_2_24" transform="matrix(9.4645,0,0,-9.4645,288.1053,174.39402)" fill="#6100ad"/>
<use data-text="u" xlink:href="#font_2_29" transform="matrix(9.4645,0,0,-9.4645,293.36756,174.39402)" fill="#6100ad"/>
<use data-text="n" xlink:href="#font_2_23" transform="matrix(9.4645,0,0,-9.4645,298.62983,174.39402)" fill="#6100ad"/>
<use data-text="d" xlink:href="#font_2_14" transform="matrix(9.4645,0,0,-9.4645,303.8921,174.39402)" fill="#6100ad"/>
<use data-text="a" xlink:href="#font_2_11" transform="matrix(9.4645,0,0,-9.4645,309.15437,174.39402)" fill="#6100ad"/>
<use data-text="r" xlink:href="#font_2_26" transform="matrix(9.4645,0,0,-9.4645,314.41664,174.39402)" fill="#6100ad"/>
<use data-text="y" xlink:href="#font_2_31" transform="matrix(9.4645,0,0,-9.4645,317.85224,174.39402)" fill="#6100ad"/>
<path transform="matrix(1,0,0,-1,323.15205,174.195)" stroke-width=".398" stroke-linecap="butt" stroke-miterlimit="10" stroke-linejoin="miter" fill="none" stroke="#6100ad" d="M0 0H2.839"/>
<use data-text="y" xlink:href="#font_2_31" transform="matrix(9.4645,0,0,-9.4645,325.99104,174.39402)" fill="#6100ad"/>
<use data-text="n" xlink:href="#font_2_23" transform="matrix(9.4645,0,0,-9.4645,330.72328,174.39402)" fill="#6100ad"/>
<use data-text="e" xlink:href="#font_2_15" transform="matrix(9.4645,0,0,-9.4645,335.98554,174.39402)" fill="#6100ad"/>
<use data-text="g" xlink:href="#font_2_17" transform="matrix(9.4645,0,0,-9.4645,341.2478,174.39402)" fill="#6100ad"/>
<path transform="matrix(1,0,0,-1,102.065,132.31201)" stroke-width="1.99255" stroke-linecap="butt" stroke-miterlimit="10" stroke-linejoin="miter" fill="none" stroke="#6100ad" d="M211.25026-31.89275C206.91083-7.3002 216.95024-24.59251 214.01522-7.9472"/>
<path transform="matrix(-.17363,-.9848,-.9848,.17363,316.08024,140.25923)" d="M3.93657 0C3.45314 .11797 1.32814 .78648 0 1.51398V-1.51398C1.32814-.78648 3.45314-.11797 3.93657 0Z" fill="#6100ad"/>
<path transform="matrix(-.17363,-.9848,-.9848,.17363,316.08024,140.25923)" stroke-width="1.79326" stroke-linecap="butt" stroke-miterlimit="10" stroke-linejoin="miter" fill="none" stroke="#6100ad" d="M3.93657 0C3.45314 .11797 1.32814 .78648 0 1.51398V-1.51398C1.32814-.78648 3.45314-.11797 3.93657 0Z"/>
<use data-text="b" xlink:href="#font_2_12" transform="matrix(9.4645,0,0,-9.4645,562.558,92.19101)" fill="#6100ad"/>
<use data-text="o" xlink:href="#font_2_24" transform="matrix(9.4645,0,0,-9.4645,567.82028,92.19101)" fill="#6100ad"/>
<use data-text="u" xlink:href="#font_2_29" transform="matrix(9.4645,0,0,-9.4645,573.0825,92.19101)" fill="#6100ad"/>
<use data-text="n" xlink:href="#font_2_23" transform="matrix(9.4645,0,0,-9.4645,578.3448,92.19101)" fill="#6100ad"/>
<use data-text="d" xlink:href="#font_2_14" transform="matrix(9.4645,0,0,-9.4645,583.60708,92.19101)" fill="#6100ad"/>
<use data-text="a" xlink:href="#font_2_11" transform="matrix(9.4645,0,0,-9.4645,588.8693,92.19101)" fill="#6100ad"/>
<use data-text="r" xlink:href="#font_2_26" transform="matrix(9.4645,0,0,-9.4645,594.1316,92.19101)" fill="#6100ad"/>
<use data-text="y" xlink:href="#font_2_31" transform="matrix(9.4645,0,0,-9.4645,597.5672,92.19101)" fill="#6100ad"/>
<path transform="matrix(1,0,0,-1,602.867,91.991008)" stroke-width=".398" stroke-linecap="butt" stroke-miterlimit="10" stroke-linejoin="miter" fill="none" stroke="#6100ad" d="M0 0H2.839"/>
<use data-text="x" xlink:href="#font_2_30" transform="matrix(9.4645,0,0,-9.4645,605.706,92.19101)" fill="#6100ad"/>
<use data-text="p" xlink:href="#font_2_25" transform="matrix(9.4645,0,0,-9.4645,610.43826,92.19101)" fill="#6100ad"/>
<use data-text="o" xlink:href="#font_2_24" transform="matrix(9.4645,0,0,-9.4645,615.7005,92.19101)" fill="#6100ad"/>
<use data-text="s" xlink:href="#font_2_27" transform="matrix(9.4645,0,0,-9.4645,620.96279,92.19101)" fill="#6100ad"/>
<path transform="matrix(1,0,0,-1,102.065,132.31201)" stroke-width="1.99255" stroke-linecap="butt" stroke-miterlimit="10" stroke-linejoin="miter" fill="none" stroke="#6100ad" d="M457.17274 36.37122C432.1695 31.96365 450.25727 46.9366 433.20127 43.92915"/>
<path transform="matrix(-.9848,.17363,.17363,.9848,535.26626,88.38284)" d="M3.93657 0C3.45314 .11797 1.32814 .78648 0 1.51398V-1.51398C1.32814-.78648 3.45314-.11797 3.93657 0Z" fill="#6100ad"/>
<path transform="matrix(-.9848,.17363,.17363,.9848,535.26626,88.38284)" stroke-width="1.79326" stroke-linecap="butt" stroke-miterlimit="10" stroke-linejoin="miter" fill="none" stroke="#6100ad" d="M3.93657 0C3.45314 .11797 1.32814 .78648 0 1.51398V-1.51398C1.32814-.78648 3.45314-.11797 3.93657 0Z"/>
<use data-text="b" xlink:href="#font_2_12" transform="matrix(9.4645,0,0,-9.4645,283.134,9.993011)" fill="#6100ad"/>
<use data-text="o" xlink:href="#font_2_24" transform="matrix(9.4645,0,0,-9.4645,288.39628,9.993011)" fill="#6100ad"/>
<use data-text="u" xlink:href="#font_2_29" transform="matrix(9.4645,0,0,-9.4645,293.65855,9.993011)" fill="#6100ad"/>
<use data-text="n" xlink:href="#font_2_23" transform="matrix(9.4645,0,0,-9.4645,298.9208,9.993011)" fill="#6100ad"/>
<use data-text="d" xlink:href="#font_2_14" transform="matrix(9.4645,0,0,-9.4645,304.18309,9.993011)" fill="#6100ad"/>
<use data-text="a" xlink:href="#font_2_11" transform="matrix(9.4645,0,0,-9.4645,309.44535,9.993011)" fill="#6100ad"/>
<use data-text="r" xlink:href="#font_2_26" transform="matrix(9.4645,0,0,-9.4645,314.7076,9.993011)" fill="#6100ad"/>
<use data-text="y" xlink:href="#font_2_31" transform="matrix(9.4645,0,0,-9.4645,318.14323,9.993011)" fill="#6100ad"/>
<path transform="matrix(1,0,0,-1,323.443,9.793015)" stroke-width=".398" stroke-linecap="butt" stroke-miterlimit="10" stroke-linejoin="miter" fill="none" stroke="#6100ad" d="M0 0H2.839"/>
<use data-text="y" xlink:href="#font_2_31" transform="matrix(9.4645,0,0,-9.4645,326.282,9.993011)" fill="#6100ad"/>
<use data-text="p" xlink:href="#font_2_25" transform="matrix(9.4645,0,0,-9.4645,331.01426,9.993011)" fill="#6100ad"/>
<use data-text="o" xlink:href="#font_2_24" transform="matrix(9.4645,0,0,-9.4645,336.27653,9.993011)" fill="#6100ad"/>
<use data-text="s" xlink:href="#font_2_27" transform="matrix(9.4645,0,0,-9.4645,341.5388,9.993011)" fill="#6100ad"/>
<path transform="matrix(1,0,0,-1,102.065,132.31201)" stroke-width="1.99255" stroke-linecap="butt" stroke-miterlimit="10" stroke-linejoin="miter" fill="none" stroke="#6100ad" d="M214.0287 116.94872C218.36278 92.35219 208.30309 109.64732 211.23883 92.998"/>
<path transform="matrix(.17363,.9848,.9848,-.17363,313.30384,39.313997)" d="M3.93657 0C3.45314 .11797 1.32814 .78648 0 1.51398V-1.51398C1.32814-.78648 3.45314-.11797 3.93657 0Z" fill="#6100ad"/>
<path transform="matrix(.17363,.9848,.9848,-.17363,313.30384,39.313997)" stroke-width="1.79326" stroke-linecap="butt" stroke-miterlimit="10" stroke-linejoin="miter" fill="none" stroke="#6100ad" d="M3.93657 0C3.45314 .11797 1.32814 .78648 0 1.51398V-1.51398C1.32814-.78648 3.45314-.11797 3.93657 0Z"/>
<path transform="matrix(1,0,0,-1,102.065,132.31201)" stroke-width="1.99255" stroke-linecap="butt" stroke-miterlimit="10" stroke-linejoin="miter" fill="none" stroke="#6100ad" d="M280.6692 85.0508 301.9332 42.52539"/>
<path transform="matrix(1,0,0,-1,102.065,132.31201)" stroke-width="1.99255" stroke-linecap="butt" stroke-miterlimit="10" stroke-linejoin="miter" fill="none" stroke="#6100ad" d="M310.43363 85.0508 331.69764 42.52539"/>
<path transform="matrix(1,0,0,-1,102.065,132.31201)" stroke-width="1.99255" stroke-linecap="butt" stroke-miterlimit="10" stroke-linejoin="miter" fill="none" stroke="#6100ad" d="M340.2045 85.0508 361.46855 42.52539"/>
<use data-text="f" xlink:href="#font_2_16" transform="matrix(4.73225,8.196541,8.196541,-4.73225,379.16603,61.56401)" fill="#6100ad"/>
<use data-text="a" xlink:href="#font_2_11" transform="matrix(4.73225,8.196541,8.196541,-4.73225,380.3396,63.596757)" fill="#6100ad"/>
<use data-text="u" xlink:href="#font_2_29" transform="matrix(4.73225,8.196541,8.196541,-4.73225,382.97074,68.15404)" fill="#6100ad"/>
<use data-text="l" xlink:href="#font_2_21" transform="matrix(4.73225,8.196541,8.196541,-4.73225,385.60188,72.71132)" fill="#6100ad"/>
<use data-text="t" xlink:href="#font_2_28" transform="matrix(4.73225,8.196541,8.196541,-4.73225,386.65245,74.53096)" fill="#6100ad"/>
<path transform="matrix(.5,.86603,.86603,-.5,388.42475,77.20067)" stroke-width=".398" stroke-linecap="butt" stroke-miterlimit="10" stroke-linejoin="miter" fill="none" stroke="#6100ad" d="M0 0H2.839"/>
<use data-text="0" xlink:href="#font_2_3" transform="matrix(4.73225,8.196541,8.196541,-4.73225,389.67103,79.75932)" fill="#6100ad"/>
<use data-text="f" xlink:href="#font_2_16" transform="matrix(4.73225,8.196541,8.196541,-4.73225,408.93,61.56401)" fill="#6100ad"/>
<use data-text="a" xlink:href="#font_2_11" transform="matrix(4.73225,8.196541,8.196541,-4.73225,410.1036,63.596757)" fill="#6100ad"/>
<use data-text="u" xlink:href="#font_2_29" transform="matrix(4.73225,8.196541,8.196541,-4.73225,412.73475,68.15404)" fill="#6100ad"/>
<use data-text="l" xlink:href="#font_2_21" transform="matrix(4.73225,8.196541,8.196541,-4.73225,415.36589,72.71132)" fill="#6100ad"/>
<use data-text="t" xlink:href="#font_2_28" transform="matrix(4.73225,8.196541,8.196541,-4.73225,416.4164,74.53093)" fill="#6100ad"/>
<path transform="matrix(.5,.86603,.86603,-.5,418.18873,77.20064)" stroke-width=".398" stroke-linecap="butt" stroke-miterlimit="10" stroke-linejoin="miter" fill="none" stroke="#6100ad" d="M0 0H2.839"/>
<use data-text="1" xlink:href="#font_2_4" transform="matrix(4.73225,8.196541,8.196541,-4.73225,419.435,79.75929)" fill="#6100ad"/>
<use data-text="f" xlink:href="#font_2_16" transform="matrix(4.73225,8.196541,8.196541,-4.73225,438.7,61.563997)" fill="#6100ad"/>
<use data-text="a" xlink:href="#font_2_11" transform="matrix(4.73225,8.196541,8.196541,-4.73225,439.87364,63.59674)" fill="#6100ad"/>
<use data-text="u" xlink:href="#font_2_29" transform="matrix(4.73225,8.196541,8.196541,-4.73225,442.50477,68.15402)" fill="#6100ad"/>
<use data-text="l" xlink:href="#font_2_21" transform="matrix(4.73225,8.196541,8.196541,-4.73225,445.1359,72.7113)" fill="#6100ad"/>
<use data-text="t" xlink:href="#font_2_28" transform="matrix(4.73225,8.196541,8.196541,-4.73225,446.18644,74.530948)" fill="#6100ad"/>
<path transform="matrix(.5,.86603,.86603,-.5,447.95924,77.20151)" stroke-width=".398" stroke-linecap="butt" stroke-miterlimit="10" stroke-linejoin="miter" fill="none" stroke="#6100ad" d="M0 0H2.839"/>
<use data-text="2" xlink:href="#font_2_5" transform="matrix(4.73225,8.196541,8.196541,-4.73225,449.2055,79.76016)" fill="#6100ad"/>
</svg>
