<svg xmlns="http://www.w3.org/2000/svg" xmlns:xlink="http://www.w3.org/1999/xlink" version="1.1" width="532.742" height="165.539" viewBox="0 0 532.742 165.539">
<defs>
<path id="font_1_25" d="M.053985597-.21824646H.13798523V.05455017C.18199158 .0005493164 .23098755-.0234375 .29899598-.0234375 .43399049-.0234375 .522995 .08558655 .522995 .25279237 .522995 .4290161 .43699647 .5390625 .2979889 .5390625 .22698975 .5390625 .16999817 .50704959 .1309967 .44503785V.52404788H.053985597V-.21824646M.28399659 .46105958C.37599183 .46105958 .43598939 .3799591 .43598939 .25480653 .43598939 .13565064 .375 .05455017 .28399659 .05455017 .19599915 .05455017 .13798523 .13465882 .13798523 .25779725 .13798523 .38095094 .19599915 .46105958 .28399659 .46105958Z"/>
<path id="font_1_8" d="M.17298889 .7285156H.07998657V0H.5329895V.08198547H.17298889V.7285156Z"/>
<path id="font_1_10" d="M.5519867 .7285156V.21653748C.5519867 .11854553 .48098756 .058547975 .3639984 .058547975 .30999757 .058547975 .2659912 .07154846 .23098755 .09655762 .19499207 .124557498 .17799378 .1615448 .17799378 .21653748V.7285156H.084991458V.21653748C.084991458 .06855774 .19099427-.0234375 .3639984-.0234375 .5349884-.0234375 .644989 .07055664 .644989 .21653748V.7285156H.5519867Z"/>
<path id="font_1_9" d="M.18598938 .31350709H.42599488C.5089874 .31350709 .54599 .27355958 .54599 .18371582L.54499819 .11882019C.54499819 .073898319 .5529938 .029968262 .56599429 0H.67900088V.022994996C.6439972 .046951295 .6369934 .072906497 .6349945 .16973877 .6339874 .28953553 .61499026 .3255005 .5359955 .35949708 .6179962 .39950563 .651001 .4505005 .651001 .5335083 .651001 .6595154 .57199099 .7285156 .42900086 .7285156H.09298706V0H.18598938V.31350709M.18598938 .3955078V.6465149H.41099549C.46299745 .6465149 .49299623 .638504 .5159912 .61849978 .54100039 .59750369 .55400088 .5644989 .55400088 .5205078 .55400088 .43449403 .5099945 .3955078 .41099549 .3955078H.18598938Z"/>
<path id="font_1_16" d="M.2579956 .52441409H.17098999V.6064148C.17098999 .64141848 .19099427 .65940859 .22898865 .65940859 .23599243 .65940859 .23899842 .65940859 .2579956 .65841677V.727417C.23899842 .7314148 .22799683 .7324219 .21099854 .7324219 .13398743 .7324219 .08799744 .6884155 .08799744 .6134186V.52441409H.017990113V.45640565H.08799744V0H.17098999V.45640565H.2579956V.52441409Z"/>
<path id="font_1_3" d="M.2749939 .7089844C.20899964 .7089844 .14898682 .6799774 .11199951 .63098147 .06599426 .5689392 .042999269 .4738617 .042999269 .34277345 .042999269 .10359192 .12298584-.0234375 .2749939-.0234375 .4249878-.0234375 .5069885 .10359192 .5069885 .33676148 .5069885 .47486878 .4850006 .5669403 .43798829 .63098147 .40098573 .68096926 .34199525 .7089844 .2749939 .7089844M.2749939 .63098147C.36999513 .63098147 .4169922 .5349121 .4169922 .34477235 .4169922 .14363098 .37098695 .049560548 .272995 .049560548 .17999268 .049560548 .1329956 .14762879 .1329956 .34176637 .1329956 .53590396 .17999268 .63098147 .2749939 .63098147Z"/>
<path id="font_1_28" d="M.2539978 .52441409H.16799927V.66841128H.084991458V.52441409H.01399231V.45640565H.084991458V.059570314C.084991458 .0065612795 .12098694-.0234375 .18598938-.0234375 .20599365-.0234375 .22599793-.021438599 .2539978-.016448975V.05355835C.24299622 .05055237 .22999573 .049560548 .21398926 .049560548 .17799378 .049560548 .16799927 .059570314 .16799927 .09664917V.45640565H.2539978V.52441409Z"/>
<path id="font_1_24" d="M.27198792 .5390625C.125 .5390625 .035995485 .434021 .035995485 .25779725 .035995485 .081588748 .12399292-.0234375 .272995-.0234375 .41999818-.0234375 .5099945 .081588748 .5099945 .25379945 .5099945 .43502809 .4229889 .5390625 .27198792 .5390625M.272995 .4620514C.36698915 .4620514 .4229889 .384964 .4229889 .25480653 .4229889 .13165283 .36499024 .05355835 .272995 .05355835 .17999268 .05355835 .12298584 .13064575 .12298584 .25779725 .12298584 .3839569 .17999268 .4620514 .272995 .4620514Z"/>
<path id="font_1_12" d="M.053985597 .7285156V-.00044250489H.1289978V.0665741C.16899109 .005554199 .22200012-.0234375 .29499818-.0234375 .43299867-.0234375 .522995 .08959961 .522995 .2638092 .522995 .434021 .43699647 .5390625 .29899598 .5390625 .22698975 .5390625 .17599488 .51205447 .13699341 .4530487V.7285156H.053985597M.2829895 .46105958C.37599183 .46105958 .43598939 .3799591 .43598939 .25480653 .43598939 .13565064 .37399293 .05455017 .2829895 .05455017 .19499207 .05455017 .13699341 .13465882 .13699341 .25779725 .13699341 .38095094 .19499207 .46105958 .2829895 .46105958Z"/>
<path id="font_1_4" d="M.25898744 .5049896V0H.34700013V.70899966H.2889862C.2579956 .59999087 .23799134 .58499148 .101989749 .56799319V.5049896H.25898744Z"/>
<path id="font_1_5" d="M.5059967 .08699036H.1329956C.14199829 .14498902 .17399597 .18199158 .26098634 .23298645L.36099244 .2869873C.45999146 .34098817 .5109863 .4139862 .5109863 .50097659 .5109863 .5599823 .4869995 .614975 .44499208 .65296939 .40299989 .690979 .35099793 .7089844 .28399659 .7089844 .19400025 .7089844 .1269989 .67697146 .08799744 .6169739 .06298828 .5789795 .051986696 .53497317 .049987794 .46298219H.13798523C.14099121 .5109863 .14698792 .539978 .15899658 .562973 .18199158 .6059723 .22799683 .63197329 .2809906 .63197329 .36099244 .63197329 .42099 .5749817 .42099 .49897767 .42099 .4429779 .3880005 .394989 .32499696 .35897828L.23298645 .30699159C.084991458 .22299195 .041992189 .1559906 .033996583 0H.5059967V.08699036Z"/>
<path id="font_1_13" d="M.47099305 .34791566C.46699525 .39897157 .45599366 .4320221 .43598939 .46105958 .3999939 .51005557 .33699037 .5390625 .2639923 .5390625 .12298584 .5390625 .0309906 .4270172 .0309906 .25279237 .0309906 .08358765 .12098694-.0234375 .2630005-.0234375 .3880005-.0234375 .46699525 .05155945 .47698976 .17970276H.3929901C.3789978 .09561157 .33599855 .05355835 .2649994 .05355835 .17298889 .05355835 .117996219 .12864685 .117996219 .25279237 .117996219 .3839569 .17199707 .4620514 .2630005 .4620514 .33299256 .4620514 .3769989 .42100526 .3869934 .34791566H.47099305Z"/>
<path id="font_1_22" d="M.069992069 .52441409V0H.1539917V.32925416C.1539917 .40504457 .20899964 .4660492 .2769928 .4660492 .33898927 .4660492 .37399293 .4280548 .37399293 .3610382V0H.45799256V.32904054C.45799256 .40504457 .5130005 .4660492 .58099368 .4660492 .6419983 .4660492 .6779938 .42704774 .6779938 .3610382V0H.7619934V.3930359C.7619934 .48706056 .70799258 .5390625 .6100006 .5390625 .5399933 .5390625 .49798585 .51805117 .44898988 .4590454 .41799928 .5150604 .37599183 .5390625 .30799867 .5390625 .23799134 .5390625 .19198609 .5130615 .14698792 .45005799V.52441409H.069992069Z"/>
<path id="font_1_26" d="M.068984989 .52441409V0H.15299988V.27220155C.15299988 .34727479 .17199707 .39631654 .21199036 .42533876 .23799134 .4443512 .2630005 .45036317 .32099916 .45135499V.5364075C.30699159 .5380554 .2999878 .5390625 .2889862 .5390625 .23498535 .5390625 .19400025 .50704959 .1459961 .42904664V.52441409H.068984989Z"/>
<path id="font_1_19" d="M.1499939 .5235901H.066986087V0H.1499939V.5235901M.1499939 .7285156H.06599426V.62350466H.1499939V.7285156Z"/>
<path id="font_1_17" d="M.4119873 .52404788V.44804383C.36999513 .51005557 .31900025 .5390625 .2519989 .5390625 .11898804 .5390625 .0289917 .42300416 .0289917 .25279237 .0289917 .16668701 .051986696 .09660339 .09498596 .046554567 .13398743 .0025482178 .18998719-.0234375 .24499512-.0234375 .31098939-.0234375 .35699464 .004562378 .4039917 .0705719V.043548585C.4039917-.027450562 .394989-.07044983 .37399293-.09944153 .35198976-.13044739 .30899049-.1484375 .2579956-.1484375 .21998596-.1484375 .18598938-.138443 .16299439-.12043762 .14399719-.10543823 .13598633-.09144592 .1309967-.060440065H.04598999C.054992677-.15943909 .13198853-.21844483 .25498963-.21844483 .33299256-.21844483 .3999939-.19345093 .43399049-.15144348 .47399903-.10343933 .4889984-.03744507 .4889984 .08560181V.52404788H.4119873M.26098634 .4620514C.35099793 .4620514 .4039917 .3859558 .4039917 .25480653 .4039917 .12965393 .34999085 .05355835 .2619934 .05355835 .17098999 .05355835 .115997318 .13064575 .115997318 .25779725 .115997318 .3839569 .17199707 .4620514 .26098634 .4620514Z"/>
<path id="font_1_18" d="M.069992069 .7285156V0H.15299988V.28903199C.15299988 .39604188 .20899964 .4660492 .29499818 .4660492 .32199098 .4660492 .34899903 .4570465 .36898805 .44204713 .3929901 .42504884 .40299989 .40003968 .40299989 .3630371V0H.48599244V.39604188C.48599244 .48405458 .4229889 .5390625 .32099916 .5390625 .24699402 .5390625 .20199585 .51605227 .15299988 .45205689V.7285156H.069992069Z"/>
<path id="font_1_21" d="M.1519928 .7285156H.067993167V0H.1519928V.7285156Z"/>
<path id="font_1_15" d="M.5130005 .23374939C.5130005 .31376649 .5069885 .36186219 .49198915 .40093995 .45799256 .48706056 .37799073 .5390625 .27999879 .5390625 .13398743 .5390625 .039993287 .4269867 .039993287 .25474549 .039993287 .08258057 .1309967-.0234375 .27799989-.0234375 .397995-.0234375 .48098756 .044555665 .5019989 .15867615H.41799928C.394989 .08959961 .34799195 .05355835 .2809906 .05355835 .22799683 .05355835 .18299866 .07757568 .15499878 .12162781 .1349945 .1516571 .12799073 .18170166 .1269989 .23374939H.5130005M.1289978 .3017578C.13598633 .39894105 .19499207 .4620514 .2789917 .4620514 .36099244 .4620514 .42399598 .3939209 .42399598 .30775453 .42399598 .30575563 .42399598 .3037567 .4229889 .3017578H.1289978Z"/>
<path id="font_1_11" d="M.5349884 .048553468C.526001 .046554567 .5219879 .046554567 .5169983 .046554567 .48799134 .046554567 .47200013 .061569215 .47200013 .08760071V.39598084C.47200013 .48905946 .4039917 .5390625 .2749939 .5390625 .19898987 .5390625 .13598633 .5170593 .100997928 .47805787 .07699585 .45103456 .066986087 .42100526 .06498718 .36894227H.14898682C.1559906 .43301393 .19400025 .4620514 .27198792 .4620514 .34700013 .4620514 .3889923 .434021 .3889923 .3839569V.36193849C.3889923 .32688905 .36799623 .3118744 .3019867 .30386354 .18399048 .28884889 .1659851 .28483583 .13398743 .27182008 .07299805 .24679566 .041992189 .19973755 .041992189 .13165283 .041992189 .03656006 .10798645-.0234375 .21398926-.0234375 .27999879-.0234375 .33299256-.00044250489 .3919983 .05355835 .397995 .0005493164 .42399598-.0234375 .47799684-.0234375 .49499513-.0234375 .5079956-.021438599 .5349884-.014450073V.048553468M.3889923 .16468811C.3889923 .13665772 .3809967 .119644168 .35598756 .09661865 .32199098 .06556702 .2809906 .049560548 .23199463 .049560548 .16699219 .049560548 .1289978 .080596927 .1289978 .13365174 .1289978 .1887207 .1659851 .2167511 .25498963 .22976685 .34298707 .24179077 .36099244 .24578858 .3889923 .25880433V.16468811Z"/>
<path id="font_1_29" d="M.48199464-.00044250489V.52441409H.39898683V.22688294C.39898683 .11968994 .34298707 .049560548 .2559967 .049560548 .18998719 .049560548 .147995 .08963013 .147995 .15275574V.52441409H.06498718V.11968994C.06498718 .032562257 .12998963-.0234375 .23199463-.0234375 .30899049-.0234375 .35798646 .0035552979 .40699769 .07260132V-.00044250489H.48199464Z"/>
<path id="font_2_2" d="M.35499574 .27201844 .5309906 .54003909H.36299134L.27598573 .37701417 .18798828 .54003909H.019989014L.19599915 .27201844 .015991211 0H.18399048L.27598573 .16799927 .36698915 0H.5349884L.35499574 .27201844Z"/>
<path id="font_1_2" d="M.19099427 .10398865H.08699036V0H.19099427V.10398865Z"/>
<path id="font_1_20" d="M.14099121 .7285156H.057998659V0H.14099121V.20385742L.22200012 .28381349 .39898683 0H.5019989L.28799439 .34277345 .46998597 .52363589H.36299134L.14099121 .30178834V.7285156Z"/>
<path id="font_1_7" d="M.47599793 .7089844H.10998535L.056991579 .32273866H.13798523C.1789856 .3717804 .21299744 .38879396 .2679901 .38879396 .36299134 .38879396 .4229889 .32374574 .4229889 .2186737 .4229889 .11659241 .3639984 .05455017 .2679901 .05455017 .19099427 .05455017 .14399719 .09358215 .12298584 .17364502H.034988405C.04699707 .115600589 .056991579 .08758545 .07798767 .061553956 .117996219 .0075531008 .18998719-.0234375 .269989-.0234375 .41299439-.0234375 .5130005 .080566409 .5130005 .23068238 .5130005 .37077333 .41999818 .46679688 .28399659 .46679688 .23399353 .46679688 .19400025 .4537964 .15299988 .42378236L.18099976 .62197878H.47599793V.7089844Z"/>
<path id="font_2_1" d="M.3939972 .54003909 .28199769 .1468811 .16299439 .54003909H.008987427L.20999146-.02218628V-.0231781-.026184082C.20999146-.07720947 .17199707-.11621094 .12298584-.11621094 .11199951-.11621094 .10398865-.115219119 .085998538-.11021423V-.21522522C.10699463-.21821594 .11898804-.21922302 .13598633-.21922302 .17098999-.21922302 .21299744-.21221924 .23699951-.20222473 .27598573-.18621826 .29299928-.16322327 .31599427-.09921265L.5379944 .54003909H.3939972Z"/>
<path id="font_1_1" d="M.28399659 .31222535H.04598999V.24023438H.28399659V.31222535Z"/>
<path id="font_1_6" d="M.22099304 .3247528H.23199463L.2689972 .3257599C.3659973 .3257599 .41600038 .28172303 .41600038 .19665528 .41600038 .10758972 .36099244 .05455017 .2689972 .05455017 .17298889 .05455017 .12599182 .10258484 .11999512 .20567322H.03199768C.035995485 .1486206 .04598999 .11160278 .06298828 .079574588 .09899902 .011550903 .16899109-.0234375 .2659912-.0234375 .4119873-.0234375 .5059967 .063568118 .5059967 .19766236 .5059967 .28771974 .47099305 .33776856 .38598634 .36679078 .45199586 .392807 .4850006 .44284059 .4850006 .5138855 .4850006 .63597109 .4039917 .7089844 .2689972 .7089844 .12599182 .7089844 .049987794 .63098147 .04699707 .47987367H.1349945C.13598633 .52290347 .13999939 .5469208 .15098572 .56892397 .17098999 .60795596 .21499634 .63197329 .269989 .63197329 .34799195 .63197329 .394989 .5859375 .394989 .5108948 .394989 .46084596 .3769989 .4308319 .33799745 .41482545 .31399537 .40481568 .2829895 .4008026 .22099304 .3998108V.3247528Z"/>
</defs>
<path transform="matrix(1,0,0,-1,74.46,119.847)" d="M0 0V85.0508H425.25404V0Z" fill="#cceeff"/>
<path transform="matrix(1,0,0,-1,74.46,119.847)" stroke-width=".99628" stroke-linecap="butt" stroke-miterlimit="10" stroke-linejoin="miter" fill="none" stroke="#1f6e96" d="M0 0V85.0508H425.25404V0Z"/>
<path transform="matrix(1,0,0,-1,74.46,119.847)" stroke-width=".99628" stroke-linecap="butt" stroke-miterlimit="10" stroke-linejoin="miter" fill="none" stroke="#1f6e96" d="M280.6692 85.0508 301.9332 42.52539"/>
<path transform="matrix(1,0,0,-1,74.46,119.847)" stroke-width=".99628" stroke-linecap="butt" stroke-miterlimit="10" stroke-linejoin="miter" fill="none" stroke="#1f6e96" d="M310.43363 85.0508 331.69764 42.52539"/>
<path transform="matrix(1,0,0,-1,74.46,119.847)" stroke-width=".99628" stroke-linecap="butt" stroke-miterlimit="10" stroke-linejoin="miter" fill="none" stroke="#1f6e96" d="M340.2045 85.0508 361.46855 42.52539"/>
<path transform="matrix(1,0,0,-1,74.46,119.847)" d="M2.83466 0C2.83466 1.56555 1.56555 2.83466 0 2.83466-1.56555 2.83466-2.83466 1.56555-2.83466 0-2.83466-1.56555-1.56555-2.83466 0-2.83466 1.56555-2.83466 2.83466-1.56555 2.83466 0ZM0 0" fill="#f58000"/>
<use data-text="p" xlink:href="#font_1_25" transform="matrix(9.4645,0,0,-9.4645,64.863,130.039)" fill="#f58000"/>
<path transform="matrix(1,0,0,-1,70.693,129.84)" stroke-width=".398" stroke-linecap="butt" stroke-miterlimit="10" stroke-linejoin="miter" fill="none" stroke="#f58000" d="M0 0H2.839"/>
<use data-text="L" xlink:href="#font_1_8" transform="matrix(9.4645,0,0,-9.4645,73.533,130.039)" fill="#f58000"/>
<use data-text="L" xlink:href="#font_1_8" transform="matrix(9.4645,0,0,-9.4645,78.79526,130.039)" fill="#f58000"/>
<path transform="matrix(1,0,0,-1,74.46,119.847)" d="M2.83466 85.0508C2.83466 86.61635 1.56555 87.88545 0 87.88545-1.56555 87.88545-2.83466 86.61635-2.83466 85.0508-2.83466 83.48523-1.56555 82.21613 0 82.21613 1.56555 82.21613 2.83466 83.48523 2.83466 85.0508ZM0 85.0508" fill="#f58000"/>
<use data-text="p" xlink:href="#font_1_25" transform="matrix(9.4645,0,0,-9.4645,64.078,29.466004)" fill="#f58000"/>
<path transform="matrix(1,0,0,-1,69.908,29.266007)" stroke-width=".398" stroke-linecap="butt" stroke-miterlimit="10" stroke-linejoin="miter" fill="none" stroke="#f58000" d="M0 0H2.839"/>
<use data-text="U" xlink:href="#font_1_10" transform="matrix(9.4645,0,0,-9.4645,72.747,29.466004)" fill="#f58000"/>
<use data-text="L" xlink:href="#font_1_8" transform="matrix(9.4645,0,0,-9.4645,79.58037,29.466004)" fill="#f58000"/>
<path transform="matrix(1,0,0,-1,74.46,119.847)" d="M428.0887 85.0508C428.0887 86.61635 426.8196 87.88545 425.25404 87.88545 423.68849 87.88545 422.41938 86.61635 422.41938 85.0508 422.41938 83.48523 423.68849 82.21613 425.25404 82.21613 426.8196 82.21613 428.0887 83.48523 428.0887 85.0508ZM425.25404 85.0508" fill="#f58000"/>
<use data-text="p" xlink:href="#font_1_25" transform="matrix(9.4645,0,0,-9.4645,503.08897,29.466004)" fill="#f58000"/>
<path transform="matrix(1,0,0,-1,508.91899,29.266007)" stroke-width=".398" stroke-linecap="butt" stroke-miterlimit="10" stroke-linejoin="miter" fill="none" stroke="#f58000" d="M0 0H2.839"/>
<use data-text="U" xlink:href="#font_1_10" transform="matrix(9.4645,0,0,-9.4645,511.75798,29.466004)" fill="#f58000"/>
<use data-text="R" xlink:href="#font_1_9" transform="matrix(9.4645,0,0,-9.4645,518.5913,29.466004)" fill="#f58000"/>
<path transform="matrix(1,0,0,-1,74.46,119.847)" d="M428.0887 0C428.0887 1.56555 426.8196 2.83466 425.25404 2.83466 423.68849 2.83466 422.41938 1.56555 422.41938 0 422.41938-1.56555 423.68849-2.83466 425.25404-2.83466 426.8196-2.83466 428.0887-1.56555 428.0887 0ZM425.25404 0" fill="#f58000"/>
<use data-text="p" xlink:href="#font_1_25" transform="matrix(9.4645,0,0,-9.4645,503.089,130.039)" fill="#f58000"/>
<path transform="matrix(1,0,0,-1,508.919,129.84)" stroke-width=".398" stroke-linecap="butt" stroke-miterlimit="10" stroke-linejoin="miter" fill="none" stroke="#f58000" d="M0 0H2.839"/>
<use data-text="L" xlink:href="#font_1_8" transform="matrix(9.4645,0,0,-9.4645,511.758,130.039)" fill="#f58000"/>
<use data-text="R" xlink:href="#font_1_9" transform="matrix(9.4645,0,0,-9.4645,517.02029,130.039)" fill="#f58000"/>
<path transform="matrix(1,0,0,-1,74.46,119.847)" d="M283.50389 85.0508C283.50389 86.61635 282.23478 87.88545 280.6692 87.88545 279.10365 87.88545 277.83457 86.61635 277.83457 85.0508 277.83457 83.48523 279.10365 82.21613 280.6692 82.21613 282.23478 82.21613 283.50389 83.48523 283.50389 85.0508ZM280.6692 85.0508" fill="#f58000"/>
<use data-text="p" xlink:href="#font_1_25" transform="matrix(9.4645,0,0,-9.4645,318.664,29.466004)" fill="#f58000"/>
<path transform="matrix(1,0,0,-1,324.494,29.266007)" stroke-width=".398" stroke-linecap="butt" stroke-miterlimit="10" stroke-linejoin="miter" fill="none" stroke="#f58000" d="M0 0H2.839"/>
<use data-text="f" xlink:href="#font_1_16" transform="matrix(9.4645,0,0,-9.4645,327.333,29.466004)" fill="#f58000"/>
<use data-text="0" xlink:href="#font_1_3" transform="matrix(9.4645,0,0,-9.4645,329.96415,29.466004)" fill="#f58000"/>
<path transform="matrix(1,0,0,-1,335.794,29.266007)" stroke-width=".398" stroke-linecap="butt" stroke-miterlimit="10" stroke-linejoin="miter" fill="none" stroke="#f58000" d="M0 0H2.839"/>
<use data-text="t" xlink:href="#font_1_28" transform="matrix(9.4645,0,0,-9.4645,338.634,29.466004)" fill="#f58000"/>
<use data-text="o" xlink:href="#font_1_24" transform="matrix(9.4645,0,0,-9.4645,341.26515,29.466004)" fill="#f58000"/>
<use data-text="p" xlink:href="#font_1_25" transform="matrix(9.4645,0,0,-9.4645,346.5274,29.466004)" fill="#f58000"/>
<path transform="matrix(1,0,0,-1,74.46,119.847)" d="M304.76789 42.52539C304.76789 44.09094 303.49879 45.36005 301.9332 45.36005 300.36766 45.36005 299.09858 44.09094 299.09858 42.52539 299.09858 40.95982 300.36766 39.69072 301.9332 39.69072 303.49879 39.69072 304.76789 40.95982 304.76789 42.52539ZM301.9332 42.52539" fill="#f58000"/>
<use data-text="p" xlink:href="#font_1_25" transform="matrix(9.4645,0,0,-9.4645,339.929,87.587)" fill="#f58000"/>
<path transform="matrix(1,0,0,-1,345.759,87.388)" stroke-width=".398" stroke-linecap="butt" stroke-miterlimit="10" stroke-linejoin="miter" fill="none" stroke="#f58000" d="M0 0H2.839"/>
<use data-text="f" xlink:href="#font_1_16" transform="matrix(9.4645,0,0,-9.4645,348.598,87.587)" fill="#f58000"/>
<use data-text="0" xlink:href="#font_1_3" transform="matrix(9.4645,0,0,-9.4645,351.22914,87.587)" fill="#f58000"/>
<path transform="matrix(1,0,0,-1,357.059,87.388)" stroke-width=".398" stroke-linecap="butt" stroke-miterlimit="10" stroke-linejoin="miter" fill="none" stroke="#f58000" d="M0 0H2.839"/>
<use data-text="b" xlink:href="#font_1_12" transform="matrix(9.4645,0,0,-9.4645,359.899,87.587)" fill="#f58000"/>
<use data-text="o" xlink:href="#font_1_24" transform="matrix(9.4645,0,0,-9.4645,365.16127,87.587)" fill="#f58000"/>
<use data-text="t" xlink:href="#font_1_28" transform="matrix(9.4645,0,0,-9.4645,370.42353,87.587)" fill="#f58000"/>
<path transform="matrix(1,0,0,-1,74.46,119.847)" d="M313.26829 85.0508C313.26829 86.61635 311.99919 87.88545 310.43363 87.88545 308.86808 87.88545 307.59895 86.61635 307.59895 85.0508 307.59895 83.48523 308.86808 82.21613 310.43363 82.21613 311.99919 82.21613 313.26829 83.48523 313.26829 85.0508ZM310.43363 85.0508" fill="#f58000"/>
<use data-text="p" xlink:href="#font_1_25" transform="matrix(9.4645,0,0,-9.4645,368.34599,29.466004)" fill="#f58000"/>
<path transform="matrix(1,0,0,-1,374.17597,29.266007)" stroke-width=".398" stroke-linecap="butt" stroke-miterlimit="10" stroke-linejoin="miter" fill="none" stroke="#f58000" d="M0 0H2.839"/>
<use data-text="f" xlink:href="#font_1_16" transform="matrix(9.4645,0,0,-9.4645,377.01597,29.466004)" fill="#f58000"/>
<use data-text="1" xlink:href="#font_1_4" transform="matrix(9.4645,0,0,-9.4645,379.6471,29.466004)" fill="#f58000"/>
<path transform="matrix(1,0,0,-1,385.47697,29.266007)" stroke-width=".398" stroke-linecap="butt" stroke-miterlimit="10" stroke-linejoin="miter" fill="none" stroke="#f58000" d="M0 0H2.839"/>
<use data-text="t" xlink:href="#font_1_28" transform="matrix(9.4645,0,0,-9.4645,388.31599,29.466004)" fill="#f58000"/>
<use data-text="o" xlink:href="#font_1_24" transform="matrix(9.4645,0,0,-9.4645,390.9471,29.466004)" fill="#f58000"/>
<use data-text="p" xlink:href="#font_1_25" transform="matrix(9.4645,0,0,-9.4645,396.20939,29.466004)" fill="#f58000"/>
<path transform="matrix(1,0,0,-1,74.46,119.847)" d="M334.5323 42.52539C334.5323 44.09094 333.26319 45.36005 331.69764 45.36005 330.13206 45.36005 328.86296 44.09094 328.86296 42.52539 328.86296 40.95982 330.13206 39.69072 331.69764 39.69072 333.26319 39.69072 334.5323 40.95982 334.5323 42.52539ZM331.69764 42.52539" fill="#f58000"/>
<use data-text="p" xlink:href="#font_1_25" transform="matrix(9.4645,0,0,-9.4645,389.611,87.587)" fill="#f58000"/>
<path transform="matrix(1,0,0,-1,395.441,87.388)" stroke-width=".398" stroke-linecap="butt" stroke-miterlimit="10" stroke-linejoin="miter" fill="none" stroke="#f58000" d="M0 0H2.839"/>
<use data-text="f" xlink:href="#font_1_16" transform="matrix(9.4645,0,0,-9.4645,398.281,87.587)" fill="#f58000"/>
<use data-text="1" xlink:href="#font_1_4" transform="matrix(9.4645,0,0,-9.4645,400.91215,87.587)" fill="#f58000"/>
<path transform="matrix(1,0,0,-1,406.742,87.388)" stroke-width=".398" stroke-linecap="butt" stroke-miterlimit="10" stroke-linejoin="miter" fill="none" stroke="#f58000" d="M0 0H2.839"/>
<use data-text="b" xlink:href="#font_1_12" transform="matrix(9.4645,0,0,-9.4645,409.581,87.587)" fill="#f58000"/>
<use data-text="o" xlink:href="#font_1_24" transform="matrix(9.4645,0,0,-9.4645,414.84327,87.587)" fill="#f58000"/>
<use data-text="t" xlink:href="#font_1_28" transform="matrix(9.4645,0,0,-9.4645,420.10554,87.587)" fill="#f58000"/>
<path transform="matrix(1,0,0,-1,74.46,119.847)" d="M343.03919 85.0508C343.03919 86.61635 341.77009 87.88545 340.2045 87.88545 338.63896 87.88545 337.36988 86.61635 337.36988 85.0508 337.36988 83.48523 338.63896 82.21613 340.2045 82.21613 341.77009 82.21613 343.03919 83.48523 343.03919 85.0508ZM340.2045 85.0508" fill="#f58000"/>
<use data-text="p" xlink:href="#font_1_25" transform="matrix(9.4645,0,0,-9.4645,418.035,29.466004)" fill="#f58000"/>
<path transform="matrix(1,0,0,-1,423.865,29.266007)" stroke-width=".398" stroke-linecap="butt" stroke-miterlimit="10" stroke-linejoin="miter" fill="none" stroke="#f58000" d="M0 0H2.839"/>
<use data-text="f" xlink:href="#font_1_16" transform="matrix(9.4645,0,0,-9.4645,426.704,29.466004)" fill="#f58000"/>
<use data-text="2" xlink:href="#font_1_5" transform="matrix(9.4645,0,0,-9.4645,429.33515,29.466004)" fill="#f58000"/>
<path transform="matrix(1,0,0,-1,435.165,29.266007)" stroke-width=".398" stroke-linecap="butt" stroke-miterlimit="10" stroke-linejoin="miter" fill="none" stroke="#f58000" d="M0 0H2.839"/>
<use data-text="t" xlink:href="#font_1_28" transform="matrix(9.4645,0,0,-9.4645,438.005,29.466004)" fill="#f58000"/>
<use data-text="o" xlink:href="#font_1_24" transform="matrix(9.4645,0,0,-9.4645,440.63615,29.466004)" fill="#f58000"/>
<use data-text="p" xlink:href="#font_1_25" transform="matrix(9.4645,0,0,-9.4645,445.8984,29.466004)" fill="#f58000"/>
<path transform="matrix(1,0,0,-1,74.46,119.847)" d="M364.3032 42.52539C364.3032 44.09094 363.0341 45.36005 361.46855 45.36005 359.90299 45.36005 358.63389 44.09094 358.63389 42.52539 358.63389 40.95982 359.90299 39.69072 361.46855 39.69072 363.0341 39.69072 364.3032 40.95982 364.3032 42.52539ZM361.46855 42.52539" fill="#f58000"/>
<use data-text="p" xlink:href="#font_1_25" transform="matrix(9.4645,0,0,-9.4645,439.3,87.587)" fill="#f58000"/>
<path transform="matrix(1,0,0,-1,445.13,87.388)" stroke-width=".398" stroke-linecap="butt" stroke-miterlimit="10" stroke-linejoin="miter" fill="none" stroke="#f58000" d="M0 0H2.839"/>
<use data-text="f" xlink:href="#font_1_16" transform="matrix(9.4645,0,0,-9.4645,447.969,87.587)" fill="#f58000"/>
<use data-text="2" xlink:href="#font_1_5" transform="matrix(9.4645,0,0,-9.4645,450.60014,87.587)" fill="#f58000"/>
<path transform="matrix(1,0,0,-1,456.43,87.388)" stroke-width=".398" stroke-linecap="butt" stroke-miterlimit="10" stroke-linejoin="miter" fill="none" stroke="#f58000" d="M0 0H2.839"/>
<use data-text="b" xlink:href="#font_1_12" transform="matrix(9.4645,0,0,-9.4645,459.27,87.587)" fill="#f58000"/>
<use data-text="o" xlink:href="#font_1_24" transform="matrix(9.4645,0,0,-9.4645,464.53227,87.587)" fill="#f58000"/>
<use data-text="t" xlink:href="#font_1_28" transform="matrix(9.4645,0,0,-9.4645,469.79454,87.587)" fill="#f58000"/>
<use data-text="c" xlink:href="#font_1_13" transform="matrix(9.4645,0,0,-9.4645,268.549,130.039)" fill="#1f6e96"/>
<path transform="matrix(1,0,0,-1,273.849,129.84)" stroke-width=".398" stroke-linecap="butt" stroke-miterlimit="10" stroke-linejoin="miter" fill="none" stroke="#1f6e96" d="M0 0H2.839"/>
<use data-text="b" xlink:href="#font_1_12" transform="matrix(9.4645,0,0,-9.4645,276.688,130.039)" fill="#1f6e96"/>
<use data-text="o" xlink:href="#font_1_24" transform="matrix(9.4645,0,0,-9.4645,281.95027,130.039)" fill="#1f6e96"/>
<use data-text="t" xlink:href="#font_1_28" transform="matrix(9.4645,0,0,-9.4645,287.21253,130.039)" fill="#1f6e96"/>
<use data-text="t" xlink:href="#font_1_28" transform="matrix(9.4645,0,0,-9.4645,289.84367,130.039)" fill="#1f6e96"/>
<use data-text="o" xlink:href="#font_1_24" transform="matrix(9.4645,0,0,-9.4645,292.4748,130.039)" fill="#1f6e96"/>
<use data-text="m" xlink:href="#font_1_22" transform="matrix(9.4645,0,0,-9.4645,297.73707,130.039)" fill="#1f6e96"/>
<path transform="matrix(1,0,0,-1,74.46,119.847)" stroke-width=".99628" stroke-linecap="butt" stroke-miterlimit="10" stroke-linejoin="miter" fill="none" stroke="#1f6e96" d="M201.99892 5.6697H214.79326"/>
<path transform="matrix(1,0,0,-1,289.25328,114.1773)" d="M6.17204 0C5.4141 .16904 2.08237 1.12698 0 2.16945V-2.16945C2.08237-1.12698 5.4141-.16904 6.17204 0Z" fill="#1f6e96"/>
<path transform="matrix(1,0,0,-1,289.25328,114.1773)" stroke-width=".99628" stroke-linecap="butt" stroke-miterlimit="10" stroke-linejoin="miter" fill="none" stroke="#1f6e96" d="M6.17204 0C5.4141 .16904 2.08237 1.12698 0 2.16945V-2.16945C2.08237-1.12698 5.4141-.16904 6.17204 0Z"/>
<use data-text="c" xlink:href="#font_1_13" transform="matrix(0,-9.4645,-9.4645,-0,509.92597,90.66702)" fill="#1f6e96"/>
<path transform="matrix(0,-1,-1,-0,509.727,85.36603)" stroke-width=".398" stroke-linecap="butt" stroke-miterlimit="10" stroke-linejoin="miter" fill="none" stroke="#1f6e96" d="M0 0H2.839"/>
<use data-text="r" xlink:href="#font_1_26" transform="matrix(0,-9.4645,-9.4645,-0,509.92597,82.52704)" fill="#1f6e96"/>
<use data-text="i" xlink:href="#font_1_19" transform="matrix(0,-9.4645,-9.4645,-0,509.92597,79.2334)" fill="#1f6e96"/>
<use data-text="g" xlink:href="#font_1_17" transform="matrix(0,-9.4645,-9.4645,-0,509.92597,77.13226)" fill="#1f6e96"/>
<use data-text="h" xlink:href="#font_1_18" transform="matrix(0,-9.4645,-9.4645,-0,509.92597,71.869998)" fill="#1f6e96"/>
<use data-text="t" xlink:href="#font_1_28" transform="matrix(0,-9.4645,-9.4645,-0,509.92597,66.60773)" fill="#1f6e96"/>
<path transform="matrix(1,0,0,-1,74.46,119.847)" stroke-width=".99628" stroke-linecap="butt" stroke-miterlimit="10" stroke-linejoin="miter" fill="none" stroke="#1f6e96" d="M419.6103 31.89728V44.69164"/>
<path transform="matrix(0,-1,-1,-0,494.07029,75.155368)" d="M6.17204 0C5.4141 .16904 2.08237 1.12698 0 2.16945V-2.16945C2.08237-1.12698 5.4141-.16904 6.17204 0Z" fill="#1f6e96"/>
<path transform="matrix(0,-1,-1,-0,494.07029,75.155368)" stroke-width=".99628" stroke-linecap="butt" stroke-miterlimit="10" stroke-linejoin="miter" fill="none" stroke="#1f6e96" d="M6.17204 0C5.4141 .16904 2.08237 1.12698 0 2.16945V-2.16945C2.08237-1.12698 5.4141-.16904 6.17204 0Z"/>
<use data-text="c" xlink:href="#font_1_13" transform="matrix(9.4645,0,0,-9.4645,276.437,29.464997)" fill="#1f6e96"/>
<path transform="matrix(1,0,0,-1,281.737,29.266007)" stroke-width=".398" stroke-linecap="butt" stroke-miterlimit="10" stroke-linejoin="miter" fill="none" stroke="#1f6e96" d="M0 0H2.839"/>
<use data-text="t" xlink:href="#font_1_28" transform="matrix(9.4645,0,0,-9.4645,284.576,29.464997)" fill="#1f6e96"/>
<use data-text="o" xlink:href="#font_1_24" transform="matrix(9.4645,0,0,-9.4645,287.20713,29.464997)" fill="#1f6e96"/>
<use data-text="p" xlink:href="#font_1_25" transform="matrix(9.4645,0,0,-9.4645,292.4694,29.464997)" fill="#1f6e96"/>
<path transform="matrix(1,0,0,-1,74.46,119.847)" stroke-width=".99628" stroke-linecap="butt" stroke-miterlimit="10" stroke-linejoin="miter" fill="none" stroke="#1f6e96" d="M223.25513 79.38626H210.46077"/>
<path transform="matrix(-1,-0,0,1,284.92079,40.46074)" d="M6.17204 0C5.4141 .16904 2.08237 1.12698 0 2.16945V-2.16945C2.08237-1.12698 5.4141-.16904 6.17204 0Z" fill="#1f6e96"/>
<path transform="matrix(-1,-0,0,1,284.92079,40.46074)" stroke-width=".99628" stroke-linecap="butt" stroke-miterlimit="10" stroke-linejoin="miter" fill="none" stroke="#1f6e96" d="M6.17204 0C5.4141 .16904 2.08237 1.12698 0 2.16945V-2.16945C2.08237-1.12698 5.4141-.16904 6.17204 0Z"/>
<use data-text="c" xlink:href="#font_1_13" transform="matrix(0,9.4645,9.4645,0,64.193,66.94)" fill="#1f6e96"/>
<path transform="matrix(0,1,1,0,64.392,72.24)" stroke-width=".398" stroke-linecap="butt" stroke-miterlimit="10" stroke-linejoin="miter" fill="none" stroke="#1f6e96" d="M0 0H2.839"/>
<use data-text="l" xlink:href="#font_1_21" transform="matrix(0,9.4645,9.4645,0,64.193,75.079)" fill="#1f6e96"/>
<use data-text="e" xlink:href="#font_1_15" transform="matrix(0,9.4645,9.4645,0,64.193,77.18012)" fill="#1f6e96"/>
<use data-text="f" xlink:href="#font_1_16" transform="matrix(0,9.4645,9.4645,0,64.193,82.44238)" fill="#1f6e96"/>
<use data-text="t" xlink:href="#font_1_28" transform="matrix(0,9.4645,9.4645,0,64.193,85.07352)" fill="#1f6e96"/>
<path transform="matrix(1,0,0,-1,74.46,119.847)" stroke-width=".99628" stroke-linecap="butt" stroke-miterlimit="10" stroke-linejoin="miter" fill="none" stroke="#1f6e96" d="M5.6697 53.1535V40.35915"/>
<path transform="matrix(0,1,1,0,80.1297,79.487857)" d="M6.17204 0C5.4141 .16904 2.08237 1.12698 0 2.16945V-2.16945C2.08237-1.12698 5.4141-.16904 6.17204 0Z" fill="#1f6e96"/>
<path transform="matrix(0,1,1,0,80.1297,79.487857)" stroke-width=".99628" stroke-linecap="butt" stroke-miterlimit="10" stroke-linejoin="miter" fill="none" stroke="#1f6e96" d="M6.17204 0C5.4141 .16904 2.08237 1.12698 0 2.16945V-2.16945C2.08237-1.12698 5.4141-.16904 6.17204 0Z"/>
<use data-text="c" xlink:href="#font_1_13" transform="matrix(4.73225,8.196541,8.196541,-4.73225,349.132,47.763994)" fill="#1f6e96"/>
<path transform="matrix(.5,.86603,.86603,-.5,351.9543,52.25447)" stroke-width=".398" stroke-linecap="butt" stroke-miterlimit="10" stroke-linejoin="miter" fill="none" stroke="#1f6e96" d="M0 0H2.839"/>
<use data-text="f" xlink:href="#font_1_16" transform="matrix(4.73225,8.196541,8.196541,-4.73225,353.202,54.81349)" fill="#1f6e96"/>
<use data-text="a" xlink:href="#font_1_11" transform="matrix(4.73225,8.196541,8.196541,-4.73225,354.37559,56.846239)" fill="#1f6e96"/>
<use data-text="u" xlink:href="#font_1_29" transform="matrix(4.73225,8.196541,8.196541,-4.73225,357.0067,61.403505)" fill="#1f6e96"/>
<use data-text="l" xlink:href="#font_1_21" transform="matrix(4.73225,8.196541,8.196541,-4.73225,359.63786,65.960788)" fill="#1f6e96"/>
<use data-text="t" xlink:href="#font_1_28" transform="matrix(4.73225,8.196541,8.196541,-4.73225,360.68843,67.780429)" fill="#1f6e96"/>
<use data-text="0" xlink:href="#font_1_3" transform="matrix(4.73225,8.196541,8.196541,-4.73225,362.00398,70.05905)" fill="#1f6e96"/>
<path transform="matrix(1,0,0,-1,74.46,119.847)" stroke-width=".99628" stroke-linecap="butt" stroke-miterlimit="10" stroke-linejoin="miter" fill="none" stroke="#1f6e96" d="M301.54319 57.42259 295.14588 68.50294"/>
<path transform="matrix(-.49998,-.86601,-.86601,.49998,369.60588,51.34407)" d="M6.17204 0C5.4141 .16904 2.08237 1.12698 0 2.16945V-2.16945C2.08237-1.12698 5.4141-.16904 6.17204 0Z" fill="#1f6e96"/>
<path transform="matrix(-.49998,-.86601,-.86601,.49998,369.60588,51.34407)" stroke-width=".99628" stroke-linecap="butt" stroke-miterlimit="10" stroke-linejoin="miter" fill="none" stroke="#1f6e96" d="M6.17204 0C5.4141 .16904 2.08237 1.12698 0 2.16945V-2.16945C2.08237-1.12698 5.4141-.16904 6.17204 0Z"/>
<use data-text="c" xlink:href="#font_1_13" transform="matrix(4.73225,8.196541,8.196541,-4.73225,378.89799,47.764009)" fill="#1f6e96"/>
<path transform="matrix(.5,.86603,.86603,-.5,381.7203,52.254457)" stroke-width=".398" stroke-linecap="butt" stroke-miterlimit="10" stroke-linejoin="miter" fill="none" stroke="#1f6e96" d="M0 0H2.839"/>
<use data-text="f" xlink:href="#font_1_16" transform="matrix(4.73225,8.196541,8.196541,-4.73225,382.96748,54.81259)" fill="#1f6e96"/>
<use data-text="a" xlink:href="#font_1_11" transform="matrix(4.73225,8.196541,8.196541,-4.73225,384.14109,56.845338)" fill="#1f6e96"/>
<use data-text="u" xlink:href="#font_1_29" transform="matrix(4.73225,8.196541,8.196541,-4.73225,386.77223,61.40262)" fill="#1f6e96"/>
<use data-text="l" xlink:href="#font_1_21" transform="matrix(4.73225,8.196541,8.196541,-4.73225,389.40336,65.9599)" fill="#1f6e96"/>
<use data-text="t" xlink:href="#font_1_28" transform="matrix(4.73225,8.196541,8.196541,-4.73225,390.4539,67.77954)" fill="#1f6e96"/>
<use data-text="1" xlink:href="#font_1_4" transform="matrix(4.73225,8.196541,8.196541,-4.73225,391.76948,70.05817)" fill="#1f6e96"/>
<path transform="matrix(1,0,0,-1,74.46,119.847)" stroke-width=".99628" stroke-linecap="butt" stroke-miterlimit="10" stroke-linejoin="miter" fill="none" stroke="#1f6e96" d="M331.30937 57.42259 324.91206 68.50294"/>
<path transform="matrix(-.49998,-.86601,-.86601,.49998,399.37208,51.34407)" d="M6.17204 0C5.4141 .16904 2.08237 1.12698 0 2.16945V-2.16945C2.08237-1.12698 5.4141-.16904 6.17204 0Z" fill="#1f6e96"/>
<path transform="matrix(-.49998,-.86601,-.86601,.49998,399.37208,51.34407)" stroke-width=".99628" stroke-linecap="butt" stroke-miterlimit="10" stroke-linejoin="miter" fill="none" stroke="#1f6e96" d="M6.17204 0C5.4141 .16904 2.08237 1.12698 0 2.16945V-2.16945C2.08237-1.12698 5.4141-.16904 6.17204 0Z"/>
<use data-text="c" xlink:href="#font_1_13" transform="matrix(4.73225,8.196541,8.196541,-4.73225,408.66999,47.764009)" fill="#1f6e96"/>
<path transform="matrix(.5,.86603,.86603,-.5,411.4923,52.254457)" stroke-width=".398" stroke-linecap="butt" stroke-miterlimit="10" stroke-linejoin="miter" fill="none" stroke="#1f6e96" d="M0 0H2.839"/>
<use data-text="f" xlink:href="#font_1_16" transform="matrix(4.73225,8.196541,8.196541,-4.73225,412.73997,54.813478)" fill="#1f6e96"/>
<use data-text="a" xlink:href="#font_1_11" transform="matrix(4.73225,8.196541,8.196541,-4.73225,413.91358,56.846223)" fill="#1f6e96"/>
<use data-text="u" xlink:href="#font_1_29" transform="matrix(4.73225,8.196541,8.196541,-4.73225,416.5447,61.403505)" fill="#1f6e96"/>
<use data-text="l" xlink:href="#font_1_21" transform="matrix(4.73225,8.196541,8.196541,-4.73225,419.17585,65.960788)" fill="#1f6e96"/>
<use data-text="t" xlink:href="#font_1_28" transform="matrix(4.73225,8.196541,8.196541,-4.73225,420.22639,67.780399)" fill="#1f6e96"/>
<use data-text="2" xlink:href="#font_1_5" transform="matrix(4.73225,8.196541,8.196541,-4.73225,421.54197,70.05905)" fill="#1f6e96"/>
<path transform="matrix(1,0,0,-1,74.46,119.847)" stroke-width=".99628" stroke-linecap="butt" stroke-miterlimit="10" stroke-linejoin="miter" fill="none" stroke="#1f6e96" d="M361.0821 57.42259 354.6848 68.50294"/>
<path transform="matrix(-.49998,-.86601,-.86601,.49998,429.1448,51.34407)" d="M6.17204 0C5.4141 .16904 2.08237 1.12698 0 2.16945V-2.16945C2.08237-1.12698 5.4141-.16904 6.17204 0Z" fill="#1f6e96"/>
<path transform="matrix(-.49998,-.86601,-.86601,.49998,429.1448,51.34407)" stroke-width=".99628" stroke-linecap="butt" stroke-miterlimit="10" stroke-linejoin="miter" fill="none" stroke="#1f6e96" d="M6.17204 0C5.4141 .16904 2.08237 1.12698 0 2.16945V-2.16945C2.08237-1.12698 5.4141-.16904 6.17204 0Z"/>
<path transform="matrix(1,0,0,-1,74.46,119.847)" stroke-width=".99628" stroke-linecap="butt" stroke-miterlimit="10" stroke-linejoin="miter" fill="none" stroke="#929292" d="M0-21.26268H438.0484"/>
<path transform="matrix(1,0,0,-1,512.5084,141.10968)" d="M6.17204 0C5.4141 .16904 2.08237 1.12698 0 2.16945V-2.16945C2.08237-1.12698 5.4141-.16904 6.17204 0Z" fill="#929292"/>
<path transform="matrix(1,0,0,-1,512.5084,141.10968)" stroke-width=".99628" stroke-linecap="butt" stroke-miterlimit="10" stroke-linejoin="miter" fill="none" stroke="#929292" d="M6.17204 0C5.4141 .16904 2.08237 1.12698 0 2.16945V-2.16945C2.08237-1.12698 5.4141-.16904 6.17204 0Z"/>
<use data-text="x" xlink:href="#font_2_2" transform="matrix(9.4645,0,0,-9.4645,524.325,143.627)" fill="#929292"/>
<path transform="matrix(1,0,0,-1,74.46,119.847)" stroke-width=".99628" stroke-linecap="butt" stroke-miterlimit="10" stroke-linejoin="miter" fill="none" stroke="#929292" d="M0-21.26268V-31.8908"/>
<use data-text="0" xlink:href="#font_1_3" transform="matrix(9.4645,0,0,-9.4645,60.786,162.228)" fill="#929292"/>
<use data-text="." xlink:href="#font_1_2" transform="matrix(9.4645,0,0,-9.4645,66.04826,162.228)" fill="#929292"/>
<use data-text="0" xlink:href="#font_1_3" transform="matrix(9.4645,0,0,-9.4645,68.6794,162.228)" fill="#929292"/>
<use data-text="k" xlink:href="#font_1_20" transform="matrix(9.4645,0,0,-9.4645,75.52223,162.228)" fill="#929292"/>
<use data-text="m" xlink:href="#font_1_22" transform="matrix(9.4645,0,0,-9.4645,80.254489,162.228)" fill="#929292"/>
<path transform="matrix(1,0,0,-1,74.46,119.847)" stroke-width=".99628" stroke-linecap="butt" stroke-miterlimit="10" stroke-linejoin="miter" fill="none" stroke="#929292" d="M425.2281-21.26268V-31.8908"/>
<use data-text="1" xlink:href="#font_1_4" transform="matrix(9.4645,0,0,-9.4645,480.746,162.228)" fill="#929292"/>
<use data-text="5" xlink:href="#font_1_7" transform="matrix(9.4645,0,0,-9.4645,486.00828,162.228)" fill="#929292"/>
<use data-text="0" xlink:href="#font_1_3" transform="matrix(9.4645,0,0,-9.4645,491.27055,162.228)" fill="#929292"/>
<use data-text="." xlink:href="#font_1_2" transform="matrix(9.4645,0,0,-9.4645,496.5328,162.228)" fill="#929292"/>
<use data-text="0" xlink:href="#font_1_3" transform="matrix(9.4645,0,0,-9.4645,499.16395,162.228)" fill="#929292"/>
<use data-text="k" xlink:href="#font_1_20" transform="matrix(9.4645,0,0,-9.4645,506.00679,162.228)" fill="#929292"/>
<use data-text="m" xlink:href="#font_1_22" transform="matrix(9.4645,0,0,-9.4645,510.739,162.228)" fill="#929292"/>
<path transform="matrix(1,0,0,-1,74.46,119.847)" stroke-width=".99628" stroke-linecap="butt" stroke-miterlimit="10" stroke-linejoin="miter" fill="none" stroke="#929292" d="M-21.26268 0V97.84514"/>
<path transform="matrix(0,-1,-1,-0,53.19732,22.001862)" d="M6.17204 0C5.4141 .16904 2.08237 1.12698 0 2.16945V-2.16945C2.08237-1.12698 5.4141-.16904 6.17204 0Z" fill="#929292"/>
<path transform="matrix(0,-1,-1,-0,53.19732,22.001862)" stroke-width=".99628" stroke-linecap="butt" stroke-miterlimit="10" stroke-linejoin="miter" fill="none" stroke="#929292" d="M6.17204 0C5.4141 .16904 2.08237 1.12698 0 2.16945V-2.16945C2.08237-1.12698 5.4141-.16904 6.17204 0Z"/>
<use data-text="y" xlink:href="#font_2_1" transform="matrix(9.4645,0,0,-9.4645,50.567,8.188995)" fill="#929292"/>
<path transform="matrix(1,0,0,-1,74.46,119.847)" stroke-width=".99628" stroke-linecap="butt" stroke-miterlimit="10" stroke-linejoin="miter" fill="none" stroke="#929292" d="M-21.26268 0H-31.8908"/>
<use data-text="-" xlink:href="#font_1_1" transform="matrix(9.4645,0,0,-9.4645,3.1539994,123.188)" fill="#929292"/>
<use data-text="3" xlink:href="#font_1_6" transform="matrix(9.4645,0,0,-9.4645,6.3056786,123.188)" fill="#929292"/>
<use data-text="0" xlink:href="#font_1_3" transform="matrix(9.4645,0,0,-9.4645,11.567941,123.188)" fill="#929292"/>
<use data-text="." xlink:href="#font_1_2" transform="matrix(9.4645,0,0,-9.4645,16.830204,123.188)" fill="#929292"/>
<use data-text="0" xlink:href="#font_1_3" transform="matrix(9.4645,0,0,-9.4645,19.461337,123.188)" fill="#929292"/>
<use data-text="k" xlink:href="#font_1_20" transform="matrix(9.4645,0,0,-9.4645,26.30417,123.188)" fill="#929292"/>
<use data-text="m" xlink:href="#font_1_22" transform="matrix(9.4645,0,0,-9.4645,31.03642,123.188)" fill="#929292"/>
<path transform="matrix(1,0,0,-1,74.46,119.847)" stroke-width=".99628" stroke-linecap="butt" stroke-miterlimit="10" stroke-linejoin="miter" fill="none" stroke="#929292" d="M-21.26268 85.04561H-31.8908"/>
<use data-text="0" xlink:href="#font_1_3" transform="matrix(9.4645,0,0,-9.4645,11.568001,38.144006)" fill="#929292"/>
<use data-text="." xlink:href="#font_1_2" transform="matrix(9.4645,0,0,-9.4645,16.830265,38.144006)" fill="#929292"/>
<use data-text="0" xlink:href="#font_1_3" transform="matrix(9.4645,0,0,-9.4645,19.461396,38.144006)" fill="#929292"/>
<use data-text="k" xlink:href="#font_1_20" transform="matrix(9.4645,0,0,-9.4645,26.30423,38.144006)" fill="#929292"/>
<use data-text="m" xlink:href="#font_1_22" transform="matrix(9.4645,0,0,-9.4645,31.03648,38.144006)" fill="#929292"/>
</svg>
