<svg xmlns="http://www.w3.org/2000/svg" xmlns:xlink="http://www.w3.org/1999/xlink" version="1.1" width="482.595" height="124.128" viewBox="0 0 482.595 124.128">
<defs>
<path id="font_1_27" d="M.43798829 .37794496C.43699647 .48104859 .36898805 .5390625 .24798584 .5390625 .12599182 .5390625 .04699707 .47605897 .04699707 .37895204 .04699707 .29685975 .08898926 .25779725 .21299744 .22776795L.29100038 .20874024C.34899903 .19473267 .37199403 .17370606 .37199403 .13565064 .37199403 .08659363 .32299806 .05355835 .25 .05355835 .20498657 .05355835 .16699219 .0665741 .1459961 .08859253 .1329956 .10362244 .1269989 .118637088 .12199402 .15568543H.033996583C.037994386 .034561159 .10598755-.0234375 .24299622-.0234375 .375-.0234375 .45899964 .041549684 .45899964 .14266968 .45899964 .22076416 .4149933 .2638092 .31098939 .28884889L.23098755 .30786134C.16299439 .32388307 .13398743 .34591676 .13398743 .3829651 .13398743 .431015 .1769867 .4620514 .24499512 .4620514 .31199647 .4620514 .34799195 .43301393 .34999085 .37794496H.43798829Z"/>
<path id="font_1_21" d="M.1519928 .7285156H.067993167V0H.1519928V.7285156Z"/>
<path id="font_1_11" d="M.5349884 .048553468C.526001 .046554567 .5219879 .046554567 .5169983 .046554567 .48799134 .046554567 .47200013 .061569215 .47200013 .08760071V.39598084C.47200013 .48905946 .4039917 .5390625 .2749939 .5390625 .19898987 .5390625 .13598633 .5170593 .100997928 .47805787 .07699585 .45103456 .066986087 .42100526 .06498718 .36894227H.14898682C.1559906 .43301393 .19400025 .4620514 .27198792 .4620514 .34700013 .4620514 .3889923 .434021 .3889923 .3839569V.36193849C.3889923 .32688905 .36799623 .3118744 .3019867 .30386354 .18399048 .28884889 .1659851 .28483583 .13398743 .27182008 .07299805 .24679566 .041992189 .19973755 .041992189 .13165283 .041992189 .03656006 .10798645-.0234375 .21398926-.0234375 .27999879-.0234375 .33299256-.00044250489 .3919983 .05355835 .397995 .0005493164 .42399598-.0234375 .47799684-.0234375 .49499513-.0234375 .5079956-.021438599 .5349884-.014450073V.048553468M.3889923 .16468811C.3889923 .13665772 .3809967 .119644168 .35598756 .09661865 .32199098 .06556702 .2809906 .049560548 .23199463 .049560548 .16699219 .049560548 .1289978 .080596927 .1289978 .13365174 .1289978 .1887207 .1659851 .2167511 .25498963 .22976685 .34298707 .24179077 .36099244 .24578858 .3889923 .25880433V.16468811Z"/>
<path id="font_1_12" d="M.053985597 .7285156V-.00044250489H.1289978V.0665741C.16899109 .005554199 .22200012-.0234375 .29499818-.0234375 .43299867-.0234375 .522995 .08959961 .522995 .2638092 .522995 .434021 .43699647 .5390625 .29899598 .5390625 .22698975 .5390625 .17599488 .51205447 .13699341 .4530487V.7285156H.053985597M.2829895 .46105958C.37599183 .46105958 .43598939 .3799591 .43598939 .25480653 .43598939 .13565064 .37399293 .05455017 .2829895 .05455017 .19499207 .05455017 .13699341 .13465882 .13699341 .25779725 .13699341 .38095094 .19499207 .46105958 .2829895 .46105958Z"/>
<path id="font_1_16" d="M.2579956 .52441409H.17098999V.6064148C.17098999 .64141848 .19099427 .65940859 .22898865 .65940859 .23599243 .65940859 .23899842 .65940859 .2579956 .65841677V.727417C.23899842 .7314148 .22799683 .7324219 .21099854 .7324219 .13398743 .7324219 .08799744 .6884155 .08799744 .6134186V.52441409H.017990113V.45640565H.08799744V0H.17098999V.45640565H.2579956V.52441409Z"/>
<path id="font_1_29" d="M.48199464-.00044250489V.52441409H.39898683V.22688294C.39898683 .11968994 .34298707 .049560548 .2559967 .049560548 .18998719 .049560548 .147995 .08963013 .147995 .15275574V.52441409H.06498718V.11968994C.06498718 .032562257 .12998963-.0234375 .23199463-.0234375 .30899049-.0234375 .35798646 .0035552979 .40699769 .07260132V-.00044250489H.48199464Z"/>
<path id="font_1_28" d="M.2539978 .52441409H.16799927V.66841128H.084991458V.52441409H.01399231V.45640565H.084991458V.059570314C.084991458 .0065612795 .12098694-.0234375 .18598938-.0234375 .20599365-.0234375 .22599793-.021438599 .2539978-.016448975V.05355835C.24299622 .05055237 .22999573 .049560548 .21398926 .049560548 .17799378 .049560548 .16799927 .059570314 .16799927 .09664917V.45640565H.2539978V.52441409Z"/>
<path id="font_1_32" d="M.44299317 .52441409H.051986696V.45140077H.34399415L.0309906 .07499695V0H.45700074V.07299805H.13198853L.44299317 .45040895V.52441409Z"/>
<path id="font_1_24" d="M.27198792 .5390625C.125 .5390625 .035995485 .434021 .035995485 .25779725 .035995485 .081588748 .12399292-.0234375 .272995-.0234375 .41999818-.0234375 .5099945 .081588748 .5099945 .25379945 .5099945 .43502809 .4229889 .5390625 .27198792 .5390625M.272995 .4620514C.36698915 .4620514 .4229889 .384964 .4229889 .25480653 .4229889 .13165283 .36499024 .05355835 .272995 .05355835 .17999268 .05355835 .12298584 .13064575 .12298584 .25779725 .12298584 .3839569 .17999268 .4620514 .272995 .4620514Z"/>
<path id="font_1_23" d="M.069992069 .52441409V0H.1539917V.2892151C.1539917 .39604188 .20999146 .4660492 .29599 .4660492 .3619995 .4660492 .4039917 .42604066 .4039917 .3630371V0H.4869995V.39604188C.4869995 .4830475 .42199708 .5390625 .32099916 .5390625 .24299622 .5390625 .19299317 .50904849 .14698792 .43605042V.52441409H.069992069Z"/>
<path id="font_1_15" d="M.5130005 .23374939C.5130005 .31376649 .5069885 .36186219 .49198915 .40093995 .45799256 .48706056 .37799073 .5390625 .27999879 .5390625 .13398743 .5390625 .039993287 .4269867 .039993287 .25474549 .039993287 .08258057 .1309967-.0234375 .27799989-.0234375 .397995-.0234375 .48098756 .044555665 .5019989 .15867615H.41799928C.394989 .08959961 .34799195 .05355835 .2809906 .05355835 .22799683 .05355835 .18299866 .07757568 .15499878 .12162781 .1349945 .1516571 .12799073 .18170166 .1269989 .23374939H.5130005M.1289978 .3017578C.13598633 .39894105 .19499207 .4620514 .2789917 .4620514 .36099244 .4620514 .42399598 .3939209 .42399598 .30775453 .42399598 .30575563 .42399598 .3037567 .4229889 .3017578H.1289978Z"/>
<path id="font_2_5" d="M.46798707 .37236024C.46798707 .42637635 .44198609 .4423828 .42399598 .4423828 .39898683 .4423828 .375 .41636659 .375 .3943634 .375 .38136292 .37998963 .3753662 .3909912 .36434938 .4119873 .3443451 .4249878 .31834413 .4249878 .28233338 .4249878 .24032593 .3639984 .011245728 .24699402 .011245728 .19599915 .011245728 .17298889 .04626465 .17298889 .09828186 .17298889 .15429688 .19999695 .22731018 .23098755 .31033326 .23799134 .3273468 .24299622 .34135438 .24299622 .36035157 .24299622 .405365 .21099854 .4423828 .16099549 .4423828 .066986087 .4423828 .0289917 .29733277 .0289917 .28833009 .0289917 .27833558 .038986207 .27833558 .040985109 .27833558 .050994874 .27833558 .051986696 .28033448 .056991579 .29634095 .085998538 .39736939 .1289978 .42037965 .1579895 .42037965 .1659851 .42037965 .18299866 .42037965 .18299866 .3883667 .18299866 .36335755 .17298889 .3363495 .1659851 .31834413 .12199402 .20230103 .10899353 .15629578 .10899353 .11328125 .10899353 .0052490236 .19699097-.0107421879 .24299622-.0107421879 .41099549-.0107421879 .46798707 .32034303 .46798707 .37236024Z"/>
<path id="font_3_1" d="M.24899292 .10601807C.23899842 .072021488 .20599365 .018234253 .15499878 .018234253 .1519928 .018234253 .12199402 .018234253 .100997928 .03215027 .14199829 .04508972 .14498902 .08100891 .14498902 .087020877 .14498902 .10900879 .12799073 .12402344 .10499573 .12402344 .07699585 .12402344 .04798889 .10002136 .04798889 .0630188 .04798889 .01322937 .10398865-.009765625 .15299988-.009765625 .19898987-.009765625 .23999024 .019226075 .2649994 .061019899 .2889862 .008224487 .34399415-.009765625 .38398744-.009765625 .49899293-.009765625 .55999758 .11502075 .55999758 .14305115 .55999758 .15608216 .5469971 .15608216 .5439911 .15608216 .5299988 .15608216 .5289917 .15107727 .5249939 .13905335 .5039978 .07002258 .44400025 .018234253 .3880005 .018234253 .34799195 .018234253 .32699586 .04508972 .32699586 .08302307 .32699586 .10900879 .35099793 .20018006 .3789978 .31140138 .39898683 .38841249 .44400025 .4133911 .47698976 .4133911 .47898866 .4133911 .5099945 .4133911 .5309906 .39941407 .49899293 .39041139 .4869995 .3624115 .4869995 .34440614 .4869995 .32240296 .5039978 .30740357 .5269928 .30740357 .5499878 .30740357 .58299258 .32640077 .58299258 .3684082 .58299258 .4243927 .5189972 .44140626 .47898866 .44140626 .42900086 .44140626 .3889923 .4084015 .36698915 .3704071 .34899903 .4113922 .30299378 .44140626 .24699402 .44140626 .1349945 .44140626 .070999149 .31840516 .070999149 .2883606 .070999149 .27534486 .084991458 .27534486 .08799744 .27534486 .100997928 .27534486 .101989749 .27934266 .10699463 .29237367 .13198853 .3704071 .19499207 .4133911 .24398804 .4133911 .2769928 .4133911 .3039856 .395401 .3039856 .3474121 .3039856 .32740785 .2919922 .27734376 .2829895 .24327088L.24899292 .10601807Z"/>
<path id="font_4_2" d="M.68699648 .32714845C.70199587 .32714845 .72099307 .32714845 .72099307 .34713746 .72099307 .36714173 .70199587 .36714173 .6879883 .36714173H.08898926C.07499695 .36714173 .055999757 .36714173 .055999757 .34713746 .055999757 .32714845 .07499695 .32714845 .08999634 .32714845H.68699648M.6879883 .13284302C.70199587 .13284302 .72099307 .13284302 .72099307 .15284729 .72099307 .17285156 .70199587 .17285156 .68699648 .17285156H.08999634C.07499695 .17285156 .055999757 .17285156 .055999757 .15284729 .055999757 .13284302 .07499695 .13284302 .08898926 .13284302H.6879883Z"/>
<path id="font_4_1" d="M.45999146 .31976319C.45999146 .39982606 .45498658 .47988893 .41999818 .5539398 .37399293 .65000918 .2919922 .6660156 .25 .6660156 .18998719 .6660156 .116989139 .64001467 .07598877 .54693606 .04399109 .47789 .038986207 .39982606 .038986207 .31976319 .038986207 .24472046 .042999269 .15464783 .083999637 .07859802 .1269989-.0024719239 .19999695-.022460938 .24899292-.022460938 .30299378-.022460938 .3789978-.0014648438 .4229889 .09359741 .45498658 .16265869 .45999146 .2407074 .45999146 .31976319M.24899292-.00047302247C.20999146-.00047302247 .15098572 .024551392 .1329956 .12062073 .12199402 .18066406 .12199402 .2727356 .12199402 .3317871 .12199402 .39582826 .12199402 .46188355 .12998963 .5159149 .14898682 .63500979 .22399903 .64401248 .24899292 .64401248 .28199769 .64401248 .34799195 .6259918 .36698915 .52693179 .3769989 .47088624 .3769989 .39482118 .3769989 .3317871 .3769989 .25672914 .3769989 .18867493 .3659973 .12461853 .35099793 .029556275 .2939911-.00047302247 .24899292-.00047302247Z"/>
<path id="font_3_2" d="M.55599978 .37738038C.55999758 .39138795 .55999758 .39338685 .55999758 .3993988 .55999758 .41940309 .5439911 .43139649 .5269928 .43139649 .5159912 .43139649 .49699403 .4263916 .48599244 .4073944 .48298646 .4013977 .47499085 .36938478 .46998597 .34936524L.44898988 .2663269C.44299317 .24232483 .4119873 .11627197 .40899659 .105270389 .4079895 .105270389 .3639984 .018234253 .28599549 .018234253 .21798706 .018234253 .21798706 .08325195 .21798706 .101257327 .21798706 .1552887 .24099732 .2183075 .2709961 .29534913 .2829895 .32736207 .28799439 .33937074 .28799439 .35636903 .28799439 .40438844 .24699402 .44140626 .19299317 .44140626 .09199524 .44140626 .04699707 .3053589 .04699707 .28834535 .04699707 .27534486 .06098938 .27534486 .06399536 .27534486 .07798767 .27534486 .07899475 .28033448 .08198547 .29135133 .10699463 .3743744 .1499939 .4133911 .18998719 .4133911 .20698548 .4133911 .21499634 .40238954 .21499634 .37838746 .21499634 .3553772 .20599365 .33335877 .20098877 .32035829 .15299988 .19830323 .14299011 .1612854 .14299011 .117263797 .14299011 .1002655 .14299011 .053237916 .18199158 .021224976 .21299744-.004776001 .25498963-.009765625 .28199769-.009765625 .32199098-.009765625 .35798646 .0052337648 .3909912 .035232545 .37799073-.01977539 .36698915-.061782838 .32499696-.11178589 .2979889-.14279175 .2579956-.17610169 .20498657-.17610169 .19799805-.17610169 .15098572-.17610169 .12998963-.14279175 .18399048-.13679505 .18399048-.08879089 .18399048-.08778381 .18399048-.055786134 .15499878-.04978943 .14498902-.04978943 .11999512-.04978943 .08699036-.0697937 .08699036-.11578369 .08699036-.1670227 .1349945-.20410156 .20599365-.20410156 .30699159-.20410156 .42999269-.12579346 .46099855-.00077819827L.55599978 .37738038Z"/>
<path id="font_2_2" d="M.37298585 .37835694C.35499574 .41537477 .32598878 .4423828 .2809906 .4423828 .1639862 .4423828 .039993287 .29533387 .039993287 .14929199 .039993287 .055267335 .09498596-.0107421879 .17298889-.0107421879 .19299317-.0107421879 .24299622-.0067443849 .30299378 .06427002 .31098939 .022247315 .34599305-.0107421879 .3939972-.0107421879 .42900086-.0107421879 .45199586 .012252808 .46798707 .044265748 .4850006 .08027649 .49798585 .14129639 .49798585 .14329529 .49798585 .1532898 .4889984 .1532898 .48599244 .1532898 .47599793 .1532898 .47499085 .14929199 .47200013 .13528443 .45498658 .07026672 .43699647 .011245728 .3959961 .011245728 .36898805 .011245728 .3659973 .037261964 .3659973 .057266237 .3659973 .07926941 .36799623 .08728027 .3789978 .13128662 .3899994 .17329407 .3919983 .18330384 .40098573 .22131348L.43699647 .36135865C.44400025 .38935853 .44400025 .39135743 .44400025 .39537049 .44400025 .41236878 .43199159 .42237855 .4149933 .42237855 .3909912 .42237855 .37599183 .4003601 .37298585 .37835694M.30799867 .119277957C.30299378 .10127258 .30299378 .09927368 .28799439 .08227539 .24398804 .027252198 .20298767 .011245728 .1749878 .011245728 .125 .011245728 .11099243 .06626892 .11099243 .105285648 .11099243 .1552887 .14299011 .27833558 .1659851 .32434083 .19699097 .38336183 .24198914 .42037965 .28199769 .42037965 .34700013 .42037965 .36099244 .3383484 .36099244 .33235169 .36099244 .32633973 .35899354 .32034303 .35798646 .31533814L.30799867 .119277957Z"/>
<path id="font_2_6" d="M.33399964 .30233766C.33999635 .32835389 .36299134 .42037965 .43299867 .42037965 .43798829 .42037965 .46199037 .42037965 .48298646 .40734864 .45498658 .402359 .43499757 .37734986 .43499757 .35334779 .43499757 .33735658 .44599916 .31835938 .47299195 .31835938 .49499513 .31835938 .5269928 .3363495 .5269928 .37635804 .5269928 .42837525 .46798707 .4423828 .43399049 .4423828 .37599183 .4423828 .34098817 .38935853 .32899476 .36634828 .3039856 .43237306 .25 .4423828 .22099304 .4423828 .116989139 .4423828 .05999756 .3133545 .05999756 .28834535 .05999756 .27833558 .069992069 .27833558 .07199097 .27833558 .07998657 .27833558 .08299255 .28033448 .084991458 .28933717 .11898804 .39535523 .18499756 .42037965 .21899414 .42037965 .23799134 .42037965 .272995 .4113617 .272995 .35334779 .272995 .32235719 .2559967 .25532533 .21899414 .11528015 .20298767 .053268434 .16799927 .011245728 .12399292 .011245728 .117996219 .011245728 .09498596 .011245728 .07398987 .024276734 .09899902 .029266358 .12098694 .05027771 .12098694 .07827759 .12098694 .105270389 .09899902 .11328125 .083999637 .11328125 .053985597 .11328125 .0289917 .08728027 .0289917 .055267335 .0289917 .009246826 .07899475-.0107421879 .12298584-.0107421879 .18899536-.0107421879 .22499085 .059280397 .22799683 .0652771 .23999024 .028274537 .27598573-.0107421879 .33599855-.0107421879 .43899537-.0107421879 .49598695 .118270877 .49598695 .14328003 .49598695 .1532898 .4869995 .1532898 .48399354 .1532898 .47499085 .1532898 .47299195 .14929199 .47099305 .14228821 .43798829 .03527832 .36999513 .011245728 .33799745 .011245728 .29899598 .011245728 .2829895 .043273927 .2829895 .07727051 .2829895 .09927368 .2889862 .121276859 .2999878 .16529846L.33399964 .30233766Z"/>
<path id="font_5_1" d="M.5289917 .1640625V.20005799H.41799928V.64582827C.41799928 .66682437 .41799928 .6738281 .3959961 .6738281 .38398744 .6738281 .37998963 .6738281 .36999513 .65982058L.038986207 .20005799V.1640625H.33299256V.08201599C.33299256 .04800415 .33299256 .035995485 .2519989 .035995485H.22499085V0C.2749939 .0019989014 .33898927 .0039978029 .375 .0039978029 .4119873 .0039978029 .47599793 .0019989014 .526001 0V.035995485H.49899293C.41799928 .035995485 .41799928 .04800415 .41799928 .08201599V.1640625H.5289917M.33999635 .5658722V.20005799H.07598877L.33999635 .5658722Z"/>
<path id="font_2_1" d="M.30299378 .3157959H.47299195C.61499026 .3157959 .7539978 .41973878 .7539978 .53167727 .7539978 .6086273 .6879883 .6826172 .5569916 .6826172H.23298645C.21398926 .6826172 .20298767 .6826172 .20298767 .66360476 .20298767 .6516113 .21199036 .6516113 .23199463 .6516113 .24499512 .6516113 .2630005 .65060427 .2749939 .6496124 .29100038 .6476135 .29699708 .64460757 .29699708 .6336212 .29699708 .6296234 .29599 .62661746 .29299928 .614624L.15899658 .07795715C.14898682 .038986207 .14698792 .0309906 .067993167 .0309906 .050994874 .0309906 .039993287 .0309906 .039993287 .011993408 .039993287 0 .051986696 0 .054992677 0 .08299255 0 .1539917 .0029907227 .18199158 .0029907227 .20298767 .0029907227 .22499085 .0019989014 .24598694 .0019989014 .2679901 .0019989014 .2899933 0 .31098939 0 .31799317 0 .33099366 0 .33099366 .019989014 .33099366 .0309906 .32199098 .0309906 .30299378 .0309906 .2659912 .0309906 .23799134 .0309906 .23799134 .048980714 .23799134 .054977418 .23999024 .05996704 .24099732 .065963748L.30299378 .3157959M.375 .6136322C.38398744 .64860537 .38598634 .6516113 .42900086 .6516113H.5249939C.60798647 .6516113 .6609955 .62461856 .6609955 .55566409 .6609955 .5166931 .6409912 .43074037 .60198977 .39476014 .5519867 .34977723 .49198915 .34179688 .44799806 .34179688H.30699159L.375 .6136322Z"/>
<path id="font_2_3" d="M.23899842 .68333438C.23899842 .6843262 .23899842 .69433596 .22599793 .69433596 .20298767 .69433596 .12998963 .6863251 .10398865 .6843262 .09599304 .68333438 .084991458 .6823273 .084991458 .6643219 .084991458 .6523285 .09399414 .6523285 .10899353 .6523285 .15699768 .6523285 .15899658 .6453247 .15899658 .6353302 .15899658 .6283264 .1499939 .5943451 .14498902 .573349L.06298828 .24731446C.050994874 .1973114 .04699707 .18130493 .04699707 .14628601 .04699707 .05126953 .099990848-.0107421879 .17399597-.0107421879 .2919922-.0107421879 .4149933 .1382904 .4149933 .28233338 .4149933 .37335206 .3619995 .4423828 .28199769 .4423828 .23599243 .4423828 .19499207 .41337586 .16499329 .38235475L.23899842 .68333438M.14498902 .30534364C.15098572 .3273468 .15098572 .3293457 .1599884 .3403473 .20899964 .405365 .2539978 .42037965 .27999879 .42037965 .31599427 .42037965 .34298707 .3903656 .34298707 .32633973 .34298707 .26733399 .30999757 .15229798 .2919922 .11428833 .25898744 .04725647 .21299744 .011245728 .17399597 .011245728 .13999939 .011245728 .10699463 .038253786 .10699463 .11227417 .10699463 .13128662 .10699463 .15029907 .12298584 .21331787L.14498902 .30534364Z"/>
<clipPath id="clip_6">
<path transform="matrix(1,0,0,-1,54.358,123.63)" d="M-.19925 .00258V85.04301H-8.70335V.00258ZM-8.70335 85.04301"/>
</clipPath>
<g id="pattern_tile_7">
<path transform="matrix(1,0,0,-1,0,124.128)" stroke-width=".3985" stroke-linecap="butt" stroke-miterlimit="10" stroke-linejoin="miter" fill="none" stroke="#3b7d08" d="M0 0 3.08846 3.08846"/>
</g>
<pattern id="pattern_7" patternUnits="userSpaceOnUse" patternContentUnits="userSpaceOnUse" x="0" y="0" width="2.98883" height="2.98883">
<clipPath id="clip_8">
<path d="M -.99628 -.99628 L 3.9851 -.99628 L 3.9851 3.9851 L -.99628 3.9851 Z"/>
</clipPath>
<g clip-path="url(#clip_8)">
<g transform="matrix(1,0,0,-1,-0,124.128)">
<use x="0" y="0" xlink:href="#pattern_tile_7"/>
<use x="0" y="-2.98883" xlink:href="#pattern_tile_7"/>
<use x="-2.98883" y="0" xlink:href="#pattern_tile_7"/>
<use x="-2.98883" y="-2.98883" xlink:href="#pattern_tile_7"/>
</g>
</g>
</pattern>
<path id="font_2_4" d="M.34999085 .056259157C.36099244 .015258789 .3959961-.0107421879 .43899537-.0107421879 .47399903-.0107421879 .49699403 .012252808 .5130005 .044265748 .5299988 .08027649 .54299929 .14129639 .54299929 .14329529 .54299929 .1532898 .5339966 .1532898 .5309906 .1532898 .5209961 .1532898 .519989 .14929199 .5169983 .13528443 .5029907 .07926941 .48399354 .011245728 .44198609 .011245728 .42099 .011245728 .41099549 .024261475 .41099549 .057266237 .41099549 .07926941 .4229889 .12628174 .43099977 .16130066L.45899964 .2693329C.46199037 .28433229 .47200013 .32234193 .47599793 .3373413 .48098756 .36035157 .4909973 .3983612 .4909973 .40437318 .4909973 .42237855 .47698976 .43138124 .46199037 .43138124 .45700074 .43138124 .43099977 .43037416 .4229889 .3963623 .4039917 .323349 .3600006 .14828491 .34799195 .09527588 .34700013 .091278079 .30699159 .011245728 .23399353 .011245728 .18199158 .011245728 .17199707 .056259157 .17199707 .09327698 .17199707 .14929199 .19999695 .22831726 .22599793 .29733277 .23799134 .3273468 .24299622 .34135438 .24299622 .36035157 .24299622 .405365 .21099854 .4423828 .16099549 .4423828 .06599426 .4423828 .0289917 .29733277 .0289917 .28833009 .0289917 .27833558 .038986207 .27833558 .040985109 .27833558 .050994874 .27833558 .051986696 .28033448 .056991579 .29634095 .08198547 .38336183 .11999512 .42037965 .1579895 .42037965 .16699219 .42037965 .18299866 .41937257 .18299866 .38735963 .18299866 .36335755 .17199707 .3343506 .1659851 .31933595 .1289978 .2203064 .10798645 .15829468 .10798645 .10928345 .10798645 .014251709 .1769867-.0107421879 .23098755-.0107421879 .29699708-.0107421879 .33299256 .03425598 .34999085 .056259157Z"/>
</defs>
<path transform="matrix(1,0,0,-1,54.358,123.63)" d="M0 0V85.0508H425.25404V0Z" fill="#cceeff"/>
<path transform="matrix(1,0,0,-1,54.358,123.63)" stroke-width=".99628" stroke-linecap="butt" stroke-miterlimit="10" stroke-linejoin="miter" fill="none" stroke="#1f6e96" d="M0 0V85.0508H425.25404V0Z"/>
<use data-text="s" xlink:href="#font_1_27" transform="matrix(9.4645,0,0,-9.4645,88.204,105.71)" fill="#6100ad"/>
<use data-text="l" xlink:href="#font_1_21" transform="matrix(9.4645,0,0,-9.4645,92.93625,105.71)" fill="#6100ad"/>
<use data-text="a" xlink:href="#font_1_11" transform="matrix(9.4645,0,0,-9.4645,95.03737,105.71)" fill="#6100ad"/>
<use data-text="b" xlink:href="#font_1_12" transform="matrix(9.4645,0,0,-9.4645,100.29963,105.71)" fill="#6100ad"/>
<path transform="matrix(1,0,0,-1,54.358,123.63)" d="M272.16233 85.0508H289.1696L310.43363 42.52539H293.42634Z" fill="#ffeed9"/>
<path transform="matrix(1,0,0,-1,54.358,123.63)" stroke-width=".99628" stroke-linecap="butt" stroke-miterlimit="10" stroke-linejoin="miter" fill="none" stroke="#1f6e96" d="M272.16233 85.0508H289.1696L310.43363 42.52539H293.42634Z"/>
<path transform="matrix(1,0,0,-1,54.358,123.63)" d="M301.9332 85.0508H318.94053L340.2045 42.52539H323.19075Z" fill="#ffeed9"/>
<path transform="matrix(1,0,0,-1,54.358,123.63)" stroke-width=".99628" stroke-linecap="butt" stroke-miterlimit="10" stroke-linejoin="miter" fill="none" stroke="#1f6e96" d="M301.9332 85.0508H318.94053L340.2045 42.52539H323.19075Z"/>
<path transform="matrix(1,0,0,-1,54.358,123.63)" d="M331.69764 85.0508H348.7114L369.96894 42.52539H352.9616Z" fill="#ffeed9"/>
<path transform="matrix(1,0,0,-1,54.358,123.63)" stroke-width=".99628" stroke-linecap="butt" stroke-miterlimit="10" stroke-linejoin="miter" fill="none" stroke="#1f6e96" d="M331.69764 85.0508H348.7114L369.96894 42.52539H352.9616Z"/>
<use data-text="f" xlink:href="#font_1_16" transform="matrix(9.4645,0,0,-9.4645,342.115,10.069)" fill="#2e3647"/>
<use data-text="a" xlink:href="#font_1_11" transform="matrix(9.4645,0,0,-9.4645,344.4622,10.069)" fill="#2e3647"/>
<use data-text="u" xlink:href="#font_1_29" transform="matrix(9.4645,0,0,-9.4645,349.72447,10.069)" fill="#2e3647"/>
<use data-text="l" xlink:href="#font_1_21" transform="matrix(9.4645,0,0,-9.4645,354.98674,10.069)" fill="#2e3647"/>
<use data-text="t" xlink:href="#font_1_28" transform="matrix(9.4645,0,0,-9.4645,357.08784,10.069)" fill="#2e3647"/>
<use data-text="z" xlink:href="#font_1_32" transform="matrix(9.4645,0,0,-9.4645,362.3501,10.069)" fill="#2e3647"/>
<use data-text="o" xlink:href="#font_1_24" transform="matrix(9.4645,0,0,-9.4645,366.94038,10.069)" fill="#2e3647"/>
<use data-text="n" xlink:href="#font_1_23" transform="matrix(9.4645,0,0,-9.4645,372.20265,10.069)" fill="#2e3647"/>
<use data-text="e" xlink:href="#font_1_15" transform="matrix(9.4645,0,0,-9.4645,377.4649,10.069)" fill="#2e3647"/>
<use data-text="s" xlink:href="#font_1_27" transform="matrix(9.4645,0,0,-9.4645,382.72718,10.069)" fill="#2e3647"/>
<path transform="matrix(1,0,0,-1,54.358,123.63)" stroke-width=".3985" stroke-linecap="butt" stroke-miterlimit="10" stroke-linejoin="miter" fill="none" stroke="#2e3647" d="M310.43363 112.15959C310.43363 112.15959 280.6692 85.0508 287.1506 90.95398"/>
<path transform="matrix(-.73927,.67332,.67332,.73927,341.5086,32.675996)" d="M7.84872 0C6.88487 .20735 2.64804 1.38239 0 2.66109V-2.66109C2.64804-1.38239 6.88487-.20735 7.84872 0Z" fill="#2e3647"/>
<path transform="matrix(-.73927,.67332,.67332,.73927,341.5086,32.675996)" stroke-width=".3985" stroke-linecap="butt" stroke-miterlimit="10" stroke-linejoin="miter" fill="none" stroke="#2e3647" d="M7.84872 0C6.88487 .20735 2.64804 1.38239 0 2.66109V-2.66109C2.64804-1.38239 6.88487-.20735 7.84872 0Z"/>
<path transform="matrix(1,0,0,-1,54.358,123.63)" stroke-width=".3985" stroke-linecap="butt" stroke-miterlimit="10" stroke-linejoin="miter" fill="none" stroke="#2e3647" d="M310.43363 112.15959C310.43363 112.15959 310.43363 85.0508 310.43363 93.81802"/>
<path transform="matrix(0,1,1,0,364.79164,29.811974)" d="M7.84872 0C6.88487 .20735 2.64804 1.38239 0 2.66109V-2.66109C2.64804-1.38239 6.88487-.20735 7.84872 0Z" fill="#2e3647"/>
<path transform="matrix(0,1,1,0,364.79164,29.811974)" stroke-width=".3985" stroke-linecap="butt" stroke-miterlimit="10" stroke-linejoin="miter" fill="none" stroke="#2e3647" d="M7.84872 0C6.88487 .20735 2.64804 1.38239 0 2.66109V-2.66109C2.64804-1.38239 6.88487-.20735 7.84872 0Z"/>
<path transform="matrix(1,0,0,-1,54.358,123.63)" stroke-width=".3985" stroke-linecap="butt" stroke-miterlimit="10" stroke-linejoin="miter" fill="none" stroke="#2e3647" d="M310.43363 112.15959C310.43363 112.15959 340.2045 85.0508 333.7226 90.95317"/>
<path transform="matrix(.73933,.67323,.67323,-.73933,388.0806,32.676805)" d="M7.84872 0C6.88487 .20735 2.64804 1.38239 0 2.66109V-2.66109C2.64804-1.38239 6.88487-.20735 7.84872 0Z" fill="#2e3647"/>
<path transform="matrix(.73933,.67323,.67323,-.73933,388.0806,32.676805)" stroke-width=".3985" stroke-linecap="butt" stroke-miterlimit="10" stroke-linejoin="miter" fill="none" stroke="#2e3647" d="M7.84872 0C6.88487 .20735 2.64804 1.38239 0 2.66109V-2.66109C2.64804-1.38239 6.88487-.20735 7.84872 0Z"/>
<path transform="matrix(1,0,0,-1,54.358,123.63)" stroke-width="1.99255" stroke-linecap="butt" stroke-miterlimit="10" stroke-linejoin="miter" fill="none" stroke="#6100ad" d="M0 85.05597 53.15674 84.34721 106.31348 82.22096 159.47025 78.67717 212.62702 73.71587 265.78379 67.33707 318.94053 59.54073 372.09727 50.3269 425.25404 39.69554"/>
<path transform="matrix(1,0,0,-1,54.358,123.63)" stroke-width="1.99255" stroke-linecap="butt" stroke-miterlimit="10" stroke-linejoin="miter" fill="none" stroke="#6100ad" d="M265.78379 85.0549V75.40692"/>
<path transform="matrix(0,1,1,0,320.14179,48.223077)" d="M3.93657 0C3.45314 .11797 1.32814 .78648 0 1.51398V-1.51398C1.32814-.78648 3.45314-.11797 3.93657 0Z" fill="#6100ad"/>
<path transform="matrix(0,1,1,0,320.14179,48.223077)" stroke-width="1.79326" stroke-linecap="butt" stroke-miterlimit="10" stroke-linejoin="miter" fill="none" stroke="#6100ad" d="M3.93657 0C3.45314 .11797 1.32814 .78648 0 1.51398V-1.51398C1.32814-.78648 3.45314-.11797 3.93657 0Z"/>
<path transform="matrix(1,0,0,-1,54.358,123.63)" stroke-width="1.99255" stroke-linecap="butt" stroke-miterlimit="10" stroke-linejoin="miter" fill="none" stroke="#6100ad" d="M318.94053 85.05441V67.6106"/>
<path transform="matrix(0,1,1,0,373.29853,56.019395)" d="M3.93657 0C3.45314 .11797 1.32814 .78648 0 1.51398V-1.51398C1.32814-.78648 3.45314-.11797 3.93657 0Z" fill="#6100ad"/>
<path transform="matrix(0,1,1,0,373.29853,56.019395)" stroke-width="1.79326" stroke-linecap="butt" stroke-miterlimit="10" stroke-linejoin="miter" fill="none" stroke="#6100ad" d="M3.93657 0C3.45314 .11797 1.32814 .78648 0 1.51398V-1.51398C1.32814-.78648 3.45314-.11797 3.93657 0Z"/>
<path transform="matrix(1,0,0,-1,54.358,123.63)" stroke-width="1.99255" stroke-linecap="butt" stroke-miterlimit="10" stroke-linejoin="miter" fill="none" stroke="#6100ad" d="M372.09727 85.05386V58.39676"/>
<path transform="matrix(0,1,1,0,426.45527,65.23324)" d="M3.93657 0C3.45314 .11797 1.32814 .78648 0 1.51398V-1.51398C1.32814-.78648 3.45314-.11797 3.93657 0Z" fill="#6100ad"/>
<path transform="matrix(0,1,1,0,426.45527,65.23324)" stroke-width="1.79326" stroke-linecap="butt" stroke-miterlimit="10" stroke-linejoin="miter" fill="none" stroke="#6100ad" d="M3.93657 0C3.45314 .11797 1.32814 .78648 0 1.51398V-1.51398C1.32814-.78648 3.45314-.11797 3.93657 0Z"/>
<path transform="matrix(1,0,0,-1,54.358,123.63)" stroke-width="1.99255" stroke-linecap="butt" stroke-miterlimit="10" stroke-linejoin="miter" fill="none" stroke="#6100ad" d="M425.25404 85.05319V47.7654"/>
<path transform="matrix(0,1,1,0,479.61204,75.86459)" d="M3.93657 0C3.45314 .11797 1.32814 .78648 0 1.51398V-1.51398C1.32814-.78648 3.45314-.11797 3.93657 0Z" fill="#6100ad"/>
<path transform="matrix(0,1,1,0,479.61204,75.86459)" stroke-width="1.79326" stroke-linecap="butt" stroke-miterlimit="10" stroke-linejoin="miter" fill="none" stroke="#6100ad" d="M3.93657 0C3.45314 .11797 1.32814 .78648 0 1.51398V-1.51398C1.32814-.78648 3.45314-.11797 3.93657 0Z"/>
<use data-text="v" xlink:href="#font_2_5" transform="matrix(9.811368,1.7300054,1.7300054,-9.811368,249.76874,57.01212)" fill="#6100ad"/>
<use data-text="x" xlink:href="#font_3_1" transform="matrix(6.867938,1.2110003,1.2110003,-6.867938,254.265,59.321996)" fill="#6100ad"/>
<use data-text="=" xlink:href="#font_4_2" transform="matrix(9.811368,1.7300054,1.7300054,-9.811368,262.18928,59.202196)" fill="#6100ad"/>
<use data-text="0" xlink:href="#font_4_1" transform="matrix(9.811368,1.7300054,1.7300054,-9.811368,272.5501,61.02908)" fill="#6100ad"/>
<use data-text="v" xlink:href="#font_2_5" transform="matrix(9.811368,1.7300054,1.7300054,-9.811368,247.69275,68.785648)" fill="#6100ad"/>
<use data-text="y" xlink:href="#font_3_2" transform="matrix(6.867938,1.2110003,1.2110003,-6.867938,252.18901,71.09552)" fill="#6100ad"/>
<use data-text="=" xlink:href="#font_4_2" transform="matrix(9.811368,1.7300054,1.7300054,-9.811368,259.88978,70.9363)" fill="#6100ad"/>
<use data-text="a" xlink:href="#font_2_2" transform="matrix(9.811368,1.7300054,1.7300054,-9.811368,270.2461,72.762409)" fill="#6100ad"/>
<use data-text="x" xlink:href="#font_2_6" transform="matrix(9.811368,1.7300054,1.7300054,-9.811368,275.43635,73.677577)" fill="#6100ad"/>
<use data-text="4" xlink:href="#font_5_1" transform="matrix(6.867938,1.2110003,1.2110003,-6.867938,281.66749,71.10548)" fill="#6100ad"/>
<use data-text="P" xlink:href="#font_2_1" transform="matrix(9.811368,1.7300054,1.7300054,-9.811368,245.61676,80.559169)" fill="#6100ad"/>
<use data-text="=" xlink:href="#font_4_2" transform="matrix(9.811368,1.7300054,1.7300054,-9.811368,256.00367,82.390659)" fill="#6100ad"/>
<use data-text="b" xlink:href="#font_2_3" transform="matrix(9.811368,1.7300054,1.7300054,-9.811368,266.36006,84.21675)" fill="#6100ad"/>
<use data-text="x" xlink:href="#font_2_6" transform="matrix(9.811368,1.7300054,1.7300054,-9.811368,270.5691,84.95892)" fill="#6100ad"/>
<use data-text="4" xlink:href="#font_5_1" transform="matrix(6.867938,1.2110003,1.2110003,-6.867938,276.8064,82.38792)" fill="#6100ad"/>
<g clip-path="url(#clip_6)">
<rect transform="matrix(1,0,0,-1,0,124.128)" fill="url(#pattern_7)" x="45.65465" y=".50057986" width="8.504101" height="85.04043"/>
</g>
<use data-text="u" xlink:href="#font_2_4" transform="matrix(9.9626,0,0,-9.9626,8.136003,77.51799)" fill="#6100ad"/>
<use data-text="x" xlink:href="#font_3_1" transform="matrix(6.9738,0,0,-6.9738,13.839003,79.012989)" fill="#6100ad"/>
<use data-text="=" xlink:href="#font_4_2" transform="matrix(9.9626,0,0,-9.9626,21.622004,77.51799)" fill="#6100ad"/>
<use data-text="0" xlink:href="#font_4_1" transform="matrix(9.9626,0,0,-9.9626,32.14251,77.51799)" fill="#6100ad"/>
<use data-text="u" xlink:href="#font_2_4" transform="matrix(9.9626,0,0,-9.9626,8.136003,89.47399)" fill="#6100ad"/>
<use data-text="y" xlink:href="#font_3_2" transform="matrix(6.9738,0,0,-6.9738,13.839003,90.96799)" fill="#6100ad"/>
<use data-text="=" xlink:href="#font_4_2" transform="matrix(9.9626,0,0,-9.9626,21.395005,89.47399)" fill="#6100ad"/>
<use data-text="0" xlink:href="#font_4_1" transform="matrix(9.9626,0,0,-9.9626,31.915513,89.47399)" fill="#6100ad"/>
</svg>
