<svg xmlns="http://www.w3.org/2000/svg" xmlns:xlink="http://www.w3.org/1999/xlink" version="1.1" width="463.333" height="225.948" viewBox="0 0 463.333 225.948">
<defs>
<path id="font_1_24" d="M.6819916 .4820404C.6769867 .54512026 .6639862 .5851593 .6329956 .62620547 .57699587 .7002106 .4869995 .74121096 .37799073 .74121096 .17199707 .74121096 .04399109 .59417727 .04399109 .35787965 .04399109 .12358093 .17098999-.0234375 .37399293-.0234375 .5549927-.0234375 .6759949 .08155823 .68499758 .24873352H.5389862C.5299988 .15562439 .47099305 .10255432 .37799073 .10255432 .2619934 .10255432 .19400025 .19667053 .19400025 .35588075 .19400025 .5170746 .2649994 .61320498 .3829956 .61320498 .43499757 .61320498 .47799684 .5951843 .5059967 .5601349 .5219879 .54011538 .5299988 .52108767 .5389862 .4820404H.6819916Z"/>
<path id="font_1_17" d="M.30099488 .5488281C.13598633 .5488281 .034988405 .43981935 .034988405 .26268006 .034988405 .08454895 .13598633-.0234375 .3019867-.0234375 .46598817-.0234375 .56900027 .08555603 .56900027 .25868226 .56900027 .44181825 .46998597 .5488281 .30099488 .5488281M.3019867 .43582154C.3789978 .43582154 .42900086 .36676026 .42900086 .26068116 .42900086 .15960694 .3769989 .08955383 .3019867 .08955383 .22599793 .08955383 .1749878 .15960694 .1749878 .26268006 .1749878 .36576844 .22599793 .43582154 .3019867 .43582154Z"/>
<path id="font_1_16" d="M.06298828 .54003909V0H.20298767V.3240204C.20298767 .38783265 .24798584 .42982484 .31599427 .42982484 .37599183 .42982484 .4059906 .39683534 .4059906 .33285523V0H.54599V.36184693C.54599 .4808197 .47999574 .5488281 .36499024 .5488281 .2919922 .5488281 .24299622 .52182009 .20298767 .4618225V.54003909H.06298828Z"/>
<path id="font_1_22" d="M.34999085 0 .5359955 .54003909H.3880005L.2789917 .14500427 .1619873 .54003909H.01399231L.20298767 0H.34999085Z"/>
<path id="font_1_11" d="M.5239868 .22558594C.5249939 .23757935 .5249939 .24258423 .5249939 .24957276 .5249939 .3035736 .5169983 .35365296 .5039978 .39172364 .46798707 .4898224 .3809967 .5488281 .27198792 .5488281 .116989139 .5488281 .021987915 .43681336 .021987915 .25558473 .021987915 .08255005 .115997318-.0234375 .2689972-.0234375 .3899994-.0234375 .48799134 .045547487 .5189972 .15156555H.3809967C.3639984 .108566287 .32499696 .08355713 .27398683 .08355713 .23399353 .08355713 .20199585 .10055542 .18199158 .13056946 .16899109 .15057373 .1639862 .1745758 .1619873 .22558594H.5239868M.1639862 .318573C.17298889 .40074159 .20799256 .44181825 .269989 .44181825 .30499269 .44181825 .33699037 .42478944 .35699464 .39672853 .36999513 .37669374 .37599183 .35565187 .3789978 .318573H.1639862Z"/>
<path id="font_1_20" d="M.30099488 .52853396H.22299195V.6735382H.08299255V.52853396H.01399231V.43554688H.08299255V.1035614C.08299255 .018554688 .12799073-.0234375 .21998596-.0234375 .25099183-.0234375 .27598573-.020446778 .30099488-.012451172V.08555603C.2869873 .08355713 .2789917 .08255005 .2689972 .08255005 .23199463 .08255005 .22299195 .093551639 .22299195 .14155579V.43554688H.30099488V.52853396Z"/>
<path id="font_1_13" d="M.20698548 .53956606H.066986087V0H.20698548V.53956606M.20698548 .7285156H.066986087V.60350039H.20698548V.7285156Z"/>
<path id="font_1_7" d="M.5239868 .016555787C.49899293 .03955078 .49198915 .05455017 .49198915 .08255005V.38278199C.49198915 .4928131 .4169922 .5488281 .2709961 .5488281 .125 .5488281 .04899597 .4868164 .039993287 .36175538H.1749878C.18199158 .4178009 .20498657 .43582154 .27398683 .43582154 .32798768 .43582154 .35499574 .4178009 .35499574 .3817749 .35499574 .36376954 .34599305 .3477478 .33099366 .3397522 .31199647 .32974244 .31199647 .32974244 .24299622 .3187256L.18699646 .30871583C.07998657 .29071046 .027999878 .235672 .027999878 .13859558 .027999878 .092559818 .040985109 .05455017 .06599426 .027557373 .09700012-.0044403078 .14399719-.0234375 .19198609-.0234375 .2519989-.0234375 .30699159 .0025482178 .35598756 .05355835 .35598756 .025558472 .35899354 .015548706 .37199403-.00044250489H.5239868V.016555787M.35499574 .21664429C.35499574 .1355896 .31498719 .08955383 .24398804 .08955383 .19699097 .08955383 .16799927 .11457825 .16799927 .15460205 .16799927 .19664002 .18998719 .21664429 .24798584 .22866822L.29599 .2376709C.33299256 .24467469 .33898927 .24667359 .35499574 .25468446V.21664429Z"/>
<path id="font_1_14" d="M.20698548 .7285156H.066986087V0H.20698548V.7285156Z"/>
<path id="font_1_4" d="M.5109863 0H.6609955V.7285156H.5109863V.23284912L.22200012 .7285156H.067993167V0H.21798706V.50364688L.5109863 0Z"/>
<path id="font_1_21" d="M.54100039-.00044250489V.54003909H.40098573V.20167542C.40098573 .13760376 .35598756 .09555054 .28799439 .09555054 .22799683 .09555054 .19799805 .127594 .19799805 .19265747V.54003909H.057998659V.16363526C.057998659 .044555665 .12399292-.0234375 .23899842-.0234375 .31199647-.0234375 .36099244 .0035552979 .40098573 .06355286V-.00044250489H.54100039Z"/>
<path id="font_1_15" d="M.05999756 .54003909V0H.19999695V.3240204C.19999695 .38983155 .23599243 .42982484 .29599 .42982484 .34298707 .42982484 .37199403 .40283204 .37199403 .35984803V0H.5119934V.3238678C.5119934 .38983155 .5479889 .42982484 .60798647 .42982484 .6549988 .42982484 .6839905 .40283204 .6839905 .35984803V0H.82398989V.38183595C.82398989 .4868164 .7599945 .5488281 .6519928 .5488281 .58399966 .5488281 .5359955 .52482607 .49398805 .4688263 .46798707 .51982119 .4139862 .5488281 .34700013 .5488281 .2849884 .5490265 .24499512 .5280304 .19898987 .47303773V.54003909H.05999756Z"/>
<path id="font_1_8" d="M.05899048 .7285156V-.00044250489H.19898987V.05455017C.23298645 .0015563965 .27999879-.0234375 .34799195-.0234375 .47698976-.0234375 .57499697 .0995636 .57499697 .2626953 .57499697 .33573915 .5529938 .4098053 .5169983 .4618225 .47999574 .5148163 .4139862 .5488281 .34799195 .5488281 .2809906 .5488281 .23298645 .52381899 .19898987 .46981813V.7285156H.05899048M.31698609 .43182374C.38598634 .43182374 .43499757 .36177064 .43499757 .26168824 .43499757 .16360474 .38598634 .093551639 .31698609 .093551639 .24598694 .093551639 .19898987 .16160584 .19898987 .2646942 .19898987 .36276246 .24699402 .43182374 .31698609 .43182374Z"/>
<path id="font_1_18" d="M.06298828 .54003909V0H.20298767V.28701783C.20298767 .3688202 .24398804 .40982057 .32598878 .40982057 .34098817 .40982057 .35099793 .40881349 .36999513 .40582276V.54782107C.3619995 .5488281 .35699464 .5488281 .35299684 .5488281 .2889862 .5488281 .23298645 .5068207 .20298767 .43382264V.54003909H.06298828Z"/>
<path id="font_1_12" d="M.4079895 .53982546V.45681764C.3659973 .520813 .31999208 .5488281 .2579956 .5488281 .12998963 .5488281 .033996583 .42381288 .033996583 .25668336 .033996583 .08856201 .12199402-.0234375 .25498963-.0234375 .31799317-.0234375 .35598756-.0044403078 .4079895 .05455017V-.018447876C.4079895-.083618167 .35899354-.12875366 .2889862-.12875366 .23599243-.12875366 .20098877-.10668945 .18998719-.06556702H.04499817C.04598999-.10769653 .06199646-.13676453 .09799194-.1667633 .14099121-.20175171 .20098877-.21875 .28399659-.21875 .44699098-.21875 .54100039-.14575196 .54100039-.018447876V.53982546H.4079895M.28799439 .43182374C.35798646 .43182374 .4099884 .35876466 .4099884 .25868226 .4099884 .16061402 .35899354 .093551639 .28599549 .093551639 .21998596 .093551639 .17399597 .16061402 .17399597 .25868226 .17399597 .36076356 .21998596 .43182374 .28799439 .43182374Z"/>
<path id="font_2_1" d="M.2749939 .7089844C.20899964 .7089844 .14898682 .6799774 .11199951 .63098147 .06599426 .5689392 .042999269 .4738617 .042999269 .34277345 .042999269 .10359192 .12298584-.0234375 .2749939-.0234375 .4249878-.0234375 .5069885 .10359192 .5069885 .33676148 .5069885 .47486878 .4850006 .5669403 .43798829 .63098147 .40098573 .68096926 .34199525 .7089844 .2749939 .7089844M.2749939 .63098147C.36999513 .63098147 .4169922 .5349121 .4169922 .34477235 .4169922 .14363098 .37098695 .049560548 .272995 .049560548 .17999268 .049560548 .1329956 .14762879 .1329956 .34176637 .1329956 .53590396 .17999268 .63098147 .2749939 .63098147Z"/>
<path id="font_2_2" d="M.25898744 .5049896V0H.34700013V.70899966H.2889862C.2579956 .59999087 .23799134 .58499148 .101989749 .56799319V.5049896H.25898744Z"/>
<path id="font_2_3" d="M.5059967 .08699036H.1329956C.14199829 .14498902 .17399597 .18199158 .26098634 .23298645L.36099244 .2869873C.45999146 .34098817 .5109863 .4139862 .5109863 .50097659 .5109863 .5599823 .4869995 .614975 .44499208 .65296939 .40299989 .690979 .35099793 .7089844 .28399659 .7089844 .19400025 .7089844 .1269989 .67697146 .08799744 .6169739 .06298828 .5789795 .051986696 .53497317 .049987794 .46298219H.13798523C.14099121 .5109863 .14698792 .539978 .15899658 .562973 .18199158 .6059723 .22799683 .63197329 .2809906 .63197329 .36099244 .63197329 .42099 .5749817 .42099 .49897767 .42099 .4429779 .3880005 .394989 .32499696 .35897828L.23298645 .30699159C.084991458 .22299195 .041992189 .1559906 .033996583 0H.5059967V.08699036Z"/>
<path id="font_2_4" d="M.22099304 .3247528H.23199463L.2689972 .3257599C.3659973 .3257599 .41600038 .28172303 .41600038 .19665528 .41600038 .10758972 .36099244 .05455017 .2689972 .05455017 .17298889 .05455017 .12599182 .10258484 .11999512 .20567322H.03199768C.035995485 .1486206 .04598999 .11160278 .06298828 .079574588 .09899902 .011550903 .16899109-.0234375 .2659912-.0234375 .4119873-.0234375 .5059967 .063568118 .5059967 .19766236 .5059967 .28771974 .47099305 .33776856 .38598634 .36679078 .45199586 .392807 .4850006 .44284059 .4850006 .5138855 .4850006 .63597109 .4039917 .7089844 .2689972 .7089844 .12599182 .7089844 .049987794 .63098147 .04699707 .47987367H.1349945C.13598633 .52290347 .13999939 .5469208 .15098572 .56892397 .17098999 .60795596 .21499634 .63197329 .269989 .63197329 .34799195 .63197329 .394989 .5859375 .394989 .5108948 .394989 .46084596 .3769989 .4308319 .33799745 .41482545 .31399537 .40481568 .2829895 .4008026 .22099304 .3998108V.3247528Z"/>
<path id="font_2_5" d="M.32699586 .17001343V0H.4149933V.17001343H.519989V.24902344H.4149933V.7090149H.34999085L.027999878 .26301576V.17001343H.32699586M.32699586 .24902344H.10499573L.32699586 .559021V.24902344Z"/>
<path id="font_1_19" d="M.5049896 .36576844C.5029907 .47982789 .4149933 .5488281 .269989 .5488281 .1329956 .5488281 .04798889 .47982789 .04798889 .36875917 .04798889 .33273316 .05899048 .30171205 .07798767 .28070069 .09700012 .26168824 .11399841 .25268556 .1659851 .235672L.33299256 .18362427C.36799623 .17262268 .37998963 .16160584 .37998963 .1395874 .37998963 .10656738 .34098817 .08654785 .27598573 .08654785 .23999024 .08654785 .21099854 .093566898 .19299317 .10557556 .17799378 .11657715 .17199707 .12757874 .1659851 .15660095H.0289917C.032989503 .03855896 .11999512-.0234375 .28399659-.0234375 .35899354-.0234375 .41600038-.007446289 .45599366 .024551392 .49598695 .056549074 .519989 .10656738 .519989 .15960694 .519989 .22966004 .4850006 .27468873 .4139862 .29571534L.23699951 .34675599C.19799805 .35876466 .18798828 .36676026 .18798828 .3887787 .18798828 .41880799 .21998596 .4388275 .2689972 .4388275 .33599855 .4388275 .36898805 .41479493 .36999513 .36576844H.5049896Z"/>
<path id="font_1_6" d="M.39698792 0 .6469879 .7285156H.49598695L.33699037 .17988587 .1749878 .7285156H.023986817L.269989 0H.39698792Z"/>
<path id="font_1_9" d="M.5219879 .33773805C.5119934 .46981813 .42399598 .5488281 .2889862 .5488281 .12799073 .5488281 .033996583 .44282533 .033996583 .25868226 .033996583 .08055115 .1269989-.0234375 .2869873-.0234375 .41799928-.0234375 .5089874 .057556154 .5219879 .18663025H.3880005C.36999513 .11657715 .34199525 .08955383 .28799439 .08955383 .21699524 .08955383 .17399597 .15361023 .17399597 .25868226 .17399597 .3097229 .18399048 .35775758 .20098877 .38978578 .21699524 .4197998 .24798584 .43582154 .28799439 .43582154 .34498597 .43582154 .37199403 .40879823 .3880005 .33773805H.5219879Z"/>
<path id="font_1_1" d="M.07699585 0H.3619995C.47299195 0 .54299929 .025985718 .59199526 .084991458 .6499939 .15296936 .68099978 .25186158 .68099978 .3647461 .68099978 .4766388 .6499939 .575531 .59199526 .64450076 .54299929 .70350649 .47399903 .7285156 .3619995 .7285156H.07699585V0M.22698975 .125V.60350039H.3619995C.47499085 .60350039 .5309906 .5245819 .5309906 .36375428 .5309906 .20391846 .47499085 .125 .3619995 .125H.22698975Z"/>
<path id="font_1_3" d="M.21598816 .5676117 .34700013 0H.49699403L.6259918 .5676117V0H.776001V.7285156H.5499878L.42199708 .14889527 .2899933 .7285156H.06599426V0H.21598816V.5676117Z"/>
<path id="font_1_5" d="M.22599793 .25975038H.41299439C.5469971 .25975038 .6329956 .3547516 .6329956 .5026245 .6329956 .6485138 .5499878 .7285156 .397995 .7285156H.07598877V0H.22599793V.25975038M.22599793 .38476563V.60350039H.3659973C.44599916 .60350039 .48298646 .5685425 .48298646 .49363709 .48298646 .4197235 .44599916 .38476563 .3659973 .38476563H.22599793Z"/>
<path id="font_1_23" d="M.35499574 .27201844 .5309906 .54003909H.36299134L.27598573 .37701417 .18798828 .54003909H.019989014L.19599915 .27201844 .015991211 0H.18399048L.27598573 .16799927 .36698915 0H.5349884L.35499574 .27201844Z"/>
<path id="font_2_6" d="M.47599793 .7089844H.10998535L.056991579 .32273866H.13798523C.1789856 .3717804 .21299744 .38879396 .2679901 .38879396 .36299134 .38879396 .4229889 .32374574 .4229889 .2186737 .4229889 .11659241 .3639984 .05455017 .2679901 .05455017 .19099427 .05455017 .14399719 .09358215 .12298584 .17364502H.034988405C.04699707 .115600589 .056991579 .08758545 .07798767 .061553956 .117996219 .0075531008 .18998719-.0234375 .269989-.0234375 .41299439-.0234375 .5130005 .080566409 .5130005 .23068238 .5130005 .37077333 .41999818 .46679688 .28399659 .46679688 .23399353 .46679688 .19400025 .4537964 .15299988 .42378236L.18099976 .62197878H.47599793V.7089844Z"/>
<path id="font_2_7" d="M.49798585 .5236664C.48098756 .63998416 .40499879 .7089844 .29699708 .7089844 .21899414 .7089844 .14898682 .67097476 .10699463 .60791018 .06298828 .53871157 .042999269 .4514618 .042999269 .32243348 .042999269 .20349121 .06098938 .1275177 .102996829 .06454468 .14099121 .0075531008 .20298767-.0234375 .2809906-.0234375 .41600038-.0234375 .5130005 .076538089 .5130005 .21548462 .5130005 .34742738 .4229889 .4404297 .29599 .4404297 .22599793 .4404297 .17098999 .41342164 .1329956 .36141969 .13398743 .5346985 .18998719 .63098147 .29100038 .63098147 .35299684 .63098147 .3959961 .5918579 .4099884 .5236664H.49798585M.2849884 .36242677C.36999513 .36242677 .4229889 .30345155 .4229889 .2084961 .4229889 .119522098 .36299134 .05455017 .28199769 .05455017 .19999695 .05455017 .13798523 .122528079 .13798523 .21348572 .13798523 .30145265 .19799805 .36242677 .2849884 .36242677Z"/>
<path id="font_2_8" d="M.519989 .7089844H.04598999V.62197878H.42900086C.2599945 .38098146 .19099427 .23298645 .13798523 0H.23199463C.2709961 .22698975 .3600006 .4219818 .519989 .63497927V.7089844Z"/>
<path id="font_2_9" d="M.3909912 .37297059C.46398927 .41697694 .48799134 .4529724 .48799134 .51997378 .48799134 .63098147 .40098573 .7089844 .2749939 .7089844 .1499939 .7089844 .06199646 .63098147 .06199646 .51997378 .06199646 .4539795 .085998538 .417984 .1579895 .37297059 .07699585 .33398438 .036987306 .27488709 .036987306 .19676209 .036987306 .0665741 .1349945-.0234375 .2749939-.0234375 .4149933-.0234375 .5130005 .0665741 .5130005 .19577027 .5130005 .27488709 .47299195 .33398438 .3909912 .37297059M.2749939 .63098147C.34999085 .63098147 .397995 .5869751 .397995 .51797488 .397995 .4519806 .34899903 .40797425 .2749939 .40797425 .20098877 .40797425 .1519928 .4519806 .1519928 .51898196 .1519928 .5869751 .20098877 .63098147 .2749939 .63098147M.2749939 .33398438C.36299134 .33398438 .4229889 .27789308 .4229889 .19476319 .4229889 .11064148 .36299134 .05455017 .272995 .05455017 .18699646 .05455017 .1269989 .11164856 .1269989 .19476319 .1269989 .27789308 .18699646 .33398438 .2749939 .33398438Z"/>
<path id="font_2_10" d="M.052993776 .16186524C.069992069 .045547487 .1459961-.0234375 .2539978-.0234375 .33198548-.0234375 .40299989 .014556885 .44400025 .07762146 .4889984 .14682007 .5089874 .23408509 .5089874 .36309815 .5089874 .4820404 .4909973 .5580139 .44898988 .62098696 .4099884 .6779785 .34799195 .7089844 .269989 .7089844 .1349945 .7089844 .037994386 .60899356 .037994386 .470047 .037994386 .33810426 .12799073 .24511719 .2559967 .24511719 .32299806 .24511719 .37199403 .269104 .41799928 .32411195 .4169922 .15083313 .36099244 .05455017 .2599945 .05455017 .19799805 .05455017 .15499878 .093673709 .14099121 .16186524H.052993776M.2689972 .63197329C.35099793 .63197329 .41299439 .5640106 .41299439 .4720459 .41299439 .38508607 .35198976 .32310487 .2659912 .32310487 .18099976 .32310487 .12799073 .38208009 .12799073 .47705079 .12799073 .56700137 .18798828 .63197329 .2689972 .63197329Z"/>
<path id="font_1_2" d="M.22898865 .31347657H.5779877V.43847657H.22898865V.60350039H.60598757V.7285156H.07899475V0H.6239929V.125H.22898865V.31347657Z"/>
<path id="font_1_10" d="M.40499879-.00044250489H.54499819V.7285156H.40499879V.46981813C.36999513 .52381899 .32299806 .5488281 .2559967 .5488281 .1269989 .5488281 .0289917 .42481996 .0289917 .26168824 .0289917 .18862915 .050994874 .11457825 .08699036 .062561038 .12399292 .010559082 .18998719-.0234375 .2559967-.0234375 .32299806-.0234375 .36999513 .0015563965 .40499879 .05455017V-.00044250489M.2869873 .43182374C.35798646 .43182374 .40499879 .36276246 .40499879 .25968934 .40499879 .16160584 .35699464 .093551639 .2869873 .093551639 .21699524 .093551639 .16899109 .16261292 .16899109 .26168824 .16899109 .36177064 .21699524 .43182374 .2869873 .43182374Z"/>
</defs>
<use data-text="C" xlink:href="#font_1_24" transform="matrix(9.9626,0,0,-9.9626,43.778009,10.039001)"/>
<use data-text="o" xlink:href="#font_1_17" transform="matrix(9.9626,0,0,-9.9626,50.971006,10.039001)"/>
<use data-text="n" xlink:href="#font_1_16" transform="matrix(9.9626,0,0,-9.9626,57.05815,10.039001)"/>
<use data-text="v" xlink:href="#font_1_22" transform="matrix(9.9626,0,0,-9.9626,62.7468,10.039001)"/>
<use data-text="e" xlink:href="#font_1_11" transform="matrix(9.9626,0,0,-9.9626,68.286,10.039001)"/>
<use data-text="n" xlink:href="#font_1_16" transform="matrix(9.9626,0,0,-9.9626,73.82521,10.039001)"/>
<use data-text="t" xlink:href="#font_1_20" transform="matrix(9.9626,0,0,-9.9626,79.91236,10.039001)"/>
<use data-text="i" xlink:href="#font_1_13" transform="matrix(9.9626,0,0,-9.9626,83.229907,10.039001)"/>
<use data-text="o" xlink:href="#font_1_17" transform="matrix(9.9626,0,0,-9.9626,85.999507,10.039001)"/>
<use data-text="n" xlink:href="#font_1_16" transform="matrix(9.9626,0,0,-9.9626,92.086658,10.039001)"/>
<use data-text="a" xlink:href="#font_1_7" transform="matrix(9.9626,0,0,-9.9626,98.173809,10.039001)"/>
<use data-text="l" xlink:href="#font_1_14" transform="matrix(9.9626,0,0,-9.9626,103.71301,10.039001)"/>
<use data-text="N" xlink:href="#font_1_4" transform="matrix(9.9626,0,0,-9.9626,109.800159,10.039001)"/>
<use data-text="u" xlink:href="#font_1_21" transform="matrix(9.9626,0,0,-9.9626,116.99316,10.039001)"/>
<use data-text="m" xlink:href="#font_1_15" transform="matrix(9.9626,0,0,-9.9626,123.08031,10.039001)"/>
<use data-text="b" xlink:href="#font_1_8" transform="matrix(9.9626,0,0,-9.9626,131.93708,10.039001)"/>
<use data-text="e" xlink:href="#font_1_11" transform="matrix(9.9626,0,0,-9.9626,138.0242,10.039001)"/>
<use data-text="r" xlink:href="#font_1_18" transform="matrix(9.9626,0,0,-9.9626,143.56342,10.039001)"/>
<use data-text="i" xlink:href="#font_1_13" transform="matrix(9.9626,0,0,-9.9626,147.43888,10.039001)"/>
<use data-text="n" xlink:href="#font_1_16" transform="matrix(9.9626,0,0,-9.9626,150.20847,10.039001)"/>
<use data-text="g" xlink:href="#font_1_12" transform="matrix(9.9626,0,0,-9.9626,156.29563,10.039001)"/>
<path transform="matrix(1,0,0,-1,230.641,64.121997)" d="M-167.96747-42.52022C-167.96747-41.353-168.9137-40.40677-170.08092-40.40677-171.24814-40.40677-172.19435-41.353-172.19435-42.52022-172.19435-43.68744-171.24814-44.63365-170.08092-44.63365-168.9137-44.63365-167.96747-43.68744-167.96747-42.52022ZM-170.08092-42.52022" fill="#cf91ff"/>
<use data-text="0" xlink:href="#font_2_1" transform="matrix(7.9701,0,0,-7.9701,53.101015,109.382999)" fill="#cf91ff"/>
<path transform="matrix(1,0,0,-1,230.641,64.121997)" d="M-82.92703-42.52022C-82.92703-41.353-83.87325-40.40677-85.04047-40.40677-86.20769-40.40677-87.1539-41.353-87.1539-42.52022-87.1539-43.68744-86.20769-44.63365-85.04047-44.63365-83.87325-44.63365-82.92703-43.68744-82.92703-42.52022ZM-85.04047-42.52022" fill="#cf91ff"/>
<use data-text="1" xlink:href="#font_2_2" transform="matrix(7.9701,0,0,-7.9701,148.632,109.449)" fill="#cf91ff"/>
<path transform="matrix(1,0,0,-1,230.641,64.121997)" d="M-125.44725 0C-125.44725 1.16722-126.39346 2.11343-127.56068 2.11343-128.72792 2.11343-129.67414 1.16722-129.67414 0-129.67414-1.16722-128.72792-2.11343-127.56068-2.11343-126.39346-2.11343-125.44725-1.16722-125.44725 0ZM-127.56068 0" fill="#cf91ff"/>
<use data-text="2" xlink:href="#font_2_3" transform="matrix(7.9701,0,0,-7.9701,100.86601,72.767)" fill="#cf91ff"/>
<path transform="matrix(1,0,0,-1,230.641,64.121997)" d="M-167.96747 42.52022C-167.96747 43.68744-168.9137 44.63365-170.08092 44.63365-171.24814 44.63365-172.19435 43.68744-172.19435 42.52022-172.19435 41.353-171.24814 40.40677-170.08092 40.40677-168.9137 40.40677-167.96747 41.353-167.96747 42.52022ZM-170.08092 42.52022" fill="#cf91ff"/>
<use data-text="3" xlink:href="#font_2_4" transform="matrix(7.9701,0,0,-7.9701,53.101015,24.343995)" fill="#cf91ff"/>
<path transform="matrix(1,0,0,-1,230.641,64.121997)" d="M-82.92703 42.52022C-82.92703 43.68744-83.87325 44.63365-85.04047 44.63365-86.20769 44.63365-87.1539 43.68744-87.1539 42.52022-87.1539 41.353-86.20769 40.40677-85.04047 40.40677-83.87325 40.40677-82.92703 41.353-82.92703 42.52022ZM-85.04047 42.52022" fill="#cf91ff"/>
<use data-text="4" xlink:href="#font_2_5" transform="matrix(7.9701,0,0,-7.9701,148.632,24.409989)" fill="#cf91ff"/>
<path transform="matrix(1,0,0,-1,230.641,64.121997)" stroke-width=".74721" stroke-linecap="butt" stroke-miterlimit="10" stroke-linejoin="miter" fill="none" stroke="#33baff" d="M-167.59387-42.52022H-87.52751"/>
<path transform="matrix(1,0,0,-1,230.641,64.121997)" stroke-width=".74721" stroke-linecap="butt" stroke-miterlimit="10" stroke-linejoin="miter" fill="none" stroke="#33baff" d="M-85.04047-40.03317V40.03317"/>
<path transform="matrix(1,0,0,-1,230.641,64.121997)" stroke-width=".74721" stroke-linecap="butt" stroke-miterlimit="10" stroke-linejoin="miter" fill="none" stroke="#33baff" d="M-87.52751 42.52022H-167.59387"/>
<path transform="matrix(1,0,0,-1,230.641,64.121997)" stroke-width=".74721" stroke-linecap="butt" stroke-miterlimit="10" stroke-linejoin="miter" fill="none" stroke="#33baff" d="M-170.08092 40.03317V-40.03317"/>
<path transform="matrix(1,0,0,-1,230.641,64.121997)" stroke-width=".74721" stroke-linecap="butt" stroke-miterlimit="10" stroke-linejoin="miter" fill="none" stroke="#33baff" d="M-168.32231-40.76161-129.31929-1.75859"/>
<path transform="matrix(1,0,0,-1,230.641,64.121997)" stroke-width=".74721" stroke-linecap="butt" stroke-miterlimit="10" stroke-linejoin="miter" fill="none" stroke="#33baff" d="M-86.79906-40.76161-125.8021-1.75859"/>
<path transform="matrix(1,0,0,-1,230.641,64.121997)" stroke-width=".74721" stroke-linecap="butt" stroke-miterlimit="10" stroke-linejoin="miter" fill="none" stroke="#33baff" d="M-168.32231 40.76161-129.31929 1.75859"/>
<path transform="matrix(1,0,0,-1,230.641,64.121997)" stroke-width=".74721" stroke-linecap="butt" stroke-miterlimit="10" stroke-linejoin="miter" fill="none" stroke="#33baff" d="M-86.79906 40.76161-125.8021 1.75859"/>
<use data-text="0" xlink:href="#font_2_1" transform="matrix(7.9701,0,0,-7.9701,72.520008,66.864)" fill="#f58000"/>
<use data-text="1" xlink:href="#font_2_2" transform="matrix(7.9701,0,0,-7.9701,100.86601,95.276)" fill="#f58000"/>
<use data-text="2" xlink:href="#font_2_3" transform="matrix(7.9701,0,0,-7.9701,100.86601,38.582994)" fill="#f58000"/>
<use data-text="3" xlink:href="#font_2_4" transform="matrix(7.9701,0,0,-7.9701,129.21302,66.864)" fill="#f58000"/>
<use data-text="C" xlink:href="#font_1_24" transform="matrix(7.9701,0,0,-7.9701,8.518005,137.867)"/>
<use data-text="e" xlink:href="#font_1_11" transform="matrix(7.9701,0,0,-7.9701,14.272418,137.867)"/>
<use data-text="l" xlink:href="#font_1_14" transform="matrix(7.9701,0,0,-7.9701,18.703795,137.867)"/>
<use data-text="l" xlink:href="#font_1_14" transform="matrix(7.9701,0,0,-7.9701,20.919484,137.867)"/>
<use data-text="s" xlink:href="#font_1_19" transform="matrix(7.9701,0,0,-7.9701,23.135172,137.867)"/>
<use data-text="V" xlink:href="#font_1_6" transform="matrix(7.9701,0,0,-7.9701,2.6560059,222.89499)"/>
<use data-text="e" xlink:href="#font_1_11" transform="matrix(7.9701,0,0,-7.9701,7.573558,222.89499)"/>
<use data-text="r" xlink:href="#font_1_18" transform="matrix(7.9701,0,0,-7.9701,12.004934,222.89499)"/>
<use data-text="t" xlink:href="#font_1_20" transform="matrix(7.9701,0,0,-7.9701,15.264706,222.89499)"/>
<use data-text="i" xlink:href="#font_1_13" transform="matrix(7.9701,0,0,-7.9701,17.918749,222.89499)"/>
<use data-text="c" xlink:href="#font_1_9" transform="matrix(7.9701,0,0,-7.9701,20.134438,222.89499)"/>
<use data-text="e" xlink:href="#font_1_11" transform="matrix(7.9701,0,0,-7.9701,24.565814,222.89499)"/>
<use data-text="s" xlink:href="#font_1_19" transform="matrix(7.9701,0,0,-7.9701,28.997189,222.89499)"/>
<path transform="matrix(1,0,0,-1,230.641,64.121997)" d="M-164.1602-70.86703C-164.1602-67.59706-166.81098-64.94629-170.08095-64.94629-173.35092-64.94629-176.0017-67.59706-176.0017-70.86703-176.0017-74.13701-173.35092-76.78778-170.08095-76.78778-166.81098-76.78778-164.1602-74.13701-164.1602-70.86703ZM-170.08095-70.86703" fill="#f8a64d"/>
<use data-text="0" xlink:href="#font_2_1" transform="matrix(7.9701,0,0,-7.9701,58.347005,137.73)"/>
<path transform="matrix(1,0,0,-1,230.641,64.121997)" d="M-127.33586-70.86703C-127.33586-67.61171-129.97476-64.97281-133.2301-64.97281-136.48545-64.97281-139.12433-67.61171-139.12433-70.86703-139.12433-74.12238-136.48545-76.76128-133.2301-76.76128-129.97476-76.76128-127.33586-74.12238-127.33586-70.86703ZM-133.2301-70.86703" fill="#f8a64d"/>
<use data-text="1" xlink:href="#font_2_2" transform="matrix(7.9701,0,0,-7.9701,95.19701,137.79599)"/>
<path transform="matrix(1,0,0,-1,230.641,64.121997)" d="M-90.48503-70.86703C-90.48503-67.61171-93.12392-64.97281-96.37926-64.97281-99.6346-64.97281-102.2735-67.61171-102.2735-70.86703-102.2735-74.12238-99.6346-76.76128-96.37926-76.76128-93.12392-76.76128-90.48503-74.12238-90.48503-70.86703ZM-96.37926-70.86703" fill="#f8a64d"/>
<use data-text="2" xlink:href="#font_2_3" transform="matrix(7.9701,0,0,-7.9701,132.047,137.79599)"/>
<path transform="matrix(1,0,0,-1,230.641,64.121997)" d="M-53.60767-70.86703C-53.60767-67.59706-56.25844-64.94629-59.52841-64.94629-62.79839-64.94629-65.44916-67.59706-65.44916-70.86703-65.44916-74.13701-62.79839-76.78778-59.52841-76.78778-56.25844-76.78778-53.60767-74.13701-53.60767-70.86703ZM-59.52841-70.86703" fill="#f8a64d"/>
<use data-text="3" xlink:href="#font_2_4" transform="matrix(7.9701,0,0,-7.9701,168.89801,137.73)"/>
<path transform="matrix(1,0,0,-1,230.641,64.121997)" d="M-164.1602-155.90749C-164.1602-152.63751-166.81098-149.98674-170.08095-149.98674-173.35092-149.98674-176.0017-152.63751-176.0017-155.90749-176.0017-159.17746-173.35092-161.82823-170.08095-161.82823-166.81098-161.82823-164.1602-159.17746-164.1602-155.90749ZM-170.08095-155.90749" fill="#ddb2ff"/>
<use data-text="0" xlink:href="#font_2_1" transform="matrix(7.9701,0,0,-7.9701,58.347005,222.769)"/>
<path transform="matrix(1,0,0,-1,230.641,64.121997)" d="M-135.8399-155.90749C-135.8399-152.65215-138.47879-150.01325-141.73413-150.01325-144.98947-150.01325-147.62837-152.65215-147.62837-155.90749-147.62837-159.16283-144.98947-161.80171-141.73413-161.80171-138.47879-161.80171-135.8399-159.16283-135.8399-155.90749ZM-141.73413-155.90749" fill="#ddb2ff"/>
<use data-text="1" xlink:href="#font_2_2" transform="matrix(7.9701,0,0,-7.9701,86.693019,222.83499)"/>
<path transform="matrix(1,0,0,-1,230.641,64.121997)" d="M-107.49309-155.90749C-107.49309-152.65215-110.13199-150.01325-113.38733-150.01325-116.64265-150.01325-119.28156-152.65215-119.28156-155.90749-119.28156-159.16283-116.64265-161.80171-113.38733-161.80171-110.13199-161.80171-107.49309-159.16283-107.49309-155.90749ZM-113.38733-155.90749" fill="#ddb2ff"/>
<use data-text="2" xlink:href="#font_2_3" transform="matrix(7.9701,0,0,-7.9701,115.03901,222.83499)"/>
<path transform="matrix(1,0,0,-1,230.641,64.121997)" d="M-79.11977-155.90749C-79.11977-152.63751-81.77054-149.98674-85.04051-149.98674-88.31049-149.98674-90.96126-152.63751-90.96126-155.90749-90.96126-159.17746-88.31049-161.82823-85.04051-161.82823-81.77054-161.82823-79.11977-159.17746-79.11977-155.90749ZM-85.04051-155.90749" fill="#ddb2ff"/>
<use data-text="3" xlink:href="#font_2_4" transform="matrix(7.9701,0,0,-7.9701,143.386,222.769)"/>
<path transform="matrix(1,0,0,-1,230.641,64.121997)" d="M-50.79947-155.90749C-50.79947-152.65215-53.43837-150.01325-56.69371-150.01325-59.94904-150.01325-62.58794-152.65215-62.58794-155.90749-62.58794-159.16283-59.94904-161.80171-56.69371-161.80171-53.43837-161.80171-50.79947-159.16283-50.79947-155.90749ZM-56.69371-155.90749" fill="#ddb2ff"/>
<use data-text="4" xlink:href="#font_2_5" transform="matrix(7.9701,0,0,-7.9701,171.732,222.83499)"/>
<path transform="matrix(1,0,0,-1,230.641,64.121997)" stroke-width=".74721" stroke-linecap="butt" stroke-miterlimit="10" stroke-linejoin="miter" fill="none" stroke="#000000" d="M-170.08095-77.16139V-145.08515"/>
<path transform="matrix(0,1,1,0,60.56006,209.20714)" d="M4.52798 0C3.18633 .25154 1.00621 1.00621-.5031 1.88664V-1.88664C1.00621-1.00621 3.18633-.25154 4.52798 0"/>
<path transform="matrix(1,0,0,-1,230.641,64.121997)" stroke-width=".74721" stroke-linecap="butt" stroke-miterlimit="10" stroke-linejoin="miter" fill="none" stroke="#000000" d="M-170.08095-77.16139-116.17696-146.07329"/>
<path transform="matrix(.61609,.78763,.78763,-.61609,114.46404,210.19527)" d="M4.52798 0C3.18633 .25154 1.00621 1.00621-.5031 1.88664V-1.88664C1.00621-1.00621 3.18633-.25154 4.52798 0"/>
<path transform="matrix(1,0,0,-1,230.641,64.121997)" stroke-width=".74721" stroke-linecap="butt" stroke-miterlimit="10" stroke-linejoin="miter" fill="none" stroke="#000000" d="M-170.08095-77.16139-88.487-146.67684"/>
<path transform="matrix(.76115,.64848,.64848,-.76115,142.154,210.79882)" d="M4.52798 0C3.18633 .25154 1.00621 1.00621-.5031 1.88664V-1.88664C1.00621-1.00621 3.18633-.25154 4.52798 0"/>
<path transform="matrix(1,0,0,-1,230.641,64.121997)" stroke-width=".74721" stroke-linecap="butt" stroke-miterlimit="10" stroke-linejoin="miter" fill="none" stroke="#000000" d="M-133.2301-77.13487-168.02886-145.57703"/>
<path transform="matrix(-.4532,.89137,.89137,.4532,62.612154,209.699)" d="M4.52798 0C3.18633 .25154 1.00621 1.00621-.5031 1.88664V-1.88664C1.00621-1.00621 3.18633-.25154 4.52798 0"/>
<path transform="matrix(1,0,0,-1,230.641,64.121997)" stroke-width=".74721" stroke-linecap="butt" stroke-miterlimit="10" stroke-linejoin="miter" fill="none" stroke="#000000" d="M-133.2301-77.13487-141.2067-145.14269"/>
<path transform="matrix(-.11649,.99315,.99315,.11649,89.43431,209.26468)" d="M4.52798 0C3.18633 .25154 1.00621 1.00621-.5031 1.88664V-1.88664C1.00621-1.00621 3.18633-.25154 4.52798 0"/>
<path transform="matrix(1,0,0,-1,230.641,64.121997)" stroke-width=".74721" stroke-linecap="butt" stroke-miterlimit="10" stroke-linejoin="miter" fill="none" stroke="#000000" d="M-133.2301-77.13487-114.58246-145.27245"/>
<path transform="matrix(.26395,.9645,.9645,-.26395,116.05853,209.39444)" d="M4.52798 0C3.18633 .25154 1.00621 1.00621-.5031 1.88664V-1.88664C1.00621-1.00621 3.18633-.25154 4.52798 0"/>
<path transform="matrix(1,0,0,-1,230.641,64.121997)" stroke-width=".74721" stroke-linecap="butt" stroke-miterlimit="10" stroke-linejoin="miter" fill="none" stroke="#000000" d="M-96.37926-77.13487-85.74034-145.13974"/>
<path transform="matrix(.15456,.98795,.98795,-.15456,144.90067,209.26174)" d="M4.52798 0C3.18633 .25154 1.00621 1.00621-.5031 1.88664V-1.88664C1.00621-1.00621 3.18633-.25154 4.52798 0"/>
<path transform="matrix(1,0,0,-1,230.641,64.121997)" stroke-width=".74721" stroke-linecap="butt" stroke-miterlimit="10" stroke-linejoin="miter" fill="none" stroke="#000000" d="M-96.37926-77.13487-112.35338-145.23155"/>
<path transform="matrix(-.22835,.97353,.97353,.22835,118.28763,209.35353)" d="M4.52798 0C3.18633 .25154 1.00621 1.00621-.5031 1.88664V-1.88664C1.00621-1.00621 3.18633-.25154 4.52798 0"/>
<path transform="matrix(1,0,0,-1,230.641,64.121997)" stroke-width=".74721" stroke-linecap="butt" stroke-miterlimit="10" stroke-linejoin="miter" fill="none" stroke="#000000" d="M-96.37926-77.13487-58.86758-145.66794"/>
<path transform="matrix(.4801,.87715,.87715,-.4801,171.7734,209.78992)" d="M4.52798 0C3.18633 .25154 1.00621 1.00621-.5031 1.88664V-1.88664C1.00621-1.00621 3.18633-.25154 4.52798 0"/>
<path transform="matrix(1,0,0,-1,230.641,64.121997)" stroke-width=".74721" stroke-linecap="butt" stroke-miterlimit="10" stroke-linejoin="miter" fill="none" stroke="#000000" d="M-59.52841-77.16139-138.33795-146.6453"/>
<path transform="matrix(-.75005,.6613,.6613,.75005,92.30307,210.76728)" d="M4.52798 0C3.18633 .25154 1.00621 1.00621-.5031 1.88664V-1.88664C1.00621-1.00621 3.18633-.25154 4.52798 0"/>
<path transform="matrix(1,0,0,-1,230.641,64.121997)" stroke-width=".74721" stroke-linecap="butt" stroke-miterlimit="10" stroke-linejoin="miter" fill="none" stroke="#000000" d="M-59.52841-77.16139-56.87056-145.11533"/>
<path transform="matrix(.03906,.99919,.99919,-.03906,173.77043,209.23732)" d="M4.52798 0C3.18633 .25154 1.00621 1.00621-.5031 1.88664V-1.88664C1.00621-1.00621 3.18633-.25154 4.52798 0"/>
<path transform="matrix(1,0,0,-1,230.641,64.121997)" stroke-width=".74721" stroke-linecap="butt" stroke-miterlimit="10" stroke-linejoin="miter" fill="none" stroke="#000000" d="M-59.52841-77.16139-110.68675-146.00537"/>
<path transform="matrix(-.59642,.80263,.80263,.59642,119.95427,210.12735)" d="M4.52798 0C3.18633 .25154 1.00621 1.00621-.5031 1.88664V-1.88664C1.00621-1.00621 3.18633-.25154 4.52798 0"/>
<use data-text="D" xlink:href="#font_1_1" transform="matrix(9.9626,0,0,-9.9626,312.33103,9.981995)"/>
<use data-text="M" xlink:href="#font_1_3" transform="matrix(9.9626,0,0,-9.9626,319.52403,9.981995)"/>
<use data-text="P" xlink:href="#font_1_5" transform="matrix(9.9626,0,0,-9.9626,327.82289,9.981995)"/>
<use data-text="l" xlink:href="#font_1_14" transform="matrix(9.9626,0,0,-9.9626,334.46794,9.981995)"/>
<use data-text="e" xlink:href="#font_1_11" transform="matrix(9.9626,0,0,-9.9626,337.23753,9.981995)"/>
<use data-text="x" xlink:href="#font_1_23" transform="matrix(9.9626,0,0,-9.9626,342.6273,9.981995)"/>
<use data-text="N" xlink:href="#font_1_4" transform="matrix(9.9626,0,0,-9.9626,351.48405,9.981995)"/>
<use data-text="u" xlink:href="#font_1_21" transform="matrix(9.9626,0,0,-9.9626,358.67704,9.981995)"/>
<use data-text="m" xlink:href="#font_1_15" transform="matrix(9.9626,0,0,-9.9626,364.7642,9.981995)"/>
<use data-text="b" xlink:href="#font_1_8" transform="matrix(9.9626,0,0,-9.9626,373.62095,9.981995)"/>
<use data-text="e" xlink:href="#font_1_11" transform="matrix(9.9626,0,0,-9.9626,379.7081,9.981995)"/>
<use data-text="r" xlink:href="#font_1_18" transform="matrix(9.9626,0,0,-9.9626,385.2473,9.981995)"/>
<use data-text="i" xlink:href="#font_1_13" transform="matrix(9.9626,0,0,-9.9626,389.12278,9.981995)"/>
<use data-text="n" xlink:href="#font_1_16" transform="matrix(9.9626,0,0,-9.9626,391.89237,9.981995)"/>
<use data-text="g" xlink:href="#font_1_12" transform="matrix(9.9626,0,0,-9.9626,397.97953,9.981995)"/>
<path transform="matrix(1,0,0,-1,230.641,64.121997)" d="M87.1539-42.52022C87.1539-41.353 86.20769-40.40677 85.04047-40.40677 83.87325-40.40677 82.92703-41.353 82.92703-42.52022 82.92703-43.68744 83.87325-44.63365 85.04047-44.63365 86.20769-44.63365 87.1539-43.68744 87.1539-42.52022ZM85.04047-42.52022" fill="#cf91ff"/>
<use data-text="4" xlink:href="#font_2_5" transform="matrix(7.9701,0,0,-7.9701,308.219,109.449)" fill="#cf91ff"/>
<path transform="matrix(1,0,0,-1,230.641,64.121997)" d="M172.19435-42.52022C172.19435-41.353 171.24814-40.40677 170.08092-40.40677 168.9137-40.40677 167.96747-41.353 167.96747-42.52022 167.96747-43.68744 168.9137-44.63365 170.08092-44.63365 171.24814-44.63365 172.19435-43.68744 172.19435-42.52022ZM170.08092-42.52022" fill="#cf91ff"/>
<use data-text="5" xlink:href="#font_2_6" transform="matrix(7.9701,0,0,-7.9701,403.75,109.31)" fill="#cf91ff"/>
<path transform="matrix(1,0,0,-1,230.641,64.121997)" d="M129.67414 0C129.67414 1.16722 128.72792 2.11343 127.56068 2.11343 126.39346 2.11343 125.44725 1.16722 125.44725 0 125.44725-1.16722 126.39346-2.11343 127.56068-2.11343 128.72792-2.11343 129.67414-1.16722 129.67414 0ZM127.56068 0" fill="#cf91ff"/>
<use data-text="6" xlink:href="#font_2_7" transform="matrix(7.9701,0,0,-7.9701,355.984,72.767)" fill="#cf91ff"/>
<path transform="matrix(1,0,0,-1,230.641,64.121997)" d="M87.1539 42.52022C87.1539 43.68744 86.20769 44.63365 85.04047 44.63365 83.87325 44.63365 82.92703 43.68744 82.92703 42.52022 82.92703 41.353 83.87325 40.40677 85.04047 40.40677 86.20769 40.40677 87.1539 41.353 87.1539 42.52022ZM85.04047 42.52022" fill="#cf91ff"/>
<use data-text="7" xlink:href="#font_2_8" transform="matrix(7.9701,0,0,-7.9701,308.219,24.335999)" fill="#cf91ff"/>
<path transform="matrix(1,0,0,-1,230.641,64.121997)" d="M172.19435 42.52022C172.19435 43.68744 171.24814 44.63365 170.08092 44.63365 168.9137 44.63365 167.96747 43.68744 167.96747 42.52022 167.96747 41.353 168.9137 40.40677 170.08092 40.40677 171.24814 40.40677 172.19435 41.353 172.19435 42.52022ZM170.08092 42.52022" fill="#cf91ff"/>
<use data-text="8" xlink:href="#font_2_9" transform="matrix(7.9701,0,0,-7.9701,403.75,24.343995)" fill="#cf91ff"/>
<path transform="matrix(1,0,0,-1,230.641,64.121997)" stroke-width=".74721" stroke-linecap="butt" stroke-miterlimit="10" stroke-linejoin="miter" fill="none" stroke="#33baff" d="M87.52751-42.52022H167.59387"/>
<use data-text="1" xlink:href="#font_2_2" transform="matrix(7.9701,0,0,-7.9701,353.769,115.286998)" fill="#33baff"/>
<use data-text="2" xlink:href="#font_2_3" transform="matrix(7.9701,0,0,-7.9701,358.20039,115.286998)" fill="#33baff"/>
<path transform="matrix(1,0,0,-1,230.641,64.121997)" stroke-width=".74721" stroke-linecap="butt" stroke-miterlimit="10" stroke-linejoin="miter" fill="none" stroke="#33baff" d="M170.08092-40.03317V40.03317"/>
<use data-text="1" xlink:href="#font_2_2" transform="matrix(7.9701,0,0,-7.9701,403.75,66.864)" fill="#33baff"/>
<use data-text="6" xlink:href="#font_2_7" transform="matrix(7.9701,0,0,-7.9701,408.18138,66.864)" fill="#33baff"/>
<path transform="matrix(1,0,0,-1,230.641,64.121997)" stroke-width=".74721" stroke-linecap="butt" stroke-miterlimit="10" stroke-linejoin="miter" fill="none" stroke="#33baff" d="M167.59387 42.52022H87.52751"/>
<use data-text="1" xlink:href="#font_2_2" transform="matrix(7.9701,0,0,-7.9701,353.769,18.440995)" fill="#33baff"/>
<use data-text="5" xlink:href="#font_2_6" transform="matrix(7.9701,0,0,-7.9701,358.20039,18.440995)" fill="#33baff"/>
<path transform="matrix(1,0,0,-1,230.641,64.121997)" stroke-width=".74721" stroke-linecap="butt" stroke-miterlimit="10" stroke-linejoin="miter" fill="none" stroke="#33baff" d="M85.04047 40.03317V-40.03317"/>
<use data-text="9" xlink:href="#font_2_10" transform="matrix(7.9701,0,0,-7.9701,308.219,66.864)" fill="#33baff"/>
<path transform="matrix(1,0,0,-1,230.641,64.121997)" stroke-width=".74721" stroke-linecap="butt" stroke-miterlimit="10" stroke-linejoin="miter" fill="none" stroke="#33baff" d="M86.79906-40.76161 125.8021-1.75859"/>
<use data-text="1" xlink:href="#font_2_2" transform="matrix(7.9701,0,0,-7.9701,332.509,94.02699)" fill="#33baff"/>
<use data-text="0" xlink:href="#font_2_1" transform="matrix(7.9701,0,0,-7.9701,336.94038,94.02699)" fill="#33baff"/>
<path transform="matrix(1,0,0,-1,230.641,64.121997)" stroke-width=".74721" stroke-linecap="butt" stroke-miterlimit="10" stroke-linejoin="miter" fill="none" stroke="#33baff" d="M168.32231-40.76161 129.31929-1.75859"/>
<use data-text="1" xlink:href="#font_2_2" transform="matrix(7.9701,0,0,-7.9701,375.029,94.02699)" fill="#33baff"/>
<use data-text="3" xlink:href="#font_2_4" transform="matrix(7.9701,0,0,-7.9701,379.46037,94.02699)" fill="#33baff"/>
<path transform="matrix(1,0,0,-1,230.641,64.121997)" stroke-width=".74721" stroke-linecap="butt" stroke-miterlimit="10" stroke-linejoin="miter" fill="none" stroke="#33baff" d="M86.79906 40.76161 125.8021 1.75859"/>
<use data-text="1" xlink:href="#font_2_2" transform="matrix(7.9701,0,0,-7.9701,332.509,39.832)" fill="#33baff"/>
<use data-text="1" xlink:href="#font_2_2" transform="matrix(7.9701,0,0,-7.9701,336.94038,39.832)" fill="#33baff"/>
<path transform="matrix(1,0,0,-1,230.641,64.121997)" stroke-width=".74721" stroke-linecap="butt" stroke-miterlimit="10" stroke-linejoin="miter" fill="none" stroke="#33baff" d="M168.32231 40.76161 129.31929 1.75859"/>
<use data-text="1" xlink:href="#font_2_2" transform="matrix(7.9701,0,0,-7.9701,375.029,39.832)" fill="#33baff"/>
<use data-text="4" xlink:href="#font_2_5" transform="matrix(7.9701,0,0,-7.9701,379.46037,39.832)" fill="#33baff"/>
<use data-text="0" xlink:href="#font_2_1" transform="matrix(7.9701,0,0,-7.9701,327.638,66.864)" fill="#f58000"/>
<use data-text="1" xlink:href="#font_2_2" transform="matrix(7.9701,0,0,-7.9701,355.984,95.276)" fill="#f58000"/>
<use data-text="2" xlink:href="#font_2_3" transform="matrix(7.9701,0,0,-7.9701,355.984,38.582994)" fill="#f58000"/>
<use data-text="3" xlink:href="#font_2_4" transform="matrix(7.9701,0,0,-7.9701,384.331,66.864)" fill="#f58000"/>
<use data-text="C" xlink:href="#font_1_24" transform="matrix(7.9701,0,0,-7.9701,221.117,137.867)"/>
<use data-text="e" xlink:href="#font_1_11" transform="matrix(7.9701,0,0,-7.9701,226.87142,137.867)"/>
<use data-text="l" xlink:href="#font_1_14" transform="matrix(7.9701,0,0,-7.9701,231.3028,137.867)"/>
<use data-text="l" xlink:href="#font_1_14" transform="matrix(7.9701,0,0,-7.9701,233.51848,137.867)"/>
<use data-text="s" xlink:href="#font_1_19" transform="matrix(7.9701,0,0,-7.9701,235.73416,137.867)"/>
<use data-text="E" xlink:href="#font_1_2" transform="matrix(7.9701,0,0,-7.9701,218.64202,179.496)"/>
<use data-text="d" xlink:href="#font_1_10" transform="matrix(7.9701,0,0,-7.9701,223.95807,179.496)"/>
<use data-text="g" xlink:href="#font_1_12" transform="matrix(7.9701,0,0,-7.9701,228.8278,179.496)"/>
<use data-text="e" xlink:href="#font_1_11" transform="matrix(7.9701,0,0,-7.9701,233.77724,179.496)"/>
<use data-text="s" xlink:href="#font_1_19" transform="matrix(7.9701,0,0,-7.9701,238.20862,179.496)"/>
<use data-text="V" xlink:href="#font_1_6" transform="matrix(7.9701,0,0,-7.9701,215.255,222.89499)"/>
<use data-text="e" xlink:href="#font_1_11" transform="matrix(7.9701,0,0,-7.9701,220.17256,222.89499)"/>
<use data-text="r" xlink:href="#font_1_18" transform="matrix(7.9701,0,0,-7.9701,224.60395,222.89499)"/>
<use data-text="t" xlink:href="#font_1_20" transform="matrix(7.9701,0,0,-7.9701,227.86373,222.89499)"/>
<use data-text="i" xlink:href="#font_1_13" transform="matrix(7.9701,0,0,-7.9701,230.51776,222.89499)"/>
<use data-text="c" xlink:href="#font_1_9" transform="matrix(7.9701,0,0,-7.9701,232.73345,222.89499)"/>
<use data-text="e" xlink:href="#font_1_11" transform="matrix(7.9701,0,0,-7.9701,237.16483,222.89499)"/>
<use data-text="s" xlink:href="#font_1_19" transform="matrix(7.9701,0,0,-7.9701,241.5962,222.89499)"/>
<path transform="matrix(1,0,0,-1,230.641,64.121997)" d="M56.94499-70.86703C56.94499-67.59706 54.29422-64.94629 51.02425-64.94629 47.75427-64.94629 45.1035-67.59706 45.1035-70.86703 45.1035-74.13701 47.75427-76.78778 51.02425-76.78778 54.29422-76.78778 56.94499-74.13701 56.94499-70.86703ZM51.02425-70.86703" fill="#f8a64d"/>
<use data-text="0" xlink:href="#font_2_1" transform="matrix(7.9701,0,0,-7.9701,279.449,137.73)"/>
<path transform="matrix(1,0,0,-1,230.641,64.121997)" d="M107.94273-70.86703C107.94273-67.61171 105.30383-64.97281 102.04851-64.97281 98.79317-64.97281 96.15427-67.61171 96.15427-70.86703 96.15427-74.12238 98.79317-76.76128 102.04851-76.76128 105.30383-76.76128 107.94273-74.12238 107.94273-70.86703ZM102.04851-70.86703" fill="#f8a64d"/>
<use data-text="1" xlink:href="#font_2_2" transform="matrix(7.9701,0,0,-7.9701,330.473,137.79599)"/>
<path transform="matrix(1,0,0,-1,230.641,64.121997)" d="M158.967-70.86703C158.967-67.61171 156.3281-64.97281 153.07276-64.97281 149.81742-64.97281 147.17853-67.61171 147.17853-70.86703 147.17853-74.12238 149.81742-76.76128 153.07276-76.76128 156.3281-76.76128 158.967-74.12238 158.967-70.86703ZM153.07276-70.86703" fill="#f8a64d"/>
<use data-text="2" xlink:href="#font_2_3" transform="matrix(7.9701,0,0,-7.9701,381.496,137.79599)"/>
<path transform="matrix(1,0,0,-1,230.641,64.121997)" d="M210.01776-70.86703C210.01776-67.59706 207.36699-64.94629 204.09702-64.94629 200.82704-64.94629 198.17627-67.59706 198.17627-70.86703 198.17627-74.13701 200.82704-76.78778 204.09702-76.78778 207.36699-76.78778 210.01776-74.13701 210.01776-70.86703ZM204.09702-70.86703" fill="#f8a64d"/>
<use data-text="3" xlink:href="#font_2_4" transform="matrix(7.9701,0,0,-7.9701,432.52,137.73)"/>
<path transform="matrix(1,0,0,-1,230.641,64.121997)" d="M34.26755-113.38725C34.26755-110.11726 31.61678-107.4665 28.3468-107.4665 25.07683-107.4665 22.42606-110.11726 22.42606-113.38725 22.42606-116.65723 25.07683-119.308 28.3468-119.308 31.61678-119.308 34.26755-116.65723 34.26755-113.38725ZM28.3468-113.38725" fill="#70cfff"/>
<use data-text="9" xlink:href="#font_2_10" transform="matrix(7.9701,0,0,-7.9701,256.772,180.25)"/>
<path transform="matrix(1,0,0,-1,230.641,64.121997)" d="M62.61436-113.38725C62.61436-110.11726 59.9636-107.4665 56.69362-107.4665 53.42363-107.4665 50.77287-110.11726 50.77287-113.38725 50.77287-116.65723 53.42363-119.308 56.69362-119.308 59.9636-119.308 62.61436-116.65723 62.61436-113.38725ZM56.69362-113.38725" fill="#70cfff"/>
<use data-text="1" xlink:href="#font_2_2" transform="matrix(7.9701,0,0,-7.9701,282.903,180.25)"/>
<use data-text="0" xlink:href="#font_2_1" transform="matrix(7.9701,0,0,-7.9701,287.33439,180.25)"/>
<path transform="matrix(1,0,0,-1,230.641,64.121997)" d="M90.93466-113.38725C90.93466-110.13191 88.29576-107.49301 85.04042-107.49301 81.78508-107.49301 79.1462-110.13191 79.1462-113.38725 79.1462-116.64258 81.78508-119.28148 85.04042-119.28148 88.29576-119.28148 90.93466-116.64258 90.93466-113.38725ZM85.04042-113.38725" fill="#70cfff"/>
<use data-text="1" xlink:href="#font_2_2" transform="matrix(7.9701,0,0,-7.9701,311.249,180.315)"/>
<use data-text="1" xlink:href="#font_2_2" transform="matrix(7.9701,0,0,-7.9701,315.68037,180.315)"/>
<path transform="matrix(1,0,0,-1,230.641,64.121997)" d="M119.28146-113.38725C119.28146-110.13191 116.64256-107.49301 113.38724-107.49301 110.1319-107.49301 107.493-110.13191 107.493-113.38725 107.493-116.64258 110.1319-119.28148 113.38724-119.28148 116.64256-119.28148 119.28146-116.64258 119.28146-113.38725ZM113.38724-113.38725" fill="#70cfff"/>
<use data-text="1" xlink:href="#font_2_2" transform="matrix(7.9701,0,0,-7.9701,339.595,180.315)"/>
<use data-text="2" xlink:href="#font_2_3" transform="matrix(7.9701,0,0,-7.9701,344.02638,180.315)"/>
<path transform="matrix(1,0,0,-1,230.641,64.121997)" d="M147.65479-113.38725C147.65479-110.11726 145.00402-107.4665 141.73404-107.4665 138.46407-107.4665 135.8133-110.11726 135.8133-113.38725 135.8133-116.65723 138.46407-119.308 141.73404-119.308 145.00402-119.308 147.65479-116.65723 147.65479-113.38725ZM141.73404-113.38725" fill="#70cfff"/>
<use data-text="1" xlink:href="#font_2_2" transform="matrix(7.9701,0,0,-7.9701,367.942,180.249)"/>
<use data-text="3" xlink:href="#font_2_4" transform="matrix(7.9701,0,0,-7.9701,372.37336,180.249)"/>
<path transform="matrix(1,0,0,-1,230.641,64.121997)" d="M175.97509-113.38725C175.97509-110.13191 173.33618-107.49301 170.08086-107.49301 166.82552-107.49301 164.18662-110.13191 164.18662-113.38725 164.18662-116.64258 166.82552-119.28148 170.08086-119.28148 173.33618-119.28148 175.97509-116.64258 175.97509-113.38725ZM170.08086-113.38725" fill="#70cfff"/>
<use data-text="1" xlink:href="#font_2_2" transform="matrix(7.9701,0,0,-7.9701,396.288,180.315)"/>
<use data-text="4" xlink:href="#font_2_5" transform="matrix(7.9701,0,0,-7.9701,400.71937,180.315)"/>
<path transform="matrix(1,0,0,-1,230.641,64.121997)" d="M204.3484-113.38725C204.3484-110.11726 201.69763-107.4665 198.42766-107.4665 195.15769-107.4665 192.50691-110.11726 192.50691-113.38725 192.50691-116.65723 195.15769-119.308 198.42766-119.308 201.69763-119.308 204.3484-116.65723 204.3484-113.38725ZM198.42766-113.38725" fill="#70cfff"/>
<use data-text="1" xlink:href="#font_2_2" transform="matrix(7.9701,0,0,-7.9701,424.635,180.249)"/>
<use data-text="5" xlink:href="#font_2_6" transform="matrix(7.9701,0,0,-7.9701,429.06639,180.249)"/>
<path transform="matrix(1,0,0,-1,230.641,64.121997)" d="M232.69522-113.38725C232.69522-110.11726 230.04445-107.4665 226.77448-107.4665 223.5045-107.4665 220.85373-110.11726 220.85373-113.38725 220.85373-116.65723 223.5045-119.308 226.77448-119.308 230.04445-119.308 232.69522-116.65723 232.69522-113.38725ZM226.77448-113.38725" fill="#70cfff"/>
<use data-text="1" xlink:href="#font_2_2" transform="matrix(7.9701,0,0,-7.9701,452.981,180.249)"/>
<use data-text="6" xlink:href="#font_2_7" transform="matrix(7.9701,0,0,-7.9701,457.41236,180.249)"/>
<path transform="matrix(1,0,0,-1,230.641,64.121997)" d="M42.74507-155.90746C42.74507-152.65212 40.10617-150.01322 36.85083-150.01322 33.5955-150.01322 30.9566-152.65212 30.9566-155.90746 30.9566-159.1628 33.5955-161.80168 36.85083-161.80168 40.10617-161.80168 42.74507-159.1628 42.74507-155.90746ZM36.85083-155.90746" fill="#ddb2ff"/>
<use data-text="4" xlink:href="#font_2_5" transform="matrix(7.9701,0,0,-7.9701,265.276,222.83499)"/>
<path transform="matrix(1,0,0,-1,230.641,64.121997)" d="M88.07393-155.90746C88.07393-152.6665 85.44669-150.03925 82.20572-150.03925 78.96477-150.03925 76.33752-152.6665 76.33752-155.90746 76.33752-159.1484 78.96477-161.77567 82.20572-161.77567 85.44669-161.77567 88.07393-159.1484 88.07393-155.90746ZM82.20572-155.90746" fill="#ddb2ff"/>
<use data-text="5" xlink:href="#font_2_6" transform="matrix(7.9701,0,0,-7.9701,310.63,222.69499)"/>
<path transform="matrix(1,0,0,-1,230.641,64.121997)" d="M133.48136-155.90746C133.48136-152.63748 130.8306-149.98671 127.56061-149.98671 124.29063-149.98671 121.63986-152.63748 121.63986-155.90746 121.63986-159.17743 124.29063-161.8282 127.56061-161.8282 130.8306-161.8282 133.48136-159.17743 133.48136-155.90746ZM127.56061-155.90746" fill="#ddb2ff"/>
<use data-text="6" xlink:href="#font_2_7" transform="matrix(7.9701,0,0,-7.9701,355.984,222.769)"/>
<path transform="matrix(1,0,0,-1,230.641,64.121997)" d="M178.75794-155.90746C178.75794-152.68074 176.14221-150.06504 172.9155-150.06504 169.6888-150.06504 167.07308-152.68074 167.07308-155.90746 167.07308-159.13417 169.6888-161.74988 172.9155-161.74988 176.14221-161.74988 178.75794-159.13417 178.75794-155.90746ZM172.9155-155.90746" fill="#ddb2ff"/>
<use data-text="7" xlink:href="#font_2_8" transform="matrix(7.9701,0,0,-7.9701,401.33903,222.761)"/>
<path transform="matrix(1,0,0,-1,230.641,64.121997)" d="M224.19113-155.90746C224.19113-152.63748 221.54038-149.98671 218.27039-149.98671 215.00041-149.98671 212.34966-152.63748 212.34966-155.90746 212.34966-159.17743 215.00041-161.8282 218.27039-161.8282 221.54038-161.8282 224.19113-159.17743 224.19113-155.90746ZM218.27039-155.90746" fill="#ddb2ff"/>
<use data-text="8" xlink:href="#font_2_9" transform="matrix(7.9701,0,0,-7.9701,446.69303,222.769)"/>
<path transform="matrix(1,0,0,-1,230.641,64.121997)" stroke-width=".74721" stroke-linecap="butt" stroke-miterlimit="10" stroke-linejoin="miter" fill="none" stroke="#000000" d="M51.02425-77.16139 31.08109-103.4839"/>
<path transform="matrix(-.60387,.79704,.79704,.60387,261.7221,167.6059)" d="M4.52798 0C3.18633 .25154 1.00621 1.00621-.5031 1.88664V-1.88664C1.00621-1.00621 3.18633-.25154 4.52798 0"/>
<path transform="matrix(1,0,0,-1,230.641,64.121997)" stroke-width=".74721" stroke-linecap="butt" stroke-miterlimit="10" stroke-linejoin="miter" fill="none" stroke="#000000" d="M51.02425-77.16139 55.85104-102.64418"/>
<path transform="matrix(.18608,.9825,.9825,-.18608,286.49205,166.76618)" d="M4.52798 0C3.18633 .25154 1.00621 1.00621-.5031 1.88664V-1.88664C1.00621-1.00621 3.18633-.25154 4.52798 0"/>
<path transform="matrix(1,0,0,-1,230.641,64.121997)" stroke-width=".74721" stroke-linecap="butt" stroke-miterlimit="10" stroke-linejoin="miter" fill="none" stroke="#000000" d="M51.02425-77.16139 81.64258-104.12694"/>
<path transform="matrix(.75041,.66089,.66089,-.75041,312.28358,168.24892)" d="M4.52798 0C3.18633 .25154 1.00621 1.00621-.5031 1.88664V-1.88664C1.00621-1.00621 3.18633-.25154 4.52798 0"/>
<path transform="matrix(1,0,0,-1,230.641,64.121997)" stroke-width=".74721" stroke-linecap="butt" stroke-miterlimit="10" stroke-linejoin="miter" fill="none" stroke="#000000" d="M102.04851-77.13487 60.4716-104.59752"/>
<path transform="matrix(-.83437,.5511,.5511,.83437,291.1126,168.7195)" d="M4.52798 0C3.18633 .25154 1.00621 1.00621-.5031 1.88664V-1.88664C1.00621-1.00621 3.18633-.25154 4.52798 0"/>
<path transform="matrix(1,0,0,-1,230.641,64.121997)" stroke-width=".74721" stroke-linecap="butt" stroke-miterlimit="10" stroke-linejoin="miter" fill="none" stroke="#000000" d="M102.04851-77.13487 111.7857-102.88431"/>
<path transform="matrix(.3537,.93532,.93532,-.3537,342.4267,167.0063)" d="M4.52798 0C3.18633 .25154 1.00621 1.00621-.5031 1.88664V-1.88664C1.00621-1.00621 3.18633-.25154 4.52798 0"/>
<path transform="matrix(1,0,0,-1,230.641,64.121997)" stroke-width=".74721" stroke-linecap="butt" stroke-miterlimit="10" stroke-linejoin="miter" fill="none" stroke="#000000" d="M102.04851-77.13487 138.12021-104.36488"/>
<path transform="matrix(.79811,.60248,.60248,-.79811,368.76124,168.48688)" d="M4.52798 0C3.18633 .25154 1.00621 1.00621-.5031 1.88664V-1.88664C1.00621-1.00621 3.18633-.25154 4.52798 0"/>
<path transform="matrix(1,0,0,-1,230.641,64.121997)" stroke-width=".74721" stroke-linecap="butt" stroke-miterlimit="10" stroke-linejoin="miter" fill="none" stroke="#000000" d="M153.07276-77.13487 89.18362-105.2934"/>
<path transform="matrix(-.91502,.40327,.40327,.91502,319.82466,169.4154)" d="M4.52798 0C3.18633 .25154 1.00621 1.00621-.5031 1.88664V-1.88664C1.00621-1.00621 3.18633-.25154 4.52798 0"/>
<path transform="matrix(1,0,0,-1,230.641,64.121997)" stroke-width=".74721" stroke-linecap="butt" stroke-miterlimit="10" stroke-linejoin="miter" fill="none" stroke="#000000" d="M153.07276-77.13487 167.847-103.18112"/>
<path transform="matrix(.49335,.86977,.86977,-.49335,398.48799,167.3031)" d="M4.52798 0C3.18633 .25154 1.00621 1.00621-.5031 1.88664V-1.88664C1.00621-1.00621 3.18633-.25154 4.52798 0"/>
<path transform="matrix(1,0,0,-1,230.641,64.121997)" stroke-width=".74721" stroke-linecap="butt" stroke-miterlimit="10" stroke-linejoin="miter" fill="none" stroke="#000000" d="M153.07276-77.13487 194.64966-104.59752"/>
<path transform="matrix(.83437,.5511,.5511,-.83437,425.29066,168.7195)" d="M4.52798 0C3.18633 .25154 1.00621 1.00621-.5031 1.88664V-1.88664C1.00621-1.00621 3.18633-.25154 4.52798 0"/>
<path transform="matrix(1,0,0,-1,230.641,64.121997)" stroke-width=".74721" stroke-linecap="butt" stroke-miterlimit="10" stroke-linejoin="miter" fill="none" stroke="#000000" d="M204.09702-77.16139 145.81597-105.13374"/>
<path transform="matrix(-.90149,.43268,.43268,.90149,376.45698,169.25574)" d="M4.52798 0C3.18633 .25154 1.00621 1.00621-.5031 1.88664V-1.88664C1.00621-1.00621 3.18633-.25154 4.52798 0"/>
<path transform="matrix(1,0,0,-1,230.641,64.121997)" stroke-width=".74721" stroke-linecap="butt" stroke-miterlimit="10" stroke-linejoin="miter" fill="none" stroke="#000000" d="M204.09702-77.16139 224.04018-103.4839"/>
<path transform="matrix(.60387,.79704,.79704,-.60387,454.68116,167.6059)" d="M4.52798 0C3.18633 .25154 1.00621 1.00621-.5031 1.88664V-1.88664C1.00621-1.00621 3.18633-.25154 4.52798 0"/>
<path transform="matrix(1,0,0,-1,230.641,64.121997)" stroke-width=".74721" stroke-linecap="butt" stroke-miterlimit="10" stroke-linejoin="miter" fill="none" stroke="#000000" d="M204.09702-77.16139 173.4787-104.12694"/>
<path transform="matrix(-.75041,.66089,.66089,.75041,404.11973,168.24892)" d="M4.52798 0C3.18633 .25154 1.00621 1.00621-.5031 1.88664V-1.88664C1.00621-1.00621 3.18633-.25154 4.52798 0"/>
<path transform="matrix(1,0,0,-1,230.641,64.121997)" stroke-width=".74721" stroke-linecap="butt" stroke-miterlimit="10" stroke-linejoin="miter" fill="none" stroke="#000000" d="M28.3468-119.6816 35.61444-145.28389"/>
<path transform="matrix(.27306,.96196,.96196,-.27306,266.25544,209.40589)" d="M4.52798 0C3.18633 .25154 1.00621 1.00621-.5031 1.88664V-1.88664C1.00621-1.00621 3.18633-.25154 4.52798 0"/>
<path transform="matrix(1,0,0,-1,230.641,64.121997)" stroke-width=".74721" stroke-linecap="butt" stroke-miterlimit="10" stroke-linejoin="miter" fill="none" stroke="#000000" d="M28.3468-119.6816 168.48218-148.77127"/>
<path transform="matrix(.9791,.20322,.20322,-.9791,399.12318,212.89327)" d="M4.52798 0C3.18633 .25154 1.00621 1.00621-.5031 1.88664V-1.88664C1.00621-1.00621 3.18633-.25154 4.52798 0"/>
<path transform="matrix(1,0,0,-1,230.641,64.121997)" stroke-width=".74721" stroke-linecap="butt" stroke-miterlimit="10" stroke-linejoin="miter" fill="none" stroke="#000000" d="M56.69362-119.6816 39.35104-145.86487"/>
<path transform="matrix(-.55217,.83365,.83365,.55217,269.99205,209.98685)" d="M4.52798 0C3.18633 .25154 1.00621 1.00621-.5031 1.88664V-1.88664C1.00621-1.00621 3.18633-.25154 4.52798 0"/>
<path transform="matrix(1,0,0,-1,230.641,64.121997)" stroke-width=".74721" stroke-linecap="butt" stroke-miterlimit="10" stroke-linejoin="miter" fill="none" stroke="#000000" d="M56.69362-119.6816 123.38956-147.85149"/>
<path transform="matrix(.92117,.38905,.38905,-.92117,354.03059,211.97347)" d="M4.52798 0C3.18633 .25154 1.00621 1.00621-.5031 1.88664V-1.88664C1.00621-1.00621 3.18633-.25154 4.52798 0"/>
<path transform="matrix(1,0,0,-1,230.641,64.121997)" stroke-width=".74721" stroke-linecap="butt" stroke-miterlimit="10" stroke-linejoin="miter" fill="none" stroke="#000000" d="M85.04042-119.65509 123.85918-147.00525"/>
<path transform="matrix(.81746,.57594,.57594,-.81746,354.50019,211.12723)" d="M4.52798 0C3.18633 .25154 1.00621 1.00621-.5031 1.88664V-1.88664C1.00621-1.00621 3.18633-.25154 4.52798 0"/>
<path transform="matrix(1,0,0,-1,230.641,64.121997)" stroke-width=".74721" stroke-linecap="butt" stroke-miterlimit="10" stroke-linejoin="miter" fill="none" stroke="#000000" d="M85.04042-119.65509 168.63101-148.22698"/>
<path transform="matrix(.94623,.32343,.32343,-.94623,399.272,212.34896)" d="M4.52798 0C3.18633 .25154 1.00621 1.00621-.5031 1.88664V-1.88664C1.00621-1.00621 3.18633-.25154 4.52798 0"/>
<path transform="matrix(1,0,0,-1,230.641,64.121997)" stroke-width=".74721" stroke-linecap="butt" stroke-miterlimit="10" stroke-linejoin="miter" fill="none" stroke="#000000" d="M113.38724-119.65509 41.06659-147.98805"/>
<path transform="matrix(-.93105,.36475,.36475,.93105,271.7076,212.11005)" d="M4.52798 0C3.18633 .25154 1.00621 1.00621-.5031 1.88664V-1.88664C1.00621-1.00621 3.18633-.25154 4.52798 0"/>
<path transform="matrix(1,0,0,-1,230.641,64.121997)" stroke-width=".74721" stroke-linecap="butt" stroke-miterlimit="10" stroke-linejoin="miter" fill="none" stroke="#000000" d="M113.38724-119.65509 85.46808-146.52587"/>
<path transform="matrix(-.72049,.69342,.69342,.72049,316.1091,210.64785)" d="M4.52798 0C3.18633 .25154 1.00621 1.00621-.5031 1.88664V-1.88664C1.00621-1.00621 3.18633-.25154 4.52798 0"/>
<path transform="matrix(1,0,0,-1,230.641,64.121997)" stroke-width=".74721" stroke-linecap="butt" stroke-miterlimit="10" stroke-linejoin="miter" fill="none" stroke="#000000" d="M141.73404-119.6816 86.24951-147.62883"/>
<path transform="matrix(-.89307,.44983,.44983,.89307,316.8905,211.75083)" d="M4.52798 0C3.18633 .25154 1.00621 1.00621-.5031 1.88664V-1.88664C1.00621-1.00621 3.18633-.25154 4.52798 0"/>
<path transform="matrix(1,0,0,-1,230.641,64.121997)" stroke-width=".74721" stroke-linecap="butt" stroke-miterlimit="10" stroke-linejoin="miter" fill="none" stroke="#000000" d="M141.73404-119.6816 129.49835-145.52097"/>
<path transform="matrix(-.42795,.90375,.90375,.42795,360.13938,209.64295)" d="M4.52798 0C3.18633 .25154 1.00621 1.00621-.5031 1.88664V-1.88664C1.00621-1.00621 3.18633-.25154 4.52798 0"/>
<path transform="matrix(1,0,0,-1,230.641,64.121997)" stroke-width=".74721" stroke-linecap="butt" stroke-miterlimit="10" stroke-linejoin="miter" fill="none" stroke="#000000" d="M170.08086-119.65509 131.26206-147.00525"/>
<path transform="matrix(-.81746,.57594,.57594,.81746,361.90309,211.12723)" d="M4.52798 0C3.18633 .25154 1.00621 1.00621-.5031 1.88664V-1.88664C1.00621-1.00621 3.18633-.25154 4.52798 0"/>
<path transform="matrix(1,0,0,-1,230.641,64.121997)" stroke-width=".74721" stroke-linecap="butt" stroke-miterlimit="10" stroke-linejoin="miter" fill="none" stroke="#000000" d="M170.08086-119.65509 214.42504-147.22261"/>
<path transform="matrix(.84924,.52794,.52794,-.84924,445.06605,211.3446)" d="M4.52798 0C3.18633 .25154 1.00621 1.00621-.5031 1.88664V-1.88664C1.00621-1.00621 3.18633-.25154 4.52798 0"/>
<path transform="matrix(1,0,0,-1,230.641,64.121997)" stroke-width=".74721" stroke-linecap="butt" stroke-miterlimit="10" stroke-linejoin="miter" fill="none" stroke="#000000" d="M198.42766-119.6816 175.84816-146.24182"/>
<path transform="matrix(-.64767,.76184,.76184,.64767,406.48918,210.36382)" d="M4.52798 0C3.18633 .25154 1.00621 1.00621-.5031 1.88664V-1.88664C1.00621-1.00621 3.18633-.25154 4.52798 0"/>
<path transform="matrix(1,0,0,-1,230.641,64.121997)" stroke-width=".74721" stroke-linecap="butt" stroke-miterlimit="10" stroke-linejoin="miter" fill="none" stroke="#000000" d="M198.42766-119.6816 215.76866-145.83927"/>
<path transform="matrix(.5525,.83345,.83345,-.5525,446.40968,209.96126)" d="M4.52798 0C3.18633 .25154 1.00621 1.00621-.5031 1.88664V-1.88664C1.00621-1.00621 3.18633-.25154 4.52798 0"/>
<path transform="matrix(1,0,0,-1,230.641,64.121997)" stroke-width=".74721" stroke-linecap="butt" stroke-miterlimit="10" stroke-linejoin="miter" fill="none" stroke="#000000" d="M226.77448-119.6816 86.63919-148.74625"/>
<path transform="matrix(-.97913,.20305,.20305,.97913,317.2802,212.86824)" d="M4.52798 0C3.18633 .25154 1.00621 1.00621-.5031 1.88664V-1.88664C1.00621-1.00621 3.18633-.25154 4.52798 0"/>
<path transform="matrix(1,0,0,-1,230.641,64.121997)" stroke-width=".74721" stroke-linecap="butt" stroke-miterlimit="10" stroke-linejoin="miter" fill="none" stroke="#000000" d="M226.77448-119.6816 219.50782-145.25765"/>
<path transform="matrix(-.27328,.9619,.9619,.27328,450.1488,209.37964)" d="M4.52798 0C3.18633 .25154 1.00621 1.00621-.5031 1.88664V-1.88664C1.00621-1.00621 3.18633-.25154 4.52798 0"/>
</svg>
