<?xml version="1.0" encoding="utf-8"?>
<!-- Generator: Adobe Illustrator 26.1.0, SVG Export Plug-In . SVG Version: 6.00 Build 0)  -->
<svg version="1.1" id="Layer_1" xmlns="http://www.w3.org/2000/svg" xmlns:xlink="http://www.w3.org/1999/xlink" x="0px" y="0px"
	 viewBox="0 0 510.96 282.94" style="enable-background:new 0 0 510.96 282.94;" xml:space="preserve">
<style type="text/css">
	.st0{fill:#BCD3E0;}
	.st1{fill:#EFB2B3;}
	.st2{fill:none;stroke:#000000;stroke-width:0.4981;stroke-miterlimit:10;}
	.st3{font-family:'NimbusSanL-Bold';}
	.st4{font-size:9.9626px;}
	.st5{letter-spacing:3;}
	.st6{fill:#1F6E96;}
	.st7{fill:#5ECC0D;}
	.st8{fill:#2E3647;}
	.st9{fill:none;stroke:#1F6E96;stroke-width:1.4944;stroke-miterlimit:10;}
	.st10{font-family:'NimbusSanL-Regu';}
	.st11{font-size:7.9701px;}
	.st12{letter-spacing:2;}
	.st13{fill:none;stroke:#1F6E96;stroke-width:0.7472;stroke-miterlimit:10;}
	.st14{fill:none;stroke:#5ECC0D;stroke-width:0.7472;stroke-miterlimit:10;}
	.st15{font-family:'CMBX8';}
	.st16{fill:none;stroke:#000000;stroke-width:0.7472;stroke-miterlimit:10;}
	.st17{fill:#C90003;}
	.st18{fill:none;stroke:#C90003;stroke-width:1.4944;stroke-miterlimit:10;}
	.st19{fill:none;stroke:#F58000;stroke-width:0.9963;stroke-miterlimit:10;}
	.st20{font-family:'CMMI8';}
	.st21{font-family:'CMMI6';}
	.st22{font-size:5.9776px;}
	.st23{font-family:'CMSY6';}
	.st24{font-family:'CMR6';}
	.st25{fill:none;stroke:#C90003;stroke-width:0.7472;stroke-miterlimit:10;}
	.st26{fill:#F58000;}
	.st27{fill:none;stroke:#F58000;stroke-width:0.7472;stroke-miterlimit:10;}
</style>
<polygon class="st0" points="338.23,45.07 310.59,73.42 338.23,101.76 "/>
<polygon class="st0" points="338.23,101.76 310.59,130.11 338.23,158.46 "/>
<polygon class="st0" points="338.23,158.46 310.59,186.8 342.48,215.15 "/>
<polygon class="st1" points="346.73,45.07 346.73,101.76 374.37,73.42 "/>
<polygon class="st1" points="346.73,101.76 346.73,158.46 374.37,130.11 "/>
<polygon class="st1" points="346.73,158.46 342.48,215.15 374.37,186.8 "/>
<path class="st2" d="M338.23,99.28V47.56 M312.33,75.2l24.16,24.78 M336.49,46.85l-24.16,24.78"/>
<path class="st2" d="M338.23,155.97v-51.72 M312.33,131.89l24.16,24.78 M336.49,103.55l-24.16,24.78"/>
<path class="st2" d="M342.29,212.67l-3.88-51.73 M312.46,188.46l28.16,25.03 M336.49,160.24l-24.16,24.78"/>
<path class="st2" d="M372.63,71.63l-24.16-24.78 M348.47,99.98l24.16-24.78 M346.73,47.56v51.72"/>
<path class="st2" d="M372.63,128.32l-24.16-24.78 M348.47,156.67l24.16-24.78 M346.73,104.25v51.72"/>
<path class="st2" d="M372.63,185.02l-24.16-24.78 M344.35,213.49l28.16-25.03 M346.55,160.94l-3.88,51.73"/>
<polygon class="st0" points="451.61,45.07 423.98,73.42 451.61,101.76 "/>
<polygon class="st0" points="451.61,101.76 423.98,130.11 451.61,158.46 "/>
<polygon class="st0" points="451.61,158.46 423.98,186.8 455.87,215.15 "/>
<polygon class="st0" points="451.61,45.07 423.98,45.07 423.98,73.42 "/>
<polygon class="st0" points="451.61,101.76 423.98,73.42 423.98,130.11 "/>
<polygon class="st0" points="451.61,158.46 423.98,130.11 423.98,186.8 "/>
<polygon class="st1" points="460.12,45.07 460.12,101.76 487.76,73.42 "/>
<polygon class="st1" points="460.12,101.76 460.12,158.46 487.76,130.11 "/>
<polygon class="st1" points="460.12,158.46 455.87,215.15 487.76,186.8 "/>
<polygon class="st1" points="460.12,45.07 487.76,73.42 487.76,45.07 "/>
<polygon class="st1" points="460.12,101.76 487.76,130.11 487.76,73.42 "/>
<polygon class="st1" points="460.12,158.46 487.76,186.8 487.76,130.11 "/>
<path class="st2" d="M451.61,99.28V47.56 M425.72,75.2l24.16,24.78 M449.87,46.85l-24.16,24.78"/>
<path class="st2" d="M451.61,155.97v-51.72 M425.72,131.89l24.16,24.78 M449.87,103.55l-24.16,24.78"/>
<path class="st2" d="M455.68,212.67l-3.88-51.73 M425.84,188.46L454,213.49 M449.87,160.24l-24.16,24.78"/>
<path class="st2" d="M425.72,71.63l24.16-24.78 M423.98,47.56v23.37 M449.13,45.07h-22.66"/>
<path class="st2" d="M425.72,128.32l24.16-24.78 M423.98,75.9v51.72 M449.87,99.98L425.72,75.2"/>
<path class="st2" d="M425.72,185.02l24.16-24.78 M423.98,132.6v51.72 M449.87,156.67l-24.16-24.78"/>
<path class="st2" d="M436.11,241.5l18.27-24.36 M424.44,189.25l9.71,51.8 M455.87,215.15l-30.02-26.69"/>
<path class="st2" d="M486.02,71.63l-24.16-24.78 M461.86,99.98l24.16-24.78 M460.12,47.56v51.72"/>
<path class="st2" d="M486.02,128.32l-24.16-24.78 M461.86,156.67l24.16-24.78 M460.12,104.25v51.72"/>
<path class="st2" d="M485.27,45.07h-22.66 M487.76,70.93V47.56 M461.86,46.85l24.16,24.78"/>
<path class="st2" d="M486.02,75.2l-24.16,24.78 M487.76,127.62V75.9 M461.86,103.55l24.16,24.78"/>
<path class="st2" d="M486.02,131.89l-24.16,24.78 M487.76,184.32V132.6 M461.86,160.24l24.16,24.78"/>
<path class="st2" d="M486.02,185.02l-24.16-24.78 M457.73,213.49l28.16-25.03 M459.93,160.94l-3.88,51.73"/>
<path class="st2" d="M485.89,188.46l-28.16,25.03 M477.59,241.05l9.71-51.8 M457.37,217.15l18.27,24.36"/>
<path class="st2" d="M475.63,241.5l-18.27-24.36 M437.09,243.5h37.55 M454.37,217.15l-18.27,24.36"/>
<text transform="matrix(1 0 0 1 63.2661 19.3331)"><tspan x="0" y="0" class="st3 st4">(a</tspan><tspan x="7.63" y="0" class="st3 st4 st5">)</tspan><tspan x="13.78" y="0" class="st3 st4">Origina</tspan><tspan x="44.46" y="0" class="st3 st4 st5">l</tspan><tspan x="50.13" y="0" class="st3 st4">mesh</tspan></text>
<ellipse transform="matrix(0.9925 -0.1222 0.1222 0.9925 -4.6397 14.4749)" class="st6" cx="115.71" cy="45.07" rx="2.11" ry="2.11"/>
<path class="st6" d="M117.82,101.76c0-1.17-0.95-2.11-2.11-2.11s-2.11,0.95-2.11,2.11c0,1.17,0.95,2.11,2.11,2.11
	S117.82,102.93,117.82,101.76z"/>
<ellipse transform="matrix(0.9732 -0.2298 0.2298 0.9732 -33.3104 30.8224)" class="st6" cx="115.71" cy="158.46" rx="2.11" ry="2.11"/>
<circle class="st7" cx="115.71" cy="215.15" r="2.11"/>
<ellipse transform="matrix(0.9966 -0.0825 0.0825 0.9966 -10.446 7.3565)" class="st8" cx="83.81" cy="130.11" rx="2.11" ry="2.11"/>
<ellipse transform="matrix(0.9871 -0.1602 0.1602 0.9871 -18.9354 25.3222)" class="st8" cx="147.6" cy="130.11" rx="2.11" ry="2.11"/>
<circle class="st8" cx="83.81" cy="73.42" r="2.11"/>
<circle class="st8" cx="147.6" cy="73.42" r="2.11"/>
<circle class="st8" cx="83.81" cy="186.8" r="2.11"/>
<ellipse transform="matrix(0.9975 -0.0709 0.0709 0.9975 -12.8709 10.9328)" class="st8" cx="147.6" cy="186.8" rx="2.11" ry="2.11"/>
<ellipse transform="matrix(0.9966 -0.0825 0.0825 0.9966 -3.4317 7.0667)" class="st8" cx="83.81" cy="45.07" rx="2.11" ry="2.11"/>
<ellipse transform="matrix(0.9871 -0.1602 0.1602 0.9871 -5.3134 24.2241)" class="st8" cx="147.6" cy="45.07" rx="2.11" ry="2.11"/>
<ellipse transform="matrix(0.9796 -0.2011 0.2011 0.9796 -47.0298 23.9623)" class="st8" cx="94.44" cy="243.5" rx="2.11" ry="2.11"/>
<ellipse transform="matrix(0.9796 -0.2011 0.2011 0.9796 -46.1615 32.5116)" class="st8" cx="136.97" cy="243.5" rx="2.11" ry="2.11"/>
<path class="st2" d="M85.68,71.76l28.16-25.03 M83.81,47.56v23.37 M113.22,45.07H86.3"/>
<path class="st2" d="M115.71,99.28V47.56 M85.68,75.08l28.16,25.03 M113.84,46.73L85.68,71.76"/>
<path class="st2" d="M85.68,128.45l28.16-25.03 M83.81,75.9v51.72 M113.84,100.1L85.68,75.08"/>
<path class="st2" d="M115.71,155.97v-51.72 M85.68,131.77l28.16,25.03 M113.84,103.42l-28.16,25.03"/>
<path class="st2" d="M85.68,185.14l28.16-25.03 M83.81,132.6v51.72 M113.84,156.8l-28.16-25.03"/>
<path class="st2" d="M115.71,212.66v-51.72 M85.68,188.46l28.16,25.03 M113.84,160.12l-28.16,25.03"/>
<path class="st2" d="M95.94,241.5l18.27-24.36 M84.27,189.25l9.71,51.8 M113.84,213.49l-28.16-25.03"/>
<path class="st2" d="M135.47,241.5l-18.27-24.36 M96.93,243.5h37.55 M114.21,217.15l-18.27,24.36"/>
<path class="st2" d="M145.73,188.46l-28.16,25.03 M137.42,241.05l9.71-51.8 M117.2,217.15l18.27,24.36"/>
<path class="st2" d="M145.73,185.14l-28.16-25.03 M117.57,213.49l28.16-25.03 M115.71,160.94v51.72"/>
<path class="st2" d="M145.73,131.77l-28.16,25.03 M147.6,184.32V132.6 M117.57,160.12l28.16,25.03"/>
<path class="st2" d="M115.71,104.25v51.72 M145.73,128.45l-28.16-25.03 M117.57,156.8l28.16-25.03"/>
<path class="st2" d="M145.73,75.08l-28.16,25.03 M147.6,127.62V75.9 M117.57,103.42l28.16,25.03"/>
<path class="st2" d="M145.73,71.76l-28.16-25.03 M117.57,100.1l28.16-25.03 M115.71,47.56v51.72"/>
<path class="st2" d="M145.11,45.07h-26.92 M147.6,70.93V47.56 M117.57,46.73l28.16,25.03"/>
<path class="st9" d="M115.71,160.94v51.72 M115.71,104.25v51.72 M115.71,47.56v51.72"/>
<text transform="matrix(1 0 0 1 42.5381 90.4351)"><tspan x="0" y="0" class="st6 st10 st11">f</tspan><tspan x="2.1" y="0" class="st6 st10 st11">aul</tspan><tspan x="12.21" y="0" class="st6 st10 st11 st12">t</tspan><tspan x="17.06" y="0" class="st6 st10 st11">v</tspan><tspan x="20.7" y="0" class="st6 st10 st11">e</tspan><tspan x="24.69" y="0" class="st6 st10 st11">r</tspan><tspan x="27.61" y="0" class="st6 st10 st11">t</tspan><tspan x="30.25" y="0" class="st6 st10 st11">e</tspan><tspan x="34" y="0" class="st6 st10 st11">x</tspan></text>
<path class="st13" d="M67.91,93.6c13.64,11.85,28.31,14.71,41.11,10.3"/>
<path class="st6" d="M113.3,102.42c-1.35,0.2-3.66,0.2-5.38-0.15l1.23,3.57C110.3,104.52,112.12,103.09,113.3,102.42"/>
<text transform="matrix(1 0 0 1 58.0791 259.692)"><tspan x="0" y="0" class="st7 st10 st11">f</tspan><tspan x="2.1" y="0" class="st7 st10 st11">aul</tspan><tspan x="12.21" y="0" class="st7 st10 st11 st12">t</tspan><tspan x="17.06" y="0" class="st7 st10 st11">edg</tspan><tspan x="30" y="0" class="st7 st10 st11 st12">e</tspan><tspan x="36.2" y="0" class="st7 st10 st11">v</tspan><tspan x="39.83" y="0" class="st7 st10 st11">e</tspan><tspan x="43.83" y="0" class="st7 st10 st11">r</tspan><tspan x="46.74" y="0" class="st7 st10 st11">t</tspan><tspan x="49.38" y="0" class="st7 st10 st11">e</tspan><tspan x="53.14" y="0" class="st7 st10 st11">x</tspan></text>
<path class="st14" d="M101.16,250.84c11.34-8.41,16-19.18,14.9-28.71"/>
<path class="st7" d="M115.55,217.63c-0.1,1.36-0.6,3.62-1.3,5.22l3.75-0.43C116.95,221.02,115.95,218.94,115.55,217.63"/>
<text transform="matrix(1 0 0 1 132.9102 131.8799)" class="st15 st11">n</text>
<line class="st16" x1="115.71" y1="130.11" x2="125.35" y2="130.11"/>
<path d="M129.88,130.11c-1.34-0.25-3.52-1.01-5.03-1.89V132C126.36,131.12,128.54,130.36,129.88,130.11"/>
<text transform="matrix(1 0 0 1 176.6519 15.127)"><tspan x="0" y="0" class="st3 st4">(b</tspan><tspan x="8.5" y="0" class="st3 st4 st5">)</tspan><tspan x="14.64" y="0" class="st3 st4">A</tspan><tspan x="20.74" y="0" class="st3 st4">d</tspan><tspan x="26.26" y="0" class="st3 st4 st5">d</tspan><tspan x="35.21" y="0" class="st3 st4">colocated</tspan></text>
<text transform="matrix(1 0 0 1 176.6519 25.4879)"><tspan x="0" y="0" class="st3 st4">ve</tspan><tspan x="9.78" y="0" class="st3 st4">r</tspan><tspan x="13.24" y="0" class="st3 st4">tices</tspan></text>
<ellipse transform="matrix(0.0553 -0.9985 0.9985 0.0553 1.6032 431.9934)" class="st7" cx="229.09" cy="215.15" rx="2.11" ry="2.11"/>
<ellipse transform="matrix(0.9966 -0.0825 0.0825 0.9966 -2.9512 18.6987)" class="st6" cx="224.84" cy="45.07" rx="2.11" ry="2.11"/>
<path class="st6" d="M226.95,101.76c0-1.17-0.95-2.11-2.11-2.11s-2.11,0.95-2.11,2.11c0,1.17,0.95,2.11,2.11,2.11
	S226.95,102.93,226.95,101.76z"/>
<ellipse transform="matrix(0.9925 -0.1222 0.1222 0.9925 -17.6761 28.6591)" class="st6" cx="224.84" cy="158.46" rx="2.11" ry="2.11"/>
<ellipse transform="matrix(0.9732 -0.2298 0.2298 0.9732 -4.1124 54.8174)" class="st17" cx="233.34" cy="45.07" rx="2.11" ry="2.11"/>
<path class="st17" d="M235.46,101.76c0-1.17-0.95-2.11-2.11-2.11s-2.11,0.95-2.11,2.11c0,1.17,0.95,2.11,2.11,2.11
	S235.46,102.93,235.46,101.76z"/>
<circle class="st17" cx="233.34" cy="158.46" r="2.11"/>
<path class="st9" d="M225.03,160.94l3.88,51.73 M224.84,104.25v51.72 M224.84,47.56v51.72"/>
<path class="st18" d="M233.16,160.94l-3.88,51.73 M233.34,104.25v51.72 M233.34,47.56v51.72"/>
<line class="st19" x1="227.33" y1="45.07" x2="230.86" y2="45.07"/>
<line class="st19" x1="227.33" y1="101.76" x2="230.86" y2="101.76"/>
<line class="st19" x1="227.33" y1="158.46" x2="230.86" y2="158.46"/>
<text transform="matrix(1 0 0 1 192.9072 74.8551)" class="st6 st20 st11">S</text>
<text transform="matrix(1 0 0 1 198.0571 76.2608)" class="st6 st21 st22">f</text>
<text transform="matrix(1 0 0 1 202.332 76.2608)" class="st6 st23 st22">−</text>
<path class="st13" d="M200.75,80.45c2.13,14.06,9.44,23.21,18.46,26.74"/>
<path class="st6" d="M223.42,108.85c-1.16-0.72-2.91-2.22-4-3.59l-1.38,3.52C219.77,108.5,222.08,108.59,223.42,108.85"/>
<text transform="matrix(1 0 0 1 249.6821 74.8551)" class="st17 st20 st11">S</text>
<text transform="matrix(1 0 0 1 254.833 76.2608)" class="st17 st21 st22">f</text>
<text transform="matrix(1 0 0 1 259.1084 76.2608)" class="st17 st24 st22">+</text>
<path class="st25" d="M257.44,80.45c-2.13,14.06-9.44,23.21-18.46,26.74"/>
<path class="st17" d="M234.76,108.85c1.34-0.26,3.65-0.35,5.38-0.08l-1.38-3.52C237.68,106.63,235.92,108.13,234.76,108.85"/>
<text transform="matrix(1 0 0 1 147.041 212.4664)"><tspan x="0" y="0" class="st6 st10 st11">O</tspan><tspan x="5.49" y="0" class="st6 st10 st11">r</tspan><tspan x="8.22" y="0" class="st6 st10 st11">igina</tspan><tspan x="24.67" y="0" class="st6 st10 st11 st12">l</tspan><tspan x="29.2" y="0" class="st6 st10 st11">f</tspan><tspan x="31.29" y="0" class="st6 st10 st11">aul</tspan><tspan x="41.4" y="0" class="st6 st10 st11 st12">t</tspan><tspan x="46.7" y="0" class="st6 st10 st11">v</tspan><tspan x="50.34" y="0" class="st6 st10 st11">e</tspan><tspan x="54.33" y="0" class="st6 st10 st11">r</tspan><tspan x="57.25" y="0" class="st6 st10 st11">t</tspan><tspan x="59.89" y="0" class="st6 st10 st11">e</tspan><tspan x="63.64" y="0" class="st6 st10 st11">x</tspan></text>
<text transform="matrix(1 0 0 1 163.8281 221.9312)"><tspan x="0" y="0" class="st6 st10 st11">(negati</tspan><tspan x="23.48" y="0" class="st6 st10 st11">v</tspan><tspan x="27.11" y="0" class="st6 st10 st11 st12">e</tspan><tspan x="33.76" y="0" class="st6 st10 st11">side)</tspan></text>
<path class="st13" d="M219.37,203.56c10.53-13.21,12.62-27.09,8.11-38.6"/>
<path class="st6" d="M225.82,160.75c0.26,1.34,0.35,3.65,0.08,5.38l3.52-1.38C228.04,163.66,226.54,161.91,225.82,160.75"/>
<text transform="matrix(1 0 0 1 180.1611 240.7554)"><tspan x="0" y="0" class="st26 st10 st11">Ad</tspan><tspan x="9.37" y="0" class="st26 st10 st11 st12">d</tspan><tspan x="16.52" y="0" class="st26 st10 st11">La</tspan><tspan x="24.12" y="0" class="st26 st10 st11">g</tspan><tspan x="28.5" y="0" class="st26 st10 st11">r</tspan><tspan x="31.04" y="0" class="st26 st10 st11">ange</tspan></text>
<text transform="matrix(1 0 0 1 178.3281 250.2203)"><tspan x="0" y="0" class="st26 st10 st11">m</tspan><tspan x="6.57" y="0" class="st26 st10 st11">ultiplie</tspan><tspan x="29.62" y="0" class="st26 st10 st11 st12">r</tspan><tspan x="34.88" y="0" class="st26 st10 st11">edge</tspan></text>
<path class="st27" d="M233.54,231.97c12.86-25.75,11.42-49.5-1.95-69.73"/>
<path class="st26" d="M229.09,158.46c0.53,1.26,1.1,3.49,1.2,5.24l3.15-2.08C231.87,160.84,230.04,159.44,229.09,158.46"/>
<text transform="matrix(1 0 0 1 194.7471 269.1568)"><tspan x="0" y="0" class="st17 st10 st11">Ad</tspan><tspan x="9.37" y="0" class="st17 st10 st11 st12">d</tspan><tspan x="16.52" y="0" class="st17 st10 st11">v</tspan><tspan x="20.16" y="0" class="st17 st10 st11">e</tspan><tspan x="24.15" y="0" class="st17 st10 st11">r</tspan><tspan x="27.07" y="0" class="st17 st10 st11">t</tspan><tspan x="29.7" y="0" class="st17 st10 st11">e</tspan><tspan x="33.46" y="0" class="st17 st10 st11 st12">x</tspan><tspan x="39.8" y="0" class="st17 st10 st11">on</tspan></text>
<text transform="matrix(1 0 0 1 200.5908 278.6216)"><tspan x="0" y="0" class="st17 st10 st11">positi</tspan><tspan x="18.43" y="0" class="st17 st10 st11">v</tspan><tspan x="22.07" y="0" class="st17 st10 st11 st12">e</tspan><tspan x="28.72" y="0" class="st17 st10 st11">side</tspan></text>
<path class="st25" d="M247.71,260.37c15.16-36.28,11-68.68-10.09-96.35"/>
<path class="st17" d="M234.88,160.42c0.61,1.22,1.34,3.41,1.55,5.15l3-2.29C237.82,162.61,235.89,161.33,234.88,160.42"/>
<text transform="matrix(1 0 0 1 290.0381 15.127)"><tspan x="0" y="0" class="st3 st4">(c</tspan><tspan x="7.29" y="0" class="st3 st4 st5">)</tspan><tspan x="13.44" y="0" class="st3 st4">Updat</tspan><tspan x="39.27" y="0" class="st3 st4 st5">e</tspan><tspan x="47.58" y="0" class="st3 st4">cell</tspan><tspan x="61.74" y="0" class="st3 st4 st5">s</tspan><tspan x="69" y="0" class="st3 st4">with</tspan></text>
<text transform="matrix(1 0 0 1 290.0381 25.4879)"><tspan x="0" y="0" class="st3 st4">faul</tspan><tspan x="15.55" y="0" class="st3 st4 st5">t</tspan><tspan x="22.16" y="0" class="st3 st4">faces</tspan></text>
<ellipse transform="matrix(0.0985 -0.9951 0.9951 0.0985 94.6302 534.7621)" class="st7" cx="342.48" cy="215.15" rx="2.11" ry="2.11"/>
<circle class="st6" cx="338.23" cy="45.07" r="2.11"/>
<path class="st6" d="M340.34,101.76c0-1.17-0.95-2.11-2.11-2.11c-1.17,0-2.11,0.95-2.11,2.11c0,1.17,0.95,2.11,2.11,2.11
	C339.39,103.88,340.34,102.93,340.34,101.76z"/>
<circle class="st6" cx="338.23" cy="158.46" r="2.11"/>
<ellipse transform="matrix(0.9871 -0.1602 0.1602 0.9871 -2.742 56.1223)" class="st17" cx="346.73" cy="45.07" rx="2.11" ry="2.11"/>
<path class="st17" d="M348.85,101.76c0-1.17-0.95-2.11-2.11-2.11s-2.11,0.95-2.11,2.11c0,1.17,0.95,2.11,2.11,2.11
	S348.85,102.93,348.85,101.76z"/>
<circle class="st17" cx="346.73" cy="158.46" r="2.11"/>
<circle class="st8" cx="310.59" cy="73.42" r="2.11"/>
<circle class="st8" cx="374.37" cy="73.42" r="2.11"/>
<ellipse transform="matrix(0.9985 -0.0553 0.0553 0.9985 -6.7199 17.3751)" class="st8" cx="310.59" cy="130.11" rx="2.11" ry="2.11"/>
<ellipse transform="matrix(0.9951 -0.0985 0.0985 0.9951 -10.9987 37.5226)" class="st8" cx="374.37" cy="130.11" rx="2.11" ry="2.11"/>
<ellipse transform="matrix(0.0985 -0.9951 0.9951 0.0985 94.0909 477.4732)" class="st8" cx="310.59" cy="186.8" rx="2.11" ry="2.11"/>
<circle class="st8" cx="374.37" cy="186.8" r="2.11"/>
<path class="st18" d="M346.55,160.94l-3.88,51.73 M346.73,104.25v51.72 M346.73,47.56v51.72"/>
<path class="st9" d="M338.41,160.94l3.88,51.73 M338.23,104.25v51.72 M338.23,47.56v51.72"/>
<line class="st19" x1="340.71" y1="45.07" x2="344.24" y2="45.07"/>
<line class="st19" x1="340.71" y1="101.76" x2="344.24" y2="101.76"/>
<line class="st19" x1="340.71" y1="158.46" x2="344.24" y2="158.46"/>
<text transform="matrix(1 0 0 1 327.3555 75.106)" class="st3 st4">-</text>
<text transform="matrix(1 0 0 1 327.3555 131.7979)" class="st3 st4">-</text>
<text transform="matrix(1 0 0 1 328.7725 188.4898)" class="st3 st4">-</text>
<text transform="matrix(1 0 0 1 353.0332 75.9229)" class="st3 st4">+</text>
<text transform="matrix(1 0 0 1 353.0332 132.6148)" class="st3 st4">+</text>
<text transform="matrix(1 0 0 1 351.6162 189.3072)" class="st3 st4">+</text>
<text transform="matrix(1 0 0 1 291.4551 236.9019)"><tspan x="0" y="0" class="st6 st10 st11">Cel</tspan><tspan x="10.5" y="0" class="st6 st10 st11 st12">l</tspan><tspan x="15.03" y="0" class="st6 st10 st11">on</tspan></text>
<text transform="matrix(1 0 0 1 291.4551 246.3658)"><tspan x="0" y="0" class="st6 st10 st11">negati</tspan><tspan x="21.22" y="0" class="st6 st10 st11">v</tspan><tspan x="24.85" y="0" class="st6 st10 st11">e</tspan></text>
<text transform="matrix(1 0 0 1 291.4551 255.8306)" class="st6 st10 st11">side</text>
<path class="st13" d="M308.46,228c1.44-13.03,7.84-21.75,15.68-25.2"/>
<path class="st6" d="M328.31,200.98c-1.33,0.31-3.64,0.5-5.38,0.3l1.52,3.47C325.48,203.32,327.18,201.75,328.31,200.98"/>
<text transform="matrix(1 0 0 1 359.4873 236.9019)"><tspan x="0" y="0" class="st17 st10 st11">Cel</tspan><tspan x="10.5" y="0" class="st17 st10 st11 st12">l</tspan><tspan x="15.03" y="0" class="st17 st10 st11">on</tspan></text>
<text transform="matrix(1 0 0 1 359.4873 246.3658)"><tspan x="0" y="0" class="st17 st10 st11">positi</tspan><tspan x="18.43" y="0" class="st17 st10 st11">v</tspan><tspan x="22.07" y="0" class="st17 st10 st11">e</tspan></text>
<text transform="matrix(1 0 0 1 359.4873 255.8306)" class="st17 st10 st11">side</text>
<path class="st25" d="M376.5,228c-1.44-13.03-7.84-21.75-15.68-25.2"/>
<path class="st17" d="M356.65,200.98c1.13,0.77,2.83,2.35,3.86,3.76l1.52-3.47C360.29,201.47,357.99,201.29,356.65,200.98"/>
<text transform="matrix(1 0 0 1 403.4238 10.0382)"><tspan x="0" y="0" class="st3 st4">(d</tspan><tspan x="8.45" y="0" class="st3 st4 st5">)</tspan><tspan x="14.58" y="0" class="st3 st4">Classif</tspan><tspan x="40.65" y="0" class="st3 st4 st5">y</tspan><tspan x="48.66" y="0" class="st3 st4">cell</tspan><tspan x="62.81" y="0" class="st3 st4 st5">s</tspan><tspan x="70.08" y="0" class="st3 st4">and</tspan></text>
<text transform="matrix(1 0 0 1 403.4238 20.399)"><tspan x="0" y="0" class="st3 st4">updat</tspan><tspan x="24.88" y="0" class="st3 st4 st5">e</tspan><tspan x="33.18" y="0" class="st3 st4">remaining</tspan></text>
<text transform="matrix(1 0 0 1 403.4238 30.691)" class="st3 st4">cells</text>
<circle class="st7" cx="455.87" cy="215.15" r="2.11"/>
<ellipse transform="matrix(0.9871 -0.1602 0.1602 0.9871 -1.3877 72.9228)" class="st6" cx="451.61" cy="45.07" rx="2.11" ry="2.11"/>
<path class="st6" d="M453.73,101.76c0-1.17-0.95-2.11-2.11-2.11c-1.17,0-2.11,0.95-2.11,2.11c0,1.17,0.95,2.11,2.11,2.11
	C452.78,103.88,453.73,102.93,453.73,101.76z"/>
<circle class="st6" cx="451.61" cy="158.46" r="2.11"/>
<ellipse transform="matrix(0.9871 -0.1602 0.1602 0.9871 -1.2779 74.285)" class="st17" cx="460.12" cy="45.07" rx="2.11" ry="2.11"/>
<path class="st17" d="M462.23,101.76c0-1.17-0.95-2.11-2.11-2.11c-1.17,0-2.11,0.95-2.11,2.11c0,1.17,0.95,2.11,2.11,2.11
	C461.29,103.88,462.23,102.93,462.23,101.76z"/>
<circle class="st17" cx="460.12" cy="158.46" r="2.11"/>
<circle class="st8" cx="423.98" cy="73.42" r="2.11"/>
<circle class="st8" cx="487.76" cy="73.42" r="2.11"/>
<ellipse transform="matrix(0.9871 -0.1602 0.1602 0.9871 -15.3666 69.5937)" class="st8" cx="423.98" cy="130.11" rx="2.11" ry="2.11"/>
<ellipse transform="matrix(0.9871 -0.1602 0.1602 0.9871 -14.543 79.8102)" class="st8" cx="487.76" cy="130.11" rx="2.11" ry="2.11"/>
<ellipse transform="matrix(0.9975 -0.0709 0.0709 0.9975 -12.1756 30.5252)" class="st8" cx="423.98" cy="186.8" rx="2.11" ry="2.11"/>
<ellipse transform="matrix(0.9975 -0.0709 0.0709 0.9975 -12.0151 35.0465)" class="st8" cx="487.76" cy="186.8" rx="2.11" ry="2.11"/>
<ellipse transform="matrix(0.9871 -0.1602 0.1602 0.9871 -1.7446 68.4956)" class="st8" cx="423.98" cy="45.07" rx="2.11" ry="2.11"/>
<ellipse transform="matrix(0.9871 -0.1602 0.1602 0.9871 -0.921 78.7121)" class="st8" cx="487.76" cy="45.07" rx="2.11" ry="2.11"/>
<ellipse transform="matrix(0.9871 -0.1602 0.1602 0.9871 -33.3918 72.7603)" class="st8" cx="434.61" cy="243.5" rx="2.11" ry="2.11"/>
<ellipse transform="matrix(0.9871 -0.1602 0.1602 0.9871 -32.8428 79.5712)" class="st8" cx="477.13" cy="243.5" rx="2.11" ry="2.11"/>
<path class="st18" d="M459.93,160.94l-3.88,51.73 M460.12,104.25v51.72 M460.12,47.56v51.72"/>
<path class="st9" d="M451.8,160.94l3.88,51.73 M451.61,104.25v51.72 M451.61,47.56v51.72"/>
<line class="st19" x1="454.1" y1="45.07" x2="457.63" y2="45.07"/>
<line class="st19" x1="454.1" y1="101.76" x2="457.63" y2="101.76"/>
<line class="st19" x1="454.1" y1="158.46" x2="457.63" y2="158.46"/>
<text transform="matrix(1 0 0 1 440.7393 75.106)" class="st3 st4">-</text>
<text transform="matrix(1 0 0 1 440.7393 131.7979)" class="st3 st4">-</text>
<text transform="matrix(1 0 0 1 442.1562 188.4898)" class="st3 st4">-</text>
<text transform="matrix(1 0 0 1 431.5273 56.2081)" class="st3 st4">-</text>
<text transform="matrix(1 0 0 1 431.5273 103.4522)" class="st3 st4">-</text>
<text transform="matrix(1 0 0 1 431.5273 160.1441)" class="st3 st4">-</text>
<text transform="matrix(1 0 0 1 466.417 75.9229)" class="st3 st4">+</text>
<text transform="matrix(1 0 0 1 466.417 132.6148)" class="st3 st4">+</text>
<text transform="matrix(1 0 0 1 465 189.3072)" class="st3 st4">+</text>
<text transform="matrix(1 0 0 1 475.6299 57.025)" class="st3 st4">+</text>
<text transform="matrix(1 0 0 1 475.6299 104.2691)" class="st3 st4">+</text>
<text transform="matrix(1 0 0 1 475.6299 160.9615)" class="st3 st4">+</text>
<rect x="61" y="-116.06" style="fill:none;" width="6" height="2"/>
</svg>
